<?xml version="1.0" encoding="UTF-8" standalone="no"?>
<!-- Created with Inkscape (http://www.inkscape.org/) -->

<svg
   xmlns:dc="http://purl.org/dc/elements/1.1/"
   xmlns:cc="http://creativecommons.org/ns#"
   xmlns:rdf="http://www.w3.org/1999/02/22-rdf-syntax-ns#"
   xmlns:svg="http://www.w3.org/2000/svg"
   xmlns="http://www.w3.org/2000/svg"
   xmlns:sodipodi="http://sodipodi.sourceforge.net/DTD/sodipodi-0.dtd"
   xmlns:inkscape="http://www.inkscape.org/namespaces/inkscape"
   width="48px"
   height="48px"
   viewBox="0 0 48 48"
   version="1.1"
   id="SVGRoot"
   inkscape:version="0.92.4 (5da689c313, 2019-01-14)"
   sodipodi:docname="sporea.svg"
   inkscape:export-filename="C:\Users\Admin\Documents\Rainmeter\Skins\Honeycomb-NG\@Resources\Images\openshot.png"
   inkscape:export-xdpi="512"
   inkscape:export-ydpi="512">
  <defs
     id="defs1995" />
  <sodipodi:namedview
     id="base"
     pagecolor="#ffffff"
     bordercolor="#666666"
     borderopacity="1.0"
     inkscape:pageopacity="0.0"
     inkscape:pageshadow="2"
     inkscape:zoom="21.677703"
     inkscape:cx="8.4276918"
     inkscape:cy="20.995315"
     inkscape:document-units="px"
     inkscape:current-layer="layer1"
     showgrid="true"
     inkscape:window-width="1920"
     inkscape:window-height="1017"
     inkscape:window-x="-8"
     inkscape:window-y="-8"
     inkscape:window-maximized="1"
     inkscape:grid-bbox="true"
     inkscape:snap-global="false">
    <inkscape:grid
       type="xygrid"
       id="grid2562" />
  </sodipodi:namedview>
  <metadata
     id="metadata1998">
    <rdf:RDF>
      <cc:Work
         rdf:about="">
        <dc:format>image/svg+xml</dc:format>
        <dc:type
           rdf:resource="http://purl.org/dc/dcmitype/StillImage" />
        <dc:title></dc:title>
      </cc:Work>
    </rdf:RDF>
  </metadata>
  <g
     inkscape:label="Layer 1"
     inkscape:groupmode="layer"
     id="layer1">
    <path
       style="opacity:1;vector-effect:none;fill:#ffffff;fill-opacity:1;fill-rule:evenodd;stroke-width:1.04800451;paint-order:normal"
       d="m 25.655768,13.416164 c -1.618398,0.04689 -3.299756,0.604116 -4.497003,1.657975 -2.548206,2.243023 -3.233741,6.176576 -1.506506,8.639897 0.531692,0.758282 0.540981,0.898581 0.05732,0.898581 -0.615703,0 -2.118239,-1.685864 -2.3969,-2.689605 -0.517263,-1.863185 -0.09091,-3.974281 1.146255,-5.682149 1.119308,-1.545161 0.322239,-1.995574 -1.244506,-0.704128 -1.881972,1.551279 -2.698173,4.649545 -1.926118,7.305328 0.471101,1.620527 2.09353,3.394142 3.79083,4.144939 1.158397,0.512416 3.181518,0.671167 4.447877,0.347971 0.980888,-0.250341 1.047938,0.306066 0.116672,0.968176 -1.134738,0.806777 -2.40258,1.060482 -3.796968,0.76144 -1.615338,-0.346428 -2.525172,-0.926937 -3.948439,-2.523807 -0.956381,-1.073033 -1.190143,-1.234325 -1.318193,-0.900629 -0.291249,0.758983 0.37772,2.264946 1.512647,3.399874 2.162693,2.162693 5.275247,2.70806 7.917346,1.387788 2.219047,-1.108871 3.471651,-2.851158 3.887032,-5.407868 0.177444,-1.092167 0.741512,-1.183676 0.949754,-0.0655 0.477247,2.56262 -0.616793,5.063268 -3.496077,6.91642 -0.481793,0.310089 -1.132525,0.43112 -1.357084,0.433939 -0.471037,0.0058 -0.546784,0.371361 -0.116672,0.562893 0.553941,0.246676 2.27508,-0.08301 3.39578,-0.650908 2.297917,-1.164444 3.765807,-3.459515 3.774454,-5.90526 0.0094,-2.673283 -1.422875,-5.100264 -3.678251,-6.234808 -1.593572,-0.80163 0.230567,-1.170631 1.942493,-0.393002 0.518246,0.235408 1.365328,0.910063 1.883133,1.498319 0.988403,1.122883 1.423569,2.21349 1.651835,4.140846 0.174522,1.473564 0.629918,1.209914 1.000927,-0.577222 0.310366,-1.495022 0.03232,-2.975041 -0.87402,-4.640285 -1.256522,-2.308644 -3.298964,-3.323542 -6.324871,-3.144013 -1.971596,0.116978 -2.840762,0.473436 -4.249331,1.745992 -0.509007,0.459856 -0.999047,0.763317 -1.088942,0.673425 -0.311652,-0.311656 0.997492,-2.342549 1.926118,-2.988451 1.453001,-1.010633 3.199357,-1.282728 5.145866,-0.802378 1.947033,0.480478 2.369526,0.248498 1.398021,-0.765534 -0.95006,-0.99165 -2.506072,-1.455144 -4.124471,-1.408256 z"
       id="rect847"
       inkscape:connector-curvature="0"
       sodipodi:nodetypes="cscssccccccsccsscssccccscssssssccsscc" />
  </g>
</svg>
