<?xml version="1.0" encoding="UTF-8" standalone="no"?>
<!-- Created with Inkscape (http://www.inkscape.org/) -->

<svg
   xmlns:dc="http://purl.org/dc/elements/1.1/"
   xmlns:cc="http://creativecommons.org/ns#"
   xmlns:rdf="http://www.w3.org/1999/02/22-rdf-syntax-ns#"
   xmlns:svg="http://www.w3.org/2000/svg"
   xmlns="http://www.w3.org/2000/svg"
   xmlns:sodipodi="http://sodipodi.sourceforge.net/DTD/sodipodi-0.dtd"
   xmlns:inkscape="http://www.inkscape.org/namespaces/inkscape"
   width="48px"
   height="48px"
   viewBox="0 0 48 48"
   version="1.1"
   id="SVGRoot"
   inkscape:version="0.92.4 (5da689c313, 2019-01-14)"
   sodipodi:docname="battle-neta.svg"
   inkscape:export-filename="C:\Users\Admin\Documents\Rainmeter\Skins\Honeycomb-NG\@Resources\Images\openshot.png"
   inkscape:export-xdpi="512"
   inkscape:export-ydpi="512">
  <defs
     id="defs1995" />
  <sodipodi:namedview
     id="base"
     pagecolor="#ffffff"
     bordercolor="#666666"
     borderopacity="1.0"
     inkscape:pageopacity="0.0"
     inkscape:pageshadow="2"
     inkscape:zoom="17.86912"
     inkscape:cx="20.695785"
     inkscape:cy="30.074357"
     inkscape:document-units="px"
     inkscape:current-layer="layer1"
     showgrid="true"
     inkscape:window-width="1920"
     inkscape:window-height="1017"
     inkscape:window-x="-8"
     inkscape:window-y="-8"
     inkscape:window-maximized="1"
     inkscape:grid-bbox="true"
     inkscape:snap-global="false">
    <inkscape:grid
       type="xygrid"
       id="grid2562" />
  </sodipodi:namedview>
  <metadata
     id="metadata1998">
    <rdf:RDF>
      <cc:Work
         rdf:about="">
        <dc:format>image/svg+xml</dc:format>
        <dc:type
           rdf:resource="http://purl.org/dc/dcmitype/StillImage" />
        <dc:title></dc:title>
      </cc:Work>
    </rdf:RDF>
  </metadata>
  <g
     inkscape:label="Layer 1"
     inkscape:groupmode="layer"
     id="layer1">
    <path
       style="opacity:1;vector-effect:none;fill:#ffffff;fill-opacity:1;fill-rule:evenodd;stroke:none;stroke-width:0.04072497;stroke-opacity:1;paint-order:stroke fill markers"
       d="m 21.171585,13.215761 c -1.126598,0.0027 -2.048434,0.837092 -2.493208,2.256815 -0.217454,0.694073 -0.312254,1.290623 -0.346719,2.181727 l -0.03206,0.82818 -0.222543,0.05527 c -1.44076,0.358117 -2.682021,0.940753 -3.501631,1.643554 -0.674287,0.578188 -0.722777,0.924772 -0.07033,0.502697 0.49838,-0.3224 1.127373,-0.590233 1.931255,-0.822454 0.632189,-0.182624 1.867716,-0.431971 1.913517,-0.38617 0.01279,0.01279 0.06949,0.338914 0.126156,0.724856 0.391676,2.668666 1.428793,5.500075 2.854326,7.792625 l 0.398817,0.641498 -0.362706,0.115337 c -0.214709,0.06833 -0.573072,0.126315 -0.878451,0.142144 -0.4882,0.02531 -0.531636,0.01839 -0.809249,-0.128074 -0.841034,-0.44378 -1.060721,-1.639056 -0.595284,-3.238508 l 0.107289,-0.368993 -0.159067,-0.418384 c -0.08752,-0.230139 -0.237468,-0.656706 -0.333278,-0.94789 -0.0958,-0.291183 -0.190966,-0.529424 -0.211512,-0.529424 -0.05369,0 -0.607456,1.01109 -0.936276,1.709572 -0.350989,0.745574 -0.713956,1.84686 -0.836613,2.538231 -0.06993,0.394128 -0.08754,0.718092 -0.06937,1.276075 0.02105,0.64726 0.04399,0.798524 0.170685,1.125108 0.45303,1.167817 1.449157,1.6991 2.889168,1.540868 0.842621,-0.09261 1.668566,-0.387717 2.756172,-0.984876 l 0.479471,-0.26329 0.579377,0.564502 c 1.000295,0.974583 1.905909,1.568012 2.887099,1.89188 0.3542,0.116909 0.705977,0.13519 0.705687,0.03659 -1.13e-4,-0.03734 -0.152777,-0.147076 -0.339322,-0.243864 -0.742015,-0.384977 -1.78228,-1.300419 -2.633919,-2.317901 l -0.405739,-0.484724 0.155096,-0.112564 c 0.899275,-0.652305 2.724736,-2.433835 3.488187,-3.404273 0.954088,-1.21276 1.598323,-2.193835 2.183637,-3.325128 l 0.361195,-0.698132 0.322858,0.318086 c 0.785871,0.774302 1.002136,1.416623 0.697415,2.071166 -0.318544,0.684226 -1.322193,1.287491 -2.586831,1.554787 -0.0783,0.01652 -0.21239,0.122024 -0.297959,0.234402 -0.08558,0.112405 -0.369755,0.45399 -0.631476,0.75906 -0.261718,0.30507 -0.475814,0.567694 -0.475814,0.583672 0,0.05018 1.428826,0.03161 2.01692,-0.02639 2.531404,-0.249006 4.23978,-1.085461 4.860585,-2.379866 0.194191,-0.404912 0.240186,-1.136023 0.101506,-1.613089 -0.320055,-1.100955 -1.258279,-2.118694 -2.826567,-3.065984 l -0.451686,-0.272655 0.105316,-0.365334 c 0.442008,-1.532996 0.521229,-3.216089 0.196935,-4.186078 -0.19475,-0.582532 -0.266461,-0.48834 -0.283324,0.372569 -0.01812,0.924369 -0.155896,1.63222 -0.552491,2.837225 -0.164637,0.500239 -0.309436,0.909471 -0.321745,0.909471 -0.01226,0 -0.256388,-0.09732 -0.542388,-0.216362 -2.325562,-0.967871 -5.391583,-1.524168 -8.021388,-1.45536 l -0.967138,0.02531 0.03715,-0.22209 c 0.112085,-0.669522 0.492558,-1.404937 0.85045,-1.643952 0.757804,-0.50609 1.920838,-0.10862 3.01341,1.029976 0.296912,0.309416 0.369077,0.356526 0.597274,0.389592 0.142758,0.02079 0.573789,0.09828 0.957832,0.172445 0.384041,0.07413 0.710988,0.122051 0.726607,0.106435 0.01572,-0.01572 -0.10028,-0.255242 -0.257561,-0.532526 -1.044916,-1.842226 -2.389654,-3.295046 -3.629612,-3.921288 -0.370482,-0.187102 -1.032379,-0.356937 -1.388149,-0.356105 z m -1.027031,6.064121 1.081201,0.0339 c 1.972211,0.06185 3.629433,0.386659 5.479574,1.074042 0.579444,0.21527 2.014929,0.89544 2.218078,1.050974 0.0953,0.07297 0.08448,0.103876 -0.212524,0.610001 -0.83007,1.414473 -1.598217,2.410645 -2.736448,3.548877 -1.018704,1.018704 -1.972387,1.778826 -3.053654,2.433715 l -0.200772,0.121545 -0.249193,-0.423476 c -1.315014,-2.234499 -2.165609,-5.09884 -2.291095,-7.71539 z"
       id="rect830"
       inkscape:connector-curvature="0" />
  </g>
</svg>
