<?xml version="1.0" encoding="UTF-8" standalone="no"?>
<!-- Created with Inkscape (http://www.inkscape.org/) -->

<svg
   xmlns:dc="http://purl.org/dc/elements/1.1/"
   xmlns:cc="http://creativecommons.org/ns#"
   xmlns:rdf="http://www.w3.org/1999/02/22-rdf-syntax-ns#"
   xmlns:svg="http://www.w3.org/2000/svg"
   xmlns="http://www.w3.org/2000/svg"
   xmlns:sodipodi="http://sodipodi.sourceforge.net/DTD/sodipodi-0.dtd"
   xmlns:inkscape="http://www.inkscape.org/namespaces/inkscape"
   width="48px"
   height="48px"
   viewBox="0 0 48 48"
   version="1.1"
   id="SVGRoot"
   inkscape:version="0.92.4 (5da689c313, 2019-01-14)"
   sodipodi:docname="twittera.svg"
   inkscape:export-filename="C:\Users\Admin\Documents\Rainmeter\Skins\Honeycomb-NG\@Resources\Images\openshot.png"
   inkscape:export-xdpi="512"
   inkscape:export-ydpi="512">
  <defs
     id="defs1995" />
  <sodipodi:namedview
     id="base"
     pagecolor="#ffffff"
     bordercolor="#666666"
     borderopacity="1.0"
     inkscape:pageopacity="0.0"
     inkscape:pageshadow="2"
     inkscape:zoom="17.86912"
     inkscape:cx="22.347892"
     inkscape:cy="26.681525"
     inkscape:document-units="px"
     inkscape:current-layer="layer1"
     showgrid="true"
     inkscape:window-width="1920"
     inkscape:window-height="1017"
     inkscape:window-x="-8"
     inkscape:window-y="-8"
     inkscape:window-maximized="1"
     inkscape:grid-bbox="true"
     inkscape:snap-global="false">
    <inkscape:grid
       type="xygrid"
       id="grid2562" />
  </sodipodi:namedview>
  <metadata
     id="metadata1998">
    <rdf:RDF>
      <cc:Work
         rdf:about="">
        <dc:format>image/svg+xml</dc:format>
        <dc:type
           rdf:resource="http://purl.org/dc/dcmitype/StillImage" />
        <dc:title></dc:title>
      </cc:Work>
    </rdf:RDF>
  </metadata>
  <g
     inkscape:label="Layer 1"
     inkscape:groupmode="layer"
     id="layer1">
    <path
       inkscape:connector-curvature="0"
       id="path830"
       d="m 19.626458,31.252779 c -1.433377,-0.08419 -2.881056,-0.445095 -4.20861,-1.049218 -0.410569,-0.186833 -1.422944,-0.737308 -1.395724,-0.75892 0.0069,-0.0054 0.217116,0.003 0.467064,0.0186 1.774729,0.111771 3.585374,-0.384138 5.097752,-1.396186 0.536894,-0.359276 0.528747,-0.326849 0.09579,-0.381347 -0.486144,-0.06119 -0.866385,-0.167827 -1.266257,-0.355112 -0.957734,-0.448578 -1.716854,-1.25856 -2.106869,-2.248037 l -0.07588,-0.192527 0.56343,0.01913 c 0.505107,0.01714 0.921145,-0.01681 1.186991,-0.09688 0.05196,-0.01565 -0.02977,-0.05383 -0.253409,-0.118404 -0.745431,-0.215207 -1.521332,-0.73485 -2.028188,-1.358337 -0.31999,-0.393621 -0.65699,-1.051998 -0.777941,-1.519815 -0.08239,-0.31864 -0.176262,-1.04292 -0.139893,-1.079288 0.01079,-0.01079 0.139867,0.03465 0.286853,0.100962 0.456303,0.205864 1.078333,0.365805 1.422658,0.365805 h 0.140764 l -0.173876,-0.124669 c -0.257649,-0.184735 -0.71044,-0.655869 -0.903359,-0.939956 -0.835473,-1.230287 -0.967189,-2.786702 -0.345561,-4.083271 l 0.16614,-0.346527 0.197586,0.241305 c 0.271154,0.331149 1.153215,1.185315 1.56094,1.511577 1.80027,1.440573 4.060109,2.334365 6.413539,2.536627 l 0.308092,0.02648 -0.03147,-0.211009 c -0.01731,-0.116056 -0.02967,-0.486644 -0.02746,-0.82353 0.0032,-0.488855 0.02068,-0.673759 0.08655,-0.915835 0.322048,-1.183511 1.097886,-2.142128 2.161943,-2.671273 0.641545,-0.319035 1.110901,-0.423747 1.877078,-0.418777 0.484807,0.0032 0.633829,0.01974 0.968178,0.10781 0.663567,0.174791 1.238317,0.484421 1.782936,0.960506 l 0.241754,0.211334 0.379461,-0.09859 c 0.70146,-0.182255 1.353089,-0.434451 1.91313,-0.740428 0.157578,-0.08609 0.286502,-0.147438 0.286502,-0.136328 0,0.01111 -0.06058,0.163841 -0.13462,0.339403 -0.267169,0.63348 -0.845377,1.351069 -1.391987,1.727533 -0.120251,0.08281 -0.201328,0.156354 -0.180171,0.163406 0.02116,0.0071 0.264912,-0.03302 0.541678,-0.08907 0.486667,-0.09854 1.079504,-0.274848 1.51294,-0.449944 l 0.20953,-0.08464 -0.12561,0.18257 c -0.360234,0.523579 -1.129217,1.332203 -1.661175,1.746804 l -0.261243,0.20361 -0.0044,0.654106 c -0.01559,2.277694 -0.748519,4.583018 -2.095208,6.590221 -1.124913,1.676663 -2.695639,3.031695 -4.519819,3.899171 -1.702252,0.809492 -3.771423,1.197778 -5.760458,1.080958 z"
       style="fill:#ffffff;stroke-width:0.03951745" />
  </g>
</svg>
