<?xml version="1.0" encoding="UTF-8" standalone="no"?>
<!-- Created with Inkscape (http://www.inkscape.org/) -->

<svg
   xmlns:dc="http://purl.org/dc/elements/1.1/"
   xmlns:cc="http://creativecommons.org/ns#"
   xmlns:rdf="http://www.w3.org/1999/02/22-rdf-syntax-ns#"
   xmlns:svg="http://www.w3.org/2000/svg"
   xmlns="http://www.w3.org/2000/svg"
   xmlns:xlink="http://www.w3.org/1999/xlink"
   xmlns:sodipodi="http://sodipodi.sourceforge.net/DTD/sodipodi-0.dtd"
   xmlns:inkscape="http://www.inkscape.org/namespaces/inkscape"
   width="48px"
   height="48px"
   viewBox="0 0 48 48"
   version="1.1"
   id="SVGRoot"
   inkscape:version="0.92.4 (5da689c313, 2019-01-14)"
   sodipodi:docname="daz-centralaa.svg"
   inkscape:export-filename="C:\Users\Admin\Documents\Rainmeter\Skins\Honeycomb-NG\@Resources\Images\openshot.png"
   inkscape:export-xdpi="512"
   inkscape:export-ydpi="512">
  <defs
     id="defs1995">
    <linearGradient
       gradientTransform="matrix(0.9965784,0,0,0.9962666,-89.841948,-62.996045)"
       id="IcecapTip-6"
       xlink:href="#WhiteTransparent-4"
       x1="60"
       y1="20"
       x2="90"
       y2="50"
       gradientUnits="userSpaceOnUse" />
    <linearGradient
       id="WhiteTransparent-4"
       gradientUnits="userSpaceOnUse">
      <stop
         style="stop-color:white;stop-opacity:1"
         offset="0"
         id="stop7606-4" />
      <stop
         style="stop-color:white;stop-opacity:0"
         offset="1"
         id="stop7608-7" />
    </linearGradient>
  </defs>
  <sodipodi:namedview
     id="base"
     pagecolor="#ffffff"
     bordercolor="#666666"
     borderopacity="1.0"
     inkscape:pageopacity="0.0"
     inkscape:pageshadow="2"
     inkscape:zoom="44.055262"
     inkscape:cx="22.91452"
     inkscape:cy="23.178718"
     inkscape:document-units="px"
     inkscape:current-layer="layer1"
     showgrid="true"
     inkscape:window-width="1920"
     inkscape:window-height="1017"
     inkscape:window-x="-8"
     inkscape:window-y="-8"
     inkscape:window-maximized="1"
     inkscape:grid-bbox="true"
     inkscape:snap-global="true">
    <inkscape:grid
       type="xygrid"
       id="grid2562" />
  </sodipodi:namedview>
  <metadata
     id="metadata1998">
    <rdf:RDF>
      <cc:Work
         rdf:about="">
        <dc:format>image/svg+xml</dc:format>
        <dc:type
           rdf:resource="http://purl.org/dc/dcmitype/StillImage" />
        <dc:title></dc:title>
      </cc:Work>
    </rdf:RDF>
  </metadata>
  <g
     inkscape:label="Layer 1"
     inkscape:groupmode="layer"
     id="layer1">
    <path
       style="fill:#ffffff;fill-opacity:1;stroke-width:0.07090694"
       d="M 23.634766 15.070312 C 17.791844 15.235166 13.314091 20.711621 13.726562 22.271484 C 13.826441 22.649209 13.834071 23.031847 15.417969 22.853516 C 17.555383 22.612867 20.660649 20.289617 20.513672 19.507812 C 20.377994 18.786077 19.272613 18.886368 18.388672 18.923828 C 16.83443 18.989689 15.117188 19.714844 15.117188 19.714844 C 15.117188 19.714844 16.875843 18.477866 18.947266 18.279297 C 19.800952 18.197462 21.301472 18.281958 21.511719 19.261719 C 21.71156 20.19302 20.265879 21.295817 19.423828 21.841797 C 18.872087 22.199542 17.272863 22.690052 15.287109 23.90625 C 14.089998 24.639439 12.827894 26.287849 12.974609 27.404297 C 13.055133 28.01699 13.523807 28.605872 14.458984 28.513672 C 15.928417 28.36879 16.679761 25.97878 17.486328 25.279297 C 18.975346 23.987964 20.127154 23.397808 22.369141 23.455078 C 24.05297 23.498088 26.14271 24.026443 26.548828 26.181641 C 27.004587 28.600277 24.533203 30.369141 24.533203 30.369141 C 24.533203 30.369141 26.306514 28.949868 25.832031 26.353516 C 25.523701 24.666309 23.804688 24.199219 23.804688 24.199219 C 23.804688 24.199217 24.779449 25.879735 23.068359 27.076172 C 21.948673 27.859086 19.442898 27.072283 19.367188 28.777344 C 19.305261 30.172505 21.454553 30.799701 23.052734 30.769531 C 24.813674 30.736289 25.827138 29.659649 27.546875 29.005859 C 28.236851 27.809796 29.514517 27 31 27 L 33 27 C 33.53147 27 34.009716 27.209064 34.367188 27.544922 C 34.38536 27.485168 34.41687 27.425434 34.427734 27.367188 C 34.516553 26.891068 34.271778 26.460579 34.267578 25.994141 C 34.263577 25.511476 34.620434 25.543849 34.615234 25.28125 C 34.610477 25.038849 34.294922 24.960938 34.294922 24.960938 C 34.294922 24.960937 34.624266 24.721729 34.634766 24.433594 C 34.643262 24.196196 34.326927 24.094537 34.310547 23.798828 C 34.303133 23.664808 34.319485 23.529083 34.464844 23.408203 C 34.727504 23.189778 35.02767 22.7757 34.96875 22.464844 C 34.839688 21.783572 34.194943 21.722034 33.746094 21.490234 C 32.973394 21.09119 32.541855 20.377509 32.453125 19.921875 C 31.608973 15.587161 26.988216 14.975692 23.634766 15.070312 z "
       id="path832" />
    <path
       style="opacity:1;vector-effect:none;fill:#ffffff;fill-opacity:1;fill-rule:evenodd;stroke:none;stroke-width:2;stroke-linecap:round;stroke-linejoin:round;stroke-miterlimit:4;stroke-dasharray:none;stroke-opacity:1;paint-order:stroke fill markers"
       d="m 31,28 c -1.662,0 -3,1.338 -3,3 0,1.662 1.338,3 3,3 h 2 c 0.554,0 1,-0.446 1,-1 0,-0.602704 -0.447141,-1 -1,-1 -0.666667,0 -2,0 -2,0 -0.554,0 -1,-0.446 -1,-1 0,-0.554 0.446,-1 1,-1 0,0 1.333333,0 2,0 0.608731,0 1,-0.358815 1,-1 0,-0.554 -0.446,-1 -1,-1 z"
       id="rect829"
       inkscape:connector-curvature="0"
       sodipodi:nodetypes="sssssssssssss" />
  </g>
</svg>
