<?xml version="1.0" encoding="UTF-8" standalone="no"?>
<!-- Created with Inkscape (http://www.inkscape.org/) -->

<svg
   xmlns:dc="http://purl.org/dc/elements/1.1/"
   xmlns:cc="http://creativecommons.org/ns#"
   xmlns:rdf="http://www.w3.org/1999/02/22-rdf-syntax-ns#"
   xmlns:svg="http://www.w3.org/2000/svg"
   xmlns="http://www.w3.org/2000/svg"
   xmlns:sodipodi="http://sodipodi.sourceforge.net/DTD/sodipodi-0.dtd"
   xmlns:inkscape="http://www.inkscape.org/namespaces/inkscape"
   width="48px"
   height="48px"
   viewBox="0 0 48 48"
   version="1.1"
   id="SVGRoot"
   inkscape:version="0.92.4 (5da689c313, 2019-01-14)"
   sodipodi:docname="firefox-developer.svg">
  <defs
     id="defs1995" />
  <sodipodi:namedview
     id="base"
     pagecolor="#ffffff"
     bordercolor="#666666"
     borderopacity="1.0"
     inkscape:pageopacity="0.0"
     inkscape:pageshadow="2"
     inkscape:zoom="36.750481"
     inkscape:cx="19.965387"
     inkscape:cy="21.804282"
     inkscape:document-units="px"
     inkscape:current-layer="layer1"
     showgrid="true"
     inkscape:window-width="1920"
     inkscape:window-height="1017"
     inkscape:window-x="-8"
     inkscape:window-y="-8"
     inkscape:window-maximized="1"
     inkscape:grid-bbox="true"
     inkscape:snap-global="true">
    <inkscape:grid
       type="xygrid"
       id="grid2562" />
  </sodipodi:namedview>
  <metadata
     id="metadata1998">
    <rdf:RDF>
      <cc:Work
         rdf:about="">
        <dc:format>image/svg+xml</dc:format>
        <dc:type
           rdf:resource="http://purl.org/dc/dcmitype/StillImage" />
        <dc:title></dc:title>
      </cc:Work>
    </rdf:RDF>
  </metadata>
  <g
     inkscape:label="Layer 1"
     inkscape:groupmode="layer"
     id="layer1">
    <path
       style="fill:#ffffff;fill-opacity:1;stroke-width:0.66666669"
       d="M 27.333984 12.367188 C 27.333984 12.367188 23.333984 14.366537 23.333984 17.033203 C 23.333984 17.344966 23.372011 17.6861 23.425781 18.039062 A 5 5 0 0 1 24 18 A 5 5 0 0 1 29 23 A 5 5 0 0 1 28.896484 24 L 29 24 L 30 24 L 31 24 C 31.342832 24 31.676916 24.034495 32 24.099609 L 32 18.367188 L 28.666016 15.033203 C 27.332682 13.69987 27.333984 12.367187 27.333984 12.367188 z "
       id="path2832" />
    <path
       inkscape:connector-curvature="0"
       style="fill:#ffffff;fill-opacity:1;stroke-width:0.66666669"
       d="m 16.3,18.366334 c 0.666667,-1.333334 2.666667,-2 2.666667,-2 V 19.033 H 16.3 Z"
       id="path2830"
       sodipodi:nodetypes="ccccc" />
    <path
       style="fill:#ffffff;stroke-width:0.66666669"
       d="M 18 15.699219 C 18 15.699219 14 17.69987 14 23.033203 C 14 27.69987 16.666667 33.033203 24 33.033203 C 24.791402 33.033203 25.507707 32.952188 26.185547 32.832031 C 26.069189 32.578018 26 32.298629 26 32 L 26 27.164062 C 25.441664 27.481095 24.783076 27.689292 24 27.699219 C 21.333547 27.733019 19.333984 25.978034 19.333984 24.066406 C 19.333984 22.733072 20.667318 22.367187 21.333984 22.367188 L 22.666016 22.367188 C 23.332682 22.367188 24 21.69987 24 21.033203 C 24 21.033203 22.000651 20.365886 21.333984 19.699219 C 20.88954 19.254774 20.000651 18.367187 19.333984 18.367188 L 18 18.367188 L 18 15.699219 z M 31.333984 16.367188 C 31.333984 16.367188 32.547577 21.253459 31.484375 24.023438 C 32.37727 24.108727 33.194892 24.43382 33.886719 24.923828 C 33.963337 24.464616 34 24.04638 34 23.699219 C 34 19.032552 31.333984 16.367187 31.333984 16.367188 z M 26 19.699219 C 26 19.699219 28 21.032552 28 23.699219 C 28 23.799311 27.980439 23.901094 27.972656 24.001953 C 27.981964 24.001827 27.990661 24 28 24 L 29 24 L 30 24 L 30.207031 24 C 30.139554 20.222284 26 19.699219 26 19.699219 z "
       id="path2828" />
    <path
       style="opacity:1;vector-effect:none;fill:#ffffff;fill-opacity:1;fill-rule:evenodd;stroke:none;stroke-width:2;stroke-linecap:round;stroke-linejoin:round;stroke-miterlimit:4;stroke-dasharray:none;stroke-opacity:1;paint-order:stroke fill markers"
       d="M 28 25 C 27.446 25 27 25.446 27 26 L 27 29 L 27 32 C 27 32.554 27.446 33 28 33 L 31 33 C 33.216 33 35 31.216 35 29 C 35 26.784 33.216 25 31 25 L 28 25 z M 29 27 L 31 27 C 32.108 27 33 27.892 33 29 C 33 30.108 32.108 31 31 31 L 29 31 L 29 29 L 29 27 z "
       id="rect883" />
  </g>
</svg>
