<?xml version="1.0" encoding="UTF-8" standalone="no"?>
<!-- Created with Inkscape (http://www.inkscape.org/) -->

<svg
   xmlns:dc="http://purl.org/dc/elements/1.1/"
   xmlns:cc="http://creativecommons.org/ns#"
   xmlns:rdf="http://www.w3.org/1999/02/22-rdf-syntax-ns#"
   xmlns:svg="http://www.w3.org/2000/svg"
   xmlns="http://www.w3.org/2000/svg"
   xmlns:sodipodi="http://sodipodi.sourceforge.net/DTD/sodipodi-0.dtd"
   xmlns:inkscape="http://www.inkscape.org/namespaces/inkscape"
   width="48px"
   height="48px"
   viewBox="0 0 48 48"
   version="1.1"
   id="SVGRoot"
   inkscape:version="0.92.4 (5da689c313, 2019-01-14)"
   sodipodi:docname="xbmc.svg"
   inkscape:export-filename="C:\Users\Admin\Documents\Rainmeter\Skins\Honeycomb-NG\@Resources\Images\openshot.png"
   inkscape:export-xdpi="512"
   inkscape:export-ydpi="512">
  <defs
     id="defs1995" />
  <sodipodi:namedview
     id="base"
     pagecolor="#ffffff"
     bordercolor="#666666"
     borderopacity="1.0"
     inkscape:pageopacity="0.0"
     inkscape:pageshadow="2"
     inkscape:zoom="15.328451"
     inkscape:cx="22.850307"
     inkscape:cy="25.297158"
     inkscape:document-units="px"
     inkscape:current-layer="layer1"
     showgrid="true"
     inkscape:window-width="1920"
     inkscape:window-height="1017"
     inkscape:window-x="-8"
     inkscape:window-y="-8"
     inkscape:window-maximized="1"
     inkscape:grid-bbox="true"
     showguides="false"
     inkscape:snap-global="false">
    <inkscape:grid
       type="xygrid"
       id="grid2562" />
  </sodipodi:namedview>
  <metadata
     id="metadata1998">
    <rdf:RDF>
      <cc:Work
         rdf:about="">
        <dc:format>image/svg+xml</dc:format>
        <dc:type
           rdf:resource="http://purl.org/dc/dcmitype/StillImage" />
        <dc:title></dc:title>
      </cc:Work>
    </rdf:RDF>
  </metadata>
  <g
     inkscape:label="Layer 1"
     inkscape:groupmode="layer"
     id="layer1">
    <path
       inkscape:connector-curvature="0"
       style="fill:#ffffff;fill-opacity:1;fill-rule:evenodd;stroke:none;stroke-width:0.17538626"
       id="path22"
       d="m 36.631609,27.934244 c 0.368311,-0.166617 0.719084,-0.515636 1.069858,-1.004963 -7.155765,0.112246 -18.013935,0.112246 -27.588278,0.09471 0.02631,0.05612 0.05612,0.110493 0.08418,0.166617 0.659453,0 1.313644,0 1.95205,0 10.011054,-0.01754 19.097822,-0.01754 24.482185,0.745392" />
    <path
       inkscape:connector-curvature="0"
       style="fill:#ffffff;fill-opacity:1;fill-rule:nonzero;stroke:none;stroke-width:0.14030938"
       id="path46"
       d="m 18.724659,18.213212 -0.206254,1.421332 h -1.24454 c -0.756267,0 -1.45641,0.26799 -2.100428,0.802568 -0.169775,0.140309 -0.321308,0.286231 -0.456005,0.441973 -0.07576,-0.155742 -0.169773,-0.301664 -0.284827,-0.441973 -0.440571,-0.534578 -1.042497,-0.802568 -1.798764,-0.802568 H 11.0259 c -0.05753,0.300262 0,0.555623 0.169773,0.767491 0.171177,0.211866 0.405494,0.319904 0.707158,0.319904 h 0.526159 c 0.450393,0 0.802568,0.161355 1.056529,0.486872 0.253958,0.325517 0.339547,0.715577 0.253958,1.165969 -0.08558,0.451796 -0.315695,0.836242 -0.693127,1.15755 -0.377431,0.319905 -0.795553,0.482663 -1.244542,0.482663 H 11.27565 c -0.301666,0 -0.576671,0.103829 -0.829227,0.315696 -0.252556,0.211866 -0.4083,0.465826 -0.464423,0.767492 h 1.613554 c 0.756266,0 1.4522,-0.263782 2.096219,-0.794151 0.168371,-0.138906 0.321308,-0.287634 0.454601,-0.443376 0.07576,0.155742 0.173983,0.30447 0.290441,0.443376 0.44057,0.530369 1.036883,0.794151 1.793149,0.794151 h 1.613554 c 0.05753,-0.301666 0,-0.555626 -0.171176,-0.767492 -0.171177,-0.211867 -0.409703,-0.315696 -0.709964,-0.315696 h -0.52195 c -0.451796,0 -0.805376,-0.162758 -1.060736,-0.482663 -0.256766,-0.321308 -0.342355,-0.705754 -0.255364,-1.15755 0.08558,-0.450392 0.318502,-0.840452 0.697337,-1.165969 0.378834,-0.325517 0.795553,-0.486872 1.245946,-0.486872 h 0.526158 c 0.293245,0 0.562639,-0.105232 0.810986,-0.307277 l -0.284827,1.94749 c -0.113651,0.768894 0.06595,1.419929 0.542996,1.958715 0.465826,0.547206 1.093008,0.816599 1.850677,0.816599 0.7717,0 1.473246,-0.269393 2.104636,-0.816599 0.631391,-0.538786 1.010226,-1.189821 1.122473,-1.958715 0.112247,-0.770297 -0.07016,-1.421332 -0.533174,-1.960117 -0.477052,-0.534579 -1.108442,-0.806779 -1.880141,-0.806779 h -1.641618 l 0.02806,-0.214672 c 0.05612,-0.317099 -0.01403,-0.594911 -0.224494,-0.825018 -0.182402,-0.230106 -0.444781,-0.342354 -0.764684,-0.342354 z m 0.792747,2.486277 h 1.655648 c 0.448989,0 0.813793,0.157147 1.09441,0.482664 0.252557,0.324113 0.350773,0.723994 0.29465,1.179999 -0.07015,0.456005 -0.280618,0.846065 -0.645422,1.174387 -0.364803,0.33113 -0.7717,0.499502 -1.23472,0.499502 -0.463021,0 -0.827823,-0.168372 -1.094411,-0.499502 -0.266588,-0.328322 -0.364803,-0.718382 -0.30868,-1.174387 z" />
    <path
       inkscape:connector-curvature="0"
       style="fill:#ffffff;fill-opacity:1;fill-rule:nonzero;stroke:none;stroke-width:0.14030938"
       id="path48"
       d="m 26.841541,19.595256 c -0.771699,0 -1.473246,0.270797 -2.090605,0.810988 -0.631391,0.548608 -1.010226,1.198239 -1.122473,1.968536 l -0.406896,2.762686 c 0.322711,0 0.617359,-0.108038 0.869916,-0.338145 0.266587,-0.225898 0.420927,-0.4995 0.46302,-0.823615 l 0.238526,-1.600926 c 0.07015,-0.460213 0.280618,-0.854482 0.645421,-1.188418 0.364805,-0.325517 0.785732,-0.486873 1.234721,-0.486873 0.46302,0 0.827824,0.161356 1.09441,0.486873 0.266587,0.333936 0.364804,0.728205 0.29465,1.188418 l -0.224495,1.600926 c -0.05612,0.318502 0.02806,0.58509 0.224495,0.815197 0.196433,0.228703 0.448989,0.346563 0.771699,0.346563 l 0.406897,-2.762686 c 0.05612,-0.460213 0.280617,-0.854482 0.645422,-1.188418 0.364804,-0.325517 0.771701,-0.486873 1.234721,-0.486873 0.448989,0 0.813792,0.161356 1.080379,0.486873 0.266587,0.333936 0.378834,0.728205 0.30868,1.188418 l -0.238526,1.600926 c -0.04209,0.318502 0.02806,0.58509 0.224496,0.815197 0.196432,0.228703 0.448988,0.346563 0.7717,0.346563 l 0.196433,-1.29365 c 0.08418,0.169775 0.182401,0.33113 0.32271,0.482664 0.47705,0.54019 1.09441,0.810986 1.85208,0.810986 h 1.641616 c 0.04209,-0.30447 -0.02806,-0.565445 -0.210463,-0.781521 -0.182402,-0.213269 -0.434959,-0.319904 -0.729607,-0.319904 h -0.533175 c -0.46302,0 -0.827823,-0.165567 -1.094411,-0.491083 -0.280618,-0.324114 -0.378833,-0.714173 -0.32271,-1.170178 0.07015,-0.460213 0.294648,-0.854482 0.659452,-1.188418 0.364804,-0.325517 0.78573,-0.486873 1.234721,-0.486873 h 0.533173 c 0.30868,0 0.589299,-0.113649 0.841856,-0.328322 0.238524,-0.214675 0.378834,-0.468633 0.420927,-0.775911 h -1.627586 c -0.7717,0 -1.459214,0.270797 -2.090606,0.810988 -0.30868,0.269394 -0.561236,0.564041 -0.743638,0.885349 -0.08418,-0.32271 -0.252556,-0.618762 -0.477051,-0.885349 -0.477051,-0.540191 -1.094411,-0.810988 -1.866111,-0.810988 -0.420928,0 -0.841854,0.09962 -1.262781,0.293248 -0.420927,0.193625 -0.799763,0.453197 -1.108444,0.794148 C 28.67959,20.341701 28.384942,20.073711 28.034168,19.880084 27.669365,19.69207 27.2765,19.595256 26.841541,19.595256 Z" />
  </g>
</svg>
