<?xml version="1.0" encoding="UTF-8" standalone="no"?>
<!-- Created with Inkscape (http://www.inkscape.org/) -->

<svg
   xmlns:dc="http://purl.org/dc/elements/1.1/"
   xmlns:cc="http://creativecommons.org/ns#"
   xmlns:rdf="http://www.w3.org/1999/02/22-rdf-syntax-ns#"
   xmlns:svg="http://www.w3.org/2000/svg"
   xmlns="http://www.w3.org/2000/svg"
   xmlns:xlink="http://www.w3.org/1999/xlink"
   xmlns:sodipodi="http://sodipodi.sourceforge.net/DTD/sodipodi-0.dtd"
   xmlns:inkscape="http://www.inkscape.org/namespaces/inkscape"
   width="48px"
   height="48px"
   viewBox="0 0 48 48"
   version="1.1"
   id="SVGRoot"
   inkscape:version="0.92.4 (5da689c313, 2019-01-14)"
   sodipodi:docname="senran-kagura-estival-versus.svg"
   inkscape:export-filename="C:\Users\Admin\Documents\Rainmeter\Skins\Honeycomb-NG\@Resources\Images\openshot.png"
   inkscape:export-xdpi="512"
   inkscape:export-ydpi="512">
  <defs
     id="defs1995">
    <linearGradient
       gradientTransform="matrix(0.9965784,0,0,0.9962666,-89.841948,-62.996045)"
       id="IcecapTip-6"
       xlink:href="#WhiteTransparent-4"
       x1="60"
       y1="20"
       x2="90"
       y2="50"
       gradientUnits="userSpaceOnUse" />
    <linearGradient
       id="WhiteTransparent-4"
       gradientUnits="userSpaceOnUse">
      <stop
         style="stop-color:white;stop-opacity:1"
         offset="0"
         id="stop7606-4" />
      <stop
         style="stop-color:white;stop-opacity:0"
         offset="1"
         id="stop7608-7" />
    </linearGradient>
  </defs>
  <sodipodi:namedview
     id="base"
     pagecolor="#ffffff"
     bordercolor="#666666"
     borderopacity="1.0"
     inkscape:pageopacity="0.0"
     inkscape:pageshadow="2"
     inkscape:zoom="18.973267"
     inkscape:cx="14.361413"
     inkscape:cy="22.31483"
     inkscape:document-units="px"
     inkscape:current-layer="layer1"
     showgrid="true"
     inkscape:window-width="1920"
     inkscape:window-height="1017"
     inkscape:window-x="-8"
     inkscape:window-y="-8"
     inkscape:window-maximized="1"
     inkscape:grid-bbox="true"
     inkscape:snap-global="true"
     showguides="false">
    <inkscape:grid
       type="xygrid"
       id="grid2562" />
  </sodipodi:namedview>
  <metadata
     id="metadata1998">
    <rdf:RDF>
      <cc:Work
         rdf:about="">
        <dc:format>image/svg+xml</dc:format>
        <dc:type
           rdf:resource="http://purl.org/dc/dcmitype/StillImage" />
        <dc:title></dc:title>
      </cc:Work>
    </rdf:RDF>
  </metadata>
  <g
     inkscape:label="Layer 1"
     inkscape:groupmode="layer"
     id="layer1">
    <path
       style="fill:#ffffff;stroke:none;stroke-width:0.99471694px;stroke-linecap:butt;stroke-linejoin:miter;stroke-opacity:1"
       d="M 11.089844 16.71875 L 10.650391 19.525391 L 9 22 L 16.052734 29.15625 L 15.392578 27.232422 L 16.603516 28.386719 L 17.505859 28.347656 C 17.511013 28.338232 17.51426 28.329895 17.519531 28.320312 C 17.63042 28.118766 17.765228 27.887401 17.904297 27.662109 C 18.043365 27.436818 18.184544 27.221271 18.308594 27.042969 C 18.370619 26.953817 18.424798 26.876952 18.492188 26.794922 C 18.52588 26.753907 18.559363 26.711948 18.626953 26.648438 C 18.649089 26.627637 18.692259 26.595496 18.730469 26.566406 C 18.428991 26.512885 18.20347 26.376573 18.050781 26.164062 C 18.047811 26.162263 18.03425 26.159803 18.03125 26.158203 C 17.952019 26.115265 17.903629 26.081705 17.855469 26.046875 C 17.759148 25.97722 17.675854 25.907312 17.583984 25.826172 C 17.400235 25.663888 17.192954 25.460696 16.980469 25.236328 C 16.798024 25.04368 16.619958 24.868221 16.496094 24.751953 C 16.49313 24.749171 16.493147 24.748811 16.490234 24.746094 C 16.552623 24.773948 16.658039 24.798814 16.892578 24.802734 C 16.645477 24.798595 16.28636 24.62212 16.152344 24.5 C 16.018327 24.37788 15.955024 24.287941 15.865234 24.167969 C 15.691149 23.935375 15.43762 23.563118 15.005859 22.927734 C 14.959531 22.915454 14.898451 22.903888 14.869141 22.892578 C 14.764471 22.852178 14.722291 22.824531 14.681641 22.800781 C 14.600331 22.753282 14.547246 22.715562 14.478516 22.669922 C 13.965444 22.329267 13.823599 22.030709 13.685547 21.535156 C 13.675587 21.499471 13.662757 21.469932 13.650391 21.439453 C 13.41531 21.186125 13.401422 20.939588 13.386719 20.769531 C 13.373977 20.62217 13.399581 20.494256 13.429688 20.365234 L 13.353516 20.248047 C 13.257337 20.188684 13.161556 20.13741 13.111328 20.029297 C 13.067067 19.93403 13.060853 19.853548 13.046875 19.769531 L 11.089844 16.71875 z M 39 17 L 34.095703 19.644531 C 34.043564 19.719877 34.001797 19.790155 33.941406 19.871094 L 34.976562 19.640625 L 33.601562 20.960938 L 32.837891 21.1875 C 32.691585 21.353009 32.575706 21.489298 32.402344 21.681641 C 31.929834 22.205878 31.498977 22.690267 31.191406 23.044922 C 31.037621 23.222249 30.914247 23.367971 30.835938 23.462891 C 30.812997 23.490701 30.804606 23.500488 30.791016 23.517578 C 30.776956 23.542958 30.76221 23.576203 30.75 23.595703 C 30.704074 23.66907 30.664414 23.721534 30.621094 23.777344 C 30.534455 23.888964 30.435499 24.003164 30.324219 24.121094 C 30.204404 24.248129 29.957361 24.574573 29.925781 24.626953 C 29.921811 24.633563 29.916109 24.638031 29.912109 24.644531 C 29.938239 24.679201 29.950486 24.700358 29.978516 24.736328 C 30.234679 25.065026 30.577496 25.448356 30.755859 25.609375 C 30.760647 25.613697 30.762858 25.61684 30.767578 25.621094 L 35.306641 21.455078 L 37.287109 19.089844 L 36.351562 19.089844 L 39 17 z M 22.763672 17.384766 L 22.466797 17.759766 C 22.528471 17.869448 22.596249 18.000642 22.564453 18.28125 C 22.568015 18.290964 22.565603 18.289733 22.570312 18.300781 C 22.607742 18.388596 22.694461 18.512077 22.681641 18.498047 C 23.149698 19.010356 23.145028 19.431616 23.173828 19.878906 C 23.202633 20.326197 23.206314 20.758486 22.929688 21.275391 C 22.655004 21.788607 22.287877 21.982366 21.912109 22.144531 C 21.536341 22.306675 21.141106 22.435226 20.589844 22.296875 C 20.130586 22.181617 20.031028 22.025834 19.851562 21.865234 C 19.730267 21.756689 19.621896 21.622351 19.511719 21.492188 L 19.337891 21.710938 C 19.409513 21.79737 19.485259 21.883009 19.544922 21.970703 C 19.565172 22.000467 19.592171 22.057667 19.613281 22.091797 C 19.718091 22.154753 19.834548 22.219117 19.892578 22.279297 C 20.067523 22.460696 20.145381 22.61924 20.212891 22.796875 C 20.100168 22.500384 20.198396 22.740751 20.326172 22.832031 C 20.453947 22.923271 20.724 22.917969 20.351562 22.917969 C 20.927656 22.917969 20.967988 23.079496 21.128906 23.185547 C 21.216577 23.243325 21.29374 23.320762 21.375 23.388672 C 21.426598 23.389792 21.477708 23.343716 21.523438 23.353516 C 21.738783 23.399612 21.856151 23.481226 21.943359 23.552734 L 22.214844 23.105469 L 24.357422 24.783203 C 24.391666 24.088624 24.439605 23.154295 24.505859 22.042969 L 24.626953 19.994141 L 24.355469 19.732422 C 24.19263 19.5763 24.057193 19.418511 23.927734 19.261719 L 22.984375 18.705078 L 22.763672 17.384766 z M 16.367188 24.636719 C 16.359428 24.630389 16.359398 24.630474 16.392578 24.652344 C 16.39661 24.655002 16.404318 24.666711 16.40625 24.671875 C 16.395609 24.662663 16.371901 24.640567 16.367188 24.636719 z M 19.123047 31.207031 C 19.105876 31.208106 19.081756 31.209147 19.060547 31.212891 C 19.006543 31.265688 18.938695 31.339947 18.890625 31.404297 C 18.855117 31.451833 18.812146 31.489528 18.775391 31.535156 L 19.132812 31.796875 L 19.123047 31.207031 z "
       id="path882" />
    <path
       style="fill:#ffffff;stroke-width:0.11799246"
       d="m 27.839923,15.215361 c -0.0729,-0.0043 -0.161504,8.25e-4 -0.272397,0.01201 -1.12455,0.11314 -3.126813,2.032496 -3.126813,2.997283 0,0.112967 0.272856,0.466812 0.60634,0.78654 l 0.606318,0.581436 -0.149282,2.509183 c -0.08228,1.38013 -0.165651,2.907639 -0.185293,3.394359 -0.01964,0.486717 -0.08861,1.389361 -0.152993,2.005871 -0.06438,0.616511 -0.141862,1.625347 -0.172199,2.241857 -0.03034,0.616511 -0.03186,0.988187 -0.0022,0.825949 0.02859,-0.162247 0.08446,-0.374627 0.124402,-0.471971 0.08796,-0.214801 0.115454,-0.309292 0.145354,-0.501468 0.0131,-0.08113 0.06918,-0.04129 0.125712,0.0885 0.09996,0.229552 0.104978,0.228839 0.18202,-0.02811 0.04365,-0.145289 0.126366,-0.235123 0.183984,-0.199567 0.05762,0.03555 0.104542,-0.03457 0.104542,-0.155787 0,-0.121215 0.07792,-0.323415 0.17329,-0.449386 0.09516,-0.125973 0.175035,-0.318905 0.176999,-0.428643 0.0021,-0.109737 0.06286,-0.235991 0.135315,-0.280693 0.09472,-0.05858 0.109342,0.162006 0.05216,0.789536 -0.0563,0.618244 -0.04343,0.819329 0.04387,0.693666 0.06766,-0.09734 0.125493,-0.30973 0.128767,-0.47197 0.0043,-0.162247 0.08185,-0.427723 0.174599,-0.58996 0.09275,-0.162247 0.170453,-0.460911 0.172854,-0.663709 0.0066,-0.613536 0.142735,-1.106179 0.304894,-1.106179 0.08424,0 0.310962,0.132739 0.503763,0.294981 0.393242,0.330883 0.638445,0.384876 0.536042,0.117985 -0.09668,-0.25213 0.07465,-0.218858 0.387851,0.07537 0.147754,0.138828 0.36668,0.311383 0.486499,0.383477 1.186251,0.713751 1.726243,1.185979 1.198123,1.047873 -0.124839,-0.03267 -0.22722,-0.01985 -0.22722,0.02857 0,0.111547 1.288544,1.338479 1.561094,1.48643 0.177655,0.09646 0.173508,0.06083 -0.03361,-0.275391 -0.130949,-0.212531 -0.329206,-0.516678 -0.440404,-0.675694 -0.191623,-0.274042 -0.191187,-0.284897 0.0043,-0.209933 0.193805,0.07405 0.194677,0.06052 0.01528,-0.212945 -0.154083,-0.235219 -0.162813,-0.326427 -0.04496,-0.468514 0.08053,-0.09701 0.219625,-0.176302 0.309041,-0.176302 0.260634,0 0.189004,-0.192517 -0.189876,-0.511378 l -0.352145,-0.296365 -0.129205,-0.120669 -0.103449,-0.0842 c -0.04933,-0.0085 -0.103013,-0.0828 -0.186822,-0.178375 -0.128112,-0.146009 -0.166524,-0.226726 -0.08555,-0.179292 0.297059,0.173705 0.135096,-0.05747 -0.342215,-0.488332 -0.52777,-0.47645 -1.39817,-1.593305 -1.39817,-1.794086 0,-0.06766 0.04169,-0.123071 0.09275,-0.123071 0.05085,0 0.18071,-0.146009 0.288285,-0.324479 0.107597,-0.178463 0.344681,-0.482563 0.526832,-0.675691 0.182238,-0.193129 0.33115,-0.385038 0.33115,-0.426571 0,-0.04153 0.779018,-0.939798 1.731174,-1.996192 1.476718,-1.638395 1.784406,-2.047798 2.093666,-2.784577 0.426698,-1.016496 0.35843,-1.398711 -0.271917,-1.522609 -0.201881,-0.0397 -0.515985,-0.129466 -0.69783,-0.199568 -0.98819,-0.381001 -2.912974,1.365776 -2.914544,2.644922 -3.5e-4,0.301869 -0.208647,0.663545 -0.937032,1.627007 -0.515155,0.681406 -1.003291,1.23892 -1.084524,1.23892 -0.204936,0 -0.149719,-1.098423 0.133132,-2.65483 0.384031,-2.112735 0.471964,-3.277309 0.281607,-3.732896 -0.124184,-0.297299 -0.202535,-0.398896 -0.421265,-0.412281 z m 1.702585,5.492642 c 0.0622,-0.0072 0.04605,0.04786 -0.03711,0.203256 -0.09428,0.176018 -0.09494,0.22456 -0.0022,0.167549 0.07136,-0.0441 0.129641,-0.03238 0.129641,0.02627 0,0.173901 -0.400925,0.470849 -0.55861,0.413666 -0.187912,-0.06811 0.108688,-0.68013 0.380016,-0.784235 0.03863,-0.01485 0.06809,-0.02413 0.0886,-0.0265 z m -0.860055,1.153653 c 0.0043,0.001 0.0066,0.0039 0.0066,0.0089 0,0.04042 -0.132696,0.216721 -0.294987,0.391773 -0.162159,0.175057 -0.294985,0.266781 -0.294985,0.203714 0,-0.06305 0.132696,-0.239354 0.294985,-0.391773 0.142081,-0.133373 0.261375,-0.220162 0.288985,-0.212706 z m -2.232166,5.278089 c 0.01964,-3.8e-5 0.04125,0.01397 0.06657,0.03918 0.03863,0.03863 0.03427,0.233234 -0.0087,0.432561 -0.106724,0.48613 -0.310787,0.46651 -0.218031,-0.02096 0.06177,-0.324641 0.102144,-0.450656 0.160849,-0.450767 z m 2.550657,0.763494 c -0.102144,-0.0019 -0.166524,0.02051 -0.132259,0.07582 0.03492,0.05638 0.132696,0.07588 0.217594,0.04332 0.0849,-0.03256 0.223575,0.02421 0.308124,0.126061 0.08446,0.101856 0.182457,0.15655 0.217595,0.121455 0.03514,-0.03509 0.0043,-0.122962 -0.06743,-0.195202 -0.098,-0.09795 -0.373163,-0.168401 -0.543419,-0.171457 z"
       id="path833"
       inkscape:connector-curvature="0"
       sodipodi:nodetypes="cssccccccscccccscccsccscscccccsccccccsccccscsssssssssscsssccsccscsscssscccccccsccccsscc" />
    <path
       style="fill:#ffffff;stroke-width:0.1146956"
       d="m 17.368636,15.104453 c -0.105015,-0.002 -0.215015,0.0047 -0.341394,0.01761 -0.763935,0.07883 -1.69025,0.576956 -1.997529,1.074151 -0.129625,0.209902 -0.282204,0.381721 -0.338954,0.381721 -0.05664,0 -0.136838,0.141929 -0.177995,0.315414 -0.04116,0.173476 -0.146809,0.398723 -0.235,0.500447 -0.208969,0.241292 -0.274375,1.47805 -0.07828,1.47805 0.258273,0 0.281567,0.220926 0.04455,0.423838 -0.269474,0.230742 -0.309698,0.400774 -0.07319,0.310035 0.195603,-0.07504 0.353507,0.514999 0.236549,0.883516 -0.04307,0.135459 -0.03055,0.278665 0.02737,0.318102 0.05792,0.03944 0.15381,0.246233 0.213275,0.459453 0.0594,0.213223 0.231924,0.469923 0.383506,0.570566 0.269283,0.178801 0.272593,0.177061 0.139171,-0.07237 -0.0751,-0.140381 -0.08783,-0.255152 -0.02822,-0.255152 0.05961,0 0.358196,0.367793 0.663524,0.817206 0.914519,1.345999 1.010115,1.473565 1.103949,1.475137 0.04943,8.25e-4 0.407606,0.337053 0.795927,0.74709 0.388322,0.410037 0.768221,0.74552 0.844086,0.74552 0.07595,0 0.167599,0.07741 0.203877,0.172034 0.03628,0.09462 0.139808,0.172054 0.230057,0.172054 0.187117,0 1.472116,0.656145 1.561835,0.797493 0.03246,0.05128 0.291389,0.222252 0.575269,0.379929 0.651834,0.362061 0.861694,0.709581 0.75897,1.257171 -0.05834,0.310988 -0.178631,0.473791 -0.482304,0.653003 -0.454704,0.268274 -0.819179,0.300126 -1.239938,0.108431 -0.373895,-0.170358 -0.453516,-0.404305 -0.241025,-0.707664 0.253966,-0.362581 0.213021,-0.501859 -0.189027,-0.642025 -0.198573,-0.06925 -0.373195,-0.12589 -0.38777,-0.12589 -0.09653,0 -1.087719,1.605791 -1.119415,1.813399 -0.02164,0.141484 -0.152112,0.336277 -0.289862,0.432797 -0.137898,0.09651 -0.250444,0.248671 -0.250444,0.338262 0,0.08959 -0.129837,0.247969 -0.288547,0.351927 -0.158689,0.103954 -0.281503,0.247131 -0.27306,0.318102 0.0367,0.309549 -0.02122,0.53891 -0.118804,0.478048 -0.164205,-0.101514 -0.25212,0.12466 -0.172267,0.442878 l 0.07171,0.28629 0.426976,-0.282259 c 0.234724,-0.155337 0.577984,-0.485064 0.763001,-0.732753 0.184996,-0.247686 0.439683,-0.486382 0.565849,-0.530244 0.332611,-0.115622 1.777784,-0.138386 1.777784,-0.028 0,0.139935 0.43334,0.112843 0.523313,-0.03271 0.04391,-0.07122 0.219937,-0.09767 0.40366,-0.06093 0.179268,0.03583 0.356562,0.01506 0.394261,-0.04593 0.03776,-0.06101 0.001,-0.114052 -0.08147,-0.118062 -0.08253,-0.004 -0.03691,-0.05291 0.101409,-0.108643 0.138322,-0.05573 0.521913,-0.07862 0.852147,-0.05085 0.665878,0.05597 0.900921,-0.07763 1.220441,-0.693327 0.308998,-0.595413 0.358642,-1.658538 0.104591,-2.236787 -0.191148,-0.435199 -0.756701,-1.241264 -0.780016,-1.111786 -0.0085,0.04379 -0.02121,0.139659 -0.02864,0.213262 -0.02737,0.255804 -0.262262,0.214553 -0.391355,-0.06878 -0.07149,-0.15678 -0.334711,-0.420469 -0.584901,-0.586023 -0.250169,-0.165563 -0.546438,-0.490279 -0.658602,-0.721551 -0.148506,-0.30617 -0.215503,-0.365708 -0.246413,-0.219311 -0.03607,0.170887 -0.09419,0.149375 -0.386879,-0.143372 -0.189451,-0.18943 -0.424748,-0.344536 -0.522846,-0.344536 -0.300894,0 -0.961533,-0.471998 -1.073697,-0.767025 -0.05834,-0.153513 -0.152112,-0.250593 -0.20812,-0.215951 -0.05601,0.03464 -0.16569,-0.014 -0.243719,-0.107985 -0.07786,-0.09392 -0.104167,-0.170697 -0.05855,-0.170697 0.04583,0 -0.08338,-0.189854 -0.286956,-0.42182 -0.477594,-0.543953 -0.68669,-1.05507 -0.682129,-1.667789 0.0042,-0.432984 0.02185,-0.467274 0.156143,-0.290325 0.183723,0.241939 0.315914,0.263708 0.229166,0.03764 -0.03437,-0.08974 0.04816,-0.273898 0.183298,-0.409051 0.193058,-0.193121 0.323828,-0.228985 0.610889,-0.168002 0.438708,0.09318 0.661084,0.278649 1.178775,0.983871 0.215843,0.294042 0.520662,0.566845 0.67742,0.606186 0.376696,0.09454 1.035234,-0.189663 1.214162,-0.523971 0.219003,-0.409229 0.158901,-1.342184 -0.105015,-1.631053 -0.219831,-0.240584 -0.430497,-0.734862 -0.385521,-0.904347 0.07892,-0.297426 -1.549148,-2.148976 -1.889566,-2.148976 -0.08804,0 -0.18839,-0.07436 -0.223353,-0.16533 -0.035,-0.09097 -0.457355,-0.329449 -0.93862,-0.529794 -0.549428,-0.228728 -0.822021,-0.313561 -1.13732,-0.319669 z"
       id="path833-8"
       inkscape:connector-curvature="0"
       sodipodi:nodetypes="sssscssccccccssscsscsccscsccscssccccccccsccccccsscsscscssssssssscccscsssssss" />
    <path
       style="color:#000000;font-style:normal;font-variant:normal;font-weight:normal;font-stretch:normal;font-size:medium;line-height:normal;font-family:sans-serif;font-variant-ligatures:normal;font-variant-position:normal;font-variant-caps:normal;font-variant-numeric:normal;font-variant-alternates:normal;font-feature-settings:normal;text-indent:0;text-align:start;text-decoration:none;text-decoration-line:none;text-decoration-style:solid;text-decoration-color:#000000;letter-spacing:normal;word-spacing:normal;text-transform:none;writing-mode:lr-tb;direction:ltr;text-orientation:mixed;dominant-baseline:auto;baseline-shift:baseline;text-anchor:start;white-space:normal;shape-padding:0;clip-rule:nonzero;display:inline;overflow:visible;visibility:visible;opacity:1;isolation:auto;mix-blend-mode:normal;color-interpolation:sRGB;color-interpolation-filters:linearRGB;solid-color:#000000;solid-opacity:1;vector-effect:none;fill:#ffffff;fill-opacity:1;fill-rule:nonzero;stroke:#ff837d;stroke-width:0;stroke-linecap:butt;stroke-linejoin:miter;stroke-miterlimit:4;stroke-dasharray:none;stroke-dashoffset:0;stroke-opacity:1;color-rendering:auto;image-rendering:auto;shape-rendering:auto;text-rendering:auto;enable-background:accumulate"
       d="m 16.470703,31.939457 c 0.0049,0.0031 0.01634,0.0028 0.02148,0.0059 -0.0032,-0.0019 -0.01457,-9.1e-5 -0.01758,-0.002 z"
       id="path833-8-5" />
  </g>
</svg>
