<?xml version="1.0" encoding="UTF-8" standalone="no"?>
<!-- Created with Inkscape (http://www.inkscape.org/) -->

<svg
   xmlns:dc="http://purl.org/dc/elements/1.1/"
   xmlns:cc="http://creativecommons.org/ns#"
   xmlns:rdf="http://www.w3.org/1999/02/22-rdf-syntax-ns#"
   xmlns:svg="http://www.w3.org/2000/svg"
   xmlns="http://www.w3.org/2000/svg"
   xmlns:sodipodi="http://sodipodi.sourceforge.net/DTD/sodipodi-0.dtd"
   xmlns:inkscape="http://www.inkscape.org/namespaces/inkscape"
   width="48px"
   height="48px"
   viewBox="0 0 48 48"
   version="1.1"
   id="SVGRoot"
   inkscape:version="0.92.4 (5da689c313, 2019-01-14)"
   sodipodi:docname="doki-doki-literature-cluba.svg"
   inkscape:export-filename="C:\Users\Admin\Documents\Rainmeter\Skins\Honeycomb-NG\@Resources\Images\openshot.png"
   inkscape:export-xdpi="512"
   inkscape:export-ydpi="512">
  <defs
     id="defs1995" />
  <sodipodi:namedview
     id="base"
     pagecolor="#ffffff"
     bordercolor="#666666"
     borderopacity="1.0"
     inkscape:pageopacity="0.0"
     inkscape:pageshadow="2"
     inkscape:zoom="18.671859"
     inkscape:cx="-1.8978074"
     inkscape:cy="17.647248"
     inkscape:document-units="px"
     inkscape:current-layer="layer1"
     showgrid="true"
     inkscape:window-width="1920"
     inkscape:window-height="1017"
     inkscape:window-x="-8"
     inkscape:window-y="-8"
     inkscape:window-maximized="1"
     inkscape:grid-bbox="true"
     inkscape:snap-global="false"
     showguides="false">
    <inkscape:grid
       type="xygrid"
       id="grid2562" />
  </sodipodi:namedview>
  <metadata
     id="metadata1998">
    <rdf:RDF>
      <cc:Work
         rdf:about="">
        <dc:format>image/svg+xml</dc:format>
        <dc:type
           rdf:resource="http://purl.org/dc/dcmitype/StillImage" />
        <dc:title></dc:title>
      </cc:Work>
    </rdf:RDF>
  </metadata>
  <g
     inkscape:label="Layer 1"
     inkscape:groupmode="layer"
     id="layer1">
    <path
       style="fill:#c490f4;stroke:none;stroke-width:1.27367496px;stroke-linecap:butt;stroke-linejoin:miter;stroke-opacity:1"
       d="m 32.410514,23.30424 0.955754,6.665756 2.597684,-0.416609 -0.931246,-6.592238 z"
       id="path828"
       inkscape:connector-curvature="0" />
    <path
       style="fill:#ff8080;stroke:none;stroke-width:1.27367496px;stroke-linecap:butt;stroke-linejoin:miter;stroke-opacity:1"
       d="m 30.670556,21.686813 -0.171544,-6.690263 2.622191,-0.02451 0.196051,6.616744 z"
       id="path830"
       inkscape:connector-curvature="0" />
    <path
       style="fill:#76d7ef;stroke:none;stroke-width:1.27367496px;stroke-linecap:butt;stroke-linejoin:miter;stroke-opacity:1;fill-opacity:1"
       d="m 25.916303,22.348488 -0.612661,6.15112 2.573178,0.343091 0.147039,-1.421374 1.470388,1.985022 2.254593,-1.004765 -1.641932,-2.328113 2.181075,-2.083049 -1.911504,-1.543906 -1.936011,2.156568 0.269572,-2.034037 z"
       id="path832"
       inkscape:connector-curvature="0" />
    <path
       style="fill:#83ee81;stroke:none;stroke-width:1.27367496px;stroke-linecap:butt;stroke-linejoin:miter;stroke-opacity:1;fill-opacity:1"
       d="m 24.543942,22.372994 -2.132062,-5.857044 2.597684,-0.906738 0.661676,1.862489 0.808712,-2.695709 2.377126,0.588155 -1.078284,2.818242 2.475153,1.396869 -1.666439,1.86249 -2.132063,-1.249828 0.49013,1.421374 z"
       id="path834"
       inkscape:connector-curvature="0"
       sodipodi:nodetypes="cccccccccccc" />
    <path
       style="fill:#f598ca;stroke:none;stroke-width:1.27367496px;stroke-linecap:butt;stroke-linejoin:miter;stroke-opacity:1;fill-opacity:1"
       d="m 20.973301,18.846989 c -0.350377,-0.0208 -0.707977,0.02459 -1.062225,0.119408 -1.490049,0.398826 -2.539312,2.257163 -2.204054,4.067302 0.286291,1.545748 1.420447,2.378189 1.420447,2.378189 0,0 -0.360378,1.798804 -0.02488,2.597103 0.82636,1.96626 2.501845,2.384281 3.873266,1.935389 1.843656,-0.603465 2.512571,-2.525463 2.107036,-3.967797 -0.441783,-1.571257 -1.445323,-2.403066 -1.445323,-2.403066 0,0 0.474797,-1.122259 0.02488,-2.303561 -0.648557,-1.70284 -1.638012,-2.360549 -2.689147,-2.422967 z m -0.40051,2.472721 c 0.271532,0 0.490066,0.218535 0.490066,0.490066 0,0.271531 -0.218534,0.490067 -0.490066,0.490067 -0.271531,0 -0.490066,-0.218536 -0.490066,-0.490067 0,-0.271531 0.218535,-0.490066 0.490066,-0.490066 z m 1.276161,4.214073 c 0.271533,0 0.490068,0.218534 0.490068,0.490066 0,0.271531 -0.218535,0.490065 -0.490068,0.490065 -0.271531,0 -0.490065,-0.218534 -0.490065,-0.490065 0,-0.271532 0.218534,-0.490066 0.490065,-0.490066 z"
       id="path836"
       inkscape:connector-curvature="0" />
    <path
       style="fill:#ff8080;stroke:none;stroke-width:1.27367496px;stroke-linecap:butt;stroke-linejoin:miter;stroke-opacity:1"
       d="m 14.149688,16.573281 c -1.418473,0.109574 -2.691634,0.654251 -2.691634,0.654251 l 2.228932,6.910681 c 0,0 5.347439,-1.603707 4.020036,-5.61213 -0.575254,-1.737123 -2.138861,-2.062373 -3.557334,-1.952802 z m 0.126871,2.320974 c 0,0 0.738882,-0.0021 1.027397,0.684103 0.415137,0.987426 -0.218914,1.422932 -0.218914,1.422932 z"
       id="path857"
       inkscape:connector-curvature="0" />
    <path
       style="fill:#c490f4;stroke:none;stroke-width:1.27367496px;stroke-linecap:butt;stroke-linejoin:miter;stroke-opacity:1"
       d="m 13.418321,24.113337 -0.440316,7.326118 c 0,0 5.476654,0.419836 5.758903,-3.970284 0.22567,-3.510094 -5.318587,-3.355834 -5.318587,-3.355834 z m 2.034894,2.547349 c 0,0 0.642184,0.197421 0.636837,0.90799 -0.0084,1.123491 -0.661714,1.544829 -0.661714,1.544829 z"
       id="path863"
       inkscape:connector-curvature="0" />
  </g>
</svg>
