<?xml version="1.0" encoding="UTF-8" standalone="no"?>
<!-- Created with Inkscape (http://www.inkscape.org/) -->

<svg
   xmlns:dc="http://purl.org/dc/elements/1.1/"
   xmlns:cc="http://creativecommons.org/ns#"
   xmlns:rdf="http://www.w3.org/1999/02/22-rdf-syntax-ns#"
   xmlns:svg="http://www.w3.org/2000/svg"
   xmlns="http://www.w3.org/2000/svg"
   xmlns:sodipodi="http://sodipodi.sourceforge.net/DTD/sodipodi-0.dtd"
   xmlns:inkscape="http://www.inkscape.org/namespaces/inkscape"
   width="48px"
   height="48px"
   viewBox="0 0 48 48"
   version="1.1"
   id="SVGRoot"
   inkscape:version="0.92.4 (5da689c313, 2019-01-14)"
   sodipodi:docname="crazy-taxia.svg">
  <defs
     id="defs1995" />
  <sodipodi:namedview
     id="base"
     pagecolor="#ffffff"
     bordercolor="#666666"
     borderopacity="1.0"
     inkscape:pageopacity="0.0"
     inkscape:pageshadow="2"
     inkscape:zoom="18.083334"
     inkscape:cx="15.760448"
     inkscape:cy="21.299373"
     inkscape:document-units="px"
     inkscape:current-layer="layer1"
     showgrid="true"
     inkscape:window-width="1920"
     inkscape:window-height="1017"
     inkscape:window-x="-8"
     inkscape:window-y="-8"
     inkscape:window-maximized="1"
     inkscape:grid-bbox="true"
     showguides="false"
     inkscape:guide-bbox="true"
     inkscape:snap-global="false">
    <inkscape:grid
       type="xygrid"
       id="grid2562" />
  </sodipodi:namedview>
  <metadata
     id="metadata1998">
    <rdf:RDF>
      <cc:Work
         rdf:about="">
        <dc:format>image/svg+xml</dc:format>
        <dc:type
           rdf:resource="http://purl.org/dc/dcmitype/StillImage" />
        <dc:title></dc:title>
      </cc:Work>
    </rdf:RDF>
  </metadata>
  <g
     inkscape:label="Layer 1"
     inkscape:groupmode="layer"
     id="layer1">
    <path
       style="fill:#ffffff;stroke-width:0.27344161"
       d="M 26.521484 12.732422 C 23.178341 12.554872 19.662492 14.983116 17.566406 17.357422 C 14.385648 20.960373 12.487831 28.259606 15.355469 31.605469 C 17.010095 33.536031 20.593986 34.918014 22.96875 32.078125 C 24.784675 29.906529 23.259766 27.671875 23.259766 27.671875 C 23.259766 27.671875 27.682038 28.903175 30.654297 24.173828 C 32.487566 21.256799 32.797164 16.08726 29.748047 13.878906 C 28.730791 13.142148 27.635865 12.791605 26.521484 12.732422 z M 26.332031 13.236328 C 26.332031 13.236328 28.540903 13.142873 30.34375 15.234375 C 31.757727 16.874741 31.470703 19.298828 31.470703 19.298828 C 31.470703 19.298828 30.496795 17.552112 27.664062 17.414062 C 28.031285 14.382703 26.332031 13.236328 26.332031 13.236328 z M 23.152344 13.941406 C 23.152344 13.941406 22.353433 14.563836 22.28125 15.734375 C 22.25647 16.135887 22.767578 16.234375 22.767578 16.234375 C 22.767578 16.234375 21.758835 16.127039 21.28125 16.259766 C 20.070024 16.596395 19.994141 17.482422 19.994141 17.482422 C 19.994141 17.482422 19.371367 17.584997 18.494141 18.328125 C 18.445501 18.042584 18.469732 17.159847 18.769531 16.798828 C 20.618623 14.572246 23.152344 13.941406 23.152344 13.941406 z M 21.701172 16.851562 C 21.701172 16.851562 22.38102 16.794025 22.697266 17.123047 C 23.106854 17.549186 23.023438 18.011719 23.023438 18.011719 C 23.023437 18.011719 24.24038 17.403601 25.380859 17.339844 C 26.628499 17.270094 27.482422 17.558594 27.482422 17.558594 C 27.482422 17.558594 27.397503 19.99334 25.996094 22.125 C 24.748722 24.022363 22.882956 26.510428 20.974609 25.732422 C 19.77602 25.243775 19.844627 23.118056 20.304688 21.908203 C 20.848857 20.477157 22.901699 18.811584 23.222656 18.609375 C 23.353178 18.527145 23.894318 18.151853 24.546875 18.029297 C 23.685184 18.035897 22.986328 18.15625 22.986328 18.15625 C 22.986328 18.15625 22.714715 17.571363 22.498047 17.339844 C 22.201546 17.02302 21.701172 16.851563 21.701172 16.851562 z M 21.314453 17.6875 C 21.488014 17.696363 21.670344 17.716693 21.859375 17.748047 C 21.764885 18.29512 21.464115 18.667408 20.986328 18.978516 C 19.384088 18.841441 17.820312 19.798828 17.820312 19.798828 C 17.820312 19.798828 18.711045 17.554561 21.314453 17.6875 z M 20.794922 19.363281 C 20.805292 19.876344 20.53915 20.412581 20.076172 21.015625 C 18.942226 20.922465 17.589844 21.734375 17.589844 21.734375 C 17.589844 21.734375 17.993493 19.382067 20.794922 19.363281 z M 19.923828 21.490234 C 19.792321 21.862128 19.773643 22.166232 19.755859 22.65625 C 18.793815 22.894834 18 23.707031 18 23.707031 C 18 23.707031 18.060551 21.822525 19.923828 21.490234 z M 18.025391 22.181641 C 17.054476 23.419474 16.859375 24.810547 16.859375 24.810547 C 16.859375 24.810547 16.441836 24.968898 16.347656 24.566406 C 16.249304 24.146136 16.4375 23.541016 16.4375 23.541016 C 16.4375 23.541016 16.895426 22.694043 18.025391 22.181641 z M 16.152344 23.666016 C 16.152344 23.666016 16.015972 24.112794 16.154297 24.605469 C 16.223747 24.852825 16.446413 25.00305 16.507812 25.236328 C 16.178261 26.16802 16.566406 27.029297 16.566406 27.029297 C 16.566406 27.029297 15.902228 27.460466 15.574219 28.070312 C 15.063089 29.020622 15.210938 30.664062 15.210938 30.664062 C 15.210938 30.664064 14.324466 29.183077 14.322266 26.53125 C 14.320959 24.887648 14.864353 24.289948 15.074219 24.138672 C 15.399854 23.903944 16.149231 23.667 16.152344 23.666016 z M 18.935547 24.041016 C 18.815144 25.069341 19.193359 25.912109 19.193359 25.912109 C 19.193359 25.912109 19.019589 26.061108 18.615234 26.066406 C 18.289968 26.070606 18.050781 25.886719 18.050781 25.886719 C 18.050781 25.886719 18.036424 24.816536 18.935547 24.041016 z M 17.679688 24.386719 C 17.464326 25.627759 17.884766 26.15625 17.884766 26.15625 C 17.884766 26.15625 17.71996 26.431511 17.244141 26.617188 C 16.989015 26.716748 16.757812 26.693359 16.757812 26.693359 C 16.757812 26.693359 16.430013 25.299083 17.679688 24.386719 z M 20.679688 26.386719 C 20.679688 26.386719 23.165367 27.421163 23.320312 29.117188 C 23.499854 31.082446 22.243979 33.123339 19.794922 33.244141 C 17.33033 33.36571 16.257812 31.757812 16.257812 31.757812 C 16.257812 31.757812 18.414437 31.65663 19.679688 29.912109 C 21.031589 28.048115 20.679688 26.386719 20.679688 26.386719 z "
       id="path858" />
  </g>
</svg>
