<?xml version="1.0" encoding="UTF-8" standalone="no"?>
<!-- Created with Inkscape (http://www.inkscape.org/) -->

<svg
   xmlns:dc="http://purl.org/dc/elements/1.1/"
   xmlns:cc="http://creativecommons.org/ns#"
   xmlns:rdf="http://www.w3.org/1999/02/22-rdf-syntax-ns#"
   xmlns:svg="http://www.w3.org/2000/svg"
   xmlns="http://www.w3.org/2000/svg"
   xmlns:xlink="http://www.w3.org/1999/xlink"
   xmlns:sodipodi="http://sodipodi.sourceforge.net/DTD/sodipodi-0.dtd"
   xmlns:inkscape="http://www.inkscape.org/namespaces/inkscape"
   width="48px"
   height="48px"
   viewBox="0 0 48 48"
   version="1.1"
   id="SVGRoot"
   inkscape:version="0.92.4 (5da689c313, 2019-01-14)"
   sodipodi:docname="space-channel-5-part-2a.svg"
   inkscape:export-filename="C:\Users\Admin\Documents\Rainmeter\Skins\Honeycomb-NG\@Resources\Images\openshot.png"
   inkscape:export-xdpi="512"
   inkscape:export-ydpi="512">
  <defs
     id="defs1995">
    <linearGradient
       gradientUnits="userSpaceOnUse"
       y2="50"
       x2="90"
       y1="20"
       x1="60"
       xlink:href="#WhiteTransparent-4"
       id="IcecapTip-6"
       gradientTransform="matrix(0.9965784,0,0,0.9962666,-89.841948,-62.996045)" />
    <linearGradient
       gradientUnits="userSpaceOnUse"
       id="WhiteTransparent-4">
      <stop
         id="stop7606-4"
         offset="0"
         style="stop-color:white;stop-opacity:1" />
      <stop
         id="stop7608-7"
         offset="1"
         style="stop-color:white;stop-opacity:0" />
    </linearGradient>
  </defs>
  <sodipodi:namedview
     id="base"
     pagecolor="#ffffff"
     bordercolor="#666666"
     borderopacity="1.0"
     inkscape:pageopacity="0.0"
     inkscape:pageshadow="2"
     inkscape:zoom="13.5625"
     inkscape:cx="14.290253"
     inkscape:cy="24.12822"
     inkscape:document-units="px"
     inkscape:current-layer="layer1"
     showgrid="true"
     inkscape:window-width="1920"
     inkscape:window-height="1017"
     inkscape:window-x="-8"
     inkscape:window-y="-8"
     inkscape:window-maximized="1"
     inkscape:grid-bbox="true"
     inkscape:snap-global="false">
    <inkscape:grid
       type="xygrid"
       id="grid2562" />
  </sodipodi:namedview>
  <metadata
     id="metadata1998">
    <rdf:RDF>
      <cc:Work
         rdf:about="">
        <dc:format>image/svg+xml</dc:format>
        <dc:type
           rdf:resource="http://purl.org/dc/dcmitype/StillImage" />
        <dc:title></dc:title>
      </cc:Work>
    </rdf:RDF>
  </metadata>
  <g
     inkscape:label="Layer 1"
     inkscape:groupmode="layer"
     id="layer1">
    <path
       style="opacity:1;vector-effect:none;fill:#ffffff;fill-opacity:1;fill-rule:evenodd;stroke-width:0.62718588;paint-order:normal"
       d="M 24.189453 15.001953 C 20.146949 15.001953 16.840889 17.057417 16.392578 19.71875 L 16.388672 19.71875 L 14.962891 19.863281 C 14.734491 19.141276 13.969162 18.611328 13.046875 18.611328 C 11.943664 18.611328 11.056641 19.36559 11.056641 20.304688 C 11.056641 21.243784 11.943664 22 13.046875 22 C 13.977454 22 14.748192 21.460498 14.96875 20.728516 L 16.386719 20.925781 C 16.816696 23.600513 20.132972 25.669922 24.189453 25.669922 C 28.19009 25.669922 31.466643 23.65632 31.96875 21.035156 L 33.068359 20.789062 C 33.312849 21.489592 34.064338 22 34.96875 22 C 36.071961 22 36.960938 21.243784 36.960938 20.304688 C 36.960938 19.36559 36.071961 18.611328 34.96875 18.611328 C 34.07793 18.611328 33.33607 19.106782 33.080078 19.791016 L 31.958984 19.597656 C 31.431641 16.995795 28.169988 15.001953 24.189453 15.001953 z M 24.082031 16.347656 C 25.716799 16.323833 27.361703 16.56677 27.958984 17.154297 C 29.153548 18.329351 29.027463 22.472173 28.035156 23.416016 C 27.042848 24.35986 21.375639 24.642131 20.230469 23.470703 C 19.085301 22.299274 19.156443 18.081843 20.267578 17.134766 C 20.823145 16.661231 22.447264 16.371479 24.082031 16.347656 z "
       id="rect848" />
    <path
       style="fill:#ffffff;stroke-width:0.11668617"
       d="m 11.192651,30.7782 c 0,0 0.01677,-0.427014 0.01677,-3.340567 v -3.188486 l 0.364644,-0.07293 c 0.530228,-0.106045 2.027317,-0.08512 2.896396,0.04049 1.276062,0.184429 1.790784,0.784356 1.790784,2.087219 0,1.483762 -0.548874,1.940969 -2.511298,2.091886 l -1.081949,0.08321 -0.03361,1.083923 c -0.03219,1.038247 -0.03017,1.196033 -0.03017,1.196033 z m 3.51281,-3.779759 c 0.346454,-0.371874 0.320482,-1.072903 -0.05361,-1.446995 -0.265456,-0.265456 -0.367199,-0.288461 -1.13769,-0.257239 l -0.846163,0.03429 -0.03389,0.962661 -0.03389,0.962661 h 0.933663 c 0.810213,0 0.965121,-0.03377 1.171581,-0.255375 z m 2.995779,3.630805 c -0.225302,-0.177223 -0.307451,-0.348702 -0.307451,-0.641774 0,-0.505472 0.315851,-0.831219 0.897809,-0.925941 0.69209,-0.112647 0.990415,-0.268927 0.947351,-0.496279 -0.05836,-0.308097 -0.696353,-0.33028 -0.96489,-0.03355 -0.248033,0.274074 -0.763584,0.323732 -0.763584,0.07355 0,-0.74225 1.137604,-1.147176 1.987769,-0.707539 0.403996,0.208915 0.44422,0.355459 0.487858,1.7774 l 0.03313,1.079407 -0.297549,-6e-5 c -0.163653,-3.1e-5 -0.356136,-0.05864 -0.42774,-0.130248 -0.0958,-0.0958 -0.2013,-0.08038 -0.399359,0.05834 -0.367102,0.257127 -0.824669,0.236687 -1.193339,-0.05331 z m 1.376163,-0.524954 c 0.100851,-0.100849 0.183364,-0.315057 0.183364,-0.476015 0,-0.269083 -0.03054,-0.286095 -0.37923,-0.211233 -0.208576,0.04478 -0.47112,0.129564 -0.583431,0.188407 -0.202661,0.106178 -0.275651,0.455174 -0.12641,0.604414 0.145588,0.145588 0.721701,0.07843 0.905707,-0.105573 z m 4.500753,-0.808468 v -1.458577 h 0.350058 c 0.278392,0 0.350059,0.05042 0.350059,0.246299 v 0.2463 l 0.204201,-0.23616 c 0.11231,-0.129888 0.322345,-0.270516 0.466744,-0.312506 0.237472,-0.06905 0.262544,-0.03659 0.262544,0.339919 0,0.363649 -0.03604,0.416265 -0.285099,0.416265 -0.457433,0 -0.64839,0.402847 -0.64839,1.367855 v 0.849182 h -0.350059 -0.350058 z m 5.488355,1.232876 c -0.06643,-0.124136 -0.120791,-0.675478 -0.120791,-1.225205 0,-0.810656 -0.03307,-0.999504 -0.17503,-0.999504 -0.222953,0 -0.229953,-0.4207 -0.0084,-0.505712 0.09164,-0.03516 0.183528,-0.211436 0.204201,-0.391714 0.03189,-0.278055 0.09069,-0.327778 0.387646,-0.327778 0.309646,0 0.35428,0.04378 0.386623,0.37923 0.02745,0.284716 0.09288,0.37923 0.262544,0.37923 0.148188,0 0.225979,0.08034 0.225979,0.233372 0,0.151966 -0.07779,0.233372 -0.223008,0.233372 -0.189114,0 -0.229017,0.101976 -0.262544,0.670946 -0.06021,1.021852 -0.0026,1.312719 0.25993,1.312719 0.147831,0 0.225622,0.08046 0.225622,0.233373 0,0.198526 -0.07779,0.233372 -0.520983,0.233372 -0.395656,0 -0.550039,-0.05429 -0.641774,-0.225701 z m 3.52835,-0.241009 c 0.100471,-0.749061 0.585376,-1.433609 1.512187,-2.134774 0.466405,-0.352852 0.99662,-0.798658 1.178254,-0.990678 0.724474,-0.765901 0.431964,-1.892088 -0.491441,-1.892088 -0.547484,0 -0.788532,0.182342 -0.916421,0.693228 -0.109773,0.438521 -0.540521,0.652405 -1.063909,0.528276 -0.246302,-0.05842 -0.266308,-0.109034 -0.19446,-0.492024 0.22313,-1.189382 0.920224,-1.779655 2.101713,-1.779655 1.253027,0 2.081071,0.662262 2.216887,1.773048 0.125184,1.023833 -0.3519,1.768022 -1.729426,2.697677 -0.267608,0.180602 -0.607619,0.44191 -0.755582,0.580685 -0.0882,0.08394 -0.212153,0.21564 -0.345906,0.426654 0.94382,0.02482 1.899715,-0.005 2.894469,0.0098 0,0 0.0049,0.676847 0.0093,1.023082 -1.492673,0.02498 -2.985413,0.02344 -4.478221,0.02344 z"
       id="path855"
       inkscape:connector-curvature="0"
       sodipodi:nodetypes="cscccsccccccsccccscccssccscccccccccsccccccsscccssscccccssccscssscssscccssscccssccccccc" />
    <path
       style="fill:#ffffff;stroke:none;stroke-width:0.59722453px;stroke-linecap:butt;stroke-linejoin:miter;stroke-opacity:1"
       d="m 22.911726,17.55534 h 4.592625 l -0.45822,1.194673 h -2.88471 l -0.17704,0.385682 c 0,0 -0.103104,0.188137 0.135382,0.188137 h 1.478805 c 1.190035,0 0.781059,0.950094 0.781059,0.950094 l -0.864372,2.116547 c 0,0 -0.41916,0.827805 -1.635016,0.827805 0,0 -1.513518,0 -2.270278,0 -1.082364,0 -0.874785,-0.808991 -0.874785,-0.808991 l 0.406149,-1.081791 h 1.780816 l -0.166626,0.357462 c 0,0 -0.171131,0.404495 0.416563,0.404495 0.734867,0 0.812303,-0.479751 0.812303,-0.479751 l 0.229111,-0.602038 c 0,0 0.209309,-0.423311 -0.406152,-0.423311 -0.728988,0 -2.186965,0 -2.186965,0 z"
       id="path869"
       inkscape:connector-curvature="0"
       sodipodi:nodetypes="cccccssccssccccsccscc" />
  </g>
</svg>
