<?xml version="1.0" encoding="UTF-8" standalone="no"?>
<!-- Created with Inkscape (http://www.inkscape.org/) -->

<svg
   xmlns:dc="http://purl.org/dc/elements/1.1/"
   xmlns:cc="http://creativecommons.org/ns#"
   xmlns:rdf="http://www.w3.org/1999/02/22-rdf-syntax-ns#"
   xmlns:svg="http://www.w3.org/2000/svg"
   xmlns="http://www.w3.org/2000/svg"
   xmlns:sodipodi="http://sodipodi.sourceforge.net/DTD/sodipodi-0.dtd"
   xmlns:inkscape="http://www.inkscape.org/namespaces/inkscape"
   width="48px"
   height="48px"
   viewBox="0 0 48 48"
   version="1.1"
   id="SVGRoot"
   inkscape:version="0.92.4 (5da689c313, 2019-01-14)"
   sodipodi:docname="tic-80a.svg">
  <defs
     id="defs1995" />
  <sodipodi:namedview
     id="base"
     pagecolor="#ffffff"
     bordercolor="#666666"
     borderopacity="1.0"
     inkscape:pageopacity="0.0"
     inkscape:pageshadow="2"
     inkscape:zoom="12.786848"
     inkscape:cx="0.79914812"
     inkscape:cy="25.254506"
     inkscape:document-units="px"
     inkscape:current-layer="layer1"
     showgrid="true"
     inkscape:window-width="1920"
     inkscape:window-height="1017"
     inkscape:window-x="-8"
     inkscape:window-y="-8"
     inkscape:window-maximized="1"
     inkscape:grid-bbox="true"
     inkscape:snap-global="true">
    <inkscape:grid
       type="xygrid"
       id="grid2562" />
  </sodipodi:namedview>
  <metadata
     id="metadata1998">
    <rdf:RDF>
      <cc:Work
         rdf:about="">
        <dc:format>image/svg+xml</dc:format>
        <dc:type
           rdf:resource="http://purl.org/dc/dcmitype/StillImage" />
        <dc:title></dc:title>
      </cc:Work>
    </rdf:RDF>
  </metadata>
  <g
     inkscape:label="Layer 1"
     inkscape:groupmode="layer"
     id="layer1">
    <path
       style="opacity:1;vector-effect:none;fill:#ffffff;fill-opacity:1;fill-rule:evenodd;paint-order:stroke fill markers"
       d="M 18 15 L 18 16 L 17 16 L 17 29 L 17 30 L 18 30 L 18 31 L 23 31 L 23 30 L 24 30 L 24 31 L 29 31 L 29 30 L 30 30 L 30 29 L 31 29 L 31 25 L 32 25 L 32 24 L 33 24 L 33 19 L 31 19 L 31 16 L 30 16 L 30 15 L 28 15 L 23 15 L 18 15 z M 19 16 L 29 16 L 29 17 L 30 17 L 30 23 L 31 23 L 31 20 L 32 20 L 32 23 L 31 23 L 31 24 L 30 24 L 30 28 L 29 28 L 29 29 L 28 29 L 28 30 L 25 30 L 25 29 L 22 29 L 22 30 L 19 30 L 19 29 L 18 29 L 18 28 L 18 17 L 19 17 L 19 16 z "
       id="rect853" />
    <path
       style="opacity:1;vector-effect:none;fill:#ffffff;fill-opacity:1;fill-rule:evenodd;paint-order:stroke fill markers"
       d="M 19 19 L 19 24 L 28 24 L 28 19 L 19 19 z M 21 20 L 22 20 L 22 23 L 21 23 L 21 20 z M 25 20 L 26 20 L 26 23 L 25 23 L 25 20 z "
       id="rect856" />
    <rect
       style="opacity:1;vector-effect:none;fill:#ffffff;fill-opacity:1;fill-rule:evenodd;paint-order:stroke fill markers"
       id="rect862"
       width="1"
       height="1"
       x="21"
       y="25" />
    <rect
       style="opacity:1;vector-effect:none;fill:#ffffff;fill-opacity:1;fill-rule:evenodd;paint-order:stroke fill markers"
       id="rect864"
       width="3"
       height="1"
       x="22"
       y="26" />
    <rect
       style="opacity:1;vector-effect:none;fill:#ffffff;fill-opacity:1;fill-rule:evenodd;paint-order:stroke fill markers"
       id="rect866"
       width="1"
       height="1"
       x="25"
       y="25" />
  </g>
</svg>
