<?xml version="1.0" encoding="UTF-8" standalone="no"?>
<!-- Created with Inkscape (http://www.inkscape.org/) -->

<svg
   xmlns:dc="http://purl.org/dc/elements/1.1/"
   xmlns:cc="http://creativecommons.org/ns#"
   xmlns:rdf="http://www.w3.org/1999/02/22-rdf-syntax-ns#"
   xmlns:svg="http://www.w3.org/2000/svg"
   xmlns="http://www.w3.org/2000/svg"
   xmlns:xlink="http://www.w3.org/1999/xlink"
   xmlns:sodipodi="http://sodipodi.sourceforge.net/DTD/sodipodi-0.dtd"
   xmlns:inkscape="http://www.inkscape.org/namespaces/inkscape"
   width="48px"
   height="48px"
   viewBox="0 0 48 48"
   version="1.1"
   id="SVGRoot"
   inkscape:version="0.92.4 (5da689c313, 2019-01-14)"
   sodipodi:docname="ultrakilla.svg">
  <defs
     id="defs1995">
    <linearGradient
       gradientUnits="userSpaceOnUse"
       y2="50"
       x2="90"
       y1="20"
       x1="60"
       xlink:href="#WhiteTransparent-4"
       id="IcecapTip-6"
       gradientTransform="matrix(0.9965784,0,0,0.9962666,-89.841948,-62.996045)" />
    <linearGradient
       gradientUnits="userSpaceOnUse"
       id="WhiteTransparent-4">
      <stop
         id="stop7606-4"
         offset="0"
         style="stop-color:white;stop-opacity:1" />
      <stop
         id="stop7608-7"
         offset="1"
         style="stop-color:white;stop-opacity:0" />
    </linearGradient>
  </defs>
  <sodipodi:namedview
     id="base"
     pagecolor="#ffffff"
     bordercolor="#666666"
     borderopacity="1.0"
     inkscape:pageopacity="0.0"
     inkscape:pageshadow="2"
     inkscape:zoom="9.9296079"
     inkscape:cx="16.392259"
     inkscape:cy="30.854423"
     inkscape:document-units="px"
     inkscape:current-layer="layer1"
     showgrid="true"
     inkscape:window-width="1337"
     inkscape:window-height="856"
     inkscape:window-x="369"
     inkscape:window-y="96"
     inkscape:window-maximized="0"
     inkscape:grid-bbox="true"
     inkscape:snap-global="true">
    <inkscape:grid
       type="xygrid"
       id="grid2562" />
  </sodipodi:namedview>
  <metadata
     id="metadata1998">
    <rdf:RDF>
      <cc:Work
         rdf:about="">
        <dc:format>image/svg+xml</dc:format>
        <dc:type
           rdf:resource="http://purl.org/dc/dcmitype/StillImage" />
        <dc:title></dc:title>
      </cc:Work>
    </rdf:RDF>
  </metadata>
  <g
     inkscape:label="Layer 1"
     inkscape:groupmode="layer"
     id="layer1">
    <path
       style="opacity:1;vector-effect:none;fill:#ffffff;fill-opacity:1;fill-rule:evenodd;stroke:none;stroke-width:6.20209026;stroke-linecap:round;stroke-linejoin:round;stroke-miterlimit:4;stroke-dasharray:none;stroke-opacity:1;paint-order:stroke fill markers"
       d="m 30.062063,14.103712 c -0.523067,-0.03573 -1.173659,0.08865 -1.778659,0.353308 -0.328481,0.1437 -0.757855,0.299058 -0.954944,0.343216 -0.662676,0.148474 -7.082896,2.764817 -6.965239,2.838587 0.06401,0.04013 0.02459,0.10867 -0.08681,0.151418 -0.168333,0.06459 -0.187849,0.173629 -0.119115,0.644032 0.07309,0.500223 0.169469,0.644314 0.833809,1.247686 1.436763,1.304906 2.097962,2.738237 2.095628,4.548604 -8.36e-4,0.604701 -0.07571,1.369421 -0.16555,1.697902 -0.08984,0.328482 -0.183601,0.67515 -0.207948,0.771223 -0.05347,0.210994 3.415555,2.617583 3.77738,2.620546 0.176527,0.0014 1.174407,-1.251667 3.817758,-4.800967 1.967496,-2.641814 3.596689,-4.939025 3.621924,-5.105824 0.02523,-0.166798 -0.173313,-0.980613 -0.442141,-1.806923 L 32.99958,16.10445 31.990125,15.226225 c -0.554972,-0.483153 -1.208947,-0.946957 -1.453615,-1.031663 -0.139512,-0.0483 -0.300089,-0.07894 -0.474444,-0.09085 z m -5.14822,0.298798 c -0.362035,-0.0018 -10.795922,3.943882 -11.11006,4.201351 -0.07964,0.06528 -0.259909,0.423682 -0.401763,0.79545 -0.329806,0.864341 -0.404607,2.431628 -0.16555,3.456373 0.36235,1.553254 1.581538,3.673628 2.767925,4.813081 1.169277,1.123022 1.619803,1.30969 1.829132,0.759111 0.06407,-0.168517 0.117097,-0.324845 0.117097,-0.347253 0,-0.02241 -0.259259,-0.225118 -0.57539,-0.452236 -1.360419,-0.977364 -2.529693,-3.715914 -2.529693,-5.921462 0,-1.247662 0.598184,-2.953726 1.207307,-3.440222 0.09106,-0.07272 0.622645,-0.296328 1.181062,-0.496651 0.55842,-0.200324 2.628191,-0.942452 4.599077,-1.649449 1.970887,-0.706999 3.637533,-1.33257 3.70268,-1.38901 0.172437,-0.149391 -0.163436,-0.326901 -0.621824,-0.329083 z m 4.891818,0.03634 c 0.154137,0.01615 0.29905,0.04981 0.415896,0.09892 0.366411,0.15409 2.28355,1.641321 2.2955,1.780678 0.0031,0.03663 -0.22148,0.167624 -0.500689,0.290723 -0.279209,0.123098 -2.116265,0.96773 -4.082236,1.875566 -1.965971,0.907837 -3.581372,1.64945 -3.589621,1.64945 -0.0083,0 -0.132134,-0.239814 -0.274572,-0.532993 -0.328638,-0.676436 -0.968199,-1.385362 -1.6656,-1.847302 l -0.545106,-0.361385 0.585484,-0.250344 c 2.736242,-1.174615 6.481922,-2.641256 6.890539,-2.697264 0.152672,-0.02092 0.316269,-0.02219 0.470405,-0.0061 z m -10.094548,3.306974 c -0.09442,0 -2.399965,0.956445 -2.467108,1.023588 -0.06942,0.06942 1.076246,-0.03292 1.960361,-0.175645 0.431865,-0.06972 0.483009,-0.11383 0.516841,-0.462331 0.02059,-0.212059 0.01607,-0.385612 -0.01013,-0.385612 z m 12.274971,1.465729 c 0.594715,0.06526 0.308989,0.561431 -2.113799,3.664321 -1.310385,1.678225 -2.458217,3.094097 -2.549883,3.145461 -0.104742,0.05869 -0.257309,0.0031 -0.409838,-0.1494 -0.133486,-0.133485 -0.24054,-0.309548 -0.238232,-0.391668 0.0023,-0.08212 0.392124,-0.612784 0.866113,-1.179043 0.47399,-0.56626 1.613983,-1.94937 2.533732,-3.07278 1.2462,-1.522153 1.733878,-2.036425 1.911907,-2.016891 z m 0.149399,0.494633 c -0.02873,-0.02873 -0.40127,0.392199 -0.827753,0.934754 -0.426483,0.542555 -1.508711,1.911956 -2.40654,3.042498 -1.488216,1.873949 -1.715705,2.18446 -1.59292,2.18446 0.02224,0 0.411262,-0.470954 0.864094,-1.045796 0.45283,-0.574841 1.540693,-1.949511 2.418654,-3.05461 0.87796,-1.1051 1.573188,-2.032583 1.544465,-2.061306 z m -13.050232,0.0747 c -1.856446,0 -3.018799,1.81794 -2.566034,4.011573 0.346673,1.679618 1.542394,3.150589 2.90723,3.577509 0.6231,0.194907 1.082045,0.205332 1.689827,0.03836 0.670901,-0.184312 1.430236,-1.004274 1.665601,-1.79683 0.773944,-2.606156 -1.269986,-5.830611 -3.696624,-5.830612 z m 0.195834,0.474445 c 0.184141,0.01036 0.360379,0.04509 0.51886,0.107001 0.179811,0.07024 0.101828,0.109132 -0.327063,0.157476 -1.215853,0.137044 -1.838013,1.076716 -1.736262,2.62862 0.147091,2.243443 2.101388,3.910361 3.767285,3.212086 0.528078,-0.221348 0.488978,-0.330036 -0.14738,-0.401764 -0.851508,-0.09598 -1.799704,-0.962206 -2.160234,-1.972475 -0.244861,-0.686143 -0.212125,-1.777964 0.07066,-2.362124 0.274464,-0.566967 0.906954,-0.984753 1.265857,-0.835829 0.19717,0.08182 0.182496,0.103907 -0.117097,0.189778 -0.966199,0.276935 -1.437632,1.617274 -0.993304,2.822436 0.42132,1.14276 1.53266,2.026984 2.414616,1.92402 0.227728,-0.02659 0.413876,-0.01734 0.413876,0.02019 0,0.03753 -0.170955,0.275889 -0.379554,0.528955 -0.688553,0.835335 -1.611484,1.000095 -2.685151,0.480501 -0.780865,-0.377896 -1.397604,-1.056421 -1.873548,-2.065345 -0.322959,-0.68462 -0.373145,-0.919445 -0.369461,-1.746357 0.0045,-1.029689 0.231399,-1.655199 0.787375,-2.172347 0.380316,-0.353755 0.998102,-0.545893 1.550523,-0.514821 z m 1.827113,7.635515 -1.36882,0.03432 c -1.518667,0.03775 -1.53352,0.04538 -1.376897,0.880245 l 0.07672,0.407819 1.219422,0.0021 1.219421,0.0021 0.894377,0.708637 c 0.492721,0.390098 0.949814,0.694905 1.015511,0.676335 0.0657,-0.01858 0.240895,-0.245031 0.387631,-0.502708 0.146736,-0.257677 0.267435,-0.505327 0.268515,-0.549144 10e-4,-0.04382 -0.524231,-0.435383 -1.16693,-0.87015 z m -0.510783,2.033042 -1.132609,0.07874 -1.132609,0.07874 -0.205928,1.063965 c -0.113503,0.58436 -0.170236,1.099658 -0.125172,1.144722 0.07433,0.07433 2.549088,0.249302 3.11114,0.22006 0.133526,-0.0069 0.47828,-0.316986 0.801506,-0.718731 0.312107,-0.387927 0.540772,-0.747701 0.508766,-0.799489 -0.032,-0.05179 -0.454921,-0.313229 -0.940812,-0.581446 z"
       id="rect835"
       inkscape:connector-curvature="0"
       sodipodi:nodetypes="ccccccscsccsccccccccccsssssscssccccccssccccccccscccccscccsccsscscsssscscscccsscscccscsccscsccccccccccsccccsccsccccc" />
  </g>
</svg>
