<?xml version="1.0" encoding="UTF-8" standalone="no"?>
<!-- Created with Inkscape (http://www.inkscape.org/) -->

<svg
   xmlns:dc="http://purl.org/dc/elements/1.1/"
   xmlns:cc="http://creativecommons.org/ns#"
   xmlns:rdf="http://www.w3.org/1999/02/22-rdf-syntax-ns#"
   xmlns:svg="http://www.w3.org/2000/svg"
   xmlns="http://www.w3.org/2000/svg"
   xmlns:xlink="http://www.w3.org/1999/xlink"
   xmlns:sodipodi="http://sodipodi.sourceforge.net/DTD/sodipodi-0.dtd"
   xmlns:inkscape="http://www.inkscape.org/namespaces/inkscape"
   width="48px"
   height="48px"
   viewBox="0 0 48 48"
   version="1.1"
   id="SVGRoot"
   inkscape:version="0.92.4 (5da689c313, 2019-01-14)"
   sodipodi:docname="excela.svg"
   inkscape:export-filename="C:\Users\Admin\Documents\Rainmeter\Skins\Honeycomb-NG\@Resources\Images\openshot.png"
   inkscape:export-xdpi="512"
   inkscape:export-ydpi="512">
  <defs
     id="defs1995">
    <linearGradient
       gradientTransform="matrix(0.9965784,0,0,0.9962666,-89.841948,-62.996045)"
       id="IcecapTip-6"
       xlink:href="#WhiteTransparent-4"
       x1="60"
       y1="20"
       x2="90"
       y2="50"
       gradientUnits="userSpaceOnUse" />
    <linearGradient
       id="WhiteTransparent-4"
       gradientUnits="userSpaceOnUse">
      <stop
         style="stop-color:white;stop-opacity:1"
         offset="0"
         id="stop7606-4" />
      <stop
         style="stop-color:white;stop-opacity:0"
         offset="1"
         id="stop7608-7" />
    </linearGradient>
  </defs>
  <sodipodi:namedview
     id="base"
     pagecolor="#ffffff"
     bordercolor="#666666"
     borderopacity="1.0"
     inkscape:pageopacity="0.0"
     inkscape:pageshadow="2"
     inkscape:zoom="15.827319"
     inkscape:cx="21.922133"
     inkscape:cy="21.820863"
     inkscape:document-units="px"
     inkscape:current-layer="layer1"
     showgrid="false"
     inkscape:window-width="1920"
     inkscape:window-height="1017"
     inkscape:window-x="-8"
     inkscape:window-y="-8"
     inkscape:window-maximized="1"
     inkscape:grid-bbox="true"
     inkscape:snap-global="true">
    <inkscape:grid
       type="xygrid"
       id="grid2562" />
  </sodipodi:namedview>
  <metadata
     id="metadata1998">
    <rdf:RDF>
      <cc:Work
         rdf:about="">
        <dc:format>image/svg+xml</dc:format>
        <dc:type
           rdf:resource="http://purl.org/dc/dcmitype/StillImage" />
        <dc:title></dc:title>
      </cc:Work>
    </rdf:RDF>
  </metadata>
  <g
     inkscape:label="Layer 1"
     inkscape:groupmode="layer"
     id="layer1">
    <path
       style="opacity:1;vector-effect:none;fill:#ffffff;fill-opacity:1;fill-rule:evenodd;stroke:none;stroke-width:2;stroke-linecap:round;stroke-linejoin:round;stroke-miterlimit:4;stroke-dasharray:none;stroke-opacity:1;paint-order:stroke fill markers"
       d="M 19 16 C 17.892 16 17 16.892 17 18 L 17 28 C 17 29.108 17.892 30 19 30 L 29 30 C 30.108 30 31 29.108 31 28 L 31 18 C 31 16.892 30.108 16 29 16 L 19 16 z M 27.037109 17.988281 A 1.0001 1.0001 0 0 1 27.800781 19.599609 L 25.25 23 L 27.800781 26.400391 A 1.0003905 1.0003905 0 1 1 26.199219 27.599609 L 24 24.667969 L 21.800781 27.599609 A 1.0003905 1.0003905 0 1 1 20.199219 26.400391 L 22.75 23 L 20.199219 19.599609 A 1.0001 1.0001 0 0 1 20.933594 17.990234 A 1.0001 1.0001 0 0 1 21.800781 18.400391 L 24 21.332031 L 26.199219 18.400391 A 1.0001 1.0001 0 0 1 27.037109 17.988281 z "
       id="rect817" />
  </g>
</svg>
