<?xml version="1.0" encoding="UTF-8" standalone="no"?>
<!-- Created with Inkscape (http://www.inkscape.org/) -->

<svg
   xmlns:dc="http://purl.org/dc/elements/1.1/"
   xmlns:cc="http://creativecommons.org/ns#"
   xmlns:rdf="http://www.w3.org/1999/02/22-rdf-syntax-ns#"
   xmlns:svg="http://www.w3.org/2000/svg"
   xmlns="http://www.w3.org/2000/svg"
   xmlns:sodipodi="http://sodipodi.sourceforge.net/DTD/sodipodi-0.dtd"
   xmlns:inkscape="http://www.inkscape.org/namespaces/inkscape"
   width="48px"
   height="48px"
   viewBox="0 0 48 48"
   version="1.1"
   id="SVGRoot"
   inkscape:version="0.92.4 (5da689c313, 2019-01-14)"
   sodipodi:docname="painta.svg"
   inkscape:export-filename="C:\Users\Admin\Documents\Rainmeter\Skins\Honeycomb-NG\@Resources\Images\openshot.png"
   inkscape:export-xdpi="512"
   inkscape:export-ydpi="512">
  <defs
     id="defs1995" />
  <sodipodi:namedview
     id="base"
     pagecolor="#ffffff"
     bordercolor="#666666"
     borderopacity="1.0"
     inkscape:pageopacity="0.0"
     inkscape:pageshadow="2"
     inkscape:zoom="25.573696"
     inkscape:cx="19.759234"
     inkscape:cy="22.202757"
     inkscape:document-units="px"
     inkscape:current-layer="layer1"
     showgrid="true"
     inkscape:window-width="1920"
     inkscape:window-height="1017"
     inkscape:window-x="-8"
     inkscape:window-y="-8"
     inkscape:window-maximized="1"
     inkscape:grid-bbox="true"
     showguides="false"
     inkscape:snap-global="true">
    <inkscape:grid
       type="xygrid"
       id="grid2562" />
  </sodipodi:namedview>
  <metadata
     id="metadata1998">
    <rdf:RDF>
      <cc:Work
         rdf:about="">
        <dc:format>image/svg+xml</dc:format>
        <dc:type
           rdf:resource="http://purl.org/dc/dcmitype/StillImage" />
        <dc:title></dc:title>
      </cc:Work>
    </rdf:RDF>
  </metadata>
  <g
     inkscape:label="Layer 1"
     inkscape:groupmode="layer"
     id="layer1">
    <path
       style="fill:#ffffff"
       d="M 25.416016 12.03125 C 22.057238 12.126497 19.492297 13.66722 17.742188 15.28125 C 15.60713 17.250295 13.896707 20.141505 13.640625 22.96875 C 13.422443 25.377549 13.978273 29.238976 15.9375 29.648438 C 16.654634 29.798311 17.343204 29.37463 17.976562 28.828125 C 18.624862 28.268729 19.230401 27.596894 19.875 27 C 20.579323 26.347802 21.251009 25.775223 22.101562 26.460938 C 22.588167 26.853238 23.284321 27.607611 22.453125 28.523438 C 21.777688 29.267644 21.037109 29.731068 21.328125 31.382812 C 21.488394 32.292462 22.560715 33.045675 23.484375 33.046875 C 24.611833 33.048394 26.463333 32.101421 28 31.181641 L 28 22.605469 L 26.335938 20.109375 A 2.0002 2.0002 0 0 1 28 17 L 32 17 A 2.0002 2.0002 0 0 1 33.664062 20.109375 L 32 22.605469 L 32 27.851562 C 33.083991 26.402655 33.840446 24.707309 34.148438 22.96875 C 35.016208 18.070338 32.80368 13.457833 29.039062 12.46875 C 27.744056 12.128511 26.535608 11.999501 25.416016 12.03125 z M 24.5 15 C 25.331 15 26 15.669 26 16.5 C 26 17.331 25.331 18 24.5 18 C 23.669 18 23 17.331 23 16.5 C 23 15.669 23.669 15 24.5 15 z M 20 17 C 20.831 17 21.5 17.669 21.5 18.5 C 21.5 19.331 20.831 20 20 20 C 19.169 20 18.5 19.331 18.5 18.5 C 18.5 17.669 19.169 17 20 17 z M 17.5 21 C 18.331 21 19 21.669 19 22.5 C 19 23.331 18.331 24 17.5 24 C 16.669 24 16 23.331 16 22.5 C 16 21.669 16.669 21 17.5 21 z M 25.5 23 C 26.331 23 27 23.669 27 24.5 C 27 25.331 26.331 26 25.5 26 C 24.669 26 24 25.331 24 24.5 C 24 23.669 24.669 23 25.5 23 z "
       id="path834" />
    <path
       style="color:#000000;font-style:normal;font-variant:normal;font-weight:normal;font-stretch:normal;font-size:medium;line-height:normal;font-family:sans-serif;font-variant-ligatures:normal;font-variant-position:normal;font-variant-caps:normal;font-variant-numeric:normal;font-variant-alternates:normal;font-feature-settings:normal;text-indent:0;text-align:start;text-decoration:none;text-decoration-line:none;text-decoration-style:solid;text-decoration-color:#000000;letter-spacing:normal;word-spacing:normal;text-transform:none;writing-mode:lr-tb;direction:ltr;text-orientation:mixed;dominant-baseline:auto;baseline-shift:baseline;text-anchor:start;white-space:normal;shape-padding:0;clip-rule:nonzero;display:inline;overflow:visible;visibility:visible;opacity:1;isolation:auto;mix-blend-mode:normal;color-interpolation:sRGB;color-interpolation-filters:linearRGB;solid-color:#000000;solid-opacity:1;vector-effect:none;fill:#ffffff;fill-opacity:1;fill-rule:nonzero;stroke:none;stroke-width:2;stroke-linecap:round;stroke-linejoin:round;stroke-miterlimit:4;stroke-dasharray:none;stroke-dashoffset:0;stroke-opacity:1;color-rendering:auto;image-rendering:auto;shape-rendering:auto;text-rendering:auto;enable-background:accumulate"
       d="M 28 18 C 27.201413 18.000171 26.725127 18.890134 27.167969 19.554688 L 28.798828 22 L 31.201172 22 L 32.832031 19.554688 C 33.274873 18.890134 32.798587 18.000171 32 18 L 28 18 z M 29 23 L 29 24 L 31 24 L 31 23 L 29 23 z M 29 25 L 29 33 C 29 33.554 29.446 34 30 34 C 30.554 34 31 33.554 31 33 L 31 25 L 29 25 z "
       id="path844" />
  </g>
</svg>
