<?xml version="1.0" encoding="UTF-8" standalone="no"?>
<!-- Created with Inkscape (http://www.inkscape.org/) -->

<svg
   xmlns:dc="http://purl.org/dc/elements/1.1/"
   xmlns:cc="http://creativecommons.org/ns#"
   xmlns:rdf="http://www.w3.org/1999/02/22-rdf-syntax-ns#"
   xmlns:svg="http://www.w3.org/2000/svg"
   xmlns="http://www.w3.org/2000/svg"
   xmlns:sodipodi="http://sodipodi.sourceforge.net/DTD/sodipodi-0.dtd"
   xmlns:inkscape="http://www.inkscape.org/namespaces/inkscape"
   width="48px"
   height="48px"
   viewBox="0 0 48 48"
   version="1.1"
   id="SVGRoot"
   inkscape:version="0.92.4 (5da689c313, 2019-01-14)"
   sodipodi:docname="visual-studioa.svg"
   inkscape:export-filename="C:\Users\Admin\Documents\Rainmeter\Skins\Honeycomb-NG\@Resources\Images\openshot.png"
   inkscape:export-xdpi="512"
   inkscape:export-ydpi="512">
  <defs
     id="defs1995" />
  <sodipodi:namedview
     id="base"
     pagecolor="#ffffff"
     bordercolor="#666666"
     borderopacity="1.0"
     inkscape:pageopacity="0.0"
     inkscape:pageshadow="2"
     inkscape:zoom="31.151775"
     inkscape:cx="15.934752"
     inkscape:cy="26.963265"
     inkscape:document-units="px"
     inkscape:current-layer="layer1"
     showgrid="true"
     inkscape:window-width="1920"
     inkscape:window-height="1017"
     inkscape:window-x="-8"
     inkscape:window-y="-8"
     inkscape:window-maximized="1"
     inkscape:grid-bbox="true">
    <inkscape:grid
       type="xygrid"
       id="grid2562" />
  </sodipodi:namedview>
  <metadata
     id="metadata1998">
    <rdf:RDF>
      <cc:Work
         rdf:about="">
        <dc:format>image/svg+xml</dc:format>
        <dc:type
           rdf:resource="http://purl.org/dc/dcmitype/StillImage" />
        <dc:title></dc:title>
      </cc:Work>
    </rdf:RDF>
  </metadata>
  <g
     inkscape:label="Layer 1"
     inkscape:groupmode="layer"
     id="layer1">
    <path
       style="opacity:1;vector-effect:none;fill:#ffffff;fill-opacity:1;fill-rule:evenodd;stroke:none;stroke-width:2;stroke-linecap:round;stroke-linejoin:round;stroke-miterlimit:4;stroke-dasharray:none;stroke-opacity:1;paint-order:stroke fill markers"
       d="M 27.939453 13.001953 C 27.079438 13.054533 26.684 14.097484 27.292969 14.707031 L 28 15.414062 L 28 24 L 28 24.871094 L 28 32 L 27 24 L 27.056641 24 L 18.677734 16.265625 C 18.479221 16.082427 18.215044 15.987323 17.945312 16.001953 C 17.766804 16.011653 17.594145 16.068933 17.445312 16.167969 L 14.445312 18.167969 C 14.132746 18.376512 13.996463 18.69021 14 19 L 14 19.001953 L 14 27 L 18 27 L 18 23 L 16 19 L 18.408203 22.210938 L 27.236328 32.646484 C 27.260203 32.674677 27.294181 32.686087 27.320312 32.710938 C 27.386091 32.775247 27.45483 32.832061 27.535156 32.876953 C 27.566069 32.893333 27.596731 32.90504 27.628906 32.917969 C 27.719244 32.95686 27.813274 32.979257 27.914062 32.988281 C 27.946647 32.991133 27.977057 32.992517 28.009766 32.992188 C 28.091657 32.990904 28.172866 32.975819 28.257812 32.951172 C 28.316464 32.935406 28.370154 32.915361 28.425781 32.888672 C 28.455104 32.874429 28.484352 32.874862 28.513672 32.857422 L 33.513672 29.857422 C 33.815157 29.676901 33.999782 29.351399 34 29 L 34 17 C 33.999782 16.648601 33.815157 16.323099 33.513672 16.142578 L 28.513672 13.142578 C 28.34081 13.038909 28.140657 12.989891 27.939453 13.001953 z "
       id="rect862" />
    <path
       style="color:#000000;font-style:normal;font-variant:normal;font-weight:normal;font-stretch:normal;font-size:medium;line-height:normal;font-family:sans-serif;font-variant-ligatures:normal;font-variant-position:normal;font-variant-caps:normal;font-variant-numeric:normal;font-variant-alternates:normal;font-feature-settings:normal;text-indent:0;text-align:start;text-decoration:none;text-decoration-line:none;text-decoration-style:solid;text-decoration-color:#000000;letter-spacing:normal;word-spacing:normal;text-transform:none;writing-mode:lr-tb;direction:ltr;text-orientation:mixed;dominant-baseline:auto;baseline-shift:baseline;text-anchor:start;white-space:normal;shape-padding:0;clip-rule:nonzero;display:inline;overflow:visible;visibility:visible;opacity:1;isolation:auto;mix-blend-mode:normal;color-interpolation:sRGB;color-interpolation-filters:linearRGB;solid-color:#000000;solid-opacity:1;vector-effect:none;fill:#ffffff;fill-opacity:1;fill-rule:nonzero;stroke:none;stroke-width:2;stroke-linecap:round;stroke-linejoin:round;stroke-miterlimit:4;stroke-dasharray:none;stroke-dashoffset:0;stroke-opacity:1;color-rendering:auto;image-rendering:auto;shape-rendering:auto;text-rendering:auto;enable-background:accumulate"
       d="M 27.984375 13 C 27.695687 13.0043 27.422959 13.133224 27.236328 13.353516 L 22.130859 19.388672 L 26.617188 22.40625 L 31.677734 17.734375 C 32.094802 17.349292 32.108105 16.694682 31.707031 16.292969 L 28.707031 13.292969 C 28.515706 13.101558 28.254978 12.995854 27.984375 13 z M 19.027344 23.056641 L 16.537109 26 L 15 26 C 14.010874 26.000367 13.62251 27.283062 14.445312 27.832031 L 17.445312 29.832031 C 17.829456 30.087694 18.33865 30.047348 18.677734 29.734375 L 21.201172 27.404297 L 19.027344 23.056641 z "
       id="path830-9-8" />
  </g>
</svg>
