<?xml version="1.0" encoding="UTF-8" standalone="no"?>
<!-- Created with Inkscape (http://www.inkscape.org/) -->

<svg
   xmlns:dc="http://purl.org/dc/elements/1.1/"
   xmlns:cc="http://creativecommons.org/ns#"
   xmlns:rdf="http://www.w3.org/1999/02/22-rdf-syntax-ns#"
   xmlns:svg="http://www.w3.org/2000/svg"
   xmlns="http://www.w3.org/2000/svg"
   xmlns:sodipodi="http://sodipodi.sourceforge.net/DTD/sodipodi-0.dtd"
   xmlns:inkscape="http://www.inkscape.org/namespaces/inkscape"
   width="48px"
   height="48px"
   viewBox="0 0 48 48"
   version="1.1"
   id="SVGRoot"
   inkscape:version="0.92.4 (5da689c313, 2019-01-14)"
   sodipodi:docname="windows-media-centera.svg"
   inkscape:export-filename="C:\Users\Admin\Documents\Rainmeter\Skins\Honeycomb-NG\@Resources\Images\openshot.png"
   inkscape:export-xdpi="512"
   inkscape:export-ydpi="512">
  <defs
     id="defs1995" />
  <sodipodi:namedview
     id="base"
     pagecolor="#ffffff"
     bordercolor="#666666"
     borderopacity="1.0"
     inkscape:pageopacity="0.0"
     inkscape:pageshadow="2"
     inkscape:zoom="21.677703"
     inkscape:cx="24.218768"
     inkscape:cy="21.092207"
     inkscape:document-units="px"
     inkscape:current-layer="layer1"
     showgrid="true"
     inkscape:window-width="1920"
     inkscape:window-height="1017"
     inkscape:window-x="-8"
     inkscape:window-y="-8"
     inkscape:window-maximized="1"
     inkscape:grid-bbox="true"
     showguides="false"
     inkscape:snap-global="true">
    <inkscape:grid
       type="xygrid"
       id="grid2562" />
  </sodipodi:namedview>
  <metadata
     id="metadata1998">
    <rdf:RDF>
      <cc:Work
         rdf:about="">
        <dc:format>image/svg+xml</dc:format>
        <dc:type
           rdf:resource="http://purl.org/dc/dcmitype/StillImage" />
        <dc:title></dc:title>
      </cc:Work>
    </rdf:RDF>
  </metadata>
  <g
     inkscape:label="Layer 1"
     inkscape:groupmode="layer"
     id="layer1">
    <path
       style="opacity:1;vector-effect:none;fill:#ffffff;fill-opacity:1;fill-rule:evenodd;stroke:none;stroke-width:2;stroke-linecap:round;stroke-linejoin:round;stroke-miterlimit:4;stroke-dasharray:none;paint-order:normal"
       d="M 24 13 C 18.46 13 14 17.46 14 23 C 14 28.54 18.46 33 24 33 C 25.046184 33 26.053606 32.840258 27 32.544922 L 27 29.023438 C 26.599511 29.130458 26.263954 29.179853 25.662109 29.199219 C 24.872804 29.224619 24.724226 29.209211 24.1875 29.046875 C 23.599661 28.869081 22.811015 28.481806 22.654297 28.292969 C 22.592597 28.218639 22.72008 27.680753 23.214844 25.953125 C 23.567953 24.720152 23.896552 23.670471 23.943359 23.619141 C 23.960812 23.600003 23.981041 23.588888 24.009766 23.585938 C 24.095941 23.577082 24.254785 23.647179 24.617188 23.841797 C 25.468377 24.298927 25.898346 24.408506 26.822266 24.400391 C 27.441175 24.394991 27.761727 24.349221 28.435547 24.175781 C 29.099246 24.004934 29.293021 23.978245 29.355469 24.046875 C 29.409695 24.10647 29.264932 24.697199 28.880859 26.052734 C 29.017234 26.088594 29.149193 26.139549 29.271484 26.212891 L 32.550781 28.179688 C 33.465263 26.669143 34 24.901848 34 23 C 34 17.46 29.54 13 24 13 z M 22.533203 16.806641 C 23.233017 16.834049 23.878405 17.031539 24.515625 17.404297 C 24.774839 17.555931 24.958984 17.712242 24.958984 17.779297 C 24.958984 17.897786 23.715346 22.253531 23.652344 22.355469 C 23.594914 22.448399 23.475703 22.409227 22.947266 22.123047 C 22.211196 21.724434 21.70741 21.614038 20.816406 21.658203 C 20.255581 21.686003 19.915282 21.748188 19.402344 21.914062 C 18.624831 22.165489 18.495763 22.177684 18.5 22.007812 C 18.5017 21.940203 18.796555 20.874992 19.154297 19.638672 L 19.804688 17.390625 L 20.222656 17.236328 C 21.079281 16.922077 21.833389 16.779232 22.533203 16.806641 z M 25.505859 18.185547 C 25.555799 18.135597 25.729084 18.203476 26.060547 18.400391 C 27.325229 19.151726 28.465456 19.227157 30.177734 18.675781 C 30.695989 18.508897 30.884271 18.474116 30.945312 18.535156 C 31.057673 18.647517 29.77943 23.097348 29.585938 23.267578 C 29.27065 23.54496 27.769773 23.892935 26.927734 23.882812 C 26.676606 23.879812 26.265758 23.831568 26.015625 23.777344 C 25.543596 23.675022 24.555464 23.235277 24.269531 23 L 24.105469 22.865234 L 24.769531 20.5625 C 25.134878 19.295679 25.465937 18.225468 25.505859 18.185547 z M 21.140625 22.216797 C 21.367405 22.229637 21.585738 22.262278 21.798828 22.3125 C 22.224269 22.412767 23.209297 22.881093 23.388672 23.068359 C 23.448042 23.130329 23.300117 23.725434 22.802734 25.433594 C 22.437114 26.689231 22.101691 27.75178 22.056641 27.794922 C 21.995771 27.853212 21.829704 27.794615 21.412109 27.568359 C 20.247987 26.937603 19.140266 26.895941 17.611328 27.423828 C 17.307077 27.528875 17.073574 27.572921 17.015625 27.537109 C 16.939285 27.489929 17.053907 27.017225 17.587891 25.144531 L 18.251953 22.808594 L 18.814453 22.615234 C 19.706993 22.30823 20.460286 22.178278 21.140625 22.216797 z "
       id="rect822" />
    <path
       style="fill:#ffffff;stroke:#ffffff;stroke-width:1px;stroke-linecap:round;stroke-linejoin:round;stroke-opacity:1"
       d="m 28.5,27.500038 v 6 l 5,-3 z"
       id="path817"
       inkscape:connector-curvature="0"
       sodipodi:nodetypes="cccc" />
  </g>
</svg>
