<?xml version="1.0" encoding="UTF-8" standalone="no"?>
<!-- Created with Inkscape (http://www.inkscape.org/) -->

<svg
   xmlns:dc="http://purl.org/dc/elements/1.1/"
   xmlns:cc="http://creativecommons.org/ns#"
   xmlns:rdf="http://www.w3.org/1999/02/22-rdf-syntax-ns#"
   xmlns:svg="http://www.w3.org/2000/svg"
   xmlns="http://www.w3.org/2000/svg"
   xmlns:xlink="http://www.w3.org/1999/xlink"
   xmlns:sodipodi="http://sodipodi.sourceforge.net/DTD/sodipodi-0.dtd"
   xmlns:inkscape="http://www.inkscape.org/namespaces/inkscape"
   width="48px"
   height="48px"
   viewBox="0 0 48 48"
   version="1.1"
   id="SVGRoot"
   inkscape:version="0.92.4 (5da689c313, 2019-01-14)"
   sodipodi:docname="dosbox-xa.svg">
  <defs
     id="defs1995">
    <linearGradient
       gradientTransform="matrix(0.9965784,0,0,0.9962666,-89.841948,-62.996045)"
       id="IcecapTip-6"
       xlink:href="#WhiteTransparent-4"
       x1="60"
       y1="20"
       x2="90"
       y2="50"
       gradientUnits="userSpaceOnUse" />
    <linearGradient
       id="WhiteTransparent-4"
       gradientUnits="userSpaceOnUse">
      <stop
         style="stop-color:white;stop-opacity:1"
         offset="0"
         id="stop7606-4" />
      <stop
         style="stop-color:white;stop-opacity:0"
         offset="1"
         id="stop7608-7" />
    </linearGradient>
  </defs>
  <sodipodi:namedview
     id="base"
     pagecolor="#ffffff"
     bordercolor="#666666"
     borderopacity="1.0"
     inkscape:pageopacity="0.0"
     inkscape:pageshadow="2"
     inkscape:zoom="12.786848"
     inkscape:cx="-6.0390499"
     inkscape:cy="30.047018"
     inkscape:document-units="px"
     inkscape:current-layer="layer1"
     showgrid="true"
     inkscape:window-width="1920"
     inkscape:window-height="1017"
     inkscape:window-x="-8"
     inkscape:window-y="-8"
     inkscape:window-maximized="1"
     inkscape:grid-bbox="true"
     inkscape:snap-global="false">
    <inkscape:grid
       type="xygrid"
       id="grid2562" />
  </sodipodi:namedview>
  <metadata
     id="metadata1998">
    <rdf:RDF>
      <cc:Work
         rdf:about="">
        <dc:format>image/svg+xml</dc:format>
        <dc:type
           rdf:resource="http://purl.org/dc/dcmitype/StillImage" />
        <dc:title></dc:title>
      </cc:Work>
    </rdf:RDF>
  </metadata>
  <g
     inkscape:label="Layer 1"
     inkscape:groupmode="layer"
     id="layer1">
    <path
       style="fill:#ffffff;stroke-width:0.04819708"
       d="m 31.138199,33.364876 c -0.435133,0.201287 -0.622782,0.257252 -1.099388,0.327861 -0.738074,0.10935 -1.616913,-0.08418 -2.186964,-0.48159 -0.429705,-0.299568 -0.661877,-0.829768 -0.590357,-1.348144 l 0.02829,-0.205007 -0.314775,-0.110419 c -0.658936,-0.231147 -1.152809,-0.639455 -1.588267,-1.313097 -0.306182,-0.473661 -0.45618,-0.880533 -0.466217,-1.264654 -0.004,-0.152752 -0.02872,-0.22586 -0.08382,-0.248253 -0.138607,-0.05629 -0.177769,-0.0055 -0.169263,0.219563 0.0215,0.569098 -0.207998,1.247992 -0.617958,1.828055 -0.223038,0.315583 -2.190079,2.336341 -2.469842,2.537289 -0.11995,0.08618 -0.326,0.189332 -0.457867,0.229249 -0.327528,0.09916 -0.858438,0.0099 -1.128985,-0.189847 -0.253896,-0.187419 -4.55865,-4.394261 -4.704344,-4.597327 -0.163289,-0.22759 -0.214402,-0.463704 -0.34804,-1.607838 -0.132048,-1.130675 -0.116088,-1.487493 0.08128,-1.814877 0.103725,-0.172061 1.481803,-1.618476 2.07589,-2.178841 0.110569,-0.104302 0.154458,-0.177438 0.128314,-0.213877 -0.02184,-0.03045 -0.714096,-0.713339 -1.538325,-1.517525 -1.379282,-1.345739 -1.507495,-1.481745 -1.610351,-1.708226 -0.155839,-0.343134 -0.397276,-2.366178 -0.332813,-2.789066 0.06131,-0.402516 0.142917,-0.509877 1.232135,-1.620999 1.245254,-1.270294 1.780904,-1.639981 2.670759,-1.843269 0.522406,-0.119342 0.966238,-0.122705 1.607386,-0.01227 1.246478,0.214749 2.243056,0.866258 3.049999,1.99392 0.386802,0.540508 0.498836,0.770058 0.737886,1.511538 0.02286,0.07086 0.04549,0.09648 0.05823,0.06586 0.01147,-0.02754 0.250588,-0.286105 0.531357,-0.574604 0.613726,-0.630618 0.861575,-0.794083 1.271428,-0.838564 l 0.281655,-0.03057 0.06237,-0.379153 c 0.07503,-0.456051 0.157102,-0.577044 0.90115,-1.328354 0.46634,-0.470888 0.570884,-0.557851 0.784776,-0.652774 0.65558,-0.29093 1.457995,-0.03506 1.801509,0.574451 0.06645,0.1179 0.280845,0.793576 0.476439,1.501505 0.195592,0.707928 0.365942,1.31055 0.378553,1.339163 0.01266,0.02859 0.59428,0.197273 1.292596,0.374801 1.540124,0.391534 1.572196,0.402633 1.859578,0.643539 0.373137,0.312789 0.438737,0.511618 0.58993,1.788046 0.07221,0.609646 0.127351,1.206068 0.122539,1.325376 -0.01511,0.374298 -0.188189,0.651326 -0.804154,1.287112 -0.305421,0.315251 -0.609191,0.612252 -0.67504,0.660006 -0.171831,0.124569 -0.57204,0.254131 -0.759584,0.245845 l -0.160632,-0.0071 -0.05474,0.359577 c -0.03798,0.249534 -0.103128,0.431121 -0.212872,0.593359 -0.128345,0.189741 -0.151805,0.270297 -0.124523,0.427592 l 0.03363,0.193804 0.188276,0.01456 c 0.316985,0.02451 0.976973,0.302605 1.337583,0.563624 0.301115,0.217955 0.379623,0.302468 0.718014,0.772927 0.319503,0.444223 0.393265,0.57525 0.463759,0.823986 0.10619,0.37465 0.372817,2.593681 0.362522,3.017032 -0.01814,0.745001 -0.401669,1.654061 -0.998838,2.367488 -0.395092,0.472009 -1.14403,1.064368 -1.629871,1.289112 z m 0.524166,-3.963489 c 0.844583,-1.012827 0.947609,-2.163748 0.267085,-2.983637 -0.411114,-0.495315 -0.99528,-0.785149 -1.521929,-0.755122 -0.44255,0.02524 -0.807492,0.176928 -1.660591,0.690243 -0.430717,0.259174 -0.835249,0.48503 -0.898958,0.501908 -0.415055,0.109989 -0.646272,-0.297084 -0.396165,-0.697453 0.130038,-0.208183 0.359017,-0.421055 0.55712,-0.51797 0.132576,-0.06485 0.26159,-0.07318 0.507578,-0.0327 0.181402,0.02983 0.341148,0.04613 0.354991,0.03621 0.01384,-0.01 0.171121,-0.262016 0.349511,-0.560183 0.394966,-0.660168 0.395785,-0.718385 0.0126,-0.897113 -1.494074,-0.696878 -3.681963,1.168987 -3.364368,2.869183 0.140284,0.750971 0.762334,1.389692 1.511861,1.55237 0.569221,0.123545 0.924936,0.0086 2.037105,-0.658055 0.425011,-0.254783 0.836298,-0.478736 0.913957,-0.497693 0.157065,-0.03835 0.376236,0.05289 0.48234,0.20078 0.09526,0.132776 0.06301,0.434455 -0.06848,0.64059 -0.06003,0.09412 -0.213027,0.276953 -0.339976,0.406306 -0.399455,0.407007 -0.808555,0.517422 -1.203633,0.324852 -0.116254,-0.05666 -0.207548,-0.06457 -0.280619,-0.02435 -0.12249,0.06745 -0.740837,1.012739 -0.734579,1.122965 0.01286,0.226528 0.405594,0.430869 0.969428,0.50439 0.803146,0.104732 1.805085,-0.385304 2.50572,-1.225511 z m -9.971509,0.02617 c 0.995691,-1.017024 1.210137,-1.264104 1.382608,-1.593009 0.121743,-0.232163 0.211462,-0.645609 0.195366,-0.900286 -0.05778,-0.914219 -0.923687,-1.762138 -1.78223,-1.745208 -0.141605,0.0028 -0.272103,0.01517 -0.289998,0.02751 -0.01789,0.01235 -0.067,0.02442 -0.109125,0.02684 -0.05976,0.0035 -0.07479,-0.05626 -0.06842,-0.271576 0.02196,-0.741143 -0.640989,-1.467111 -1.463269,-1.602376 -0.792267,-0.130329 -1.163453,0.08998 -2.577305,1.529724 -0.50051,0.509677 -0.93187,0.979943 -0.958574,1.045034 -0.03412,0.08317 -0.02147,0.156088 0.04255,0.245329 0.07655,0.106692 2.756178,2.734948 4.006685,3.929869 0.346422,0.331023 0.496976,0.414582 0.60602,0.336345 0.01676,-0.01201 0.473829,-0.474711 1.015699,-1.028197 z M 20.187227,28.09199 c -0.22126,-0.224601 -0.404658,-0.420015 -0.407545,-0.434256 -0.0077,-0.03801 0.764066,-0.836496 0.922415,-0.954339 0.291117,-0.216613 0.746624,-0.105089 0.909664,0.222766 0.151225,0.304128 0.05851,0.512751 -0.469623,1.057142 -0.577786,0.595518 -0.485639,0.585029 -0.95491,0.1087 z m -1.78016,-1.748052 c -0.431628,-0.424275 -0.446242,-0.446643 -0.357536,-0.547271 0.296613,-0.336485 0.765062,-0.775684 0.889122,-0.83362 0.205197,-0.09583 0.417086,-0.04312 0.59289,0.147402 0.29292,0.317481 0.229019,0.563506 -0.283667,1.092203 -0.204013,0.210399 -0.400136,0.403469 -0.435814,0.429066 -0.05143,0.0369 -0.13536,-0.02274 -0.404994,-0.287787 z m 8.172077,-1.667364 c 0.373163,-0.444017 0.521687,-0.759854 0.60859,-1.294164 0.08887,-0.546367 0.03473,-0.984501 -0.19328,-1.564376 -0.129242,-0.328615 -0.207021,-0.455555 -0.538111,-0.878044 -0.443631,-0.566087 -0.825368,-0.905361 -1.338786,-1.189856 -1.10918,-0.614616 -2.162881,-0.612848 -3.023774,0.005 -0.914937,0.656739 -1.31746,1.612302 -1.127745,2.677332 0.111388,0.625351 0.305714,1.045699 0.733644,1.587011 0.412492,0.521789 0.812272,0.866546 1.337057,1.153052 1.362693,0.743958 2.652052,0.563414 3.542436,-0.496039 z m -1.599332,-0.564696 c -0.511957,0.101639 -1.241151,-0.322153 -1.962166,-1.14038 -0.717999,-0.814802 -0.816087,-1.453787 -0.29418,-1.916362 0.265843,-0.235619 0.392518,-0.277231 0.720423,-0.236948 0.552676,0.06797 1.340394,0.654898 1.90548,1.419791 0.36151,0.489296 0.448768,0.754471 0.36912,1.121444 -0.08627,0.397478 -0.361173,0.677508 -0.738677,0.752455 z m 4.182901,-2.358461 c 0.26433,-0.269457 0.416859,-0.458809 0.427164,-0.53031 0.0088,-0.06116 -0.08484,-0.465938 -0.208124,-0.899493 -0.123276,-0.433556 -0.228253,-0.81952 -0.233269,-0.857699 -0.006,-0.04535 0.284772,0.0056 0.838281,0.146605 0.466072,0.11881 0.890854,0.219081 0.94396,0.222824 0.07921,0.0056 0.184112,-0.0815 0.5843,-0.485114 0.531282,-0.535815 0.612065,-0.677315 0.457422,-0.801229 -0.05197,-0.04162 -0.810398,-0.25607 -1.685421,-0.476525 -0.875022,-0.220456 -1.608087,-0.424656 -1.629032,-0.453776 -0.02095,-0.02912 -0.237428,-0.778208 -0.481074,-1.66464 -0.243645,-0.88643 -0.474462,-1.63518 -0.51293,-1.663888 -0.144486,-0.10783 -0.274457,-0.02678 -0.776689,0.484338 -0.264982,0.269665 -0.488844,0.52617 -0.497474,0.570005 -0.0086,0.04385 0.08649,0.446448 0.211388,0.894696 0.12489,0.448248 0.235298,0.844886 0.245345,0.881417 0.01092,0.03976 -0.349627,-0.02889 -0.898424,-0.171043 -0.666893,-0.172755 -0.939704,-0.220761 -1.001154,-0.176173 -0.04646,0.0337 -0.291134,0.275344 -0.543729,0.536963 -0.466781,0.483462 -0.525684,0.590519 -0.412043,0.748909 0.02698,0.03762 0.799367,0.256727 1.716398,0.486917 1.169144,0.293476 1.673217,0.442492 1.687029,0.498733 0.01079,0.04411 0.219556,0.784424 0.463831,1.64514 0.351761,1.239454 0.463614,1.574514 0.537791,1.610993 0.11174,0.05495 0.195589,0.03811 0.287465,-0.05776 0.03733,-0.03891 0.252853,-0.259392 0.478979,-0.489894 z m -8.79156,-0.986834 c 0.426253,-0.436886 0.868645,-0.916813 0.983092,-1.066502 0.821123,-1.073973 0.815933,-2.446393 -0.0136,-3.597094 -0.951225,-1.319502 -2.507072,-1.893897 -3.801391,-1.403416 -0.439784,0.166656 -0.854638,0.505846 -1.787772,1.461742 -0.475324,0.486911 -0.874912,0.926178 -0.887977,0.976147 -0.01796,0.06869 0.01645,0.134828 0.141127,0.271185 0.151585,0.165786 2.967244,2.908894 3.904897,3.804278 0.384368,0.36704 0.534829,0.456908 0.639388,0.38189 0.02597,-0.01863 0.395983,-0.391339 0.822236,-0.828227 z m -0.836932,-1.192905 c -0.165757,-0.124974 -2.603169,-2.574226 -2.597301,-2.609904 0.0121,-0.07356 0.451593,-0.517493 0.669047,-0.675817 0.266334,-0.193926 0.482221,-0.240452 0.876806,-0.189 0.828075,0.10798 1.803276,1.022742 1.937519,1.817445 0.08431,0.499113 -0.06756,0.899633 -0.522119,1.376964 -0.335757,0.352566 -0.302293,0.326801 -0.363949,0.280311 z"
       id="path836"
       inkscape:connector-curvature="0" />
  </g>
</svg>
