<?xml version="1.0" encoding="UTF-8" standalone="no"?>
<!-- Created with Inkscape (http://www.inkscape.org/) -->

<svg
   xmlns:dc="http://purl.org/dc/elements/1.1/"
   xmlns:cc="http://creativecommons.org/ns#"
   xmlns:rdf="http://www.w3.org/1999/02/22-rdf-syntax-ns#"
   xmlns:svg="http://www.w3.org/2000/svg"
   xmlns="http://www.w3.org/2000/svg"
   xmlns:sodipodi="http://sodipodi.sourceforge.net/DTD/sodipodi-0.dtd"
   xmlns:inkscape="http://www.inkscape.org/namespaces/inkscape"
   width="48px"
   height="48px"
   viewBox="0 0 48 48"
   version="1.1"
   id="SVGRoot"
   inkscape:version="0.92.4 (5da689c313, 2019-01-14)"
   sodipodi:docname="duckstationa.svg"
   inkscape:export-filename="C:\Users\Admin\Documents\Rainmeter\Skins\Honeycomb-NG\@Resources\Images\openshot.png"
   inkscape:export-xdpi="512"
   inkscape:export-ydpi="512">
  <defs
     id="defs1995" />
  <sodipodi:namedview
     id="base"
     pagecolor="#ffffff"
     bordercolor="#666666"
     borderopacity="1.0"
     inkscape:pageopacity="0.0"
     inkscape:pageshadow="2"
     inkscape:zoom="18.083334"
     inkscape:cx="16.558346"
     inkscape:cy="18.928864"
     inkscape:document-units="px"
     inkscape:current-layer="layer1"
     showgrid="true"
     inkscape:window-width="1920"
     inkscape:window-height="1017"
     inkscape:window-x="-8"
     inkscape:window-y="-8"
     inkscape:window-maximized="1"
     inkscape:grid-bbox="true"
     inkscape:snap-global="true">
    <inkscape:grid
       type="xygrid"
       id="grid2562" />
  </sodipodi:namedview>
  <metadata
     id="metadata1998">
    <rdf:RDF>
      <cc:Work
         rdf:about="">
        <dc:format>image/svg+xml</dc:format>
        <dc:type
           rdf:resource="http://purl.org/dc/dcmitype/StillImage" />
        <dc:title></dc:title>
      </cc:Work>
    </rdf:RDF>
  </metadata>
  <g
     inkscape:label="Layer 1"
     inkscape:groupmode="layer"
     id="layer1">
    <path
       style="fill:#ffffff"
       d="m 21,30 v 4 l 2,1 2,-1 v -1 l -2,-1 v -2 z"
       id="path837"
       inkscape:connector-curvature="0" />
    <path
       style="fill:#ffffff"
       d="m 25,28 v 4 l 2,1 2,-1 v -1 l -2,-1 v -2 z"
       id="path837-5"
       inkscape:connector-curvature="0" />
    <path
       style="fill:#ffffff"
       d="m 20,17 -4,2 v 9 l 7,3.5 7,-3.5 v -1.464844 l -1.902344,-1.267578 -1.11914,0.609375 c -0.298306,0.162543 -0.658726,0.162543 -0.957032,0 l -5.5,-3 C 20.200405,22.701954 20.000433,22.365672 20,22 Z"
       id="path833"
       inkscape:connector-curvature="0"
       sodipodi:nodetypes="cccccccccccc" />
    <path
       style="fill:#ffffff"
       d="m 18,17 -2,-1 v -2 l 2,-1 2,1 v 2 z"
       id="path835"
       inkscape:connector-curvature="0"
       sodipodi:nodetypes="ccccccc" />
    <path
       style="fill:#ffffff"
       d="M 26.5 12.5 L 21 15.5 L 21 22 L 26.5 25 L 32 22 L 32 15.5 L 26.5 12.5 z M 31.273438 18.650391 L 31.273438 19.951172 L 30.105469 20.681641 L 30.105469 19.263672 L 31.273438 18.650391 z M 28.412109 20.3125 L 28.412109 21.613281 L 27.242188 22.341797 L 27.242188 20.925781 L 28.412109 20.3125 z "
       id="path869" />
    <path
       style="fill:#ffffff"
       d="m 28,23 v 1 l 3,2 3,-2 v -1 l -3,-2 z"
       id="path871"
       inkscape:connector-curvature="0" />
  </g>
</svg>
