<?xml version="1.0" encoding="UTF-8" standalone="no"?>
<!-- Created with Inkscape (http://www.inkscape.org/) -->

<svg
   xmlns:dc="http://purl.org/dc/elements/1.1/"
   xmlns:cc="http://creativecommons.org/ns#"
   xmlns:rdf="http://www.w3.org/1999/02/22-rdf-syntax-ns#"
   xmlns:svg="http://www.w3.org/2000/svg"
   xmlns="http://www.w3.org/2000/svg"
   xmlns:sodipodi="http://sodipodi.sourceforge.net/DTD/sodipodi-0.dtd"
   xmlns:inkscape="http://www.inkscape.org/namespaces/inkscape"
   width="48px"
   height="48px"
   viewBox="0 0 48 48"
   version="1.1"
   id="SVGRoot"
   inkscape:version="0.92.4 (5da689c313, 2019-01-14)"
   sodipodi:docname="osua.svg"
   inkscape:export-filename="C:\Users\Admin\Documents\Rainmeter\Skins\Honeycomb-NG\@Resources\Images\openshot.png"
   inkscape:export-xdpi="512"
   inkscape:export-ydpi="512">
  <defs
     id="defs1995" />
  <sodipodi:namedview
     id="base"
     pagecolor="#ffffff"
     bordercolor="#666666"
     borderopacity="1.0"
     inkscape:pageopacity="0.0"
     inkscape:pageshadow="2"
     inkscape:zoom="15.575888"
     inkscape:cx="21.318632"
     inkscape:cy="21.398738"
     inkscape:document-units="px"
     inkscape:current-layer="layer1"
     showgrid="true"
     inkscape:window-width="1920"
     inkscape:window-height="1017"
     inkscape:window-x="-8"
     inkscape:window-y="-8"
     inkscape:window-maximized="1"
     inkscape:grid-bbox="true"
     inkscape:snap-global="false">
    <inkscape:grid
       type="xygrid"
       id="grid2562" />
  </sodipodi:namedview>
  <metadata
     id="metadata1998">
    <rdf:RDF>
      <cc:Work
         rdf:about="">
        <dc:format>image/svg+xml</dc:format>
        <dc:type
           rdf:resource="http://purl.org/dc/dcmitype/StillImage" />
        <dc:title></dc:title>
      </cc:Work>
    </rdf:RDF>
  </metadata>
  <g
     inkscape:label="Layer 1"
     inkscape:groupmode="layer"
     id="layer1">
    <path
       style="opacity:1;vector-effect:none;fill:#ffffff;fill-opacity:1;fill-rule:evenodd;stroke:none;stroke-width:0.01594162;stroke-opacity:1;paint-order:stroke fill markers"
       d="m 34.025896,17.988849 c -0.233572,0.0012 -0.467966,0.01363 -0.675434,0.03746 -0.131518,0.0151 -0.241862,0.02984 -0.245195,0.03275 -0.01183,0.01035 0.124614,5.958047 0.136967,5.970198 0.01096,0.01079 0.253666,0.04806 0.443002,0.06804 0.144791,0.01528 0.759148,-0.004 0.956498,-0.03 0.113982,-0.01502 0.212604,-0.03225 0.219166,-0.03822 0.0091,-0.0083 0.107449,-4.509243 0.12554,-5.748323 l 0.0034,-0.223183 -0.126162,-0.01846 c -0.238424,-0.03489 -0.537346,-0.05179 -0.837651,-0.05022 z m -17.972092,2.382712 c -0.764179,0 -1.296919,0.162134 -1.83858,0.559543 -0.794521,0.582932 -1.215855,1.631401 -1.177096,2.929181 0.01901,0.637026 0.130617,1.111885 0.378334,1.610103 0.146755,0.295161 0.282934,0.483706 0.524734,0.726402 0.373001,0.374388 0.797277,0.597502 1.347067,0.708437 0.300442,0.06062 0.418867,0.06966 0.845248,0.06448 0.320932,-0.004 0.435795,-0.01145 0.589841,-0.03888 0.675471,-0.120312 1.241161,-0.434864 1.642858,-0.913498 0.288173,-0.343366 0.464916,-0.692894 0.588098,-1.16296 0.262428,-1.001438 0.168827,-2.150793 -0.241834,-2.969502 -0.269903,-0.53809 -0.678162,-0.940526 -1.231959,-1.214335 -0.422044,-0.208668 -0.852942,-0.298967 -1.426711,-0.298967 z m 6.655534,0.0057 c -0.406229,9.05e-4 -0.788052,0.05496 -1.115509,0.163214 -0.183113,0.06053 -0.464403,0.200581 -0.606093,0.301738 -0.212537,0.151739 -0.431246,0.401628 -0.541642,0.618859 -0.133579,0.262849 -0.191706,0.538145 -0.191611,0.90749 1.6e-4,0.599084 0.145886,0.968841 0.49142,1.246808 0.330314,0.265723 0.589998,0.377822 1.309923,0.565462 0.616747,0.160748 0.833417,0.24751 0.970227,0.388483 0.149995,0.154559 0.167561,0.484187 0.03599,0.674903 -0.28563,0.414038 -1.210156,0.508465 -2.147416,0.219322 -0.113227,-0.03493 -0.251961,-0.0817 -0.308276,-0.103932 -0.05631,-0.02225 -0.103833,-0.03874 -0.105584,-0.03659 -0.01493,0.01822 -0.06704,0.135344 -0.111902,0.251517 -0.121119,0.31362 -0.246037,0.823197 -0.246036,1.003638 v 0.06043 l 0.267022,0.08879 c 0.43262,0.143899 0.811497,0.223841 1.175692,0.24806 0.289733,0.01926 0.699159,0.01936 0.893946,2.17e-4 0.626431,-0.06159 1.180543,-0.265363 1.596872,-0.587286 0.551254,-0.42625 0.817925,-1.07896 0.738607,-1.807817 -0.06043,-0.555397 -0.285065,-0.949544 -0.691498,-1.213401 -0.2619,-0.170025 -0.413187,-0.229939 -1.104176,-0.437178 -0.263585,-0.07906 -0.534995,-0.165882 -0.603135,-0.192952 -0.129853,-0.05159 -0.26963,-0.133976 -0.315905,-0.186225 -0.09982,-0.112698 -0.129268,-0.368641 -0.06071,-0.52769 0.06297,-0.146058 0.202327,-0.242027 0.438738,-0.302145 0.1767,-0.04492 0.702558,-0.03983 0.951328,0.0092 0.147466,0.02909 0.667018,0.190493 0.79571,0.247188 0.01991,0.0087 0.03763,-0.01573 0.08257,-0.114051 0.130061,-0.284522 0.252385,-0.738373 0.276769,-1.026833 l 0.0099,-0.117726 -0.261106,-0.0835 c -0.53925,-0.172438 -1.101878,-0.259193 -1.624171,-0.258051 z m 7.945309,0.07958 c -0.246524,5.87e-4 -0.496057,0.01834 -0.74113,0.05321 l -0.133978,0.01906 v 2.469456 2.469458 l -0.04783,0.0133 c -0.219173,0.06083 -0.699063,0.09158 -0.969232,0.0621 -0.30141,-0.03286 -0.500794,-0.113615 -0.668053,-0.270571 -0.120736,-0.113303 -0.192182,-0.227526 -0.25335,-0.404986 -0.122416,-0.355151 -0.125974,-0.426413 -0.125974,-2.516255 0,-1.438316 -0.0041,-1.817722 -0.01992,-1.823635 -0.07273,-0.02725 -0.409639,-0.05801 -0.721357,-0.06588 -0.313717,-0.0079 -0.410207,-0.0044 -0.668116,0.02519 -0.165789,0.01895 -0.30747,0.03818 -0.314848,0.04275 -0.01932,0.01194 -0.01643,3.46571 0.0032,3.792548 0.04364,0.727345 0.193048,1.243592 0.488368,1.687196 0.308799,0.463853 0.828412,0.775313 1.480424,0.887345 0.157487,0.02706 0.517241,0.06926 0.732691,0.08596 0.181447,0.01407 0.96747,-0.0054 1.171709,-0.02917 0.440103,-0.05099 0.949893,-0.153344 1.406848,-0.282436 l 0.235138,-0.06645 V 23.565316 20.525633 L 31.3777,20.506579 c -0.232991,-0.03375 -0.476515,-0.05034 -0.723041,-0.04976 z m -14.626812,1.277324 c 0.03053,-6e-6 0.06251,6.24e-4 0.09628,0.0019 0.323805,0.01177 0.525661,0.08603 0.722231,0.265684 0.347806,0.317873 0.523177,1.044822 0.473952,1.964493 -0.04983,0.930917 -0.318582,1.462084 -0.825042,1.630654 -0.199284,0.06633 -0.412362,0.08495 -0.637665,0.05569 -0.576166,-0.07482 -0.904075,-0.490761 -1.034119,-1.311728 -0.04062,-0.256442 -0.04094,-1.010903 -5.49e-4,-1.265989 0.05479,-0.345815 0.149097,-0.641524 0.270105,-0.846837 0.08867,-0.150457 0.258669,-0.30785 0.412366,-0.381788 0.167303,-0.08048 0.308761,-0.112014 0.52243,-0.11206 z m 18.094395,3.242668 c -0.347885,-9.85e-4 -0.726241,0.02202 -0.941177,0.06455 -0.04075,0.0081 -0.04269,0.01398 -0.07173,0.218668 -0.04177,0.294346 -0.03949,1.05126 0.004,1.366152 l 0.02978,0.215213 0.09565,0.01243 c 0.455529,0.05918 0.920603,0.07196 1.283301,0.03527 0.425512,-0.04303 0.411177,-0.04036 0.420615,-0.07796 0.06629,-0.26414 0.08572,-1.052641 0.03595,-1.460277 -0.03444,-0.282088 -0.03851,-0.299672 -0.07158,-0.309864 -0.01448,-0.0046 -0.119568,-0.02032 -0.233551,-0.03525 -0.144881,-0.01899 -0.342655,-0.0283 -0.551386,-0.02891 z"
       id="rect836"
       inkscape:connector-curvature="0" />
  </g>
</svg>
