<?xml version="1.0" encoding="UTF-8" standalone="no"?>
<!-- Created with Inkscape (http://www.inkscape.org/) -->

<svg
   xmlns:dc="http://purl.org/dc/elements/1.1/"
   xmlns:cc="http://creativecommons.org/ns#"
   xmlns:rdf="http://www.w3.org/1999/02/22-rdf-syntax-ns#"
   xmlns:svg="http://www.w3.org/2000/svg"
   xmlns="http://www.w3.org/2000/svg"
   xmlns:xlink="http://www.w3.org/1999/xlink"
   xmlns:sodipodi="http://sodipodi.sourceforge.net/DTD/sodipodi-0.dtd"
   xmlns:inkscape="http://www.inkscape.org/namespaces/inkscape"
   width="48px"
   height="48px"
   viewBox="0 0 48 48"
   version="1.1"
   id="SVGRoot"
   inkscape:version="0.92.4 (5da689c313, 2019-01-14)"
   sodipodi:docname="midjourneya.svg"
   inkscape:export-filename="C:\Users\Admin\Documents\Rainmeter\Skins\Honeycomb-NG\@Resources\Images\openshot.png"
   inkscape:export-xdpi="512"
   inkscape:export-ydpi="512">
  <defs
     id="defs1995">
    <linearGradient
       gradientUnits="userSpaceOnUse"
       y2="50"
       x2="90"
       y1="20"
       x1="60"
       xlink:href="#WhiteTransparent-4"
       id="IcecapTip-6"
       gradientTransform="matrix(0.9965784,0,0,0.9962666,-89.841948,-62.996045)" />
    <linearGradient
       gradientUnits="userSpaceOnUse"
       id="WhiteTransparent-4">
      <stop
         id="stop7606-4"
         offset="0"
         style="stop-color:white;stop-opacity:1" />
      <stop
         id="stop7608-7"
         offset="1"
         style="stop-color:white;stop-opacity:0" />
    </linearGradient>
  </defs>
  <sodipodi:namedview
     id="base"
     pagecolor="#ffffff"
     bordercolor="#666666"
     borderopacity="1.0"
     inkscape:pageopacity="0.0"
     inkscape:pageshadow="2"
     inkscape:zoom="25.573696"
     inkscape:cx="16.560675"
     inkscape:cy="26.534138"
     inkscape:document-units="px"
     inkscape:current-layer="layer1"
     showgrid="true"
     inkscape:window-width="1920"
     inkscape:window-height="1017"
     inkscape:window-x="-8"
     inkscape:window-y="-8"
     inkscape:window-maximized="1"
     inkscape:grid-bbox="true"
     inkscape:snap-global="false">
    <inkscape:grid
       type="xygrid"
       id="grid2562" />
  </sodipodi:namedview>
  <metadata
     id="metadata1998">
    <rdf:RDF>
      <cc:Work
         rdf:about="">
        <dc:format>image/svg+xml</dc:format>
        <dc:type
           rdf:resource="http://purl.org/dc/dcmitype/StillImage" />
        <dc:title></dc:title>
      </cc:Work>
    </rdf:RDF>
  </metadata>
  <g
     inkscape:label="Layer 1"
     inkscape:groupmode="layer"
     id="layer1">
    <path
       style="fill:none;stroke:#ffffff;stroke-width:0.60165763px;stroke-linecap:round;stroke-linejoin:round;stroke-opacity:1"
       d="m 22.587463,14.701851 c 0,0 4.604672,3.140982 6.655839,10.688824 1.041564,-0.195825 1.832178,0.0877 2.820271,0.479446 -3.372457,-8.922001 -9.47611,-11.16827 -9.47611,-11.16827 z"
       id="path836"
       inkscape:connector-curvature="0"
       sodipodi:nodetypes="cccc" />
    <path
       style="fill:none;stroke:#ffffff;stroke-width:0.60165763px;stroke-linecap:round;stroke-linejoin:round;stroke-opacity:1"
       d="m 16.298261,26.575189 c 5.158801,-6.854153 0.02819,-14.242364 0.02819,-14.242364 0,0 8.965865,3.417356 11.111866,13.537296 -3.546085,-1.355652 -7.060619,-1.583054 -11.140068,0.705068 z"
       id="path838"
       inkscape:connector-curvature="0"
       sodipodi:nodetypes="cccc" />
    <path
       style="fill:none;stroke:#ffffff;stroke-width:0.60165763px;stroke-linecap:round;stroke-linejoin:round;stroke-opacity:1"
       d="m 13.195964,30.918404 c 0,0 0.551894,-0.150123 1.014685,-0.521314 0.462791,-0.371187 1.259748,-1.024697 1.74918,-1.001631 0.846589,0.03991 1.747503,1.534397 2.82027,1.551148 1.055161,0.01647 1.821394,-1.357898 2.876676,-1.353729 1.059585,0.0042 1.704289,1.375617 2.763864,1.381932 1.063657,0.0063 1.78482,-1.444848 2.848474,-1.438337 1.038556,0.0063 1.725342,1.427826 2.763865,1.438337 1.038394,0.01041 1.754974,-1.43499 2.792067,-1.381932 0.776336,0.03973 1.340389,0.540315 1.809067,0.981629 0.462153,0.435166 1.067609,0.428506 1.067609,0.428506"
       id="path840"
       inkscape:connector-curvature="0"
       sodipodi:nodetypes="csssssssssc" />
    <path
       style="fill:none;stroke:#ffffff;stroke-width:0.60165763px;stroke-linecap:round;stroke-linejoin:round;stroke-opacity:1"
       d="m 15.423976,29.451864 -0.733268,-1.353729 c 0,0 4.460845,-0.255356 19.657283,-1.212716 -2.300603,1.81892 -5.64054,3.440728 -5.64054,3.440728"
       id="path842"
       inkscape:connector-curvature="0"
       sodipodi:nodetypes="cccc" />
  </g>
</svg>
