<?xml version="1.0" encoding="UTF-8" standalone="no"?>
<!-- Created with Inkscape (http://www.inkscape.org/) -->

<svg
   xmlns:dc="http://purl.org/dc/elements/1.1/"
   xmlns:cc="http://creativecommons.org/ns#"
   xmlns:rdf="http://www.w3.org/1999/02/22-rdf-syntax-ns#"
   xmlns:svg="http://www.w3.org/2000/svg"
   xmlns="http://www.w3.org/2000/svg"
   xmlns:xlink="http://www.w3.org/1999/xlink"
   xmlns:sodipodi="http://sodipodi.sourceforge.net/DTD/sodipodi-0.dtd"
   xmlns:inkscape="http://www.inkscape.org/namespaces/inkscape"
   width="48px"
   height="48px"
   viewBox="0 0 48 48"
   version="1.1"
   id="SVGRoot"
   inkscape:version="0.92.4 (5da689c313, 2019-01-14)"
   sodipodi:docname="publisher.svg"
   inkscape:export-filename="C:\Users\Admin\Documents\Rainmeter\Skins\Honeycomb-NG\@Resources\Images\openshot.png"
   inkscape:export-xdpi="512"
   inkscape:export-ydpi="512">
  <defs
     id="defs1995">
    <linearGradient
       gradientTransform="matrix(0.9965784,0,0,0.9962666,-89.841948,-62.996045)"
       id="IcecapTip-6"
       xlink:href="#WhiteTransparent-4"
       x1="60"
       y1="20"
       x2="90"
       y2="50"
       gradientUnits="userSpaceOnUse" />
    <linearGradient
       id="WhiteTransparent-4"
       gradientUnits="userSpaceOnUse">
      <stop
         style="stop-color:white;stop-opacity:1"
         offset="0"
         id="stop7606-4" />
      <stop
         style="stop-color:white;stop-opacity:0"
         offset="1"
         id="stop7608-7" />
    </linearGradient>
  </defs>
  <sodipodi:namedview
     id="base"
     pagecolor="#ffffff"
     bordercolor="#666666"
     borderopacity="1.0"
     inkscape:pageopacity="0.0"
     inkscape:pageshadow="2"
     inkscape:zoom="15.575887"
     inkscape:cx="24.322151"
     inkscape:cy="23.810175"
     inkscape:document-units="px"
     inkscape:current-layer="layer1"
     showgrid="false"
     inkscape:window-width="1920"
     inkscape:window-height="1017"
     inkscape:window-x="-8"
     inkscape:window-y="-8"
     inkscape:window-maximized="1"
     inkscape:grid-bbox="true">
    <inkscape:grid
       type="xygrid"
       id="grid2562" />
  </sodipodi:namedview>
  <metadata
     id="metadata1998">
    <rdf:RDF>
      <cc:Work
         rdf:about="">
        <dc:format>image/svg+xml</dc:format>
        <dc:type
           rdf:resource="http://purl.org/dc/dcmitype/StillImage" />
        <dc:title></dc:title>
      </cc:Work>
    </rdf:RDF>
  </metadata>
  <g
     inkscape:label="Layer 1"
     inkscape:groupmode="layer"
     id="layer1">
    <path
       style="opacity:1;vector-effect:none;fill:#ffffff;fill-opacity:1;fill-rule:evenodd;stroke:none;stroke-width:2;stroke-linecap:round;stroke-linejoin:round;stroke-miterlimit:4;stroke-dasharray:none;stroke-opacity:1;paint-order:stroke fill markers"
       d="M 18.974609 16 C 17.866609 16 16.974609 16.892 16.974609 18 L 16.974609 28 C 16.974609 29.108 17.866609 30 18.974609 30 L 28.974609 30 C 30.082609 30 30.974609 29.108 30.974609 28 L 30.974609 18 C 30.974609 16.892 30.082609 16 28.974609 16 L 18.974609 16 z M 20.974609 18 L 22.974609 18 L 24.974609 18 C 26.636609 18 27.974609 19.338 27.974609 21 C 27.974609 22.662 26.636609 24 24.974609 24 L 22.974609 24 L 21.974609 24 L 21.974609 27 C 21.974609 27.554 21.528609 28 20.974609 28 C 20.420609 28 19.974609 27.554 19.974609 27 L 19.974609 19 C 19.974609 18.446 20.420609 18 20.974609 18 z "
       id="rect817-4" />
    <path
       style="opacity:1;vector-effect:none;fill:#ffffff;fill-opacity:1;fill-rule:evenodd;stroke:none;stroke-width:2;stroke-linecap:round;stroke-linejoin:round;stroke-miterlimit:4;stroke-dasharray:none;stroke-opacity:1;paint-order:stroke fill markers"
       d="M 21.974609 20 L 21.974609 21 L 21.974609 22 L 22.974609 22 L 23.974609 22 L 24.974609 22 C 25.528609 22 25.974609 21.554 25.974609 21 C 25.974609 20.446 25.528609 20 24.974609 20 L 23.974609 20 L 22.974609 20 L 21.974609 20 z "
       id="rect862" />
    <path
       style="fill:#b4b4b4;stroke:none;stroke-width:1px;stroke-linecap:butt;stroke-linejoin:miter;stroke-opacity:1"
       d="M 6 33 L 6 35 C 6.0004009 35.722202 6.3900874 36.388103 7.0195312 36.742188 L 7.4785156 37 L 7.4785156 35 L 6 33 z "
       id="path876" />
    <path
       style="opacity:1;vector-effect:none;fill:#ffffff;fill-opacity:1;fill-rule:evenodd;stroke:none;stroke-width:2;stroke-linecap:round;stroke-linejoin:round;stroke-miterlimit:4;stroke-dasharray:none;stroke-opacity:1;paint-order:stroke fill markers"
       d="M 24.025391 2 C 23.673255 1.99589 23.326276 2.084826 23.019531 2.2578125 L 23 2.2695312 L 23 15 L 25 15 L 25 2.2695312 L 24.980469 2.2578125 C 24.688718 2.0932613 24.360315 2.0046126 24.025391 2 z M 6 33 C 6.0004009 33.722202 6.3900874 34.388103 7.0195312 34.742188 L 7.4785156 35 L 25 35 L 25 33 L 6 33 z "
       id="rect828" />
    <rect
       style="opacity:1;vector-effect:none;fill:#ffffff;fill-opacity:1;fill-rule:evenodd;stroke:none;stroke-width:2;stroke-linecap:round;stroke-linejoin:round;stroke-miterlimit:4;stroke-dasharray:none;stroke-opacity:1;paint-order:stroke fill markers"
       id="rect830"
       width="10"
       height="2"
       x="6"
       y="22" />
    <rect
       style="opacity:1;vector-effect:none;fill:#ffffff;fill-opacity:1;fill-rule:evenodd;stroke:none;stroke-width:2;stroke-linecap:round;stroke-linejoin:round;stroke-miterlimit:4;stroke-dasharray:none;stroke-opacity:1;paint-order:stroke fill markers"
       id="rect832"
       width="2"
       height="4"
       x="23"
       y="31" />
  </g>
</svg>
