<?xml version="1.0" encoding="UTF-8" standalone="no"?>
<!-- Created with Inkscape (http://www.inkscape.org/) -->

<svg
   xmlns:dc="http://purl.org/dc/elements/1.1/"
   xmlns:cc="http://creativecommons.org/ns#"
   xmlns:rdf="http://www.w3.org/1999/02/22-rdf-syntax-ns#"
   xmlns:svg="http://www.w3.org/2000/svg"
   xmlns="http://www.w3.org/2000/svg"
   xmlns:sodipodi="http://sodipodi.sourceforge.net/DTD/sodipodi-0.dtd"
   xmlns:inkscape="http://www.inkscape.org/namespaces/inkscape"
   width="48px"
   height="48px"
   viewBox="0 0 48 48"
   version="1.1"
   id="SVGRoot"
   inkscape:version="0.92.4 (5da689c313, 2019-01-14)"
   sodipodi:docname="hearthstonea.svg"
   inkscape:export-filename="C:\Users\Admin\Documents\Rainmeter\Skins\Honeycomb-NG\@Resources\Images\openshot.png"
   inkscape:export-xdpi="512"
   inkscape:export-ydpi="512">
  <defs
     id="defs1995" />
  <sodipodi:namedview
     id="base"
     pagecolor="#ffffff"
     bordercolor="#666666"
     borderopacity="1.0"
     inkscape:pageopacity="0.0"
     inkscape:pageshadow="2"
     inkscape:zoom="18.671859"
     inkscape:cx="12.275301"
     inkscape:cy="29.888649"
     inkscape:document-units="px"
     inkscape:current-layer="layer1"
     showgrid="true"
     inkscape:window-width="1920"
     inkscape:window-height="1017"
     inkscape:window-x="-8"
     inkscape:window-y="-8"
     inkscape:window-maximized="1"
     inkscape:grid-bbox="true"
     inkscape:snap-global="false">
    <inkscape:grid
       type="xygrid"
       id="grid2562" />
  </sodipodi:namedview>
  <metadata
     id="metadata1998">
    <rdf:RDF>
      <cc:Work
         rdf:about="">
        <dc:format>image/svg+xml</dc:format>
        <dc:type
           rdf:resource="http://purl.org/dc/dcmitype/StillImage" />
        <dc:title></dc:title>
      </cc:Work>
    </rdf:RDF>
  </metadata>
  <g
     inkscape:label="Layer 1"
     inkscape:groupmode="layer"
     id="layer1">
    <path
       style="opacity:1;vector-effect:none;fill:#ffffff;fill-opacity:1;fill-rule:evenodd;stroke:none;stroke-width:2;stroke-linecap:round;stroke-linejoin:round;stroke-miterlimit:4;stroke-dasharray:none;paint-order:normal"
       d="M 24 10 L 22.1875 13.171875 C 20.554083 13.46916 19.06465 14.1583 17.814453 15.142578 L 15.515625 14.515625 L 16.142578 16.814453 C 15.1583 18.06465 14.46916 19.554083 14.171875 21.1875 L 11 23 L 14.171875 24.8125 C 14.46916 26.445917 15.1583 27.93535 16.142578 29.185547 L 15.515625 31.484375 L 17.814453 30.857422 C 19.06465 31.8417 20.554083 32.53084 22.1875 32.828125 L 24 36 L 25.8125 32.828125 C 27.445917 32.53084 28.93535 31.8417 30.185547 30.857422 L 32.484375 31.484375 L 31.857422 29.185547 C 32.8417 27.93535 33.53084 26.445917 33.828125 24.8125 L 37 23 L 33.828125 21.1875 C 33.53084 19.554083 32.8417 18.06465 31.857422 16.814453 L 32.484375 14.515625 L 30.185547 15.142578 C 28.93535 14.1583 27.445917 13.46916 25.8125 13.171875 L 24 10 z M 24 16 C 27.878 16 31 19.122 31 23 C 31 26.878 27.878 30 24 30 C 20.122 30 17 26.878 17 23 C 17 19.122 20.122 16 24 16 z "
       id="rect822" />
    <path
       style="fill:#ffffff;stroke:none;stroke-width:0.76670045px;stroke-linecap:butt;stroke-linejoin:miter;stroke-opacity:1;fill-opacity:1"
       d="m 20.257866,27.071275 c 0.06254,-0.184433 1.522949,-0.354661 1.961057,-0.563284 0.43811,-0.208623 0.292074,-0.312935 0.521559,-0.417246 0.229485,-0.104308 1.397776,-0.333798 2.023645,-0.751044 0.625871,-0.417247 1.084841,-0.792767 1.16829,-1.063979 0.08346,-0.27121 0.02087,-0.166898 0.04172,-0.312934 0.02087,-0.146036 0.146037,-0.125173 0.229486,-0.292073 0.08345,-0.166898 -0.06259,-0.250348 -0.06259,-0.479833 0,-0.229485 0.125174,-1.105703 0,-1.668986 -0.125174,-0.563282 -0.605008,-1.335189 -0.751043,-1.418638 -0.146038,-0.08346 0.02087,-0.146037 -0.146038,-0.229485 -0.166897,-0.08346 -0.271209,0.02087 -0.479832,0.02087 -0.208625,0 -0.813632,-0.06259 -1.418638,0.08346 -0.605008,0.146035 -1.418638,0.81363 -1.627261,1.314325 -0.208624,0.500695 0.208623,1.668986 0.479833,1.835885 0.27121,0.166898 0.876218,-0.06259 0.938804,-0.208623 0.06259,-0.146037 -0.292072,-0.625869 -0.229485,-0.792769 0.06259,-0.166898 0.166899,-0.312934 0.605007,-0.27121 0.438108,0.04172 0.375522,-0.04172 0.667594,0.27121 0.292073,0.312934 0.792769,1.189153 0.584146,1.627261 -0.208625,0.43811 -0.563284,0.938804 -1.25174,1.105704 -0.688456,0.166898 -1.335188,0.229485 -1.689848,0.02087 -0.354659,-0.208623 -0.667594,-0.542421 -0.938804,-0.959666 -0.271211,-0.417247 -0.834494,-0.917942 -0.938804,-1.230878 -0.104309,-0.312934 -0.229486,-1.147428 -0.208625,-1.418637 0.02087,-0.27121 0.104309,-0.208624 0.104309,-0.375522 0,-0.166899 -0.229486,-0.229485 -0.125174,-0.43811 0.104307,-0.208623 0.396383,-0.166897 0.688457,-0.417245 0.292071,-0.250349 0.584144,-0.834494 0.917941,-1.147428 0.333797,-0.312935 0.751044,-0.396384 1.084842,-0.563283 0.333796,-0.166899 0.312934,-0.271211 0.542419,-0.312935 0.229486,-0.04172 0.458971,0.187761 0.688457,0.187761 0.229485,0 0.27121,-0.125173 0.438109,-0.125173 0.166899,0 0.584145,0.125173 1.063978,0.229485 0.479833,0.104307 1.043116,0.563282 1.356051,0.730181 0.312935,0.166898 1.210014,1.189151 1.356052,1.689848 0.146035,0.500696 0.542419,1.668986 0.521557,1.898472 -0.02087,0.229486 -0.229485,0.146036 -0.250348,0.333798 -0.02087,0.187759 0.27121,0.312934 0.18776,0.646731 -0.08345,0.333796 0.125176,0.292072 -0.08345,0.771906 -0.208623,0.479834 -0.521559,0.855355 -0.605008,1.084841 -0.08345,0.229485 -0.06259,0.396383 -0.27121,0.605007 -0.208624,0.208623 -0.438109,0.27121 -0.563283,0.354659 -0.125173,0.08346 -0.104309,0.438108 -0.292072,0.521558 -0.187761,0.08346 -1.210015,0.625869 -1.606399,0.688457 -0.396383,0.06259 -0.563282,0.02087 -0.98053,0.104308 -0.417246,0.08345 -0.709319,0.250348 -0.980529,0.292072 -0.271209,0.04172 -0.500694,-0.166898 -0.959666,-0.27121 -0.458971,-0.104309 -1.043116,-0.208624 -1.25174,-0.292073 -0.208623,-0.08346 -0.52388,-0.204941 -0.45897,-0.396383 z"
       id="path898"
       inkscape:connector-curvature="0"
       sodipodi:nodetypes="sccssscscccscssccccccsccsscscccssssccscsscsccccscs" />
  </g>
</svg>
