<?xml version="1.0" encoding="UTF-8" standalone="no"?>
<!-- Created with Inkscape (http://www.inkscape.org/) -->

<svg
   xmlns:dc="http://purl.org/dc/elements/1.1/"
   xmlns:cc="http://creativecommons.org/ns#"
   xmlns:rdf="http://www.w3.org/1999/02/22-rdf-syntax-ns#"
   xmlns:svg="http://www.w3.org/2000/svg"
   xmlns="http://www.w3.org/2000/svg"
   xmlns:sodipodi="http://sodipodi.sourceforge.net/DTD/sodipodi-0.dtd"
   xmlns:inkscape="http://www.inkscape.org/namespaces/inkscape"
   width="48px"
   height="48px"
   viewBox="0 0 48 48"
   version="1.1"
   id="SVGRoot"
   inkscape:version="0.92.4 (5da689c313, 2019-01-14)"
   sodipodi:docname="tes-skyrima.svg"
   inkscape:export-filename="C:\Users\Admin\Documents\Rainmeter\Skins\Honeycomb-NG\@Resources\Images\openshot.png"
   inkscape:export-xdpi="512"
   inkscape:export-ydpi="512">
  <defs
     id="defs1995" />
  <sodipodi:namedview
     id="base"
     pagecolor="#ffffff"
     bordercolor="#666666"
     borderopacity="1.0"
     inkscape:pageopacity="0.0"
     inkscape:pageshadow="2"
     inkscape:zoom="15.575888"
     inkscape:cx="4.5130075"
     inkscape:cy="23.989026"
     inkscape:document-units="px"
     inkscape:current-layer="layer1"
     showgrid="true"
     inkscape:window-width="1920"
     inkscape:window-height="1017"
     inkscape:window-x="-8"
     inkscape:window-y="-8"
     inkscape:window-maximized="1"
     inkscape:grid-bbox="true"
     inkscape:snap-global="false">
    <inkscape:grid
       type="xygrid"
       id="grid2562" />
  </sodipodi:namedview>
  <metadata
     id="metadata1998">
    <rdf:RDF>
      <cc:Work
         rdf:about="">
        <dc:format>image/svg+xml</dc:format>
        <dc:type
           rdf:resource="http://purl.org/dc/dcmitype/StillImage" />
        <dc:title></dc:title>
      </cc:Work>
    </rdf:RDF>
  </metadata>
  <g
     inkscape:label="Layer 1"
     inkscape:groupmode="layer"
     id="layer1">
    <path
       style="fill:#ffffff;stroke-width:0.0144536"
       d="m 23.448052,35.865614 c -0.803497,-1.756435 -0.844062,-1.853337 -0.845473,-2.019621 -0.0013,-0.155685 0.01556,-0.185021 0.598915,-1.04066 0.204829,-0.30044 0.262769,-0.414396 0.271084,-0.533161 0.0086,-0.12365 -0.01132,-0.182175 -0.221501,-0.648778 -0.268076,-0.595147 -0.29546,-0.697027 -0.238103,-0.885861 0.04911,-0.161666 0.363962,-0.770903 0.735282,-1.422744 0.382092,-0.670747 0.41979,-0.783255 0.401976,-1.19965 -0.01604,-0.374796 -0.09177,-0.771091 -0.278958,-1.459813 -0.112369,-0.413423 -0.128141,-0.459521 -0.203985,-0.59629 -0.209599,-0.377972 -0.468764,-0.66222 -0.812597,-0.891244 -0.133168,-0.0887 -0.500948,-0.278326 -0.514172,-0.265101 -0.0045,0.0045 3.74e-4,0.07544 0.01078,0.157706 0.01039,0.08226 0.01865,0.282903 0.01834,0.445867 -5.92e-4,0.29845 -0.02103,0.456787 -0.09324,0.72272 l -0.01765,0.06501 -0.04231,-0.209579 c -0.07624,-0.377604 -0.190004,-0.654088 -0.364613,-0.886091 -0.137603,-0.18283 -0.34768,-0.358825 -0.551455,-0.461987 -0.06144,-0.0311 -0.349562,-0.155097 -0.360399,-0.155097 -0.0019,0 -2.89e-4,0.167481 0.0036,0.37218 0.0097,0.506682 -0.01279,0.748213 -0.156924,1.683959 l -0.07292,0.473471 0.08831,0.165548 c 0.236975,0.444262 0.488876,0.741248 0.809636,0.954546 0.227652,0.151384 0.33104,0.199094 0.4518,0.20849 l 0.104664,0.0081 0.0036,2.174594 c 0.002,1.199677 -0.0019,2.168413 -0.0086,2.160813 -0.0067,-0.0076 -1.161966,-2.520274 -2.567087,-5.583771 -2.138152,-4.661674 -2.552443,-5.575011 -2.540514,-5.60077 0.0078,-0.01693 1.157193,-2.515354 2.554119,-5.552056 1.396924,-3.036703 2.549205,-5.539372 2.560624,-5.561488 l 0.02076,-0.04021 0.06443,0.07548 0.06443,0.07548 3.33e-4,0.261029 c 3.6e-4,0.292297 0.01912,0.578338 0.04478,0.682955 0.02323,0.09469 0.09249,0.229422 0.206613,0.401929 0.108717,0.164328 0.141824,0.242841 0.174639,0.414161 0.01272,0.06635 0.02657,0.13687 0.0308,0.156728 0.0098,0.04613 0.0094,0.04566 -0.153904,-0.163395 L 22.485589,12.17289 22.344432,12.13173 c -0.07764,-0.02264 -0.150508,-0.03758 -0.161935,-0.03319 -0.03483,0.01336 -0.104934,0.138437 -0.167051,0.298046 -0.243366,0.625313 -1.005772,3.6354 -1.206306,4.762679 -0.0439,0.246779 -0.05431,0.341356 -0.05572,0.505876 l -0.0017,0.20235 0.05626,0.09395 c 0.03884,0.06486 0.13782,0.174543 0.319652,0.354238 0.271054,0.267865 0.356951,0.377226 0.412617,0.525324 0.03377,0.08985 0.0851,0.3072 0.0856,0.362436 2.9e-4,0.03191 -0.0046,0.02926 -0.05337,-0.0289 -0.110718,-0.132101 -0.288997,-0.307726 -0.37493,-0.369363 -0.179999,-0.12911 -0.392931,-0.200946 -0.56147,-0.189423 -0.09688,0.0065 -0.234665,0.04822 -0.286285,0.08644 -0.0255,0.01888 -0.09105,0.3254 -0.269728,1.261066 -0.15005,0.785778 -0.191459,1.068515 -0.193691,1.322505 -0.0016,0.189043 0.02918,0.316996 0.105207,0.4366 0.07803,0.12274 0.272189,0.221563 0.507527,0.258318 0.295861,0.0462 0.893722,-0.04243 1.008516,-0.149523 0.09395,-0.08765 0.121727,-0.219609 0.07524,-0.3575 -0.06589,-0.195498 -0.275422,-0.435268 -0.491506,-0.56245 -0.05962,-0.03509 -0.127916,-0.07563 -0.151764,-0.09009 l -0.04336,-0.02628 0.04032,-2.39e-4 c 0.09065,-5.51e-4 0.32764,0.03179 0.42507,0.058 0.267625,0.07199 0.574572,0.279805 0.799927,0.541586 0.150509,0.174836 0.284402,0.431494 0.384543,0.737134 l 0.06156,0.187896 -0.0074,-0.137309 c -0.02001,-0.369757 -0.05015,-0.491997 -0.208413,-0.845189 -0.04879,-0.108873 -0.08517,-0.201477 -0.08087,-0.205788 0.0098,-0.0098 0.200256,0.107356 0.334169,0.20564 0.135032,0.09911 0.280445,0.258777 0.363021,0.398616 0.03711,0.06285 0.06934,0.11428 0.07161,0.11428 0.01062,0 -0.0744,-0.28889 -0.140384,-0.476968 -0.291049,-0.829621 -0.341546,-1.006555 -0.374982,-1.313895 -0.04816,-0.442733 0.114876,-0.893563 0.442078,-1.222412 0.249129,-0.250382 0.555504,-0.412962 1.185195,-0.62893 0.472958,-0.162212 0.682896,-0.284748 0.933743,-0.544999 0.09082,-0.09424 0.138465,-0.157975 0.17675,-0.236502 0.1397,-0.286532 0.09678,-0.635745 -0.108415,-0.882322 -0.187681,-0.225524 -0.501213,-0.413896 -0.821408,-0.493509 -0.163242,-0.04059 -0.468026,-0.04349 -0.607051,-0.0058 -0.305522,0.08285 -0.737032,0.387867 -0.902827,0.638162 -0.0837,0.126366 -0.124141,0.23844 -0.156452,0.433621 -0.01578,0.09539 -0.03073,0.17581 -0.0332,0.178704 -0.0093,0.01094 -0.102302,-0.05653 -0.160424,-0.116401 -0.120317,-0.123977 -0.178013,-0.294846 -0.178013,-0.527191 v -0.148035 l 0.08508,-0.09585 c 0.183948,-0.207223 0.23696,-0.401781 0.184014,-0.675335 l -0.01891,-0.09771 0.07515,-0.169683 c 0.04133,-0.09332 0.124272,-0.264895 0.184301,-0.381266 0.06441,-0.124868 0.116424,-0.246305 0.126909,-0.296299 0.02237,-0.106633 0.02199,-0.308915 -9.65e-4,-0.532777 -0.03935,-0.383443 -0.01976,-0.590587 0.07381,-0.780662 0.03935,-0.07992 0.288367,-0.430577 0.298547,-0.420394 0.0024,0.0024 -0.01495,0.08482 -0.03826,0.183447 -0.07117,0.300825 -0.07935,0.384226 -0.05124,0.521992 0.07093,0.347751 0.295871,0.914302 0.396699,0.999144 0.07837,0.06593 0.120093,0.07043 0.593071,0.06396 0.421346,-0.0057 0.44676,-0.0076 0.583913,-0.04446 0.311294,-0.08343 0.429634,-0.170388 0.493786,-0.362836 0.01928,-0.05783 0.01959,-0.05653 0.01555,0.06515 -0.005,0.149824 -0.03717,0.215114 -0.16243,0.329612 -0.10434,0.09536 -0.165991,0.137346 -0.352994,0.240403 -0.282627,0.155755 -0.423239,0.264906 -0.478161,0.371176 -0.06156,0.119118 -0.02811,0.166611 0.155899,0.221329 0.06994,0.0208 0.179172,0.05466 0.242767,0.07524 0.448495,0.145223 0.806347,0.433179 0.983781,0.791632 0.09249,0.186854 0.12192,0.318002 0.12192,0.543377 0,0.439145 -0.140882,0.777393 -0.454333,1.090827 -0.203547,0.203536 -0.421838,0.343482 -0.942103,0.603985 -0.231452,0.11589 -0.469275,0.243119 -0.528499,0.28273 -0.246456,0.164838 -0.358991,0.364643 -0.358562,0.636616 3.9e-4,0.248444 0.04707,0.334913 0.519194,0.961616 0.131697,0.174818 0.293707,0.399211 0.360023,0.498649 0.208742,0.312996 0.383664,0.715124 0.449108,1.032444 0.01488,0.07217 0.03065,0.121441 0.03504,0.109518 0.0044,-0.01192 0.02792,-0.08242 0.05229,-0.156654 0.146645,-0.446785 0.361994,-0.701122 0.814245,-0.961657 l 0.06928,-0.0399 -0.02084,0.04794 c -0.236706,0.544577 -0.244684,0.568127 -0.268389,0.792292 -0.01599,0.151155 -0.02842,0.364628 -0.02079,0.357 0.0027,-0.0027 0.02491,-0.07236 0.0494,-0.154862 0.06224,-0.209511 0.166717,-0.436105 0.278485,-0.603993 0.102955,-0.154652 0.361421,-0.417316 0.494025,-0.50205 0.122816,-0.07849 0.304064,-0.163706 0.411415,-0.193455 0.102636,-0.02845 0.443525,-0.06881 0.458093,-0.05423 0.0043,0.0043 -0.02053,0.02206 -0.0551,0.03956 -0.35359,0.179064 -0.639529,0.515176 -0.638063,0.750027 0.0013,0.215173 0.09833,0.292971 0.454714,0.364738 0.236633,0.04766 0.618692,0.0479 0.782831,5.15e-4 0.279443,-0.08068 0.396748,-0.190743 0.45783,-0.429572 0.05978,-0.233752 0.02683,-0.526957 -0.181125,-1.611632 -0.107422,-0.560295 -0.236139,-1.203269 -0.241533,-1.20649 -0.0021,-0.0012 -0.04598,-0.02118 -0.09766,-0.04434 -0.08339,-0.03739 -0.11019,-0.04214 -0.238483,-0.04232 -0.120702,-1.6e-4 -0.161948,0.0062 -0.250133,0.03825 -0.216724,0.07891 -0.424382,0.238834 -0.618912,0.476639 -0.05215,0.06376 -0.08653,0.09537 -0.08913,0.08195 -0.0072,-0.03718 0.05107,-0.279415 0.09217,-0.38311 0.05925,-0.149492 0.12808,-0.24406 0.287359,-0.39486 0.285643,-0.270433 0.395264,-0.393259 0.464398,-0.52033 0.02391,-0.04395 0.02725,-0.07902 0.0254,-0.267393 -0.0017,-0.18022 -0.01105,-0.26631 -0.05502,-0.510205 -0.127002,-0.704408 -0.502281,-2.277228 -0.861257,-3.609596 -0.249535,-0.926165 -0.386645,-1.321634 -0.490932,-1.416015 -0.02748,-0.02488 -0.03394,-0.02428 -0.176677,0.01652 l -0.148143,0.04234 -0.127201,0.165733 c -0.176744,0.230283 -0.169349,0.225616 -0.146166,0.09229 0.04032,-0.23183 0.0813,-0.330836 0.226264,-0.546436 0.18137,-0.269767 0.198281,-0.341532 0.208824,-0.886215 l 0.0079,-0.40762 0.06681,-0.07346 0.06681,-0.07346 0.350158,0.762922 c 0.508993,1.108992 0.571863,1.24578 1.124565,2.446768 0.623319,1.354435 0.805794,1.751183 1.003782,2.182493 0.17293,0.376724 0.448444,0.975993 0.820665,1.78502 0.135323,0.294131 0.436038,0.947796 0.668256,1.452588 0.232217,0.504792 0.590652,1.283796 0.796522,1.731121 0.205868,0.447325 0.374307,0.818468 0.374307,0.824765 0,0.0063 -0.08194,0.189903 -0.182088,0.408012 -0.10015,0.21811 -0.26871,0.585184 -0.374576,0.815719 -0.105867,0.230535 -0.431081,0.939484 -0.722701,1.575442 -0.291618,0.635959 -0.564586,1.231085 -0.606596,1.322505 -0.114427,0.249003 -0.217585,0.473402 -0.405313,0.881669 -0.0932,0.202713 -0.20036,0.43686 -0.238113,0.520332 -0.03776,0.08347 -0.200269,0.437944 -0.361147,0.787719 -0.160878,0.349777 -0.453569,0.987181 -0.650424,1.416454 -1.343832,2.930404 -1.564963,3.411698 -1.569987,3.417073 -0.0032,0.0034 -0.0056,-0.970681 -0.0056,-2.164427 v -2.17045 h 0.07934 c 0.09855,0 0.186748,-0.0329 0.350029,-0.130606 0.408122,-0.24419 0.718504,-0.597473 0.966169,-1.099702 l 0.05431,-0.110152 -0.04562,-0.287323 c -0.160739,-1.012636 -0.182871,-1.226567 -0.182412,-1.763826 l 3.89e-4,-0.464731 -0.07991,0.02962 c -0.619325,0.229467 -0.991443,0.641782 -1.149356,1.273513 -0.02614,0.104517 -0.05591,0.237989 -0.0662,0.296603 -0.02281,0.130097 -0.02598,0.123754 -0.08901,-0.178264 -0.04102,-0.196532 -0.04546,-0.243026 -0.04631,-0.484773 -5.15e-4,-0.147064 0.008,-0.344092 0.0189,-0.437839 0.01092,-0.09375 0.01658,-0.173715 0.0126,-0.177712 -0.01783,-0.01783 -0.316099,0.202308 -0.416146,0.307141 -0.197584,0.20704 -0.303909,0.398376 -0.375368,0.675508 -0.08712,0.337876 -0.08713,0.316967 4.66e-4,1.150531 0.07891,0.750889 0.0877,1.085334 0.03596,1.368306 -0.05164,0.282412 -0.09426,0.364138 -0.548934,1.052672 -0.413765,0.626582 -0.743018,1.168017 -0.811425,1.334339 -0.01858,0.04516 -0.03392,0.11257 -0.03412,0.149791 -4.19e-4,0.08424 0.05323,0.293034 0.192491,0.748952 0.131098,0.42922 0.154053,0.516272 0.154053,0.584205 0,0.128875 -0.09871,0.305003 -0.424063,0.756624 -0.534475,0.741905 -0.537252,0.746785 -0.526253,0.924609 0.0056,0.0893 0.01739,0.127085 0.081,0.257924 0.09388,0.193093 0.199133,0.345943 0.306959,0.445772 0.167551,0.155122 0.332808,0.202901 0.663528,0.191845 0.246445,-0.0082 0.339655,-0.03147 0.556818,-0.138761 0.161005,-0.07955 0.343187,-0.209357 0.52414,-0.373462 0.06588,-0.05975 0.122361,-0.106069 0.125503,-0.102929 0.0032,0.0032 -0.02719,0.0804 -0.06738,0.171687 -0.556494,1.263846 -1.20833,2.702796 -1.224133,2.702318 -0.0049,-1.25e-4 -0.265469,-0.561128 -0.579055,-1.246623 z"
       id="path828"
       inkscape:connector-curvature="0" />
  </g>
</svg>
