<?xml version="1.0" encoding="UTF-8" standalone="no"?>
<!-- Created with Inkscape (http://www.inkscape.org/) -->

<svg
   xmlns:dc="http://purl.org/dc/elements/1.1/"
   xmlns:cc="http://creativecommons.org/ns#"
   xmlns:rdf="http://www.w3.org/1999/02/22-rdf-syntax-ns#"
   xmlns:svg="http://www.w3.org/2000/svg"
   xmlns="http://www.w3.org/2000/svg"
   xmlns:sodipodi="http://sodipodi.sourceforge.net/DTD/sodipodi-0.dtd"
   xmlns:inkscape="http://www.inkscape.org/namespaces/inkscape"
   width="48px"
   height="48px"
   viewBox="0 0 48 48"
   version="1.1"
   id="SVGRoot"
   inkscape:version="0.92.4 (5da689c313, 2019-01-14)"
   sodipodi:docname="meter-rama.svg"
   inkscape:export-filename="C:\Users\Admin\Documents\Rainmeter\Skins\Honeycomb-NG\@Resources\Images\openshot.png"
   inkscape:export-xdpi="512"
   inkscape:export-ydpi="512">
  <defs
     id="defs1995" />
  <sodipodi:namedview
     id="base"
     pagecolor="#ffffff"
     bordercolor="#666666"
     borderopacity="1.0"
     inkscape:pageopacity="0.0"
     inkscape:pageshadow="2"
     inkscape:zoom="26.405998"
     inkscape:cx="14.143172"
     inkscape:cy="25.430525"
     inkscape:document-units="px"
     inkscape:current-layer="layer1"
     showgrid="true"
     inkscape:window-width="1920"
     inkscape:window-height="1017"
     inkscape:window-x="-8"
     inkscape:window-y="-8"
     inkscape:window-maximized="1"
     inkscape:grid-bbox="true">
    <inkscape:grid
       type="xygrid"
       id="grid2562" />
  </sodipodi:namedview>
  <metadata
     id="metadata1998">
    <rdf:RDF>
      <cc:Work
         rdf:about="">
        <dc:format>image/svg+xml</dc:format>
        <dc:type
           rdf:resource="http://purl.org/dc/dcmitype/StillImage" />
        <dc:title></dc:title>
      </cc:Work>
    </rdf:RDF>
  </metadata>
  <g
     inkscape:label="Layer 1"
     inkscape:groupmode="layer"
     id="layer1">
    <path
       style="fill:none;stroke:#8a8a8a;stroke-width:4;stroke-linecap:round;stroke-linejoin:round;stroke-miterlimit:4;stroke-dasharray:none;stroke-opacity:1"
       d="m 23,31 h 17 v 4 L 24,44 8,35 v -4 z"
       id="path2564"
       inkscape:connector-curvature="0"
       sodipodi:nodetypes="ccccccc" />
    <path
       style="fill:#b4b4b4;stroke:#b4b4b4;stroke-width:4;stroke-linecap:round;stroke-linejoin:round;stroke-miterlimit:4;stroke-dasharray:none;stroke-opacity:1"
       d="M 40,33 24,42 8,33 Z"
       id="path2564-3-2"
       inkscape:connector-curvature="0"
       sodipodi:nodetypes="cccc" />
    <rect
       style="opacity:1;vector-effect:none;fill:#b4b4b4;fill-opacity:1;fill-rule:evenodd;stroke:none;stroke-width:2;stroke-linecap:round;stroke-linejoin:round;stroke-miterlimit:4;stroke-dasharray:none;stroke-opacity:1;paint-order:stroke fill markers"
       id="rect832"
       width="36"
       height="5"
       x="6"
       y="28" />
    <path
       style="opacity:1;vector-effect:none;fill:#b4b4b4;fill-opacity:1;fill-rule:evenodd;stroke:none;stroke-width:2;stroke-linecap:round;stroke-linejoin:round;stroke-miterlimit:4;stroke-dasharray:none;stroke-opacity:1;paint-order:stroke fill markers"
       d="M 17 13 C 16.446 13 16 13.446 16 14 L 16 15 L 16.5 15 C 16.777 15 17 15.223 17 15.5 C 17 15.777 16.777 16 16.5 16 L 16 16 L 16 17 L 16.5 17 C 16.777 17 17 17.223 17 17.5 C 17 17.777 16.777 18 16.5 18 L 16 18 L 16 19 C 16 19.554 16.446 20 17 20 L 31 20 C 31.554 20 32 19.554 32 19 L 32 18 L 31.5 18 C 31.223 18 31 17.777 31 17.5 C 31 17.223 31.223 17 31.5 17 L 32 17 L 32 16 L 31.5 16 C 31.223 16 31 15.777 31 15.5 C 31 15.223 31.223 15 31.5 15 L 32 15 L 32 14 C 32 13.446 31.554 13 31 13 L 17 13 z M 24.5 15 L 25.5 15 C 25.777 15 26 15.223 26 15.5 L 26 17.5 C 26 17.777 25.777 18 25.5 18 L 24.5 18 C 24.223 18 24 17.777 24 17.5 L 24 15.5 C 24 15.223 24.223 15 24.5 15 z M 27.5 15 L 28.5 15 C 28.777 15 29 15.223 29 15.5 L 29 17.5 C 29 17.777 28.777 18 28.5 18 L 27.5 18 C 27.223 18 27 17.777 27 17.5 L 27 15.5 C 27 15.223 27.223 15 27.5 15 z "
       id="rect828" />
    <rect
       style="opacity:1;vector-effect:none;fill:#b4b4b4;fill-opacity:1;fill-rule:evenodd;stroke:none;stroke-width:2;stroke-linecap:round;stroke-linejoin:round;stroke-miterlimit:4;stroke-dasharray:none;stroke-opacity:1;paint-order:stroke fill markers"
       id="rect830"
       width="7"
       height="1"
       x="17"
       y="21" />
    <rect
       style="opacity:1;vector-effect:none;fill:#b4b4b4;fill-opacity:1;fill-rule:evenodd;stroke:none;stroke-width:2;stroke-linecap:round;stroke-linejoin:round;stroke-miterlimit:4;stroke-dasharray:none;stroke-opacity:1;paint-order:stroke fill markers"
       id="rect833"
       width="6"
       height="1"
       x="25"
       y="21" />
  </g>
</svg>
