<?xml version="1.0" encoding="UTF-8" standalone="no"?>
<!-- Created with Inkscape (http://www.inkscape.org/) -->

<svg
   xmlns:dc="http://purl.org/dc/elements/1.1/"
   xmlns:cc="http://creativecommons.org/ns#"
   xmlns:rdf="http://www.w3.org/1999/02/22-rdf-syntax-ns#"
   xmlns:svg="http://www.w3.org/2000/svg"
   xmlns="http://www.w3.org/2000/svg"
   xmlns:sodipodi="http://sodipodi.sourceforge.net/DTD/sodipodi-0.dtd"
   xmlns:inkscape="http://www.inkscape.org/namespaces/inkscape"
   width="48px"
   height="48px"
   viewBox="0 0 48 48"
   version="1.1"
   id="SVGRoot"
   inkscape:version="0.92.4 (5da689c313, 2019-01-14)"
   sodipodi:docname="2048a.svg">
  <defs
     id="defs1995" />
  <sodipodi:namedview
     id="base"
     pagecolor="#ffffff"
     bordercolor="#666666"
     borderopacity="1.0"
     inkscape:pageopacity="0.0"
     inkscape:pageshadow="2"
     inkscape:zoom="12.786848"
     inkscape:cx="28.061591"
     inkscape:cy="27.117733"
     inkscape:document-units="px"
     inkscape:current-layer="layer1"
     showgrid="true"
     inkscape:window-width="1920"
     inkscape:window-height="1017"
     inkscape:window-x="-8"
     inkscape:window-y="-8"
     inkscape:window-maximized="1"
     inkscape:grid-bbox="true"
     showguides="true"
     inkscape:guide-bbox="true"
     inkscape:snap-global="false">
    <inkscape:grid
       type="xygrid"
       id="grid2562" />
  </sodipodi:namedview>
  <metadata
     id="metadata1998">
    <rdf:RDF>
      <cc:Work
         rdf:about="">
        <dc:format>image/svg+xml</dc:format>
        <dc:type
           rdf:resource="http://purl.org/dc/dcmitype/StillImage" />
        <dc:title></dc:title>
      </cc:Work>
    </rdf:RDF>
  </metadata>
  <g
     inkscape:label="Layer 1"
     inkscape:groupmode="layer"
     id="layer1">
    <path
       style="fill:#ffffff;stroke-width:0.07237789"
       d="m 32.517451,19.292675 c -0.847525,0.0296 -1.659883,0.370502 -1.960929,0.934631 -0.146943,0.275356 -0.167855,0.399727 -0.140768,0.803689 0.03855,0.575107 0.184105,0.84768 0.621998,1.162151 l 0.322457,0.232431 -0.171868,0.112942 c -0.635689,0.416168 -0.951054,0.969187 -0.947727,1.66466 0.0025,0.509042 0.0979,0.768465 0.394476,1.078675 0.438168,0.45832 0.997024,0.648225 1.942925,0.658009 0.447191,0.0045 0.766603,-0.03797 1.121232,-0.147315 1.632445,-0.503347 1.77255,-2.319555 0.248799,-3.219656 -0.123024,-0.07267 -0.222611,-0.151332 -0.222611,-0.173506 0,-0.02217 0.115649,-0.102301 0.256985,-0.178414 0.141334,-0.07611 0.366455,-0.260426 0.500871,-0.409208 0.589306,-0.652293 0.333621,-1.77772 -0.504145,-2.216277 -0.43066,-0.225443 -0.95318,-0.320574 -1.461695,-0.302812 z m -11.634627,0.0082 c -0.46815,0.02288 -0.924604,0.152176 -1.262,0.38302 -0.718519,0.491609 -1.040376,1.407639 -1.041027,2.969218 -7.24e-4,1.725583 0.368815,2.627297 1.263638,3.083798 0.568972,0.290269 1.78852,0.290009 2.357042,0 0.355029,-0.181122 0.783688,-0.654517 0.954276,-1.052485 0.291299,-0.679572 0.412152,-1.807335 0.299541,-2.807173 -0.139309,-1.236911 -0.523022,-1.953558 -1.240723,-2.319422 -0.383722,-0.195611 -0.862596,-0.279856 -1.330747,-0.256983 z m -5.48176,0.0017 c -0.685514,-0.0406 -1.380145,0.152917 -1.883998,0.525423 -0.5562,0.411206 -0.561739,0.482083 -0.07529,0.852792 0.582533,0.443932 0.556171,0.438443 0.813507,0.198056 0.316503,-0.295658 0.931018,-0.472612 1.262,-0.363377 0.49952,0.164855 0.604817,0.647432 0.284808,1.307831 -0.144703,0.298627 -0.505281,0.705218 -1.484607,1.676121 l -1.293101,1.28164 v 0.510694 0.509056 h 2.316123 2.316122 v -0.57944 -0.577803 l -1.428958,-0.0049 -1.428957,-0.0032 0.579439,-0.51724 c 1.369552,-1.226271 1.850372,-1.881569 1.977298,-2.690957 0.19127,-1.219712 -0.566751,-2.042428 -1.954382,-2.124612 z m 11.97836,0.129308 -1.568087,2.077145 -1.56809,2.075508 v 0.564707 0.566346 h 1.592643 1.59264 v 0.541792 0.54343 h 0.612177 0.612176 l 0.02127,-0.525425 0.02127,-0.523786 0.419029,-0.02127 0.419031,-0.02292 -0.02127,-0.520511 -0.02127,-0.520515 -0.415757,-0.02292 -0.415756,-0.02127 v -2.095147 -2.09515 H 28.019428 Z M 32.3996,20.39107 c 0.160717,-0.0183 0.338147,-0.01501 0.523787,0.01637 0.330398,0.05584 0.584351,0.312154 0.584351,0.58926 0,0.195008 -0.434258,0.709719 -0.726755,0.860975 -0.179326,0.09273 -0.220875,0.0853 -0.512332,-0.101483 -0.409555,-0.262468 -0.558125,-0.435227 -0.613812,-0.713661 -0.06778,-0.338864 0.262609,-0.596576 0.744761,-0.651461 z m -11.282708,0.06875 c 0.348396,0.04211 0.684593,0.307068 0.849519,0.774224 0.153073,0.433587 0.218328,1.728921 0.114578,2.281749 -0.09863,0.525585 -0.33293,1.026429 -0.545067,1.165426 -0.184017,0.120573 -0.5159,0.179274 -0.748033,0.130948 -0.260342,-0.05419 -0.585529,-0.437591 -0.700566,-0.824967 -0.256784,-0.864685 -0.202753,-2.361601 0.106394,-2.967581 0.214908,-0.421256 0.57478,-0.601899 0.923175,-0.559799 z m 6.249439,0.821693 c 0.03452,-0.03835 0.0622,0.464909 0.0622,1.139238 v 1.207983 h -0.905168 c -0.497597,0 -0.90517,-0.01627 -0.90517,-0.03765 0,-0.03405 1.586276,-2.129687 1.74814,-2.309575 z m 5.183857,1.656477 c 0.07464,-0.01503 0.135912,-5.79e-4 0.224247,0.03601 0.520764,0.215707 0.958204,0.905887 0.849518,1.338931 -0.121885,0.485621 -0.755101,0.718556 -1.482974,0.546703 -0.38905,-0.09185 -0.61054,-0.365869 -0.61054,-0.751308 0,-0.401303 0.243411,-0.751388 0.715298,-1.027932 0.141401,-0.08287 0.229818,-0.12737 0.304451,-0.142405 z"
       id="path844"
       inkscape:connector-curvature="0"
       sodipodi:nodetypes="sccccccscccsccsscscsccscccscccscccccccccccsccccccccccccccccccccccccccsccscscccccsscscssccscsscc" />
  </g>
</svg>
