<?xml version="1.0" encoding="UTF-8" standalone="no"?>
<!-- Created with Inkscape (http://www.inkscape.org/) -->

<svg
   xmlns:dc="http://purl.org/dc/elements/1.1/"
   xmlns:cc="http://creativecommons.org/ns#"
   xmlns:rdf="http://www.w3.org/1999/02/22-rdf-syntax-ns#"
   xmlns:svg="http://www.w3.org/2000/svg"
   xmlns="http://www.w3.org/2000/svg"
   xmlns:sodipodi="http://sodipodi.sourceforge.net/DTD/sodipodi-0.dtd"
   xmlns:inkscape="http://www.inkscape.org/namespaces/inkscape"
   width="48px"
   height="48px"
   viewBox="0 0 48 48"
   version="1.1"
   id="SVGRoot"
   inkscape:version="0.92.4 (5da689c313, 2019-01-14)"
   sodipodi:docname="6180-the-moona.svg"
   inkscape:export-filename="C:\Users\Admin\Documents\Rainmeter\Skins\Honeycomb-NG\@Resources\Images\openshot.png"
   inkscape:export-xdpi="512"
   inkscape:export-ydpi="512">
  <defs
     id="defs1995" />
  <sodipodi:namedview
     id="base"
     pagecolor="#ffffff"
     bordercolor="#666666"
     borderopacity="1.0"
     inkscape:pageopacity="0.0"
     inkscape:pageshadow="2"
     inkscape:zoom="18.083334"
     inkscape:cx="10.73865"
     inkscape:cy="30.46294"
     inkscape:document-units="px"
     inkscape:current-layer="layer1"
     showgrid="true"
     inkscape:window-width="1920"
     inkscape:window-height="1017"
     inkscape:window-x="-8"
     inkscape:window-y="-8"
     inkscape:window-maximized="1"
     inkscape:grid-bbox="true">
    <inkscape:grid
       type="xygrid"
       id="grid2562" />
  </sodipodi:namedview>
  <metadata
     id="metadata1998">
    <rdf:RDF>
      <cc:Work
         rdf:about="">
        <dc:format>image/svg+xml</dc:format>
        <dc:type
           rdf:resource="http://purl.org/dc/dcmitype/StillImage" />
        <dc:title></dc:title>
      </cc:Work>
    </rdf:RDF>
  </metadata>
  <g
     inkscape:label="Layer 1"
     inkscape:groupmode="layer"
     id="layer1">
    <path
       style="opacity:1;vector-effect:none;fill:#ffffff;fill-opacity:1;fill-rule:evenodd;stroke:none;stroke-width:2;stroke-linecap:round;stroke-linejoin:round;stroke-miterlimit:4;stroke-dasharray:none;paint-order:normal"
       d="M 24 13 C 18.46 13 14 17.46 14 23 C 14 28.54 18.46 33 24 33 C 29.54 33 34 28.54 34 23 C 34 17.46 29.54 13 24 13 z M 19.744141 20.320312 L 19.806641 20.636719 C 19.806641 20.636719 18.372229 20.691621 17.996094 22.488281 C 18.271917 22.242107 18.520638 22.052175 19.037109 22.046875 C 19.814353 22.038935 20.327231 22.742929 20.332031 23.373047 C 20.339624 24.369036 19.610754 24.951946 18.869141 24.972656 C 17.740045 25.004183 17.29731 23.851017 17.3125 23.015625 C 17.355413 20.655942 19.744141 20.320312 19.744141 20.320312 z M 25.298828 20.353516 C 26.192045 20.350449 26.6273 20.880666 26.625 21.521484 C 26.6228 22.142223 25.845703 22.5625 25.845703 22.5625 C 25.845703 22.5625 26.804753 22.889658 26.814453 23.550781 C 26.824933 24.263033 26.200288 25.010306 25.246094 25.003906 C 24.145773 24.996512 23.708799 24.37717 23.667969 23.677734 C 23.631876 23.059382 24.5625 22.625 24.5625 22.625 C 24.5625 22.625 23.866793 22.192515 23.845703 21.615234 C 23.821396 20.949812 24.39075 20.356616 25.298828 20.353516 z M 25.205078 20.59375 C 24.729621 20.575897 24.463797 21.055576 24.466797 21.425781 C 24.46953 21.7634 24.860768 22.106028 25.150391 22.173828 C 25.322982 22.214235 25.625 22.416016 25.625 22.416016 C 25.625 22.416016 26.081396 22.059091 26.066406 21.46875 C 26.053239 20.949888 25.698072 20.61226 25.205078 20.59375 z M 29.107422 21.425781 A 1.6204531 1.7782893 0 0 1 30.728516 23.205078 A 1.6204531 1.7782893 0 0 1 29.107422 24.982422 A 1.6204531 1.7782893 0 0 1 27.486328 23.205078 A 1.6204531 1.7782893 0 0 1 29.107422 21.425781 z M 22.152344 21.589844 L 22.4375 21.589844 L 22.416016 24.505859 C 22.416016 24.505859 22.339794 24.767881 23.089844 24.800781 C 23.094364 24.915855 23.099609 24.990234 23.099609 24.990234 L 21.037109 25 C 21.037109 25 21.038209 24.896112 21.037109 24.767578 C 21.872299 24.774382 21.751953 24.421875 21.751953 24.421875 L 21.751953 22.263672 L 21.027344 22.253906 C 21.027344 22.253906 21.031509 22.099515 21.037109 21.916016 C 21.926618 21.883288 22.152344 21.589844 22.152344 21.589844 z M 29.107422 21.658203 A 0.947018 1.5467961 0 0 0 28.162109 23.205078 A 0.947018 1.5467961 0 0 0 29.107422 24.751953 A 0.947018 1.5467961 0 0 0 30.054688 23.205078 A 0.947018 1.5467961 0 0 0 29.107422 21.658203 z M 18.785156 22.394531 C 18.319884 22.397821 17.986328 22.826172 17.986328 22.826172 C 17.986328 22.826172 17.981428 23.145696 17.986328 23.425781 C 17.995988 23.979677 18.240525 24.712939 18.859375 24.730469 C 19.501677 24.748662 19.661903 24.047409 19.658203 23.478516 C 19.654335 22.878452 19.249113 22.391231 18.785156 22.394531 z M 24.876953 22.699219 C 24.876953 22.699219 24.267224 23.038757 24.246094 23.720703 C 24.2315 24.191812 24.626955 24.724924 25.224609 24.740234 C 25.838631 24.755968 26.226604 24.301494 26.214844 23.792969 C 26.204024 23.324949 25.602153 23.056061 25.330078 22.962891 C 25.070593 22.87403 24.876953 22.699219 24.876953 22.699219 z "
       id="rect822" />
  </g>
</svg>
