<?xml version="1.0" encoding="UTF-8" standalone="no"?>
<!-- Created with Inkscape (http://www.inkscape.org/) -->

<svg
   xmlns:dc="http://purl.org/dc/elements/1.1/"
   xmlns:cc="http://creativecommons.org/ns#"
   xmlns:rdf="http://www.w3.org/1999/02/22-rdf-syntax-ns#"
   xmlns:svg="http://www.w3.org/2000/svg"
   xmlns="http://www.w3.org/2000/svg"
   xmlns:sodipodi="http://sodipodi.sourceforge.net/DTD/sodipodi-0.dtd"
   xmlns:inkscape="http://www.inkscape.org/namespaces/inkscape"
   width="48px"
   height="48px"
   viewBox="0 0 48 48"
   version="1.1"
   id="SVGRoot"
   inkscape:version="0.92.4 (5da689c313, 2019-01-14)"
   sodipodi:docname="armagetron-advanceda.svg"
   inkscape:export-filename="C:\Users\Admin\Documents\Rainmeter\Skins\Honeycomb-NG\@Resources\Images\openshot.png"
   inkscape:export-xdpi="512"
   inkscape:export-ydpi="512">
  <defs
     id="defs1995" />
  <sodipodi:namedview
     id="base"
     pagecolor="#ffffff"
     bordercolor="#666666"
     borderopacity="1.0"
     inkscape:pageopacity="0.0"
     inkscape:pageshadow="2"
     inkscape:zoom="18.083334"
     inkscape:cx="19.09948"
     inkscape:cy="24.549633"
     inkscape:document-units="px"
     inkscape:current-layer="layer1"
     showgrid="true"
     inkscape:window-width="1920"
     inkscape:window-height="1017"
     inkscape:window-x="-8"
     inkscape:window-y="-8"
     inkscape:window-maximized="1"
     inkscape:grid-bbox="true"
     inkscape:snap-global="false">
    <inkscape:grid
       type="xygrid"
       id="grid2562" />
  </sodipodi:namedview>
  <metadata
     id="metadata1998">
    <rdf:RDF>
      <cc:Work
         rdf:about="">
        <dc:format>image/svg+xml</dc:format>
        <dc:type
           rdf:resource="http://purl.org/dc/dcmitype/StillImage" />
        <dc:title></dc:title>
      </cc:Work>
    </rdf:RDF>
  </metadata>
  <g
     inkscape:label="Layer 1"
     inkscape:groupmode="layer"
     id="layer1">
    <path
       style="fill:#ffffff;stroke-width:0.24661429"
       d="M 28.818359 14.398438 L 28.882812 14.921875 C 28.882812 14.921875 26.057959 14.846091 23.652344 15.607422 C 20.360453 16.64923 18.193359 18.697266 18.193359 18.697266 L 17.875 18.162109 L 16.492188 18.09375 L 13.287109 20.511719 C 13.287109 20.511719 13.142948 20.669162 13.582031 20.675781 C 13.724118 20.677981 14.005859 20.654297 14.005859 20.654297 C 14.005859 20.654297 12.13633 22.994402 12.109375 25.220703 C 12.072455 28.269781 14.798404 32.100842 18.191406 32.054688 C 24.149294 31.973647 25.222656 27.738281 25.222656 27.738281 L 31.990234 25.710938 C 31.990234 25.710938 32.471069 26.32288 33.037109 26.365234 C 34.428789 26.469375 35.825544 24.218118 35.996094 22.376953 C 36.323343 18.844185 34.998047 17.734375 34.998047 17.734375 C 34.998047 17.734375 35.085932 17.245891 34.976562 16.996094 C 34.852925 16.713707 34.538367 16.417507 34.242188 16.332031 C 34.005936 16.263851 33.591797 16.425781 33.591797 16.425781 C 33.591797 16.425781 31.608291 14.72072 28.818359 14.398438 z M 28.408203 16.324219 C 29.001398 16.313682 29.375 16.34375 29.375 16.34375 C 29.375 16.34375 30.089671 17.107276 30.175781 18.175781 C 30.237777 18.945053 29.962891 20.136719 29.962891 20.136719 C 29.962891 20.136719 25.894469 20.746039 23.554688 20.59375 C 22.778036 19.90394 22.103986 19.622284 21.232422 19.351562 C 22.865094 16.745426 26.628619 16.355829 28.408203 16.324219 z M 35.380859 19.451172 C 35.380859 19.451172 35.67437 20.321375 35.646484 21.404297 C 35.602984 23.093664 34.732422 24.177734 34.732422 24.177734 L 34.710938 23.460938 L 34.292969 23.484375 L 33.935547 23.023438 L 33.958984 22.572266 C 33.958984 22.572266 34.632641 22.441935 34.720703 21.716797 C 34.853628 20.622243 34.109376 20.478516 34.109375 20.478516 C 34.109375 20.478516 34.401272 20.024386 34.755859 19.785156 C 34.951653 19.65306 35.380859 19.451172 35.380859 19.451172 z M 24.371094 21.101562 C 24.371094 21.101563 26.293712 22.19798 27.314453 22.849609 C 27.821663 23.17341 28.064406 23.238761 28.441406 23.144531 C 29.603019 22.854206 30.929688 22.623047 30.929688 22.623047 L 31.910156 25.205078 L 25.466797 26.970703 C 25.466797 26.970703 25.929151 25.647351 25.792969 24.273438 C 25.628913 22.618313 24.371094 21.101562 24.371094 21.101562 z M 21.785156 21.443359 C 22.244953 21.398584 22.706276 21.462867 23.140625 21.652344 C 24.87802 22.410249 25.531362 24.864938 24.605469 27.154297 C 23.679576 29.443656 21.53427 30.675874 19.796875 29.917969 C 18.05948 29.160063 17.406138 26.707327 18.332031 24.417969 C 19.026451 22.70095 20.405766 21.577685 21.785156 21.443359 z "
       id="path832" />
    <path
       style="fill:#ffffff;stroke-width:0.24661429"
       d="m 19.548822,25.580632 c 0.06376,-0.763037 0.739444,-1.495158 1.438657,-1.487702 0.477655,0.0051 1.327198,0.764815 1.340566,1.422308 0.01836,0.90353 -1.215391,1.674279 -1.880061,1.60214 -0.590026,-0.06404 -0.96623,-0.734189 -0.899162,-1.536746 z"
       id="path836"
       inkscape:connector-curvature="0"
       sodipodi:nodetypes="sssss" />
  </g>
</svg>
