<?xml version="1.0" encoding="UTF-8" standalone="no"?>
<!-- Created with Inkscape (http://www.inkscape.org/) -->

<svg
   xmlns:dc="http://purl.org/dc/elements/1.1/"
   xmlns:cc="http://creativecommons.org/ns#"
   xmlns:rdf="http://www.w3.org/1999/02/22-rdf-syntax-ns#"
   xmlns:svg="http://www.w3.org/2000/svg"
   xmlns="http://www.w3.org/2000/svg"
   xmlns:sodipodi="http://sodipodi.sourceforge.net/DTD/sodipodi-0.dtd"
   xmlns:inkscape="http://www.inkscape.org/namespaces/inkscape"
   width="48px"
   height="48px"
   viewBox="0 0 48 48"
   version="1.1"
   id="SVGRoot"
   inkscape:version="0.92.4 (5da689c313, 2019-01-14)"
   sodipodi:docname="avgn-adventuresa.svg"
   inkscape:export-filename="C:\Users\Admin\Documents\Rainmeter\Skins\Honeycomb-NG\@Resources\Images\openshot.png"
   inkscape:export-xdpi="512"
   inkscape:export-ydpi="512">
  <defs
     id="defs1995" />
  <sodipodi:namedview
     id="base"
     pagecolor="#ffffff"
     bordercolor="#666666"
     borderopacity="1.0"
     inkscape:pageopacity="0.0"
     inkscape:pageshadow="2"
     inkscape:zoom="12.993257"
     inkscape:cx="-1.8539562"
     inkscape:cy="18.949799"
     inkscape:document-units="px"
     inkscape:current-layer="layer1"
     showgrid="true"
     inkscape:window-width="1920"
     inkscape:window-height="1017"
     inkscape:window-x="-8"
     inkscape:window-y="-8"
     inkscape:window-maximized="1"
     inkscape:grid-bbox="true">
    <inkscape:grid
       type="xygrid"
       id="grid2562" />
  </sodipodi:namedview>
  <metadata
     id="metadata1998">
    <rdf:RDF>
      <cc:Work
         rdf:about="">
        <dc:format>image/svg+xml</dc:format>
        <dc:type
           rdf:resource="http://purl.org/dc/dcmitype/StillImage" />
        <dc:title></dc:title>
      </cc:Work>
    </rdf:RDF>
  </metadata>
  <g
     inkscape:label="Layer 1"
     inkscape:groupmode="layer"
     id="layer1">
    <path
       style="opacity:1;vector-effect:none;fill:#ffffff;fill-opacity:1;fill-rule:evenodd;stroke:none;stroke-width:0.89442718;paint-order:normal"
       d="M 22 13 L 22 15 L 18 15 L 18 17 L 16 17 L 16 19 L 14 19 L 14 21 L 16 21 L 16 29 L 14 29 L 14 31 L 18 31 L 18 29 L 18 25 L 20 25 L 20 27 L 28 27 L 28 25 L 30 25 L 30 27 L 32 27 L 32 29 L 34 29 L 34 27 L 36 27 L 36 21 L 34 21 L 34 19 L 34 17 L 32 17 L 32 16 L 32 15 L 30 15 L 30 13 L 22 13 z M 32 29 L 30 29 L 30 31 L 32 31 L 32 29 z M 30 31 L 18 31 L 18 33 L 30 33 L 30 31 z M 14 29 L 14 21 L 12 21 L 12 29 L 14 29 z M 20 19 L 26 19 L 26 21 L 20 21 L 20 23 L 18 23 L 18 21 L 20 21 L 20 19 z M 28 19 L 32 19 L 32 21 L 30 21 L 30 23 L 28 23 L 28 21 L 28 19 z M 22 23 L 26 23 L 26 25 L 22 25 L 22 23 z M 32 23 L 34 23 L 34 25 L 32 25 L 32 23 z "
       id="rect820" />
  </g>
</svg>
