<?xml version="1.0" encoding="UTF-8" standalone="no"?>
<!-- Created with Inkscape (http://www.inkscape.org/) -->

<svg
   xmlns:dc="http://purl.org/dc/elements/1.1/"
   xmlns:cc="http://creativecommons.org/ns#"
   xmlns:rdf="http://www.w3.org/1999/02/22-rdf-syntax-ns#"
   xmlns:svg="http://www.w3.org/2000/svg"
   xmlns="http://www.w3.org/2000/svg"
   xmlns:sodipodi="http://sodipodi.sourceforge.net/DTD/sodipodi-0.dtd"
   xmlns:inkscape="http://www.inkscape.org/namespaces/inkscape"
   width="48px"
   height="48px"
   viewBox="0 0 48 48"
   version="1.1"
   id="SVGRoot"
   inkscape:version="0.92.4 (5da689c313, 2019-01-14)"
   sodipodi:docname="borderlands-presequela.svg"
   inkscape:export-filename="C:\Users\Admin\Documents\Rainmeter\Skins\Honeycomb-NG\@Resources\Images\openshot.png"
   inkscape:export-xdpi="512"
   inkscape:export-ydpi="512">
  <defs
     id="defs1995" />
  <sodipodi:namedview
     id="base"
     pagecolor="#ffffff"
     bordercolor="#666666"
     borderopacity="1.0"
     inkscape:pageopacity="0.0"
     inkscape:pageshadow="2"
     inkscape:zoom="12.635376"
     inkscape:cx="21.663567"
     inkscape:cy="24.695279"
     inkscape:document-units="px"
     inkscape:current-layer="layer1"
     showgrid="true"
     inkscape:window-width="1920"
     inkscape:window-height="1017"
     inkscape:window-x="-8"
     inkscape:window-y="-8"
     inkscape:window-maximized="1"
     inkscape:grid-bbox="true"
     inkscape:snap-global="false">
    <inkscape:grid
       type="xygrid"
       id="grid2562" />
  </sodipodi:namedview>
  <metadata
     id="metadata1998">
    <rdf:RDF>
      <cc:Work
         rdf:about="">
        <dc:format>image/svg+xml</dc:format>
        <dc:type
           rdf:resource="http://purl.org/dc/dcmitype/StillImage" />
        <dc:title></dc:title>
      </cc:Work>
    </rdf:RDF>
  </metadata>
  <g
     inkscape:label="Layer 1"
     inkscape:groupmode="layer"
     id="layer1">
    <path
       style="opacity:1;vector-effect:none;fill:#ffffff;fill-opacity:1;fill-rule:evenodd;stroke:none;stroke-width:2;stroke-linecap:round;stroke-linejoin:round;stroke-miterlimit:4;stroke-dasharray:none;paint-order:normal"
       d="M 24.042969 12.992188 C 22.743756 12.988346 21.420396 13.239203 20.142578 13.773438 C 15.031306 15.910375 12.6365 21.74615 14.773438 26.857422 C 16.910375 31.968694 22.74615 34.3635 27.857422 32.226562 C 32.968694 30.089625 35.3635 24.25385 33.226562 19.142578 C 31.62386 15.309124 27.940606 13.003711 24.042969 12.992188 z M 24 15 C 28.432 15 32 18.568 32 23 C 32 27.432 28.432 31 24 31 C 19.568 31 16 27.432 16 23 C 16 18.568 19.568 15 24 15 z "
       id="rect822" />
    <path
       style="fill:#ffffff;stroke:none;stroke-width:1px;stroke-linecap:butt;stroke-linejoin:miter;stroke-opacity:1;fill-opacity:1"
       d="m 21.44221,16.541714 c 1.492929,-0.624169 2.230953,0.151153 2.230953,0.151153 l 9.241805,9.142704 -1.996379,3.002411 -7.396582,-9.914162 c 0,0 -0.616501,-0.82613 -1.30834,-0.536883 -0.691841,0.289246 -0.536884,1.308341 -0.536884,1.308341 l 1.860907,12.228533 -3.539294,-0.688038 -0.01568,-12.999992 c 0,0 -0.03343,-1.0699 1.459497,-1.694069 z"
       id="path828"
       inkscape:connector-curvature="0" />
  </g>
</svg>
