<?xml version="1.0" encoding="UTF-8" standalone="no"?>
<!-- Created with Inkscape (http://www.inkscape.org/) -->

<svg
   xmlns:dc="http://purl.org/dc/elements/1.1/"
   xmlns:cc="http://creativecommons.org/ns#"
   xmlns:rdf="http://www.w3.org/1999/02/22-rdf-syntax-ns#"
   xmlns:svg="http://www.w3.org/2000/svg"
   xmlns="http://www.w3.org/2000/svg"
   xmlns:xlink="http://www.w3.org/1999/xlink"
   xmlns:sodipodi="http://sodipodi.sourceforge.net/DTD/sodipodi-0.dtd"
   xmlns:inkscape="http://www.inkscape.org/namespaces/inkscape"
   width="48px"
   height="48px"
   viewBox="0 0 48 48"
   version="1.1"
   id="SVGRoot"
   inkscape:version="0.92.4 (5da689c313, 2019-01-14)"
   sodipodi:docname="byonda.svg"
   inkscape:export-filename="C:\Users\Admin\Documents\Rainmeter\Skins\Honeycomb-NG\@Resources\Images\virtualbox.png"
   inkscape:export-xdpi="512"
   inkscape:export-ydpi="512">
  <defs
     id="defs1995">
    <linearGradient
       gradientTransform="matrix(0.9965784,0,0,0.9962666,-89.841948,-62.996045)"
       id="IcecapTip-6"
       xlink:href="#WhiteTransparent-4"
       x1="60"
       y1="20"
       x2="90"
       y2="50"
       gradientUnits="userSpaceOnUse" />
    <linearGradient
       id="WhiteTransparent-4"
       gradientUnits="userSpaceOnUse">
      <stop
         style="stop-color:white;stop-opacity:1"
         offset="0"
         id="stop7606-4" />
      <stop
         style="stop-color:white;stop-opacity:0"
         offset="1"
         id="stop7608-7" />
    </linearGradient>
  </defs>
  <sodipodi:namedview
     id="base"
     pagecolor="#ffffff"
     bordercolor="#666666"
     borderopacity="1.0"
     inkscape:pageopacity="0.0"
     inkscape:pageshadow="2"
     inkscape:zoom="9.041667"
     inkscape:cx="-13.631776"
     inkscape:cy="23.082551"
     inkscape:document-units="px"
     inkscape:current-layer="layer1"
     showgrid="true"
     inkscape:window-width="1920"
     inkscape:window-height="1017"
     inkscape:window-x="-8"
     inkscape:window-y="-8"
     inkscape:window-maximized="1"
     inkscape:grid-bbox="true"
     inkscape:snap-global="true">
    <inkscape:grid
       type="xygrid"
       id="grid2562" />
  </sodipodi:namedview>
  <metadata
     id="metadata1998">
    <rdf:RDF>
      <cc:Work
         rdf:about="">
        <dc:format>image/svg+xml</dc:format>
        <dc:type
           rdf:resource="http://purl.org/dc/dcmitype/StillImage" />
        <dc:title></dc:title>
      </cc:Work>
    </rdf:RDF>
  </metadata>
  <g
     inkscape:label="Layer 1"
     inkscape:groupmode="layer"
     id="layer1">
    <path
       style="opacity:1;vector-effect:none;fill:#ffffff;fill-opacity:1;fill-rule:evenodd;stroke:none;stroke-width:2.30543017;stroke-linecap:round;stroke-linejoin:round;stroke-miterlimit:4;stroke-dasharray:none;paint-order:normal"
       d="m 24.334466,11.940032 c -0.128327,5.12e-4 -0.260272,0.03524 -0.384987,0.105813 -0.338785,0.19173 -0.834984,0.779212 -1.276543,2.48329 -0.226427,0.873876 -0.491078,2.271049 -0.560597,4.201105 -1.217847,-0.590285 -2.51968,-1.153297 -3.928688,-1.679541 -0.129043,-0.635358 -0.689282,-1.11219 -1.359844,-1.112189 -0.492417,0 -0.92459,0.257585 -1.170726,0.646151 -0.835608,0.172396 -1.088839,0.596199 -1.121195,0.781234 -0.190082,1.087011 2.126616,3.02022 2.965088,3.658519 0.721993,0.549629 1.388233,1.026462 1.875413,1.366598 -2.806488,1.921855 -5.797352,4.494924 -5.119675,5.725302 0.178356,0.323815 0.762492,0.466038 1.323822,0.466039 0.473663,0 0.922712,-0.158651 1.693051,-0.384989 1.392855,-0.409203 3.11529,-1.144905 4.851759,-2.071285 l 0.01351,-0.03828 c 0.04555,2.20327 0.366288,4.526815 0.697933,5.763575 0.255233,0.951864 0.666986,2.119164 1.470161,2.105055 0.646063,-0.0113 1.161117,-0.687639 1.564721,-2.183854 0.234762,-0.870265 0.471514,-2.226766 0.598871,-3.113681 0.559796,-0.210566 0.959096,-0.753233 0.959095,-1.389112 0,-0.09707 -0.0092,-0.191813 -0.02702,-0.283676 1.534747,0.641265 2.638425,1.108438 3.469403,1.339581 0.520583,0.144821 1.133804,0.267916 1.600742,0.267916 0.492858,0 0.938022,-0.160038 1.15947,-0.54934 0.09972,-0.175369 0.10648,-0.528605 -0.03377,-0.947839 -0.459993,-1.375187 -3.362051,-3.487515 -4.94632,-4.554575 -0.06181,-0.04162 -0.124742,-0.08224 -0.186865,-0.123827 1.731309,-1.273131 3.215218,-2.42847 3.991727,-3.233005 0.03957,-0.04098 0.07724,-0.08254 0.114821,-0.123827 0.05002,0.0065 0.101333,0.01125 0.153093,0.01125 0.660878,0 1.195493,-0.538314 1.195493,-1.202246 0,-0.66393 -0.534616,-1.202246 -1.195493,-1.202246 -0.116192,0 -0.229227,0.01623 -0.335456,0.04728 -0.753228,-0.155777 -2.334947,0.04377 -5.797347,1.654775 -0.03905,-0.457791 -0.08677,-0.901002 -0.141837,-1.328322 -0.168745,-1.309421 -0.43535,-2.395687 -0.677672,-3.226252 -0.288888,-0.990171 -0.668533,-1.5292 -1.067162,-1.77185 -0.114408,-0.06964 -0.238649,-0.104074 -0.366977,-0.103562 z m -0.0743,1.22476 c 0.215958,0.329783 0.596456,1.45956 0.961346,4.291162 0.06254,0.485288 0.112633,0.985911 0.150843,1.499429 -0.345068,0.171666 -0.705716,0.355147 -1.082921,0.551593 -0.114622,-0.0116 -0.231331,-0.01576 -0.348967,-0.01576 -0.103216,0 -0.205269,0.0047 -0.306189,0.01351 -0.178917,-0.09511 -0.35995,-0.189673 -0.542586,-0.283677 0.03776,-2.054894 0.304876,-3.51785 0.531328,-4.403732 0.258628,-1.011741 0.47464,-1.42432 0.637146,-1.652525 z m 7.265257,4.768457 c 0.01003,0.195085 0.068,0.376229 0.15985,0.535833 -0.133927,0.122722 -0.296369,0.272925 -0.488554,0.459285 -0.798159,0.77393 -2.005662,1.757794 -3.593229,2.924564 -0.169608,-0.110023 -0.340893,-0.219219 -0.513318,-0.328703 -0.09976,-0.219059 -0.221597,-0.427352 -0.362475,-0.619135 -0.0125,-0.418974 -0.0299,-0.833497 -0.05178,-1.24052 2.419948,-1.168511 3.997,-1.59116 4.849508,-1.731324 z M 17.872958,18.24169 c 1.407497,0.609636 2.76083,1.237212 4.059269,1.893425 -0.466322,0.334451 -0.846617,0.782486 -1.100934,1.303559 -0.214595,0.133354 -0.435519,0.273025 -0.659658,0.418759 -0.507493,-0.390234 -1.334236,-1.023175 -2.168096,-1.652525 -0.995511,-0.751357 -1.58693,-1.310244 -1.938453,-1.70881 0.218275,0.143898 0.478146,0.227391 0.758721,0.227391 0.41887,0 0.794825,-0.186914 1.049151,-0.481799 z m 4.324933,2.03076 c 0.09331,0.04773 0.18623,0.09615 0.279174,0.144089 -9.23e-4,0.02135 -0.0038,0.04458 -0.009,0.06979 -0.148108,0.08177 -0.297874,0.164731 -0.450278,0.249905 -0.225317,0.125926 -0.466513,0.265675 -0.718196,0.416508 0.238562,-0.349406 0.544445,-0.649033 0.898307,-0.880296 z m 3.248765,0.01351 c 0.0031,0.07838 0.0065,0.157596 0.009,0.236396 -0.07158,-0.04205 -0.143996,-0.08415 -0.216133,-0.126079 0.06968,-0.0372 0.138576,-0.07419 0.207128,-0.110313 z m -1.067162,1.16172 c 0.373159,0.21209 0.742376,0.427117 1.105437,0.64615 0.0019,0.442058 -0.0027,0.886501 -0.009,1.335078 -0.08153,0.0086 -0.217721,0.0597 -0.285927,-0.02252 -0.05829,-0.07027 -0.200789,-0.236704 -0.335457,-0.270167 -0.05646,-0.01401 -0.02755,0.100198 -0.157599,0.06754 -0.05734,-0.0144 -0.165253,-0.07487 -0.252156,-0.0788 -0.167057,-0.0077 -0.32012,0.074 -0.330955,0.216133 0,0 -0.05676,-0.134018 -0.189118,-0.06754 -0.132351,0.06649 -0.250062,-0.04923 -0.175609,-0.207129 0.07445,-0.157901 -0.15671,-0.191368 -0.222888,-0.191368 -0.06619,0 -0.06619,-0.133898 0,-0.200374 0.04964,-0.04988 0.01198,-0.180769 -0.114821,-0.114822 -0.04227,0.02198 -0.08311,0.08882 -0.148593,0.157598 -0.181987,0.191144 -0.32363,-0.249075 -0.240899,-0.373732 0,0 -0.04225,-0.17561 0.06529,-0.17561 0.107539,0 0.133363,-0.05801 0.2409,-0.02477 0.107539,0.03323 0.305292,-0.05732 0.371481,-0.01576 0.06618,0.04155 0.04094,0.179592 0.166602,0.265665 0.181995,0.124661 0.06614,-0.207684 0.02477,-0.348967 0,0 0.156713,-0.133538 0.222889,-0.177859 0.06619,-0.04433 0,-0.288179 0,-0.288179 0,0 0.138622,-0.117845 0.265664,-0.130582 z m -2.057777,0.632641 c 0.0791,0.08456 0.25998,0.309097 0.177861,0.508817 0,0 0.251855,0.317446 0.459284,0.317446 0.207399,0 0.09829,-0.03734 0.218387,0.0833 0.120093,0.120653 0.310754,0.126138 0.348966,0.213883 0.03821,0.08774 0.147485,0.164829 0.256659,0.225139 0.109176,0.06032 0.163323,-0.06599 0.168855,-0.04953 0.0055,0.01645 0.05471,0.02743 0.07655,0.213882 0.02184,0.186465 -0.180111,0.08007 -0.180111,0.301686 0,0.221617 -0.137564,0.17956 0.06078,0.414258 0.1823,0.215702 0.183266,0.289939 0.227392,0.400748 0.04412,0.110792 0.296878,-0.01674 0.285927,0.204878 0,0 -0.126078,0.137057 -0.126078,0.403 0,0.265943 -0.249123,0.515958 -0.265665,0.682173 -0.01654,0.166214 0.26026,0.207062 0.380486,0 0.173722,-0.299195 0.297553,-0.28249 0.479548,-0.348966 0.06183,-0.02259 0.06456,-0.124412 0.141838,-0.150844 0.14943,-0.05111 0.280248,-0.21557 0.389491,-0.281425 0.0051,-0.0031 0.0085,-0.0079 0.01351,-0.01125 -0.0062,0.204102 -0.01103,0.408301 -0.01801,0.612381 -0.441586,0.231061 -0.944584,0.362474 -1.476917,0.362474 -1.731917,0 -3.141676,-1.382761 -3.196982,-3.109178 0.449504,-0.289963 0.935871,-0.595042 1.461156,-0.918569 0.02751,0.07385 0.06123,0.146286 0.101312,0.220636 0,0 0.02011,0.07101 0.123826,0.07655 l -0.126078,-0.360225 c 0.0061,-0.0038 0.0119,-0.0076 0.01801,-0.01125 z m 4.435251,0.808252 c 0.127267,0.08267 0.252276,0.166172 0.378235,0.249905 -0.02616,0.502162 -0.166474,0.973955 -0.396246,1.389112 0.01081,-0.545148 0.01797,-1.092996 0.01801,-1.639017 z m -6.267887,0.348967 c 0.06516,0.85309 0.436551,1.620704 1.004123,2.190609 -1.492748,0.780077 -2.990626,1.371923 -4.221369,1.760592 -1.263858,0.399143 -1.762416,0.373175 -1.981229,0.328704 0.110592,-0.290684 0.937,-1.504915 5.198475,-4.279905 z m 6.896028,0.06979 c 0.386053,0.260642 0.768115,0.525395 1.141459,0.796994 1.246435,0.906764 2.270754,1.596274 2.98535,2.300927 0.653102,0.644013 0.961562,0.999327 1.024386,1.15947 -0.178439,0.02025 -0.817898,0.0065 -1.882167,-0.317448 -0.958228,-0.291617 -2.05428,-0.846384 -3.942195,-1.625508 0.0061,-0.196323 0.01081,-0.392183 0.01576,-0.589866 0.361227,-0.491698 0.595611,-1.082845 0.657407,-1.724569 z m -4.399229,3.005615 c 0.303076,0.08711 0.623663,0.132831 0.954591,0.132831 0.297297,0 0.586964,-0.03724 0.862286,-0.108063 -0.205303,0.254558 -0.328704,0.578872 -0.328704,0.932078 0,0.53563 0.283203,1.004776 0.706938,1.265285 -0.04006,0.837657 -0.157157,1.726386 -0.364726,2.562088 -0.260613,1.049385 -0.421311,1.477659 -0.556095,1.630013 -0.105311,-0.129272 -0.301741,-0.400924 -0.565101,-1.524196 -0.270861,-1.155221 -0.509526,-2.797517 -0.709189,-4.890033 z"
       id="rect822"
       inkscape:connector-curvature="0" />
  </g>
</svg>
