<?xml version="1.0" encoding="UTF-8" standalone="no"?>
<!-- Created with Inkscape (http://www.inkscape.org/) -->

<svg
   xmlns:dc="http://purl.org/dc/elements/1.1/"
   xmlns:cc="http://creativecommons.org/ns#"
   xmlns:rdf="http://www.w3.org/1999/02/22-rdf-syntax-ns#"
   xmlns:svg="http://www.w3.org/2000/svg"
   xmlns="http://www.w3.org/2000/svg"
   xmlns:xlink="http://www.w3.org/1999/xlink"
   xmlns:sodipodi="http://sodipodi.sourceforge.net/DTD/sodipodi-0.dtd"
   xmlns:inkscape="http://www.inkscape.org/namespaces/inkscape"
   width="48px"
   height="48px"
   viewBox="0 0 48 48"
   version="1.1"
   id="SVGRoot"
   inkscape:version="0.92.4 (5da689c313, 2019-01-14)"
   sodipodi:docname="citraa.svg"
   inkscape:export-filename="C:\Users\Admin\Documents\Rainmeter\Skins\Honeycomb-NG\@Resources\Images\openshot.png"
   inkscape:export-xdpi="512"
   inkscape:export-ydpi="512">
  <defs
     id="defs1995">
    <linearGradient
       gradientUnits="userSpaceOnUse"
       y2="50"
       x2="90"
       y1="20"
       x1="60"
       xlink:href="#WhiteTransparent-4"
       id="IcecapTip-6"
       gradientTransform="matrix(0.9965784,0,0,0.9962666,-89.841948,-62.996045)" />
    <linearGradient
       gradientUnits="userSpaceOnUse"
       id="WhiteTransparent-4">
      <stop
         id="stop7606-4"
         offset="0"
         style="stop-color:white;stop-opacity:1" />
      <stop
         id="stop7608-7"
         offset="1"
         style="stop-color:white;stop-opacity:0" />
    </linearGradient>
  </defs>
  <sodipodi:namedview
     id="base"
     pagecolor="#ffffff"
     bordercolor="#666666"
     borderopacity="1.0"
     inkscape:pageopacity="0.0"
     inkscape:pageshadow="2"
     inkscape:zoom="18.083334"
     inkscape:cx="15.539277"
     inkscape:cy="26.534138"
     inkscape:document-units="px"
     inkscape:current-layer="layer1"
     showgrid="true"
     inkscape:window-width="1920"
     inkscape:window-height="1017"
     inkscape:window-x="-8"
     inkscape:window-y="-8"
     inkscape:window-maximized="1"
     inkscape:grid-bbox="true"
     inkscape:snap-global="false">
    <inkscape:grid
       type="xygrid"
       id="grid2562" />
  </sodipodi:namedview>
  <metadata
     id="metadata1998">
    <rdf:RDF>
      <cc:Work
         rdf:about="">
        <dc:format>image/svg+xml</dc:format>
        <dc:type
           rdf:resource="http://purl.org/dc/dcmitype/StillImage" />
        <dc:title></dc:title>
      </cc:Work>
    </rdf:RDF>
  </metadata>
  <g
     inkscape:label="Layer 1"
     inkscape:groupmode="layer"
     id="layer1">
    <path
       style="fill:#ffffff;stroke-width:0.78273469;fill-opacity:1"
       d="m 28.859673,13.188026 c -2.874199,-0.09581 -7.109357,1.543332 -10.680048,4.292811 -2.575234,1.982964 -5.511879,6.020992 -5.246769,8.218715 0.67863,5.625733 10.270504,8.818749 16.327357,4.733098 5.776207,-3.89634 6.148183,-13.358117 1.944607,-16.547501 -0.58081,-0.440678 -1.38708,-0.665187 -2.345147,-0.697123 z m -2.068438,1.644967 c 0.365465,-0.01782 0.593464,0.04457 0.623742,0.191096 0.08375,0.405303 -3.641808,4.45194 -4.098656,4.451804 -0.232879,-7e-5 -0.243992,-0.08915 -0.178867,-1.365199 0.0383,-0.750631 0.15051,-1.532997 0.249191,-1.738222 0.242555,-0.504432 0.908835,-0.927635 1.956837,-1.245954 0.580449,-0.176306 1.082289,-0.275704 1.447753,-0.293525 z m 2.35432,0.07797 c 1.0247,-0.0353 1.906824,1.072656 1.161872,1.770326 -0.360373,0.337501 -5.596618,2.925927 -5.919431,2.926082 -0.126602,6.1e-5 -0.230846,-0.05432 -0.230846,-0.120773 0,-0.177337 2.766939,-3.151529 3.533008,-3.797487 0.361055,-0.304445 0.81683,-0.613728 1.012051,-0.68795 0.147901,-0.05624 0.29696,-0.08516 0.443346,-0.0902 z m 2.403239,0.903509 c 0.01418,-0.0117 0.06803,0.06358 0.17581,0.214028 0.375422,0.524057 0.954044,2.3007 1.120595,3.439752 0.422568,2.889961 -0.619371,6.17179 -2.650902,8.347132 -1.485062,1.590191 -3.254358,2.557133 -5.538765,3.026981 -0.919317,0.189082 -3.063799,0.260711 -3.721048,0.123833 -2.003747,-0.417305 -3.362796,-1.110583 -5.096947,-2.600454 -0.724515,-0.622454 -0.809742,-0.842216 -0.197214,-0.507554 0.346295,0.189203 0.727131,0.230707 2.005757,0.221673 1.365727,-0.0097 1.729378,-0.06047 2.696767,-0.383724 2.282914,-0.80887 3.241388,-1.269554 4.823296,-2.332917 4.43067,-2.955599 7.087728,-6.765486 6.445332,-9.241467 -0.05115,-0.197159 -0.07685,-0.295589 -0.06269,-0.307283 z m -9.313319,0.842356 c 0.08985,-9.39e-4 0.144114,0.0411 0.214029,0.125359 0.222145,0.267668 0.124247,2.843665 -0.119246,3.137054 -0.227517,0.274143 -1.445066,0.270316 -2.644786,-0.0077 -0.938035,-0.217304 -1.236138,-0.410664 -1.114479,-0.727699 0.169034,-0.440497 2.268208,-1.993873 3.237953,-2.395596 0.210426,-0.08718 0.336675,-0.13054 0.426529,-0.131474 z m 8.055134,0.817897 c 0.20862,-0.02291 0.398804,0.0483 0.486153,0.183452 0.324184,0.501609 -0.699967,2.489787 -1.620505,3.146227 -0.420458,0.29983 -1.268885,0.386373 -2.433816,0.246133 -1.850958,-0.222825 -2.581784,-0.406823 -2.539302,-0.637501 0.0657,-0.356704 5.232132,-2.842194 6.10747,-2.938311 z m -12.156848,2.822124 c 0.666267,-0.05483 2.935316,0.256897 3.10495,0.426529 0.184404,0.184405 -0.256454,0.547815 -1.300991,1.074732 -1.72164,0.868484 -3.868978,1.755038 -4.251533,1.755037 -0.31057,0 -0.338498,-0.03677 -0.264479,-0.360791 0.129194,-0.565533 0.843474,-1.688052 1.456927,-2.29011 0.483998,-0.475008 0.651393,-0.55571 1.255126,-0.605397 z m 6.058551,0.900451 c 1.302699,0.06548 3.411266,0.576251 3.569698,0.98912 0.165994,0.432574 -1.874642,2.211292 -3.435166,2.994877 -0.874198,0.438961 -1.191218,0.441154 -1.356026,0.0077 -0.160311,-0.421647 -0.162313,-2.578955 -0.0031,-3.265471 0.06539,-0.281873 0.196335,-0.563089 0.291996,-0.623742 0.153142,-0.0971 0.498321,-0.124257 0.932556,-0.102428 z m -3.026983,0.496853 c 0.08885,0.0059 0.106698,0.05805 0.07644,0.148292 -0.102092,0.304496 -2.631266,3.011849 -3.644609,3.901443 -1.242218,1.09052 -1.597175,1.191317 -2.169337,0.619155 -0.27106,-0.27106 -0.345503,-0.473745 -0.345503,-0.932555 0,-0.818601 0.38138,-1.135842 2.805308,-2.322215 2.111319,-1.033369 3.011153,-1.431752 3.277702,-1.41412 z m 0.9402,0.192626 c 0.224126,0.03983 0.223294,0.520064 0.169694,1.38966 -0.1113,1.80574 -0.303036,2.573271 -0.758274,3.028511 -0.661098,0.661099 -3.034549,1.250428 -3.771497,0.935612 -0.162774,-0.06953 -0.296584,-0.208821 -0.296584,-0.308813 0,-0.282375 0.621903,-1.060596 2.319158,-2.906209 1.390873,-1.51245 2.049341,-2.189976 2.337503,-2.138761 z"
       id="path839"
       inkscape:connector-curvature="0" />
  </g>
</svg>
