<?xml version="1.0" encoding="UTF-8" standalone="no"?>
<!-- Created with Inkscape (http://www.inkscape.org/) -->

<svg
   xmlns:dc="http://purl.org/dc/elements/1.1/"
   xmlns:cc="http://creativecommons.org/ns#"
   xmlns:rdf="http://www.w3.org/1999/02/22-rdf-syntax-ns#"
   xmlns:svg="http://www.w3.org/2000/svg"
   xmlns="http://www.w3.org/2000/svg"
   xmlns:xlink="http://www.w3.org/1999/xlink"
   xmlns:sodipodi="http://sodipodi.sourceforge.net/DTD/sodipodi-0.dtd"
   xmlns:inkscape="http://www.inkscape.org/namespaces/inkscape"
   width="48px"
   height="48px"
   viewBox="0 0 48 48"
   version="1.1"
   id="SVGRoot"
   inkscape:version="0.92.4 (5da689c313, 2019-01-14)"
   sodipodi:docname="cult-of-the-lamba.svg">
  <defs
     id="defs1995">
    <linearGradient
       gradientUnits="userSpaceOnUse"
       y2="50"
       x2="90"
       y1="20"
       x1="60"
       xlink:href="#WhiteTransparent-4"
       id="IcecapTip-6"
       gradientTransform="matrix(0.9965784,0,0,0.9962666,-89.841948,-62.996045)" />
    <linearGradient
       gradientUnits="userSpaceOnUse"
       id="WhiteTransparent-4">
      <stop
         id="stop7606-4"
         offset="0"
         style="stop-color:white;stop-opacity:1" />
      <stop
         id="stop7608-7"
         offset="1"
         style="stop-color:white;stop-opacity:0" />
    </linearGradient>
  </defs>
  <sodipodi:namedview
     id="base"
     pagecolor="#ffffff"
     bordercolor="#666666"
     borderopacity="1.0"
     inkscape:pageopacity="0.0"
     inkscape:pageshadow="2"
     inkscape:zoom="25.573696"
     inkscape:cx="24.177302"
     inkscape:cy="25.208314"
     inkscape:document-units="px"
     inkscape:current-layer="layer1"
     showgrid="true"
     inkscape:window-width="1920"
     inkscape:window-height="1017"
     inkscape:window-x="-8"
     inkscape:window-y="-8"
     inkscape:window-maximized="1"
     inkscape:grid-bbox="true"
     showguides="true"
     inkscape:guide-bbox="true">
    <inkscape:grid
       type="xygrid"
       id="grid2562" />
  </sodipodi:namedview>
  <metadata
     id="metadata1998">
    <rdf:RDF>
      <cc:Work
         rdf:about="">
        <dc:format>image/svg+xml</dc:format>
        <dc:type
           rdf:resource="http://purl.org/dc/dcmitype/StillImage" />
        <dc:title></dc:title>
      </cc:Work>
    </rdf:RDF>
  </metadata>
  <g
     inkscape:label="Layer 1"
     inkscape:groupmode="layer"
     id="layer1">
    <path
       style="fill:#ffffff"
       d="M 17 13 L 17 33 L 31 33 L 31 13 C 31 13 26 16 24 21 C 22 16 17 13 17 13 z M 24 24 C 27 24 29 27 29 27 C 29 27 27 30 24 30 C 21 30 19 27 19 27 C 19 27 21 24 24 24 z "
       id="path824" />
    <path
       style="fill:#ffffff"
       d="m 24,25 c 0,0 -1,1 -1,2 0,1 1,2 1,2 0,0 1,-1 1,-2 0,-1 -1,-2 -1,-2 z"
       id="path828"
       inkscape:connector-curvature="0"
       sodipodi:nodetypes="czczc" />
  </g>
</svg>
