<?xml version="1.0" encoding="UTF-8" standalone="no"?>
<!-- Created with Inkscape (http://www.inkscape.org/) -->

<svg
   xmlns:dc="http://purl.org/dc/elements/1.1/"
   xmlns:cc="http://creativecommons.org/ns#"
   xmlns:rdf="http://www.w3.org/1999/02/22-rdf-syntax-ns#"
   xmlns:svg="http://www.w3.org/2000/svg"
   xmlns="http://www.w3.org/2000/svg"
   xmlns:xlink="http://www.w3.org/1999/xlink"
   xmlns:sodipodi="http://sodipodi.sourceforge.net/DTD/sodipodi-0.dtd"
   xmlns:inkscape="http://www.inkscape.org/namespaces/inkscape"
   width="48px"
   height="48px"
   viewBox="0 0 48 48"
   version="1.1"
   id="SVGRoot"
   inkscape:version="0.92.4 (5da689c313, 2019-01-14)"
   sodipodi:docname="dosbox-staginga.svg">
  <defs
     id="defs1995">
    <linearGradient
       gradientUnits="userSpaceOnUse"
       y2="50"
       x2="90"
       y1="20"
       x1="60"
       xlink:href="#WhiteTransparent-4"
       id="IcecapTip-6"
       gradientTransform="matrix(0.9965784,0,0,0.9962666,-89.841948,-62.996045)" />
    <linearGradient
       gradientUnits="userSpaceOnUse"
       id="WhiteTransparent-4">
      <stop
         id="stop7606-4"
         offset="0"
         style="stop-color:white;stop-opacity:1" />
      <stop
         id="stop7608-7"
         offset="1"
         style="stop-color:white;stop-opacity:0" />
    </linearGradient>
  </defs>
  <sodipodi:namedview
     id="base"
     pagecolor="#ffffff"
     bordercolor="#666666"
     borderopacity="1.0"
     inkscape:pageopacity="0.0"
     inkscape:pageshadow="2"
     inkscape:zoom="12.786848"
     inkscape:cx="11.809027"
     inkscape:cy="26.796034"
     inkscape:document-units="px"
     inkscape:current-layer="layer1"
     showgrid="true"
     inkscape:window-width="1920"
     inkscape:window-height="1017"
     inkscape:window-x="-8"
     inkscape:window-y="-8"
     inkscape:window-maximized="1"
     inkscape:grid-bbox="true"
     showguides="true"
     inkscape:guide-bbox="true">
    <inkscape:grid
       type="xygrid"
       id="grid2562" />
  </sodipodi:namedview>
  <metadata
     id="metadata1998">
    <rdf:RDF>
      <cc:Work
         rdf:about="">
        <dc:format>image/svg+xml</dc:format>
        <dc:type
           rdf:resource="http://purl.org/dc/dcmitype/StillImage" />
        <dc:title></dc:title>
      </cc:Work>
    </rdf:RDF>
  </metadata>
  <g
     inkscape:label="Layer 1"
     inkscape:groupmode="layer"
     id="layer1">
    <path
       style="fill:#bf616a;stroke:none;stroke-width:1px;stroke-linecap:butt;stroke-linejoin:miter;stroke-opacity:1"
       d="m 18,11.859375 -4,1.441406 V 17 l 4,-1 z"
       id="path834"
       inkscape:connector-curvature="0"
       sodipodi:nodetypes="ccccc" />
    <path
       style="fill:#a3be8c;stroke:none;stroke-width:1px;stroke-linecap:butt;stroke-linejoin:miter;stroke-opacity:1"
       d="m 14,18 v 4 h 4 v -5 z"
       id="path832"
       inkscape:connector-curvature="0"
       sodipodi:nodetypes="ccccc" />
    <path
       style="fill:#ebcb8b;stroke:none;stroke-width:1px;stroke-linecap:butt;stroke-linejoin:miter;stroke-opacity:1"
       d="m 14,23 v 4 l 4,1 v -5 z"
       id="path830"
       inkscape:connector-curvature="0"
       sodipodi:nodetypes="ccccc" />
    <path
       style="fill:#81a1c1;stroke:none;stroke-width:1px;stroke-linecap:butt;stroke-linejoin:miter;stroke-opacity:1"
       d="m 14,28 v 3.900391 l 4,1.679687 V 29 Z"
       id="path837"
       inkscape:connector-curvature="0"
       sodipodi:nodetypes="ccccc" />
    <path
       style="fill:#eceff4"
       d="M 19 11.5 L 19 34 L 34 31.5 L 34 14 L 19 11.5 z M 20.457031 12.876953 C 20.488831 12.876953 21.077029 12.975274 21.763672 13.095703 C 23.211758 13.349688 23.618918 13.517147 24.130859 14.064453 C 24.549905 14.512448 24.804384 15.041692 24.908203 15.6875 C 25.006413 16.29845 25.006023 19.625799 24.908203 20.310547 C 24.775855 21.237332 24.389625 21.80021 23.677734 22.097656 C 23.475105 22.182318 23.04151 22.219928 21.994141 22.242188 C 21.21859 22.258668 20.543048 22.252126 20.492188 22.228516 C 20.419647 22.194836 20.398438 21.182423 20.398438 17.53125 C 20.398438 14.97142 20.425231 12.876953 20.457031 12.876953 z M 27.072266 13.914062 C 28.152127 13.915762 28.911678 14.607787 29.169922 15.826172 C 29.322617 16.54656 29.319509 20.397091 29.166016 20.914062 C 29.020926 21.402635 28.708352 21.857765 28.347656 22.105469 C 28.10257 22.273779 27.967776 22.310039 27.501953 22.324219 C 27.196808 22.333519 26.855456 22.310891 26.744141 22.275391 C 26.143647 22.083884 25.752281 21.642343 25.527344 20.902344 C 25.408468 20.511254 25.392578 20.168577 25.392578 18.017578 C 25.392578 15.340832 25.428787 15.02672 25.804688 14.507812 C 26.102553 14.09662 26.495594 13.913168 27.072266 13.914062 z M 31.164062 14.578125 C 31.519942 14.578125 32.171952 14.798724 32.447266 15.011719 L 32.621094 15.146484 L 32.453125 15.669922 L 32.283203 16.195312 L 31.929688 16.015625 C 31.5593 15.827936 31.13791 15.785131 30.904297 15.910156 C 30.828857 15.950526 30.729544 16.097104 30.683594 16.236328 C 30.549022 16.644086 30.716615 16.923417 31.431641 17.484375 C 32.695921 18.476243 33.053055 19.031899 33.109375 20.099609 C 33.163715 21.129834 32.785383 21.904574 32.064453 22.240234 C 31.555397 22.47725 31.189767 22.468166 30.644531 22.207031 C 30.400415 22.090115 30.111659 21.898246 30.001953 21.78125 C 29.760863 21.524136 29.533443 21.014315 29.470703 20.591797 C 29.425273 20.285841 29.427212 20.280711 29.664062 20.244141 C 30.394715 20.131318 30.381304 20.127259 30.464844 20.4375 C 30.573418 20.840711 30.880764 21.157528 31.216797 21.210938 C 31.820069 21.306827 32.162109 20.931335 32.162109 20.169922 C 32.162109 19.55205 31.811114 19.070304 30.941406 18.498047 C 30.046002 17.908883 29.716589 17.390975 29.662109 16.482422 C 29.619199 15.766773 29.756324 15.361757 30.171875 14.986328 C 30.529117 14.663585 30.73669 14.578125 31.164062 14.578125 z M 21.730469 14.652344 L 21.730469 17.804688 L 21.730469 20.957031 L 22.503906 20.927734 C 23.14189 20.904114 23.314085 20.872482 23.484375 20.746094 C 23.855752 20.470471 23.888599 20.219946 23.855469 17.943359 C 23.822419 15.672446 23.789089 15.45706 23.392578 15.060547 C 23.117704 14.785673 22.711329 14.652344 22.148438 14.652344 L 21.730469 14.652344 z M 27.400391 15.324219 C 27.30275 15.311478 27.204029 15.316676 27.107422 15.339844 C 26.978612 15.370733 26.854604 15.434543 26.744141 15.533203 L 26.501953 15.75 L 26.482422 18.03125 C 26.459902 20.597913 26.477774 20.706866 26.982422 20.958984 C 27.296455 21.115862 27.430781 21.119061 27.757812 20.982422 C 28.252994 20.775521 28.277344 20.645421 28.277344 18.277344 C 28.277344 16.347034 28.264804 16.144797 28.134766 15.882812 C 27.973617 15.558155 27.693314 15.362441 27.400391 15.324219 z M 27.355469 23.533203 C 27.606198 23.529443 27.84302 23.550319 27.972656 23.599609 C 28.253292 23.706307 28.7484 24.184753 28.929688 24.523438 C 29.086196 24.815884 29.091797 24.89495 29.091797 27.375 L 29.091797 29.927734 L 28.884766 30.371094 C 28.624399 30.928199 28.307602 31.26595 27.833984 31.490234 C 27.397206 31.697068 26.720352 31.723154 26.318359 31.548828 C 25.980531 31.402326 25.748803 31.180731 25.552734 30.816406 C 25.398278 30.529394 25.392578 30.441762 25.392578 27.894531 C 25.392578 25.569893 25.408891 25.217486 25.527344 24.833984 C 25.692391 24.299626 26.197654 23.755908 26.658203 23.619141 C 26.839928 23.565171 27.10474 23.537003 27.355469 23.533203 z M 32.6875 23.570312 C 32.71168 23.546133 32.800153 23.552604 32.882812 23.583984 C 33.024268 23.637704 32.985437 23.744718 32.232422 25.404297 L 31.431641 27.166016 L 32.208984 28.833984 C 32.703931 29.897619 32.959263 30.529019 32.914062 30.574219 C 32.71371 30.774572 32.56356 30.564395 31.925781 29.1875 C 31.567739 28.414521 31.264583 27.752997 31.251953 27.716797 C 31.239333 27.680597 30.851936 28.451353 30.390625 29.429688 C 29.604926 31.095968 29.539408 31.210654 29.337891 31.240234 C 29.201283 31.260284 29.135683 31.242256 29.158203 31.191406 C 29.177703 31.147336 29.577668 30.282314 30.048828 29.269531 C 30.519989 28.256748 30.925116 27.355828 30.947266 27.267578 C 30.974066 27.160804 30.728295 26.528803 30.212891 25.375 C 29.449625 23.66633 29.402114 23.493847 29.742188 23.625 C 29.790668 23.6437 30.144703 24.345951 30.527344 25.185547 L 31.222656 26.710938 L 31.933594 25.162109 C 32.324419 24.310217 32.66332 23.594483 32.6875 23.570312 z M 20.398438 23.814453 L 21.896484 23.837891 L 23.394531 23.861328 L 23.802734 24.091797 C 24.085752 24.251629 24.277268 24.429939 24.431641 24.677734 C 24.641784 25.015054 24.652344 25.075401 24.652344 25.816406 C 24.652344 26.577292 24.645418 26.612537 24.384766 27.083984 L 24.117188 27.568359 L 24.412109 27.818359 C 24.821204 28.161815 24.998379 28.598836 25.042969 29.380859 C 25.124419 30.809407 24.461473 31.860049 23.25 32.226562 C 22.958167 32.314853 20.713869 32.695972 20.455078 32.701172 C 20.424558 32.701764 20.398436 30.701974 20.398438 28.257812 L 20.398438 23.814453 z M 27.345703 24.011719 C 26.77506 24.011719 26.28886 24.310617 26.025391 24.822266 L 25.835938 25.189453 L 25.814453 27.738281 C 25.791093 30.424443 25.803514 30.544034 26.130859 30.851562 C 26.500715 31.199026 27.315499 31.289541 27.796875 31.037109 C 28.043588 30.907734 28.413309 30.508324 28.583984 30.1875 C 28.710053 29.950521 28.720703 29.727214 28.720703 27.560547 L 28.720703 25.193359 L 28.513672 24.771484 C 28.244 24.222331 27.921157 24.011719 27.345703 24.011719 z M 22.201172 25.185547 C 22.097281 25.180777 22.003564 25.184439 21.933594 25.199219 L 21.730469 25.242188 L 21.730469 26.320312 L 21.730469 27.396484 L 22.142578 27.347656 C 22.369353 27.321006 22.668132 27.251229 22.806641 27.193359 C 23.437416 26.929804 23.625311 25.753869 23.091797 25.404297 C 22.92183 25.29293 22.512845 25.199837 22.201172 25.185547 z M 21.730469 28.707031 L 21.730469 30.001953 C 21.730469 30.713959 21.749424 31.296875 21.771484 31.296875 C 21.793544 31.296875 22.067257 31.243738 22.380859 31.179688 C 23.431186 30.965154 23.765572 30.635219 23.763672 29.816406 C 23.761572 28.889969 23.547311 28.707451 22.453125 28.707031 L 21.730469 28.707031 z "
       id="path835" />
  </g>
</svg>
