<?xml version="1.0" encoding="UTF-8" standalone="no"?>
<!-- Created with Inkscape (http://www.inkscape.org/) -->

<svg
   xmlns:dc="http://purl.org/dc/elements/1.1/"
   xmlns:cc="http://creativecommons.org/ns#"
   xmlns:rdf="http://www.w3.org/1999/02/22-rdf-syntax-ns#"
   xmlns:svg="http://www.w3.org/2000/svg"
   xmlns="http://www.w3.org/2000/svg"
   xmlns:sodipodi="http://sodipodi.sourceforge.net/DTD/sodipodi-0.dtd"
   xmlns:inkscape="http://www.inkscape.org/namespaces/inkscape"
   width="48px"
   height="48px"
   viewBox="0 0 48 48"
   version="1.1"
   id="SVGRoot"
   inkscape:version="0.92.4 (5da689c313, 2019-01-14)"
   sodipodi:docname="epic-games-launchera.svg"
   inkscape:export-filename="C:\Users\Admin\Documents\Rainmeter\Skins\Honeycomb-NG\@Resources\Images\openshot.png"
   inkscape:export-xdpi="512"
   inkscape:export-ydpi="512">
  <defs
     id="defs1995" />
  <sodipodi:namedview
     id="base"
     pagecolor="#ffffff"
     bordercolor="#666666"
     borderopacity="1.0"
     inkscape:pageopacity="0.0"
     inkscape:pageshadow="2"
     inkscape:zoom="15.575888"
     inkscape:cx="22.458055"
     inkscape:cy="21.579984"
     inkscape:document-units="px"
     inkscape:current-layer="layer1"
     showgrid="true"
     inkscape:window-width="1920"
     inkscape:window-height="1017"
     inkscape:window-x="-8"
     inkscape:window-y="-8"
     inkscape:window-maximized="1"
     inkscape:grid-bbox="true"
     inkscape:snap-global="true">
    <inkscape:grid
       type="xygrid"
       id="grid2562" />
  </sodipodi:namedview>
  <metadata
     id="metadata1998">
    <rdf:RDF>
      <cc:Work
         rdf:about="">
        <dc:format>image/svg+xml</dc:format>
        <dc:type
           rdf:resource="http://purl.org/dc/dcmitype/StillImage" />
        <dc:title></dc:title>
      </cc:Work>
    </rdf:RDF>
  </metadata>
  <g
     inkscape:label="Layer 1"
     inkscape:groupmode="layer"
     id="layer1">
    <path
       style="fill:#ffffff;stroke:none;stroke-width:0.14383152px;stroke-linecap:butt;stroke-linejoin:miter;stroke-opacity:1"
       d="m 18,39 6,3 6,-3 z"
       id="path828"
       inkscape:connector-curvature="0"
       sodipodi:nodetypes="cccc" />
    <path
       style="fill:#ffffff;stroke:none;stroke-width:0.14383152px;stroke-linecap:butt;stroke-linejoin:miter;stroke-opacity:1"
       d="m 18.267567,13.008436 v 1.793292 h -2.479614 v 3.630863 h 2.368916 v 1.771153 h -2.302498 v 3.830117 h 2.413196 v 1.859711 H 13.773266 V 13.030575 Z"
       id="path830"
       inkscape:connector-curvature="0" />
    <path
       style="opacity:1;fill:#ffffff;stroke:none;stroke-width:0.14383152px;stroke-linecap:butt;stroke-linejoin:miter;stroke-opacity:1"
       d="m 19.197421,13.030603 v 12.79651 l 1.925994,0.04439 v -4.649242 h 1.328475 c 0.893929,0 2.125448,-0.518227 2.125448,-2.192026 v -3.852268 c 0,-2.110051 -1.992572,-2.14736 -1.992572,-2.14736 z m 2.844324,1.754913 c 0,0 0.677301,0.0063 0.677301,0.677019 v 3.389312 c 0,0.6585 -0.681234,0.680952 -0.681234,0.680952 h -0.923387 v -4.74335 z"
       id="path832"
       inkscape:connector-curvature="0" />
    <rect
       style="opacity:1;vector-effect:none;fill:#ffffff;fill-opacity:1;fill-rule:evenodd;stroke:none;stroke-width:2.18401623;stroke-linecap:round;stroke-linejoin:round;stroke-miterlimit:4;stroke-dasharray:none;stroke-opacity:1;paint-order:stroke fill markers"
       id="rect837"
       width="2.0664501"
       height="12.83704"
       x="25.450716"
       y="13.020344" />
    <path
       style="fill:#ffffff;stroke:none;stroke-width:0.14383152px;stroke-linecap:butt;stroke-linejoin:miter;stroke-opacity:1"
       d="m 32.171115,20.535835 h 2.036826 v 3.431608 c 0,0 -0.303535,1.992547 -1.992547,1.992547 h -1.549758 c -2.148178,0 -2.136453,-2.136453 -2.136453,-2.136453 v -8.800415 c 0,0 0.01641,-2.108779 2.108778,-2.108779 0.429874,0 0.859747,0 1.289621,0 2.211199,0 2.17243,2.17243 2.17243,2.17243 v 2.814472 h -1.906757 v -2.61245 c 0,0 -0.01879,-0.642043 -0.509207,-0.642043 -0.228774,0 -0.457547,0 -0.686321,0 -0.526189,0 -0.575625,0.619903 -0.575625,0.619903 v 8.258 c 0,0 0.02032,0.664182 0.575625,0.664182 h 0.531346 c 0.737483,0 0.642042,-0.708461 0.642042,-0.708461 z"
       id="path839"
       inkscape:connector-curvature="0"
       sodipodi:nodetypes="cccssccssccccssccsscc" />
    <path
       style="fill:#ffffff;stroke:none;stroke-width:0.14383152px;stroke-linecap:butt;stroke-linejoin:miter;stroke-opacity:1"
       d="m 15.787953,30.520708 v 0.819158 h 0.819158 v 0.553486 c 0,0 -0.276863,0.154976 -0.708461,0.154976 -0.495767,0 -1.023763,-0.56721 -1.040553,-1.062692 -0.02937,-0.866805 0.563244,-1.217668 1.040553,-1.217668 0.535361,0 0.929855,0.39851 0.929855,0.39851 l 0.686322,-0.819158 c 0,0 -0.437695,-0.464928 -1.682595,-0.464928 -1.140323,0 -2.014687,1.064954 -2.014687,2.014686 0,1.166093 1.025764,2.036826 1.970408,2.036826 1.181151,0 1.771152,-0.664182 1.771152,-0.664182 v -1.771153 z"
       id="path841"
       inkscape:connector-curvature="0"
       sodipodi:nodetypes="ccccsssccsssccc" />
    <path
       style="fill:#ffffff;stroke:none;stroke-width:0.14383152px;stroke-linecap:butt;stroke-linejoin:miter;stroke-opacity:1"
       d="m 19.640152,28.860217 -1.726821,3.940759 h 1.129021 l 0.284573,-0.708483 h 1.495904 l 0.278674,0.708483 h 1.106828 l -1.660523,-3.940759 z m 0.442732,1.350668 0.409301,1.040531 h -0.827312 z"
       id="path843"
       inkscape:connector-curvature="0" />
    <path
       style="fill:#ffffff;stroke:none;stroke-width:0.14383152px;stroke-linecap:butt;stroke-linejoin:miter;stroke-opacity:1"
       d="m 22.65117,32.801067 v -3.896536 h 1.084831 l 0.951994,1.594038 0.951995,-1.571898 h 1.084831 v 3.918675 H 25.63999 v -2.213941 l -0.996274,1.461201 -0.951994,-1.461201 v 2.191802 z"
       id="path848"
       inkscape:connector-curvature="0"
       sodipodi:nodetypes="ccccccccccccc" />
    <path
       style="fill:#ffffff;stroke:none;stroke-width:0.14383152px;stroke-linecap:butt;stroke-linejoin:miter;stroke-opacity:1"
       d="m 27.455421,28.904531 v 3.896536 h 3.099518 v -0.951994 h -2.081105 v -0.531346 h 1.88185 v -0.907716 h -1.88185 v -0.575624 h 2.081105 v -0.929856 z"
       id="path850"
       inkscape:connector-curvature="0"
       sodipodi:nodetypes="ccccccccccccc" />
    <path
       style="fill:#ffffff;stroke:none;stroke-width:0.14383152px;stroke-linecap:butt;stroke-linejoin:miter;stroke-opacity:1"
       d="m 33.588038,30.10006 0.531345,-0.77488 c 0,0 -0.819466,-0.464927 -1.48334,-0.464927 -0.964384,0 -1.551185,0.607831 -1.571898,1.284085 -0.02173,0.709377 0.643479,1.030609 1.173389,1.084831 0.571502,0.05848 0.992672,0.224828 0.996273,0.509207 0.003,0.234399 -0.38567,0.322787 -0.619903,0.332091 -0.386344,0.01535 -1.062692,-0.464928 -1.062692,-0.464928 l -0.619904,0.664183 c 0,0 0.726594,0.642042 1.704735,0.642042 0.865181,0 1.603581,-0.421259 1.616177,-1.284085 0.0074,-0.506794 -0.409178,-0.963935 -1.018413,-1.12911 -0.366662,-0.09941 -1.026076,-0.0853 -1.040552,-0.464928 -0.0077,-0.201283 0.192988,-0.300073 0.531346,-0.287812 0.389049,0.0141 0.863437,0.354231 0.863437,0.354231 z"
       id="path852"
       inkscape:connector-curvature="0"
       sodipodi:nodetypes="ccsssssccsssssc" />
  </g>
</svg>
