<?xml version="1.0" encoding="UTF-8" standalone="no"?>
<!-- Created with Inkscape (http://www.inkscape.org/) -->

<svg
   xmlns:dc="http://purl.org/dc/elements/1.1/"
   xmlns:cc="http://creativecommons.org/ns#"
   xmlns:rdf="http://www.w3.org/1999/02/22-rdf-syntax-ns#"
   xmlns:svg="http://www.w3.org/2000/svg"
   xmlns="http://www.w3.org/2000/svg"
   xmlns:sodipodi="http://sodipodi.sourceforge.net/DTD/sodipodi-0.dtd"
   xmlns:inkscape="http://www.inkscape.org/namespaces/inkscape"
   width="48px"
   height="48px"
   viewBox="0 0 48 48"
   version="1.1"
   id="SVGRoot"
   inkscape:version="0.92.4 (5da689c313, 2019-01-14)"
   sodipodi:docname="fairy-taila.svg"
   inkscape:export-filename="C:\Users\Admin\Documents\Rainmeter\Skins\Honeycomb-NG\@Resources\Images\openshot.png"
   inkscape:export-xdpi="512"
   inkscape:export-ydpi="512">
  <defs
     id="defs1995" />
  <sodipodi:namedview
     id="base"
     pagecolor="#ffffff"
     bordercolor="#666666"
     borderopacity="1.0"
     inkscape:pageopacity="0.0"
     inkscape:pageshadow="2"
     inkscape:zoom="22.027632"
     inkscape:cx="3.7279292"
     inkscape:cy="17.931182"
     inkscape:document-units="px"
     inkscape:current-layer="layer1"
     showgrid="true"
     inkscape:window-width="1920"
     inkscape:window-height="1017"
     inkscape:window-x="-8"
     inkscape:window-y="-8"
     inkscape:window-maximized="1"
     inkscape:grid-bbox="true"
     inkscape:snap-global="false">
    <inkscape:grid
       type="xygrid"
       id="grid2562" />
  </sodipodi:namedview>
  <metadata
     id="metadata1998">
    <rdf:RDF>
      <cc:Work
         rdf:about="">
        <dc:format>image/svg+xml</dc:format>
        <dc:type
           rdf:resource="http://purl.org/dc/dcmitype/StillImage" />
        <dc:title></dc:title>
      </cc:Work>
    </rdf:RDF>
  </metadata>
  <g
     inkscape:label="Layer 1"
     inkscape:groupmode="layer"
     id="layer1">
    <path
       style="fill:#ffffff;fill-opacity:1;stroke-width:0.0204908"
       d="m 15.013492,33.957477 c 0.05245,-0.170675 0.543264,-1.185353 0.861341,-1.78068 0.676715,-1.266562 1.321087,-2.342895 1.793881,-2.996417 0.225244,-0.311345 0.471873,-0.614399 0.487384,-0.598888 0.0069,0.0069 0.0098,0.134102 0.0063,0.282536 -0.009,0.373545 0.07202,1.740363 0.109713,1.853362 0.01056,0.03166 0.101714,-0.01238 0.511608,-0.247103 0.906169,-0.518925 1.750745,-1.051211 3.063375,-1.930663 2.114191,-1.41649 2.571845,-1.726124 2.577325,-1.743739 0.0032,-0.01012 -0.08446,-0.02909 -0.194663,-0.04214 -1.036661,-0.122733 -2.038825,-0.627141 -2.570067,-1.293564 -0.223239,-0.280046 -0.350191,-0.533456 -0.428208,-0.854735 -0.0513,-0.211254 -0.05599,-0.730897 -0.0088,-0.956605 0.04363,-0.20799 0.162949,-0.549806 0.257809,-0.738554 0.04377,-0.0871 0.07958,-0.163671 0.07958,-0.170177 0,-0.03196 -0.430858,-0.194762 -0.645459,-0.243899 -0.774953,-0.177437 -1.46102,2.38e-4 -2.225981,0.576476 -0.253614,0.191046 -0.619602,0.542337 -1.018691,0.97779 -0.550688,0.600863 -0.622793,0.677913 -0.634418,0.677913 -0.03111,0 -0.227099,-0.892207 -0.299351,-1.362638 -0.09881,-0.643401 -0.119592,-0.95685 -0.108639,-1.639264 0.0078,-0.489057 0.01912,-0.683039 0.05176,-0.891996 0.205173,-1.312605 0.644885,-2.15351 1.544155,-2.953042 0.653747,-0.581239 1.423081,-1.018665 2.445262,-1.390319 0.368937,-0.134143 0.50357,-0.17335 1.229447,-0.358041 0.923033,-0.234853 1.30986,-0.379299 1.642339,-0.613273 0.289156,-0.203485 0.461159,-0.391877 0.632896,-0.693197 l 0.08943,-0.156927 0.023,0.06034 c 0.0451,0.118308 0.123188,0.473275 0.145712,0.662342 0.01289,0.108185 0.01851,0.33659 0.01285,0.522515 -0.01552,0.51074 -0.120477,0.917695 -0.366494,1.421065 -0.26955,0.551528 -0.703431,1.099223 -1.171893,1.479307 -0.07535,0.06114 -0.136996,0.11944 -0.136996,0.129571 0,0.03576 0.457012,-0.222143 0.650812,-0.367263 0.935867,-0.700782 1.485482,-1.821954 1.680749,-3.428594 l 0.03611,-0.29709 0.0959,0.153857 c 0.174476,0.279934 0.303582,0.613072 0.385058,0.993576 0.0626,0.29234 0.07893,0.982533 0.03176,1.342146 -0.08982,0.684746 -0.292771,1.323079 -0.639165,2.010303 -0.26852,0.532728 -0.56676,0.962075 -0.927214,1.334821 -0.106259,0.109882 -0.180278,0.19978 -0.16449,0.19977 0.03737,-1.8e-5 0.342166,-0.181591 0.488313,-0.290894 0.300737,-0.224915 0.6484,-0.645204 0.869586,-1.051238 0.303974,-0.558006 0.484483,-1.084711 0.842705,-2.458896 0.309887,-1.188769 0.463856,-1.658138 0.705782,-2.151535 0.177021,-0.361027 0.353071,-0.623855 0.572601,-0.854848 0.212825,-0.223939 0.385889,-0.355717 0.638517,-0.486198 0.297178,-0.153488 0.746506,-0.286748 0.969917,-0.28765 l 0.07945,-3.23e-4 -0.0096,0.09993 c -0.01119,0.11632 -0.09011,0.24108 -0.397035,0.62749 -0.448202,0.564288 -0.461743,0.624155 -0.468105,2.069572 -0.0042,0.956176 -0.007,1.0231 -0.05838,1.403619 -0.175866,1.302168 -0.465823,2.314647 -0.927179,3.237545 -0.32827,0.656673 -0.633611,1.094531 -1.082409,1.552179 -0.124335,0.126787 -0.216975,0.230522 -0.205865,0.230522 0.03558,0 0.350986,-0.19064 0.525468,-0.317607 0.233287,-0.169763 0.61346,-0.552133 0.80231,-0.806948 0.378835,-0.511162 0.716812,-1.221892 0.941466,-1.979801 0.260505,-0.878864 0.395919,-1.573381 0.515377,-2.643313 0.08155,-0.730394 0.129996,-1.101102 0.186111,-1.424112 0.193601,-1.114406 0.54815,-1.743614 1.153938,-2.04786 0.190718,-0.09579 0.39226,-0.15358 0.688694,-0.197491 0.217762,-0.03224 0.606019,-0.03441 0.636891,-0.0035 0.02634,0.02634 0.01194,0.240555 -0.02339,0.348263 -0.01944,0.05923 -0.09435,0.225916 -0.166492,0.370415 -0.262978,0.526767 -0.344395,0.887372 -0.498163,2.206416 -0.298878,2.563808 -0.556226,3.898702 -0.997458,5.173926 -0.468745,1.354738 -1.154544,2.36542 -2.009634,2.961654 -0.199475,0.139088 -0.192421,0.140447 0.240767,0.04642 1.303928,-0.283045 2.494222,-1.147042 3.353679,-2.434327 0.475363,-0.711993 0.831899,-1.512022 1.041022,-2.335951 0.151672,-0.59757 0.182459,-0.829239 0.183814,-1.383129 0.0014,-0.520428 -0.012,-0.631995 -0.113423,-0.952989 -0.09064,-0.286874 -0.260272,-0.542839 -0.359751,-0.542839 -0.101224,0 -0.281639,0.08809 -0.378224,0.184675 -0.163948,0.163947 -0.252293,0.377248 -0.367134,0.886414 -0.0484,0.214609 -0.07464,0.296317 -0.09014,0.280803 -0.03265,-0.03266 -0.02917,-1.44719 0.0042,-1.720728 0.08658,-0.709119 0.185192,-1.196352 0.332931,-1.644892 0.151221,-0.45911 0.350594,-0.84873 0.545009,-1.065075 l 0.0691,-0.0769 1.85e-4,0.312543 c 2.97e-4,0.52883 0.04502,0.905504 0.164855,1.38831 0.0814,0.327991 0.203141,0.673372 0.476674,1.352393 0.453363,1.125444 0.536482,1.506086 0.561556,2.571596 0.02515,1.068567 -0.1707,2.138484 -0.556385,3.039582 -0.357752,0.835831 -0.834355,1.52482 -1.547605,2.23725 -0.512127,0.51154 -1.002819,0.911134 -1.691356,1.377351 -0.644089,0.436123 -0.998523,0.647647 -2.756013,1.644777 -0.670561,0.38045 -1.864662,1.058104 -2.653559,1.505899 -0.788894,0.447794 -2.024491,1.148285 -2.745765,1.556648 -0.721277,0.408362 -1.412842,0.800146 -1.536811,0.870632 -0.660835,0.375727 -0.931555,0.52917 -1.926137,1.091723 -1.939401,1.096961 -2.878814,1.625409 -2.912317,1.638264 -0.02668,0.01023 -0.03001,0.0034 -0.01773,-0.0366 z"
       id="path828"
       inkscape:connector-curvature="0" />
  </g>
</svg>
