<?xml version="1.0" encoding="UTF-8" standalone="no"?>
<!-- Created with Inkscape (http://www.inkscape.org/) -->

<svg
   xmlns:dc="http://purl.org/dc/elements/1.1/"
   xmlns:cc="http://creativecommons.org/ns#"
   xmlns:rdf="http://www.w3.org/1999/02/22-rdf-syntax-ns#"
   xmlns:svg="http://www.w3.org/2000/svg"
   xmlns="http://www.w3.org/2000/svg"
   xmlns:sodipodi="http://sodipodi.sourceforge.net/DTD/sodipodi-0.dtd"
   xmlns:inkscape="http://www.inkscape.org/namespaces/inkscape"
   width="48px"
   height="48px"
   viewBox="0 0 48 48"
   version="1.1"
   id="SVGRoot"
   inkscape:version="0.92.4 (5da689c313, 2019-01-14)"
   sodipodi:docname="goga.svg">
  <defs
     id="defs1995" />
  <sodipodi:namedview
     id="base"
     pagecolor="#ffffff"
     bordercolor="#666666"
     borderopacity="1.0"
     inkscape:pageopacity="0.0"
     inkscape:pageshadow="2"
     inkscape:zoom="30.656902"
     inkscape:cx="25.724292"
     inkscape:cy="19.85063"
     inkscape:document-units="px"
     inkscape:current-layer="layer1"
     showgrid="true"
     inkscape:window-width="1920"
     inkscape:window-height="1017"
     inkscape:window-x="-8"
     inkscape:window-y="-8"
     inkscape:window-maximized="1"
     inkscape:grid-bbox="true">
    <inkscape:grid
       type="xygrid"
       id="grid2562" />
  </sodipodi:namedview>
  <metadata
     id="metadata1998">
    <rdf:RDF>
      <cc:Work
         rdf:about="">
        <dc:format>image/svg+xml</dc:format>
        <dc:type
           rdf:resource="http://purl.org/dc/dcmitype/StillImage" />
        <dc:title></dc:title>
      </cc:Work>
    </rdf:RDF>
  </metadata>
  <g
     inkscape:label="Layer 1"
     inkscape:groupmode="layer"
     id="layer1">
    <path
       style="opacity:1;vector-effect:none;fill:#ffffff;fill-opacity:1;fill-rule:evenodd;paint-order:normal"
       d="M 16 19 C 14.892 19 14 19.892 14 21 L 14 23 C 14 24.108 14.892 25 16 25 L 17 25 L 17 23 L 16 23 L 16 21 L 18 21 L 18 22 L 18 23 L 18 25 L 18 26 L 17 26 L 14 26 L 14 28 L 18 28 C 20 28 20 26 20 26 L 20 25 L 20 24 L 20 23 L 20 21 C 20 19.892 19.108 19 18 19 L 16 19 z "
       id="rect818" />
    <path
       style="opacity:1;vector-effect:none;fill:#ffffff;fill-opacity:1;fill-rule:evenodd;paint-order:normal"
       d="M 23 19 C 21.892 19 21 19.892 21 21 L 21 23 C 21 24.108 21.892 25 23 25 L 25 25 C 26.108 25 27 24.108 27 23 L 27 21 C 27 19.892 26.108 19 25 19 L 23 19 z M 23 21 L 25 21 L 25 23 L 23 23 L 23 21 z "
       id="rect820" />
    <path
       style="opacity:1;vector-effect:none;fill:#ffffff;fill-opacity:1;fill-rule:evenodd;paint-order:normal"
       d="M 30 19 C 28.892 19 28 19.892 28 21 L 28 23 C 28 24.108 28.892 25 30 25 L 31 25 L 31 23 L 30 23 L 30 21 L 32 21 L 32 22 L 32 23 L 32 25 L 32 26 L 31 26 L 28 26 L 28 28 L 32 28 C 34 28 34 26 34 26 L 34 25 L 34 24 L 34 23 L 34 21 C 34 19.892 33.108 19 32 19 L 30 19 z "
       id="rect818-6" />
  </g>
</svg>
