<?xml version="1.0" encoding="UTF-8" standalone="no"?>
<!-- Created with Inkscape (http://www.inkscape.org/) -->

<svg
   xmlns:dc="http://purl.org/dc/elements/1.1/"
   xmlns:cc="http://creativecommons.org/ns#"
   xmlns:rdf="http://www.w3.org/1999/02/22-rdf-syntax-ns#"
   xmlns:svg="http://www.w3.org/2000/svg"
   xmlns="http://www.w3.org/2000/svg"
   xmlns:sodipodi="http://sodipodi.sourceforge.net/DTD/sodipodi-0.dtd"
   xmlns:inkscape="http://www.inkscape.org/namespaces/inkscape"
   width="48px"
   height="48px"
   viewBox="0 0 48 48"
   version="1.1"
   id="SVGRoot"
   inkscape:version="0.92.4 (5da689c313, 2019-01-14)"
   sodipodi:docname="guild-wars-2a.svg"
   inkscape:export-filename="C:\Users\Admin\Documents\Rainmeter\Skins\Honeycomb-NG\@Resources\Images\openshot.png"
   inkscape:export-xdpi="512"
   inkscape:export-ydpi="512">
  <defs
     id="defs1995" />
  <sodipodi:namedview
     id="base"
     pagecolor="#ffffff"
     bordercolor="#666666"
     borderopacity="1.0"
     inkscape:pageopacity="0.0"
     inkscape:pageshadow="2"
     inkscape:zoom="22.027632"
     inkscape:cx="14.914801"
     inkscape:cy="26.071214"
     inkscape:document-units="px"
     inkscape:current-layer="layer1"
     showgrid="true"
     inkscape:window-width="1920"
     inkscape:window-height="1017"
     inkscape:window-x="-8"
     inkscape:window-y="-8"
     inkscape:window-maximized="1"
     inkscape:grid-bbox="true"
     inkscape:snap-global="false">
    <inkscape:grid
       type="xygrid"
       id="grid2562" />
  </sodipodi:namedview>
  <metadata
     id="metadata1998">
    <rdf:RDF>
      <cc:Work
         rdf:about="">
        <dc:format>image/svg+xml</dc:format>
        <dc:type
           rdf:resource="http://purl.org/dc/dcmitype/StillImage" />
        <dc:title></dc:title>
      </cc:Work>
    </rdf:RDF>
  </metadata>
  <g
     inkscape:label="Layer 1"
     inkscape:groupmode="layer"
     id="layer1">
    <path
       style="fill:#ffffff;stroke-width:0.02378408"
       d="m 15.813681,33.43109 c -0.523124,-0.324346 -0.627211,-1.218893 0.174296,-1.196769 -1.193278,4.9e-5 0.802359,-0.905426 0.620833,-1.147928 0.343437,-0.22502 1.948277,-0.683822 1.77842,-0.500543 -0.636645,0.458887 0.497333,0.254189 0.707765,0.06915 1.022215,0.636062 -0.668644,0.548937 -1.130994,0.887693 -0.668071,-0.158308 -1.917458,0.656461 -1.143421,0.695798 -0.558531,0.159051 -1.323875,0.683633 -0.837269,1.30849 l -0.169495,-0.115984 z m -1.380596,-0.15331 c -0.497587,-0.40343 0.632287,-1.0349 0.002,-0.956371 -0.018,-0.688523 1.776846,-1.007399 1.464974,-1.079044 -0.465512,0.07287 0.137141,-0.187737 -0.483812,-0.01428 0.372809,0.119375 -0.656313,0.356584 -0.285026,-0.220531 0.420571,-0.946701 1.206686,-1.601879 1.840662,-2.381275 -1.077831,0.496975 -1.874143,1.516667 -2.437878,2.555381 0.204013,-0.542732 0.515453,-1.570063 1.214041,-1.872523 0.381265,-0.373507 1.091605,-1.15208 0.134408,-0.633525 -0.204577,0.0069 1.218284,-1.176974 1.252379,-1.287819 -0.142843,0.27593 0.387996,0.406391 0.179215,-0.130719 0.23394,0.752095 0.37751,-0.182023 0.106581,0.04296 0.03877,-0.417728 2.235581,-1.287191 0.855032,-0.617361 -0.426952,0.193435 -1.055286,0.775912 -0.250372,0.241418 1.264339,-0.605477 2.496415,-1.291501 3.774393,-1.853603 0.486295,-0.265338 0.429955,-0.502756 -0.108304,-0.418366 0.402139,-0.208112 1.637424,-0.646275 0.85558,-0.08162 0.276635,0.295305 -1.17328,0.790109 -1.5828,1.063354 -0.881148,0.367241 -1.229461,0.765727 -1.853681,1.120134 -0.428889,0.185479 -1.704005,1.067229 -0.503667,0.500751 0.388094,-0.255708 1.675376,-0.611902 0.674454,-0.04871 -0.382464,0.247483 -0.865239,0.623026 -0.134407,0.264807 2.991174,-0.996668 1.924084,-0.445607 0.06157,0.550345 -0.401488,0.0899 -0.779228,0.08233 -1.13909,0.334375 0.588866,0.03731 0.397156,-0.06355 0.951406,-0.18412 -0.302723,0.12895 -0.8248,0.503348 -1.110744,0.653455 -0.236385,0.02123 -0.377579,0.452499 0.100291,0.061 -0.11707,0.40216 0.276954,0.02055 0.472492,0.22686 0.15412,-6.4e-5 -0.132782,0.177959 0.212302,0.04369 -0.0017,0.215706 0.257693,-0.02093 0.492725,0.01819 0.157505,-0.112687 0.165345,-0.03 0.354652,-0.112592 0.442705,0.03709 -0.294093,0.658112 -0.6186,0.371574 -0.02161,0.162988 -0.911914,0.254986 -0.573839,0.512156 -1.140477,0.302146 0.689037,0.311761 0.754435,0.08731 0.346445,-0.105613 0.539943,-0.312991 0.879227,-0.27038 0.70251,0.02143 1.488513,-0.225474 2.165756,-0.478437 -0.338454,-0.367445 -0.146288,-0.20552 -0.427964,-0.340141 -0.434369,-0.05317 -0.542846,0.100073 -0.991548,0.177558 -1.109487,0.179597 1.184699,-0.758898 0.141355,-0.972605 0.883831,-0.144218 1.813706,-0.376786 2.818414,-0.703694 0.211758,-0.01978 0.95457,-0.466274 0.607437,-0.106823 0.824599,0.179127 1.574703,-0.811765 2.286178,-0.989432 1.356734,-0.735989 -0.957988,0.561369 -0.783794,0.562034 0.536872,-0.07749 1.71078,-1.156496 1.692611,-0.95023 -0.960614,0.514038 -1.330038,1.718197 -2.427048,1.963463 -0.523199,0.281365 -1.372797,0.855846 -0.293437,0.402019 0.02657,0.353037 1.410013,-0.678229 1.605647,-0.647151 -0.599847,0.329445 -1.781317,1.373854 -1.781164,1.612133 0.122609,0.06892 -0.972668,1.026184 -1.291388,1.133244 -0.431746,-0.318355 -1.133741,0.321596 -0.258244,0.326849 -0.472883,0.273243 -0.805383,0.673571 -0.06128,0.170947 0.439111,-0.210246 0.780523,-0.662418 1.180221,-0.52472 0.0031,-0.27814 -0.660212,0.05501 0.011,-0.395067 0.580647,-0.786057 1.725836,-1.036804 2.155045,-1.895406 0.644327,-0.222097 1.51638,-0.653552 1.481208,-1.044916 0.381659,-0.324259 1.671317,-0.923308 0.578671,-0.269416 -0.617363,0.49129 1.033854,-0.396732 1.317156,-0.66409 0.306158,-0.150566 1.176278,-1.018283 0.634626,-0.360198 0.39565,-0.230747 1.757954,-1.471363 0.755061,-0.487945 -0.314816,0.321611 -1.375915,1.192633 -0.308687,0.499613 0.2525,-0.231355 1.55228,-1.075412 0.664382,-0.356549 -0.310333,0.2685 -1.377123,0.833508 -1.123414,0.946525 0.463417,-0.247004 -0.582685,0.8822 -0.78813,1.041137 -0.536085,0.595869 -1.225599,1.131631 -1.559598,1.252107 -0.481687,0.31333 -2.110704,1.524105 -0.65656,1.080348 0.757905,0.09091 1.173983,-1.000586 1.689283,-0.819765 -0.844472,0.652765 -1.730704,1.216591 -2.722478,1.64096 -1.760445,0.891101 -3.679221,1.374766 -5.550915,1.960829 0.813326,-0.137503 1.844014,-0.486534 2.719877,-0.73503 0.940174,-0.268986 1.828588,-0.678568 2.718407,-1.076783 -0.943198,0.578182 1.00413,-0.327864 1.241061,-0.495659 1.344637,-0.668774 2.594397,-1.529229 3.740848,-2.492149 0.730708,-0.684494 1.497785,-1.329862 2.195674,-2.050977 -0.908587,0.989095 -1.736688,2.065322 -2.744033,2.95511 -0.462662,0.228655 -1.131439,0.945306 -1.827163,1.354716 -0.312975,0.214443 -1.34337,0.940319 -0.410381,0.401966 0.597622,-0.273264 1.170393,-0.844059 1.641269,-1.157749 -0.191567,0.50135 -0.265722,0.790586 -0.598883,0.579774 -0.474459,0.552092 -1.888762,1.139113 -2.030449,1.382419 0.10318,0.430265 0.822134,-0.19256 0.9443,0.401683 0.801767,-0.157652 1.343214,0.29994 2.216719,0.04668 0.901344,0.09621 1.857685,-0.03531 2.70565,-0.396244 0.489709,-0.09905 1.940206,-0.961064 1.92797,-0.722658 -0.421854,0.453161 -0.703734,0.831623 -1.273623,0.542375 -2.182553,0.916007 -4.499207,1.522069 -6.864983,1.674104 -2.623342,0.282781 -5.273007,0.148837 -7.897267,0.42924 0.314631,-0.2879 2.056981,-0.679689 0.825558,-0.670328 -0.459985,-0.449787 -0.268201,-0.320088 0.199857,-0.530426 -0.04614,-0.472125 -1.155102,-0.569603 -0.423525,-0.07768 -0.289326,0.248489 -0.808191,0.101666 -0.237513,0.467177 -0.508639,0.218281 -1.917948,-0.06581 -2.625308,0.583111 -0.577644,0.412564 -0.06033,-1.023476 0.462011,-0.72498 1.081876,0.06075 -1.247543,-0.119035 0.05633,-0.399017 0.795257,-0.250947 2.021699,-0.598383 2.563198,-0.839959 -0.496064,-0.444678 -0.955281,-0.366594 -0.812425,-0.794834 -0.374596,0.0283 -1.433104,0.55737 -1.253184,-0.03474 -0.504118,0.298099 -1.236639,0.561861 -1.716797,0.948777 0.321026,0.491492 -1.204217,0.491247 -1.01125,1.200425 0.104019,0.280978 -0.929178,0.752091 -0.539991,1.156655 -0.05203,0.02411 -0.187647,-0.26263 -0.200926,-0.173105 z M 25.6489,30.49962 c 0.469567,-0.141268 0.811729,-0.578569 0.05612,-0.269085 -0.280568,-0.01256 -0.573083,0.577843 -0.05612,0.269085 z m -8.955625,0.0376 c 0.397862,0.01615 1.16294,-0.479893 0.467397,-0.260857 -0.0735,0.04389 -0.964581,0.245633 -0.467397,0.260857 z m 9.871853,-1.255572 c 0.640116,-0.484505 0.981315,-0.207417 1.630323,-0.888165 0.204354,-0.489646 0.825178,-0.70445 0.844604,-0.813987 -0.484865,-0.168701 -0.975753,0.657658 -1.533016,0.86615 -0.06739,0.09242 -1.897459,1.279059 -0.941911,0.836002 z M 23.41925,28.749596 c 0.464695,-0.552215 -0.792306,0.256543 -1.4e-5,-4e-6 z m 0.812179,-0.562346 c 0.530713,-0.308199 0.538666,-0.465877 -0.03076,-0.09769 -0.36625,0.125059 -0.425839,0.427395 0.03076,0.09769 z m 3.980303,-0.372018 c 0.780704,-0.413953 0.176021,-0.330514 -0.216356,0.06767 l 0.216374,-0.06769 z M 17.712206,27.375837 c 0.756777,-0.272769 -0.421979,-0.01243 0,0 z m 0.507079,-0.189807 c 0.665863,-0.492027 -0.663014,0.31018 0,0 z m 1.085735,1.475516 c 0.201876,0.0035 0.952469,-0.485955 0.688143,-0.124531 -0.400489,0.296576 -0.971362,0.15917 -1.675145,0.472961 -0.781051,-0.139353 0.796873,-0.34255 0.987002,-0.34843 z m 0.70682,-0.364774 c -1.141811,0.02184 1.249369,-0.787056 0.190012,-0.03486 -0.0576,-0.02316 -0.186323,0.0615 -0.190012,0.03486 z m 4.917419,-1.206782 c 0.658261,-0.417097 0.302067,0.04823 0,0 z m 7.281861,-2.370509 c 0.691548,-0.815618 1.568653,-1.539887 2.318929,-2.333976 0.671852,-0.887209 -0.349312,1.489934 -0.302676,0.517076 -0.568646,0.635333 -1.457722,1.438984 -2.016253,1.8169 z M 31.609392,24.54079 c -0.853366,0.03619 1.034276,-0.511145 0.814391,-0.570038 -0.251393,0.182124 -0.469723,0.609645 -0.814391,0.570038 z m -4.080028,-0.484294 c 0.238757,-0.465122 1.926842,-0.573473 0.682616,-0.220654 -0.127613,-0.0093 -1.141359,0.597079 -0.682616,0.220654 z m -5.802255,-0.05319 c 0.533612,-0.321783 0.806722,-0.672954 0.103722,-0.24217 -0.791367,0.287086 0.780147,-0.595634 1.034337,-0.675175 0.859097,-0.501844 1.787505,-0.90798 2.713297,-1.234288 -1.064328,0.253873 -2.076661,0.727887 -3.085859,1.154671 0.780916,-0.492849 1.504886,-0.866929 1.96987,-1.533809 0.292655,-0.47538 1.016866,-0.706878 1.070058,-1.155692 -1.051789,0.41365 0.779139,-1.599058 0.130545,-1.595812 -0.09772,0.511575 -0.295751,0.931502 -0.151586,0.181808 -0.372517,-0.13701 0.185124,-0.905907 -0.07665,-0.944853 0.0906,-0.527651 -1.218004,-1.830207 -0.178123,-1.132901 -0.09657,-0.597296 -1.093982,-0.879964 -0.61201,-0.984043 -0.653429,-0.569444 -1.764872,-0.693554 -2.447219,-0.230552 0.323218,-0.360201 1.512585,0.409753 0.695016,0.289395 0.551075,0.245387 0.99295,0.484874 0.09101,0.328729 -0.591524,-0.05219 -0.17723,0.383546 -0.819944,0.258007 -0.438933,0.06553 0.891553,0.253824 1.130227,0.031 0.437374,0.221713 1.880659,0.78049 0.751867,0.902595 -0.380169,0.374518 -1.796348,0.607722 -0.458326,0.423567 0.757662,-0.08835 -1.048618,1.089277 -1.228559,0.224875 -0.515938,-0.730312 -0.337404,0.0768 -0.480572,0.43071 -0.557373,0.618433 -0.415334,1.603331 0.206176,1.792282 -0.09373,0.01264 1.114728,0.660478 0.5503,0.510288 -0.75882,-0.931803 -1.367006,0.481929 -2.271753,0.243592 -1.207893,0.243904 1.182779,-0.705728 -0.06359,-0.502789 -0.390037,0.07423 0.749051,-0.798109 -0.09798,-0.577107 0.502342,-0.357594 -0.09363,-0.71463 0.0037,-1.09535 -0.46744,1.167388 -1.513268,2.092258 -2.727408,2.433301 -0.507065,0.195757 -1.454217,0.189335 -0.351581,0.0139 0.304347,-0.103451 -1.819312,-0.02081 -1.225934,-0.102092 1.049617,0.0755 2.367823,-0.150798 2.961656,-1.121106 0.218034,-0.559384 0.53066,-2.008563 0.280155,-1.999766 -0.459537,0.09328 -0.864862,0.427143 -0.622358,0.807622 -0.776567,-0.293604 -0.448649,0.442585 -1.156394,0.26201 -0.04112,0.498522 -0.723229,0.3217 -0.48733,0.559435 -0.486116,-0.07913 -0.618507,0.10512 -0.0498,0.320896 -0.533015,-0.07657 -0.919166,-0.07872 -0.198018,0.287455 -0.623218,0.02358 -1.870496,-0.305955 -1.66558,-1.209501 -0.01509,-0.238226 -0.16143,-1.668964 -0.02918,-1.568941 0.120995,0.460932 0.348956,1.084588 0.475041,0.83383 0.464098,0.991331 0.389506,-1.472844 0.723166,-0.1112 0.498637,-0.300569 0.685285,-1.257018 1.090845,-1.327077 -0.30403,-0.131217 0.248621,-0.801625 -0.08549,-0.693288 -0.381493,-0.120653 0.183049,-1.507664 0.108927,-0.376068 0.740507,0.05484 0.412132,-1.46586 1.078101,-1.901256 0.359364,-0.402203 0.991135,-0.845718 0.323121,-0.112969 -0.20589,0.410337 -0.614659,1.309343 -0.07847,0.487573 0.121932,0.512146 0.375615,-0.565914 0.553007,-0.285393 0.640648,-0.71514 0.935455,-0.931683 1.64044,-1.130737 0.785814,-0.337909 2.117314,-0.24754 2.357062,-1.175839 0.673485,0.33333 -1.054437,0.891883 -1.527828,1.080672 -0.950345,0.259859 -1.599537,1.045749 -2.012543,1.896426 0.648539,-0.575591 1.311709,-1.295424 2.199837,-1.617516 -0.415607,0.211644 -1.173902,0.84066 -0.868215,0.817358 -0.550003,1.062593 0.705758,-0.381333 1.13345,-0.438346 0.995876,-0.697704 -0.867378,0.868413 0.142927,0.167115 0.331734,-0.229838 1.354649,-0.591521 0.461907,-0.09602 -0.361569,0.211129 -0.994591,0.832797 -0.262268,0.289505 0.755659,-0.52044 1.640677,-0.597876 2.530991,-0.803645 0.86272,-0.162507 -1.403729,0.544064 -0.127732,0.348917 0.587056,0.0021 1.621086,-0.0093 0.42326,0.218263 -0.566882,0.146197 -0.65302,0.370548 -0.0014,0.13659 0.440291,-0.107371 1.955353,-0.304992 0.796826,0.0473 0.175391,0.281457 1.842273,0.5248 1.342002,0.588934 -0.539601,-0.06652 -1.545407,0.0085 -0.451806,0.158679 0.500995,0.02772 2.13925,0.349777 0.857105,0.250475 -0.44475,0.789594 1.109839,0.442384 0.733252,0.73481 0.392357,0.447322 0.61174,0.383929 0.659834,0.61254 -0.459884,0.0022 -1.458851,-0.04624 -0.471685,0.09851 0.571381,0.238146 1.220753,-0.0831 0.673123,0.379138 0.219995,0.451712 -1.100132,0.468706 -0.133391,0.55503 0.292951,-0.344581 1.995594,0.251743 0.980846,0.208087 -0.887744,0.104392 -0.350849,0.270042 -0.01519,0.274538 -0.452676,0.107447 -1.31988,0.390319 -0.565427,0.622206 0.49505,-0.13872 1.312004,-0.08436 0.411534,0.244755 0.356181,0.355962 -1.052172,0.469085 0.0099,0.449213 1.215535,-0.130273 -0.87919,0.387368 -0.01468,0.67346 -0.732386,0.09897 -0.450659,-0.610887 -1.064057,-0.04279 1.072909,0.08128 -0.987486,0.199358 0.01231,0.267937 0.493415,0.09004 1.226513,0.01213 0.367623,0.420478 -0.322959,0.58878 -0.999953,1.050341 -1.71318,1.018439 -0.501549,-0.0075 -1.335711,0.254415 -0.351979,0.102905 0.356126,-0.06338 1.556575,-0.0467 0.59412,0.196942 -0.456433,0.119339 -1.184725,0.479816 -0.212848,0.251225 0.03903,0.156205 -0.934283,0.784399 -1.23506,0.469204 -0.492345,0.06769 -0.969135,0.522202 -0.144821,0.424603 0.619292,-0.0401 0.97453,0.0073 0.164972,0.1088 -0.824686,0.548368 -1.195905,0.07977 -1.264975,-0.584384 0.68466,1.126856 -0.757249,1.048627 -1.522139,1.372946 0.445085,-0.234483 1.181883,-0.629701 0.206764,-0.404381 -0.704209,-0.01988 -0.408179,0.690637 -1.280948,0.459166 -0.30619,0.02142 -0.586474,0.138853 -0.852234,0.284151 z m 2.877873,-0.956386 c 0.836863,-0.14597 0.201112,-0.323482 -0.353057,0.03074 0.02192,0.08671 0.292511,-0.06276 0.353057,-0.03074 z m 1.412502,-1.441639 c 0.431962,-0.224818 -0.285064,-0.0319 -0.162505,0.0683 z m 1.964844,-1.080226 c 0.497695,-0.150696 0.699611,-0.589938 0.219112,-0.272662 -0.005,0.09794 -0.622607,0.40586 -0.219112,0.272662 z m -7.143892,-0.303853 c 0.492822,-0.698577 -0.964187,0.491103 0,0 z m 0.02669,-0.486561 c 0.426791,-0.491847 -0.718888,0.282664 0,0 z m -5.012673,-0.319245 c 0.217374,-0.488694 0.695318,-0.748968 0.0077,-0.311733 -0.115169,-0.01088 -0.100924,0.475511 -0.0077,0.311733 z m 4.013648,-0.51922 c 0.193159,-0.613188 -0.03557,-1.341498 -0.0067,-0.281865 -0.01108,0.448271 -0.401282,1.156182 0.0067,0.281865 z m 9.162727,0.344869 c 0.773288,-0.119518 -0.02433,-0.427008 -0.156925,0.05945 l 0.0753,-0.100276 z m -8.286474,-0.08413 c 0.606041,-0.107052 -9.84e-4,-0.565237 0,0 z m 8.466585,-0.514534 c 0.608293,-0.238261 -0.690107,-0.01865 0,0 z M 20.971985,18.22034 c 0.263157,-0.548497 -0.611034,0.351673 0,0 z m -1.004884,-0.333604 c 0.800375,0.0128 1.162617,-0.228841 1.107637,-1.050274 0.408446,-0.469645 -0.957113,0.142903 -0.326228,-0.583094 0.763651,-1.159809 -1.25906,1.022571 0.12425,0.454584 -6.77e-4,0.389546 -0.05003,1.234477 -0.886017,1.064121 -0.498613,0.140695 -0.359999,0.190774 -0.01964,0.114664 z m 9.052025,-0.333302 c 0.277715,-0.50329 -0.85457,0.221213 0,0 z M 18.649995,16.88489 c 0.572989,-0.05116 1.351744,-1.360378 0.40656,-0.520528 -0.151045,-0.06468 -0.993448,0.785846 -0.40656,0.520528 z m 0.175827,-1.205176 c 0.06111,-0.37159 0.738613,-1.942209 0.195413,-0.922017 -0.06201,0.12292 -0.779712,1.589369 -0.195413,0.922017 z m 3.809955,-0.517168 c 0.502236,-0.170325 1.579072,-0.08128 1.743316,-0.192218 -0.472844,-0.349836 -2.135085,-0.02406 -1.906994,0.229439 l 0.163676,-0.03732 z m -0.479625,-0.408622 c 0.229207,-0.290353 1.609888,-0.883433 0.546248,-0.463106 -0.439257,0.02938 -1.528164,0.950623 -0.546247,0.463087 z m -1.957223,-0.02933 c 0.686181,-1.078298 -0.554874,0.305464 0,0 z m 8.21853,8.123552 c 0.559874,-0.345573 0.05334,-0.08629 0.130358,-0.224331 0.658141,-0.05151 0.411042,-0.111053 0.332724,-0.338169 1.18147,-0.273077 -0.4799,0.800902 -0.463082,0.5625 z m -5.484932,-0.386359 c 0.475916,-0.319418 0.825839,-0.322444 0.09114,-4.74e-4 l -0.09115,4.92e-4 z m 4.863071,-0.581546 c 0.338906,-0.201089 0.714544,-0.121505 0,0 z m 1.381905,-0.154851 c 0.115607,-0.503048 1.402589,-0.721123 0.440026,-0.246877 -0.0238,0.04839 -0.782119,0.49401 -0.440026,0.246877 z m 0.706198,-1.366818 c 0.197145,-0.548406 1.066485,-0.572798 0.236494,-0.05318 -0.08121,0.05873 -0.513842,0.451091 -0.236494,0.05318 z"
       id="path828"
       inkscape:connector-curvature="0"
       sodipodi:nodetypes="cccccccccccccccccccccccccccccccccccccccccccccccccccccccccccccccccccccccccccccccccccccccccccccccccccccccccccccccccccccccccccccccccccccccccccccccccccccccccccccccccccccccccccccccccccccccccccccccccccccccccccccccccccccccccccccccccccccccccccccccccccccccccccccccccccccccccccccccccccccccccccccccaccccccccccccccccccccccccccccccc" />
  </g>
</svg>
