<?xml version="1.0" encoding="UTF-8" standalone="no"?>
<!-- Created with Inkscape (http://www.inkscape.org/) -->

<svg
   xmlns:dc="http://purl.org/dc/elements/1.1/"
   xmlns:cc="http://creativecommons.org/ns#"
   xmlns:rdf="http://www.w3.org/1999/02/22-rdf-syntax-ns#"
   xmlns:svg="http://www.w3.org/2000/svg"
   xmlns="http://www.w3.org/2000/svg"
   xmlns:xlink="http://www.w3.org/1999/xlink"
   xmlns:sodipodi="http://sodipodi.sourceforge.net/DTD/sodipodi-0.dtd"
   xmlns:inkscape="http://www.inkscape.org/namespaces/inkscape"
   width="48px"
   height="48px"
   viewBox="0 0 48 48"
   version="1.1"
   id="SVGRoot"
   inkscape:version="0.92.4 (5da689c313, 2019-01-14)"
   sodipodi:docname="kega-fusiona.svg">
  <defs
     id="defs1995">
    <linearGradient
       gradientTransform="matrix(0.9965784,0,0,0.9962666,-89.841948,-62.996045)"
       id="IcecapTip-6"
       xlink:href="#WhiteTransparent-4"
       x1="60"
       y1="20"
       x2="90"
       y2="50"
       gradientUnits="userSpaceOnUse" />
    <linearGradient
       id="WhiteTransparent-4"
       gradientUnits="userSpaceOnUse">
      <stop
         style="stop-color:white;stop-opacity:1"
         offset="0"
         id="stop7606-4" />
      <stop
         style="stop-color:white;stop-opacity:0"
         offset="1"
         id="stop7608-7" />
    </linearGradient>
  </defs>
  <sodipodi:namedview
     id="base"
     pagecolor="#ffffff"
     bordercolor="#666666"
     borderopacity="1.0"
     inkscape:pageopacity="0.0"
     inkscape:pageshadow="2"
     inkscape:zoom="12.786848"
     inkscape:cx="29.366865"
     inkscape:cy="27.505757"
     inkscape:document-units="px"
     inkscape:current-layer="layer1"
     showgrid="true"
     inkscape:window-width="1920"
     inkscape:window-height="1017"
     inkscape:window-x="-8"
     inkscape:window-y="-8"
     inkscape:window-maximized="1"
     inkscape:grid-bbox="true"
     inkscape:snap-global="false">
    <inkscape:grid
       type="xygrid"
       id="grid2562" />
  </sodipodi:namedview>
  <metadata
     id="metadata1998">
    <rdf:RDF>
      <cc:Work
         rdf:about="">
        <dc:format>image/svg+xml</dc:format>
        <dc:type
           rdf:resource="http://purl.org/dc/dcmitype/StillImage" />
        <dc:title></dc:title>
      </cc:Work>
    </rdf:RDF>
  </metadata>
  <g
     inkscape:label="Layer 1"
     inkscape:groupmode="layer"
     id="layer1">
    <path
       style="fill:#ffffff;stroke-width:0.08037995"
       d="m 16.086181,12.979748 v 9.873389 c 0,5.430336 0.0245,9.897762 0.05451,9.927708 0.0299,0.02994 1.576245,0.04496 3.436237,0.03343 l 3.381768,-0.02088 0.02022,-2.893679 c 0.01099,-1.591522 0.04068,-2.947935 0.06567,-3.014247 0.04043,-0.107182 0.0528,-0.107182 0.111119,0 0.03615,0.06631 0.273088,0.735476 0.526547,1.487029 0.843383,2.50079 1.512526,4.339806 1.600688,4.399546 0.0479,0.03248 1.651532,0.0596 3.563568,0.06029 2.929931,9.96e-4 3.476436,-0.01645 3.476436,-0.111467 0,-0.062 -0.340091,-1.138096 -0.755762,-2.391303 -1.69941,-5.12356 -2.379064,-7.252512 -2.379064,-7.452258 0,-0.1832 1.259984,-4.11394 2.728209,-8.511011 l 0.46296,-1.386558 -3.584909,3.14e-4 -3.58507,4.74e-4 -0.376624,1.064564 c -0.207138,0.585556 -0.651268,1.878567 -0.987009,2.873268 -0.335754,0.994702 -0.626322,1.853763 -0.645717,1.909023 -0.01936,0.05526 -0.07265,0.100473 -0.118228,0.100473 -0.0555,-2e-6 -0.08294,-0.984609 -0.08294,-2.974061 V 12.97973 h -3.456332 z m 14.502622,0.896738 c 0.504789,0.0017 0.689187,0.0259 0.689187,0.08038 0,0.108236 -0.433583,1.591508 -0.842257,2.88112 -0.693216,2.187511 -1.747229,5.455889 -1.845756,5.723616 -0.102671,0.278993 -0.08993,0.361196 0.198745,1.28608 0.169635,0.543419 0.422017,1.313647 0.560936,1.711528 0.138933,0.39788 0.335669,0.994702 0.437062,1.326269 0.101437,0.331567 0.347478,1.127329 0.54697,1.768359 0.386499,1.24199 0.730424,2.445477 0.821221,2.873581 l 0.05537,0.261237 h -1.249339 c -1.108826,0 -1.258049,-0.01584 -1.325016,-0.14098 -0.177193,-0.331106 -1.822857,-4.954202 -2.589104,-7.273442 l -0.49783,-1.506495 0.531728,-1.588134 c 1.011169,-3.020005 2.09026,-6.126681 2.39476,-6.894465 l 0.190903,-0.481023 1.305708,-0.02215 c 0.244504,-0.0042 0.448394,-0.0059 0.616669,-0.0055 z m -2.74846,0.06359 -0.05686,0.303465 c -0.06113,0.326253 -0.573849,2.129553 -1.038819,3.653364 -0.246342,0.807331 -1.068763,3.226956 -1.46379,4.306451 l -0.125125,0.341613 h -2.605596 c -1.433136,0 -2.607163,-0.0091 -2.608891,-0.02009 -0.0012,-0.01099 -0.02438,-1.946199 -0.05035,-4.300326 l -0.04729,-4.280233 h 1.2561 1.25609 v 3.175007 3.175008 h 0.431094 0.430947 l 0.5917,-1.708073 c 0.325439,-0.93944 0.809766,-2.359151 1.076188,-3.154913 l 0.484316,-1.446839 1.235213,-0.02229 z m -11.030746,0.0043 h 1.201152 1.201141 l 0.02463,6.169161 c 0.01361,3.393038 0.01336,7.408017 -3.19e-4,8.922174 l -0.02499,2.753014 h -1.147308 c -0.63099,0 -1.171357,-0.02406 -1.200833,-0.05354 -0.02953,-0.02947 -0.05353,-4.044448 -0.05353,-8.922173 z m 8.336915,9.241496 0.127477,0.342713 c 0.07008,0.188485 0.260982,0.740596 0.424037,1.226895 0.163044,0.486298 0.331687,0.952659 0.374898,1.036304 0.04325,0.08363 0.143453,0.373013 0.22261,0.64304 0.07915,0.270024 0.289786,0.961137 0.468156,1.535853 0.313615,1.010509 1.057969,3.660176 1.057969,3.766084 0,0.02862 -0.538664,0.05196 -1.197073,0.05196 -1.064928,0 -1.203346,-0.01554 -1.253737,-0.140665 -0.145168,-0.360512 -2.032064,-5.793297 -2.079832,-5.988307 -0.05085,-0.207668 -0.08074,-0.221045 -0.494681,-0.221045 h -0.440517 v 2.439186 c 0,1.341582 -0.02352,2.770335 -0.05231,3.175008 l -0.05206,0.735823 h -1.144477 -1.144478 l -0.05451,-1.949215 c -0.03002,-1.072068 -0.043,-2.998171 -0.02903,-4.280231 l 0.02524,-2.331019 2.621143,-0.0212 z"
       id="path843"
       inkscape:connector-curvature="0"
       sodipodi:nodetypes="cssccccsscsssscccccscsscccssscsccsccscccccccsccsccscsccccccccccccccccccscscccscssssccscsccccccccc" />
  </g>
</svg>
