<?xml version="1.0" encoding="UTF-8" standalone="no"?>
<!-- Created with Inkscape (http://www.inkscape.org/) -->

<svg
   xmlns:dc="http://purl.org/dc/elements/1.1/"
   xmlns:cc="http://creativecommons.org/ns#"
   xmlns:rdf="http://www.w3.org/1999/02/22-rdf-syntax-ns#"
   xmlns:svg="http://www.w3.org/2000/svg"
   xmlns="http://www.w3.org/2000/svg"
   xmlns:xlink="http://www.w3.org/1999/xlink"
   xmlns:sodipodi="http://sodipodi.sourceforge.net/DTD/sodipodi-0.dtd"
   xmlns:inkscape="http://www.inkscape.org/namespaces/inkscape"
   width="48px"
   height="48px"
   viewBox="0 0 48 48"
   version="1.1"
   id="SVGRoot"
   inkscape:version="0.92.4 (5da689c313, 2019-01-14)"
   sodipodi:docname="koboldaia.svg"
   inkscape:export-filename="C:\Users\Admin\Documents\Rainmeter\Skins\Honeycomb-NG\@Resources\Images\openshot.png"
   inkscape:export-xdpi="512"
   inkscape:export-ydpi="512">
  <defs
     id="defs1995">
    <linearGradient
       gradientTransform="matrix(0.9965784,0,0,0.9962666,-89.841948,-62.996045)"
       id="IcecapTip-6"
       xlink:href="#WhiteTransparent-4"
       x1="60"
       y1="20"
       x2="90"
       y2="50"
       gradientUnits="userSpaceOnUse" />
    <linearGradient
       id="WhiteTransparent-4"
       gradientUnits="userSpaceOnUse">
      <stop
         style="stop-color:white;stop-opacity:1"
         offset="0"
         id="stop7606-4" />
      <stop
         style="stop-color:white;stop-opacity:0"
         offset="1"
         id="stop7608-7" />
    </linearGradient>
  </defs>
  <sodipodi:namedview
     id="base"
     pagecolor="#ffffff"
     bordercolor="#666666"
     borderopacity="1.0"
     inkscape:pageopacity="0.0"
     inkscape:pageshadow="2"
     inkscape:zoom="18.083334"
     inkscape:cx="-6.5164657"
     inkscape:cy="23.284639"
     inkscape:document-units="px"
     inkscape:current-layer="layer1"
     showgrid="true"
     inkscape:window-width="1920"
     inkscape:window-height="1017"
     inkscape:window-x="-8"
     inkscape:window-y="-8"
     inkscape:window-maximized="1"
     inkscape:grid-bbox="true"
     inkscape:snap-global="false">
    <inkscape:grid
       type="xygrid"
       id="grid2562" />
  </sodipodi:namedview>
  <metadata
     id="metadata1998">
    <rdf:RDF>
      <cc:Work
         rdf:about="">
        <dc:format>image/svg+xml</dc:format>
        <dc:type
           rdf:resource="http://purl.org/dc/dcmitype/StillImage" />
        <dc:title></dc:title>
      </cc:Work>
    </rdf:RDF>
  </metadata>
  <g
     inkscape:label="Layer 1"
     inkscape:groupmode="layer"
     id="layer1">
    <path
       style="fill:#ffffff;stroke-width:0.09571014;fill-opacity:1"
       d="m 19.840285,34.116482 c -1.203173,-0.458167 -1.919449,-0.840684 -2.105276,-1.124291 -0.105951,-0.161696 -0.132764,-0.438599 -0.107746,-1.112559 l 0.03331,-0.897284 -0.83138,-0.831379 -0.831379,-0.831378 -0.954113,0.02656 c -0.838992,0.02335 -0.980072,0.0036 -1.169245,-0.163837 -0.248718,-0.220107 -0.816812,-1.392141 -1.192508,-2.460259 -0.365352,-1.038712 -0.311729,-1.234932 0.524071,-1.917737 l 0.66444,-0.542813 v -1.239511 -1.239506 l -0.668812,-0.557114 c -0.367846,-0.306412 -0.693705,-0.656305 -0.724135,-0.777541 -0.08008,-0.31906 0.01211,-0.680705 0.451121,-1.769567 0.464072,-1.151039 0.806722,-1.760558 1.068472,-1.900641 0.111541,-0.0597 0.566608,-0.08879 1.088264,-0.0696 l 0.896562,0.03299 0.83949,-0.83546 0.839489,-0.835458 -0.05718,-0.791614 c -0.08273,-1.145249 0.03239,-1.35132 1.032509,-1.848401 0.431149,-0.21429 1.130989,-0.510443 1.555198,-0.658113 1.074262,-0.373961 1.260798,-0.324626 1.952742,0.51647 l 0.548005,0.666131 1.231562,-7.18e-4 1.231564,-7.18e-4 0.554315,-0.665454 c 0.701573,-0.842234 0.88392,-0.889355 1.977016,-0.510869 0.434233,0.15035 1.134073,0.446985 1.555198,0.659187 0.976622,0.492112 1.070344,0.657059 1.004956,1.768661 l -0.04785,0.813538 0.861392,0.866052 0.86139,0.86605 0.765681,-0.06248 c 1.058879,-0.08641 1.331096,0.04684 1.762414,0.86261 0.405812,0.76754 0.965325,2.314862 0.965325,2.669584 0,0.328356 -0.09338,0.44973 -0.812519,1.056059 l -0.573247,0.48332 -0.0087,1.248478 -0.0087,1.248479 0.657525,0.547713 c 0.362361,0.301843 0.684025,0.653288 0.716555,0.782898 0.09798,0.390381 -0.413,1.927909 -1.00435,3.02208 -0.357236,0.660994 -0.627822,0.778754 -1.646872,0.716736 l -0.813096,-0.04947 -0.84076,0.845854 -0.840759,0.845854 0.02618,0.941169 c 0.02302,0.826965 0.0031,0.966743 -0.164197,1.151955 -0.381436,0.422318 -2.754107,1.432689 -3.366601,1.433625 -0.257463,3.6e-4 -0.403765,-0.108678 -0.940143,-0.700908 l -0.635231,-0.701374 -1.229373,0.0075 -1.229372,0.0075 -0.495719,0.57426 c -0.272645,0.315843 -0.56438,0.628098 -0.6483,0.6939 -0.252953,0.198338 -0.688386,0.132631 -1.717171,-0.259131 z m 1.954267,-1.09241 0.59237,-0.692546 1.54852,0.0074 1.548522,0.0074 0.640493,0.705783 0.640495,0.705785 0.655309,-0.211708 c 0.613886,-0.198327 1.934622,-0.800602 2.076977,-0.947131 0.0352,-0.03622 0.02973,-0.496554 -0.01211,-1.022959 -0.04399,-0.55329 -0.03966,-1.002862 0.01024,-1.065562 0.05575,-0.07003 0.03123,-0.129608 -0.0692,-0.168148 -0.101626,-0.03899 -0.364265,0.1064 -0.757765,0.419518 -0.593421,0.472199 -0.841679,0.571586 -0.957925,0.383495 -0.03253,-0.05264 -0.121216,-0.09571 -0.19707,-0.09571 -0.0963,-4e-6 -0.137916,0.111646 -0.137916,0.369976 0,0.43117 -0.611515,1.735644 -0.81364,1.735644 -0.195089,0 -0.4881,-0.464089 -0.66594,-1.054762 -0.374214,-1.242899 -0.541186,-1.337637 -2.357919,-1.337845 -1.561787,-1.9e-4 -1.522296,-0.02644 -1.8605,1.23732 -0.251981,0.941574 -0.38139,1.250996 -0.523198,1.250996 -0.04896,0 -0.24402,-0.136099 -0.433474,-0.302442 -0.365395,-0.32082 -0.743705,-0.980141 -0.853287,-1.487107 -0.0616,-0.285002 -0.08241,-0.298637 -0.302591,-0.198314 -0.216185,0.0985 -0.282831,0.06322 -0.777903,-0.411784 -0.297803,-0.28573 -0.493335,-0.454556 -0.434513,-0.375162 0.07309,0.09865 0.08602,0.455883 0.04085,1.128194 l -0.06611,0.983843 0.288936,0.168192 c 0.339564,0.197663 1.830617,0.83772 2.107426,0.904646 0.396497,0.09586 0.493322,0.03827 1.070919,-0.63701 z m -0.476381,-1.195315 c 0.08457,-0.429275 0.12207,-0.812195 0.08333,-0.850935 -0.03874,-0.03874 -0.336315,-0.07072 -0.661281,-0.07106 l -0.590847,-6.45e-4 0.03063,0.315421 c 0.06126,0.63072 0.6966,1.675511 0.897017,1.475096 0.04807,-0.04806 0.156573,-0.438604 0.241145,-0.86788 z m 5.483516,0.438558 c 0.09961,-0.225194 0.194098,-0.645123 0.209966,-0.933174 l 0.02885,-0.523733 -0.462121,0.0066 c -0.552085,0.0078 -0.663464,0.135074 -0.58039,0.663488 0.07478,0.475641 0.424827,1.196377 0.581062,1.196377 0.02283,0 0.123019,-0.184251 0.222632,-0.409442 z m -7.105669,-1.528689 c 0.198552,-0.186758 0.38362,-0.226444 1.393963,-0.298921 1.221058,-0.08759 2.992185,-0.103686 5.093309,-0.04625 0.986474,0.02696 1.302049,0.06926 1.504067,0.201612 0.140613,0.09212 0.312483,0.167492 0.381934,0.167492 0.06945,0 0.360214,-0.236883 0.646141,-0.526405 0.285925,-0.289524 0.564847,-0.526406 0.619824,-0.526406 0.05497,0 0.214477,0.106193 0.354445,0.235974 l 0.254489,0.235976 0.802436,-0.843224 0.802437,-0.843223 1.005118,0.0447 1.005119,0.0447 0.34755,-0.760314 c 0.525177,-1.1489 0.525784,-1.160001 0.112831,-2.061053 -0.43426,-0.947541 -0.56473,-1.118473 -0.72862,-0.954585 -0.167065,0.167065 -0.224341,0.145396 -0.351109,-0.132831 -0.151579,-0.332678 -0.04232,-1.187286 0.151793,-1.187286 0.116472,0 0.134977,-0.170435 0.108563,-0.999845 l -0.03184,-0.999847 0.740499,-0.634362 c 0.407273,-0.348897 0.740499,-0.647269 0.740499,-0.663046 0,-0.218543 -0.362392,-0.926396 -0.620595,-1.212196 -0.21159,-0.234205 -0.394845,-0.583021 -0.502308,-0.956116 l -0.169184,-0.587389 -0.917755,0.0495 -0.917754,0.0495 -0.49018,-0.568167 c -0.269606,-0.312495 -0.751818,-0.792578 -1.071592,-1.066859 l -0.581402,-0.498688 0.06565,-1.001551 0.06565,-1.001551 -0.564769,0.50399 c -1.029205,0.918447 -2.383993,1.423314 -2.723063,1.01476 -0.172048,-0.207305 -0.231013,-1.100997 -0.09903,-1.50091 0.06023,-0.182481 0.262326,-0.51033 0.449116,-0.728552 0.18679,-0.218221 0.296402,-0.396767 0.243583,-0.396767 -0.05282,0 -0.377742,0.328843 -0.722052,0.730761 l -0.626013,0.730776 H 23.921356 22.37495 l -0.621116,-0.723607 c -0.385182,-0.448738 -0.671513,-0.704266 -0.753788,-0.672695 -0.101132,0.03881 -0.07238,0.122419 0.121025,0.35176 0.139535,0.165467 0.311776,0.439442 0.38276,0.608833 0.176601,0.42143 0.165569,1.27223 -0.01992,1.537068 -0.320325,0.457329 -1.268892,0.176541 -2.464178,-0.729425 -0.358111,-0.271431 -0.660993,-0.49351 -0.673072,-0.49351 -0.01208,0 0.0092,0.389505 0.0472,0.865568 l 0.06915,0.865568 -1.115223,1.108006 -1.115224,1.108006 -0.78542,-0.06373 c -0.723852,-0.05873 -0.790047,-0.04915 -0.844439,0.122218 -0.03735,0.117663 -0.120107,0.16997 -0.225373,0.142442 -0.121838,-0.03186 -0.223401,0.07391 -0.379511,0.395233 -0.117235,0.241304 -0.213154,0.517652 -0.213154,0.614108 0,0.09645 -0.128664,0.429091 -0.285919,0.739193 -0.157255,0.310101 -0.28284,0.606891 -0.279082,0.659531 0.0038,0.05264 0.339628,0.381612 0.746374,0.731045 l 0.739534,0.635337 -0.0735,0.760315 c -0.04043,0.418172 -0.03794,1.079801 0.0055,1.470287 0.06153,0.552561 0.05,0.743474 -0.05197,0.861074 -0.08081,0.09321 -0.132084,0.38661 -0.133802,0.765682 -0.0015,0.338018 -0.08803,0.916066 -0.19222,1.284551 -0.314137,1.111009 -0.316017,1.140351 -0.10012,1.563523 l 0.201698,0.395362 0.597053,-0.04952 c 0.328379,-0.02724 0.773418,-0.06785 0.988977,-0.09026 0.381928,-0.0397 0.405008,-0.02493 0.904829,0.57929 0.589814,0.713 0.910474,0.954615 1.216427,0.916573 0.147532,-0.01834 0.389035,0.127229 0.760859,0.45863 0.299596,0.267026 0.565652,0.485504 0.591232,0.485504 0.02557,0 0.149535,-0.09691 0.275459,-0.215348 z m 1.986668,-2.682096 c -0.331996,-0.189177 -0.809213,-0.812313 -0.813912,-1.062777 -8.61e-4,-0.04618 0.221983,-0.06248 0.495219,-0.03623 0.626487,0.0602 1.063705,0.475209 1.016135,0.964522 -0.03701,0.380593 -0.207749,0.413517 -0.697442,0.13448 z m 4.320959,0.05804 c -0.138975,-0.138975 -0.06259,-0.864733 0.107194,-1.018376 0.234361,-0.212095 0.824469,-0.449181 1.118016,-0.449181 0.276046,0 0.295146,0.06572 0.09575,0.329353 -0.07729,0.102178 -0.140523,0.256183 -0.140523,0.342229 0,0.188567 -0.319221,0.493936 -0.737,0.70502 -0.348426,0.176043 -0.356649,0.177729 -0.443424,0.09095 z m -7.433488,-2.620958 c 0,-0.332884 1.771827,-1.492007 2.858151,-1.869793 1.532125,-0.532821 3.868131,-0.516441 5.528052,0.03876 0.758878,0.253825 0.790874,0.25722 0.610008,0.0647 -0.328455,-0.349625 -0.222326,-0.43388 0.263746,-0.20939 0.393517,0.181746 0.606442,0.208241 1.584191,0.197143 1.816226,-0.02061 2.109587,-0.212118 2.653352,-1.732029 0.232194,-0.649018 0.380471,-0.700159 0.380471,-0.131225 0,0.29307 0.065,0.420964 0.342122,0.673136 0.383557,0.349031 0.383528,0.442226 -7.2e-5,0.296374 -0.396965,-0.150927 -0.524393,-0.119941 -0.590535,0.143593 -0.04654,0.185423 -0.0022,0.29621 0.189596,0.473981 0.224829,0.208365 0.341319,0.528269 0.192363,0.528269 -0.03187,0 -0.184901,-0.106815 -0.340044,-0.237354 l -0.282079,-0.237354 -0.479307,0.356991 c -0.316972,0.236086 -0.428712,0.367472 -0.329925,0.387937 0.218174,0.04519 0.18246,0.177139 -0.06597,0.243715 -0.3432,0.09198 -1.636966,0.06645 -1.794567,-0.03538 -0.07896,-0.05104 -0.100499,-0.09686 -0.04785,-0.101856 0.05264,-0.0049 -0.162709,-0.06636 -0.478553,-0.136382 -0.315843,-0.07002 -0.660398,-0.15779 -0.76568,-0.195045 -0.105285,-0.03725 0.02393,0.08363 0.287131,0.268629 0.66388,0.466632 1.287683,1.121753 1.068128,1.121753 -0.09191,0 -0.391363,-0.167428 -0.665467,-0.372066 -0.716626,-0.534991 -1.218107,-0.76348 -2.259012,-1.029258 -1.141167,-0.291375 -2.892961,-0.400563 -3.743121,-0.233304 -0.808712,0.159104 -1.924079,0.597126 -2.727968,1.071314 -1.413658,0.833873 -1.387161,0.821378 -1.387161,0.654145 z m -1.627074,-1.162654 -0.239274,-0.102593 0.223854,-0.05952 c 0.2074,-0.05514 0.186427,-0.08559 -0.285362,-0.414426 L 16.133083,23.3995 15.886802,23.635452 c -0.135453,0.129775 -0.276225,0.235952 -0.312825,0.235952 -0.157438,0 -0.04626,-0.315069 0.18768,-0.53188 0.22401,-0.207604 0.241083,-0.26446 0.143637,-0.47833 -0.09745,-0.213889 -0.150393,-0.235255 -0.445648,-0.179865 -0.411494,0.07719 -0.429328,-0.04417 -0.04792,-0.326154 0.24455,-0.180804 0.28713,-0.27573 0.28713,-0.640116 0,-0.235305 0.03457,-0.427829 0.0768,-0.427829 0.04225,0 0.155774,0.226115 0.252294,0.502478 0.557485,1.596247 0.90114,1.830944 2.685772,1.83423 0.985519,0.0018 1.214029,-0.02796 1.610082,-0.209766 0.410934,-0.188643 0.458101,-0.193926 0.430033,-0.04819 -0.05356,0.278046 -0.623794,0.578644 -1.340791,0.706778 -0.376781,0.06734 -0.634161,0.139392 -0.571954,0.160127 0.06219,0.02073 0.08875,0.07709 0.059,0.125236 -0.07473,0.120914 -1.663042,0.09885 -1.957006,-0.02719 z M 28.476158,23.472862 C 27.874161,23.140728 27.473537,22.550437 27.46697,21.9859 l -0.0043,-0.363666 -0.195193,0.370054 c -0.512251,0.971145 -0.367304,-0.472728 0.207042,-2.062446 0.311418,-0.861967 0.698866,-1.458477 1.258392,-1.937411 0.493462,-0.422387 1.013535,-0.573483 1.697669,-0.493227 1.029706,0.120799 1.744112,0.626683 2.315999,1.640011 0.271713,0.48145 0.32054,0.52106 0.643789,0.522268 0.477418,0.0018 0.795053,0.09696 0.755044,0.226228 -0.05263,0.170023 -1.334601,0.818904 -1.624501,0.82225 -0.200934,0.0023 -0.405892,-0.147805 -0.877881,-0.643017 -0.587292,-0.616189 -1.204885,-1.083318 -1.204885,-0.911341 0,0.04429 0.08613,0.325592 0.19142,0.625137 0.204824,0.582761 0.244478,0.98387 0.105733,1.069613 -0.09149,0.05655 -0.20145,-0.156653 -0.20145,-0.390653 0,-0.07806 -0.09015,-0.351483 -0.200332,-0.607615 -0.251824,-0.585375 -0.705717,-0.850185 -1.145217,-0.668138 -0.392117,0.162422 -1.025145,0.882225 -1.287877,1.464422 -0.194711,0.431465 -0.214561,0.578536 -0.153994,1.140932 0.110288,1.024039 0.66957,1.563424 1.530195,1.47575 0.5146,-0.05242 0.854288,-0.293914 1.14476,-0.813832 0.288019,-0.51553 0.4313,-0.512213 0.248551,0.0058 -0.172899,0.490045 -0.463359,0.820791 -0.874764,0.996091 -0.367709,0.156677 -1.052367,0.166953 -1.319089,0.01981 z m 3.122182,-4.55444 c -0.312069,-0.575392 -1.05661,-0.908405 -1.68075,-0.751758 -0.347053,0.08711 -0.304233,0.249178 0.06599,0.249814 0.463342,7.94e-4 0.948868,0.159289 1.314639,0.429146 0.386533,0.285175 0.419653,0.293208 0.300111,0.0728 z m -2.369746,-0.454623 c 0.0303,-0.07896 0.01799,-0.143565 -0.02738,-0.143565 -0.04536,0 -0.107263,0.06461 -0.137556,0.143565 -0.0303,0.07895 -0.01799,0.143565 0.02738,0.143565 0.04536,0 0.107263,-0.06461 0.137557,-0.143565 z m -10.993423,4.846708 c -0.702789,-0.434108 -0.935705,-0.986181 -0.934363,-2.214679 7.44e-4,-0.682438 0.05175,-1.051667 0.204474,-1.480189 0.111911,-0.31402 0.203484,-0.585641 0.203484,-0.603601 0,-0.135033 -0.703218,0.428804 -1.196311,0.959196 -0.70961,0.76329 -0.884432,0.798868 -1.737058,0.353503 -0.789976,-0.412638 -1.023741,-0.66036 -0.903547,-0.957489 l 0.09445,-0.233479 0.06391,0.215348 c 0.05565,0.187518 0.128216,0.215348 0.561525,0.215348 0.48656,0 0.502587,-0.0091 0.721172,-0.406768 0.392335,-0.713875 0.848989,-1.198643 1.368053,-1.452279 0.612282,-0.299188 1.530222,-0.412432 2.023497,-0.249637 0.461874,0.152431 1.309938,0.985982 1.614309,1.586683 0.470794,0.929146 1.059727,3.260652 0.801927,3.174718 -0.113715,-0.0379 -0.324829,-0.425819 -0.85255,-1.56657 -0.197887,-0.427761 -0.531628,-0.954811 -0.741647,-1.171223 -0.330976,-0.341048 -0.436068,-0.393069 -0.78873,-0.39043 -0.50634,0.0038 -0.688333,0.138751 -0.933025,0.691914 -0.414775,0.937668 -0.331813,2.446106 0.162935,2.96251 0.303602,0.316892 0.886226,0.497963 1.33274,0.414198 0.417504,-0.07832 0.858814,-0.45954 1.007278,-0.870112 0.13766,-0.380692 0.272386,-0.432691 0.272386,-0.105124 0,0.302082 -0.361707,0.821431 -0.758185,1.088616 -0.412196,0.277778 -1.170443,0.29668 -1.586713,0.03955 z m -1.770638,-4.517371 c 0,-0.10839 -0.04308,-0.17045 -0.09571,-0.137916 -0.05264,0.03253 -0.09571,0.121213 -0.09571,0.197068 0,0.07585 0.04308,0.137916 0.09571,0.137916 0.05264,0 0.09571,-0.08867 0.09571,-0.197068 z m 1.325095,-0.396989 c 0.615064,-0.09892 0.681601,-0.128689 0.532041,-0.238051 -0.276622,-0.202271 -1.118675,-0.158561 -1.413532,0.07338 -0.310615,0.244329 -0.329752,0.419919 -0.03683,0.337975 0.11844,-0.03314 0.531688,-0.111128 0.918326,-0.173299 z m 0.988633,3.913816 c -0.170065,-0.181024 -0.208104,-0.336441 -0.208104,-0.850229 0,-0.568178 0.02037,-0.634038 0.211571,-0.684038 l 0.211571,-0.05533 -0.207108,-0.220456 c -0.186262,-0.198267 -0.196636,-0.261714 -0.103065,-0.630361 0.14695,-0.578938 0.360433,-0.497899 0.58457,0.221909 0.20011,0.642639 0.185164,1.718802 -0.03024,2.176816 -0.150504,0.320033 -0.194006,0.323983 -0.459208,0.04169 z m 10.153134,0.105986 c -0.05579,-0.06806 -0.131746,-0.410114 -0.168807,-0.760125 -0.06351,-0.599807 -0.05533,-0.640211 0.142468,-0.702988 l 0.209854,-0.0666 -0.199739,-0.139902 c -0.109863,-0.07694 -0.199739,-0.183313 -0.199739,-0.236371 0,-0.16707 0.402933,-1.041199 0.479945,-1.041199 0.04044,0 0.142812,0.173149 0.227489,0.384778 0.18967,0.474034 0.209607,2.035971 0.03051,2.389968 -0.138755,0.274251 -0.374659,0.352187 -0.521974,0.172445 z M 27.09339,20.076675 c -0.01093,-0.658887 1.205276,-2.617831 1.625373,-2.617831 0.168327,0 0.09682,0.139577 -0.343619,0.670649 -0.239798,0.289152 -0.625162,0.913355 -0.85636,1.38712 -0.358713,0.735067 -0.421098,0.817201 -0.425394,0.560062 z M 20.82231,19.92338 c -0.07562,-0.171082 -0.219223,-0.504872 -0.319102,-0.741753 -0.09988,-0.236884 -0.371094,-0.662427 -0.602702,-0.945653 -0.691707,-0.845869 -0.708038,-0.872841 -0.528488,-0.872841 0.44603,0 1.462283,1.556011 1.64088,2.512392 0.08244,0.44151 -0.0067,0.463888 -0.190588,0.04786 z m -6.851103,6.458335 c 0.107965,-0.484656 0.196283,-0.991886 0.196283,-1.127177 0,-0.2428 -0.0062,-0.240701 -0.484011,0.162138 -0.395778,0.333724 -0.47378,0.448882 -0.427894,0.631711 0.09177,0.365637 0.449333,1.284525 0.485694,1.248166 0.01851,-0.01851 0.121973,-0.430183 0.229928,-0.914838 z m 20.678255,-0.488658 c 0,-0.04619 -0.06461,-0.137608 -0.143566,-0.20314 -0.155836,-0.129332 -0.175316,-0.09839 -0.08546,0.135737 0.0615,0.160264 0.229035,0.209568 0.229035,0.06741 z M 21.137351,13.36058 c -0.148365,-0.298984 -0.339771,-0.510872 -0.575521,-0.637102 -0.368467,-0.197292 -0.569419,-0.153368 -0.374246,0.08181 0.09334,0.112462 0.04478,0.159424 -0.275101,0.266053 l -0.388447,0.129481 0.839074,0.69212 0.839076,0.692122 0.07872,-0.388252 c 0.0645,-0.318022 0.03852,-0.469286 -0.143565,-0.836224 z m 6.501759,0.271133 c 0.276591,-0.167936 0.480572,-0.341456 0.453288,-0.3856 -0.02727,-0.04415 -0.202559,-0.130741 -0.389506,-0.192441 -0.319404,-0.105411 -0.330513,-0.122551 -0.184235,-0.284186 0.209782,-0.231808 9.2e-5,-0.309472 -0.353567,-0.130975 -0.55571,0.280447 -0.926263,1.062242 -0.792387,1.671777 l 0.06523,0.297008 0.349139,-0.335121 c 0.192025,-0.184318 0.575441,-0.472525 0.852032,-0.640462 z"
       id="path834"
       inkscape:connector-curvature="0" />
  </g>
</svg>
