<?xml version="1.0" encoding="UTF-8" standalone="no"?>
<!-- Created with Inkscape (http://www.inkscape.org/) -->

<svg
   xmlns:dc="http://purl.org/dc/elements/1.1/"
   xmlns:cc="http://creativecommons.org/ns#"
   xmlns:rdf="http://www.w3.org/1999/02/22-rdf-syntax-ns#"
   xmlns:svg="http://www.w3.org/2000/svg"
   xmlns="http://www.w3.org/2000/svg"
   xmlns:sodipodi="http://sodipodi.sourceforge.net/DTD/sodipodi-0.dtd"
   xmlns:inkscape="http://www.inkscape.org/namespaces/inkscape"
   width="48px"
   height="48px"
   viewBox="0 0 48 48"
   version="1.1"
   id="SVGRoot"
   inkscape:version="0.92.4 (5da689c313, 2019-01-14)"
   sodipodi:docname="lsd-dream-emulatora.svg">
  <defs
     id="defs1995" />
  <sodipodi:namedview
     id="base"
     pagecolor="#ffffff"
     bordercolor="#666666"
     borderopacity="1.0"
     inkscape:pageopacity="0.0"
     inkscape:pageshadow="2"
     inkscape:zoom="18.083334"
     inkscape:cx="25.535113"
     inkscape:cy="21.230838"
     inkscape:document-units="px"
     inkscape:current-layer="layer1"
     showgrid="true"
     inkscape:window-width="1920"
     inkscape:window-height="1017"
     inkscape:window-x="-8"
     inkscape:window-y="-8"
     inkscape:window-maximized="1"
     inkscape:grid-bbox="true"
     inkscape:snap-global="true">
    <inkscape:grid
       type="xygrid"
       id="grid2562" />
  </sodipodi:namedview>
  <metadata
     id="metadata1998">
    <rdf:RDF>
      <cc:Work
         rdf:about="">
        <dc:format>image/svg+xml</dc:format>
        <dc:type
           rdf:resource="http://purl.org/dc/dcmitype/StillImage" />
        <dc:title></dc:title>
      </cc:Work>
    </rdf:RDF>
  </metadata>
  <g
     inkscape:label="Layer 1"
     inkscape:groupmode="layer"
     id="layer1">
    <path
       style="fill:#ffffff;stroke-width:0.08644405;fill-opacity:1"
       d="m 18.12771,13.899607 c -0.922073,0.01437 -1.914999,0.42368 -2.612749,1.109598 -0.914916,0.899404 -1.281887,1.69417 -1.288154,2.780373 -0.0035,0.614258 0.03186,0.811889 0.21864,1.213452 0.218512,0.469796 0.693769,1.03949 1.098666,1.313662 0.148648,0.100651 0.187779,0.184654 0.14576,0.317028 -0.04726,0.148855 -0.129087,0.180632 -0.462787,0.1822 -0.763375,0.0036 -1.42901,0.475762 -1.659843,1.17519 -0.226531,0.686401 0.131003,1.734978 0.725157,2.124453 l 0.280588,0.182199 0.10021,1.133284 c 0.223489,2.519132 1.059251,4.386648 2.694738,6.019889 1.371487,1.369603 2.949674,2.18368 4.926689,2.541691 1.880949,0.340612 4.026948,0.03391 5.711971,-0.816256 3.016437,-1.521944 5.099778,-4.83876 5.099778,-8.118834 V 24.394328 L 33.48535,24.0773 c 0.486118,-0.406346 0.745198,-0.933878 0.745198,-1.52137 0,-0.554794 -0.151586,-0.933122 -0.506515,-1.268112 -0.32752,-0.309127 -0.710219,-0.457611 -1.198876,-0.466432 -0.277299,-0.0049 -0.387188,-0.0498 -0.460967,-0.187666 -0.08133,-0.151953 -0.06542,-0.203576 0.09657,-0.317028 0.500741,-0.350732 0.791264,-0.686823 1.051295,-1.215274 0.255113,-0.518461 0.28322,-0.647425 0.276944,-1.31184 -0.0085,-0.889443 -0.21686,-1.492131 -0.768885,-2.226485 -0.873821,-1.162442 -2.343853,-1.819375 -3.638535,-1.625224 l -0.408132,0.06195 0.439102,0.249614 c 0.582214,0.332517 1.245041,1.007124 1.492219,1.517726 0.267229,0.552022 0.318262,1.211933 0.123896,1.596073 -0.179365,0.35448 -0.469488,0.68576 -0.597616,0.681427 -0.05115,-0.0017 -0.346883,-0.197067 -0.655921,-0.433635 -1.134784,-0.86867 -2.807467,-1.581084 -4.25437,-1.812891 -1.048886,-0.168044 -2.783668,-0.07012 -3.740566,0.211352 -1.287943,0.378846 -2.696769,1.120398 -3.576587,1.883948 l -0.289699,0.253258 -0.218639,-0.200419 c -0.298244,-0.274474 -0.537109,-0.821391 -0.539313,-1.237138 -0.0041,-0.769267 0.830569,-1.932485 1.774629,-2.474277 l 0.393552,-0.225929 -0.275122,-0.05466 c -0.200957,-0.0402 -0.408515,-0.05799 -0.621302,-0.05466 z m 2.128097,10.476502 c 0.925092,0.0069 1.817711,0.36855 2.50525,1.031251 0.411821,0.396943 0.426348,0.424564 0.287875,0.577575 -0.202326,0.223568 -0.982951,0.606636 -1.537767,0.754308 -0.562239,0.149651 -1.616079,0.151113 -2.157249,0.0018 -0.57126,-0.157595 -1.3943,-0.618318 -1.732722,-0.969304 l -0.29152,-0.302452 0.216818,-0.180379 c 0.376283,-0.312785 1.430629,-0.751004 2.066149,-0.859984 0.214788,-0.03684 0.429683,-0.05445 0.643166,-0.05284 z m 7.408252,0.0018 c 0.662736,-0.01758 1.360212,0.147516 2.069793,0.495584 0.380353,0.186574 0.768538,0.40229 0.863628,0.479186 0.169239,0.136848 0.163946,0.147644 -0.216818,0.477364 -0.456656,0.395423 -1.265449,0.815474 -1.814712,0.941974 -0.595447,0.137142 -1.62434,0.10422 -2.166359,-0.06924 -0.512055,-0.163857 -1.326249,-0.578148 -1.464888,-0.745198 -0.120566,-0.145274 0.680744,-0.916357 1.253536,-1.206163 0.465667,-0.235607 0.960357,-0.359841 1.47582,-0.37351 z m -3.673152,2.421438 a 1.3992962,1.3992962 0 0 1 1.399296,1.399296 1.3992962,1.3992962 0 0 1 -1.399296,1.399296 1.3992962,1.3992962 0 0 1 -1.399296,-1.399296 1.3992962,1.3992962 0 0 1 1.399296,-1.399296 z"
       id="path837"
       inkscape:connector-curvature="0" />
    <circle
       style="opacity:1;vector-effect:none;fill:#ffffff;fill-opacity:1;fill-rule:evenodd;paint-order:normal"
       id="path848"
       cx="21"
       cy="25.5"
       r="1" />
    <circle
       style="opacity:1;vector-effect:none;fill:#ffffff;fill-opacity:1;fill-rule:evenodd;paint-order:normal"
       id="path850"
       cx="27"
       cy="25.5"
       r="1" />
  </g>
</svg>
