<?xml version="1.0" encoding="UTF-8" standalone="no"?>
<!-- Created with Inkscape (http://www.inkscape.org/) -->

<svg
   xmlns:dc="http://purl.org/dc/elements/1.1/"
   xmlns:cc="http://creativecommons.org/ns#"
   xmlns:rdf="http://www.w3.org/1999/02/22-rdf-syntax-ns#"
   xmlns:svg="http://www.w3.org/2000/svg"
   xmlns="http://www.w3.org/2000/svg"
   xmlns:xlink="http://www.w3.org/1999/xlink"
   xmlns:sodipodi="http://sodipodi.sourceforge.net/DTD/sodipodi-0.dtd"
   xmlns:inkscape="http://www.inkscape.org/namespaces/inkscape"
   width="48px"
   height="48px"
   viewBox="0 0 48 48"
   version="1.1"
   id="SVGRoot"
   inkscape:version="0.92.4 (5da689c313, 2019-01-14)"
   sodipodi:docname="monika-after-storya.svg"
   inkscape:export-filename="C:\Users\Admin\Documents\Rainmeter\Skins\Honeycomb-NG\@Resources\Images\openshot.png"
   inkscape:export-xdpi="512"
   inkscape:export-ydpi="512">
  <defs
     id="defs1995">
    <linearGradient
       gradientUnits="userSpaceOnUse"
       y2="50"
       x2="90"
       y1="20"
       x1="60"
       xlink:href="#WhiteTransparent-4"
       id="IcecapTip-6"
       gradientTransform="matrix(0.9965784,0,0,0.9962666,-89.841948,-62.996045)" />
    <linearGradient
       gradientUnits="userSpaceOnUse"
       id="WhiteTransparent-4">
      <stop
         id="stop7606-4"
         offset="0"
         style="stop-color:white;stop-opacity:1" />
      <stop
         id="stop7608-7"
         offset="1"
         style="stop-color:white;stop-opacity:0" />
    </linearGradient>
  </defs>
  <sodipodi:namedview
     id="base"
     pagecolor="#ffffff"
     bordercolor="#666666"
     borderopacity="1.0"
     inkscape:pageopacity="0.0"
     inkscape:pageshadow="2"
     inkscape:zoom="19.489887"
     inkscape:cx="20.853452"
     inkscape:cy="18.674668"
     inkscape:document-units="px"
     inkscape:current-layer="layer1"
     showgrid="false"
     inkscape:window-width="1920"
     inkscape:window-height="1017"
     inkscape:window-x="-8"
     inkscape:window-y="-8"
     inkscape:window-maximized="1"
     inkscape:grid-bbox="true"
     inkscape:snap-global="true">
    <inkscape:grid
       type="xygrid"
       id="grid2562" />
  </sodipodi:namedview>
  <metadata
     id="metadata1998">
    <rdf:RDF>
      <cc:Work
         rdf:about="">
        <dc:format>image/svg+xml</dc:format>
        <dc:type
           rdf:resource="http://purl.org/dc/dcmitype/StillImage" />
        <dc:title></dc:title>
      </cc:Work>
    </rdf:RDF>
  </metadata>
  <g
     inkscape:label="Layer 1"
     inkscape:groupmode="layer"
     id="layer1">
    <path
       style="fill:#b4b4b4;stroke:none;stroke-width:1px;stroke-linecap:butt;stroke-linejoin:miter;stroke-opacity:1"
       d="M 42 32.310547 L 41.060547 34.691406 L 41.060547 36.681641 C 41.638353 36.316757 41.999618 35.688083 42 35 L 42 32.310547 z M 40.802734 34.841797 L 40.228516 34.933594 L 40.087891 35.244141 L 40.087891 37.244141 L 40.798828 36.84375 L 40.802734 34.841797 z M 10.703125 36.128906 L 9.8574219 36.337891 L 9.8574219 38.337891 L 11.380859 39.195312 L 11.380859 37.195312 L 10.703125 36.128906 z M 35.46875 37.841797 L 20.451172 42.296875 L 20.451172 44.296875 L 23.019531 45.742188 C 23.628341 46.084573 24.371659 46.084573 24.980469 45.742188 L 35.474609 39.839844 L 35.46875 37.841797 z "
       id="path817" />
    <path
       style="fill:#ffffff;fill-opacity:1;stroke-width:0.07298263"
       d="M 24.013672 5.3554688 C 24.023206 5.3182315 23.78163 5.4240728 23.507812 5.59375 C 22.566039 6.1773267 22.193337 6.7816302 22.242188 7.6464844 C 22.262088 7.9987388 22.32593 8.2442477 22.46875 8.5195312 C 22.657376 8.8831494 22.71857 9.1798655 22.625 9.2734375 C 22.6017 9.296735 22.357316 9.2526082 22.080078 9.1757812 C 21.802839 9.0989581 21.483938 9.0398287 21.373047 9.0429688 C 21.260973 9.0461999 21.376651 9.0928285 21.632812 9.1484375 C 22.297176 9.2926677 23.086073 9.551651 23.234375 9.6738281 C 23.35394 9.7723701 23.351422 9.7758218 23.214844 9.7304688 C 22.593473 9.5241399 20.81219 9.1816406 20.355469 9.1816406 C 19.596195 9.1816406 19.643461 9.3465462 20.478516 9.609375 C 20.739427 9.6914944 20.936096 9.7627381 20.916016 9.7675781 C 20.895944 9.7724061 20.502631 9.8018174 20.041016 9.8339844 C 19.327291 9.8837238 19.097413 9.9327996 18.507812 10.164062 C 18.126477 10.313636 17.708612 10.516494 17.578125 10.615234 C 17.447643 10.713968 17.16218 10.854241 16.945312 10.925781 C 16.526446 11.063967 15.808594 11.488243 15.808594 11.597656 C 15.808594 11.633606 15.705781 11.664062 15.582031 11.664062 C 15.164587 11.664063 13.479059 12.624467 13.257812 12.988281 C 13.060158 13.313362 12.951639 14.007876 12.974609 14.802734 C 12.993622 15.460486 12.978452 15.53914 12.685547 16.339844 C 11.981247 18.26516 11.775393 20.337715 12.113281 22.103516 C 12.222028 22.671851 12.589642 23.883004 12.638672 23.833984 C 12.654232 23.818399 12.619797 23.577042 12.560547 23.298828 C 12.384438 22.472042 12.283038 21.101422 12.330078 20.166016 C 12.376608 19.240484 12.508047 18.108049 12.585938 17.964844 C 12.611448 17.917881 12.636025 18.45869 12.640625 19.167969 C 12.649073 20.506191 12.75044 21.269581 13.048828 22.244141 C 13.269341 22.964366 13.748867 23.828947 14.148438 24.228516 L 14.503906 24.585938 L 14.382812 24.953125 C 14.314572 25.158589 14.020512 25.644637 13.716797 26.052734 C 13.127259 26.844893 12.304952 28.184469 12.128906 28.640625 C 12.068508 28.797123 11.964604 29.235854 11.896484 29.617188 C 11.810858 30.09681 11.671732 30.524284 11.447266 31.003906 C 10.643383 32.721526 10.363923 33.596997 9.9726562 35.632812 C 9.9253925 35.878731 9.8898156 36.110292 9.8574219 36.337891 L 11.380859 37.195312 C 11.304187 36.811735 11.255259 36.399051 11.255859 35.894531 C 11.257596 34.668853 11.42997 33.82054 11.837891 33.046875 C 12.132326 32.488451 12.262464 32.337641 12.986328 31.695312 C 14.671289 30.200142 14.896792 29.92297 15.359375 28.779297 C 15.44056 28.578595 15.627857 28.134163 15.775391 27.792969 C 15.922924 27.451776 16.169149 26.848429 16.324219 26.451172 L 16.607422 25.728516 L 16.146484 24.955078 C 15.485391 23.845615 15.296803 23.486328 15.376953 23.486328 C 15.415712 23.486328 15.366365 23.365042 15.265625 23.216797 C 15.16489 23.068552 15.094085 22.935202 15.109375 22.919922 C 15.124652 22.904643 15.243044 22.948395 15.373047 23.015625 C 15.599593 23.132834 15.607788 23.131445 15.554688 23.001953 C 15.435754 22.712055 15.433948 22.619192 15.542969 22.417969 C 15.605166 22.303348 15.656403 22.253761 15.658203 22.306641 C 15.660111 22.369291 15.713574 22.385619 15.808594 22.355469 C 15.917094 22.321038 15.954384 22.342826 15.958984 22.441406 C 15.962334 22.518056 15.980693 22.537075 16.001953 22.484375 C 16.045513 22.376425 16.171875 22.361907 16.171875 22.464844 C 16.171875 22.504221 16.091287 22.555208 15.992188 22.580078 L 15.8125 22.626953 L 15.951172 22.896484 C 16.173947 23.333151 16.256675 23.374242 16.666016 23.238281 C 17.215585 23.055741 17.31681 22.959106 17.28125 22.654297 C 17.26027 22.474565 17.213259 22.392225 17.130859 22.390625 C 17.02827 22.388715 17.0318 22.377227 17.146484 22.310547 C 17.27365 22.236629 17.271182 22.224015 17.109375 22.050781 C 16.88726 21.812973 16.594455 21.662109 16.349609 21.662109 C 16.140095 21.662109 16.031302 21.559095 15.816406 21.152344 C 15.598051 20.739055 15.561439 20.568359 15.693359 20.568359 C 15.873505 20.568359 15.827742 20.423462 15.644531 20.414062 C 15.533161 20.408322 15.518109 20.394697 15.599609 20.373047 C 15.695679 20.347545 15.712067 20.280624 15.679688 20.039062 L 15.638672 19.736328 L 15.851562 19.900391 C 16.27969 20.232292 16.716433 20.495355 17.042969 20.617188 C 17.525797 20.797339 17.697207 20.922322 17.900391 21.244141 C 18.116933 21.587117 18.186714 21.565852 18.035156 21.203125 L 17.925781 20.941406 L 18.330078 21.121094 C 18.843045 21.347955 19.748047 21.601058 19.748047 21.517578 C 19.748047 21.48269 19.674254 21.430624 19.583984 21.402344 C 19.338079 21.325362 18.791374 20.932211 18.833984 20.863281 C 18.854426 20.830191 19.209203 20.799269 19.621094 20.792969 C 20.032995 20.786689 20.491526 20.75263 20.640625 20.71875 L 20.912109 20.658203 L 20.716797 20.923828 C 20.610047 21.069814 20.56901 21.147836 20.625 21.097656 C 20.756505 20.979845 20.868081 20.979845 20.800781 21.097656 C 20.772133 21.147824 20.851888 21.092511 20.978516 20.974609 C 21.206053 20.762985 21.208984 20.761327 21.208984 20.927734 C 21.208984 21.069284 21.226419 21.082159 21.318359 21.005859 C 21.409644 20.930068 21.427734 20.94021 21.427734 21.066406 C 21.427734 21.149608 21.376863 21.24633 21.314453 21.28125 C 21.213316 21.337844 21.216325 21.38425 21.34375 21.705078 L 21.486328 22.064453 L 22.044922 22.046875 C 22.707322 22.02602 22.865001 21.955081 23.007812 21.613281 C 23.106162 21.377914 23.10315 21.346677 22.982422 21.248047 C 22.858341 21.146677 22.860964 21.142751 23.015625 21.175781 C 23.124741 21.199071 23.179688 21.177555 23.179688 21.109375 C 23.179687 21.052929 23.215266 21.005859 23.259766 21.005859 C 23.309931 21.005859 23.329727 21.10719 23.310547 21.271484 L 23.279297 21.537109 L 23.451172 21.335938 C 23.54616 21.225508 23.640976 21.150732 23.660156 21.169922 C 23.67936 21.18912 23.757644 21.676401 23.833984 22.253906 C 23.964255 23.239775 23.991466 23.548336 24.09375 25.082031 L 24.134766 25.689453 L 23.492188 26.328125 C 23.139138 26.678748 22.696638 27.069134 22.507812 27.197266 C 21.903504 27.607308 20.629539 28.304688 20.484375 28.304688 C 20.251713 28.304687 18.691652 27.688145 18.25 27.421875 C 17.668423 27.07124 17.350832 26.782752 16.978516 26.271484 C 16.56609 25.705163 16.501853 25.744021 16.894531 26.322266 C 17.21177 26.789414 17.580637 27.121824 18.197266 27.498047 C 18.627665 27.760642 18.649525 27.832937 18.447266 28.365234 C 18.272323 28.825648 17.947298 29.293586 17.353516 29.9375 C 17.03161 30.286584 16.986956 30.349192 17.220703 30.128906 C 17.650786 29.72359 18.30444 28.928945 18.460938 28.621094 C 18.525111 28.494852 18.59831 28.254858 18.625 28.087891 C 18.663891 27.844695 18.696686 27.794687 18.791016 27.835938 C 18.855782 27.864253 19.097742 27.956916 19.328125 28.041016 C 19.782702 28.20695 19.789594 28.226053 19.552734 28.705078 C 19.376282 29.061928 19.30652 29.263003 19.375 29.220703 C 19.41026 29.198912 19.530719 28.966316 19.642578 28.703125 C 19.799203 28.334602 19.873981 28.235254 19.962891 28.271484 C 20.465158 28.4762 20.447792 28.478704 21.152344 28.101562 L 21.828125 27.740234 L 22.107422 28.099609 L 22.386719 28.460938 L 22.078125 28.859375 C 21.908963 29.078643 21.743274 29.275675 21.708984 29.296875 C 21.674624 29.318076 21.646484 29.439979 21.646484 29.568359 C 21.646484 29.767356 21.597707 29.830864 21.314453 30.001953 C 20.908631 30.247079 20.28529 30.461701 19.707031 30.556641 C 18.752612 30.713339 18.209143 31.112606 17.832031 31.929688 C 17.594791 32.443826 17.610012 33.642635 17.865234 34.486328 C 18.009514 34.963202 18.026919 35.093237 17.949219 35.123047 C 17.7988 35.180758 17.832551 35.289988 18.015625 35.335938 C 18.132522 35.365278 18.239061 35.510436 18.380859 35.835938 C 18.490867 36.088476 18.582041 36.354401 18.582031 36.425781 C 18.582031 36.497171 18.484554 36.746025 18.367188 36.978516 C 18.018715 37.668843 17.779297 38.613251 17.779297 39.289062 C 17.779297 39.956469 17.936668 40.370683 18.398438 40.910156 C 18.674518 41.232701 19.411401 41.729169 19.957031 41.960938 C 20.075188 42.011127 20.259269 42.143639 20.451172 42.296875 L 23.019531 43.742188 A 2.0002 2.0002 0 0 0 24.980469 43.742188 L 35.46875 37.841797 C 35.352161 37.657245 35.236841 37.411531 35.085938 37.025391 C 35.007503 36.824688 34.706452 36.151476 34.417969 35.529297 C 33.526027 33.605635 32.365974 31.025461 31.955078 30.054688 C 31.929588 29.994476 32.120147 30.136948 32.378906 30.371094 C 32.637664 30.605242 33.165628 31.009168 33.550781 31.267578 C 34.376553 31.821607 34.478113 31.923022 34.78125 32.5 C 34.907825 32.740839 34.988438 32.856207 34.960938 32.755859 C 34.793431 32.143992 34.439101 31.744571 33.488281 31.099609 C 33.203553 30.906477 32.721892 30.544652 32.419922 30.294922 C 31.943111 29.900597 31.821945 29.746744 31.492188 29.126953 C 31.01089 28.222329 30.546939 27.760966 29.693359 27.337891 C 29.093528 27.040582 29.037627 27.027344 28.398438 27.027344 C 27.778661 27.027344 27.710869 27.041961 27.460938 27.232422 C 27.167816 27.455816 27.071381 27.450519 26.628906 27.189453 C 26.383527 27.044703 26.376449 27.0276 26.417969 26.705078 C 26.512957 25.967619 26.668554 23.722274 26.646484 23.414062 C 26.625408 23.119989 26.666427 23.017833 27.042969 22.429688 C 28.193099 20.633199 28.524527 19.856347 28.757812 18.396484 C 28.880643 17.627834 28.847686 17.419148 28.300781 15.402344 C 28.144406 14.825593 28.055379 14.370426 28.099609 14.384766 C 28.14361 14.399016 28.220061 14.539637 28.269531 14.697266 C 28.319011 14.854897 28.456608 15.279362 28.576172 15.640625 L 28.792969 16.298828 L 28.751953 15.857422 C 28.71904 15.506643 28.735185 15.397452 28.828125 15.320312 C 29.00304 15.175146 29.28734 15.388997 29.375 15.732422 C 29.81267 17.447828 29.989848 18.579388 30.115234 20.458984 C 30.160744 21.141372 30.186948 22.092535 30.173828 22.574219 L 30.148438 23.451172 L 29.941406 22.691406 C 29.827432 22.273315 29.717562 21.754362 29.695312 21.539062 C 29.673078 21.323765 29.622964 21.127596 29.583984 21.103516 C 29.453989 21.023173 29.600227 22.752289 29.789062 23.523438 C 29.966448 24.247776 30.510807 25.716072 30.628906 25.789062 C 30.662757 25.809994 30.627491 25.685101 30.550781 25.511719 C 30.374347 25.112864 30.287658 24.023754 30.267578 21.990234 C 30.259348 21.147286 30.233377 20.385252 30.210938 20.294922 C 30.140382 20.011272 30.236232 20.113487 30.519531 20.623047 C 30.885552 21.281395 31.531434 22.23898 32.058594 22.90625 C 32.349437 23.274387 32.580413 23.676029 32.771484 24.144531 C 32.926995 24.525866 33.143233 25.017509 33.251953 25.238281 C 33.360672 25.459055 33.491356 25.869408 33.541016 26.150391 C 33.59064 26.431375 33.693461 26.878161 33.769531 27.142578 C 33.905169 27.613821 34.031606 27.779796 34.853516 28.558594 C 34.895876 28.598736 35.122111 28.927799 35.355469 29.289062 C 35.588837 29.650328 35.932204 30.13405 36.119141 30.363281 C 36.306086 30.592511 36.626541 31.084357 36.832031 31.457031 C 37.525521 32.715514 38.236984 33.708765 38.882812 34.324219 C 39.310424 34.73172 39.692445 35.031175 40.087891 35.244141 L 40.802734 34.841797 C 40.062325 34.785737 39.574718 34.502776 39.078125 33.808594 C 38.592737 33.13006 38.546851 32.992873 38.925781 33.349609 C 39.521245 33.910206 40.324103 34.411242 41.060547 34.691406 A 2.0002 2.0002 0 0 0 42 33 L 42 32.310547 C 41.505231 31.857693 40.924446 31.259506 40.474609 30.701172 C 39.881679 29.965226 39.676225 29.625886 38.96875 28.224609 L 38.541016 27.378906 L 38.59375 26.4375 C 38.646884 25.456663 38.586343 24.430887 38.392578 23.03125 C 37.965227 19.944535 37.016087 17.721213 34.818359 14.65625 C 34.126225 13.691 32.494239 11.605629 31.863281 10.878906 L 31.607422 10.582031 L 31.607422 12.615234 L 31.609375 14.646484 L 31.419922 14.851562 C 31.315997 14.96475 31.157819 15.164461 31.068359 15.294922 C 30.854694 15.606459 30.659599 15.600928 29.966797 15.267578 C 29.134837 14.867269 28.359948 14.320616 28.007812 13.884766 C 27.701302 13.505383 27.446568 12.893987 27.517578 12.708984 C 27.536646 12.659293 27.456691 12.55057 27.341797 12.46875 C 27.201175 12.368619 27.091419 12.187955 27.005859 11.916016 C 26.915603 11.629057 26.813111 11.467262 26.652344 11.355469 C 26.527858 11.268908 26.262987 11.052759 26.0625 10.875 C 25.862013 10.697241 25.633791 10.52856 25.556641 10.5 C 25.334571 10.417849 26.10665 10.038381 27.261719 9.6621094 C 28.400941 9.2910007 28.862363 9.1979765 29.802734 9.1484375 C 30.516858 9.1108232 30.869439 8.973217 30.824219 8.7519531 C 30.770967 8.4917511 29.425958 8.7083982 27.849609 9.2304688 C 27.548561 9.3301752 26.858302 9.6222546 26.316406 9.8808594 C 25.157909 10.433722 25.320209 10.251423 26.546875 9.6210938 C 27.735196 9.010466 28.245878 8.8372198 29.654297 8.5625 C 29.765286 8.5408507 29.972786 8.4941214 30.113281 8.4589844 L 30.367188 8.3945312 L 30.144531 8.3867188 C 29.994681 8.3817113 29.850729 8.3034639 29.707031 8.1503906 C 29.328861 7.7475412 28.940073 7.5039062 28.677734 7.5039062 C 28.46736 7.5039062 28.360029 7.4294576 27.939453 6.9824219 C 27.253164 6.2529524 27.025013 6.1620405 25.919922 6.1796875 C 24.942228 6.1953041 24.814579 6.2514274 24.572266 6.7832031 C 24.505926 6.928782 24.271149 7.2126639 24.050781 7.4140625 C 23.830421 7.6154623 23.606607 7.8599543 23.554688 7.9570312 C 23.50274 8.0541069 23.357306 8.1635369 23.230469 8.2011719 C 23.101832 8.2393355 22.93086 8.3734847 22.84375 8.5039062 L 22.6875 8.7382812 L 22.558594 8.4511719 C 22.363109 8.0176624 22.438145 7.3548675 22.748047 6.7734375 C 22.979008 6.3401006 23.521954 5.7196423 23.912109 5.4433594 C 23.979239 5.3958236 24.010494 5.3678812 24.013672 5.3554688 z M 26.277344 6.6289062 C 26.335179 6.6289062 26.402944 6.6610249 26.427734 6.7011719 C 26.452549 6.7413059 26.404946 6.7734375 26.322266 6.7734375 C 26.239653 6.7734375 26.171875 6.7413189 26.171875 6.7011719 C 26.171875 6.6610379 26.219464 6.6289062 26.277344 6.6289062 z M 25.591797 6.9199219 C 25.634337 6.9199219 25.64979 6.9539936 25.625 6.9941406 C 25.60017 7.0342746 25.630769 7.0664062 25.693359 7.0664062 C 25.8412 7.0664063 25.839935 7.1832384 25.691406 7.2402344 C 25.498301 7.3143166 25.424123 7.2912256 25.470703 7.1699219 C 25.495123 7.1064287 25.515625 7.0231911 25.515625 6.9863281 C 25.515625 6.9494651 25.549287 6.9199219 25.591797 6.9199219 z M 24.724609 7.0039062 C 24.743824 7.0270585 24.732463 7.0989595 24.689453 7.2128906 C 24.643995 7.3333101 24.582081 7.4316406 24.550781 7.4316406 C 24.4618 7.4316406 24.482608 7.1775341 24.580078 7.0800781 C 24.655265 7.0049065 24.705395 6.980754 24.724609 7.0039062 z M 25.095703 7.0332031 C 25.257517 7.0263903 25.294922 7.0574959 25.294922 7.1894531 C 25.294922 7.3264478 25.259574 7.3487575 25.074219 7.3359375 C 24.901465 7.3239955 24.856857 7.2908048 24.873047 7.1816406 C 24.887349 7.0852899 24.957512 7.0389631 25.095703 7.0332031 z M 26.798828 7.3691406 C 26.822022 7.3671881 26.833227 7.4061554 26.857422 7.4824219 C 26.892727 7.5936093 26.950758 7.6265875 27.068359 7.6015625 C 27.226204 7.5679567 27.226217 7.5694676 27.087891 7.6816406 C 26.978417 7.7704376 26.933945 7.7751161 26.890625 7.7050781 C 26.846026 7.6329133 26.816321 7.6329081 26.744141 7.7050781 C 26.525055 7.9241928 26.467082 7.7533709 26.673828 7.4980469 C 26.741859 7.4140107 26.775634 7.3710932 26.798828 7.3691406 z M 26.167969 7.4433594 C 26.281155 7.4267854 26.324524 7.449459 26.302734 7.515625 C 26.285077 7.5691807 26.195156 7.6252639 26.103516 7.6386719 C 25.99033 7.6552459 25.94696 7.6306191 25.96875 7.5644531 C 25.986398 7.5108974 26.076329 7.4567674 26.167969 7.4433594 z M 24.220703 7.6992188 C 24.292734 7.6625242 24.295279 7.7677598 24.199219 7.9472656 C 24.122034 8.0914886 23.982422 8.1404506 23.982422 8.0234375 C 23.982422 7.9877436 24.04603 7.8799183 24.125 7.7851562 C 24.163283 7.7391847 24.196693 7.7114503 24.220703 7.6992188 z M 27.515625 7.9179688 C 27.640158 7.8701859 28.045012 7.9701277 27.957031 8.0253906 C 27.777783 8.1252016 27.630859 8.149628 27.630859 8.078125 C 27.630859 8.034971 27.581724 8.0179136 27.521484 8.0410156 C 27.461306 8.0641176 27.412109 8.0541183 27.412109 8.0195312 C 27.412109 7.9849574 27.458815 7.9397627 27.515625 7.9179688 z M 28.261719 8.109375 C 28.284029 8.1312602 28.290904 8.1991076 28.277344 8.2597656 C 28.255951 8.3553136 28.233643 8.3564401 28.113281 8.2675781 C 27.985894 8.1735363 27.98411 8.1607615 28.097656 8.1171875 C 28.165763 8.0910485 28.239829 8.08749 28.261719 8.109375 z M 31.310547 8.7363281 C 31.289847 8.718835 31.313464 8.9319488 31.394531 9.6015625 C 31.420041 9.8122985 31.455069 9.9863281 31.474609 9.9863281 C 31.523983 9.9863281 31.420683 9.0503031 31.345703 8.8222656 C 31.329566 8.7731846 31.317447 8.7421592 31.310547 8.7363281 z M 20.826172 8.9882812 C 20.776001 9.0085313 20.815668 9.0253906 20.916016 9.0253906 C 21.016446 9.0253906 21.058022 9.0085182 21.007812 8.9882812 C 20.957636 8.9680312 20.876382 8.9680312 20.826172 8.9882812 z M 23.326172 10.572266 C 23.386379 10.572266 23.484682 10.603658 23.544922 10.642578 C 23.642222 10.705518 23.642222 10.712891 23.544922 10.712891 C 23.484706 10.712891 23.386412 10.681498 23.326172 10.642578 C 23.228862 10.579638 23.228862 10.572266 23.326172 10.572266 z M 24.324219 11.158203 C 24.355146 11.146727 24.422959 11.158711 24.523438 11.197266 C 24.586688 11.221544 24.619906 11.270721 24.597656 11.306641 C 24.538551 11.402275 24.450724 11.3859 24.347656 11.261719 C 24.299533 11.203729 24.293292 11.169679 24.324219 11.158203 z M 24.966797 11.810547 C 25.026975 11.810547 25.076172 11.841126 25.076172 11.878906 C 25.076172 11.970936 24.962637 12.036816 24.904297 11.978516 C 24.822085 11.896317 24.853943 11.810547 24.966797 11.810547 z M 18.224609 11.955078 C 18.264769 11.955078 18.278696 11.989147 18.253906 12.029297 C 18.2291 12.069427 18.174926 12.101562 18.134766 12.101562 C 18.094736 12.101562 18.082632 12.069447 18.107422 12.029297 C 18.132228 11.989167 18.184449 11.955078 18.224609 11.955078 z M 28.853516 11.994141 C 28.780606 11.990601 28.617278 11.996586 28.361328 12.009766 C 27.939857 12.031466 27.581183 12.061492 27.564453 12.076172 C 27.506642 12.126892 28.471576 12.09176 28.798828 12.03125 C 28.90852 12.01096 28.926426 11.997681 28.853516 11.994141 z M 25.150391 12.101562 C 25.235449 12.101562 25.284556 12.135631 25.259766 12.175781 C 25.234948 12.215911 25.185761 12.248047 25.150391 12.248047 C 25.115006 12.248047 25.065806 12.215931 25.041016 12.175781 C 25.016198 12.135651 25.065361 12.101562 25.150391 12.101562 z M 17.513672 12.128906 C 17.542381 12.131637 17.560547 12.142992 17.560547 12.162109 C 17.560547 12.200268 17.484801 12.251191 17.394531 12.275391 C 17.156382 12.339231 17.080339 12.332269 17.162109 12.255859 C 17.244477 12.178894 17.427544 12.120713 17.513672 12.128906 z M 16.712891 12.142578 C 16.815675 12.131298 16.880725 12.151047 16.859375 12.185547 C 16.838055 12.220047 16.735523 12.248047 16.630859 12.248047 C 16.396526 12.248047 16.456892 12.170688 16.712891 12.142578 z M 32.158203 12.199219 C 32.190049 12.178083 32.492125 12.544884 33.320312 13.546875 C 34.605051 15.101228 35.656413 16.498288 36.119141 17.265625 C 37.23137 19.110033 37.744704 21.366691 37.771484 24.527344 C 37.776814 25.159557 37.768243 25.675781 37.751953 25.675781 C 37.735654 25.675781 37.654316 25.520744 37.572266 25.330078 C 37.490222 25.139411 37.188195 24.441615 36.900391 23.779297 C 36.612596 23.11698 36.181549 22.082576 35.941406 21.480469 C 35.391632 20.101999 35.298199 19.879476 34.943359 19.072266 C 34.665812 18.440876 33.927743 16.577395 33.029297 14.244141 C 32.795098 13.635918 32.482875 12.896498 32.335938 12.601562 C 32.217414 12.363664 32.139096 12.2119 32.158203 12.199219 z M 27.740234 12.691406 L 28.105469 12.791016 C 28.306172 12.845921 28.485816 12.894538 28.503906 12.898438 C 28.521996 12.902297 28.500361 12.869482 28.457031 12.826172 C 28.413729 12.782856 28.236005 12.7342 28.060547 12.71875 L 27.740234 12.691406 z M 25.730469 12.910156 C 25.767929 12.928761 25.810821 12.985254 25.832031 13.066406 C 25.855111 13.154972 25.867475 13.232534 25.859375 13.240234 C 25.826983 13.269931 25.660156 13.052759 25.660156 12.980469 C 25.660156 12.909857 25.693008 12.891551 25.730469 12.910156 z M 28.798828 12.96875 C 28.798828 13.018438 29.385672 13.261867 30.332031 13.607422 C 30.67069 13.731108 30.806988 13.728844 31.064453 13.595703 C 31.381945 13.431516 31.329929 13.376447 30.882812 13.404297 C 30.437878 13.432016 29.647887 13.273798 29.136719 13.054688 C 28.951383 12.975288 28.798828 12.93694 28.798828 12.96875 z M 21.898438 13.431641 C 21.918518 13.411558 21.956452 13.449898 21.982422 13.517578 C 22.008442 13.585267 22.012268 13.657664 21.992188 13.677734 C 21.972198 13.697817 21.936126 13.657524 21.910156 13.589844 C 21.884136 13.522155 21.878357 13.451711 21.898438 13.431641 z M 21.324219 13.917969 C 21.359482 13.930887 21.385772 13.971937 21.419922 14.046875 C 21.483862 14.187239 21.476206 14.21875 21.384766 14.21875 C 21.323046 14.21875 21.293569 14.250866 21.318359 14.291016 C 21.395798 14.416321 21.313537 14.370802 21.152344 14.199219 L 20.998047 14.035156 L 21.169922 13.955078 C 21.244397 13.919928 21.288956 13.905051 21.324219 13.917969 z M 26.248047 14 C 26.290587 14 26.30604 14.032116 26.28125 14.072266 C 26.25638 14.112396 26.220845 14.144531 26.203125 14.144531 C 26.185385 14.144531 26.171875 14.112416 26.171875 14.072266 C 26.171875 14.032136 26.205537 14 26.248047 14 z M 20.679688 14.181641 L 20.863281 14.351562 C 20.980761 14.459988 21.033376 14.571849 21.009766 14.662109 C 20.989506 14.739604 20.967084 14.802734 20.958984 14.802734 C 20.951105 14.802734 20.848358 14.697289 20.730469 14.568359 C 20.612599 14.439413 20.578227 14.381083 20.654297 14.439453 C 20.783297 14.538454 20.788618 14.532974 20.736328 14.363281 L 20.679688 14.181641 z M 17.951172 14.533203 C 17.982207 14.573199 17.998047 14.699582 17.998047 14.912109 C 17.998047 15.283631 17.923159 15.416108 17.814453 15.240234 C 17.789651 15.200104 17.691313 15.167969 17.595703 15.167969 C 17.500085 15.167969 17.401743 15.200084 17.376953 15.240234 C 17.267593 15.417138 17.195312 15.282844 17.195312 14.904297 C 17.195313 14.505851 17.197993 14.498656 17.322266 14.644531 C 17.505846 14.860018 17.726533 14.872462 17.814453 14.673828 C 17.874373 14.53851 17.920137 14.493207 17.951172 14.533203 z M 20.185547 14.546875 C 20.377992 14.546875 20.524314 14.596389 20.621094 14.693359 C 20.766709 14.839257 20.766697 14.839797 20.4375 14.841797 C 20.225661 14.843105 20.070253 14.801993 20.001953 14.726562 C 19.850774 14.559458 19.862673 14.546875 20.185547 14.546875 z M 19.5 14.572266 C 19.529659 14.588186 19.57302 14.646826 19.648438 14.757812 C 19.743653 14.897928 19.822266 15.029318 19.822266 15.048828 C 19.822266 15.068288 19.721894 15.081525 19.599609 15.078125 C 19.477322 15.074645 19.339279 15.10994 19.292969 15.15625 C 19.150891 15.298322 19.05213 15.251483 18.923828 14.982422 C 18.765347 14.650172 18.76772 14.625141 18.947266 14.804688 C 19.068224 14.925657 19.122674 14.936241 19.248047 14.869141 C 19.332203 14.824102 19.419003 14.724544 19.439453 14.646484 C 19.455618 14.584658 19.470341 14.556346 19.5 14.572266 z M 16.638672 14.619141 L 16.689453 14.802734 C 16.718043 14.903086 16.7463 15.144908 16.75 15.341797 C 16.756955 15.684152 16.750695 15.695586 16.623047 15.580078 C 16.549642 15.513647 16.412389 15.458984 16.318359 15.458984 C 16.22433 15.458984 16.093914 15.508069 16.027344 15.568359 C 15.960715 15.628679 15.884292 15.655746 15.857422 15.628906 C 15.77993 15.551422 15.800079 14.743279 15.880859 14.693359 C 15.922099 14.667883 15.955078 14.727023 15.955078 14.830078 C 15.955078 15.060334 16.045824 15.116931 16.320312 15.056641 C 16.475008 15.022665 16.552171 14.953238 16.587891 14.814453 L 16.638672 14.619141 z M 18.615234 14.646484 C 18.633932 14.665152 18.659574 14.715108 18.693359 14.792969 C 18.836385 15.122462 18.82769 15.240234 18.660156 15.240234 C 18.58323 15.240234 18.504958 15.281851 18.486328 15.332031 C 18.446709 15.438723 18.289062 15.074845 18.289062 14.876953 C 18.289063 14.778543 18.328607 14.75328 18.435547 14.78125 C 18.542476 14.809216 18.582184 14.783394 18.583984 14.683594 C 18.584887 14.640397 18.596537 14.627817 18.615234 14.646484 z M 14.908203 14.835938 C 14.912728 14.849392 14.906079 14.896789 14.886719 14.984375 C 14.798471 15.384135 14.755377 15.456725 14.648438 15.390625 C 14.581318 15.349152 14.563323 15.263696 14.595703 15.134766 C 14.622358 15.028473 14.674478 14.959872 14.710938 14.982422 C 14.747439 15.004991 14.812329 14.965611 14.855469 14.894531 C 14.886859 14.842829 14.903678 14.822483 14.908203 14.835938 z M 15.130859 14.837891 C 15.202807 15.130592 15.443359 15.288566 15.443359 15.042969 C 15.443359 14.955269 15.466584 14.941194 15.521484 14.996094 C 15.564164 15.038809 15.588732 15.215988 15.576172 15.388672 C 15.555438 15.67259 15.543599 15.690712 15.449219 15.576172 C 15.391789 15.506472 15.284028 15.465265 15.210938 15.484375 C 15.093785 15.515116 15.078738 15.470843 15.085938 15.105469 C 15.090547 14.878426 15.111149 14.757611 15.130859 14.837891 z M 14.347656 14.912109 C 14.389016 14.886549 14.401923 14.915519 14.376953 14.980469 C 14.328411 15.106899 14.275391 15.13037 14.275391 15.025391 C 14.275391 14.987623 14.307946 14.936639 14.347656 14.912109 z M 14.253906 15.265625 C 14.267134 15.270676 14.275391 15.284612 14.275391 15.304688 C 14.275391 15.344824 14.243285 15.397055 14.203125 15.421875 C 14.162965 15.446675 14.128906 15.434681 14.128906 15.394531 C 14.128906 15.354385 14.162965 15.302164 14.203125 15.277344 C 14.223205 15.264944 14.240679 15.260574 14.253906 15.265625 z M 28.820312 16.363281 C 28.812668 16.370955 28.806537 16.39499 28.804688 16.4375 C 28.801518 16.51444 28.81951 16.557453 28.84375 16.533203 C 28.86761 16.508946 28.870679 16.447211 28.849609 16.394531 C 28.837979 16.365426 28.827957 16.355608 28.820312 16.363281 z M 28.890625 16.640625 C 28.880607 16.637551 28.879253 16.672285 28.876953 16.742188 C 28.874433 16.82581 28.893142 16.916609 28.919922 16.943359 C 29.007032 17.030529 29.022632 16.944302 28.951172 16.765625 C 28.919002 16.685259 28.900643 16.643699 28.890625 16.640625 z M 28.892578 18.113281 C 28.884933 18.120955 28.878803 18.146943 28.876953 18.189453 L 28.878906 18.189453 C 28.875736 18.266403 28.891776 18.309406 28.916016 18.285156 C 28.939876 18.260899 28.942945 18.199164 28.921875 18.146484 C 28.910245 18.117379 28.900223 18.105608 28.892578 18.113281 z M 19.421875 18.648438 C 19.483693 18.65156 19.648349 18.7765 19.960938 19.023438 L 20.134766 19.160156 L 19.800781 19.273438 C 19.523257 19.367988 19.461527 19.371932 19.429688 19.289062 C 19.404398 19.223193 19.428503 19.202289 19.501953 19.230469 C 19.599974 19.268077 19.599323 19.242422 19.498047 19 C 19.399386 18.763871 19.360057 18.645315 19.421875 18.648438 z M 20.023438 19.345703 C 20.31591 19.3176 20.455822 19.350214 20.814453 19.53125 C 21.054216 19.652281 21.487776 19.824159 21.777344 19.912109 C 22.341282 20.083401 22.404011 20.203125 21.929688 20.203125 C 21.768849 20.203125 21.573704 20.237737 21.496094 20.279297 C 21.397349 20.332187 21.355469 20.330001 21.355469 20.275391 C 21.355469 20.220841 21.311591 20.220617 21.212891 20.273438 C 21.012992 20.380422 20.870942 20.365084 20.333984 20.181641 C 19.968127 20.056651 19.822525 19.963061 19.693359 19.769531 C 19.489201 19.463639 19.547024 19.391483 20.023438 19.345703 z M 21.945312 19.431641 C 21.958369 19.416503 22.031875 19.44494 22.175781 19.53125 C 22.306237 19.609494 22.635181 19.794034 22.90625 19.943359 C 23.252263 20.133969 23.411699 20.268544 23.443359 20.394531 C 23.495348 20.6015 23.424209 20.72007 23.355469 20.541016 C 23.33016 20.475059 23.25453 20.421875 23.1875 20.421875 C 23.120445 20.421875 22.998002 20.373253 22.914062 20.314453 C 22.830124 20.255633 22.743043 20.225727 22.720703 20.248047 C 22.66595 20.302801 22.376953 20.207606 22.376953 20.134766 C 22.376953 20.102906 22.458247 20.092138 22.558594 20.111328 C 22.658904 20.130478 22.742188 20.132954 22.742188 20.115234 C 22.742188 20.097503 22.561705 19.954421 22.341797 19.796875 C 22.07035 19.602402 21.923552 19.45687 21.945312 19.431641 z M 29.183594 19.720703 C 29.175949 19.728377 29.171772 19.752412 29.169922 19.794922 C 29.166752 19.871852 29.184744 19.914875 29.208984 19.890625 C 29.232844 19.866368 29.233961 19.804633 29.212891 19.751953 C 29.201261 19.722848 29.191239 19.713029 29.183594 19.720703 z M 26.298828 19.947266 L 26.464844 20.09375 C 26.686281 20.288155 26.876904 20.739522 26.927734 21.1875 C 26.955858 21.434887 26.928447 21.681449 26.841797 21.953125 L 26.714844 22.355469 L 26.623047 21.863281 C 26.544406 21.436423 26.548987 21.347096 26.648438 21.195312 C 26.781151 20.992769 26.732992 20.68459 26.535156 20.458984 C 26.464765 20.378704 26.383556 20.231207 26.353516 20.130859 L 26.298828 19.947266 z M 22.867188 20.066406 C 22.828248 20.066406 22.814453 20.088029 22.814453 20.130859 C 22.814453 20.170989 22.905231 20.199966 23.015625 20.197266 C 23.193454 20.192726 23.199648 20.186429 23.070312 20.130859 C 22.970633 20.088029 22.906127 20.066406 22.867188 20.066406 z M 29.257812 20.742188 C 29.250167 20.749861 29.244037 20.773896 29.242188 20.816406 C 29.239017 20.893356 29.25701 20.936359 29.28125 20.912109 C 29.3052 20.887852 29.308179 20.826117 29.287109 20.773438 C 29.275479 20.744333 29.265458 20.734514 29.257812 20.742188 z M 21.615234 21.078125 C 21.632974 21.078125 21.646484 21.112194 21.646484 21.152344 C 21.646484 21.192474 21.612823 21.224609 21.570312 21.224609 C 21.527773 21.224609 21.512319 21.192494 21.537109 21.152344 C 21.561889 21.112214 21.597514 21.078125 21.615234 21.078125 z M 15.058594 21.363281 L 15.341797 21.53125 C 15.550136 21.654164 15.590144 21.704556 15.496094 21.722656 C 15.425804 21.736186 15.38499 21.774244 15.40625 21.808594 C 15.427483 21.842948 15.375272 21.920069 15.289062 21.980469 C 15.188168 22.051097 15.147884 22.135151 15.177734 22.212891 C 15.209628 22.296004 15.177789 22.344514 15.076172 22.371094 C 14.957852 22.402049 14.946695 22.430672 15.015625 22.513672 C 15.069545 22.578654 15.076343 22.642377 15.033203 22.685547 C 14.931515 22.78725 14.788197 22.370304 14.873047 22.21875 C 14.910227 22.152443 14.919628 22.025047 14.892578 21.935547 C 14.852518 21.802817 14.861303 21.788871 14.939453 21.863281 C 15.101192 22.017048 15.138996 21.966203 15.097656 21.658203 L 15.058594 21.363281 z M 22.257812 21.529297 C 22.376374 21.53807 22.493252 21.588952 22.548828 21.677734 C 22.591794 21.746063 22.61239 21.815691 22.59375 21.832031 C 22.575108 21.848391 22.403564 21.88129 22.212891 21.90625 C 21.840731 21.954964 21.776643 21.886806 21.960938 21.634766 C 22.019675 21.554442 22.139251 21.520524 22.257812 21.529297 z M 16.828125 22.724609 C 17.140076 22.720509 17.232138 22.932896 16.949219 23.003906 C 16.850586 23.028676 16.715557 23.069943 16.648438 23.095703 C 16.549523 23.133799 16.531241 23.104221 16.550781 22.935547 C 16.571983 22.752774 16.6042 22.727609 16.828125 22.724609 z M 14.054688 23.46875 L 14.345703 23.767578 C 14.583429 24.012999 14.625572 24.096846 14.576172 24.230469 L 14.515625 24.394531 L 14.416016 24.214844 C 14.360964 24.11598 14.257277 23.907711 14.185547 23.751953 L 14.054688 23.46875 z M 26.183594 23.707031 C 26.216635 23.74754 26.229119 23.948542 26.230469 24.392578 C 26.232009 24.818038 26.206075 25.166016 26.171875 25.166016 C 26.072285 25.166016 26.047091 23.830997 26.144531 23.716797 C 26.160606 23.697955 26.17258 23.693528 26.183594 23.707031 z M 17.943359 24.607422 C 17.939347 24.616904 17.957519 24.642988 17.996094 24.689453 C 18.101206 24.816093 18.144531 24.830178 18.144531 24.736328 C 18.144531 24.700488 18.089288 24.65029 18.023438 24.625 C 17.973323 24.605776 17.947372 24.59794 17.943359 24.607422 z M 14.511719 25.611328 C 14.565163 25.56578 14.495244 25.825939 14.318359 26.314453 C 14.170554 26.722652 13.878171 27.290335 13.568359 27.771484 C 12.881246 28.838588 12.344237 29.557115 12.404297 29.326172 C 12.430417 29.225821 12.47341 29.012824 12.5 28.853516 C 12.560714 28.489682 12.672223 28.296934 13.585938 26.990234 C 13.992925 26.408198 14.366526 25.855479 14.416016 25.761719 C 14.461448 25.675696 14.493904 25.626511 14.511719 25.611328 z M 20.835938 25.658203 C 20.784105 25.674687 20.708106 25.711019 20.617188 25.763672 C 20.440853 25.865784 20.164466 25.990616 20.003906 26.041016 C 19.843346 26.091424 19.681981 26.160722 19.644531 26.195312 C 19.54863 26.283935 19.924496 26.167361 20.439453 25.949219 C 20.678908 25.847785 20.88906 25.723375 20.90625 25.671875 C 20.915101 25.645326 20.88777 25.641719 20.835938 25.658203 z M 18.742188 26.003906 C 18.722828 26.023196 18.752694 26.052473 18.808594 26.070312 C 18.864513 26.088152 18.959291 26.118592 19.019531 26.138672 C 19.28192 26.226182 19.320399 26.166756 19.0625 26.072266 C 18.905442 26.014736 18.761457 25.984626 18.742188 26.003906 z M 37.794922 26.269531 C 37.806161 26.268421 37.823078 26.278101 37.845703 26.300781 C 37.964643 26.420007 38.290918 27.074534 38.205078 27.021484 C 38.160251 26.993794 38.09624 27.015792 38.0625 27.070312 C 38.017608 27.142954 37.972681 27.101846 37.894531 26.916016 C 37.835921 26.776514 37.817003 26.644367 37.851562 26.623047 C 37.885973 26.60172 37.883063 26.537666 37.845703 26.478516 C 37.77772 26.370807 37.761205 26.272863 37.794922 26.269531 z M 34.90625 26.597656 L 35.126953 26.845703 C 35.340275 27.084451 35.354998 27.087527 35.527344 26.974609 C 35.703988 26.858844 35.70599 26.860641 35.78125 27.142578 C 35.864985 27.456283 35.847276 27.475317 35.605469 27.306641 C 35.480522 27.219481 35.416094 27.212101 35.339844 27.275391 C 35.261427 27.34046 35.21527 27.319441 35.125 27.181641 C 35.061532 27.084768 34.985171 26.912967 34.957031 26.800781 L 34.90625 26.597656 z M 35.847656 26.900391 C 35.851138 26.872002 35.871952 26.883014 35.914062 26.917969 C 35.969266 26.963776 36.036 27.098231 36.0625 27.21875 C 36.109487 27.432808 36.075646 27.569951 36.003906 27.451172 C 35.984113 27.418397 35.932595 27.266701 35.890625 27.113281 C 35.85856 26.996222 35.844175 26.928779 35.847656 26.900391 z M 37.302734 26.976562 C 37.331459 26.952329 37.386526 27.036263 37.503906 27.261719 C 37.612941 27.471122 37.703125 27.660241 37.703125 27.681641 C 37.703125 27.703041 37.62618 27.720703 37.53125 27.720703 C 37.436308 27.720703 37.273936 27.784954 37.171875 27.865234 C 37.06982 27.945519 36.971305 28.011719 36.953125 28.011719 C 36.910402 28.011719 36.462891 27.171837 36.462891 27.091797 C 36.462891 27.058365 36.562909 27.141114 36.685547 27.275391 L 36.908203 27.519531 L 37.082031 27.355469 C 37.178023 27.26529 37.26769 27.120486 37.28125 27.035156 C 37.286107 27.004533 37.29316 26.98464 37.302734 26.976562 z M 26.359375 27.222656 C 26.368756 27.209668 26.482816 27.253863 26.611328 27.320312 L 26.84375 27.439453 L 26.667969 27.634766 C 26.345006 27.992524 26.263593 28.141017 26.501953 27.9375 C 27.170471 27.366739 27.173192 27.371516 26.548828 28.230469 C 26.329996 28.531523 26.126919 28.804637 26.099609 28.835938 C 26.056443 28.885318 26.314065 27.285476 26.359375 27.222656 z M 24.066406 27.480469 L 24.046875 27.984375 C 24.028575 28.460364 24.011781 28.500774 23.748047 28.757812 C 23.274889 29.218952 23.265104 29.217799 22.814453 28.685547 C 22.373267 28.164506 22.184834 27.879897 22.449219 28.132812 L 22.613281 28.291016 L 23.060547 28.056641 C 23.306352 27.927744 23.633724 27.744071 23.787109 27.650391 L 24.066406 27.480469 z M 22.462891 28.607422 C 22.584599 28.557401 22.515649 28.75939 22.326172 29.007812 C 22.156642 29.230032 22.142686 29.285957 22.222656 29.414062 C 22.273541 29.495537 22.348952 30.001378 22.388672 30.539062 L 22.386719 30.539062 C 22.426422 31.076748 22.444051 31.574791 22.425781 31.644531 C 22.395721 31.759571 22.391966 31.757644 22.384766 31.636719 C 22.335449 30.859468 22.206249 29.714449 22.162109 29.667969 C 22.131424 29.635667 22.065968 29.768075 22.017578 29.960938 C 21.969211 30.153802 21.84842 30.556369 21.75 30.857422 C 21.651522 31.158476 21.571059 31.470501 21.568359 31.550781 C 21.564389 31.686231 21.558706 31.688739 21.509766 31.564453 C 21.481016 31.490756 21.478989 31.26002 21.505859 31.052734 C 21.627377 30.11345 21.737314 29.499492 21.808594 29.363281 C 21.896726 29.19477 22.373521 28.644152 22.462891 28.607422 z M 23.964844 28.669922 C 24.04507 28.669913 23.992479 29.380134 23.767578 31.369141 C 23.733539 31.670195 23.642513 32.064178 23.564453 32.244141 L 23.421875 32.570312 L 23.371094 31.878906 C 23.320058 31.182477 22.994241 29.835938 22.876953 29.835938 C 22.842313 29.835938 22.814606 29.779234 22.816406 29.708984 C 22.817899 29.635611 23.052264 29.413932 23.365234 29.1875 C 23.664861 28.970718 23.910156 28.764559 23.910156 28.730469 C 23.910156 28.696379 23.934714 28.669924 23.964844 28.669922 z M 28.982422 28.669922 C 29.137178 28.669922 29.200552 28.864649 29.089844 28.998047 C 28.974902 29.136567 28.879542 29.137132 28.826172 28.998047 C 28.766344 28.842137 28.848501 28.669922 28.982422 28.669922 z M 32.886719 28.960938 C 32.882946 28.964703 32.903824 28.994856 32.949219 29.052734 C 33.004293 29.122967 33.062925 29.179688 33.078125 29.179688 C 33.138195 29.179688 33.09814 29.120731 32.976562 29.025391 C 32.918668 28.979999 32.890491 28.957172 32.886719 28.960938 z M 32.964844 29.353516 C 32.992915 29.402986 33.126072 29.565493 33.369141 29.849609 C 33.529556 30.037115 33.849025 30.553341 34.080078 30.998047 C 34.493046 31.792466 34.633662 32.004221 34.486328 31.607422 C 34.301236 31.108946 33.498496 29.82472 33.189453 29.533203 C 33.01334 29.367078 32.936773 29.304045 32.964844 29.353516 z M 19.216797 29.431641 C 19.205666 29.438254 19.180486 29.462826 19.144531 29.503906 C 19.072627 29.586078 18.931014 29.728029 18.830078 29.818359 C 18.729145 29.908671 18.674074 29.982422 18.708984 29.982422 C 18.775875 29.982422 19.087672 29.659954 19.205078 29.46875 C 19.224138 29.437695 19.227928 29.425027 19.216797 29.431641 z M 33.296875 29.435547 L 33.648438 29.835938 C 34.037262 30.279892 34.846906 31.867372 35.119141 32.71875 C 35.209019 32.999733 35.285362 33.159619 35.289062 33.074219 C 35.292333 32.98882 35.347529 32.875846 35.412109 32.822266 C 35.558974 32.70038 35.664724 32.826133 35.851562 33.345703 C 35.921883 33.541251 35.993296 33.688345 36.009766 33.671875 C 36.063081 33.618555 35.871823 33.126663 35.517578 32.404297 C 35.327115 32.015911 35.113069 31.576537 35.042969 31.427734 C 34.898737 31.121604 34.172069 30.25567 33.646484 29.763672 L 33.296875 29.435547 z M 17.998047 30.373047 C 17.998047 30.320253 17.716162 30.489959 17.664062 30.574219 C 17.636806 30.618309 17.701349 30.598287 17.806641 30.529297 C 17.911972 30.460303 17.998047 30.389907 17.998047 30.373047 z M 22.779297 30.53125 C 22.789974 30.597157 22.788563 30.817887 22.767578 31.160156 C 22.744518 31.536563 22.712726 31.85827 22.697266 31.875 C 22.643086 31.933579 22.651831 31.338113 22.712891 30.826172 C 22.745346 30.554302 22.768619 30.465343 22.779297 30.53125 z M 16.822266 30.566406 C 16.802194 30.566406 16.673281 30.681774 16.537109 30.822266 C 16.40092 30.962759 16.306092 31.078125 16.326172 31.078125 C 16.346245 31.078125 16.475164 30.962759 16.611328 30.822266 C 16.747525 30.681773 16.842346 30.566406 16.822266 30.566406 z M 17.474609 30.720703 C 17.454764 30.727736 17.381194 30.775488 17.25 30.865234 C 17.059337 30.995665 16.902344 31.114226 16.902344 31.128906 C 16.902344 31.178459 17.156593 31.013445 17.376953 30.820312 C 17.459816 30.747695 17.494455 30.71367 17.474609 30.720703 z M 16.232422 31.222656 C 16.21235 31.222656 16.137093 31.288861 16.064453 31.369141 C 15.991823 31.449426 15.94867 31.515625 15.96875 31.515625 C 15.988823 31.515625 16.064079 31.449421 16.136719 31.369141 C 16.209359 31.288856 16.252502 31.222656 16.232422 31.222656 z M 15.939453 31.587891 C 15.91938 31.587891 15.844124 31.654095 15.771484 31.734375 C 15.698855 31.81466 15.655701 31.880859 15.675781 31.880859 C 15.695844 31.880859 15.77111 31.814655 15.84375 31.734375 C 15.91639 31.654089 15.959533 31.587891 15.939453 31.587891 z M 16.007812 31.880859 C 15.92992 31.880859 14.949977 33.176755 14.734375 33.564453 C 14.423902 34.122725 14.293218 34.604053 14.236328 35.400391 C 14.194099 35.991771 14.20726 36.12962 14.345703 36.496094 C 14.432897 36.726902 14.521116 36.916016 14.541016 36.916016 C 14.560776 36.916016 14.556993 36.854197 14.533203 36.779297 C 14.498486 36.669923 14.56279 36.613339 14.853516 36.488281 C 15.302973 36.294928 15.443359 36.291976 15.443359 36.474609 C 15.443359 36.552524 15.475465 36.635336 15.515625 36.660156 C 15.559315 36.68717 15.589111 36.594228 15.589844 36.427734 C 15.590648 36.235235 15.475079 35.922302 15.212891 35.408203 L 14.833984 34.664062 L 15.003906 34.025391 C 15.195265 33.301002 15.56394 32.469282 15.851562 32.117188 C 15.958168 31.986736 16.028173 31.880859 16.007812 31.880859 z M 15.662109 31.953125 C 15.658338 31.949358 15.628191 31.972188 15.570312 32.017578 C 15.500039 32.072662 15.443359 32.129381 15.443359 32.144531 C 15.443359 32.2046 15.502316 32.166487 15.597656 32.044922 C 15.643028 31.987052 15.66588 31.956892 15.662109 31.953125 z M 23.724609 32.177734 C 23.747462 32.177068 23.753121 32.236928 23.728516 32.355469 C 23.707606 32.455821 23.673144 32.618403 23.652344 32.71875 C 23.631515 32.819096 23.578846 32.902344 23.535156 32.902344 C 23.453819 32.902344 23.481514 32.709128 23.615234 32.357422 C 23.66051 32.238246 23.701757 32.178401 23.724609 32.177734 z M 15.378906 32.277344 C 15.334814 32.304591 15.264456 32.39071 15.222656 32.46875 C 15.111756 32.675977 15.185945 32.640921 15.332031 32.417969 C 15.401041 32.312669 15.422966 32.250094 15.378906 32.277344 z M 23.132812 32.294922 C 23.202427 32.268221 23.249054 32.316227 23.271484 32.433594 C 23.312203 32.646608 23.307748 32.646527 23.150391 32.472656 C 23.046091 32.357444 23.044342 32.328852 23.132812 32.294922 z M 26.244141 32.4375 C 26.244141 32.477602 26.145818 32.582845 26.025391 32.671875 C 25.904972 32.760908 25.806641 32.822354 25.806641 32.808594 C 25.806641 32.794831 25.904964 32.689597 26.025391 32.574219 C 26.145811 32.458845 26.244141 32.39741 26.244141 32.4375 z M 22.791016 32.585938 L 23.09375 32.890625 C 23.425887 33.222762 23.451232 33.317121 23.291016 33.626953 C 23.139321 33.920291 22.990398 33.955416 22.898438 33.71875 C 22.719127 33.256477 22.660299 32.933308 22.724609 32.761719 L 22.791016 32.585938 z M 15.085938 32.71875 L 14.966797 32.865234 C 14.901424 32.945514 14.816784 33.077923 14.777344 33.158203 L 14.705078 33.302734 L 14.824219 33.158203 C 14.889579 33.077923 14.976185 32.945514 15.015625 32.865234 L 15.085938 32.71875 z M 21.603516 32.775391 C 21.630074 32.766787 21.646484 32.769415 21.646484 32.789062 C 21.646484 32.810085 21.590594 32.893869 21.521484 32.974609 C 21.372776 33.148304 21.269658 33.167223 21.330078 33.009766 C 21.360905 32.929439 21.523839 32.801202 21.603516 32.775391 z M 22.289062 32.833984 C 22.299296 32.835966 22.302282 32.86284 22.302734 32.916016 C 22.303284 32.983898 22.270629 33.059164 22.230469 33.083984 C 22.138099 33.14107 22.138099 33.04527 22.230469 32.902344 C 22.260994 32.855172 22.278829 32.832003 22.289062 32.833984 z M 25.865234 33.121094 C 25.885313 33.121094 25.842171 33.187298 25.769531 33.267578 C 25.696879 33.347863 25.621643 33.412109 25.601562 33.412109 C 25.581485 33.412109 25.624626 33.347858 25.697266 33.267578 C 25.769918 33.187302 25.845154 33.121094 25.865234 33.121094 z M 22.025391 33.230469 L 21.990234 33.521484 C 21.970524 33.682046 21.929781 33.880657 21.900391 33.960938 L 21.845703 34.105469 L 21.962891 33.960938 C 22.051029 33.850917 22.081127 33.841328 22.082031 33.923828 C 22.083976 34.100879 21.962637 34.240192 21.845703 34.195312 C 21.782809 34.171178 21.658346 34.237243 21.548828 34.351562 C 21.388969 34.518372 21.369018 34.582024 21.423828 34.765625 L 21.488281 34.982422 L 21.496094 34.763672 C 21.506415 34.500751 21.653248 34.289062 21.824219 34.289062 C 21.962236 34.289062 21.932231 34.486975 21.751953 34.773438 C 21.698006 34.859156 21.50194 35.013492 21.316406 35.117188 L 20.980469 35.306641 L 20.830078 34.966797 L 20.679688 34.626953 L 21.083984 34.238281 C 21.352946 33.979825 21.526536 33.864981 21.603516 33.894531 C 21.683577 33.925245 21.720341 33.898367 21.720703 33.804688 C 21.720974 33.730148 21.789467 33.569647 21.873047 33.449219 L 22.025391 33.230469 z M 14.679688 33.339844 C 14.659614 33.339844 14.545872 33.531608 14.427734 33.765625 C 14.188966 34.238626 13.979504 34.965774 13.990234 35.285156 C 13.994088 35.399783 14.055583 35.213526 14.126953 34.871094 C 14.198359 34.528663 14.360314 34.042609 14.486328 33.792969 C 14.612392 33.54333 14.699768 33.339844 14.679688 33.339844 z M 22.542969 34.007812 C 22.557361 34.008874 22.580798 34.024147 22.611328 34.054688 C 22.680133 34.1235 22.669863 34.172134 22.564453 34.271484 C 22.435923 34.39262 22.431973 34.390994 22.476562 34.263672 C 22.502352 34.190143 22.523438 34.093708 22.523438 34.048828 C 22.523438 34.020543 22.528576 34.006751 22.542969 34.007812 z M 36.109375 34.015625 C 36.103416 34.023245 36.109543 34.064117 36.126953 34.142578 C 36.149213 34.242928 36.174441 34.424494 36.181641 34.544922 C 36.193051 34.733948 36.197956 34.72543 36.222656 34.490234 C 36.238316 34.340399 36.215232 34.160784 36.169922 34.089844 C 36.134547 34.034381 36.115334 34.008005 36.109375 34.015625 z M 21.201172 34.501953 L 21.064453 34.667969 C 20.967753 34.787292 20.951859 34.862614 21.005859 34.927734 C 21.175693 35.132714 21.413598 34.89989 21.283203 34.65625 L 21.201172 34.501953 z M 25.859375 34.509766 C 25.872022 34.517766 25.879133 34.535222 25.878906 34.5625 C 25.878645 34.592605 25.808829 34.715511 25.724609 34.835938 C 25.639459 34.957658 25.59578 34.989343 25.625 34.908203 C 25.65386 34.827922 25.694674 34.705016 25.714844 34.634766 C 25.741688 34.541383 25.821434 34.485765 25.859375 34.509766 z M 10.931641 34.527344 C 10.959338 34.559569 10.973364 34.674895 10.980469 34.875 C 10.992978 35.22839 10.987892 35.239816 10.818359 35.197266 C 10.721613 35.172986 10.62062 35.189032 10.59375 35.232422 C 10.51773 35.355445 10.385987 35.324478 10.435547 35.195312 C 10.459967 35.131819 10.480469 35.019806 10.480469 34.947266 C 10.480469 34.866737 10.529902 34.820072 10.607422 34.826172 C 10.677239 34.831746 10.766571 34.762185 10.806641 34.671875 C 10.862756 34.545311 10.903943 34.495118 10.931641 34.527344 z M 35.533203 34.681641 C 35.525558 34.689315 35.521381 34.715308 35.519531 34.757812 C 35.516361 34.834753 35.534354 34.877766 35.558594 34.853516 C 35.582454 34.829258 35.58357 34.765571 35.5625 34.712891 C 35.55087 34.683786 35.540848 34.673966 35.533203 34.681641 z M 10.3125 34.761719 C 10.322316 34.77497 10.327778 34.828349 10.330078 34.927734 C 10.332888 35.058195 10.301879 35.164062 10.261719 35.164062 C 10.175069 35.164062 10.175069 35.037565 10.261719 34.835938 C 10.287994 34.774778 10.302684 34.748468 10.3125 34.761719 z M 24.775391 34.945312 C 24.851419 34.945312 24.931641 35.304195 24.931641 35.648438 C 24.931641 35.919595 24.874222 35.952351 24.703125 35.78125 C 24.591168 35.66929 24.446808 35.645103 24.164062 35.689453 C 24.03895 35.709073 24.015804 35.664257 23.996094 35.382812 L 23.972656 35.054688 L 24.126953 35.21875 C 24.370036 35.478663 24.712891 35.395143 24.712891 35.076172 C 24.712891 35.003914 24.740291 34.945312 24.775391 34.945312 z M 23.898438 34.958984 C 23.902825 34.964112 23.895416 34.992095 23.878906 35.042969 C 23.855026 35.116498 23.835938 35.236284 23.835938 35.308594 C 23.835938 35.380908 23.769683 35.455562 23.689453 35.476562 C 23.535726 35.516754 23.516114 35.458561 23.589844 35.183594 C 23.613941 35.093721 23.666961 35.039693 23.707031 35.064453 C 23.747098 35.089213 23.812123 35.065076 23.851562 35.009766 C 23.878833 34.97149 23.89405 34.953856 23.898438 34.958984 z M 25.421875 34.984375 C 25.437308 35.003431 25.441406 35.054589 25.441406 35.146484 C 25.441406 35.388734 25.193348 35.530542 25.117188 35.332031 C 25.050542 35.158263 25.070114 35.005811 25.152344 35.056641 C 25.194242 35.082531 25.277507 35.064145 25.335938 35.015625 C 25.380479 34.978678 25.406442 34.965319 25.421875 34.984375 z M 36.296875 35.072266 C 36.280695 34.941811 36.267578 35.049635 36.267578 35.310547 C 36.267578 35.571462 36.280675 35.677336 36.296875 35.546875 C 36.313065 35.416418 36.313065 35.202727 36.296875 35.072266 z M 19.087891 35.136719 C 19.107971 35.156786 19.076971 35.200808 19.019531 35.236328 C 18.951311 35.278492 18.887301 35.550013 18.832031 36.017578 C 18.772701 36.519886 18.744888 36.625135 18.742188 36.369141 C 18.73582 35.816846 18.837507 35.232359 18.951172 35.162109 C 19.006904 35.127529 19.067811 35.116649 19.087891 35.136719 z M 22.736328 35.710938 C 22.736328 35.751078 22.690162 35.86645 22.632812 35.966797 C 22.575451 36.067076 22.527344 36.116322 22.527344 36.076172 C 22.527344 36.03603 22.575463 35.922614 22.632812 35.822266 C 22.690161 35.721988 22.736328 35.670788 22.736328 35.710938 z M 22.5 36.203125 C 22.512821 36.196509 22.519531 36.202581 22.519531 36.222656 C 22.519531 36.262796 22.488109 36.344087 22.449219 36.404297 C 22.410329 36.464497 22.378906 36.481556 22.378906 36.441406 C 22.378906 36.401264 22.410329 36.319976 22.449219 36.259766 C 22.468664 36.229656 22.487179 36.209741 22.5 36.203125 z M 36.029297 36.308594 C 36.026767 36.355487 36.045262 36.446499 36.070312 36.511719 C 36.095382 36.576949 36.128521 36.617533 36.144531 36.601562 C 36.160451 36.585589 36.141966 36.494588 36.103516 36.398438 C 36.065066 36.302378 36.031997 36.261694 36.029297 36.308594 z M 36.259766 36.775391 C 36.248946 36.774253 36.246994 36.801155 36.246094 36.855469 C 36.244914 36.922432 36.265972 37.037798 36.294922 37.111328 C 36.342962 37.233363 36.349897 37.233695 36.373047 37.119141 C 36.386977 37.050156 36.365829 36.934781 36.324219 36.863281 C 36.290509 36.805319 36.270586 36.776528 36.259766 36.775391 z M 15.546875 36.806641 C 15.50128 36.705183 15.581009 38.62434 15.636719 38.972656 C 15.729169 39.55044 15.738136 39.165166 15.660156 38.039062 C 15.616049 37.401774 15.564965 36.846771 15.546875 36.806641 z M 14.244141 36.84375 C 14.292816 37.027944 14.517976 37.46137 15.322266 38.917969 C 15.564589 39.356811 15.776419 39.6748 15.792969 39.625 C 15.809549 39.575205 15.77628 39.480029 15.71875 39.412109 C 15.573549 39.240708 15.276772 38.71944 14.693359 37.609375 C 14.419105 37.087549 14.217641 36.743403 14.244141 36.84375 z M 26.244141 37.029297 C 26.301001 37.023239 26.353516 37.056547 26.353516 37.134766 C 26.353516 37.194425 26.294603 37.253348 26.220703 37.267578 C 26.123222 37.286363 26.092518 37.257696 26.111328 37.160156 C 26.126706 37.080299 26.18728 37.035355 26.244141 37.029297 z "
       id="path831-9" />
  </g>
</svg>
