<?xml version="1.0" encoding="UTF-8" standalone="no"?>
<!-- Created with Inkscape (http://www.inkscape.org/) -->

<svg
   xmlns:dc="http://purl.org/dc/elements/1.1/"
   xmlns:cc="http://creativecommons.org/ns#"
   xmlns:rdf="http://www.w3.org/1999/02/22-rdf-syntax-ns#"
   xmlns:svg="http://www.w3.org/2000/svg"
   xmlns="http://www.w3.org/2000/svg"
   xmlns:sodipodi="http://sodipodi.sourceforge.net/DTD/sodipodi-0.dtd"
   xmlns:inkscape="http://www.inkscape.org/namespaces/inkscape"
   width="48px"
   height="48px"
   viewBox="0 0 48 48"
   version="1.1"
   id="SVGRoot"
   inkscape:version="0.92.4 (5da689c313, 2019-01-14)"
   sodipodi:docname="multiversusa.svg">
  <defs
     id="defs1995" />
  <sodipodi:namedview
     id="base"
     pagecolor="#ffffff"
     bordercolor="#666666"
     borderopacity="1.0"
     inkscape:pageopacity="0.0"
     inkscape:pageshadow="2"
     inkscape:zoom="25.573696"
     inkscape:cx="17.606385"
     inkscape:cy="26.534139"
     inkscape:document-units="px"
     inkscape:current-layer="layer1"
     showgrid="true"
     inkscape:window-width="1920"
     inkscape:window-height="1017"
     inkscape:window-x="-8"
     inkscape:window-y="-8"
     inkscape:window-maximized="1"
     inkscape:grid-bbox="true"
     inkscape:snap-global="false">
    <inkscape:grid
       type="xygrid"
       id="grid2562" />
  </sodipodi:namedview>
  <metadata
     id="metadata1998">
    <rdf:RDF>
      <cc:Work
         rdf:about="">
        <dc:format>image/svg+xml</dc:format>
        <dc:type
           rdf:resource="http://purl.org/dc/dcmitype/StillImage" />
        <dc:title></dc:title>
      </cc:Work>
    </rdf:RDF>
  </metadata>
  <g
     inkscape:label="Layer 1"
     inkscape:groupmode="layer"
     id="layer1">
    <path
       style="fill:#ffffff;stroke:none;stroke-width:0.93973637px;stroke-linecap:butt;stroke-linejoin:miter;stroke-opacity:1"
       d="M 13.707031 16.595703 L 14.148438 23.466797 L 12.5625 29.238281 L 21.503906 28.357422 L 23.078125 30.912109 L 23.087891 17.609375 L 13.707031 16.595703 z M 16.615234 18.710938 L 18.376953 19.0625 L 18.90625 23.820312 L 20.667969 19.283203 L 21.900391 19.458984 L 21.373047 26.726562 L 20.138672 26.726562 L 20.623047 22.585938 L 18.794922 26.792969 L 18.089844 26.837891 L 17.496094 22.234375 L 16.681641 26.96875 L 15.535156 26.925781 L 16.615234 18.710938 z "
       id="path833" />
    <path
       style="fill:#ffffff;stroke:none;stroke-width:0.93973637px;stroke-linecap:butt;stroke-linejoin:miter;stroke-opacity:1"
       d="M 24.951172 15.494141 L 24.984375 26.154297 L 26.615234 19.414062 L 28.244141 19.326172 L 26.085938 28.445312 L 34.587891 28.753906 L 33.837891 23.070312 L 35.953125 17.035156 L 26.658203 17.564453 L 26.041016 16.023438 L 24.951172 15.494141 z M 33.044922 18.886719 L 33.023438 21.242188 L 31.703125 21.353516 L 31.8125 19.810547 L 30.402344 20.03125 L 30.138672 22.058594 L 32.539062 22.035156 L 32.076172 26.96875 L 28.53125 26.638672 L 28.662109 24.326172 L 29.962891 24.083984 L 30.050781 26.199219 L 30.974609 26.199219 L 31.328125 22.873047 L 29.169922 22.894531 L 29.300781 19.414062 L 33.044922 18.886719 z "
       id="path837" />
  </g>
</svg>
