<?xml version="1.0" encoding="UTF-8" standalone="no"?>
<!-- Created with Inkscape (http://www.inkscape.org/) -->

<svg
   xmlns:dc="http://purl.org/dc/elements/1.1/"
   xmlns:cc="http://creativecommons.org/ns#"
   xmlns:rdf="http://www.w3.org/1999/02/22-rdf-syntax-ns#"
   xmlns:svg="http://www.w3.org/2000/svg"
   xmlns="http://www.w3.org/2000/svg"
   xmlns:sodipodi="http://sodipodi.sourceforge.net/DTD/sodipodi-0.dtd"
   xmlns:inkscape="http://www.inkscape.org/namespaces/inkscape"
   width="48px"
   height="48px"
   viewBox="0 0 48 48"
   version="1.1"
   id="SVGRoot"
   inkscape:version="0.92.4 (5da689c313, 2019-01-14)"
   sodipodi:docname="neverputta.svg"
   inkscape:export-filename="C:\Users\Admin\Documents\Rainmeter\Skins\Honeycomb-NG\@Resources\Images\openshot.png"
   inkscape:export-xdpi="512"
   inkscape:export-ydpi="512">
  <defs
     id="defs1995" />
  <sodipodi:namedview
     id="base"
     pagecolor="#ffffff"
     bordercolor="#666666"
     borderopacity="1.0"
     inkscape:pageopacity="0.0"
     inkscape:pageshadow="2"
     inkscape:zoom="12.786848"
     inkscape:cx="22.765608"
     inkscape:cy="24.980838"
     inkscape:document-units="px"
     inkscape:current-layer="layer1"
     showgrid="true"
     inkscape:window-width="1920"
     inkscape:window-height="1017"
     inkscape:window-x="-8"
     inkscape:window-y="-8"
     inkscape:window-maximized="1"
     inkscape:grid-bbox="true">
    <inkscape:grid
       type="xygrid"
       id="grid2562" />
  </sodipodi:namedview>
  <metadata
     id="metadata1998">
    <rdf:RDF>
      <cc:Work
         rdf:about="">
        <dc:format>image/svg+xml</dc:format>
        <dc:type
           rdf:resource="http://purl.org/dc/dcmitype/StillImage" />
        <dc:title></dc:title>
      </cc:Work>
    </rdf:RDF>
  </metadata>
  <g
     inkscape:label="Layer 1"
     inkscape:groupmode="layer"
     id="layer1">
    <path
       style="opacity:1;vector-effect:none;fill:#ffffff;fill-opacity:1;fill-rule:evenodd;stroke:none;stroke-width:2;stroke-linecap:round;stroke-linejoin:round;stroke-miterlimit:4;stroke-dasharray:none;paint-order:normal"
       d="M 24 12 C 22.953816 12 21.946394 12.159742 21 12.455078 L 21 20.208984 C 21.874542 20.08869 22.841703 20 24 20 L 24 14 A 8 8 0 0 1 32 22 C 32 22 30 20 24 20 L 24 26 C 25.055556 26 25.533386 25.73193 26.330078 25.269531 C 27.12677 24.807133 28.313452 24 30 24 C 31.194444 24 32.310734 24.462623 33.0625 25.130859 C 33.180273 25.235546 33.276769 25.347056 33.378906 25.457031 C 33.77421 24.379284 34 23.218099 34 22 C 34 16.46 29.54 12 24 12 z M 16 16.003906 C 14.74837 17.673729 14 19.743317 14 22 C 14 23.218099 14.22579 24.379284 14.621094 25.457031 C 14.723231 25.347056 14.819727 25.235546 14.9375 25.130859 C 15.236325 24.865238 15.603969 24.645442 16 24.460938 L 16 22 L 16 16.003906 z "
       id="rect822" />
    <path
       style="fill:#ffffff;stroke:#ffffff;stroke-width:2;stroke-linecap:round;stroke-linejoin:round;stroke-miterlimit:4;stroke-dasharray:none;stroke-opacity:1"
       d="m 15,29.999996 c 0,0 0,-4 3,-4 2.108185,0 3,2 6,2 3,0 3.891815,-2 6,-2 3,0 3,4 3,4 0,1 -2,3 -9,3 -7,0 -9,-2 -9,-3 z"
       id="path4564"
       inkscape:connector-curvature="0"
       sodipodi:nodetypes="cssscsc" />
    <rect
       style="opacity:1;vector-effect:none;fill:#ffffff;fill-opacity:1;fill-rule:evenodd;paint-order:normal"
       id="rect4598"
       width="3"
       height="18"
       x="17"
       y="11.999996"
       ry="1" />
  </g>
</svg>
