<?xml version="1.0" encoding="UTF-8" standalone="no"?>
<!-- Created with Inkscape (http://www.inkscape.org/) -->

<svg
   xmlns:dc="http://purl.org/dc/elements/1.1/"
   xmlns:cc="http://creativecommons.org/ns#"
   xmlns:rdf="http://www.w3.org/1999/02/22-rdf-syntax-ns#"
   xmlns:svg="http://www.w3.org/2000/svg"
   xmlns="http://www.w3.org/2000/svg"
   xmlns:xlink="http://www.w3.org/1999/xlink"
   xmlns:sodipodi="http://sodipodi.sourceforge.net/DTD/sodipodi-0.dtd"
   xmlns:inkscape="http://www.inkscape.org/namespaces/inkscape"
   width="48px"
   height="48px"
   viewBox="0 0 48 48"
   version="1.1"
   id="SVGRoot"
   inkscape:version="0.92.4 (5da689c313, 2019-01-14)"
   sodipodi:docname="pizza-towera.svg">
  <defs
     id="defs1995">
    <linearGradient
       gradientTransform="matrix(0.9965784,0,0,0.9962666,-89.841948,-62.996045)"
       id="IcecapTip-6"
       xlink:href="#WhiteTransparent-4"
       x1="60"
       y1="20"
       x2="90"
       y2="50"
       gradientUnits="userSpaceOnUse" />
    <linearGradient
       id="WhiteTransparent-4"
       gradientUnits="userSpaceOnUse">
      <stop
         style="stop-color:white;stop-opacity:1"
         offset="0"
         id="stop7606-4" />
      <stop
         style="stop-color:white;stop-opacity:0"
         offset="1"
         id="stop7608-7" />
    </linearGradient>
  </defs>
  <sodipodi:namedview
     id="base"
     pagecolor="#ffffff"
     bordercolor="#666666"
     borderopacity="1.0"
     inkscape:pageopacity="0.0"
     inkscape:pageshadow="2"
     inkscape:zoom="13.5625"
     inkscape:cx="24.736775"
     inkscape:cy="13.535721"
     inkscape:document-units="px"
     inkscape:current-layer="layer1"
     showgrid="false"
     inkscape:window-width="1920"
     inkscape:window-height="1017"
     inkscape:window-x="-8"
     inkscape:window-y="-8"
     inkscape:window-maximized="1"
     inkscape:grid-bbox="true"
     inkscape:snap-global="true">
    <inkscape:grid
       type="xygrid"
       id="grid2562" />
  </sodipodi:namedview>
  <metadata
     id="metadata1998">
    <rdf:RDF>
      <cc:Work
         rdf:about="">
        <dc:format>image/svg+xml</dc:format>
        <dc:type
           rdf:resource="http://purl.org/dc/dcmitype/StillImage" />
        <dc:title></dc:title>
      </cc:Work>
    </rdf:RDF>
  </metadata>
  <g
     inkscape:label="Layer 1"
     inkscape:groupmode="layer"
     id="layer1">
    <path
       style="fill:#ff837d;stroke-width:0.04822947"
       d="m 40.782558,5.1965837 c -27.188372,28.5356113 -13.594186,14.2678053 0,0 z"
       id="path833" />
    <path
       style="color:#000000;font-style:normal;font-variant:normal;font-weight:normal;font-stretch:normal;font-size:medium;line-height:normal;font-family:sans-serif;font-variant-ligatures:normal;font-variant-position:normal;font-variant-caps:normal;font-variant-numeric:normal;font-variant-alternates:normal;font-feature-settings:normal;text-indent:0;text-align:start;text-decoration:none;text-decoration-line:none;text-decoration-style:solid;text-decoration-color:#000000;letter-spacing:normal;word-spacing:normal;text-transform:none;writing-mode:lr-tb;direction:ltr;text-orientation:mixed;dominant-baseline:auto;baseline-shift:baseline;text-anchor:start;white-space:normal;shape-padding:0;clip-rule:nonzero;display:inline;overflow:visible;visibility:visible;opacity:1;isolation:auto;mix-blend-mode:normal;color-interpolation:sRGB;color-interpolation-filters:linearRGB;solid-color:#000000;solid-opacity:1;vector-effect:none;fill:#b4b4b4;fill-opacity:1;fill-rule:nonzero;stroke:none;stroke-width:4;stroke-linecap:round;stroke-linejoin:round;stroke-miterlimit:4;stroke-dasharray:none;stroke-dashoffset:0;stroke-opacity:1;color-rendering:auto;image-rendering:auto;shape-rendering:auto;text-rendering:auto;enable-background:accumulate"
       d="M 15.09375 38.492188 C 15.07194 38.579087 15.025401 38.756136 15.082031 39.011719 C 15.104149 39.11154 15.148721 40.276377 15.193359 41.339844 L 23.019531 45.742188 C 23.628341 46.084573 24.371659 46.084572 24.980469 45.742188 L 33.865234 40.744141 C 33.876291 40.038549 33.890116 38.823418 33.898438 38.789062 C 33.903818 38.766845 33.906916 38.741248 33.912109 38.71875 L 31.630859 39.630859 L 26.986328 40.773438 L 18.138672 40.332031 L 15.09375 38.492188 z "
       id="path2564-34" />
    <path
       style="color:#000000;font-style:normal;font-variant:normal;font-weight:normal;font-stretch:normal;font-size:medium;line-height:normal;font-family:sans-serif;font-variant-ligatures:normal;font-variant-position:normal;font-variant-caps:normal;font-variant-numeric:normal;font-variant-alternates:normal;font-feature-settings:normal;text-indent:0;text-align:start;text-decoration:none;text-decoration-line:none;text-decoration-style:solid;text-decoration-color:#000000;letter-spacing:normal;word-spacing:normal;text-transform:none;writing-mode:lr-tb;direction:ltr;text-orientation:mixed;dominant-baseline:auto;baseline-shift:baseline;text-anchor:start;white-space:normal;shape-padding:0;clip-rule:nonzero;display:inline;overflow:visible;visibility:visible;opacity:1;isolation:auto;mix-blend-mode:normal;color-interpolation:sRGB;color-interpolation-filters:linearRGB;solid-color:#000000;solid-opacity:1;vector-effect:none;fill:#ffffff;fill-opacity:1;fill-rule:nonzero;stroke:none;stroke-width:2;stroke-linecap:butt;stroke-linejoin:miter;stroke-miterlimit:4;stroke-dasharray:none;stroke-dashoffset:0;stroke-opacity:1;color-rendering:auto;image-rendering:auto;shape-rendering:auto;text-rendering:auto;enable-background:accumulate"
       d="M 28.425781 7.5 L 27.738281 7.515625 L 27.123047 7.53125 C 26.830801 7.5388 26.63874 7.5418154 26.402344 7.5839844 C 26.165948 7.6261534 25.949455 7.7190735 25.787109 7.796875 C 25.466399 7.9505695 25.149068 8.1607227 24.837891 8.3847656 C 23.970262 9.009446 23.526661 9.2267099 22.201172 9.6757812 C 21.473487 9.9223188 21.433573 9.9176415 21.232422 9.8769531 C 21.025616 9.8351201 20.828592 9.8167653 20.611328 9.828125 C 20.485333 9.7169182 20.411996 9.6635208 20.234375 9.4921875 C 19.427084 8.7134751 18.832494 8.152933 17.869141 8.1503906 C 17.035104 8.1481406 16.341002 8.3501074 15.734375 9.0410156 C 15.069263 9.7985388 15.291398 10.97288 16.041016 11.582031 C 15.679735 11.817178 15.368957 12.098 15.136719 12.445312 C 14.90772 12.664929 14.790421 12.974001 14.814453 13.140625 C 14.754603 13.293047 14.652786 13.420401 14.611328 13.582031 C 14.527098 13.910466 14.508887 14.282328 14.542969 14.705078 C 14.571239 15.055755 14.535267 15.041785 14.529297 15.103516 C 14.453097 15.102617 14.358939 15.113721 14.232422 15.144531 C 14.053179 15.111301 13.846664 15.044828 13.703125 15.054688 C 13.467085 15.070937 13.242958 15.109018 12.982422 15.220703 C 12.610153 15.380284 12.369113 15.597856 12.164062 15.875 C 12.061538 16.013572 11.964524 16.163119 11.902344 16.412109 C 11.867044 16.553468 12.004263 16.800596 12.060547 17.025391 C 11.887617 17.174797 11.644606 17.265325 11.509766 17.523438 C 11.467836 17.603687 11.315891 17.690389 11.357422 18.1875 C 11.378192 18.436055 11.534338 18.71534 11.660156 18.841797 C 11.785975 18.968254 11.864684 19.004766 11.910156 19.03125 C 12.236405 19.221262 12.51968 19.131287 12.808594 19.082031 L 11.720703 20.453125 L 11.867188 20.458984 C 11.671264 20.752831 11.424871 21.053723 11.226562 21.410156 C 10.166035 23.316316 9.7123229 24.411992 9.4902344 25.685547 L 9.3613281 26.417969 L 9.6191406 26.96875 C 9.9660481 27.702054 10.534249 28.099037 11.410156 28.722656 C 11.577127 28.841535 11.730295 28.951314 11.84375 29.03125 C 14.394834 29.85605 15.332031 29.851563 15.332031 29.851562 C 15.332031 29.851562 15.309468 30.218976 15.330078 30.847656 C 15.330921 32.052619 15.358928 32.658519 15.628906 33.238281 C 15.729855 33.455069 15.804737 33.523668 15.888672 33.619141 C 15.878872 33.645301 15.871448 33.664226 15.861328 33.691406 C 15.587393 34.426679 15.45849 35.14658 15.314453 36.591797 C 15.190961 37.830859 15.081917 38.539333 15.09375 38.492188 C 15.07194 38.579087 15.025401 38.756136 15.082031 39.011719 C 15.084631 39.023439 15.092713 39.252441 15.095703 39.285156 L 23.019531 43.742188 C 23.628341 44.084573 24.371659 44.084573 24.980469 43.742188 L 33.912109 38.71875 C 34.124106 37.800294 34.180458 36.656669 33.972656 35.722656 C 33.781899 34.865051 33.322532 33.980674 32.685547 33.076172 C 32.476448 32.779257 32.2002 32.475951 31.923828 32.1875 C 31.830318 32.0899 31.745212 32.009756 31.658203 31.925781 C 31.714853 31.631781 31.771204 31.376758 31.820312 30.914062 C 31.949012 29.701573 31.931641 29.111328 31.931641 29.111328 C 32.812592 29.053698 33.42933 28.969999 34.222656 28.453125 C 34.888452 28.019341 35.196457 27.814771 35.279297 27.742188 C 35.547323 27.507344 35.829116 27.318327 36.025391 26.640625 C 36.155463 26.191506 36.232878 25.674811 36.279297 25.164062 C 36.325717 24.653316 36.356768 24.217633 36.267578 23.744141 C 36.218028 23.481083 36.140825 23.176122 35.990234 22.884766 C 35.839644 22.59341 35.65468 22.327779 35.339844 21.871094 C 35.03955 21.435498 34.621586 20.801612 34.443359 20.515625 C 34.223524 20.162871 34.030567 19.859442 33.78125 19.582031 L 33.779297 19.580078 L 33.654297 19.441406 C 33.650497 19.434406 33.646198 19.420353 33.642578 19.414062 C 33.602118 19.342983 33.574721 19.308295 33.550781 19.277344 C 33.502911 19.215444 33.467591 19.180524 33.431641 19.142578 C 33.386861 19.095318 33.336381 19.047018 33.287109 19 C 33.875397 18.9955 34.165756 18.637285 34.304688 18.392578 C 34.450617 18.13554 34.520566 17.871615 34.488281 17.535156 C 34.481481 17.464526 34.403671 17.325943 34.367188 17.210938 C 34.608019 16.970864 34.659938 16.803286 34.691406 16.683594 C 34.727776 16.545248 34.742188 16.423428 34.742188 16.279297 C 34.742188 15.988775 34.506366 15.437109 34.291016 15.236328 C 34.215106 15.165568 33.870464 14.922633 33.589844 14.876953 C 33.304965 14.830563 33.180161 14.857641 32.945312 14.869141 C 32.685477 14.881821 32.504975 14.890117 32.285156 14.935547 C 32.237846 14.945347 32.155361 14.990583 32.097656 15.007812 C 32.0967 15.007775 32.09465 15.005959 32.09375 15.005859 C 31.926436 14.998759 31.78736 15.021571 31.623047 15.087891 C 31.580417 15.104761 31.485869 15.172171 31.404297 15.226562 C 31.365267 14.976411 31.325107 14.715912 31.265625 14.478516 C 31.237115 14.364734 31.209276 14.241062 31.191406 14.148438 C 31.173536 14.055808 31.172948 13.90811 31.173828 14.089844 C 31.172328 13.773114 31.124488 13.560841 31.072266 13.292969 C 31.046156 13.159033 31.017478 13.029607 30.986328 12.908203 C 30.955178 12.786799 30.959678 12.723914 30.839844 12.492188 C 30.641431 12.1085 30.47934 12.024149 30.292969 11.882812 C 30.199779 11.812143 30.105925 11.747938 29.986328 11.685547 C 29.939118 11.660917 29.811512 11.649877 29.751953 11.623047 C 29.633314 11.509025 29.432348 11.491004 29.335938 11.451172 C 29.303207 11.444072 29.251468 11.420956 29.222656 11.416016 C 29.04262 11.385146 28.905344 11.383162 28.740234 11.382812 C 28.592721 11.382502 28.486029 11.376909 28.277344 11.417969 C 28.176665 11.381739 28.076938 11.316653 27.970703 11.291016 L 27.96875 11.054688 C 28.188055 10.8386 28.472112 10.687035 28.617188 10.402344 C 28.790933 10.061386 28.86581 9.7291332 28.896484 9.390625 C 28.927104 9.052722 28.934034 8.7253766 28.763672 8.3164062 L 28.763672 8.3144531 L 28.425781 7.5 z M 27.763672 8.515625 L 27.839844 8.6992188 C 27.964758 8.9981871 27.911898 9.5835634 27.726562 9.9472656 C 27.556252 10.281481 27.226592 10.609027 26.845703 10.822266 C 26.522373 11.00328 26.391376 11.050359 25.230469 11.394531 C 24.077813 11.736257 22.880595 12.195048 22.953125 12.267578 C 22.965776 12.280229 23.31937 12.159641 23.740234 12 C 24.161098 11.840358 24.755496 11.634989 25.060547 11.542969 C 25.365598 11.450946 25.839895 11.307699 26.115234 11.224609 C 26.390573 11.141509 26.694986 11.023481 26.791016 10.962891 L 26.966797 10.853516 L 26.976562 11.908203 C 26.985113 12.731392 26.973864 12.958111 26.927734 12.931641 C 26.895182 12.912968 26.771716 12.826054 26.652344 12.740234 C 26.532978 12.654418 26.305641 12.519973 26.146484 12.439453 C 25.505923 12.115447 25.085722 12.113483 24.435547 12.435547 C 24.099261 12.602126 23.928443 12.732511 23.494141 13.154297 C 23.161603 13.477254 22.845526 13.734821 22.648438 13.84375 C 22.357437 14.004589 22.325562 14.013059 22.214844 13.949219 C 21.746743 13.679289 21.555412 13.649228 20.986328 13.755859 C 20.542193 13.839082 19.520347 14.199063 19.005859 14.455078 C 18.845653 14.534789 18.704826 14.599609 18.691406 14.599609 C 18.678045 14.599609 18.627175 14.482203 18.578125 14.337891 C 18.494485 14.091941 18.492166 14.06465 18.566406 13.908203 C 18.609966 13.816405 18.646484 13.698321 18.646484 13.644531 C 18.681912 13.30367 18.485116 13.208915 18.478516 12.857422 C 18.471356 12.478516 18.453125 11.806641 18.453125 11.806641 L 18.462891 11.8125 C 18.454381 11.77832 18.463995 11.753906 18.515625 11.753906 C 18.549531 11.753906 18.732817 11.830335 18.923828 11.921875 C 19.260002 12.082995 19.755859 12.213255 19.755859 12.140625 C 19.755859 12.121035 19.689485 12.092202 19.609375 12.076172 C 19.529263 12.060149 19.301351 11.971206 19.101562 11.878906 C 18.901774 11.786602 18.614037 11.687786 18.462891 11.660156 C 18.159538 11.604714 17.006435 11.097066 16.675781 10.873047 C 16.258068 10.590047 16.171687 10.057577 16.486328 9.6992188 C 16.747411 9.4018624 17.383028 9.1490906 17.865234 9.1503906 C 18.25741 9.1514256 18.790464 9.4888381 19.539062 10.210938 C 20.26589 10.912035 20.62948 11.180928 20.849609 11.173828 C 20.897346 11.1723 20.820916 11.118837 20.679688 11.054688 C 20.538471 10.99054 20.436522 10.918271 20.451172 10.894531 C 20.500955 10.813981 20.742819 10.798682 21.033203 10.857422 C 21.424557 10.936584 21.751085 10.884055 22.521484 10.623047 C 23.88586 10.1608 24.499973 9.8590689 25.421875 9.1953125 C 25.687138 9.0043269 26.04633 8.7798946 26.21875 8.6972656 C 26.510586 8.557408 26.575194 8.546058 27.148438 8.53125 L 27.763672 8.515625 z M 27.109375 12.105469 C 27.114602 12.098999 27.322734 12.136946 27.572266 12.191406 C 27.888601 12.260446 28.073883 12.329452 28.1875 12.419922 C 28.378976 12.572398 28.615812 12.731547 28.472656 12.611328 C 28.426226 12.572335 28.388672 12.504437 28.388672 12.460938 C 28.388672 12.394777 28.446076 12.382193 28.738281 12.382812 C 29.290794 12.38398 29.313743 12.473473 28.826172 12.71875 C 28.709121 12.777633 28.489227 12.910986 28.335938 13.015625 C 28.18265 13.12026 27.991269 13.286556 27.912109 13.384766 C 27.788668 13.537916 27.764908 13.551916 27.736328 13.478516 C 27.718002 13.431446 27.556162 13.30568 27.376953 13.199219 L 27.050781 13.005859 L 27.074219 12.560547 C 27.087549 12.316191 27.104175 12.111969 27.109375 12.105469 z M 17.457031 12.140625 C 17.710383 12.140625 17.930042 12.160757 17.945312 12.185547 C 18.039022 12.2606 17.803129 12.779825 17.761719 13.082031 C 17.735939 13.355368 17.689806 13.665353 17.691406 13.970703 C 17.691606 14.008846 17.683327 14.051987 17.654297 14.148438 C 17.569247 14.431271 17.566541 15.10571 17.650391 15.505859 C 17.685401 15.672723 17.695808 15.820414 17.673828 15.833984 C 17.651843 15.847664 17.510218 15.855863 17.357422 15.851562 C 17.036221 15.842492 16.34048 15.896993 16.234375 15.939453 C 16.194585 15.955373 16.271661 15.984066 16.404297 16.003906 C 16.789913 16.061594 17.334673 16.178387 17.861328 16.316406 C 17.939746 16.336956 18.193932 16.850005 18.263672 17.126953 C 18.312152 17.319509 18.308585 17.367386 18.234375 17.482422 C 18.134063 17.637946 17.891472 17.855023 17.427734 18.203125 C 17.244149 18.340931 16.948256 18.633217 16.771484 18.853516 C 16.594711 19.073812 16.290525 19.438637 16.095703 19.664062 C 15.900883 19.889491 15.679456 20.197236 15.603516 20.347656 C 15.527583 20.49808 15.308518 20.857216 15.115234 21.144531 C 14.571145 21.953314 14.337777 22.609648 14.279297 23.511719 C 14.23083 24.25953 14.253635 24.338161 14.572266 24.583984 L 14.835938 24.787109 L 14.746094 24.914062 C 14.697416 24.984028 14.633976 25.115258 14.603516 25.205078 C 14.495431 25.523776 14.086049 26.151783 12.992188 27.683594 C 12.893362 27.82199 12.768674 28.027886 12.714844 28.140625 C 12.661009 28.253377 12.611969 28.344097 12.605469 28.341797 C 12.598974 28.339434 12.321812 28.144277 11.990234 27.908203 C 11.160491 27.317451 10.677938 26.867605 10.523438 26.541016 L 10.400391 26.279297 L 10.474609 25.857422 C 10.675607 24.70481 11.057375 23.769762 12.099609 21.896484 C 12.501439 21.174248 12.762951 20.786443 13.361328 20.025391 L 13.666016 19.640625 L 13.925781 19.654297 C 14.06866 19.661627 14.288058 19.678239 14.414062 19.693359 C 14.557128 19.710469 14.642578 19.702985 14.642578 19.671875 C 14.642578 19.618418 14.389938 19.573567 13.974609 19.554688 L 13.716797 19.542969 L 13.902344 19.308594 C 14.240166 18.880508 14.703423 18.341462 14.976562 18.058594 L 15.246094 17.779297 L 15.234375 17.369141 C 15.220484 16.879272 15.32427 16.13589 15.462891 15.734375 C 15.580841 15.392747 15.590623 15.264635 15.539062 14.625 C 15.507812 14.237397 15.515808 14.08069 15.580078 13.830078 C 15.743313 13.193674 16.208406 12.559775 16.708984 12.292969 C 16.973809 12.151835 17.032115 12.140625 17.457031 12.140625 z M 25.349609 12.300781 C 25.667065 12.328297 26.143784 12.499265 26.279297 12.634766 C 26.367977 12.723435 26.374409 12.773725 26.349609 13.189453 C 26.329919 13.519383 26.33715 13.633553 26.375 13.595703 C 26.40573 13.564971 26.423422 13.370995 26.419922 13.128906 C 26.415372 12.81655 26.428436 12.72401 26.472656 12.75 C 27.14946 13.14784 27.361893 13.370957 27.701172 14.044922 C 27.843441 14.327514 27.967291 14.893495 27.925781 15.068359 C 27.914351 15.116521 27.887404 15.362109 27.865234 15.615234 C 27.821766 16.111532 27.682096 16.475139 27.435547 16.734375 C 27.263219 16.915592 27.139686 16.901191 26.876953 16.669922 C 26.570609 16.400267 26.591386 16.530811 26.900391 16.816406 L 27.148438 17.046875 L 26.888672 17.244141 C 26.511296 17.529064 26.006893 17.751107 25.689453 17.773438 C 25.458841 17.789661 25.014782 17.717891 24.699219 17.613281 C 24.621249 17.587431 24.617291 17.590733 24.675781 17.632812 C 24.715561 17.661443 24.724352 17.685162 24.695312 17.685547 C 24.634355 17.686399 23.662109 16.980737 23.662109 16.935547 C 23.662109 16.91901 23.717746 16.839876 23.785156 16.759766 C 23.852566 16.679664 23.893293 16.600314 23.876953 16.583984 C 23.860603 16.567634 23.827864 16.591829 23.802734 16.636719 C 23.777624 16.681614 23.720894 16.753715 23.677734 16.796875 C 23.605253 16.869366 23.590531 16.865419 23.488281 16.761719 C 23.427396 16.699967 23.301341 16.520877 23.207031 16.363281 C 23.112726 16.205677 23.035156 16.111877 23.035156 16.154297 C 23.035156 16.196714 23.171963 16.436401 23.339844 16.6875 C 23.617281 17.102448 23.653772 17.184697 23.732422 17.595703 C 23.780014 17.844412 23.868697 18.221384 23.929688 18.433594 C 24.181032 19.308157 24.479324 20.53149 24.527344 20.884766 C 24.633449 21.665401 24.567197 22.817268 24.388672 23.287109 C 24.284053 23.562443 23.966699 23.958443 23.738281 24.099609 C 23.55255 24.214389 23.421912 24.220893 23.158203 24.126953 C 22.652992 23.94698 22.33365 23.457637 22.044922 22.425781 C 21.937972 22.043524 21.901369 20.807028 21.974609 20.050781 C 22.006709 19.719204 22.046673 19.035247 22.064453 18.53125 C 22.099814 17.529299 22.076077 17.619794 22.486328 16.929688 C 23.044781 15.990254 23.040881 15.999513 23.050781 15.636719 C 23.05803 15.368993 23.030865 15.222222 22.921875 14.925781 L 22.783203 14.550781 L 22.867188 14.210938 C 22.925837 13.971608 23.004531 13.803337 23.130859 13.644531 C 23.808991 12.792091 24.710856 12.245421 25.349609 12.300781 z M 29.392578 12.527344 C 29.521964 12.527344 29.867322 12.789025 29.951172 12.951172 C 30.02595 13.095771 30.172628 13.847583 30.173828 14.09375 C 30.174213 14.173327 30.228462 14.455442 30.294922 14.720703 C 30.361388 14.985966 30.435868 15.387807 30.460938 15.613281 C 30.525076 16.190163 30.83221 17.386753 31.150391 18.298828 C 31.242921 18.564114 31.247626 18.617943 31.191406 18.773438 C 31.156546 18.869749 31.139074 18.959386 31.152344 18.972656 C 31.165604 18.98594 31.192007 18.946446 31.210938 18.884766 C 31.281166 18.655941 31.333693 18.637173 31.494141 18.785156 C 31.576158 18.860805 31.796738 19.042442 31.982422 19.189453 C 32.357578 19.486492 32.777344 19.873545 32.777344 19.921875 C 32.777344 19.939135 32.749957 19.952981 32.716797 19.953125 C 32.683641 19.953265 32.591299 20.008369 32.511719 20.074219 L 32.367188 20.193359 L 32.601562 20.109375 L 32.835938 20.025391 L 33.035156 20.248047 C 33.145016 20.370102 33.397053 20.727343 33.59375 21.042969 C 33.790449 21.358597 34.204749 21.986554 34.515625 22.4375 C 35.140444 23.343832 35.194676 23.447372 35.285156 23.927734 C 35.376952 24.415096 35.261402 25.681296 35.064453 26.361328 C 34.971859 26.681039 34.685482 27.00094 34.164062 27.367188 C 33.958838 27.511335 33.778792 27.649268 33.763672 27.673828 C 33.711075 27.758934 33.669682 27.715769 33.490234 27.392578 C 33.391068 27.213977 33.159943 26.833832 32.978516 26.548828 C 32.611462 25.97222 32.635527 26.014972 32.298828 25.289062 L 32.054688 24.765625 L 32.177734 24.619141 C 32.368433 24.392511 32.467146 24.16182 32.578125 23.685547 C 32.701135 23.157692 32.704131 23.064798 32.603516 22.765625 C 32.466887 22.35936 32.115474 21.902206 31.394531 21.195312 C 30.502852 20.32101 29.691406 19.367333 29.691406 19.193359 C 29.691406 19.168895 29.565444 19.050154 29.412109 18.929688 C 29.258779 18.809224 28.97158 18.543895 28.773438 18.339844 C 28.575291 18.135794 28.306684 17.889892 28.177734 17.794922 L 27.943359 17.623047 L 27.964844 16.992188 C 27.985844 16.374747 27.990817 16.349985 28.199219 15.861328 L 28.412109 15.361328 L 28.75 15.388672 C 28.935682 15.403472 29.202529 15.431019 29.341797 15.449219 C 29.755011 15.503202 29.620854 15.338043 29.181641 15.251953 C 29.100992 15.236143 28.965999 15.182639 28.880859 15.130859 C 28.756542 15.05526 28.726562 15.003717 28.726562 14.875 C 28.726564 14.582499 28.805744 14.532499 29.212891 14.568359 C 29.409174 14.585649 29.634048 14.613649 29.710938 14.630859 C 29.913745 14.676264 29.836429 14.592736 29.537109 14.441406 C 29.387364 14.36569 29.157243 14.29948 28.982422 14.28125 C 28.739149 14.255882 28.654789 14.222433 28.535156 14.105469 C 28.454272 14.026385 28.388672 13.934994 28.388672 13.902344 C 28.388672 13.819449 28.628475 13.502644 28.859375 13.28125 L 29.054688 13.095703 L 29.085938 13.236328 C 29.118347 13.383898 29.375975 13.732422 29.453125 13.732422 C 29.54112 13.732422 29.496474 13.626777 29.357422 13.509766 C 29.151571 13.336562 29.082551 13.094632 29.175781 12.871094 C 29.216211 12.774145 29.260741 12.657758 29.275391 12.611328 C 29.290075 12.564888 29.342678 12.527344 29.392578 12.527344 z M 25.529297 13.732422 C 25.011497 13.731997 24.802036 13.805801 24.480469 14.103516 C 24.121217 14.436114 24 14.729453 24 15.269531 C 24 15.592802 24.019725 15.687729 24.146484 15.941406 C 24.315792 16.280221 24.552012 16.490033 24.955078 16.658203 C 25.274149 16.79134 25.440811 16.777897 25.824219 16.59375 C 26.129753 16.446998 26.546409 16.049519 26.677734 15.78125 C 26.753284 15.626932 26.773484 15.487113 26.773438 15.082031 C 26.773352 14.511252 26.733741 14.40054 26.402344 14.041016 C 26.177139 13.796692 25.996949 13.732808 25.529297 13.732422 z M 21.570312 13.794922 C 21.738444 13.799562 21.863813 13.832988 21.945312 13.892578 C 22.020079 13.947246 22.012149 13.983061 21.837891 14.335938 C 21.527016 14.965471 21.484266 15.082031 21.566406 15.082031 C 21.604846 15.082031 21.636719 15.049826 21.636719 15.009766 C 21.636719 14.91757 22.005883 14.165349 22.095703 14.074219 C 22.185559 13.983046 22.237361 14.029009 22.550781 14.484375 C 22.912581 15.010121 23.085082 15.570399 22.925781 15.697266 C 22.892622 15.723667 22.782795 15.774717 22.681641 15.810547 C 22.465309 15.887182 22.305177 16.038643 22.505859 15.976562 C 22.571967 15.956112 22.686309 15.907531 22.761719 15.869141 C 22.837118 15.830721 22.910408 15.810799 22.923828 15.824219 C 22.960448 15.860837 22.430094 16.941744 22.257812 17.181641 C 22.175386 17.296428 22.043827 17.417309 21.966797 17.449219 C 21.759782 17.534968 20.91343 17.480865 20.529297 17.357422 C 20.358014 17.302372 20.205746 17.268703 20.191406 17.283203 C 20.157271 17.317734 20.426243 17.534246 20.550781 17.572266 C 20.67864 17.611292 20.916736 17.834969 20.884766 17.886719 C 20.849008 17.94457 20.74911 17.93258 20.310547 17.8125 C 19.894101 17.698478 19.666117 17.59319 19.564453 17.470703 C 19.509059 17.403954 19.522572 17.369235 19.664062 17.222656 C 19.754425 17.129045 19.95295 16.977666 20.105469 16.884766 C 20.257987 16.791864 20.382812 16.694269 20.382812 16.667969 C 20.382812 16.588617 20.030025 16.812356 19.720703 17.087891 C 19.452208 17.327062 19.425368 17.340162 19.361328 17.263672 C 19.260643 17.143418 19.137784 16.842802 19.011719 16.40625 L 18.900391 16.023438 L 19.013672 15.601562 C 19.161822 15.047674 19.319941 14.744501 19.625 14.433594 C 19.917249 14.135744 20.203408 14.01331 20.941406 13.865234 C 21.192645 13.814824 21.402182 13.790322 21.570312 13.794922 z M 25.509766 13.830078 C 26.086938 13.833592 26.313879 13.953767 26.560547 14.382812 C 26.683572 14.596776 26.700786 14.670301 26.701172 15.037109 C 26.701777 15.588928 26.60439 15.860375 26.306641 16.150391 C 26.179094 16.274626 25.961997 16.43193 25.822266 16.5 C 25.466483 16.67334 25.317283 16.689217 25.025391 16.582031 C 24.420666 16.359951 24.141489 15.991379 24.105469 15.369141 C 24.049517 14.402629 24.578049 13.824378 25.509766 13.830078 z M 22.558594 14.072266 C 22.606566 14.084351 22.651796 14.121441 22.666016 14.175781 C 22.702946 14.316972 22.684325 14.329003 22.609375 14.208984 C 22.573469 14.151554 22.516669 14.120589 22.474609 14.136719 C 22.434045 14.152299 22.416954 14.144108 22.433594 14.117188 C 22.460744 14.073265 22.510614 14.060186 22.558594 14.072266 z M 25.441406 14.898438 C 25.411715 14.894468 25.374265 14.898576 25.328125 14.910156 C 25.217556 14.937899 25.203266 14.960214 25.222656 15.095703 C 25.234936 15.181072 25.2475 15.257072 25.25 15.263672 C 25.25242 15.270292 25.285119 15.275391 25.324219 15.275391 C 25.363334 15.275391 25.431879 15.20763 25.474609 15.125 C 25.544688 14.989488 25.530466 14.910348 25.441406 14.898438 z M 20.902344 15.708984 C 20.789124 15.708984 20.739356 15.834894 20.816406 15.927734 C 20.902689 16.031645 21.105469 16.020574 21.105469 15.912109 C 21.105469 15.800454 21.014821 15.708984 20.902344 15.708984 z M 33.429688 15.863281 C 33.509086 15.876207 33.545245 15.907017 33.609375 15.966797 C 33.710538 16.061115 33.742188 16.134907 33.742188 16.279297 C 33.742188 16.383423 33.713424 16.493817 33.677734 16.523438 C 33.555851 16.624587 33.336752 16.630009 33.138672 16.537109 C 32.881467 16.416486 32.34375 16.054133 32.34375 16.001953 C 32.34375 15.924818 32.509987 15.890818 32.994141 15.867188 C 33.227335 15.855787 33.350288 15.850351 33.429688 15.863281 z M 13.771484 16.050781 C 13.907994 16.041411 14.034216 16.052431 14.103516 16.087891 C 14.247809 16.161711 14.461344 16.200854 14.427734 16.146484 C 14.408216 16.114894 14.468539 16.095703 14.591797 16.095703 C 14.699469 16.095703 14.787109 16.103581 14.787109 16.113281 C 14.787109 16.154087 13.964831 16.631923 13.785156 16.695312 C 13.550312 16.778113 12.945461 16.842906 12.894531 16.791016 C 12.768466 16.662578 13.053831 16.277185 13.376953 16.138672 C 13.488667 16.090782 13.634974 16.060181 13.771484 16.050781 z M 32.451172 17.226562 C 32.494342 17.190623 33.158382 17.314176 33.302734 17.384766 C 33.444178 17.453926 33.479768 17.501394 33.492188 17.630859 C 33.510137 17.817924 33.391909 18.026231 33.271484 18.019531 C 33.225674 18.017031 33.018311 17.840814 32.8125 17.626953 C 32.60669 17.413092 32.444272 17.232263 32.451172 17.226562 z M 13.236328 17.492188 C 13.35041 17.496917 13.4375 17.523399 13.4375 17.568359 C 13.4375 17.658707 12.976525 18.111468 12.820312 18.173828 C 12.676497 18.231198 12.518631 18.228056 12.412109 18.166016 C 12.336609 18.122049 12.335634 18.102799 12.396484 17.986328 C 12.487836 17.811462 12.706722 17.607762 12.873047 17.544922 C 12.980283 17.504402 13.122248 17.487488 13.236328 17.492188 z M 27.333984 17.539062 C 27.655197 17.558048 27.92811 17.699697 28.259766 17.970703 C 28.749888 18.371198 28.889536 18.558616 29.007812 18.988281 C 29.192277 19.658366 29.210376 19.829798 29.353516 22.269531 C 29.388092 22.858845 29.445443 23.324255 29.546875 23.8125 C 29.626779 24.197112 29.835046 25.228151 30.009766 26.103516 C 30.231453 27.214178 30.385358 27.854388 30.517578 28.224609 C 30.916122 29.340512 30.950972 29.632836 30.826172 30.808594 C 30.683344 32.154262 30.630022 32.321353 30.265625 32.5625 C 29.718622 32.924486 29.091584 32.917163 27.158203 32.525391 C 26.707258 32.434018 26.207985 32.344955 26.048828 32.328125 C 25.889669 32.311295 25.657254 32.286604 25.53125 32.271484 C 25.380764 32.253374 25.302734 32.262215 25.302734 32.296875 C 25.302734 32.325885 25.362417 32.349609 25.435547 32.349609 C 25.508668 32.349609 25.643658 32.371477 25.736328 32.398438 C 26.092576 32.502091 27.319791 32.777374 27.677734 32.833984 C 27.884073 32.866624 28.064555 32.911724 28.078125 32.933594 C 28.127787 33.013949 26.882818 33.554688 26.648438 33.554688 C 26.574127 33.554687 26.556641 33.519422 26.556641 33.384766 C 26.556641 33.291927 26.534343 33.216797 26.507812 33.216797 C 26.459883 33.216797 26.452046 33.254349 26.441406 33.527344 C 26.436482 33.653434 26.412986 33.674524 26.242188 33.708984 C 26.136081 33.730394 25.951402 33.770708 25.832031 33.798828 C 25.712664 33.826958 25.398073 33.869318 25.132812 33.892578 C 24.867553 33.915838 24.412883 33.956995 24.121094 33.984375 C 23.152791 34.075365 19.87295 34.072199 19.78125 33.980469 C 19.764064 33.963278 19.864878 33.912397 20.005859 33.867188 C 20.5236 33.701172 22.218422 33.013161 22.324219 32.925781 L 22.431641 32.835938 L 22.3125 32.863281 C 21.597353 33.029998 20.397445 33.390418 19.972656 33.566406 C 19.491458 33.765766 18.489495 34.037109 18.230469 34.037109 C 18.173399 34.037109 17.980931 33.99254 17.802734 33.9375 C 17.516123 33.848975 17.42856 33.790031 17.052734 33.427734 C 16.813075 33.1967 16.588156 32.930224 16.535156 32.816406 C 16.378148 32.479242 16.330902 32.024117 16.330078 30.845703 C 16.329076 29.446501 16.359981 28.776494 16.482422 27.554688 C 16.572592 26.654868 16.574604 26.455358 16.527344 24.371094 C 16.47717 22.158595 16.50652 20.923631 16.621094 20.435547 C 16.779731 19.759799 17.062373 19.105118 17.486328 18.431641 C 17.641646 18.18491 18.030425 17.78125 18.246094 17.78125 L 18.636719 17.791016 C 18.77304 17.789486 18.960469 17.804845 19.117188 17.828125 C 19.322181 17.858575 19.734142 17.914515 20.03125 17.953125 C 20.328357 17.991734 20.653122 18.05491 20.753906 18.09375 C 21.050174 18.207886 21.49546 18.325632 21.755859 18.357422 C 21.906011 18.375762 21.997041 18.409906 21.994141 18.447266 C 21.991511 18.480422 21.984469 18.665829 21.980469 18.859375 L 21.974609 19.210938 L 21.630859 19.269531 L 21.287109 19.328125 L 20.605469 19.066406 C 19.745946 18.735501 19.458054 18.695823 19.001953 18.845703 C 18.583214 18.983312 18.095401 19.265466 17.865234 19.503906 C 17.638892 19.738382 17.47107 20.104094 17.341797 20.648438 C 17.253217 21.021318 17.245271 21.168603 17.269531 21.78125 C 17.284861 22.168721 17.308076 23.734508 17.322266 25.259766 L 17.347656 28.03125 L 17.197266 29.189453 C 17.114594 29.826081 17.036444 30.64424 17.021484 31.007812 C 16.996407 31.614741 17.001334 31.692947 17.101562 31.960938 C 17.237205 32.323636 17.504278 32.607269 17.867188 32.773438 C 18.438883 33.035207 18.793284 32.970552 20.300781 32.330078 C 21.288752 31.910329 21.499755 31.839022 22.601562 31.552734 C 23.65306 31.279522 24.207605 31.217952 25.308594 31.257812 L 26.160156 31.289062 L 26.949219 31.554688 C 28.474699 32.068443 28.769134 32.10522 29.171875 31.828125 C 29.695577 31.467808 29.854622 30.951558 29.857422 29.623047 C 29.858872 28.927697 29.842431 28.68426 29.769531 28.394531 C 29.719472 28.195585 29.659992 27.998771 29.638672 27.957031 C 29.558682 27.800391 29.160695 26.277625 29.109375 25.931641 C 29.059274 25.593841 29.007394 25.290212 28.771484 23.980469 C 28.718926 23.68868 28.643346 23.136582 28.603516 22.751953 C 28.563689 22.367323 28.500531 21.823447 28.462891 21.544922 C 28.425251 21.266398 28.380894 20.747645 28.365234 20.390625 C 28.310162 19.134837 28.227011 18.849992 27.824219 18.544922 C 27.564853 18.348485 27.381136 18.265625 27.207031 18.265625 C 27.102978 18.265626 27.112945 18.246784 27.318359 18.050781 C 27.442816 17.932038 27.515166 17.832652 27.478516 17.832031 C 27.441858 17.831417 27.342263 17.904601 27.257812 17.994141 C 27.157777 18.100208 27.012581 18.184415 26.841797 18.234375 C 26.697634 18.276552 26.304291 18.450341 25.966797 18.621094 C 25.563108 18.825344 25.265088 18.943997 25.097656 18.966797 C 24.957678 18.985852 24.719356 19.063655 24.566406 19.140625 L 24.287109 19.28125 L 24.246094 19.169922 C 24.1671 18.962153 23.992252 18.352701 24.007812 18.337891 C 24.016323 18.329761 24.262898 18.312558 24.554688 18.298828 C 25.113466 18.272654 25.09326 18.277996 26.121094 17.84375 C 26.643124 17.623192 27.012771 17.520083 27.333984 17.539062 z M 27.248047 18.412109 C 27.354941 18.406749 27.473081 18.432241 27.583984 18.488281 C 28.026675 18.711949 28.206149 19.099897 28.078125 19.552734 C 28.014869 19.776483 27.975259 20.184502 27.912109 21.253906 L 27.882812 21.759766 L 27.689453 21.869141 C 27.542242 21.952356 27.419493 21.977896 27.169922 21.978516 C 26.94976 21.979046 26.836709 21.960502 26.824219 21.919922 C 26.808419 21.868721 26.738575 19.887156 26.734375 19.375 C 26.731814 19.056771 26.85075 18.633565 26.974609 18.519531 C 27.045353 18.454399 27.141152 18.417509 27.248047 18.412109 z M 26.169922 18.697266 C 26.212625 18.716907 26.257831 18.76162 26.332031 18.84375 C 26.582262 19.120721 26.65465 19.515893 26.6875 20.777344 L 26.714844 21.818359 L 26.564453 21.923828 C 26.482265 21.982351 26.294421 22.084971 26.146484 22.150391 C 25.99855 22.215821 25.856861 22.269531 25.832031 22.269531 C 25.7471 22.269531 25.693571 22.092741 25.498047 21.185547 C 25.18847 19.74916 25.239577 19.102733 25.681641 18.853516 C 25.790532 18.792132 25.944467 18.723812 26.023438 18.701172 C 26.087722 18.682762 26.127222 18.677626 26.169922 18.697266 z M 19.923828 18.960938 C 20.052951 18.928529 20.393689 19.087608 20.589844 19.271484 C 20.870563 19.534636 21.047429 20.566457 21.068359 22.052734 L 21.082031 22.96875 L 20.599609 22.980469 C 20.334348 22.987189 20.092047 22.975588 20.060547 22.955078 C 20.029035 22.934551 19.980785 22.857886 19.953125 22.785156 C 19.92547 22.712419 19.852556 22.629603 19.791016 22.601562 C 19.690594 22.555809 19.664794 22.471803 19.537109 21.771484 C 19.381259 20.916658 19.347472 19.934864 19.460938 19.53125 C 19.527839 19.293267 19.764914 19.000827 19.923828 18.960938 z M 18.707031 19.078125 L 18.917969 19.285156 C 19.19259 19.554685 19.260119 19.763598 19.292969 20.435547 C 19.307883 20.740599 19.378819 21.31695 19.449219 21.714844 C 19.597749 22.554249 19.610079 22.787389 19.511719 22.849609 C 19.47328 22.873909 19.408931 22.890419 19.369141 22.886719 C 19.329351 22.883049 19.09693 22.860084 18.851562 22.833984 L 18.404297 22.787109 L 18.404297 22.609375 C 18.404297 22.31517 18.212521 21.50515 18.009766 20.943359 C 17.691555 20.061635 17.682655 20.025197 17.734375 19.837891 C 17.788685 19.6412 18.057608 19.402646 18.447266 19.207031 L 18.707031 19.078125 z M 24.71875 19.203125 C 24.75708 19.199795 24.774718 19.218776 24.804688 19.259766 C 24.867285 19.345375 25.109604 20.081885 25.300781 20.773438 C 25.426661 21.228798 25.599993 22.215947 25.564453 22.273438 C 25.549713 22.297237 25.513938 22.316406 25.486328 22.316406 C 25.458726 22.316406 25.268993 22.390979 25.0625 22.480469 L 24.685547 22.642578 L 24.662109 21.720703 C 24.638018 20.823761 24.562824 20.34658 24.3125 19.494141 C 24.289058 19.414315 24.325889 19.376396 24.513672 19.285156 C 24.62289 19.232096 24.68043 19.206425 24.71875 19.203125 z M 21.931641 19.314453 L 21.894531 19.574219 C 21.874481 19.717094 21.856669 20.353605 21.855469 20.990234 C 21.853417 22.051436 21.863401 22.180263 21.962891 22.523438 C 22.022562 22.729309 22.070312 22.906962 22.070312 22.919922 C 22.070314 22.932952 22.022571 22.940747 21.962891 22.935547 C 21.903207 22.930357 21.710078 22.917503 21.535156 22.908203 L 21.216797 22.892578 L 21.185547 22.044922 C 21.167975 21.579296 21.119665 20.918877 21.078125 20.578125 C 21.004505 19.974209 21.004099 19.954182 21.099609 19.738281 C 21.205659 19.498537 21.354782 19.405783 21.730469 19.345703 L 21.931641 19.314453 z M 25.564453 28.466797 C 25.621153 28.47661 25.638672 28.512335 25.638672 28.578125 C 25.638672 28.623357 25.679716 28.768845 25.728516 28.902344 C 25.77731 29.035841 25.879548 29.462147 25.955078 29.849609 L 26.091797 30.554688 L 26.001953 30.849609 L 25.914062 31.142578 L 24.841797 31.142578 L 23.769531 31.142578 L 23.736328 30.96875 C 23.718388 30.873076 23.681967 30.738089 23.654297 30.667969 C 23.626627 30.597854 23.605675 30.37668 23.609375 30.177734 C 23.613105 29.978788 23.583629 29.568989 23.542969 29.265625 C 23.502309 28.962262 23.46875 28.685231 23.46875 28.650391 C 23.46875 28.600771 23.633258 28.585938 24.222656 28.585938 C 24.743441 28.585938 25.06186 28.564962 25.259766 28.513672 C 25.411991 28.474202 25.507763 28.456997 25.564453 28.466797 z M 23.095703 28.488281 C 23.18551 28.498891 23.277824 28.523927 23.308594 28.554688 C 23.355244 28.601337 23.51601 29.769917 23.515625 30.058594 C 23.515424 30.217751 23.46681 30.552688 23.40625 30.804688 L 23.294922 31.263672 L 22.839844 31.373047 C 22.589217 31.433242 22.154067 31.547883 21.873047 31.626953 C 21.592026 31.706021 21.331439 31.769531 21.292969 31.769531 C 21.150137 31.769531 20.921667 30.899829 20.841797 30.050781 C 20.801557 29.62298 20.767578 29.186353 20.767578 29.080078 C 20.767578 28.89168 20.774606 28.885403 21.021484 28.789062 C 21.268774 28.692554 21.407272 28.672843 22.373047 28.595703 C 22.631724 28.575053 22.865991 28.534399 22.894531 28.505859 C 22.9188 28.481579 23.005893 28.477681 23.095703 28.488281 z M 25.851562 28.744141 C 25.862311 28.733401 25.939847 28.759514 26.023438 28.802734 C 26.294696 28.943007 26.905805 29.076815 27.423828 29.109375 L 27.929688 29.140625 L 27.964844 29.527344 C 27.983544 29.739554 28.024258 30.151571 28.054688 30.443359 L 28.109375 30.974609 L 27.962891 31.3125 C 27.845487 31.585013 27.796008 31.651903 27.705078 31.658203 C 27.643117 31.662537 27.344113 31.580199 27.039062 31.476562 C 26.734013 31.372929 26.457691 31.287302 26.425781 31.287109 C 26.393876 31.286934 26.344736 31.206892 26.316406 31.107422 C 26.233751 30.817183 25.830092 28.765611 25.851562 28.744141 z M 20.609375 28.962891 L 20.664062 29.316406 C 20.694602 29.511529 20.741951 29.931684 20.769531 30.25 C 20.797111 30.568312 20.827861 30.853292 20.837891 30.882812 C 20.859302 30.945694 20.662871 31.663419 20.550781 31.931641 C 20.483828 32.091863 20.424781 32.139572 20.105469 32.287109 C 19.902554 32.380861 19.617401 32.497065 19.472656 32.546875 C 19.32791 32.596665 19.192625 32.638672 19.171875 32.638672 C 19.092505 32.638672 19.066363 32.14392 19.095703 31.191406 C 19.123355 30.29327 19.188826 29.516207 19.253906 29.300781 C 19.26903 29.25071 19.349197 29.20599 19.457031 29.1875 C 19.55501 29.170688 19.786972 29.124468 19.972656 29.085938 C 20.15834 29.047408 20.376864 29.002931 20.458984 28.988281 L 20.609375 28.962891 z M 18.5625 29.021484 L 19.185547 29.021484 L 19.15625 29.201172 C 19.088497 29.623459 18.984788 30.709255 18.984375 31 C 18.983991 31.259687 18.954903 31.375073 18.816406 31.664062 C 18.636527 32.039404 18.443142 32.339296 18.244141 32.552734 C 18.082237 32.726367 17.938178 32.721183 17.652344 32.529297 C 17.366817 32.337616 17.202272 32.062929 17.201172 31.777344 C 17.199487 31.332018 17.515148 29.868446 17.738281 29.287109 C 17.833071 29.040154 17.888508 29.021484 18.5625 29.021484 z M 28.542969 29.314453 C 29.245386 29.321997 29.205447 29.291182 29.408203 29.988281 C 29.504341 30.318832 29.605426 30.649326 29.634766 30.722656 C 29.704802 30.897663 29.563177 31.290788 29.333984 31.556641 C 29.244324 31.660642 29.104398 31.785051 29.023438 31.832031 C 28.877175 31.916909 28.875787 31.916009 28.75 31.783203 C 28.404636 31.418562 28.179556 30.80807 28.097656 30.013672 C 28.066056 29.707657 28.052929 29.422992 28.068359 29.382812 C 28.0908 29.324253 28.184559 29.310553 28.542969 29.314453 z M 30.666016 32.396484 C 30.763126 32.396484 31.596573 33.266125 31.867188 33.650391 C 32.450958 34.479331 32.852368 35.293426 32.996094 35.939453 C 33.115415 36.47573 33.075862 37.933052 32.925781 38.552734 C 32.866991 38.795445 32.790719 39.034351 32.755859 39.082031 C 32.695273 39.164901 32.68001 39.165307 32.394531 39.085938 C 32.23027 39.040265 31.801419 38.967321 31.441406 38.925781 C 30.458055 38.812318 27.127302 38.854383 25.638672 38.998047 C 25.041834 39.055646 24.18595 39.136454 23.736328 39.177734 C 23.286707 39.219008 22.660404 39.304651 22.34375 39.369141 C 22.027094 39.433628 21.646941 39.486328 21.498047 39.486328 C 21.34916 39.486328 21.074345 39.521953 20.888672 39.564453 C 20.702998 39.606943 20.420876 39.649103 20.261719 39.658203 C 20.102562 39.667243 19.820449 39.708813 19.634766 39.751953 C 19.115989 39.872503 18.89348 39.878976 18.597656 39.777344 C 18.451763 39.727234 18.284129 39.683341 18.224609 39.681641 C 18.16509 39.680022 17.905281 39.584403 17.646484 39.46875 C 17.387686 39.353102 17.056057 39.221441 16.910156 39.175781 C 16.764263 39.130118 16.507329 39.035647 16.339844 38.966797 C 16.0714 38.856448 16.03858 38.829695 16.0625 38.734375 C 16.111802 38.537943 16.184442 37.935138 16.308594 36.689453 C 16.450287 35.267754 16.559667 34.680999 16.798828 34.039062 C 16.893148 33.785916 16.977528 33.570147 16.986328 33.560547 C 16.995046 33.550949 17.09659 33.621487 17.212891 33.716797 C 17.68085 34.100255 18.166605 34.205894 18.728516 34.046875 C 19.017281 33.965175 19.090663 33.960459 19.189453 34.011719 C 19.254153 34.045276 19.620136 34.098116 20.001953 34.128906 C 20.383771 34.159679 20.879997 34.205219 21.105469 34.230469 C 22.555212 34.392779 23.347379 34.409703 24.503906 34.302734 C 25.389502 34.220817 25.898222 34.090325 26.564453 33.777344 C 26.811343 33.66136 27.161995 33.508117 27.34375 33.435547 C 27.525504 33.362979 27.828136 33.213564 28.015625 33.105469 L 28.357422 32.910156 L 29.083984 32.90625 C 29.890903 32.902743 30.07638 32.853891 30.423828 32.548828 C 30.51882 32.465414 30.627096 32.396484 30.666016 32.396484 z "
       id="path1130" />
  </g>
</svg>
