<?xml version="1.0" encoding="UTF-8" standalone="no"?>
<!-- Created with Inkscape (http://www.inkscape.org/) -->

<svg
   xmlns:dc="http://purl.org/dc/elements/1.1/"
   xmlns:cc="http://creativecommons.org/ns#"
   xmlns:rdf="http://www.w3.org/1999/02/22-rdf-syntax-ns#"
   xmlns:svg="http://www.w3.org/2000/svg"
   xmlns="http://www.w3.org/2000/svg"
   xmlns:sodipodi="http://sodipodi.sourceforge.net/DTD/sodipodi-0.dtd"
   xmlns:inkscape="http://www.inkscape.org/namespaces/inkscape"
   width="48px"
   height="48px"
   viewBox="0 0 48 48"
   version="1.1"
   id="SVGRoot"
   inkscape:version="0.92.4 (5da689c313, 2019-01-14)"
   sodipodi:docname="plants-vs-zombiesa.svg"
   inkscape:export-filename="C:\Users\Admin\Documents\Rainmeter\Skins\Honeycomb-NG\@Resources\Images\openshot.png"
   inkscape:export-xdpi="512"
   inkscape:export-ydpi="512">
  <defs
     id="defs1995" />
  <sodipodi:namedview
     id="base"
     pagecolor="#ffffff"
     bordercolor="#666666"
     borderopacity="1.0"
     inkscape:pageopacity="0.0"
     inkscape:pageshadow="2"
     inkscape:zoom="16.258278"
     inkscape:cx="16.508675"
     inkscape:cy="24.501946"
     inkscape:document-units="px"
     inkscape:current-layer="layer1"
     showgrid="false"
     inkscape:window-width="1920"
     inkscape:window-height="1017"
     inkscape:window-x="-8"
     inkscape:window-y="-8"
     inkscape:window-maximized="1"
     inkscape:grid-bbox="true"
     inkscape:snap-global="false">
    <inkscape:grid
       type="xygrid"
       id="grid2562" />
  </sodipodi:namedview>
  <metadata
     id="metadata1998">
    <rdf:RDF>
      <cc:Work
         rdf:about="">
        <dc:format>image/svg+xml</dc:format>
        <dc:type
           rdf:resource="http://purl.org/dc/dcmitype/StillImage" />
        <dc:title></dc:title>
      </cc:Work>
    </rdf:RDF>
  </metadata>
  <g
     inkscape:label="Layer 1"
     inkscape:groupmode="layer"
     id="layer1">
    <path
       style="opacity:1;vector-effect:none;fill:#ffffff;fill-opacity:1;fill-rule:evenodd;paint-order:normal"
       d="m 23.21975,13.113281 c -0.360047,0.0044 -0.707135,0.151118 -0.960937,0.439453 -0.371253,0.421807 -0.494466,0.914146 -0.376953,1.50586 0.04012,0.202024 0.102362,0.467579 0.138671,0.589844 0.06419,0.216167 0.06971,0.222278 0.203126,0.199218 0.07545,-0.01306 0.42877,-0.07543 0.785156,-0.138672 0.37012,-0.06567 0.9176,-0.128281 1.27539,-0.144531 l 0.625,-0.02734 -0.0059,-0.292968 c -0.01542,-0.670808 -0.282008,-1.380682 -0.644531,-1.714844 -0.305447,-0.281553 -0.679015,-0.420416 -1.039063,-0.416016 z m -3.292969,0.546875 c -0.118559,-0.0014 -0.234067,0.01775 -0.363281,0.05664 -0.297225,0.08945 -0.461574,0.229081 -0.582031,0.492187 -0.197496,0.431391 -0.09031,1.151157 0.257812,1.726563 0.177311,0.293063 0.635644,0.875 0.689454,0.875 0.02224,0 0.128664,-0.0607 0.236328,-0.134766 0.258197,-0.177644 0.883846,-0.483685 1.18164,-0.578125 0.362606,-0.114995 0.361043,-0.112163 0.216797,-0.576172 -0.303941,-0.977741 -0.774558,-1.652568 -1.253906,-1.794922 -0.141986,-0.04217 -0.264252,-0.06501 -0.382813,-0.06641 z m 8.082032,0.01758 c -0.410879,0.05129 -0.756369,0.365427 -0.951172,0.890625 -0.118916,0.320592 -0.254526,1.151735 -0.197266,1.208985 0.02364,0.02361 0.220472,0.09036 0.4375,0.148437 0.422639,0.113107 0.981085,0.320218 1.435547,0.533203 0.413141,0.19362 0.434503,0.183812 0.548828,-0.251953 0.227492,-0.867081 0.222755,-1.335886 -0.02148,-1.787109 -0.169155,-0.312492 -0.525781,-0.616655 -0.822266,-0.703125 -0.148444,-0.04326 -0.292728,-0.05616 -0.429687,-0.03906 z m -2.253906,0.28125 c -0.184015,0 -0.225968,0.01848 -0.341797,0.150391 -0.07224,0.0823 -0.161902,0.253303 -0.201172,0.378906 -0.06378,0.204004 -0.06591,0.272069 -0.01367,0.638672 l 0.05859,0.410156 0.15039,0.0293 c 0.21991,0.04471 1.007788,0.152831 1.054688,0.144532 0.02208,-0.004 0.05351,-0.03414 0.07031,-0.06836 0.0168,-0.03422 0.06362,-0.272694 0.103516,-0.529297 0.0716,-0.460566 0.072,-0.469302 -0.01758,-0.654297 -0.14566,-0.300899 -0.488653,-0.5 -0.863281,-0.5 z m 5.576171,1.042969 c -0.539447,0.04591 -1.164066,0.402805 -1.541015,0.970703 -0.122193,0.184087 -0.365235,0.728506 -0.365235,0.816406 0,0.01022 0.140247,0.109582 0.3125,0.220704 0.172255,0.111119 0.386743,0.259288 0.476563,0.330078 l 0.164062,0.128906 0.212891,-0.199219 c 0.117054,-0.109489 0.224604,-0.199219 0.240234,-0.199219 0.03465,0 -0.0923,0.203677 -0.203125,0.326172 -0.04436,0.04904 -0.08008,0.120274 -0.08008,0.158204 0,0.08231 0.236848,0.292968 0.330078,0.292968 0.03611,0 0.188638,-0.111429 0.337891,-0.248047 0.149246,-0.13662 0.427537,-0.331676 0.619141,-0.433593 0.336326,-0.178896 0.352329,-0.193491 0.443359,-0.431641 0.202099,-0.528749 0.144855,-1.136055 -0.138672,-1.458984 -0.190661,-0.217148 -0.484925,-0.300988 -0.808594,-0.273438 z M 17.217797,15.23633 c -0.310433,-0.001 -0.369135,0.01188 -0.53125,0.119141 -0.329088,0.21778 -0.448718,0.557434 -0.361328,1.027343 0.08551,0.459793 0.242359,0.70785 0.835938,1.324219 0.302883,0.314513 0.584673,0.629602 0.626953,0.701172 0.04227,0.07158 0.108081,0.129858 0.144531,0.128906 0.03648,-9.4e-4 0.239388,-0.162311 0.451172,-0.359375 l 0.384765,-0.359375 -0.04687,-0.189453 -0.04883,-0.191406 0.0957,0.119141 c 0.05284,0.06534 0.116685,0.11914 0.140625,0.11914 0.04399,0 0.721038,-0.588101 0.742188,-0.644531 0.0143,-0.03819 -0.549721,-0.788233 -0.761719,-1.013672 -0.208016,-0.221202 -0.646775,-0.50284 -1.021484,-0.65625 -0.245301,-0.10043 -0.367484,-0.12402 -0.650391,-0.125 z m 7.789063,0.53125 c -0.900642,-0.02617 -1.901491,0.09346 -2.982422,0.357422 -1.181865,0.2886 -1.662653,0.569908 -3.007813,1.759766 -2.179588,1.927946 -2.95492,2.913318 -3.40625,4.326172 -0.505068,1.581081 -0.113901,3.168656 1.128906,4.583984 1.299249,1.479597 3.744805,2.637401 6.097657,2.886719 0.908774,0.0963 1.390031,0.106533 2.164062,0.04492 2.744263,-0.218444 5.010533,-1.191039 6.78711,-2.910156 0.967212,-0.935935 1.445052,-1.721132 1.771484,-2.914062 0.144828,-0.529245 0.163821,-1.290796 0.04297,-1.734375 -0.16093,-0.590641 -0.504134,-1.19595 -1.238282,-2.181641 -0.716121,-0.961488 -1.404278,-1.713928 -2.09375,-2.289062 -1.096419,-0.914601 -2.743182,-1.609978 -4.396484,-1.855469 -0.277268,-0.04117 -0.566973,-0.06552 -0.867187,-0.07422 z m -10.011719,1.306641 c -0.403419,-0.02355 -0.749527,0.06505 -0.982422,0.269531 -0.374418,0.328744 -0.364997,0.779016 0.0332,1.605469 0.243616,0.505653 0.488198,0.78174 0.919922,1.037109 0.160669,0.09503 0.453422,0.311569 0.648437,0.482422 0.195013,0.170853 0.3664,0.313053 0.38086,0.314453 0.01445,0.0014 0.09287,-0.09987 0.175781,-0.224609 0.08292,-0.124735 0.260559,-0.362984 0.394531,-0.529297 0.133979,-0.166314 0.244402,-0.321943 0.244141,-0.345703 -2.62e-4,-0.02375 -0.04804,-0.157143 -0.105469,-0.296875 l -0.105468,-0.253907 0.126953,0.121094 c 0.06962,0.06671 0.138163,0.158435 0.152343,0.203125 0.0142,0.04468 0.04851,0.07371 0.07617,0.06641 0.02766,-0.0072 0.203707,-0.172548 0.390625,-0.367188 l 0.339844,-0.353516 -0.09961,-0.162109 c -0.262768,-0.42517 -0.800357,-0.921722 -1.257813,-1.162109 -0.46687,-0.245334 -0.928612,-0.380747 -1.332031,-0.404297 z m 17.863281,0.09375 c -0.405416,0.03631 -0.903773,0.291441 -1.414062,0.732422 -0.13662,0.118062 -0.248047,0.238948 -0.248047,0.267578 0,0.02862 0.06769,0.119292 0.152344,0.201172 0.08465,0.08188 0.332018,0.357871 0.548828,0.613281 0.216808,0.255409 0.41065,0.462893 0.43164,0.46289 0.02097,0 0.129083,-0.05104 0.240235,-0.115234 0.483877,-0.279419 0.901803,-0.582274 0.996093,-0.722656 0.391798,-0.5833 0.24232,-1.204256 -0.335937,-1.400391 -0.11109,-0.03766 -0.235955,-0.05116 -0.371094,-0.03906 z m 1.375,2.076172 c -0.446439,0.01285 -0.942941,0.156795 -1.363281,0.425781 -0.112848,0.07221 -0.205078,0.159932 -0.205078,0.195312 0,0.07779 0.348137,0.617188 0.398437,0.617188 0.01957,0 0.161744,-0.0963 0.316407,-0.214844 0.32612,-0.249959 0.437033,-0.314609 0.501953,-0.292969 0.02573,0.0085 -0.11181,0.147408 -0.306641,0.308594 -0.194828,0.161188 -0.36372,0.316303 -0.375,0.345703 -0.01122,0.02939 0.04297,0.160489 0.121094,0.291016 0.07809,0.130529 0.199831,0.35882 0.269531,0.505859 0.07632,0.160999 0.152609,0.26599 0.193359,0.265625 0.03721,-3.47e-4 0.214388,-0.07901 0.392578,-0.175781 0.677746,-0.368043 1.0963,-0.800424 1.234376,-1.275391 0.08245,-0.283611 0.05287,-0.449152 -0.115235,-0.640625 -0.21999,-0.250553 -0.616061,-0.368318 -1.0625,-0.355468 z m -12.322265,0.115234 c 0.601608,0 1.085937,0.484329 1.085937,1.085937 v 2.125 c 0,0.60161 -0.484329,1.085938 -1.085937,1.085938 -0.60161,0 -1.085938,-0.484328 -1.085938,-1.085938 v -2.125 c 0,-0.601608 0.484328,-1.085937 1.085938,-1.085937 z m 6.75,0.01563 c 0.471765,0 0.851562,0.379797 0.851562,0.851562 v 2.34375 c 0,0.471766 -0.379797,0.851563 -0.851562,0.851563 -0.471766,0 -0.851563,-0.379797 -0.851563,-0.851563 v -2.34375 c 0,-0.471765 0.379797,-0.851562 0.851563,-0.851562 z m -15.353516,0.417969 c -0.726368,0.037 -1.377833,0.36917 -1.59375,0.871093 -0.128656,0.299065 -0.106605,0.610399 0.07031,0.986329 0.369907,0.786034 1.083533,1.271702 2.261719,1.537109 0.256121,0.05769 0.57981,0.140657 0.71875,0.185547 0.394101,0.127334 0.392201,0.128635 0.425781,-0.179688 0.06328,-0.581008 0.232366,-1.169805 0.509766,-1.773437 l 0.173828,-0.378906 -0.148437,-0.152344 c -0.420871,-0.43632 -1.2056,-0.917562 -1.679688,-1.029297 -0.245283,-0.05781 -0.496159,-0.07874 -0.738281,-0.06641 z m 21.93164,2.003906 c -0.262639,-3.2e-4 -0.555753,0.03486 -0.833984,0.105469 -0.565037,0.143349 -0.550007,0.125971 -0.492187,0.601562 0.05253,0.432133 0.01324,0.955558 -0.105469,1.410156 -0.07444,0.28503 -0.05877,0.387579 0.05469,0.355469 0.0417,-0.01178 0.183775,-0.03636 0.314453,-0.05273 0.337188,-0.04226 0.911899,-0.213352 1.201172,-0.359375 0.569772,-0.287619 1.004963,-0.725912 1.070313,-1.074219 0.06375,-0.339846 -0.167054,-0.705899 -0.554688,-0.878906 -0.159375,-0.07113 -0.391655,-0.107102 -0.654297,-0.107422 z M 13.376,23.425781 c -0.174416,-4.5e-4 -0.333171,0.01025 -0.460937,0.03516 -0.771296,0.150384 -1.289063,0.725255 -1.289063,1.43164 0,0.318504 0.094,0.517096 0.359375,0.761719 0.52877,0.487405 1.529554,0.711293 2.564453,0.572265 0.426933,-0.05735 1.119827,-0.250888 1.185547,-0.330078 0.03903,-0.04703 0.01605,-0.136668 -0.109375,-0.414062 -0.08835,-0.195367 -0.175219,-0.384282 -0.193359,-0.419922 -0.0181,-0.03564 -0.206201,-0.127455 -0.417969,-0.203125 -0.349278,-0.124805 -0.37095,-0.138025 -0.21875,-0.140625 0.09228,-0.0016 0.243928,0.01931 0.335938,0.04687 0.09201,0.0276 0.17586,0.04094 0.1875,0.0293 0.01164,-0.01164 -0.0062,-0.175103 -0.04102,-0.363281 -0.03476,-0.188179 -0.07457,-0.41323 -0.08789,-0.5 C 15.16958,23.795636 15.14259,23.764476 14.989278,23.703126 14.567535,23.534376 13.89925,23.427181 13.376,23.425781 Z m 17.466797,0.13086 c 0.0749,-0.01065 0.152832,0.04098 0.302734,0.201171 0.110906,0.118519 0.303005,0.266134 0.427735,0.328126 0.160872,0.07994 0.226562,0.137688 0.226562,0.199218 0,0.09645 -0.149069,0.171875 -0.341797,0.171875 -0.06754,0 -0.154881,0.04038 -0.201171,0.0918 -0.165392,0.183682 -0.913564,0.71404 -1.25,0.886719 -0.529612,0.271825 -0.890621,0.402409 -1.613282,0.582031 -0.654123,0.162586 -0.66517,0.167019 -0.927734,0.396484 -0.376539,0.329075 -0.938368,0.736909 -1.265625,0.919922 -0.64608,0.361307 -1.149289,0.441962 -1.765625,0.279297 -0.884663,-0.233481 -1.810685,-0.72979 -2.677734,-1.433593 -0.339187,-0.275329 -0.356456,-0.28354 -0.865235,-0.402344 -1.100026,-0.256866 -2.057537,-0.59286 -2.470703,-0.867188 -0.218146,-0.144835 -0.234679,-0.147855 -0.441406,-0.103515 -0.231062,0.04955 -0.390625,0.0032 -0.390625,-0.111329 0,-0.0823 0.03058,-0.09815 0.55664,-0.283203 0.251872,-0.08859 0.53597,-0.190332 0.63086,-0.226562 0.116755,-0.04458 0.196707,-0.05288 0.248047,-0.02539 0.103691,0.0555 0.0954,0.10945 -0.03516,0.230469 l -0.111328,0.103516 0.109375,0.07227 c 0.427916,0.28038 1.788277,0.656244 3.201172,0.884766 3.519552,0.569258 6.687654,0.297418 8.185547,-0.703125 0.21303,-0.142297 0.605469,-0.505847 0.605469,-0.560547 0,-0.01891 -0.05849,-0.114944 -0.130859,-0.214844 -0.157534,-0.217415 -0.160245,-0.394135 -0.0059,-0.416015 z m 3.648438,1.039062 c -0.229321,-0.01732 -0.469773,-0.0065 -0.666016,0.03516 l -0.259766,0.05469 -0.121093,0.263672 c -0.06628,0.144922 -0.112416,0.276578 -0.103516,0.292969 0.0089,0.01642 0.148276,0.01939 0.310547,0.0059 0.169379,-0.0142 0.32996,-0.0057 0.375,0.01953 0.08522,0.04769 0.02547,0.06081 -0.511719,0.119141 -0.152658,0.01657 -0.278016,0.05594 -0.316406,0.09961 -0.144551,0.16441 -0.533203,0.751488 -0.533203,0.804688 0,0.03162 0.05185,0.07165 0.117187,0.08789 0.06534,0.01624 0.238833,0.07656 0.384766,0.134766 0.49957,0.199288 1.395063,0.284137 1.820312,0.173828 0.643958,-0.16704 1.048234,-0.855024 0.794922,-1.351562 -0.11748,-0.230278 -0.396061,-0.474848 -0.693359,-0.609376 -0.149789,-0.06778 -0.368336,-0.113539 -0.597656,-0.130859 z m -18.59961,1.576172 c -0.089,-0.0066 -0.220862,0.05681 -0.507812,0.181641 -0.491126,0.213654 -0.859996,0.468599 -1.25586,0.867187 -0.430581,0.433552 -0.613938,0.793097 -0.636718,1.244141 -0.02975,0.589383 0.210952,0.967842 0.726562,1.138672 0.205054,0.06794 0.865206,0.0073 1.230469,-0.113282 0.189439,-0.06253 0.473566,-0.181011 0.630859,-0.263672 0.313172,-0.164564 1.59595,-1.1662 1.59375,-1.24414 -5.21e-4,-0.02666 -0.08335,-0.110077 -0.183594,-0.185547 -0.100242,-0.07547 -0.304538,-0.2485 -0.455078,-0.384766 l -0.27539,-0.248047 -0.351563,0.101563 c -0.193968,0.05525 -0.382327,0.110597 -0.417969,0.123047 -0.05422,0.01895 -0.05469,0.01066 -0.0078,-0.04687 0.03074,-0.03785 0.180604,-0.113819 0.333984,-0.167969 0.15338,-0.05415 0.279297,-0.121934 0.279297,-0.152344 0,-0.03041 -0.05424,-0.119215 -0.121093,-0.197265 -0.06683,-0.07804 -0.214659,-0.264637 -0.328126,-0.414063 C 16.027842,26.25515 15.980637,26.17848 15.891637,26.17188 Z m 16.515625,0.388672 -0.464843,0.449219 c -0.256037,0.247251 -0.607041,0.553645 -0.779297,0.68164 -0.172254,0.128001 -0.3125,0.250182 -0.3125,0.269532 0,0.01935 0.09221,0.09712 0.205078,0.173828 0.112851,0.0767 0.299226,0.224275 0.416015,0.328125 0.246763,0.219428 0.800266,0.498216 1.171875,0.591797 0.172515,0.04343 0.410617,0.06133 0.716797,0.05273 0.407244,-0.01136 0.488384,-0.02649 0.712891,-0.138672 0.460572,-0.23014 0.575172,-0.609527 0.330078,-1.097656 -0.261249,-0.520319 -0.790133,-0.904087 -1.640625,-1.191406 z m -1.880859,1.605469 c -0.0424,0.0062 -0.0753,0.0312 -0.109375,0.07227 -0.04607,0.05552 -0.03586,0.08663 0.06641,0.19336 0.06723,0.07017 0.110872,0.139133 0.09766,0.152343 -0.0132,0.0132 -0.113461,-0.02021 -0.224609,-0.07422 l -0.203125,-0.09766 -0.224609,0.117188 c -0.399265,0.209678 -0.513425,0.293096 -0.490235,0.353515 0.03706,0.09657 0.704515,0.978537 0.947266,1.251954 0.351459,0.395856 0.807886,0.552846 1.185547,0.410156 0.06689,-0.02527 0.17668,-0.09829 0.24414,-0.16211 0.443299,-0.419426 0.304083,-0.906115 -0.458984,-1.613281 -0.500572,-0.463904 -0.702853,-0.622105 -0.830078,-0.603515 z m -12.517578,0.04883 c -0.08665,0 -0.714569,0.468773 -0.984375,0.734375 -0.489494,0.48185 -0.667586,1.03642 -0.496094,1.552734 0.119823,0.360765 0.354772,0.591277 0.669922,0.654297 0.08316,0.01663 0.162321,0.03246 0.175781,0.03516 0.01349,0.0027 0.139081,-0.01704 0.279297,-0.04297 0.417563,-0.04645 0.76211,-0.201782 1.058594,-0.666016 0.07094,-0.103097 0.188949,-0.359053 0.261719,-0.56836 0.07275,-0.209302 0.19975,-0.490742 0.28125,-0.625 0.08149,-0.134263 0.146587,-0.26107 0.146484,-0.28125 -8.4e-5,-0.02018 -0.14553,-0.111396 -0.324219,-0.203124 -0.178689,-0.09174 -0.482513,-0.26275 -0.675781,-0.378907 -0.193269,-0.116157 -0.370558,-0.210937 -0.392578,-0.210937 z m 11.083984,0.779297 c -0.08664,-0.0027 -0.681966,0.249023 -0.697266,0.294921 -0.008,0.0238 0.01702,0.102892 0.05469,0.175782 0.08739,0.16894 0.04281,0.168247 -0.132812,-0.002 l -0.138672,-0.134766 -0.34961,0.117187 c -0.399965,0.1332 -0.400715,0.132901 -0.259765,0.552735 0.351939,1.048323 1.13561,1.845703 1.8125,1.845703 0.183673,0 0.28144,-0.02505 0.388671,-0.09766 0.07896,-0.05346 0.188911,-0.182398 0.244141,-0.28711 0.143173,-0.271457 0.141349,-0.827163 -0.0039,-1.179687 -0.110267,-0.26811 -0.834509,-1.282556 -0.917969,-1.285156 z m -9.392578,0.152343 c -0.08159,0.05042 -0.347594,0.561526 -0.476562,0.916016 -0.119082,0.32731 -0.137072,0.433947 -0.138672,0.808594 -0.0016,0.354211 0.01657,0.478719 0.09961,0.689453 0.126071,0.319916 0.427037,0.652231 0.714844,0.787109 0.261949,0.12276 0.68115,0.135222 0.986328,0.03125 0.239808,-0.08171 0.632226,-0.422632 0.785156,-0.683594 0.05844,-0.09972 0.145126,-0.293208 0.191406,-0.427734 0.115279,-0.335085 0.282809,-1.363675 0.230469,-1.416016 -0.05067,-0.05067 -0.96725,-0.260678 -1.03125,-0.236328 -0.02563,0.0098 -0.130964,0.203611 -0.234375,0.431641 -0.103409,0.228029 -0.204049,0.414063 -0.224609,0.414063 -0.05891,-2e-6 0.0078,-0.296076 0.138672,-0.613282 0.132091,-0.319882 0.126386,-0.342012 -0.128907,-0.414062 -0.08316,-0.02347 -0.314549,-0.102271 -0.513671,-0.175782 -0.199132,-0.07351 -0.378288,-0.123778 -0.398439,-0.111328 z m 7.320312,0.539063 c -0.0801,0.0061 -0.206179,0.0291 -0.410156,0.07031 -0.269979,0.05454 -0.695846,0.120235 -0.945312,0.146485 -0.707783,0.07446 -0.661603,0.05358 -0.626953,0.291015 0.07667,0.525417 0.357018,1.114711 0.617187,1.296875 0.283642,0.198591 0.758646,0.241749 1.044922,0.0957 0.305516,-0.155865 0.508798,-0.553067 0.548828,-1.072266 0.02996,-0.388651 -0.0059,-0.714938 -0.08984,-0.798828 -0.02382,-0.0238 -0.05857,-0.0354 -0.138672,-0.0293 z m -4.572265,0.236328 -0.06055,0.259766 c -0.03663,0.158816 -0.06165,0.533959 -0.06445,0.970703 -0.0041,0.644667 0.006,0.737089 0.09375,0.955078 0.28338,0.703883 0.981718,1.01472 1.548828,0.689453 0.646593,-0.370853 0.964995,-1.334291 0.787109,-2.375 -0.08144,-0.476507 0.183531,-0.413348 -2.089843,-0.492187 z"
       id="path819"
       inkscape:connector-curvature="0" />
    <rect
       style="opacity:1;vector-effect:none;fill:#ffffff;fill-opacity:1;fill-rule:evenodd;paint-order:normal"
       id="rect887"
       width="0.640625"
       height="0.71875"
       x="21.278345"
       y="20.125002"
       ry="0.359375"
       rx="0.3203125" />
    <rect
       style="opacity:1;vector-effect:none;fill:#ffffff;fill-opacity:1;fill-rule:evenodd;paint-order:normal"
       id="rect904"
       width="0.5"
       height="0.625"
       x="28.168968"
       y="20.125002"
       ry="0.3125"
       rx="0.25" />
  </g>
</svg>
