<?xml version="1.0" encoding="UTF-8" standalone="no"?>
<!-- Created with Inkscape (http://www.inkscape.org/) -->

<svg
   xmlns:dc="http://purl.org/dc/elements/1.1/"
   xmlns:cc="http://creativecommons.org/ns#"
   xmlns:rdf="http://www.w3.org/1999/02/22-rdf-syntax-ns#"
   xmlns:svg="http://www.w3.org/2000/svg"
   xmlns="http://www.w3.org/2000/svg"
   xmlns:sodipodi="http://sodipodi.sourceforge.net/DTD/sodipodi-0.dtd"
   xmlns:inkscape="http://www.inkscape.org/namespaces/inkscape"
   width="48px"
   height="48px"
   viewBox="0 0 48 48"
   version="1.1"
   id="SVGRoot"
   inkscape:version="0.92.4 (5da689c313, 2019-01-14)"
   sodipodi:docname="project-outfoxa.svg">
  <defs
     id="defs1995" />
  <sodipodi:namedview
     id="base"
     pagecolor="#ffffff"
     bordercolor="#666666"
     borderopacity="1.0"
     inkscape:pageopacity="0.0"
     inkscape:pageshadow="2"
     inkscape:zoom="18.083334"
     inkscape:cx="20.516624"
     inkscape:cy="27.420754"
     inkscape:document-units="px"
     inkscape:current-layer="layer1"
     showgrid="true"
     inkscape:window-width="1920"
     inkscape:window-height="1017"
     inkscape:window-x="-8"
     inkscape:window-y="-8"
     inkscape:window-maximized="1"
     inkscape:grid-bbox="true"
     showguides="false"
     inkscape:guide-bbox="true"
     inkscape:snap-global="false">
    <inkscape:grid
       type="xygrid"
       id="grid2562" />
  </sodipodi:namedview>
  <metadata
     id="metadata1998">
    <rdf:RDF>
      <cc:Work
         rdf:about="">
        <dc:format>image/svg+xml</dc:format>
        <dc:type
           rdf:resource="http://purl.org/dc/dcmitype/StillImage" />
        <dc:title></dc:title>
      </cc:Work>
    </rdf:RDF>
  </metadata>
  <g
     inkscape:label="Layer 1"
     inkscape:groupmode="layer"
     id="layer1">
    <path
       style="opacity:1;vector-effect:none;fill:#ffffff;fill-opacity:1;fill-rule:evenodd;paint-order:stroke fill markers"
       d="m 29.591797,11.625 -0.238281,0.002 c -0.848719,0.0042 -2.807693,0.71357 -4.082032,1.480469 -1.164861,0.701015 -2.374167,1.767436 -3.099609,2.730469 l -0.193704,0.345516 -0.06836,0.546875 c -0.07242,0.566221 -0.260496,1.79372 -0.316407,2.070312 -0.0245,0.121174 -0.01396,0.152228 0.04297,0.126953 0.04098,-0.0182 0.100848,-0.114252 0.38659,-0.231472 0.918731,-0.376898 1.898743,-0.516912 2.740234,-0.394532 0.46836,0.06811 1.184875,0.344302 1.537339,0.552261 l 0.197266,0.115235 -0.0332,-0.158204 c -0.144871,-0.713304 -0.439189,-2.854347 -0.531249,-3.919562 -0.06562,-0.759231 -0.06638,-0.773901 0.05469,-0.984375 0.304181,-0.528814 1.222237,-0.924972 1.905014,-0.788417 0.103159,0.02063 0.264333,0.126023 0.380859,0.246094 l 0.294276,0.314754 0.433766,-0.81214 c 0.293214,-0.487853 0.546588,-0.9667 0.5625,-1.064454 z m -2.070313,1.810547 c -0.485234,0.01526 -1.065807,0.290816 -1.257812,0.662109 -0.07817,0.15116 -0.08213,0.25109 -0.02539,0.859375 0.08773,0.940438 0.304433,2.596212 0.470703,3.609375 0.07585,0.46218 0.131196,0.847407 0.123047,0.855469 -0.0081,0.0081 -0.1554,-0.06736 -0.326172,-0.167969 -0.446275,-0.262915 -1.260547,-0.553216 -1.765625,-0.628906 -0.948467,-0.142135 -2.12908,0.08902 -3.197265,0.626953 -0.212426,0.106976 -0.386719,0.186457 -0.386719,0.175781 0,-0.01068 0.07266,-0.485982 0.162109,-1.054687 0.178186,-1.132892 0.22622,-1.511659 0.382813,-3.046875 0.06165,-0.604426 0.08709,-1.078837 0.06055,-1.148438 -0.118363,-0.310473 -0.715783,-0.683232 -1.173828,-0.732422 -0.403949,-0.04338 -0.622559,0.07591 -0.97461,0.53125 -0.78794,1.019105 -2.132161,3.118954 -3.691406,5.769532 -1.089487,1.852032 -2.087467,3.644832 -2.148437,3.857422 -0.06736,0.234879 0.104197,0.526684 0.582031,0.988281 0.808701,0.78122 2.502298,2.204389 4.412109,3.708984 1.027202,0.809255 1.189344,0.886202 2.525391,1.205078 1.539771,0.367499 2.715388,0.436898 4.15625,0.242188 0.687085,-0.09285 1.511903,-0.279691 2.277343,-0.515625 0.511714,-0.157726 0.556077,-0.186423 1.476563,-0.910156 1.903155,-1.496356 3.62362,-2.940472 4.441406,-3.730469 0.477834,-0.461597 0.649394,-0.753402 0.582031,-0.988281 -0.106256,-0.370493 -2.443306,-4.423038 -3.816406,-6.617188 -1.293594,-2.067105 -2.199917,-3.350187 -2.453125,-3.472656 -0.122561,-0.05928 -0.273802,-0.08321 -0.435547,-0.07813 z m -8.169922,8.662109 c 0.420108,0 0.48726,0.01442 0.69336,0.154297 0.358809,0.243503 0.528882,0.542382 0.554687,0.974609 0.02799,0.468901 -0.05688,0.718989 -0.34375,1.00586 -0.310205,0.310205 -0.717607,0.432928 -1.160156,0.349609 -0.310747,-0.0585 -0.522903,-0.176887 -0.703125,-0.390625 -0.243635,-0.288945 -0.311037,-0.512095 -0.289062,-0.947265 0.02347,-0.464841 0.184069,-0.757711 0.550781,-0.996094 0.206912,-0.134504 0.282455,-0.150391 0.697265,-0.150391 z m 9.296876,0 c 0.414811,0 0.490353,0.01588 0.697265,0.150391 0.361065,0.234712 0.527209,0.528742 0.552735,0.980469 0.0268,0.474262 -0.08493,0.788341 -0.371094,1.046875 -0.303576,0.274263 -0.71977,0.384982 -1.148438,0.304687 -0.316824,-0.05935 -0.623623,-0.26832 -0.810547,-0.550781 -0.135226,-0.204342 -0.15039,-0.277005 -0.15039,-0.697266 0,-0.42449 0.01417,-0.490787 0.154297,-0.697265 0.08512,-0.125427 0.257385,-0.297693 0.382812,-0.382813 0.2061,-0.13987 0.273253,-0.154297 0.69336,-0.154297 z m -13.044635,4.342227 -0.125,0.146484 c -0.402078,0.468344 -0.61725,1.1496 -0.722944,2.007382 -0.07862,0.638085 -0.01117,1.322958 0.191407,1.923828 0.510342,1.513895 1.768556,2.198771 3.099609,1.888672 0.618968,-0.144202 1.676135,-0.911594 1.921158,-1.452924 0.355339,-0.711805 0.405503,-0.714637 -0.79587,-1.634536 -0.578562,-0.44301 -1.61875,-1.271993 -2.310547,-1.841797 z"
       id="rect838"
       inkscape:connector-curvature="0"
       sodipodi:nodetypes="ccscccccsccccccccccccscccccscscccccscsssccsscssssscccccssscccccsccsccccsscccc" />
    <path
       style="fill:#ffffff"
       d="m 20.815455,29.786477 c 0,0 1.13397,0.931985 2.055029,1.582703 0.780854,0.551665 1.389341,0.592245 2.212471,0 1.110638,-0.799108 2.220757,-1.615849 2.220757,-1.615849 0,0 -1.341342,0.595672 -3.306277,0.580049 -1.964935,-0.01562 -3.18198,-0.546903 -3.18198,-0.546903 z"
       id="path841"
       inkscape:connector-curvature="0"
       sodipodi:nodetypes="cssczc" />
    <path
       style="opacity:1;vector-effect:none;fill:#ffffff;fill-opacity:1;fill-rule:evenodd;paint-order:stroke fill markers"
       d="m 32.396206,26.439883 0.125,0.146484 c 0.402078,0.468344 0.61725,1.1496 0.722944,2.007382 0.07862,0.638085 0.01117,1.322958 -0.191407,1.923828 -0.510342,1.513895 -1.768556,2.198771 -3.099609,1.888672 -0.618968,-0.144202 -1.676135,-0.911594 -1.921158,-1.452924 -0.355339,-0.711805 -0.405503,-0.714637 0.79587,-1.634536 0.578562,-0.44301 1.61875,-1.271993 2.310547,-1.841797 z"
       id="rect838-8"
       inkscape:connector-curvature="0"
       sodipodi:nodetypes="cccsscccc" />
  </g>
</svg>
