<?xml version="1.0" encoding="UTF-8" standalone="no"?>
<!-- Created with Inkscape (http://www.inkscape.org/) -->

<svg
   xmlns:dc="http://purl.org/dc/elements/1.1/"
   xmlns:cc="http://creativecommons.org/ns#"
   xmlns:rdf="http://www.w3.org/1999/02/22-rdf-syntax-ns#"
   xmlns:svg="http://www.w3.org/2000/svg"
   xmlns="http://www.w3.org/2000/svg"
   xmlns:sodipodi="http://sodipodi.sourceforge.net/DTD/sodipodi-0.dtd"
   xmlns:inkscape="http://www.inkscape.org/namespaces/inkscape"
   width="48px"
   height="48px"
   viewBox="0 0 48 48"
   version="1.1"
   id="SVGRoot"
   inkscape:version="0.92.4 (5da689c313, 2019-01-14)"
   sodipodi:docname="reicasta.svg"
   inkscape:export-filename="C:\Users\Admin\Documents\Rainmeter\Skins\Honeycomb-NG\@Resources\Images\openshot.png"
   inkscape:export-xdpi="512"
   inkscape:export-ydpi="512">
  <defs
     id="defs1995" />
  <sodipodi:namedview
     id="base"
     pagecolor="#ffffff"
     bordercolor="#666666"
     borderopacity="1.0"
     inkscape:pageopacity="0.0"
     inkscape:pageshadow="2"
     inkscape:zoom="36.166668"
     inkscape:cx="5.3659271"
     inkscape:cy="29.295753"
     inkscape:document-units="px"
     inkscape:current-layer="layer1"
     showgrid="true"
     inkscape:window-width="1920"
     inkscape:window-height="1017"
     inkscape:window-x="-8"
     inkscape:window-y="-8"
     inkscape:window-maximized="1"
     inkscape:grid-bbox="true"
     inkscape:snap-global="false"
     showguides="true">
    <inkscape:grid
       type="xygrid"
       id="grid2562" />
  </sodipodi:namedview>
  <metadata
     id="metadata1998">
    <rdf:RDF>
      <cc:Work
         rdf:about="">
        <dc:format>image/svg+xml</dc:format>
        <dc:type
           rdf:resource="http://purl.org/dc/dcmitype/StillImage" />
        <dc:title></dc:title>
      </cc:Work>
    </rdf:RDF>
  </metadata>
  <g
     inkscape:label="Layer 1"
     inkscape:groupmode="layer"
     id="layer1">
    <path
       style="fill:#ffffff;stroke-width:0.89736456"
       d="m 31.17706,20.35541 1.030031,5.050309 2.94294,-0.480981 -1.030029,-5.861968 -2.854654,-3.72761 -4.97357,-2.284665 -6.798196,0.571167 -5.562158,5.050309 -1.147747,6.673626 2.589788,4.56933 6.209606,3.036198 4.914712,-1.112271 3.56096,-4.38896 -0.176576,-5.982213 -3.855255,-3.577305 -4.855853,-0.150306 -3.560959,3.096322 0.05885,4.59939 3.237236,3.156445 3.914111,-0.511045 1.353753,-2.254602 -0.05885,-2.675463 -1.97177,-1.773621 -2.207206,0.360735 -0.765166,1.953991 1.471471,1.202455 1.353754,0.180369 -0.05885,1.3227 -1.765765,0.360736 -2.589788,-2.224543 0.05885,-2.555216 2.148347,-2.224541 2.413213,-0.09019 2.913511,1.833744 1.000601,4.088347 -1.765765,3.246628 -2.884083,1.292639 -2.913511,0.0902 -4.620419,-4.028224 -0.02943,-5.080373 3.796395,-4.388961 6.209606,-0.45092 z"
       id="path833"
       inkscape:connector-curvature="0" />
  </g>
</svg>
