<?xml version="1.0" encoding="UTF-8" standalone="no"?>
<!-- Created with Inkscape (http://www.inkscape.org/) -->

<svg
   xmlns:dc="http://purl.org/dc/elements/1.1/"
   xmlns:cc="http://creativecommons.org/ns#"
   xmlns:rdf="http://www.w3.org/1999/02/22-rdf-syntax-ns#"
   xmlns:svg="http://www.w3.org/2000/svg"
   xmlns="http://www.w3.org/2000/svg"
   xmlns:sodipodi="http://sodipodi.sourceforge.net/DTD/sodipodi-0.dtd"
   xmlns:inkscape="http://www.inkscape.org/namespaces/inkscape"
   width="48px"
   height="48px"
   viewBox="0 0 48 48"
   version="1.1"
   id="SVGRoot"
   inkscape:version="0.92.4 (5da689c313, 2019-01-14)"
   sodipodi:docname="runescapea.svg"
   inkscape:export-filename="C:\Users\Admin\Documents\Rainmeter\Skins\Honeycomb-NG\@Resources\Images\openshot.png"
   inkscape:export-xdpi="512"
   inkscape:export-ydpi="512">
  <defs
     id="defs1995" />
  <sodipodi:namedview
     id="base"
     pagecolor="#ffffff"
     bordercolor="#666666"
     borderopacity="1.0"
     inkscape:pageopacity="0.0"
     inkscape:pageshadow="2"
     inkscape:zoom="15.575888"
     inkscape:cx="43.007247"
     inkscape:cy="32.250412"
     inkscape:document-units="px"
     inkscape:current-layer="layer1"
     showgrid="true"
     inkscape:window-width="1920"
     inkscape:window-height="1017"
     inkscape:window-x="-8"
     inkscape:window-y="-8"
     inkscape:window-maximized="1"
     inkscape:grid-bbox="true"
     inkscape:snap-global="false">
    <inkscape:grid
       type="xygrid"
       id="grid2562" />
  </sodipodi:namedview>
  <metadata
     id="metadata1998">
    <rdf:RDF>
      <cc:Work
         rdf:about="">
        <dc:format>image/svg+xml</dc:format>
        <dc:type
           rdf:resource="http://purl.org/dc/dcmitype/StillImage" />
        <dc:title></dc:title>
      </cc:Work>
    </rdf:RDF>
  </metadata>
  <g
     inkscape:label="Layer 1"
     inkscape:groupmode="layer"
     id="layer1">
    <path
       style="fill:#eceff4;stroke:none;stroke-width:0.06678711px;stroke-linecap:butt;stroke-linejoin:miter;stroke-opacity:1"
       d="m 22.659853,16.721985 0.668219,-0.616817 -0.796723,-0.79672 h -2.153715 l -0.164486,-3.613516 c 0,0 0.332391,-0.410793 0.308409,-0.678497 -0.04434,-0.494855 -0.568722,-0.825951 -0.997187,-0.812142 -0.387764,0.01245 -0.8434,0.36094 -0.853263,0.791582 -0.0059,0.256412 0.298129,0.709337 0.298129,0.709337 l -0.174765,3.608376 h -2.086895 l -0.894384,0.729898 0.627098,0.740181 c 0,0 0.29941,-0.544854 0.534573,-0.544854 h 0.719619 c 0.37947,0 0.493453,0.606535 0.493453,0.606535 v 5.921435 l -0.503733,0.524295 0.549994,0.549995 v 5.032192 c 0,1.749854 -0.313547,2.67287 -0.313547,2.67287 l 1.706524,2.929878 1.819608,-2.940158 c 0,0 -0.40093,-0.67113 -0.40093,-2.713992 V 16.92759 c 0,0 -0.0013,-0.801861 0.37009,-0.801861 h 0.472891 c 0.309362,0 0.771021,0.596256 0.771021,0.596256 z"
       id="path828"
       inkscape:connector-curvature="0"
       sodipodi:nodetypes="cccccssscccccssccccscccscssc" />
    <path
       style="fill:#d5a163;stroke:none;stroke-width:0.06678711px;stroke-linecap:butt;stroke-linejoin:miter;stroke-opacity:1"
       d="m 23.634036,16.619181 0.452331,-0.575695 -0.688777,-0.750458 c 0,0 5.715019,-0.112999 5.849474,4.19435 0.09772,3.13039 -2.63175,4.975651 -2.63175,4.975651 0,0 2.697754,7.01853 8.69711,9.375607 -10.114245,-0.858845 -12.212961,-9.272803 -12.212961,-9.272803 0,0 3.458173,-0.483162 3.207443,-4.091549 -0.196146,-2.822856 -2.67287,-3.855103 -2.67287,-3.855103 z"
       id="path830"
       inkscape:connector-curvature="0"
       sodipodi:nodetypes="cccscccsc" />
  </g>
</svg>
