<?xml version="1.0" encoding="UTF-8" standalone="no"?>
<!-- Created with Inkscape (http://www.inkscape.org/) -->

<svg
   xmlns:dc="http://purl.org/dc/elements/1.1/"
   xmlns:cc="http://creativecommons.org/ns#"
   xmlns:rdf="http://www.w3.org/1999/02/22-rdf-syntax-ns#"
   xmlns:svg="http://www.w3.org/2000/svg"
   xmlns="http://www.w3.org/2000/svg"
   xmlns:xlink="http://www.w3.org/1999/xlink"
   xmlns:sodipodi="http://sodipodi.sourceforge.net/DTD/sodipodi-0.dtd"
   xmlns:inkscape="http://www.inkscape.org/namespaces/inkscape"
   width="48px"
   height="48px"
   viewBox="0 0 48 48"
   version="1.1"
   id="SVGRoot"
   inkscape:version="0.92.4 (5da689c313, 2019-01-14)"
   sodipodi:docname="scummvma.svg">
  <defs
     id="defs1995">
    <linearGradient
       gradientUnits="userSpaceOnUse"
       y2="50"
       x2="90"
       y1="20"
       x1="60"
       xlink:href="#WhiteTransparent-4"
       id="IcecapTip-6"
       gradientTransform="matrix(0.9965784,0,0,0.9962666,-89.841948,-62.996045)" />
    <linearGradient
       gradientUnits="userSpaceOnUse"
       id="WhiteTransparent-4">
      <stop
         id="stop7606-4"
         offset="0"
         style="stop-color:white;stop-opacity:1" />
      <stop
         id="stop7608-7"
         offset="1"
         style="stop-color:white;stop-opacity:0" />
    </linearGradient>
  </defs>
  <sodipodi:namedview
     id="base"
     pagecolor="#ffffff"
     bordercolor="#666666"
     borderopacity="1.0"
     inkscape:pageopacity="0.0"
     inkscape:pageshadow="2"
     inkscape:zoom="25.573696"
     inkscape:cx="5.0400908"
     inkscape:cy="28.743453"
     inkscape:document-units="px"
     inkscape:current-layer="layer1"
     showgrid="true"
     inkscape:window-width="1920"
     inkscape:window-height="1017"
     inkscape:window-x="-8"
     inkscape:window-y="-8"
     inkscape:window-maximized="1"
     inkscape:grid-bbox="true"
     showguides="true"
     inkscape:guide-bbox="true"
     inkscape:snap-global="false">
    <inkscape:grid
       type="xygrid"
       id="grid2562" />
  </sodipodi:namedview>
  <metadata
     id="metadata1998">
    <rdf:RDF>
      <cc:Work
         rdf:about="">
        <dc:format>image/svg+xml</dc:format>
        <dc:type
           rdf:resource="http://purl.org/dc/dcmitype/StillImage" />
        <dc:title></dc:title>
      </cc:Work>
    </rdf:RDF>
  </metadata>
  <g
     inkscape:label="Layer 1"
     inkscape:groupmode="layer"
     id="layer1">
    <path
       style="fill:#ffffff;stroke-width:0.03018621"
       d="m 22.563011,34.502324 c -1.415958,-0.157702 -2.53843,-0.474634 -3.682721,-1.039825 -0.874381,-0.431877 -1.490598,-0.86186 -2.306072,-1.60913 -1.372542,-1.25775 -1.868419,-2.149949 -1.754387,-3.15654 0.0603,-0.532678 0.249691,-0.957899 0.680605,-1.528404 0.293674,-0.388818 0.547498,-0.670171 1.423371,-1.577793 0.727805,-0.754176 0.946686,-1.025437 1.006411,-1.247253 0.06101,-0.226607 -0.126334,-0.568473 -0.742802,-1.355424 -0.523076,-0.667736 -0.729305,-0.979399 -0.94877,-1.433845 -0.275686,-0.570875 -0.452749,-1.144191 -0.57856,-1.873313 -0.0585,-0.339186 -0.06722,-0.496042 -0.06622,-1.190587 9e-4,-0.727753 0.0081,-0.83943 0.08006,-1.237635 0.132308,-0.733876 0.337,-1.366255 0.630234,-1.94701 0.920727,-1.823525 2.688369,-3.098502 5.021189,-3.62171 1.469709,-0.32963 3.209764,-0.341181 4.724129,-0.03137 1.101439,0.225337 2.287419,0.635263 3.078993,1.064235 0.636793,0.345088 1.540413,0.934617 2.022479,1.319485 0.32718,0.261211 0.851417,0.770774 1.024885,0.99619 0.413842,0.537803 0.605031,1.073568 0.565316,1.584191 -0.05229,0.672716 -0.507128,1.582803 -1.289446,2.580245 -0.82365,1.050148 -0.931842,1.224257 -0.957217,1.540395 -0.0123,0.153122 -0.0026,0.209952 0.05337,0.320392 0.13937,0.273718 0.443116,0.695206 0.901642,1.251141 0.650847,0.789109 1.037338,1.61259 1.331758,2.837504 0.186004,0.773883 0.274642,1.741168 0.215754,2.354525 -0.08886,0.925449 -0.40148,2.01722 -0.812518,2.837503 -0.670641,1.338336 -1.566048,2.225226 -3.027751,2.998937 -1.120046,0.59287 -2.312586,0.945923 -3.846862,1.138875 -0.55509,0.0698 -2.213443,0.08564 -2.746942,0.02622 z m 2.203587,-2.459184 c 0.567706,-0.04114 1.109373,-0.12866 1.684734,-0.272241 2.496137,-0.622906 4.177026,-2.211377 4.582421,-4.330479 0.06011,-0.3144 0.06936,-0.457901 0.06981,-1.086703 5.56e-4,-0.754217 -0.02462,-0.989806 -0.168015,-1.569683 -0.244148,-0.987605 -0.939363,-2.115064 -1.785495,-2.895626 -0.810451,-0.747651 -1.655892,-1.298345 -3.38733,-2.206416 -0.969788,-0.508611 -1.632512,-0.920548 -1.942082,-1.207155 -0.101502,-0.09397 -0.219697,-0.243791 -0.278614,-0.35314 -0.09284,-0.172317 -0.102136,-0.212328 -0.100236,-0.431422 0.0037,-0.397199 0.149453,-0.641041 0.46992,-0.784855 0.170459,-0.07651 0.221217,-0.08468 0.521836,-0.08419 0.467386,7.66e-4 0.941097,0.105523 1.59924,0.353625 0.809876,0.305311 1.853854,0.900395 2.567237,1.463371 0.308887,0.243758 0.406539,0.276113 0.604824,0.200387 0.122865,-0.04692 0.158742,-0.08844 0.426926,-0.494129 0.869924,-1.315935 1.345738,-2.042741 1.357679,-2.073865 0.0071,-0.01921 -0.160423,-0.192731 -0.372888,-0.38559 -0.898524,-0.815631 -1.643527,-1.34089 -2.574795,-1.815342 -1.031479,-0.525511 -1.904296,-0.778046 -3.199736,-0.92579 -0.717552,-0.08184 -1.785494,-0.06884 -2.384711,0.02901 -1.115113,0.182096 -2.102421,0.5593 -2.836111,1.083543 -1.026,0.733105 -1.710361,1.766997 -1.967169,2.971858 -0.09324,0.43744 -0.116378,1.517825 -0.04205,1.962473 0.133566,0.798763 0.3502,1.330626 0.839662,2.061475 0.291769,0.435659 0.486147,0.667116 0.938887,1.117983 0.756387,0.753248 1.141252,1.030685 2.825268,2.036616 2.046479,1.222449 2.567875,1.597318 2.815454,2.024241 0.178267,0.307405 0.207784,0.613492 0.09559,0.991286 -0.193973,0.653189 -1.301469,0.781521 -2.714839,0.314588 -1.155043,-0.381592 -2.150896,-0.96021 -2.994387,-1.739834 -0.286081,-0.26441 -0.382655,-0.29976 -0.579468,-0.212095 -0.105028,0.04678 -0.283286,0.252541 -1.132877,1.307653 -0.749109,0.930322 -1.001766,1.263924 -0.983077,1.298009 0.07898,0.143971 0.614978,0.769453 0.980156,1.143787 1.715779,1.758794 3.559606,2.503163 6.279332,2.535033 0.199229,0.0023 0.552413,-0.0096 0.784843,-0.02637 z"
       id="path835"
       inkscape:connector-curvature="0" />
  </g>
</svg>
