<?xml version="1.0" encoding="UTF-8" standalone="no"?>
<!-- Created with Inkscape (http://www.inkscape.org/) -->

<svg
   xmlns:dc="http://purl.org/dc/elements/1.1/"
   xmlns:cc="http://creativecommons.org/ns#"
   xmlns:rdf="http://www.w3.org/1999/02/22-rdf-syntax-ns#"
   xmlns:svg="http://www.w3.org/2000/svg"
   xmlns="http://www.w3.org/2000/svg"
   xmlns:xlink="http://www.w3.org/1999/xlink"
   xmlns:sodipodi="http://sodipodi.sourceforge.net/DTD/sodipodi-0.dtd"
   xmlns:inkscape="http://www.inkscape.org/namespaces/inkscape"
   width="48px"
   height="48px"
   viewBox="0 0 48 48"
   version="1.1"
   id="SVGRoot"
   inkscape:version="0.92.4 (5da689c313, 2019-01-14)"
   sodipodi:docname="sims-4-studioa.svg"
   inkscape:export-filename="C:\Users\Admin\Documents\Rainmeter\Skins\Honeycomb-NG\@Resources\Images\virtualbox.png"
   inkscape:export-xdpi="512"
   inkscape:export-ydpi="512">
  <defs
     id="defs1995">
    <linearGradient
       gradientTransform="matrix(0.9965784,0,0,0.9962666,-89.841948,-62.996045)"
       id="IcecapTip-6"
       xlink:href="#WhiteTransparent-4"
       x1="60"
       y1="20"
       x2="90"
       y2="50"
       gradientUnits="userSpaceOnUse" />
    <linearGradient
       id="WhiteTransparent-4"
       gradientUnits="userSpaceOnUse">
      <stop
         style="stop-color:white;stop-opacity:1"
         offset="0"
         id="stop7606-4" />
      <stop
         style="stop-color:white;stop-opacity:0"
         offset="1"
         id="stop7608-7" />
    </linearGradient>
  </defs>
  <sodipodi:namedview
     id="base"
     pagecolor="#ffffff"
     bordercolor="#666666"
     borderopacity="1.0"
     inkscape:pageopacity="0.0"
     inkscape:pageshadow="2"
     inkscape:zoom="18.083334"
     inkscape:cx="16.080088"
     inkscape:cy="25.886131"
     inkscape:document-units="px"
     inkscape:current-layer="layer1"
     showgrid="true"
     inkscape:window-width="1920"
     inkscape:window-height="1017"
     inkscape:window-x="-8"
     inkscape:window-y="-8"
     inkscape:window-maximized="1"
     inkscape:grid-bbox="true"
     inkscape:snap-global="true">
    <inkscape:grid
       type="xygrid"
       id="grid2562" />
  </sodipodi:namedview>
  <metadata
     id="metadata1998">
    <rdf:RDF>
      <cc:Work
         rdf:about="">
        <dc:format>image/svg+xml</dc:format>
        <dc:type
           rdf:resource="http://purl.org/dc/dcmitype/StillImage" />
        <dc:title></dc:title>
      </cc:Work>
    </rdf:RDF>
  </metadata>
  <g
     inkscape:label="Layer 1"
     inkscape:groupmode="layer"
     id="layer1">
    <path
       style="fill:#a3be8c"
       d="m 24,11 1.826172,7 H 27 c 0.552262,5.5e-5 0.999945,0.447738 1,1 v 3.625 L 31,23 Z m 0,0 -1.216797,7 H 23 c 0.552262,5.5e-5 0.999945,0.447738 1,1 5.5e-5,-0.552262 0.447738,-0.999945 1,-1 h 0.216797 z m 0,0 -7,12 3,-0.375 V 19 c 5.5e-5,-0.552262 0.447738,-0.999945 1,-1 h 1.173828 z m -7,12 7,12 -2.443359,-9.363281 C 20.9864,25.331039 20.571132,24.878591 20.355469,24.447266 20.142625,24.02158 20.067512,23.654782 20.033203,23.378906 Z m 7,12 1.216797,-7 H 25 c -0.552262,-5.5e-5 -0.999945,-0.447738 -1,-1 v -1 h -1 c -0.202607,0 -0.392276,-0.02411 -0.576172,-0.05859 z m 0,0 7,-12 -3,0.375 V 27 c -5.5e-5,0.552262 -0.447738,0.999945 -1,1 h -1.173828 z"
       id="path848"
       inkscape:connector-curvature="0"
       sodipodi:nodetypes="ccccccccccccccccccccccccscccccccsccccccccc" />
    <path
       style="fill:#81a1c1"
       d="m 21,19 h 2 v 4 h 2 v -4 h 2 v 8 h -2 v -2 c 0,0 -1.333333,0 -2,0 -2,0 -2,-2 -2,-2 z"
       id="path830-2"
       inkscape:connector-curvature="0"
       sodipodi:nodetypes="cccccccccscc" />
    <path
       style="fill:#81a1c1;stroke:none;stroke-width:1px;stroke-linecap:butt;stroke-linejoin:miter;stroke-opacity:1"
       d="m 16,33 v -1 h 3 v -1 h -2 c 0,0 -1,0 -1,-1 v -1 c 0,-1 1,-1 1,-1 h 2 l 0.5,1 H 17 v 1 h 2 c 0,0 1,0 1,1 v 1 c 0,1 -1,1 -1,1 z"
       id="path847"
       inkscape:connector-curvature="0"
       sodipodi:nodetypes="cccccssccccccsscc" />
    <path
       style="fill:#81a1c1;stroke:none;stroke-width:1px;stroke-linecap:butt;stroke-linejoin:miter;stroke-opacity:1"
       d="M 29,18 28.5,17 H 31 v -1 h -2 c 0,0 -1,0 -1,-1 v -1 c 0,-1 1,-1 1,-1 h 3 v 1 h -3 v 1 h 2 c 0,0 1,0 1,1 v 1 c 0,1 -1,1 -1,1 z"
       id="path847-9"
       inkscape:connector-curvature="0"
       sodipodi:nodetypes="cccccssccccccsscc" />
  </g>
</svg>
