<?xml version="1.0" encoding="UTF-8" standalone="no"?>
<!-- Created with Inkscape (http://www.inkscape.org/) -->

<svg
   xmlns:dc="http://purl.org/dc/elements/1.1/"
   xmlns:cc="http://creativecommons.org/ns#"
   xmlns:rdf="http://www.w3.org/1999/02/22-rdf-syntax-ns#"
   xmlns:svg="http://www.w3.org/2000/svg"
   xmlns="http://www.w3.org/2000/svg"
   xmlns:sodipodi="http://sodipodi.sourceforge.net/DTD/sodipodi-0.dtd"
   xmlns:inkscape="http://www.inkscape.org/namespaces/inkscape"
   width="48px"
   height="48px"
   viewBox="0 0 48 48"
   version="1.1"
   id="SVGRoot"
   inkscape:version="0.92.4 (5da689c313, 2019-01-14)"
   sodipodi:docname="slap-citya.svg">
  <defs
     id="defs1995" />
  <sodipodi:namedview
     id="base"
     pagecolor="#ffffff"
     bordercolor="#666666"
     borderopacity="1.0"
     inkscape:pageopacity="0.0"
     inkscape:pageshadow="2"
     inkscape:zoom="12.786848"
     inkscape:cx="29.867019"
     inkscape:cy="25.323343"
     inkscape:document-units="px"
     inkscape:current-layer="layer1"
     showgrid="true"
     inkscape:window-width="1920"
     inkscape:window-height="1017"
     inkscape:window-x="-8"
     inkscape:window-y="-8"
     inkscape:window-maximized="1"
     inkscape:grid-bbox="true"
     inkscape:snap-global="false">
    <inkscape:grid
       type="xygrid"
       id="grid2562" />
  </sodipodi:namedview>
  <metadata
     id="metadata1998">
    <rdf:RDF>
      <cc:Work
         rdf:about="">
        <dc:format>image/svg+xml</dc:format>
        <dc:type
           rdf:resource="http://purl.org/dc/dcmitype/StillImage" />
        <dc:title></dc:title>
      </cc:Work>
    </rdf:RDF>
  </metadata>
  <g
     inkscape:label="Layer 1"
     inkscape:groupmode="layer"
     id="layer1">
    <path
       style="fill:#ffffff;stroke-width:0.10365311"
       d="m 27.767048,31.857637 c -0.06823,-0.08222 -0.272186,-0.163844 -0.453216,-0.181393 -0.28763,-0.02787 -0.333252,-0.0744 -0.361634,-0.368776 -0.02013,-0.208665 -0.08916,-0.336873 -0.181397,-0.336873 -0.08189,0 -0.153609,-0.03498 -0.159352,-0.07774 -0.09431,-0.702161 -0.05513,-1.296651 0.160953,-2.443019 0.4517,-2.396291 0.676443,-5.047598 0.528344,-6.232934 -0.122813,-0.982957 -0.260796,-0.469706 -0.263383,0.979709 -0.0015,0.904814 -0.06165,1.545808 -0.198974,2.124889 -0.108165,0.456074 -0.195745,1.072055 -0.194624,1.368846 0.0021,0.611287 -0.167341,0.859696 -0.587156,0.859696 -0.216107,0 -0.281378,-0.06126 -0.33132,-0.310959 -0.03423,-0.171029 -0.126326,-0.310959 -0.204713,-0.310959 -0.127125,0 -0.195526,-0.204269 -0.151162,-0.451437 0.024,-0.133652 -0.210333,-0.382814 -0.304994,-0.32431 -0.148713,0.09191 -0.02974,-0.467795 0.139109,-0.654354 0.209947,-0.23199 0.384895,-2.923331 0.190026,-2.923331 -0.208193,0 -0.480285,0.35131 -0.602995,0.778548 -0.337468,1.17497 -0.646197,3.056618 -0.501511,3.056618 0.03637,0 0.163522,-0.05214 0.282595,-0.115864 0.213563,-0.114295 0.21337,-0.110815 -0.01408,0.257244 -0.126822,0.205208 -0.201239,0.4206 -0.165364,0.478648 0.109573,0.177284 0.458274,0.117678 0.595316,-0.101762 0.246865,-0.395291 0.298989,-0.205201 0.06032,0.219965 -0.321081,0.57197 -0.654117,0.816566 -1.111816,0.816566 -0.523445,0 -0.773217,-0.2099 -1.044171,-0.877482 -0.128058,-0.315514 -0.26399,-0.573662 -0.302072,-0.573662 -0.03808,0 -0.199304,0.338168 -0.358275,0.751484 -0.369435,0.960498 -0.634279,1.376879 -1.444227,2.270569 -0.245692,0.27109 -0.339263,0.309263 -0.621919,0.253731 -0.182999,-0.03596 -0.451172,-0.152156 -0.595948,-0.25823 -0.144775,-0.106076 -0.412979,-0.225755 -0.59601,-0.265955 -0.357711,-0.07857 -0.427364,-0.263691 -0.177295,-0.47123 0.199522,-0.165588 0.201761,-0.350899 0.0032,-0.27475 -0.08369,0.03211 -0.180204,0.01303 -0.214471,-0.04242 -0.03428,-0.05546 -0.105727,-0.07398 -0.1588,-0.04117 -0.238627,0.147479 -0.06654,-0.238476 0.209942,-0.470866 0.361317,-0.303695 0.399044,-0.442472 0.866933,-3.189101 0.320766,-1.882977 0.319999,-2.318681 -0.0032,-1.676175 -0.160119,0.318566 -0.425487,0.511846 -0.702744,0.511846 -0.23054,0 -0.985933,-0.698239 -0.985933,-0.911334 0,-0.157474 -0.171515,-0.163307 -0.266833,-0.009 -0.04049,0.06549 0.07098,0.22783 0.255611,0.37233 0.18006,0.140917 0.397003,0.403511 0.4821,0.58354 0.0851,0.180031 0.231422,0.46726 0.325175,0.638287 0.325916,0.594571 0.344125,0.675771 0.342544,1.527478 -0.0015,0.809638 -0.10793,1.248015 -0.264887,1.091055 -0.03876,-0.03874 -0.190517,0.162582 -0.337268,0.44739 -0.381049,0.739525 -1.395189,1.969815 -2.503348,3.036903 l -0.955578,0.920168 -0.712187,-0.05095 c -0.745079,-0.05331 -1.293567,-0.300516 -1.201144,-0.541361 0.02869,-0.07473 -0.02598,-0.246168 -0.121436,-0.380984 -0.469293,-0.662728 -0.573587,-1.357213 -0.293657,-1.955395 0.107293,-0.229275 0.146022,-0.267422 0.105236,-0.103654 l -0.06453,0.259134 0.230425,-0.205912 c 0.255291,-0.228136 0.37088,-0.24323 1.0199,-0.133186 0.363127,0.06156 0.507521,0.03477 0.781887,-0.145075 0.463804,-0.304032 1.822396,-2.09799 1.689491,-2.230896 -0.0955,-0.0955 -0.539337,0.216155 -0.917871,0.644512 -0.21183,0.23971 -0.523883,0.493304 -0.693457,0.563544 -0.278958,0.115549 -0.343576,0.10081 -0.678681,-0.154784 -0.203696,-0.15537 -0.39933,-0.404754 -0.434736,-0.554185 -0.03542,-0.149432 -0.133589,-0.351427 -0.218184,-0.448881 -0.0846,-0.09745 -0.176859,-0.38161 -0.205022,-0.631461 -0.0419,-0.37188 0.0011,-0.536774 0.235939,-0.909139 0.294335,-0.466249 0.420953,-0.977907 0.265743,-1.073833 -0.04794,-0.02963 -0.06708,-0.183276 -0.04247,-0.341412 0.04288,-0.275804 0.03809,-0.279321 -0.117555,-0.08632 -0.207312,0.257036 -0.204108,0.211968 0.03411,-0.480418 0.108013,-0.31394 0.411196,-0.853259 0.673745,-1.198489 0.26255,-0.345226 0.477359,-0.680714 0.477359,-0.745529 0,-0.06481 0.203169,-0.337402 0.45148,-0.605753 0.248315,-0.268353 0.483113,-0.61894 0.52178,-0.779084 0.109109,-0.451929 0.85294,-1.193157 1.324867,-1.320233 0.537526,-0.144741 0.80029,-0.04728 0.970422,0.359892 0.07702,0.184326 0.209691,0.392952 0.294835,0.463614 0.08514,0.07067 0.185952,0.276847 0.224018,0.458188 0.03803,0.18134 0.304206,0.796149 0.591428,1.366241 0.753396,1.495377 0.802978,1.605088 0.811859,1.796416 0.0041,0.09514 0.139395,-0.410056 0.299952,-1.12267 0.195895,-0.869474 0.258511,-1.336789 0.19035,-1.42069 -0.05586,-0.06876 -0.06919,-0.17744 -0.02959,-0.241503 0.0396,-0.06406 -0.02285,-0.182896 -0.13874,-0.264075 -0.296222,-0.207482 -0.25732,-1.129656 0.0581,-1.37722 0.118349,-0.09289 0.231032,-0.258828 0.250409,-0.36875 0.02056,-0.116603 0.23942,-0.301688 0.525411,-0.444308 0.457299,-0.228048 0.510699,-0.23384 0.795965,-0.08632 0.168175,0.08697 0.337765,0.263585 0.376864,0.392481 0.03908,0.128896 0.15289,0.327644 0.252877,0.441663 0.09998,0.114018 0.214867,0.347237 0.255292,0.518266 0.04043,0.171027 0.140533,0.385364 0.222458,0.476307 0.241444,0.268028 0.199027,0.981455 -0.155424,2.614166 -0.323396,1.48967 -0.397855,2.295396 -0.116188,1.257332 0.0765,-0.281953 0.222307,-0.680311 0.324001,-0.885241 0.229814,-0.463085 0.858208,-1.026717 1.144696,-1.026717 0.148338,0 0.196329,-0.04811 0.155126,-0.155479 -0.09534,-0.248466 0.22405,-0.186974 0.842892,0.162279 0.309667,0.174766 0.569984,0.303037 0.578474,0.285045 0.123106,-0.260885 0.269174,-0.454021 0.411059,-0.54352 0.242608,-0.153033 0.528449,0.04337 0.570053,0.391696 0.01842,0.154073 0.09802,0.274592 0.18139,0.274592 0.08173,0 0.148595,0.04664 0.148595,0.103652 0,0.05702 0.0455,0.103654 0.101089,0.103654 0.06569,0 0.06569,-0.09312 0,-0.26588 -0.254494,-0.669374 -0.04675,-1.08161 0.545112,-1.08161 0.31016,0 0.493982,0.181292 0.493982,0.487169 0,0.142811 0.06234,0.238402 0.155482,0.238402 0.0855,0 0.15548,-0.0832 0.15548,-0.184888 0,-0.223262 0.661896,-1.274207 0.879048,-1.39573 0.08812,-0.04931 0.241654,-0.04008 0.3566,0.02144 0.111028,0.05943 0.311167,0.108035 0.44475,0.108035 0.133588,0 0.334889,0.06459 0.447342,0.143518 0.336596,0.236275 0.975525,1.606536 1.093038,2.344157 0.05903,0.37056 0.133161,0.790355 0.164721,0.932879 l 0.05738,0.259132 0.09763,-0.25613 c 0.08763,-0.22992 0.378789,-5.04896 0.355807,-5.889098 -0.0052,-0.187358 -0.07928,-0.389146 -0.164801,-0.448416 -0.116913,-0.08103 -0.123336,-0.120806 -0.02593,-0.160337 0.07125,-0.02891 0.129566,-0.09697 0.129566,-0.151236 0,-0.0604 -0.07034,-0.06248 -0.181392,-0.0053 -0.218445,0.112349 -0.440529,0.04834 -0.440529,-0.126971 0,-0.177208 0.569855,-0.580948 0.819976,-0.580948 0.113543,0 0.475064,-0.06996 0.803369,-0.15548 0.90898,-0.236759 1.505923,-0.201655 2.10893,0.124018 0.434039,0.234417 0.517508,0.327033 0.517508,0.574221 0,0.162099 -0.08812,0.467781 -0.195818,0.679295 -0.268111,0.526561 -1.803781,5.582547 -1.745365,5.746396 0.07063,0.198123 -0.187794,0.643282 -0.550722,0.948666 -0.384905,0.323877 -0.821206,0.360188 -0.8959,0.07456 -0.06871,-0.262745 -0.654671,-0.364213 -0.654671,-0.113366 0,0.09464 -0.02745,0.199548 -0.06104,0.233119 -0.03355,0.03356 -0.07328,0.288299 -0.08824,0.56606 -0.06545,1.214762 -0.493935,1.868053 -1.650215,2.515961 -0.54649,0.306219 -0.600705,0.319022 -0.53992,0.127506 0.05666,-0.178509 0.03199,-0.203587 -0.152774,-0.155275 -0.121187,0.03169 -0.258323,0.156096 -0.304753,0.276455 -0.04644,0.12036 -0.161957,1.167477 -0.256732,2.326926 -0.168342,2.059441 -0.249261,2.471141 -0.558459,2.841346 -0.184147,0.220478 -0.363535,0.231296 -0.529012,0.03191 z m -5.741982,-5.21456 c 0.03219,-0.128271 0.123472,-0.233219 0.202804,-0.233219 0.135936,0 0.192786,-0.135575 0.149757,-0.357152 -0.04811,-0.247835 -0.01201,-2.12515 0.04607,-2.396503 0.0455,-0.212375 0.03542,-0.257211 -0.03324,-0.148631 -0.05412,0.08552 -0.153811,0.505309 -0.221549,0.932876 -0.06774,0.42757 -0.148015,0.864867 -0.178397,0.971773 -0.03569,0.125514 -0.01456,0.169247 0.05952,0.123448 0.1587,-0.09808 0.149674,-0.05253 -0.144374,0.728684 -0.302426,0.803479 -0.342445,1.145512 -0.09586,0.81925 0.08617,-0.114018 0.18304,-0.312255 0.215246,-0.440526 z m 7.291296,-2.125511 c 0.256643,-0.580182 0.413372,-1.583016 0.414341,-2.651169 0.0011,-0.982595 -0.07788,-1.034312 -0.551639,-0.362159 -0.31258,0.443474 -0.306033,0.390203 -0.287431,2.340206 0.01168,1.227884 0.110249,1.384053 0.424729,0.673122 z M 16.093025,23.488913 c 0.203973,-0.238299 0.370858,-0.491696 0.370858,-0.563107 0,-0.16845 0.290761,-0.257205 0.635783,-0.194076 0.229158,0.04194 0.281254,0.0068 0.324471,-0.219339 0.08141,-0.4259 -0.02177,-0.679026 -0.247529,-0.607366 -0.217168,0.06893 -0.257097,-0.05547 -0.07595,-0.236599 0.06517,-0.06517 0.129724,-0.261081 0.143429,-0.435344 0.0216,-0.274261 -0.0093,-0.316838 -0.230128,-0.316838 -0.396289,0 -0.793851,0.49147 -1.147425,1.418459 -0.612031,1.604613 -0.527551,2.035143 0.226498,1.15421 z m 13.077028,-3.168652 c -0.05993,-0.05992 -0.578755,0.605366 -0.578755,0.742139 0,0.324069 0.16111,0.23109 0.377479,-0.217842 0.12978,-0.269283 0.220356,-0.505216 0.201276,-0.524297 z m -10.882937,9.445185 c -0.09141,-0.23821 0.113474,-0.442645 0.411748,-0.410845 0.287592,0.03066 0.475005,0.16485 0.230237,0.16485 -0.08836,0 -0.185065,0.09329 -0.214883,0.207306 -0.06522,0.249454 -0.336783,0.274052 -0.427102,0.03869 z M 17.915029,28.96205 c 0,-0.07853 0.06941,-0.200394 0.154256,-0.270806 0.124666,-0.103467 0.166188,-0.09691 0.216489,0.03417 0.03423,0.0892 0.03203,0.211069 -0.0047,0.270807 -0.0977,0.158091 -0.365851,0.133047 -0.365851,-0.03417 z m 14.511437,-2.276378 c 0,-0.06686 -0.1402,-0.183612 -0.311547,-0.259459 -0.171352,-0.07584 -0.285209,-0.180521 -0.253017,-0.23261 0.03218,-0.05208 -0.03752,-0.0947 -0.154891,-0.0947 -0.117384,0 -0.213422,-0.01752 -0.213422,-0.03892 0,-0.204633 0.559826,-1.222266 0.742977,-1.350546 0.296816,-0.207903 0.593008,-0.212247 0.670681,-0.0098 0.03283,0.08551 0.165572,0.15548 0.295012,0.15548 0.434962,0 0.515191,0.241673 0.298994,0.900661 -0.167904,0.511803 -0.252474,0.621269 -0.634265,0.821022 -0.275012,0.143887 -0.440522,0.184814 -0.440522,0.108929 z M 15.94562,17.962129 c 0,-0.08551 0.04664,-0.15548 0.10365,-0.15548 0.05702,0 0.103656,0.06997 0.103656,0.15548 0,0.08551 -0.04664,0.155481 -0.103656,0.155481 -0.05701,0 -0.10365,-0.06996 -0.10365,-0.155481 z"
       id="path863"
       inkscape:connector-curvature="0" />
  </g>
</svg>
