<?xml version="1.0" encoding="UTF-8" standalone="no"?>
<!-- Created with Inkscape (http://www.inkscape.org/) -->

<svg
   xmlns:dc="http://purl.org/dc/elements/1.1/"
   xmlns:cc="http://creativecommons.org/ns#"
   xmlns:rdf="http://www.w3.org/1999/02/22-rdf-syntax-ns#"
   xmlns:svg="http://www.w3.org/2000/svg"
   xmlns="http://www.w3.org/2000/svg"
   xmlns:sodipodi="http://sodipodi.sourceforge.net/DTD/sodipodi-0.dtd"
   xmlns:inkscape="http://www.inkscape.org/namespaces/inkscape"
   width="48px"
   height="48px"
   viewBox="0 0 48 48"
   version="1.1"
   id="SVGRoot"
   inkscape:version="0.92.4 (5da689c313, 2019-01-14)"
   sodipodi:docname="super-meat-boya.svg"
   inkscape:export-filename="C:\Users\Admin\Documents\Rainmeter\Skins\Honeycomb-NG\@Resources\Images\openshot.png"
   inkscape:export-xdpi="512"
   inkscape:export-ydpi="512">
  <defs
     id="defs1995" />
  <sodipodi:namedview
     id="base"
     pagecolor="#ffffff"
     bordercolor="#666666"
     borderopacity="1.0"
     inkscape:pageopacity="0.0"
     inkscape:pageshadow="2"
     inkscape:zoom="18.083334"
     inkscape:cx="10.718288"
     inkscape:cy="26.761614"
     inkscape:document-units="px"
     inkscape:current-layer="layer1"
     showgrid="true"
     inkscape:window-width="1920"
     inkscape:window-height="1017"
     inkscape:window-x="-8"
     inkscape:window-y="-8"
     inkscape:window-maximized="1"
     inkscape:grid-bbox="true"
     inkscape:snap-global="true">
    <inkscape:grid
       type="xygrid"
       id="grid2562" />
  </sodipodi:namedview>
  <metadata
     id="metadata1998">
    <rdf:RDF>
      <cc:Work
         rdf:about="">
        <dc:format>image/svg+xml</dc:format>
        <dc:type
           rdf:resource="http://purl.org/dc/dcmitype/StillImage" />
        <dc:title></dc:title>
      </cc:Work>
    </rdf:RDF>
  </metadata>
  <g
     inkscape:label="Layer 1"
     inkscape:groupmode="layer"
     id="layer1">
    <path
       style="fill:#ffffff;stroke-width:0.11889774"
       d="m 23.207789,32.144964 c 0,-0.178661 0.686206,-0.252797 2.303643,-0.248876 1.398118,0.0034 1.536514,0.02195 1.329738,0.178346 -0.177961,0.134603 -0.620272,0.174566 -1.932089,0.174566 -0.93571,0 -1.701292,-0.04681 -1.701292,-0.104036 z M 21.73674,31.117015 c -3.200008,-0.516657 -6.131299,-1.744718 -7.609656,-3.188056 -0.827154,-0.807562 -1.139252,-1.425511 -1.163528,-2.303771 -0.01159,-0.419086 -0.03778,-0.537227 -0.06698,-0.301981 -0.08226,0.662869 -0.38958,0.394947 -0.38958,-0.339637 0,-0.461521 0.241173,-0.546504 2.060668,-0.726135 2.250321,-0.222163 12.684203,-0.178283 16.011788,0.06734 2.864242,0.21142 4.653502,0.395048 5.154254,0.52897 0.488953,0.130765 0.356435,0.323573 -0.202296,0.294333 l -0.506495,-0.02652 -0.140608,0.680764 c -0.324461,1.57088 -2.006101,3.494262 -3.851703,4.405395 -1.663973,0.821469 -2.597742,0.994101 -5.625204,1.039975 -1.870344,0.02834 -2.916365,-0.0089 -3.670657,-0.130686 z m 6.048611,-0.480455 c 1.088141,-0.188027 2.437404,-0.610044 2.437404,-0.762362 0,-0.04614 -0.13335,-0.144639 -0.296332,-0.2189 -0.252357,-0.11498 -0.362079,-0.0904 -0.739364,0.165631 -0.286628,0.194512 -0.536225,0.277261 -0.707012,0.234396 -0.14519,-0.03644 -0.297168,-0.01255 -0.337732,0.05309 -0.09719,0.157246 -1.094114,0.154367 -1.191645,-0.0034 -0.04807,-0.07778 -0.219204,-0.03419 -0.466917,0.118898 -0.503711,0.31131 -1.020543,0.307116 -1.425686,-0.01157 -0.277185,-0.218034 -0.360564,-0.232581 -0.599659,-0.104622 -0.168503,0.09018 -0.457312,0.119696 -0.734438,0.07505 -0.5805,-0.0935 -0.580722,-0.0935 -1.289193,-0.0048 -0.506832,0.06344 -0.627581,0.03805 -0.817524,-0.171832 -0.177731,-0.196389 -0.270212,-0.220915 -0.456699,-0.121111 -0.212871,0.113926 -0.209683,0.09248 0.03556,-0.239225 l 0.269391,-0.36437 0.21546,0.354296 c 0.172464,0.283592 0.297739,0.354297 0.627756,0.354297 0.226763,0 0.541156,-0.05871 0.698655,-0.130475 0.222677,-0.101458 0.365907,-0.08933 0.644077,0.05452 0.330723,0.171024 0.391598,0.167712 0.806622,-0.04388 l 0.448903,-0.228863 0.34851,0.29325 c 0.444812,0.374285 0.813718,0.371328 1.267092,-0.01016 0.346175,-0.291287 0.372665,-0.295498 0.662837,-0.105371 0.208262,0.13646 0.42248,0.174247 0.688891,0.121516 0.212653,-0.04208 0.532989,-0.07414 0.711856,-0.07123 0.413793,0.0067 0.802925,-0.378383 0.809075,-0.800764 l 0.0048,-0.326968 0.168783,0.310554 c 0.216126,0.397661 0.782107,0.637603 1.216437,0.515695 0.181101,-0.05084 0.3701,-0.08341 0.419996,-0.0724 0.170888,0.03771 1.028472,-0.571818 1.165952,-0.828701 0.20736,-0.387454 0.05698,-1.162393 -0.293598,-1.512969 -0.259284,-0.259285 -0.350828,-0.28608 -0.633094,-0.185302 -0.349275,0.124701 -0.393588,0.332735 -0.22573,1.059739 0.04529,0.19618 -0.03025,0.0758 -0.167877,-0.26752 -0.137629,-0.343318 -0.324321,-0.624213 -0.414868,-0.624213 -0.105695,0 -0.06015,-0.104477 0.127206,-0.291841 0.205633,-0.205633 0.29184,-0.422968 0.29184,-0.735754 0,-0.518954 -0.419039,-1.203725 -0.772068,-1.26167 -0.24675,-0.0405 -0.840252,0.286516 -1.10057,0.606409 -0.115333,0.141725 -0.148623,0.146351 -0.148623,0.02065 5e-6,-0.227706 -0.357582,-0.59684 -0.578173,-0.59684 -0.101547,0 -0.383172,0.193868 -0.625832,0.430819 l -0.441199,0.430821 -0.480563,-0.490269 c -0.585841,-0.597676 -0.936419,-0.627506 -1.561,-0.132829 -0.516491,0.409067 -0.753106,0.376532 -1.020376,-0.14031 -0.16492,-0.318921 -0.226666,-0.345485 -0.726527,-0.312561 -0.470508,0.03099 -0.597457,0.0994 -0.915168,0.493169 -0.312402,0.387188 -0.367937,0.55443 -0.362732,1.092329 0.0077,0.796909 -0.249096,1.002728 -0.958864,0.768484 -0.243543,-0.08038 -0.678438,-0.11958 -0.966434,-0.08712 -0.380642,0.0429 -0.493334,0.02234 -0.412683,-0.07531 0.24308,-0.29429 0.276508,-0.996071 0.06834,-1.43475 -0.426993,-0.899823 -1.039777,-1.012469 -1.733569,-0.318678 -0.253881,0.253882 -0.461601,0.392398 -0.461601,0.307814 0,-0.232243 -0.695346,-0.769416 -0.995974,-0.769416 -0.145389,0 -0.322804,0.05847 -0.394255,0.129911 -0.09395,0.09395 -0.197107,0.09395 -0.372656,0 -0.376062,-0.201261 -1.170858,-0.164466 -1.256287,0.05816 -0.276671,0.720992 0.212566,1.773742 0.824298,1.773742 0.341219,0 0.351268,-0.01633 0.329352,-0.53504 l -0.02261,-0.53504 0.09205,0.439636 c 0.05063,0.241799 0.160458,0.522063 0.244069,0.622805 0.125542,0.151271 0.118625,0.195984 -0.03972,0.256748 -0.105455,0.04047 -0.19707,0.188235 -0.203589,0.328375 -0.01056,0.227059 -0.02081,0.222438 -0.09404,-0.04244 -0.141242,-0.510772 -1.103578,-0.402776 -1.308967,0.146893 -0.08677,0.23223 -0.02624,0.322377 0.440264,0.655666 0.297476,0.21253 0.607247,0.386418 0.688377,0.386418 0.08113,0 0.165346,0.04668 0.187144,0.103737 0.06699,0.17534 1.262426,0.728547 1.574333,0.728547 0.161799,0 0.330621,0.05897 0.375161,0.13103 0.04454,0.07207 0.262194,0.206744 0.483675,0.299285 0.354508,0.148123 0.437146,0.145682 0.69061,-0.02039 0.26908,-0.176308 0.304257,-0.172309 0.537689,0.06112 0.137374,0.137376 0.407743,0.281367 0.600819,0.319982 0.193077,0.03862 0.325911,0.110882 0.295189,0.160595 -0.07858,0.127142 1.384589,0.492189 2.378225,0.593344 1.527368,0.155493 3.768393,0.125122 4.874807,-0.06606 z m 1.354648,-3.15164 c -0.03576,-0.167978 -0.03415,-0.38404 0.0036,-0.480137 0.05785,-0.147437 0.101059,-0.141517 0.276635,0.03789 0.163126,0.166691 0.171335,0.212616 0.038,0.212616 -0.09354,0 -0.188777,0.120384 -0.211632,0.267521 -0.03959,0.254864 -0.04463,0.253071 -0.106559,-0.03789 z M 17.77113,27.26337 c -0.131382,-0.210376 -0.09187,-0.364768 0.09335,-0.364768 0.133521,0 0.218353,0.30319 0.126441,0.451904 -0.05474,0.08855 -0.128286,0.0594 -0.219798,-0.08714 z m 1.847165,2.534158 c -0.106008,-0.106009 -0.256632,-0.152727 -0.335417,-0.104036 -0.166472,0.102885 0.06004,0.291559 0.353732,0.29463 0.145165,0.0015 0.142121,-0.03015 -0.01831,-0.190594 z M 32.265986,26.31012 c 0.387673,-0.387673 0.463006,-0.538037 0.431878,-0.862008 -0.03326,-0.346171 -0.09199,-0.405832 -0.498301,-0.506167 -0.423472,-0.104571 -0.483369,-0.08727 -0.743112,0.214701 -0.212167,0.246659 -0.282514,0.469887 -0.282514,0.896485 0,0.312423 0.03567,0.603713 0.07926,0.647307 0.1927,0.1927 0.578415,0.04405 1.012785,-0.390318 z m -4.423829,-1.462505 c 0.0015,-0.04905 -0.211372,-0.08918 -0.472949,-0.08918 -0.54239,0 -0.580241,0.08063 -0.219579,0.467752 l 0.256011,0.274796 0.216937,-0.2821 c 0.119315,-0.155157 0.218125,-0.322229 0.21958,-0.371276 z m -7.220394,0.175525 c -0.04324,-0.212108 0.628915,-0.182936 1.116541,0.04845 0.387356,0.18381 0.418488,0.182212 0.578953,-0.02973 0.09327,-0.123191 0.171284,-0.26411 0.173365,-0.313156 0.0021,-0.04906 -0.611515,-0.08918 -1.363544,-0.08918 -0.752027,0 -1.367323,0.03592 -1.367323,0.07981 0,0.04389 0.09068,0.180011 0.20151,0.302478 0.217167,0.239967 0.709352,0.240939 0.660498,0.0013 z m 4.538094,-0.01613 c 0.195651,-0.216193 0.193693,-0.230762 -0.04102,-0.305257 -0.135563,-0.04302 -0.357393,-0.04302 -0.492957,0 -0.234714,0.0745 -0.236672,0.08906 -0.04102,0.305257 0.113002,0.124863 0.242376,0.227027 0.287498,0.227027 0.04513,0 0.174499,-0.102164 0.2875,-0.227027 z m -6.886324,-0.129667 c 0.211508,-0.233714 0.207671,-0.237795 -0.223551,-0.237795 -0.401909,0 -0.428066,0.01996 -0.311489,0.237795 0.07,0.130788 0.170593,0.237796 0.223551,0.237796 0.05296,0 0.193128,-0.107008 0.311489,-0.237796 z m 10.99804,0.05945 c 0,-0.09908 -0.105686,-0.178348 -0.237795,-0.178348 -0.236873,0 -0.309268,0.126691 -0.15853,0.277429 0.144809,0.144808 0.396325,0.08193 0.396325,-0.09908 z m 1.724017,0.05945 c 0.04042,-0.0654 -0.01308,-0.118897 -0.118897,-0.118897 -0.10581,0 -0.159314,0.0535 -0.118898,0.118897 0.04041,0.0654 0.09392,0.118898 0.118898,0.118898 0.02498,0 0.07849,-0.05351 0.118897,-0.118898 z M 12.497847,23.221917 c -0.409748,-0.409749 -0.44225,-0.784746 -0.09962,-1.149458 0.242698,-0.25834 0.243324,-0.270925 0.02973,-0.596922 -0.34669,-0.529114 -0.295103,-1.611147 0.116872,-2.451483 0.621838,-1.268401 1.632163,-1.802204 3.077626,-1.62605 1.655561,0.201755 2.591635,1.078914 2.591635,2.42852 0,0.398158 0.07047,0.592367 0.297245,0.819138 0.412918,0.412917 0.40834,1.10896 -0.01058,1.606805 -0.426545,0.506921 -0.568472,0.457555 -0.279336,-0.09717 0.36834,-0.706675 0.182024,-1.208747 -0.51332,-1.383266 -0.248576,-0.06238 -0.326304,-0.03886 -0.326304,0.09877 0,0.223916 -0.565818,0.711107 -1.024559,0.882184 -0.188521,0.07031 -0.877805,0.297038 -1.531742,0.503851 -0.653938,0.206812 -1.269234,0.406183 -1.367324,0.443043 -0.12429,0.0467 -0.141904,0.02787 -0.05811,-0.06214 0.06613,-0.07103 0.708178,-0.349689 1.426772,-0.619232 2.128212,-0.798288 2.776542,-1.289308 1.592963,-1.206453 -1.165576,0.0816 -3.362379,1.046529 -3.675013,1.614231 -0.171343,0.311137 -0.16317,0.337541 0.208071,0.672386 0.452901,0.408496 0.471355,0.470781 0.139476,0.470781 -0.135816,0 -0.403337,-0.156395 -0.594488,-0.347548 z m 2.157124,-3.880812 c 0.610592,-0.584985 0.503203,-1.058576 -0.196882,-0.86827 -0.521966,0.141888 -0.999915,0.622045 -0.999915,1.004537 0,0.300165 0.02501,0.314423 0.434702,0.247937 0.239086,-0.0388 0.582029,-0.21169 0.762095,-0.384204 z m 0.467771,3.522773 c -0.236105,-0.06943 -0.143621,-0.106159 0.449642,-0.178608 0.410787,-0.05017 0.985955,-0.212244 1.27815,-0.360172 0.551359,-0.279132 0.685949,-0.240349 0.318843,0.09187 -0.513226,0.464465 -1.358874,0.64912 -2.046635,0.446903 z m 13.70413,-0.153777 c 0.146496,-0.112985 0.326521,-0.206617 0.400059,-0.208071 0.08143,-0.0016 0.03666,-0.198772 -0.114547,-0.504407 -0.32636,-0.659635 -0.425356,-2.455887 -0.169062,-3.067624 0.248803,-0.593861 0.747632,-1.143558 1.367252,-1.506678 0.422098,-0.247367 0.740429,-0.32719 1.474209,-0.369669 1.266249,-0.07329 1.883446,0.115237 2.611915,0.797876 0.496513,0.465277 0.610961,0.659978 0.775034,1.318515 0.249159,1.000039 0.15841,2.042827 -0.247484,2.843823 -0.352319,0.695265 -0.357397,0.723314 -0.130946,0.723314 0.09423,0 0.196406,0.04058 0.227056,0.09017 0.03064,0.04959 -1.410276,0.08971 -3.202057,0.08918 -3.110291,-9.27e-4 -3.245722,-0.01031 -2.991429,-0.206419 z m 5.199354,-1.100934 c 0.174487,-0.210243 0.07792,-0.536554 -0.1588,-0.536554 -0.238016,0 -0.473675,0.320727 -0.392016,0.533526 0.0881,0.229588 0.36154,0.231091 0.550816,0.003 z m -2.775847,-2.157706 c 0.489284,-0.232181 0.788559,-0.727902 0.620617,-1.027996 -0.147607,-0.263759 -0.513797,-0.255391 -1.133332,0.0259 -0.516297,0.234416 -0.752704,0.533063 -0.752704,0.950861 0,0.20272 0.07473,0.245612 0.427898,0.245612 0.235344,0 0.612226,-0.08748 0.837521,-0.194377 z"
       id="path848"
       inkscape:connector-curvature="0"
       sodipodi:nodetypes="sscsscsssssssccsssccsccccccccscsccccsccccscccccccscscccsscscscsccsscsccscsscsscsssscccccsssscsccccccscccccscccsscsccccccssscccsscscccccsssccccccscssssssssscscsccsssssccscscscccsssscccsccccccccccsscscsscsccsccccccssc" />
  </g>
</svg>
