<?xml version="1.0" encoding="UTF-8" standalone="no"?>
<!-- Created with Inkscape (http://www.inkscape.org/) -->

<svg
   xmlns:dc="http://purl.org/dc/elements/1.1/"
   xmlns:cc="http://creativecommons.org/ns#"
   xmlns:rdf="http://www.w3.org/1999/02/22-rdf-syntax-ns#"
   xmlns:svg="http://www.w3.org/2000/svg"
   xmlns="http://www.w3.org/2000/svg"
   xmlns:sodipodi="http://sodipodi.sourceforge.net/DTD/sodipodi-0.dtd"
   xmlns:inkscape="http://www.inkscape.org/namespaces/inkscape"
   width="48px"
   height="48px"
   viewBox="0 0 48 48"
   version="1.1"
   id="SVGRoot"
   inkscape:version="0.92.4 (5da689c313, 2019-01-14)"
   sodipodi:docname="the-binding-of-isaaca.svg">
  <defs
     id="defs1995" />
  <sodipodi:namedview
     id="base"
     pagecolor="#ffffff"
     bordercolor="#666666"
     borderopacity="1.0"
     inkscape:pageopacity="0.0"
     inkscape:pageshadow="2"
     inkscape:zoom="18.083334"
     inkscape:cx="3.8756216"
     inkscape:cy="25.208314"
     inkscape:document-units="px"
     inkscape:current-layer="layer1"
     showgrid="true"
     inkscape:window-width="1920"
     inkscape:window-height="1017"
     inkscape:window-x="-8"
     inkscape:window-y="-8"
     inkscape:window-maximized="1"
     inkscape:grid-bbox="true">
    <inkscape:grid
       type="xygrid"
       id="grid2562" />
  </sodipodi:namedview>
  <metadata
     id="metadata1998">
    <rdf:RDF>
      <cc:Work
         rdf:about="">
        <dc:format>image/svg+xml</dc:format>
        <dc:type
           rdf:resource="http://purl.org/dc/dcmitype/StillImage" />
        <dc:title></dc:title>
      </cc:Work>
    </rdf:RDF>
  </metadata>
  <g
     inkscape:label="Layer 1"
     inkscape:groupmode="layer"
     id="layer1">
    <path
       style="opacity:1;vector-effect:none;fill:#ffffff;fill-opacity:1;fill-rule:evenodd;stroke:none;stroke-width:2;stroke-linecap:round;stroke-linejoin:round;stroke-miterlimit:4;stroke-dasharray:none;paint-order:normal"
       d="M 24 13 C 18.46 13 14 17.46 14 23 C 14 25.807925 15.148612 28.335493 17 30.148438 L 17 24 C 17 22.892 17.892 22 19 22 C 20.108 22 21 22.892 21 24 C 21 25.108 20.108 26 19 26 L 19 31.660156 C 20.470472 32.508432 22.173707 33 24 33 C 25.826293 33 27.529528 32.508432 29 31.660156 L 29 26 C 27.892 26 27 25.108 27 24 C 27 22.892 27.892 22 29 22 C 30.108 22 31 22.892 31 24 L 31 30.148438 C 32.851388 28.335493 34 25.807925 34 23 C 34 17.46 29.54 13 24 13 z M 24 26 C 26 26 26 28 26 28 L 26 30 L 22 30 L 22 28 C 22 28 22 26 24 26 z "
       id="rect822" />
    <path
       style="fill:#ffffff"
       d="m 24,27 c -1,0 -1,1 -1,1 h 2 c 0,0 0,-1 -1,-1 z"
       id="path837"
       inkscape:connector-curvature="0"
       sodipodi:nodetypes="zccz" />
  </g>
</svg>
