<?xml version="1.0" encoding="UTF-8" standalone="no"?>
<!-- Created with Inkscape (http://www.inkscape.org/) -->

<svg
   xmlns:dc="http://purl.org/dc/elements/1.1/"
   xmlns:cc="http://creativecommons.org/ns#"
   xmlns:rdf="http://www.w3.org/1999/02/22-rdf-syntax-ns#"
   xmlns:svg="http://www.w3.org/2000/svg"
   xmlns="http://www.w3.org/2000/svg"
   xmlns:xlink="http://www.w3.org/1999/xlink"
   xmlns:sodipodi="http://sodipodi.sourceforge.net/DTD/sodipodi-0.dtd"
   xmlns:inkscape="http://www.inkscape.org/namespaces/inkscape"
   width="48px"
   height="48px"
   viewBox="0 0 48 48"
   version="1.1"
   id="SVGRoot"
   inkscape:version="0.92.4 (5da689c313, 2019-01-14)"
   sodipodi:docname="unreal-tournamenta.svg"
   inkscape:export-filename="C:\Users\Admin\Documents\Rainmeter\Skins\Honeycomb-NG\@Resources\Images\openshot.png"
   inkscape:export-xdpi="512"
   inkscape:export-ydpi="512">
  <defs
     id="defs1995">
    <linearGradient
       gradientTransform="matrix(0.9965784,0,0,0.9962666,-89.841948,-62.996045)"
       id="IcecapTip-6"
       xlink:href="#WhiteTransparent-4"
       x1="60"
       y1="20"
       x2="90"
       y2="50"
       gradientUnits="userSpaceOnUse" />
    <linearGradient
       id="WhiteTransparent-4"
       gradientUnits="userSpaceOnUse">
      <stop
         style="stop-color:white;stop-opacity:1"
         offset="0"
         id="stop7606-4" />
      <stop
         style="stop-color:white;stop-opacity:0"
         offset="1"
         id="stop7608-7" />
    </linearGradient>
  </defs>
  <sodipodi:namedview
     id="base"
     pagecolor="#ffffff"
     bordercolor="#666666"
     borderopacity="1.0"
     inkscape:pageopacity="0.0"
     inkscape:pageshadow="2"
     inkscape:zoom="18.083334"
     inkscape:cx="11.27709"
     inkscape:cy="26.875352"
     inkscape:document-units="px"
     inkscape:current-layer="layer1"
     showgrid="true"
     inkscape:window-width="1920"
     inkscape:window-height="1017"
     inkscape:window-x="-8"
     inkscape:window-y="-8"
     inkscape:window-maximized="1"
     inkscape:grid-bbox="true"
     inkscape:snap-global="false">
    <inkscape:grid
       type="xygrid"
       id="grid2562" />
  </sodipodi:namedview>
  <metadata
     id="metadata1998">
    <rdf:RDF>
      <cc:Work
         rdf:about="">
        <dc:format>image/svg+xml</dc:format>
        <dc:type
           rdf:resource="http://purl.org/dc/dcmitype/StillImage" />
        <dc:title></dc:title>
      </cc:Work>
    </rdf:RDF>
  </metadata>
  <g
     inkscape:label="Layer 1"
     inkscape:groupmode="layer"
     id="layer1">
    <path
       style="opacity:1;vector-effect:none;fill:#ffffff;fill-opacity:1;fill-rule:evenodd;stroke:none;stroke-width:2;stroke-linecap:round;stroke-linejoin:round;stroke-miterlimit:4;stroke-dasharray:none;paint-order:normal"
       d="M 24 13 C 20.636106 13 17.678021 14.651534 15.867188 17.183594 C 15.780562 17.309115 15.658534 17.514279 15.837891 17.585938 C 18.54627 18.667955 19.37033 19.861511 19.710938 21.117188 C 19.795092 21.427431 19.605728 21.929095 19.289062 21.984375 C 17.976547 22.21349 16.546875 22.3125 16.546875 22.3125 C 16.546875 22.3125 19.472765 23.476001 19.453125 24.046875 C 19.44291 24.343797 16.804688 24.304688 16.804688 24.304688 C 16.804688 24.304688 19.68057 25.187683 19.875 26.414062 C 19.987552 27.123988 18.5625 28.125 18.5625 28.125 C 18.5625 28.125 20.124435 28.314655 20.90625 28.546875 C 21.781483 28.806844 23.043505 29.435698 23.484375 29.625 C 24.587964 28.061737 26.015625 27.5625 26.015625 27.5625 C 26.015625 27.5625 26.135475 27.998716 26.320312 28.3125 C 27.351336 29.18923 29.835938 30 29.835938 30 C 29.835938 30 25.945586 31.95961 23.859375 31.875 C 18.673399 31.664661 16.054688 27.234375 16.054688 27.234375 C 16.054688 27.234375 16.948505 26.073841 17.484375 25.453125 C 16.68289 24.822513 15.845171 23.902952 15.398438 22.898438 C 14.874921 21.721272 14.8125 19.078125 14.8125 19.078125 L 14.800781 19.0625 C 14.285913 20.26979 14 21.600324 14 23 C 14 28.54 18.46 33 24 33 C 26.883252 33 29.467339 31.785309 31.289062 29.845703 C 31.160634 29.76778 30.778705 29.533667 30.585938 29.333984 C 30.243068 28.978818 29.781205 28.542538 29.765625 28.101562 C 29.670759 25.415637 29.769977 22.725856 29.835938 20.039062 C 29.864308 18.883419 31.716797 18.015625 31.716797 18.015625 C 31.716797 18.015625 32.112757 18.099186 32.441406 18.818359 C 32.702197 19.389032 32.695312 20.109375 32.695312 20.109375 L 31.195312 21.421875 C 31.195312 21.421875 32.565453 23.307494 32.671875 24.609375 C 32.766318 25.764721 32.444248 28.323257 32.439453 28.361328 C 33.423048 26.812339 34 24.978366 34 23 C 34 20.870097 33.337319 18.903719 32.210938 17.285156 L 32.205078 17.296875 C 32.205078 17.296875 32.167063 17.227677 32.119141 17.164062 C 32.109936 17.151256 32.099108 17.139713 32.089844 17.126953 C 32.008648 17.046178 31.877888 16.966402 31.664062 16.96875 C 30.901234 16.977094 30.029427 17.404505 29.015625 17.976562 C 28.072021 18.509009 27.150747 19.727229 26.367188 19.96875 C 25.850313 20.128069 24.632812 19.78125 24.632812 19.78125 C 24.632812 19.78125 26.0648 21.542041 26.0625 22.078125 C 26.05778 23.195309 26.073481 24.300919 26.050781 25.429688 C 26.045502 25.692172 25.024418 26.675237 24.070312 26.414062 C 23.362437 26.220293 23.20042 25.295087 23.15625 24.5625 C 23.07823 23.268476 23.199465 21.673206 23.296875 21.257812 C 23.428022 20.698543 24.1875 18.679688 24.1875 18.679688 C 24.1875 18.679687 22.932836 19.870324 22.140625 19.808594 C 21.535801 19.761468 17.15625 16.898438 17.15625 16.898438 C 17.15625 16.898438 17.453252 16.237939 18.5625 15.421875 C 19.614376 14.648019 20.53125 14.296875 20.53125 14.296875 C 20.53125 14.296875 21.574254 14.692457 22.242188 15.890625 C 22.568469 15.500638 23.607721 14.730993 24.433594 14.4375 C 25.610645 14.019203 27.560977 14.001683 28.359375 14.003906 C 27.04166 13.36673 25.567024 13 24 13 z "
       id="rect822" />
  </g>
</svg>
