<?xml version="1.0" encoding="UTF-8" standalone="no"?>
<!-- Created with Inkscape (http://www.inkscape.org/) -->

<svg
   xmlns:dc="http://purl.org/dc/elements/1.1/"
   xmlns:cc="http://creativecommons.org/ns#"
   xmlns:rdf="http://www.w3.org/1999/02/22-rdf-syntax-ns#"
   xmlns:svg="http://www.w3.org/2000/svg"
   xmlns="http://www.w3.org/2000/svg"
   xmlns:sodipodi="http://sodipodi.sourceforge.net/DTD/sodipodi-0.dtd"
   xmlns:inkscape="http://www.inkscape.org/namespaces/inkscape"
   width="48px"
   height="48px"
   viewBox="0 0 48 48"
   version="1.1"
   id="SVGRoot"
   inkscape:version="0.92.4 (5da689c313, 2019-01-14)"
   sodipodi:docname="world-of-gooa.svg"
   inkscape:export-filename="C:\Users\Admin\Documents\Rainmeter\Skins\Honeycomb-NG\@Resources\Images\openshot.png"
   inkscape:export-xdpi="512"
   inkscape:export-ydpi="512">
  <defs
     id="defs1995" />
  <sodipodi:namedview
     id="base"
     pagecolor="#ffffff"
     bordercolor="#666666"
     borderopacity="1.0"
     inkscape:pageopacity="0.0"
     inkscape:pageshadow="2"
     inkscape:zoom="15.328451"
     inkscape:cx="22.742242"
     inkscape:cy="30.393624"
     inkscape:document-units="px"
     inkscape:current-layer="layer1"
     showgrid="true"
     inkscape:window-width="1920"
     inkscape:window-height="1017"
     inkscape:window-x="-8"
     inkscape:window-y="-8"
     inkscape:window-maximized="1"
     inkscape:grid-bbox="true">
    <inkscape:grid
       type="xygrid"
       id="grid2562" />
  </sodipodi:namedview>
  <metadata
     id="metadata1998">
    <rdf:RDF>
      <cc:Work
         rdf:about="">
        <dc:format>image/svg+xml</dc:format>
        <dc:type
           rdf:resource="http://purl.org/dc/dcmitype/StillImage" />
        <dc:title></dc:title>
      </cc:Work>
    </rdf:RDF>
  </metadata>
  <g
     inkscape:label="Layer 1"
     inkscape:groupmode="layer"
     id="layer1">
    <path
       style="opacity:1;vector-effect:none;fill:#ffffff;fill-opacity:1;fill-rule:evenodd;stroke:none;stroke-width:2;stroke-linecap:round;stroke-linejoin:round;stroke-miterlimit:4;stroke-dasharray:none;paint-order:normal"
       d="M 24 13 C 21.743317 13 19.673729 13.74837 18.003906 15 L 18.513672 15 C 20.999013 15 23 17.23 23 20 C 23 22.77 20.999013 25 18.513672 25 L 17.486328 25 C 16.070655 25 14.826938 24.261688 14.005859 23.126953 C 14.074137 28.607308 18.502862 33 24 33 C 29.467467 33 33.875549 28.653829 33.990234 23.214844 C 33.079656 24.294652 31.641076 25 30 25 C 27.23 25 25 23.016375 25 20.552734 L 25 19.447266 C 25 16.984807 27.227941 15.001902 29.996094 15 C 28.326271 13.74837 26.256683 13 24 13 z "
       id="rect822" />
    <path
       style="opacity:1;vector-effect:none;fill:#ffffff;fill-opacity:1;fill-rule:evenodd;stroke:none;stroke-width:2;stroke-linecap:round;stroke-linejoin:round;stroke-miterlimit:4;stroke-dasharray:none;stroke-opacity:1;paint-order:stroke fill markers"
       d="M 30 16 C 27.784 16 26 17.784 26 20 C 26 22.216 27.784 24 30 24 C 32.216 24 34 22.216 34 20 C 34 17.784 32.216 16 30 16 z M 30 18 C 31.108 18 32 18.892 32 20 C 32 21.108 31.108 22 30 22 C 28.892 22 28 21.108 28 20 C 28 18.892 28.892 18 30 18 z "
       id="rect820" />
    <path
       style="opacity:1;vector-effect:none;fill:#ffffff;fill-opacity:1;fill-rule:evenodd;stroke:none;stroke-width:2.1380899;stroke-linecap:round;stroke-linejoin:round;stroke-miterlimit:4;stroke-dasharray:none;stroke-opacity:1;paint-order:stroke fill markers"
       d="M 18 16 C 15.784 16 14 17.784 14 20 C 14 22.216 15.784 24 18 24 C 20.216 24 22 22.216 22 20 C 22 17.784 20.216 16 18 16 z M 18 18 C 19.108 18 20 18.892 20 20 C 20 21.108 19.108 22 18 22 C 16.892 22 16 21.108 16 20 C 16 18.892 16.892 18 18 18 z "
       id="rect823" />
  </g>
</svg>
