<?xml version="1.0" encoding="UTF-8" standalone="no"?>
<!-- Created with Inkscape (http://www.inkscape.org/) -->

<svg
   xmlns:dc="http://purl.org/dc/elements/1.1/"
   xmlns:cc="http://creativecommons.org/ns#"
   xmlns:rdf="http://www.w3.org/1999/02/22-rdf-syntax-ns#"
   xmlns:svg="http://www.w3.org/2000/svg"
   xmlns="http://www.w3.org/2000/svg"
   xmlns:sodipodi="http://sodipodi.sourceforge.net/DTD/sodipodi-0.dtd"
   xmlns:inkscape="http://www.inkscape.org/namespaces/inkscape"
   width="48px"
   height="48px"
   viewBox="0 0 48 48"
   version="1.1"
   id="SVGRoot"
   inkscape:version="0.92.4 (5da689c313, 2019-01-14)"
   sodipodi:docname="world-of-horrora.svg"
   inkscape:export-filename="C:\Users\Admin\Documents\Rainmeter\Skins\Honeycomb-NG\@Resources\Images\openshot.png"
   inkscape:export-xdpi="512"
   inkscape:export-ydpi="512">
  <defs
     id="defs1995">
    <style
       id="style2">.a{fill:none;stroke:#b1b5bd;stroke-linecap:round;stroke-linejoin:round;isolation:isolate;opacity:0.63;}</style>
  </defs>
  <sodipodi:namedview
     id="base"
     pagecolor="#ffffff"
     bordercolor="#666666"
     borderopacity="1.0"
     inkscape:pageopacity="0.0"
     inkscape:pageshadow="2"
     inkscape:zoom="15.575888"
     inkscape:cx="24.163723"
     inkscape:cy="22.392691"
     inkscape:document-units="px"
     inkscape:current-layer="layer1"
     showgrid="true"
     inkscape:window-width="1920"
     inkscape:window-height="1017"
     inkscape:window-x="-8"
     inkscape:window-y="-8"
     inkscape:window-maximized="1"
     inkscape:grid-bbox="true">
    <inkscape:grid
       type="xygrid"
       id="grid2562" />
  </sodipodi:namedview>
  <metadata
     id="metadata1998">
    <rdf:RDF>
      <cc:Work
         rdf:about="">
        <dc:format>image/svg+xml</dc:format>
        <dc:type
           rdf:resource="http://purl.org/dc/dcmitype/StillImage" />
        <dc:title></dc:title>
      </cc:Work>
    </rdf:RDF>
  </metadata>
  <g
     inkscape:label="Layer 1"
     inkscape:groupmode="layer"
     id="layer1">
    <path
       inkscape:connector-curvature="0"
       style="opacity:1;vector-effect:none;fill:#ffffff;fill-opacity:1;fill-rule:evenodd;stroke:none;stroke-width:2;stroke-linecap:round;stroke-linejoin:round;stroke-miterlimit:4;stroke-dasharray:none;stroke-opacity:1;paint-order:stroke fill markers"
       d="m 22,14 v 1 h 4 v -1 z m 4,1 v 1 h 2 v -1 z m 2,1 v 1 h 2 v -1 z m 2,1 v 2 h 1 v -2 z m 1,2 v 2 h 1 v -2 z m 1,2 v 4 h 1 v -4 z m 0,4 h -1 v 2 h 1 z m -1,2 h -1 v 2 h 1 z m -1,2 h -2 v 1 h 2 z m -2,1 h -2 v 1 h 2 z m -2,1 h -4 v 1 h 4 z m -4,0 v -1 h -2 v 1 z m -2,-1 v -1 h -2 v 1 z m -2,-1 v -2 h -1 v 2 z m -1,-2 v -2 h -1 v 2 z m -1,-2 v -4 h -1 v 4 z m 0,-4 h 1 v -2 h -1 z m 1,-2 h 1 v -2 h -1 z m 1,-2 h 2 v -1 h -2 z m 2,-1 h 2 v -1 h -2 z"
       id="rect822-7" />
    <path
       style="opacity:1;vector-effect:none;fill:#ffffff;fill-opacity:1;fill-rule:evenodd;stroke:none;stroke-width:2;stroke-linecap:round;stroke-linejoin:round;stroke-miterlimit:4;stroke-dasharray:none;stroke-opacity:1;paint-order:stroke fill markers"
       d="M 22 16 L 22 17 L 23 17 L 23 19 L 22 19 L 22 17 L 21 17 L 21 21 L 20 21 L 20 22 L 17 22 L 17 25 L 18 25 L 18 23 L 22 23 L 22 25 L 21 25 L 21 27 L 21 28 L 24 28 L 24 29 L 26 29 L 28 29 L 28 28 L 29 28 L 29 27 L 30 27 L 30 25 L 31 25 L 31 23 L 30 23 L 30 24 L 28 24 L 28 26 L 27 26 L 27 27 L 26 27 L 26 28 L 25 28 L 25 27 L 24 27 L 24 24 L 25 24 L 25 23 L 23 23 L 23 22 L 24 22 L 24 21 L 26 21 L 26 20 L 25 20 L 25 19 L 27 19 L 27 20 L 28 20 L 28 18 L 28 17 L 26 17 L 26 16 L 22 16 z M 28 24 L 28 23 L 26 23 L 26 24 L 27 24 L 28 24 z M 21 28 L 20 28 L 20 29 L 21 29 L 21 28 z M 20 28 L 20 27 L 19 27 L 19 28 L 20 28 z M 19 27 L 19 25 L 18 25 L 18 27 L 19 27 z "
       id="rect883" />
    <rect
       style="opacity:1;vector-effect:none;fill:#ffffff;fill-opacity:1;fill-rule:evenodd;stroke:none;stroke-width:4.10391331;stroke-linecap:round;stroke-linejoin:round;stroke-miterlimit:4;stroke-dasharray:none;stroke-opacity:1;paint-order:stroke fill markers"
       id="rect843"
       width="1"
       height="20"
       x="13"
       y="13" />
    <rect
       style="opacity:1;vector-effect:none;fill:#ffffff;fill-opacity:1;fill-rule:evenodd;stroke:none;stroke-width:4;stroke-linecap:round;stroke-linejoin:round;stroke-miterlimit:4;stroke-dasharray:none;stroke-opacity:1;paint-order:stroke fill markers"
       id="rect845"
       width="20"
       height="1"
       x="14"
       y="12" />
    <rect
       style="opacity:1;vector-effect:none;fill:#ffffff;fill-opacity:1;fill-rule:evenodd;stroke:none;stroke-width:4.10391331;stroke-linecap:round;stroke-linejoin:round;stroke-miterlimit:4;stroke-dasharray:none;stroke-opacity:1;paint-order:stroke fill markers"
       id="rect847"
       width="1"
       height="20"
       x="34"
       y="13" />
    <rect
       style="opacity:1;vector-effect:none;fill:#ffffff;fill-opacity:1;fill-rule:evenodd;stroke:none;stroke-width:4;stroke-linecap:round;stroke-linejoin:round;stroke-miterlimit:4;stroke-dasharray:none;stroke-opacity:1;paint-order:stroke fill markers"
       id="rect849"
       width="20"
       height="1"
       x="14"
       y="33" />
  </g>
</svg>
