<?xml version="1.0" encoding="UTF-8" standalone="no"?>
<!-- Created with Inkscape (http://www.inkscape.org/) -->

<svg
   xmlns:dc="http://purl.org/dc/elements/1.1/"
   xmlns:cc="http://creativecommons.org/ns#"
   xmlns:rdf="http://www.w3.org/1999/02/22-rdf-syntax-ns#"
   xmlns:svg="http://www.w3.org/2000/svg"
   xmlns="http://www.w3.org/2000/svg"
   xmlns:sodipodi="http://sodipodi.sourceforge.net/DTD/sodipodi-0.dtd"
   xmlns:inkscape="http://www.inkscape.org/namespaces/inkscape"
   width="48px"
   height="48px"
   viewBox="0 0 48 48"
   version="1.1"
   id="SVGRoot"
   inkscape:version="0.92.4 (5da689c313, 2019-01-14)"
   sodipodi:docname="gamea.svg"
   inkscape:export-filename="C:\Users\Admin\Documents\Rainmeter\Skins\Honeycomb-NG\@Resources\Images\openshot.png"
   inkscape:export-xdpi="512"
   inkscape:export-ydpi="512">
  <defs
     id="defs1995" />
  <sodipodi:namedview
     id="base"
     pagecolor="#ffffff"
     bordercolor="#666666"
     borderopacity="1.0"
     inkscape:pageopacity="0.0"
     inkscape:pageshadow="2"
     inkscape:zoom="12.565351"
     inkscape:cx="23.390641"
     inkscape:cy="33.915012"
     inkscape:document-units="px"
     inkscape:current-layer="layer1"
     showgrid="true"
     inkscape:window-width="1329"
     inkscape:window-height="1008"
     inkscape:window-x="582"
     inkscape:window-y="0"
     inkscape:window-maximized="0"
     inkscape:grid-bbox="true"
     inkscape:snap-global="true">
    <inkscape:grid
       type="xygrid"
       id="grid2562" />
  </sodipodi:namedview>
  <metadata
     id="metadata1998">
    <rdf:RDF>
      <cc:Work
         rdf:about="">
        <dc:format>image/svg+xml</dc:format>
        <dc:type
           rdf:resource="http://purl.org/dc/dcmitype/StillImage" />
        <dc:title></dc:title>
      </cc:Work>
    </rdf:RDF>
  </metadata>
  <g
     inkscape:label="Layer 1"
     inkscape:groupmode="layer"
     id="layer1">
    <path
       style="fill:#ffffff;stroke:none;stroke-width:1px;stroke-linecap:butt;stroke-linejoin:miter;stroke-opacity:1"
       d="M 18 15 C 14 15 13 22.666667 13 27 C 13 29 14.333333 31 16 31 C 19 31 19 27 21 27 L 24 27 L 27 27 C 29 27 29 31 32 31 C 33.666667 31 35 29 35 27 C 35 22.666667 34 15 30 15 C 28 15 25.937689 17.066406 24 17.066406 C 22 17.066406 20.027174 15 18 15 z M 18.673828 18 L 19.326172 18 C 19.699126 18 20 18.300874 20 18.673828 L 20 20 L 21.435547 20 C 21.748224 20 22 20.251776 22 20.564453 L 22 21.435547 C 22 21.748224 21.748224 22 21.435547 22 L 20 22 L 20 23.326172 C 20 23.699126 19.699126 24 19.326172 24 L 18.673828 24 C 18.300874 24 18 23.699126 18 23.326172 L 18 22 L 16.564453 22 C 16.251776 22 16 21.748224 16 21.435547 L 16 20.564453 C 16 20.251776 16.251776 20 16.564453 20 L 18 20 L 18 18.673828 C 18 18.300874 18.300874 18 18.673828 18 z M 30.5 18 C 31.331 18 32 18.669 32 19.5 C 32 20.331 31.331 21 30.5 21 C 29.669 21 29 20.331 29 19.5 C 29 18.669 29.669 18 30.5 18 z M 27.5 20 C 28.331 20 29 20.669 29 21.5 C 29 22.331 28.331 23 27.5 23 C 26.669 23 26 22.331 26 21.5 C 26 20.669 26.669 20 27.5 20 z "
       id="path828" />
  </g>
</svg>
