<?xml version="1.0" encoding="UTF-8" standalone="no"?>
<!-- Created with Inkscape (http://www.inkscape.org/) -->

<svg
   xmlns:dc="http://purl.org/dc/elements/1.1/"
   xmlns:cc="http://creativecommons.org/ns#"
   xmlns:rdf="http://www.w3.org/1999/02/22-rdf-syntax-ns#"
   xmlns:svg="http://www.w3.org/2000/svg"
   xmlns="http://www.w3.org/2000/svg"
   xmlns:sodipodi="http://sodipodi.sourceforge.net/DTD/sodipodi-0.dtd"
   xmlns:inkscape="http://www.inkscape.org/namespaces/inkscape"
   width="48px"
   height="48px"
   viewBox="0 0 48 48"
   version="1.1"
   id="SVGRoot"
   inkscape:version="0.92.4 (5da689c313, 2019-01-14)"
   sodipodi:docname="gameboya.svg"
   inkscape:export-filename="C:\Users\Admin\Documents\Rainmeter\Skins\Honeycomb-NG\@Resources\Images\openshot.png"
   inkscape:export-xdpi="512"
   inkscape:export-ydpi="512">
  <defs
     id="defs1995" />
  <sodipodi:namedview
     id="base"
     pagecolor="#ffffff"
     bordercolor="#666666"
     borderopacity="1.0"
     inkscape:pageopacity="0.0"
     inkscape:pageshadow="2"
     inkscape:zoom="14.768381"
     inkscape:cx="16.607251"
     inkscape:cy="30.058397"
     inkscape:document-units="px"
     inkscape:current-layer="layer1"
     showgrid="true"
     inkscape:window-width="1920"
     inkscape:window-height="1017"
     inkscape:window-x="-8"
     inkscape:window-y="-8"
     inkscape:window-maximized="1"
     inkscape:grid-bbox="true">
    <inkscape:grid
       type="xygrid"
       id="grid2562" />
  </sodipodi:namedview>
  <metadata
     id="metadata1998">
    <rdf:RDF>
      <cc:Work
         rdf:about="">
        <dc:format>image/svg+xml</dc:format>
        <dc:type
           rdf:resource="http://purl.org/dc/dcmitype/StillImage" />
        <dc:title></dc:title>
      </cc:Work>
    </rdf:RDF>
  </metadata>
  <g
     inkscape:label="Layer 1"
     inkscape:groupmode="layer"
     id="layer1">
    <path
       style="color:#000000;font-style:normal;font-variant:normal;font-weight:normal;font-stretch:normal;font-size:medium;line-height:normal;font-family:sans-serif;font-variant-ligatures:normal;font-variant-position:normal;font-variant-caps:normal;font-variant-numeric:normal;font-variant-alternates:normal;font-feature-settings:normal;text-indent:0;text-align:start;text-decoration:none;text-decoration-line:none;text-decoration-style:solid;text-decoration-color:#000000;letter-spacing:normal;word-spacing:normal;text-transform:none;writing-mode:lr-tb;direction:ltr;text-orientation:mixed;dominant-baseline:auto;baseline-shift:baseline;text-anchor:start;white-space:normal;shape-padding:0;clip-rule:nonzero;display:inline;overflow:visible;visibility:visible;opacity:1;isolation:auto;mix-blend-mode:normal;color-interpolation:sRGB;color-interpolation-filters:linearRGB;solid-color:#000000;solid-opacity:1;vector-effect:none;fill:#ffffff;fill-opacity:1;fill-rule:nonzero;stroke:none;stroke-width:2;stroke-linecap:round;stroke-linejoin:round;stroke-miterlimit:4;stroke-dasharray:none;stroke-dashoffset:0;stroke-opacity:1;color-rendering:auto;image-rendering:auto;shape-rendering:auto;text-rendering:auto;enable-background:accumulate"
       d="M 18 13 C 18 13 17.541248 12.98621 17.052734 13.230469 C 16.56422 13.474726 16 14.166667 16 15 L 16 31 C 16 31.833333 16.56422 32.525274 17.052734 32.769531 C 17.541248 33.013788 18 33 18 33 L 28 33 C 28.265199 32.999949 28.519519 32.894567 28.707031 32.707031 L 31.707031 29.707031 C 31.894567 29.519519 31.999949 29.265199 32 29 L 32 15 C 32 15 32.01379 14.541248 31.769531 14.052734 C 31.525274 13.56422 30.833333 13 30 13 L 18 13 z M 20 16 L 28 16 C 28.554 16 29 16.446 29 17 L 29 22 C 29 22.554 28.554 23 28 23 L 20 23 C 19.446 23 19 22.554 19 22 L 19 17 C 19 16.446 19.446 16 20 16 z M 20.5 25 C 20.777 25 21 25.223 21 25.5 L 21 27 L 22.5 27 C 22.777 27 23 27.223 23 27.5 C 23 27.777 22.777 28 22.5 28 L 21 28 L 21 29.5 C 21 29.777 20.777 30 20.5 30 C 20.223 30 20 29.777 20 29.5 L 20 28 L 18.5 28 C 18.223 28 18 27.777 18 27.5 C 18 27.223 18.223 27 18.5 27 L 20 27 L 20 25.5 C 20 25.223 20.223 25 20.5 25 z M 29 25 C 29.554 25 30 25.446 30 26 C 30 26.554 29.554 27 29 27 C 28.446 27 28 26.554 28 26 C 28 25.446 28.446 25 29 25 z M 27 27 C 27.554 27 28 27.446 28 28 C 28 28.554 27.554 29 27 29 C 26.446 29 26 28.554 26 28 C 26 27.446 26.446 27 27 27 z "
       id="path845" />
  </g>
</svg>
