<?xml version="1.0" encoding="UTF-8" standalone="no"?>
<!-- Created with Inkscape (http://www.inkscape.org/) -->

<svg
   xmlns:dc="http://purl.org/dc/elements/1.1/"
   xmlns:cc="http://creativecommons.org/ns#"
   xmlns:rdf="http://www.w3.org/1999/02/22-rdf-syntax-ns#"
   xmlns:svg="http://www.w3.org/2000/svg"
   xmlns="http://www.w3.org/2000/svg"
   xmlns:sodipodi="http://sodipodi.sourceforge.net/DTD/sodipodi-0.dtd"
   xmlns:inkscape="http://www.inkscape.org/namespaces/inkscape"
   width="48px"
   height="48px"
   viewBox="0 0 48 48"
   version="1.1"
   id="SVGRoot"
   inkscape:version="0.92.4 (5da689c313, 2019-01-14)"
   sodipodi:docname="honeycomb-nga.svg"
   inkscape:export-filename="C:\Users\Admin\Documents\Rainmeter\Skins\Honeycomb-NG\@Resources\Images\openshot.png"
   inkscape:export-xdpi="512"
   inkscape:export-ydpi="512">
  <defs
     id="defs1995" />
  <sodipodi:namedview
     id="base"
     pagecolor="#ffffff"
     bordercolor="#666666"
     borderopacity="1.0"
     inkscape:pageopacity="0.0"
     inkscape:pageshadow="2"
     inkscape:zoom="15.328451"
     inkscape:cx="20.501452"
     inkscape:cy="25.524633"
     inkscape:document-units="px"
     inkscape:current-layer="layer1"
     showgrid="true"
     inkscape:window-width="1920"
     inkscape:window-height="1017"
     inkscape:window-x="-8"
     inkscape:window-y="-8"
     inkscape:window-maximized="1"
     inkscape:grid-bbox="true"
     inkscape:snap-global="true">
    <inkscape:grid
       type="xygrid"
       id="grid2562" />
  </sodipodi:namedview>
  <metadata
     id="metadata1998">
    <rdf:RDF>
      <cc:Work
         rdf:about="">
        <dc:format>image/svg+xml</dc:format>
        <dc:type
           rdf:resource="http://purl.org/dc/dcmitype/StillImage" />
        <dc:title></dc:title>
      </cc:Work>
    </rdf:RDF>
  </metadata>
  <g
     inkscape:label="Layer 1"
     inkscape:groupmode="layer"
     id="layer1">
    <path
       style="opacity:1;vector-effect:none;fill:#ffffff;fill-opacity:1;fill-rule:evenodd;stroke:none;stroke-width:6;stroke-linecap:round;stroke-linejoin:round;stroke-miterlimit:4;stroke-dasharray:none;stroke-opacity:1;paint-order:stroke fill markers"
       d="M 21 14 C 20.446 14 20 14.446 20 15 L 20 17.021484 C 20.515935 16.328829 21.197617 15.769299 22 15.419922 L 22 15 C 22 14.446 21.554 14 21 14 z M 27 14 C 26.446 14 26 14.446 26 15 L 26 15.419922 C 26.802383 15.769299 27.484065 16.328829 28 17.021484 L 28 15 C 28 14.446 27.554 14 27 14 z M 18 19 C 16.338 19 15 20.338 15 22 C 15 23.380151 15.928679 24.52432 17.193359 24.876953 A 3.0003 3.0003 0 0 0 19.085938 28.910156 C 19.031904 28.614624 19 28.311605 19 28 L 19 20 C 19 19.657168 19.034495 19.323084 19.099609 19 L 18 19 z M 28.900391 19 C 28.965505 19.323084 29 19.657168 29 20 L 29 28 C 29 28.310278 28.967647 28.611898 28.914062 28.90625 A 3.0003 3.0003 0 0 0 30.804688 24.876953 C 32.070295 24.524918 33 23.380808 33 22 C 33 20.338 31.662 19 30 19 L 28.900391 19 z "
       id="rect833" />
    <path
       style="opacity:1;vector-effect:none;fill:#ffffff;fill-opacity:1;fill-rule:evenodd;stroke:none;stroke-width:6;stroke-linecap:round;stroke-linejoin:round;stroke-miterlimit:4;stroke-dasharray:none;stroke-opacity:1;paint-order:stroke fill markers"
       d="M 24 16 C 21.784 16 20 17.784 20 20 L 20 22 L 28 22 L 28 20 C 28 17.784 26.216 16 24 16 z M 20 23 L 20 24 L 28 24 L 28 23 L 20 23 z M 20 25 L 20 26 L 28 26 L 28 25 L 20 25 z M 20 27 L 20 28 C 20 30.216 21.784 32 24 32 C 26.216 32 28 30.216 28 28 L 28 27 L 20 27 z "
       id="rect827" />
  </g>
</svg>
