<?xml version="1.0" encoding="UTF-8" standalone="no"?>
<!-- Created with Inkscape (http://www.inkscape.org/) -->

<svg
   xmlns:dc="http://purl.org/dc/elements/1.1/"
   xmlns:cc="http://creativecommons.org/ns#"
   xmlns:rdf="http://www.w3.org/1999/02/22-rdf-syntax-ns#"
   xmlns:svg="http://www.w3.org/2000/svg"
   xmlns="http://www.w3.org/2000/svg"
   xmlns:sodipodi="http://sodipodi.sourceforge.net/DTD/sodipodi-0.dtd"
   xmlns:inkscape="http://www.inkscape.org/namespaces/inkscape"
   width="48px"
   height="48px"
   viewBox="0 0 48 48"
   version="1.1"
   id="SVGRoot"
   inkscape:version="0.92.4 (5da689c313, 2019-01-14)"
   sodipodi:docname="half-life-b.svg"
   inkscape:export-filename="C:\Users\Admin\Documents\Rainmeter\Skins\Honeycomb-NG\@Resources\Images\openshot.png"
   inkscape:export-xdpi="512"
   inkscape:export-ydpi="512">
  <defs
     id="defs1995">
    <linearGradient
       x2="47"
       x1="1"
       style=""
       gradientUnits="userSpaceOnUse"
       gradientTransform="translate(-48.129,-62.149785)"
       id="linearGradient3764">
      <stop
         id="stop3211"
         style="stop-color:#4f4f4f"
         offset="0" />
      <stop
         id="stop3213"
         style="stop-color:#595959"
         offset="1" />
    </linearGradient>
  </defs>
  <sodipodi:namedview
     id="base"
     pagecolor="#ffffff"
     bordercolor="#666666"
     borderopacity="1.0"
     inkscape:pageopacity="0.0"
     inkscape:pageshadow="2"
     inkscape:zoom="15.328451"
     inkscape:cx="17.607915"
     inkscape:cy="27.755752"
     inkscape:document-units="px"
     inkscape:current-layer="layer1"
     showgrid="true"
     inkscape:window-width="1920"
     inkscape:window-height="1017"
     inkscape:window-x="-8"
     inkscape:window-y="-8"
     inkscape:window-maximized="1"
     inkscape:grid-bbox="true">
    <inkscape:grid
       type="xygrid"
       id="grid2562" />
  </sodipodi:namedview>
  <metadata
     id="metadata1998">
    <rdf:RDF>
      <cc:Work
         rdf:about="">
        <dc:format>image/svg+xml</dc:format>
        <dc:type
           rdf:resource="http://purl.org/dc/dcmitype/StillImage" />
        <dc:title />
      </cc:Work>
    </rdf:RDF>
  </metadata>
  <g
     inkscape:label="Layer 1"
     inkscape:groupmode="layer"
     id="layer1">
    <path
       style="opacity:1;vector-effect:none;fill:#ffffff;fill-opacity:1;fill-rule:evenodd;stroke:none;stroke-width:2;stroke-linecap:round;stroke-linejoin:round;stroke-miterlimit:4;stroke-dasharray:none;paint-order:normal"
       d="m 24,33 c -5.54,0 -10,-4.46 -10,-10 0,-5.54 4.46,-10 10,-10 5.54,0 10,4.46 10,10 0,1.424647 -0.299635,2.775672 -0.832031,4 H 30.916016 A 8,8 0 0 0 32,23 a 8,8 0 0 0 -8,-8 8,8 0 0 0 -8,8 8,8 0 0 0 8,8 8,8 0 0 0 4,-1.080078 v 2.248047 C 26.775672,32.700365 25.424647,33 24,33 Z"
       id="rect822"
       inkscape:connector-curvature="0" />
    <path
       style="opacity:1;fill:#ffffff;fill-opacity:1;stroke-width:0.5;paint-order:stroke fill markers"
       d="m 21.25,18 v 1.5 h 1.5 l 0.5,1.25 -4,6.75 h 2 L 24,23 l 1.75,5 3,-1 -0.5,-1.5 L 27,26 24,18 Z"
       id="path1410"
       inkscape:connector-curvature="0"
       sodipodi:nodetypes="ccccccccccccc" />
    <path
       style="opacity:1;vector-effect:none;fill:#ffffff;fill-opacity:1;fill-rule:evenodd;stroke:none;stroke-width:2.53546286;stroke-linecap:round;stroke-linejoin:round;stroke-miterlimit:4;stroke-dasharray:none;stroke-opacity:1;paint-order:stroke fill markers"
       d="m 29,33 v -1.5 -2 -1.5 h 1.5 0.5 1.5 c 0.831,0 1.5,0.669 1.5,1.5 0,0.386389 -0.148414,0.734624 -0.386719,1 C 33.851586,30.765376 34,31.113611 34,31.5 34,32.331 33.331,33 32.5,33 H 31 30.5 Z m 1,-1 h 0.5 1.5 0.5 C 32.777,32 33,31.777 33,31.5 33,31.223 32.777,31 32.5,31 H 32 30.5 30 v 0.5 z m 0,-2 h 2 0.5 C 32.777,30 33,29.777 33,29.5 33,29.223 32.777,29 32.5,29 H 32 30 Z"
       id="rect821"
       inkscape:connector-curvature="0" />
  </g>
</svg>
