<?xml version="1.0" encoding="UTF-8" standalone="no"?>
<!-- Created with Inkscape (http://www.inkscape.org/) -->

<svg
   xmlns:dc="http://purl.org/dc/elements/1.1/"
   xmlns:cc="http://creativecommons.org/ns#"
   xmlns:rdf="http://www.w3.org/1999/02/22-rdf-syntax-ns#"
   xmlns:svg="http://www.w3.org/2000/svg"
   xmlns="http://www.w3.org/2000/svg"
   xmlns:xlink="http://www.w3.org/1999/xlink"
   xmlns:sodipodi="http://sodipodi.sourceforge.net/DTD/sodipodi-0.dtd"
   xmlns:inkscape="http://www.inkscape.org/namespaces/inkscape"
   width="48px"
   height="48px"
   viewBox="0 0 48 48"
   version="1.1"
   id="SVGRoot"
   inkscape:version="0.92.4 (5da689c313, 2019-01-14)"
   sodipodi:docname="papers-please.svg">
  <defs
     id="defs1995">
    <linearGradient
       gradientTransform="matrix(0.9965784,0,0,0.9962666,-89.841948,-62.996045)"
       id="IcecapTip-6"
       xlink:href="#WhiteTransparent-4"
       x1="60"
       y1="20"
       x2="90"
       y2="50"
       gradientUnits="userSpaceOnUse" />
    <linearGradient
       id="WhiteTransparent-4"
       gradientUnits="userSpaceOnUse">
      <stop
         style="stop-color:white;stop-opacity:1"
         offset="0"
         id="stop7606-4" />
      <stop
         style="stop-color:white;stop-opacity:0"
         offset="1"
         id="stop7608-7" />
    </linearGradient>
  </defs>
  <sodipodi:namedview
     id="base"
     pagecolor="#ffffff"
     bordercolor="#666666"
     borderopacity="1.0"
     inkscape:pageopacity="0.0"
     inkscape:pageshadow="2"
     inkscape:zoom="4.5938101"
     inkscape:cx="45.2666"
     inkscape:cy="26.429974"
     inkscape:document-units="px"
     inkscape:current-layer="layer1"
     showgrid="true"
     inkscape:window-width="1920"
     inkscape:window-height="1017"
     inkscape:window-x="-8"
     inkscape:window-y="-8"
     inkscape:window-maximized="1"
     inkscape:grid-bbox="true"
     showguides="true"
     inkscape:guide-bbox="true">
    <inkscape:grid
       type="xygrid"
       id="grid2562" />
  </sodipodi:namedview>
  <metadata
     id="metadata1998">
    <rdf:RDF>
      <cc:Work
         rdf:about="">
        <dc:format>image/svg+xml</dc:format>
        <dc:type
           rdf:resource="http://purl.org/dc/dcmitype/StillImage" />
        <dc:title></dc:title>
      </cc:Work>
    </rdf:RDF>
  </metadata>
  <g
     inkscape:label="Layer 1"
     inkscape:groupmode="layer"
     id="layer1">
    <path
       style="fill:#ffffff"
       d="M 12 15 L 21 24.75 L 21 31 L 27 31 L 27 24.75 L 36 15 L 30 15 L 28 17 L 28 19 L 27 20 L 21 20 L 20 19 L 20 17 L 18 15 L 12 15 z M 22 21 L 23 22 L 24 21 L 25 22 L 26 21 L 26 25.300781 L 24.699219 26 L 24 27 L 23.300781 26 L 22 25.300781 L 22 21 z "
       id="path829" />
    <path
       style="fill:#ffffff"
       d="m 21,31 1,1.5 2,1.5 2,-1.5 1,-1.5 -3,-1 z"
       id="path833"
       inkscape:connector-curvature="0"
       sodipodi:nodetypes="ccccccc" />
    <path
       style="fill:#ffffff"
       d="m 20,31 1,-1 v -1 h -1 l -1,1 v -2 h 3 v 2 l -1,1 z"
       id="path835"
       inkscape:connector-curvature="0" />
    <path
       style="fill:#ffffff"
       d="m 28,31 -1,-1 v -1 h 1 l 1,1 v -2 h -3 v 2 l 1,1 z"
       id="path835-4"
       inkscape:connector-curvature="0" />
    <path
       style="fill:#ffffff"
       d="m 22,20 v -5 l 1,-1 h 2 v 2 h 1 v 4 l -2,1 z"
       id="path852"
       inkscape:connector-curvature="0"
       sodipodi:nodetypes="ccccccccc" />
    <path
       style="fill:#ffffff"
       d="m 23,15 2,-2 h 1 l 1,1 h -1 l -1,1 v 1 h 1 l 1,-1 h 1 l -2,2 z"
       id="path854"
       inkscape:connector-curvature="0"
       sodipodi:nodetypes="cccccccccccc" />
    <path
       style="fill:#ffffff"
       d="m 23,24 1.5,-1.5 H 25 V 23 l -1.5,1.5 H 23 Z"
       id="path858"
       inkscape:connector-curvature="0"
       sodipodi:nodetypes="ccccccc" />
    <path
       style="fill:#ffffff;fill-opacity:1"
       d="M 14,19 11,16 H 6 v 3 h 5 z"
       id="path860-0"
       inkscape:connector-curvature="0"
       sodipodi:nodetypes="cccccc" />
    <path
       style="fill:#ffffff;fill-opacity:1"
       d="m 15,20 3,3 H 6 v -3 z"
       id="path862-6"
       inkscape:connector-curvature="0"
       sodipodi:nodetypes="ccccc" />
    <path
       style="fill:#ffffff;fill-opacity:1"
       d="m 19,24 1,1 v 2 H 6 v -3 z"
       id="path864-7"
       inkscape:connector-curvature="0"
       sodipodi:nodetypes="cccccc" />
    <path
       style="fill:#ffffff;fill-opacity:1"
       d="m 34,19 3,-3 h 5 v 3 h -5 z"
       id="path860-0-1"
       inkscape:connector-curvature="0"
       sodipodi:nodetypes="cccccc" />
    <path
       style="fill:#ffffff;fill-opacity:1"
       d="m 33,20 -3,3 h 12 v -3 z"
       id="path862-6-8"
       inkscape:connector-curvature="0"
       sodipodi:nodetypes="ccccc" />
    <path
       style="fill:#ffffff;fill-opacity:1"
       d="m 29,24 -1,1 v 2 h 14 v -3 z"
       id="path864-7-9"
       inkscape:connector-curvature="0"
       sodipodi:nodetypes="cccccc" />
  </g>
</svg>
