<?xml version="1.0" encoding="UTF-8" standalone="no"?>
<!-- Created with Inkscape (http://www.inkscape.org/) -->

<svg
   xmlns:dc="http://purl.org/dc/elements/1.1/"
   xmlns:cc="http://creativecommons.org/ns#"
   xmlns:rdf="http://www.w3.org/1999/02/22-rdf-syntax-ns#"
   xmlns:svg="http://www.w3.org/2000/svg"
   xmlns="http://www.w3.org/2000/svg"
   xmlns:sodipodi="http://sodipodi.sourceforge.net/DTD/sodipodi-0.dtd"
   xmlns:inkscape="http://www.inkscape.org/namespaces/inkscape"
   width="48px"
   height="48px"
   viewBox="0 0 48 48"
   version="1.1"
   id="SVGRoot"
   inkscape:version="0.92.4 (5da689c313, 2019-01-14)"
   sodipodi:docname="spore-moddedm.svg"
   inkscape:export-filename="C:\Users\Admin\Documents\Rainmeter\Skins\Honeycomb-NG\@Resources\Images\openshot.png"
   inkscape:export-xdpi="512"
   inkscape:export-ydpi="512">
  <defs
     id="defs1995" />
  <sodipodi:namedview
     id="base"
     pagecolor="#ffffff"
     bordercolor="#666666"
     borderopacity="1.0"
     inkscape:pageopacity="0.0"
     inkscape:pageshadow="2"
     inkscape:zoom="18.083334"
     inkscape:cx="24.104089"
     inkscape:cy="24.045891"
     inkscape:document-units="px"
     inkscape:current-layer="layer1"
     showgrid="true"
     inkscape:window-width="1920"
     inkscape:window-height="1017"
     inkscape:window-x="-8"
     inkscape:window-y="-8"
     inkscape:window-maximized="1"
     inkscape:grid-bbox="true"
     inkscape:snap-global="true">
    <inkscape:grid
       type="xygrid"
       id="grid2562" />
  </sodipodi:namedview>
  <metadata
     id="metadata1998">
    <rdf:RDF>
      <cc:Work
         rdf:about="">
        <dc:format>image/svg+xml</dc:format>
        <dc:type
           rdf:resource="http://purl.org/dc/dcmitype/StillImage" />
        <dc:title></dc:title>
      </cc:Work>
    </rdf:RDF>
  </metadata>
  <g
     inkscape:label="Layer 1"
     inkscape:groupmode="layer"
     id="layer1">
    <path
       style="opacity:1;vector-effect:none;fill:#ffffff;fill-opacity:1;fill-rule:evenodd;stroke-width:1.04800451;paint-order:normal"
       d="M 25.65625 13.416016 C 24.037852 13.462906 22.35545 14.02036 21.158203 15.074219 C 18.609997 17.317242 17.925109 21.251523 19.652344 23.714844 C 20.184036 24.473126 20.192645 24.613281 19.708984 24.613281 C 19.093281 24.613281 17.591161 22.927569 17.3125 21.923828 C 16.795237 20.060643 17.221819 17.948102 18.458984 16.240234 C 19.578292 14.695073 18.781589 14.245663 17.214844 15.537109 C 15.332872 17.088388 14.517007 20.186014 15.289062 22.841797 C 15.760163 24.462324 17.382778 26.235531 19.080078 26.986328 C 20.238475 27.498744 22.260985 27.659133 23.527344 27.335938 C 24.508232 27.085597 24.575797 27.640624 23.644531 28.302734 C 22.509793 29.109511 21.242044 29.363495 19.847656 29.064453 C 18.232318 28.718025 17.321705 28.137886 15.898438 26.541016 C 14.942056 25.467983 14.708128 25.306929 14.580078 25.640625 C 14.288829 26.399608 14.95687 27.904135 16.091797 29.039062 C 18.25449 31.201756 21.367667 31.748006 24.009766 30.427734 C 26.228813 29.318863 27.481103 27.576241 27.896484 25.019531 C 28.073928 23.927364 28.639414 23.836902 28.847656 24.955078 C 29.324903 27.517698 28.230846 30.017942 25.351562 31.871094 C 24.86977 32.181183 24.2187 32.301868 23.994141 32.304688 C 23.523104 32.310488 23.446841 32.675655 23.876953 32.867188 C 24.430894 33.113864 26.152738 32.784695 27.273438 32.216797 C 27.923802 31.887232 28.496875 31.459183 29 30.970703 L 29 27 L 30.994141 27 C 31.020664 26.771637 31.046055 26.544408 31.046875 26.3125 C 31.056275 23.639217 29.624517 21.210716 27.369141 20.076172 C 25.775569 19.274542 27.598621 18.905965 29.310547 19.683594 C 29.828793 19.919002 30.677508 20.593385 31.195312 21.181641 C 32.183716 22.304524 32.617437 23.39491 32.845703 25.322266 C 33.020225 26.79583 33.476647 26.53323 33.847656 24.746094 C 34.158022 23.251072 33.878996 21.770713 32.972656 20.105469 C 31.716134 17.796825 29.674345 16.781409 26.648438 16.960938 C 24.676842 17.077915 23.807006 17.434475 22.398438 18.707031 C 21.88943 19.166887 21.400442 19.470751 21.310547 19.380859 C 20.998895 19.069203 22.307702 17.03848 23.236328 16.392578 C 24.689329 15.381945 26.436304 15.109494 28.382812 15.589844 C 30.329846 16.070322 30.750802 15.838251 29.779297 14.824219 C 28.829237 13.832569 27.274649 13.369128 25.65625 13.416016 z "
       id="rect847" />
    <path
       inkscape:connector-curvature="0"
       id="path841-7"
       d="m 64.189966,-9.5996282 c -0.388003,-0.16878 -1.867491,-1.1204178 -3.287752,-2.1147438 -3.079476,-2.155951 -3.241997,-2.233697 -3.241997,-1.550934 0,0.280545 -0.209981,0.943848 -0.466626,1.474004 -1.308638,2.7032898 -5.252349,2.7479188 -6.601615,0.07471 -0.479794,-0.950586 -0.500898,-1.227862 -0.500898,-6.581194 0,-3.073839 0.107998,-6.173005 0.239993,-6.887033 0.911415,-4.930305 4.999046,-8.356276 9.970135,-8.356276 5.205536,0 9.311729,3.531808 10.111197,8.696811 0.427584,2.76242 -0.349072,5.321069 -2.214631,7.295975 l -0.979688,1.037115 0.654768,0.556888 c 2.070434,1.760929 1.696217,5.048966 -0.707038,6.2123608 -1.109117,0.536913 -1.973691,0.578261 -2.975848,0.142313 z m -30.734411,-0.24094 c -4.185151,-1.1272168 -7.800723,-4.8042408 -8.754398,-8.9031878 -0.141541,-0.608356 -0.257661,-1.920546 -0.258042,-2.915978 -0.0032,-8.259811 8.279796,-14.011297 16.179606,-11.234735 3.683454,1.294628 6.792378,4.810095 7.696984,8.703488 0.34461,1.483189 0.343862,3.944103 -0.0015,5.447225 -0.950865,4.136577 -4.592758,7.806287 -8.846739,8.9143078 -1.576613,0.410657 -4.469637,0.405309 -6.015754,-0.01102 z m 6.129395,-3.0862708 c 2.19266,-1.111106 3.591712,-3.300875 3.599963,-5.634591 0.009,-2.550831 -1.356616,-4.86618 -3.508683,-5.948756 -1.520578,-0.764911 0.219016,-1.117723 1.852527,-0.375714 0.494507,0.224625 1.303356,0.867666 1.797443,1.428977 0.943128,1.071448 1.358131,2.111883 1.575942,3.950956 0.166528,1.406066 0.601523,1.156032 0.955537,-0.549242 0.29615,-1.426542 0.02973,-2.839269 -0.835092,-4.428235 -1.198966,-2.202896 -3.147105,-3.171461 -6.034408,-3.000155 -1.881286,0.11162 -2.710515,0.452502 -4.054564,1.666768 -0.485692,0.438792 -0.953253,0.727624 -1.03903,0.641849 -0.297377,-0.29738 0.951298,-2.235354 1.837388,-2.85167 1.386445,-0.96434 3.052529,-1.224229 4.909877,-0.765882 1.857848,0.45847 2.261524,0.237682 1.334519,-0.729902 -1.813085,-1.892454 -5.941202,-1.772857 -8.226015,0.238317 -2.431484,2.14028 -3.086235,5.893724 -1.438117,8.24421 0.507338,0.723548 0.515734,0.856121 0.05422,0.856121 -0.587501,0 -2.019754,-1.607407 -2.285651,-2.565171 -0.493569,-1.777841 -0.08754,-3.791891 1.09296,-5.421529 1.068038,-1.474384 0.308081,-1.905313 -1.186898,-0.673023 -1.795767,1.480222 -2.575818,4.436954 -1.839127,6.971087 0.449522,1.546298 1.997409,3.239041 3.616963,3.955447 1.105336,0.488944 3.037195,0.639698 4.245548,0.331306 0.935958,-0.238874 0.999913,0.291758 0.111306,0.92354 -1.082762,0.769822 -2.293592,1.012903 -3.624109,0.727559 -1.541347,-0.33056 -2.40934,-0.885675 -3.767413,-2.4094 -0.912573,-1.023882 -1.136082,-1.176262 -1.258267,-0.857851 -0.277908,0.724217 0.362092,2.160906 1.445033,3.243848 2.06363,2.063629 5.033385,2.584313 7.554461,1.324516 2.117402,-1.058077 3.31264,-2.721143 3.708994,-5.160741 0.169316,-1.04214 0.487585,-1.064205 0.905996,-0.0628 0.968741,2.318525 -0.557108,5.336659 -3.336132,6.598889 -0.497774,0.226088 -1.080357,0.413269 -1.29463,0.415959 -0.449461,0.0055 -0.521715,0.35419 -0.111305,0.53695 0.528567,0.235377 2.171403,-0.07975 3.240768,-0.621632 z m 42.11842,3.1988538 c -0.92767,-0.127667 -2.086268,-0.5163468 -3.228016,-1.0829348 -7.663762,-3.803106 -9.042705,-13.988767 -2.679516,-19.792424 2.52631,-2.304167 4.669236,-3.016218 9.135545,-3.035562 2.75768,-0.01197 3.20638,0.03916 3.89513,0.443779 2.32178,1.363924 2.39947,4.312659 0.15738,5.973812 -0.5227,0.387265 -1.05454,0.479813 -3.31604,0.577023 -2.28236,0.09811 -2.73103,0.177241 -2.9394,0.518409 -0.38709,0.633792 0.37311,1.044414 1.93356,1.044414 1.71652,0 2.7024,0.482981 3.39367,1.662536 1.01705,1.735472 0.5537,3.540901 -1.21458,4.732544 -0.59431,0.400505 -1.06035,0.506198 -2.23205,0.506198 -1.84491,0 -2.44118,0.432699 -1.66536,1.208517 0.27668,0.276682 0.87496,0.349834 2.86116,0.349834 2.72933,0 3.42608,0.249275 4.40963,1.577625 1.06095,1.432873 0.5455,3.771406 -1.07278,4.867065 -0.72575,0.4913738 -1.06133,0.5503048 -3.39828,0.5967598 -1.42616,0.02835 -3.24418,-0.03806 -4.040056,-0.147589 z m -94.524807,-0.3103688 c -2.56562,-0.582685 -4.931585,-2.245909 -5.021752,-3.530184 -0.206435,-2.94032 1.97847,-4.429407 4.957147,-3.378469 1.206066,0.425526 2.356228,0.48198 2.705415,0.132801 0.4834049,-0.483405 -0.1542,-1.015224 -1.704559,-1.421752 -3.033173,-0.79534 -4.863097,-2.149973 -5.86725,-4.343336 -0.487782,-1.065454 -0.542657,-1.439151 -0.460491,-3.135957 0.08025,-1.657386 0.197342,-2.121207 0.838567,-3.32183 1.785223,-3.342629 5.337026,-4.943784 9.9332389,-4.477915 4.303922,0.436245 6.52114596,2.257959 6.01726,4.943901 -0.07637,0.407101 -0.444605,1.033227 -0.818293,1.391386 -0.634114,0.607767 -0.81584,0.656242 -2.724346,0.726721 -1.1247,0.04154 -2.135835,0.162509 -2.246965,0.26884 -0.358802,0.343305 0.295999,0.831663 1.493157,1.113608 3.806369,0.896453 5.91095296,3.264767 6.12068096,6.887673 0.07134,1.2324 -0.0041,2.040209 -0.262821,2.813644 -0.701877,2.098343 -2.73694496,4.045665 -5.23624896,5.010477 -1.591389,0.6143268 -5.6813989,0.7840138 -7.7227399,0.320399 z m 16.6037109,-0.09498 c -0.426637,-0.22702 -0.99946,-0.803055 -1.27294,-1.280075 -0.478012,-0.833779 -0.497313,-1.082492 -0.499219,-6.432857 -0.0011,-3.061049 0.103352,-6.214771 0.23209,-7.008268 0.816815,-5.034566 5.136263,-8.709394 10.2480431,-8.718653 2.02377,-0.0036 3.212942,0.285927 4.945685,1.204395 5.138386,2.723685 7.019941,9.250218 4.133182,14.336736 -1.328448,2.340746 -4.199356,4.419154 -6.905989,4.999623 -1.097417,0.235354 -3.498106,0.160791 -5.2274541,-0.162358 -0.647182,-0.120934 -0.704435,-0.0788 -0.83548,0.614741 -0.443093,2.345088 -2.779297,3.5314978 -4.817918,2.446716 z"
       style="fill:#2660a3;stroke-width:0.22262177" />
    <rect
       style="opacity:1;vector-effect:none;fill:#ffffff;fill-opacity:1;fill-rule:evenodd;stroke:none;stroke-width:3;stroke-linecap:round;stroke-linejoin:round;stroke-miterlimit:4;stroke-dasharray:none;stroke-opacity:1;paint-order:stroke fill markers"
       id="rect817"
       width="1"
       height="4"
       x="30"
       y="28" />
    <rect
       style="opacity:1;vector-effect:none;fill:#ffffff;fill-opacity:1;fill-rule:evenodd;stroke:none;stroke-width:3;stroke-linecap:round;stroke-linejoin:round;stroke-miterlimit:4;stroke-dasharray:none;stroke-opacity:1;paint-order:stroke fill markers"
       id="rect819"
       width="5"
       height="1"
       x="30"
       y="28" />
    <rect
       style="opacity:1;vector-effect:none;fill:#ffffff;fill-opacity:1;fill-rule:evenodd;stroke:none;stroke-width:3;stroke-linecap:round;stroke-linejoin:round;stroke-miterlimit:4;stroke-dasharray:none;stroke-opacity:1;paint-order:stroke fill markers"
       id="rect821"
       width="1"
       height="4"
       x="34"
       y="28" />
    <rect
       style="opacity:1;vector-effect:none;fill:#ffffff;fill-opacity:1;fill-rule:evenodd;stroke:none;stroke-width:3;stroke-linecap:round;stroke-linejoin:round;stroke-miterlimit:4;stroke-dasharray:none;stroke-opacity:1;paint-order:stroke fill markers"
       id="rect823"
       width="1"
       height="4"
       x="32"
       y="28" />
  </g>
</svg>
