<?xml version="1.0" encoding="UTF-8" standalone="no"?>
<!-- Created with Inkscape (http://www.inkscape.org/) -->

<svg
   xmlns:dc="http://purl.org/dc/elements/1.1/"
   xmlns:cc="http://creativecommons.org/ns#"
   xmlns:rdf="http://www.w3.org/1999/02/22-rdf-syntax-ns#"
   xmlns:svg="http://www.w3.org/2000/svg"
   xmlns="http://www.w3.org/2000/svg"
   xmlns:sodipodi="http://sodipodi.sourceforge.net/DTD/sodipodi-0.dtd"
   xmlns:inkscape="http://www.inkscape.org/namespaces/inkscape"
   width="48px"
   height="48px"
   viewBox="0 0 48 48"
   version="1.1"
   id="SVGRoot"
   inkscape:version="0.92.4 (5da689c313, 2019-01-14)"
   sodipodi:docname="spotifya.svg"
   inkscape:export-filename="C:\Users\Admin\Documents\Rainmeter\Skins\Honeycomb-NG\@Resources\Images\openshot.png"
   inkscape:export-xdpi="512"
   inkscape:export-ydpi="512">
  <defs
     id="defs1995" />
  <sodipodi:namedview
     id="base"
     pagecolor="#ffffff"
     bordercolor="#666666"
     borderopacity="1.0"
     inkscape:pageopacity="0.0"
     inkscape:pageshadow="2"
     inkscape:zoom="11.013816"
     inkscape:cx="3.7279292"
     inkscape:cy="21.398738"
     inkscape:document-units="px"
     inkscape:current-layer="layer1"
     showgrid="true"
     inkscape:window-width="1920"
     inkscape:window-height="1017"
     inkscape:window-x="-8"
     inkscape:window-y="-8"
     inkscape:window-maximized="1"
     inkscape:grid-bbox="true"
     inkscape:snap-global="false">
    <inkscape:grid
       type="xygrid"
       id="grid2562" />
  </sodipodi:namedview>
  <metadata
     id="metadata1998">
    <rdf:RDF>
      <cc:Work
         rdf:about="">
        <dc:format>image/svg+xml</dc:format>
        <dc:type
           rdf:resource="http://purl.org/dc/dcmitype/StillImage" />
        <dc:title></dc:title>
      </cc:Work>
    </rdf:RDF>
  </metadata>
  <g
     inkscape:label="Layer 1"
     inkscape:groupmode="layer"
     id="layer1">
    <path
       style="fill:#ffffff;stroke-width:0.08492488"
       d="m 28.387599,29.770439 c -2.099604,-1.12871 -4.772826,-1.697465 -7.433281,-1.581506 -1.224436,0.05337 -2.890624,0.271946 -3.955411,0.518887 -0.665098,0.154246 -0.900315,0.109205 -1.182794,-0.226505 -0.366019,-0.434989 -0.238632,-1.060603 0.26458,-1.299394 0.155793,-0.07392 0.962591,-0.250984 1.792888,-0.393459 1.207297,-0.207164 1.849782,-0.26798 3.208125,-0.303671 1.990294,-0.0523 3.119456,0.06663 4.90636,0.516709 1.669639,0.420551 3.822179,1.387405 4.222844,1.896768 0.425506,0.540945 -0.0046,1.393736 -0.694826,1.377678 -0.108161,-0.0025 -0.615984,-0.229994 -1.128485,-0.505507 z"
       id="path840"
       inkscape:connector-curvature="0" />
    <path
       style="fill:#ffffff;stroke-width:0.08492488"
       d="m 30.763144,26.471668 c -0.09342,-0.03038 -0.419376,-0.197112 -0.724352,-0.370525 -1.548434,-0.88046 -3.680264,-1.573266 -5.857327,-1.903528 -1.174226,-0.178131 -4.159209,-0.203422 -5.265343,-0.04461 -0.397025,0.057 -1.202721,0.222735 -1.790437,0.368296 -1.214264,0.300738 -1.406722,0.286079 -1.832369,-0.139569 -0.230534,-0.230534 -0.283739,-0.349822 -0.283739,-0.636148 0,-0.42167 0.168661,-0.777567 0.458492,-0.96747 0.268355,-0.175834 1.630849,-0.532018 2.683705,-0.701576 1.284525,-0.206868 4.385757,-0.251333 5.83225,-0.08361 2.753313,0.319229 5.430348,1.181671 7.427791,2.392959 0.712333,0.431974 0.916221,0.963782 0.597409,1.558244 -0.24613,0.458936 -0.772175,0.681647 -1.24608,0.527552 z"
       id="path838"
       inkscape:connector-curvature="0" />
    <path
       style="fill:#ffffff;stroke-width:0.08492488"
       d="M 32.503778,22.089757 C 32.340476,22.037177 31.758235,21.77464 31.209907,21.506326 29.453096,20.646661 27.66479,20.147841 25.002489,19.774868 24.235403,19.667402 23.389283,19.63071 21.718643,19.63246 c -2.466197,0.0026 -3.27258,0.0839 -5.277454,0.532157 -1.167152,0.26096 -1.382587,0.263334 -1.83681,0.02024 -0.300069,-0.160592 -0.529006,-0.629146 -0.528659,-1.081982 6.8e-4,-0.871499 0.469568,-1.210074 2.20773,-1.594117 1.802326,-0.398219 2.919283,-0.50477 5.350268,-0.510387 2.380107,-0.0055 3.344916,0.07194 5.234024,0.420067 3.013889,0.555413 6.496376,1.911254 7.056587,2.747349 0.639419,0.954311 -0.334638,2.273556 -1.420551,1.923968 z"
       id="path830"
       inkscape:connector-curvature="0" />
  </g>
</svg>
