<?xml version="1.0" encoding="UTF-8" standalone="no"?>
<!-- Created with Inkscape (http://www.inkscape.org/) -->

<svg
   xmlns:dc="http://purl.org/dc/elements/1.1/"
   xmlns:cc="http://creativecommons.org/ns#"
   xmlns:rdf="http://www.w3.org/1999/02/22-rdf-syntax-ns#"
   xmlns:svg="http://www.w3.org/2000/svg"
   xmlns="http://www.w3.org/2000/svg"
   xmlns:xlink="http://www.w3.org/1999/xlink"
   xmlns:sodipodi="http://sodipodi.sourceforge.net/DTD/sodipodi-0.dtd"
   xmlns:inkscape="http://www.inkscape.org/namespaces/inkscape"
   width="48px"
   height="48px"
   viewBox="0 0 48 48"
   version="1.1"
   id="SVGRoot"
   inkscape:version="0.92.4 (5da689c313, 2019-01-14)"
   sodipodi:docname="0cc-famitrackera.svg"
   inkscape:export-filename="C:\Users\Admin\Documents\Rainmeter\Skins\Honeycomb-NG\@Resources\Images\openshot.png"
   inkscape:export-xdpi="512"
   inkscape:export-ydpi="512">
  <defs
     id="defs1995">
    <linearGradient
       gradientUnits="userSpaceOnUse"
       y2="50"
       x2="90"
       y1="20"
       x1="60"
       xlink:href="#WhiteTransparent-4"
       id="IcecapTip-6"
       gradientTransform="matrix(0.9965784,0,0,0.9962666,-89.841948,-62.996045)" />
    <linearGradient
       gradientUnits="userSpaceOnUse"
       id="WhiteTransparent-4">
      <stop
         id="stop7606-4"
         offset="0"
         style="stop-color:white;stop-opacity:1" />
      <stop
         id="stop7608-7"
         offset="1"
         style="stop-color:white;stop-opacity:0" />
    </linearGradient>
  </defs>
  <sodipodi:namedview
     id="base"
     pagecolor="#ffffff"
     bordercolor="#666666"
     borderopacity="1.0"
     inkscape:pageopacity="0.0"
     inkscape:pageshadow="2"
     inkscape:zoom="12.786848"
     inkscape:cx="-1.1867889"
     inkscape:cy="24.610464"
     inkscape:document-units="px"
     inkscape:current-layer="layer1"
     showgrid="true"
     inkscape:window-width="1920"
     inkscape:window-height="1017"
     inkscape:window-x="-8"
     inkscape:window-y="-8"
     inkscape:window-maximized="1"
     inkscape:grid-bbox="true"
     inkscape:snap-global="false">
    <inkscape:grid
       type="xygrid"
       id="grid2562" />
  </sodipodi:namedview>
  <metadata
     id="metadata1998">
    <rdf:RDF>
      <cc:Work
         rdf:about="">
        <dc:format>image/svg+xml</dc:format>
        <dc:type
           rdf:resource="http://purl.org/dc/dcmitype/StillImage" />
        <dc:title></dc:title>
      </cc:Work>
    </rdf:RDF>
  </metadata>
  <g
     inkscape:label="Layer 1"
     inkscape:groupmode="layer"
     id="layer1">
    <path
       inkscape:connector-curvature="0"
       style="opacity:1;vector-effect:none;fill:#ffffff;fill-opacity:1;fill-rule:evenodd;stroke-width:0.05681279;paint-order:stroke fill markers"
       d="m 16.226021,14.21317 c -0.434587,0.0032 -0.577486,0.02795 -0.762534,0.09843 -0.730567,0.278268 -1.270547,0.832944 -1.472359,1.512528 -0.131303,0.44214 -0.132912,4.298168 -0.002,4.800791 0.212416,0.815524 0.939772,1.504183 1.858621,1.759753 0.222998,0.06203 0.56054,0.07863 1.348527,0.06635 0.934077,-0.01454 1.087314,-0.03056 1.377154,-0.144692 0.649001,-0.255583 1.240711,-0.842152 1.432747,-1.420322 0.08047,-0.242288 0.09028,-0.575319 0.07579,-2.571443 l -0.01667,-2.293152 -0.162004,-0.30781 c -0.198284,-0.376587 -0.637164,-0.849587 -1.010918,-1.089423 -0.46726,-0.299843 -0.954494,-0.393461 -2.122267,-0.408011 -0.222057,-0.0028 -0.399297,-0.004 -0.544159,-0.003 z m 7.475319,0.444739 -0.380714,0.180313 c -0.466951,0.221214 -0.825116,0.569746 -1.044155,1.015862 l -0.165889,0.33777 v 2.300916 2.300918 l 0.153128,0.326783 c 0.316901,0.676223 1.025385,1.220728 1.7501,1.344976 0.171858,0.02946 0.695956,0.04683 1.164661,0.03861 0.72924,-0.01278 0.891401,-0.03256 1.123829,-0.137038 0.149389,-0.06714 0.376165,-0.205783 0.503991,-0.308033 0.241006,-0.192783 0.67397,-0.777334 0.671878,-0.907118 -9.27e-4,-0.05748 -0.893362,-0.61603 -1.149239,-0.719257 -0.02748,-0.01111 -0.14261,0.08815 -0.255879,0.220482 -0.276029,0.322481 -0.476985,0.396294 -1.077445,0.395914 -0.606814,-3.97e-4 -0.868938,-0.06759 -1.11839,-0.286616 -0.318884,-0.279984 -0.324117,-0.319072 -0.306036,-2.282942 0.01878,-2.038569 0.0087,-1.993655 0.499665,-2.244548 0.225733,-0.115362 0.303179,-0.124268 0.820455,-0.09431 0.31416,0.01819 0.653001,0.05787 0.752993,0.08822 0.169453,0.05143 0.447603,0.311728 0.573453,0.536612 0.04927,0.08807 0.09215,0.07624 0.445071,-0.122727 0.214776,-0.121085 0.486348,-0.268334 0.603524,-0.327227 0.117181,-0.05889 0.212786,-0.123638 0.212493,-0.143808 -0.0019,-0.120669 -0.368951,-0.644408 -0.609404,-0.86928 -0.545271,-0.509934 -0.921537,-0.615001 -2.265412,-0.632598 z m 7.276584,0.406898 c -0.348249,0.0032 -0.435369,0.0337 -0.657896,0.139924 -0.463435,0.221217 -0.764161,0.512222 -0.97758,0.945733 l -0.187083,0.379825 v 2.188513 2.188511 l 0.151133,0.322457 c 0.275396,0.587477 0.822491,1.061372 1.407225,1.219034 0.144176,0.03887 0.618809,0.07167 1.067125,0.07379 0.694799,0.0032 0.85325,-0.01326 1.136034,-0.119064 0.372793,-0.139479 0.813188,-0.548877 1.026402,-0.954165 0.07109,-0.135132 0.122222,-0.250865 0.113632,-0.257212 -0.0086,-0.0064 -0.256333,-0.154521 -0.550486,-0.329336 L 32.97159,20.544909 32.703727,20.830306 32.435753,21.1157 31.722709,21.09672 C 30.928833,21.07559 30.79878,21.0244 30.57569,20.645658 c -0.106849,-0.18141 -0.113632,-0.295061 -0.113632,-1.907335 0,-1.642983 0.0051,-1.72095 0.117181,-1.87127 0.262937,-0.352104 0.375512,-0.392404 1.054587,-0.377384 0.71041,0.01572 0.851043,0.06682 1.139697,0.414334 l 0.193297,0.23269 0.508873,-0.296603 c 0.279839,-0.163173 0.520965,-0.306977 0.535836,-0.319573 0.01488,-0.01263 -0.04626,-0.162844 -0.135816,-0.333886 -0.161179,-0.307845 -0.600728,-0.757086 -0.88193,-0.901346 -0.26252,-0.134676 -0.757682,-0.20311 -1.565903,-0.216489 -0.188811,-0.0032 -0.333869,-0.0052 -0.449953,-0.004 z m -14.085572,0.701284 c 0.698422,3.4e-4 0.987904,0.0618 1.260421,0.26753 0.409459,0.309092 0.406552,0.292841 0.406788,2.30469 1.71e-4,1.396872 -0.01729,1.847627 -0.07724,1.991109 -0.0988,0.236465 -0.37786,0.471719 -0.648684,0.546935 -0.305999,0.08497 -1.24911,0.06918 -1.514638,-0.02541 C 16.020124,20.744471 15.828194,20.594967 15.690733,20.361594 15.583292,20.179179 15.5771,20.066608 15.5771,18.289814 v -1.879037 l 0.151134,-0.228361 c 0.226155,-0.341747 0.435687,-0.416706 1.164107,-0.416331 z m 9.053092,8.521584 v 0.738564 0.738566 h 0.880599 0.880597 v 3.104841 3.104728 l 0.520081,-0.03683 c 0.286024,-0.02031 0.605596,-0.03694 0.71016,-0.03694 H 29.12696 V 28.804297 25.708 l 0.553925,-5.68e-4 c 0.304656,-2.84e-4 0.688144,-0.01659 0.852191,-0.03629 l 0.298267,-0.03584 v -0.67376 -0.673873 h -2.442951 z m -4.264176,0.05682 c -1.402661,0 -2.250562,0.02224 -2.413876,0.06335 -0.302442,0.07616 -0.614309,0.392621 -0.703502,0.713823 -0.03957,0.142468 -0.06037,1.455018 -0.0606,3.819216 l -3.35e-4,3.602173 0.748775,-0.03794 c 0.411826,-0.02085 0.763354,-0.05247 0.781174,-0.07024 0.01782,-0.01778 0.04083,-0.755908 0.05115,-1.640359 l 0.01876,-1.608066 0.520969,-0.03416 c 0.286527,-0.01874 0.946124,-0.05041 1.465815,-0.07047 l 0.944956,-0.03651 0.03507,-0.256213 c 0.04509,-0.329057 0.04466,-0.666881 -0.0014,-1.003321 l -0.03672,-0.267421 -1.468809,0.04062 -1.468921,0.04061 v -0.854189 -0.854301 l 1.874823,-0.04194 1.874821,-0.04195 V 25.075852 24.3445 Z"
       id="rect834" />
  </g>
</svg>
