<?xml version="1.0" encoding="UTF-8" standalone="no"?>
<!-- Created with Inkscape (http://www.inkscape.org/) -->

<svg
   xmlns:dc="http://purl.org/dc/elements/1.1/"
   xmlns:cc="http://creativecommons.org/ns#"
   xmlns:rdf="http://www.w3.org/1999/02/22-rdf-syntax-ns#"
   xmlns:svg="http://www.w3.org/2000/svg"
   xmlns="http://www.w3.org/2000/svg"
   xmlns:sodipodi="http://sodipodi.sourceforge.net/DTD/sodipodi-0.dtd"
   xmlns:inkscape="http://www.inkscape.org/namespaces/inkscape"
   width="48px"
   height="48px"
   viewBox="0 0 48 48"
   version="1.1"
   id="SVGRoot"
   inkscape:version="0.92.4 (5da689c313, 2019-01-14)"
   sodipodi:docname="adobe-auditiona.svg"
   inkscape:export-filename="C:\Users\Admin\Documents\Rainmeter\Skins\Honeycomb-NG\@Resources\Images\openshot.png"
   inkscape:export-xdpi="512"
   inkscape:export-ydpi="512">
  <defs
     id="defs1995" />
  <sodipodi:namedview
     id="base"
     pagecolor="#ffffff"
     bordercolor="#666666"
     borderopacity="1.0"
     inkscape:pageopacity="0.0"
     inkscape:pageshadow="2"
     inkscape:zoom="11.013816"
     inkscape:cx="2.6176606"
     inkscape:cy="30.049597"
     inkscape:document-units="px"
     inkscape:current-layer="layer1"
     showgrid="true"
     inkscape:window-width="1920"
     inkscape:window-height="1017"
     inkscape:window-x="-8"
     inkscape:window-y="-8"
     inkscape:window-maximized="1"
     inkscape:grid-bbox="true">
    <inkscape:grid
       type="xygrid"
       id="grid2562" />
  </sodipodi:namedview>
  <metadata
     id="metadata1998">
    <rdf:RDF>
      <cc:Work
         rdf:about="">
        <dc:format>image/svg+xml</dc:format>
        <dc:type
           rdf:resource="http://purl.org/dc/dcmitype/StillImage" />
        <dc:title></dc:title>
      </cc:Work>
    </rdf:RDF>
  </metadata>
  <g
     inkscape:label="Layer 1"
     inkscape:groupmode="layer"
     id="layer1">
    <path
       style="opacity:1;vector-effect:none;fill:#ffffff;fill-opacity:1;fill-rule:evenodd;stroke:none;stroke-width:2;stroke-linecap:round;stroke-linejoin:round;stroke-miterlimit:4;stroke-dasharray:none;stroke-opacity:1;paint-order:stroke fill markers"
       d="M 18.830078 16.210938 L 17.232422 16.21875 L 17.214844 16.355469 C 17.204844 16.430519 17.183729 16.597523 17.167969 16.726562 C 17.152209 16.855604 17.104339 17.082474 17.060547 17.232422 C 17.016757 17.382371 16.134649 19.991262 15.101562 23.029297 C 14.068477 26.067332 13.222656 28.578475 13.222656 28.609375 C 13.222656 28.730734 13.226557 28.730469 14.476562 28.730469 C 15.610428 28.730469 15.669308 28.729067 15.712891 28.679688 C 15.738041 28.651228 15.958616 27.985036 16.205078 27.199219 L 16.654297 25.769531 L 18.826172 25.763672 L 20.998047 25.755859 L 21.023438 25.832031 C 21.037948 25.873391 21.262802 26.519487 21.521484 27.269531 C 21.780165 28.019575 22.009605 28.65493 22.033203 28.681641 C 22.073213 28.726931 22.164406 28.730469 23.375 28.730469 C 24.830814 28.730469 24.768692 28.739869 24.714844 28.544922 C 24.663424 28.358814 20.467553 16.245484 20.447266 16.224609 C 20.436206 16.213229 19.708392 16.207068 18.830078 16.210938 z M 18.792969 18.419922 C 18.804079 18.440262 18.886679 18.720429 18.976562 19.042969 C 19.161085 19.705152 19.721415 21.543891 20.058594 22.59375 C 20.182036 22.978108 20.283203 23.313233 20.283203 23.337891 C 20.283203 23.378931 20.159677 23.382812 18.818359 23.382812 C 18.01246 23.382812 17.353516 23.372265 17.353516 23.359375 C 17.353516 23.346485 17.417966 23.134701 17.498047 22.888672 C 17.578137 22.642642 17.696971 22.244062 17.761719 22.003906 C 17.826469 21.76375 18.029606 21.070786 18.212891 20.462891 C 18.396176 19.854997 18.597666 19.136972 18.660156 18.869141 C 18.727266 18.581499 18.781035 18.398078 18.792969 18.419922 z "
       id="path848" />
    <path
       style="opacity:1;vector-effect:none;fill:#ffffff;fill-opacity:1;fill-rule:evenodd;stroke:none;stroke-width:2;stroke-linecap:round;stroke-linejoin:round;stroke-miterlimit:4;stroke-dasharray:none;stroke-opacity:1;paint-order:stroke fill markers"
       d="m 26.8125,19.179688 c -0.889568,0 -1.198745,0.0088 -1.222656,0.0332 -0.04197,0.04299 -0.04562,6.402323 -0.0039,6.77539 0.110772,0.990575 0.427504,1.725267 0.96289,2.238281 0.404684,0.387775 0.856502,0.601229 1.503906,0.708985 0.310442,0.05167 1.153584,0.03721 1.482422,-0.02539 0.32958,-0.06273 0.661109,-0.164329 0.933594,-0.287109 0.228349,-0.102893 0.718908,-0.416857 0.791016,-0.505859 0.03135,-0.0387 0.04275,-0.01398 0.08398,0.195312 0.0707,0.358852 0.06998,0.359634 0.154297,0.404297 0.06602,0.03497 0.240967,0.04102 1.119141,0.04102 1.001161,0 1.043006,-7.24e-4 1.09375,-0.05273 0.03626,-0.03714 0.04796,-0.07886 0.03906,-0.130859 -0.06525,-0.381103 -0.07436,-0.956671 -0.08398,-5.013672 -0.0072,-3.030842 -0.01883,-4.320743 -0.03906,-4.345703 -0.0228,-0.02815 -0.269284,-0.03516 -1.191406,-0.03516 -1.009512,0 -1.171261,0.0061 -1.222656,0.04297 l -0.06055,0.04102 v 3.421875 3.423828 l -0.113282,0.07813 c -0.47109,0.330996 -1.10548,0.499909 -1.65625,0.441406 -0.579786,-0.06159 -0.896736,-0.258615 -1.101562,-0.6875 -0.188621,-0.394955 -0.176225,-0.162623 -0.185547,-3.582031 -0.0076,-2.800389 -0.01143,-3.086312 -0.05078,-3.130859 -0.04046,-0.04579 -0.121695,-0.04883 -1.232422,-0.04883 z"
       id="rect841" />
  </g>
</svg>
