<?xml version="1.0" encoding="UTF-8" standalone="no"?>
<!-- Created with Inkscape (http://www.inkscape.org/) -->

<svg
   xmlns:dc="http://purl.org/dc/elements/1.1/"
   xmlns:cc="http://creativecommons.org/ns#"
   xmlns:rdf="http://www.w3.org/1999/02/22-rdf-syntax-ns#"
   xmlns:svg="http://www.w3.org/2000/svg"
   xmlns="http://www.w3.org/2000/svg"
   xmlns:sodipodi="http://sodipodi.sourceforge.net/DTD/sodipodi-0.dtd"
   xmlns:inkscape="http://www.inkscape.org/namespaces/inkscape"
   width="48px"
   height="48px"
   viewBox="0 0 48 48"
   version="1.1"
   id="SVGRoot"
   inkscape:version="0.92.4 (5da689c313, 2019-01-14)"
   sodipodi:docname="apk-icon-editora.svg"
   inkscape:export-filename="C:\Users\Admin\Documents\Rainmeter\Skins\Honeycomb-NG\@Resources\Images\openshot.png"
   inkscape:export-xdpi="512"
   inkscape:export-ydpi="512">
  <defs
     id="defs1995" />
  <sodipodi:namedview
     id="base"
     pagecolor="#ffffff"
     bordercolor="#666666"
     borderopacity="1.0"
     inkscape:pageopacity="0.0"
     inkscape:pageshadow="2"
     inkscape:zoom="18.083334"
     inkscape:cx="24.283008"
     inkscape:cy="26.761614"
     inkscape:document-units="px"
     inkscape:current-layer="layer1"
     showgrid="true"
     inkscape:window-width="1920"
     inkscape:window-height="1017"
     inkscape:window-x="-8"
     inkscape:window-y="-8"
     inkscape:window-maximized="1"
     inkscape:grid-bbox="true">
    <inkscape:grid
       type="xygrid"
       id="grid2562" />
  </sodipodi:namedview>
  <metadata
     id="metadata1998">
    <rdf:RDF>
      <cc:Work
         rdf:about="">
        <dc:format>image/svg+xml</dc:format>
        <dc:type
           rdf:resource="http://purl.org/dc/dcmitype/StillImage" />
        <dc:title></dc:title>
      </cc:Work>
    </rdf:RDF>
  </metadata>
  <g
     inkscape:label="Layer 1"
     inkscape:groupmode="layer"
     id="layer1">
    <path
       style="opacity:1;vector-effect:none;fill:#ffffff;fill-opacity:1;fill-rule:evenodd;stroke:none;stroke-width:2;stroke-linecap:round;stroke-linejoin:round;stroke-miterlimit:4;stroke-dasharray:none;paint-order:normal"
       d="M 15 12 C 13.892 12 13 12.892 13 14 L 13 32 C 13 33.108 13.892 34 15 34 L 33 34 C 34.108 34 35 33.108 35 32 L 35 14 C 35 12.892 34.108 12 33 12 L 15 12 z M 15 14 L 17 14 L 17 16 L 15 16 L 15 14 z M 19 14 L 21 14 L 21 16 L 19 16 L 19 14 z M 23 14 L 25 14 L 25 16 L 23 16 L 23 14 z M 27 14 L 29 14 L 29 16 L 27 16 L 27 14 z M 31 14 L 33 14 L 33 16 L 31 16 L 31 14 z M 15 18 L 17 18 L 17 20 L 15 20 L 15 18 z M 19 18 L 21 18 L 21 20 L 19 20 L 19 18 z M 23 18 L 25 18 L 25 20 L 23 20 L 23 18 z M 27 18 L 29 18 L 29 20 L 27 20 L 27 18 z M 31 18 L 33 18 L 33 20 L 31 20 L 31 18 z M 15 22 L 17 22 L 17 24 L 15 24 L 15 22 z M 19 22 L 21 22 L 21 24 L 19 24 L 19 22 z M 23 22 L 25 22 L 25 24 L 23 24 L 23 22 z M 27 22 L 29 22 L 29 24 L 27 24 L 27 22 z M 31 22 L 33 22 L 33 24 L 31 24 L 31 22 z M 15 26 L 17 26 L 17 28 L 15 28 L 15 26 z M 19 26 L 21 26 L 21 28 L 19 28 L 19 26 z M 23 26 L 25 26 L 25 28 L 23 28 L 23 26 z M 27 26 L 29 26 L 29 28 L 27 28 L 27 26 z M 31 26 L 33 26 L 33 28 L 31 28 L 31 26 z M 15 30 L 17 30 L 17 32 L 15 32 L 15 30 z M 19 30 L 21 30 L 21 32 L 19 32 L 19 30 z M 23 30 L 25 30 L 25 32 L 23 32 L 23 30 z M 27 30 L 29 30 L 29 32 L 27 32 L 27 30 z M 31 30 L 33 30 L 33 32 L 31 32 L 31 30 z "
       id="rect822" />
  </g>
</svg>
