<?xml version="1.0" encoding="UTF-8" standalone="no"?>
<!-- Created with Inkscape (http://www.inkscape.org/) -->

<svg
   xmlns:dc="http://purl.org/dc/elements/1.1/"
   xmlns:cc="http://creativecommons.org/ns#"
   xmlns:rdf="http://www.w3.org/1999/02/22-rdf-syntax-ns#"
   xmlns:svg="http://www.w3.org/2000/svg"
   xmlns="http://www.w3.org/2000/svg"
   xmlns:sodipodi="http://sodipodi.sourceforge.net/DTD/sodipodi-0.dtd"
   xmlns:inkscape="http://www.inkscape.org/namespaces/inkscape"
   width="48px"
   height="48px"
   viewBox="0 0 48 48"
   version="1.1"
   id="SVGRoot"
   inkscape:version="0.92.4 (5da689c313, 2019-01-14)"
   sodipodi:docname="artragea.svg"
   inkscape:export-filename="C:\Users\Admin\Documents\Rainmeter\Skins\Honeycomb-NG\@Resources\Images\openshot.png"
   inkscape:export-xdpi="512"
   inkscape:export-ydpi="512">
  <defs
     id="defs1995" />
  <sodipodi:namedview
     id="base"
     pagecolor="#ffffff"
     bordercolor="#666666"
     borderopacity="1.0"
     inkscape:pageopacity="0.0"
     inkscape:pageshadow="2"
     inkscape:zoom="18.083334"
     inkscape:cx="12.8644"
     inkscape:cy="25.159639"
     inkscape:document-units="px"
     inkscape:current-layer="layer1"
     showgrid="true"
     inkscape:window-width="1920"
     inkscape:window-height="1017"
     inkscape:window-x="-8"
     inkscape:window-y="-8"
     inkscape:window-maximized="1"
     inkscape:grid-bbox="true"
     inkscape:snap-global="false">
    <inkscape:grid
       type="xygrid"
       id="grid2562" />
  </sodipodi:namedview>
  <metadata
     id="metadata1998">
    <rdf:RDF>
      <cc:Work
         rdf:about="">
        <dc:format>image/svg+xml</dc:format>
        <dc:type
           rdf:resource="http://purl.org/dc/dcmitype/StillImage" />
        <dc:title></dc:title>
      </cc:Work>
    </rdf:RDF>
  </metadata>
  <g
     inkscape:label="Layer 1"
     inkscape:groupmode="layer"
     id="layer1">
    <path
       style="fill:#ffffff;fill-opacity:1;stroke-width:0.47182828"
       d="m 20.21837,19.606798 c 0,0 0.12826,0.6872 0.48481,1.501347 0.326822,0.746268 0.703757,1.235486 0.703757,1.235486 0,0 0.68907,-1.381968 1.047816,-2.189466 1.234644,-2.779063 3.25292,-8.52328 3.25292,-8.52328 0,0 0.347484,-0.595436 -0.109472,-0.797591 -0.471376,-0.208535 -0.750675,0.406614 -0.750675,0.406614 0,0 -1.395386,2.563719 -2.064354,3.784649 -0.909731,1.66035 -2.564802,4.582241 -2.564802,4.582241 z"
       id="path831"
       inkscape:connector-curvature="0"
       sodipodi:nodetypes="cscscscsc" />
    <path
       style="fill:#ffffff;fill-opacity:1;stroke-width:0.47182828"
       d="m 20.343482,17.808307 c 0,0 0.300572,-0.02312 0.31278,0.109474 0.01767,0.191924 -0.34982,0.298106 -0.516088,0.473081 -0.259426,0.273012 -0.381725,0.510114 -0.375339,1.000898 0.0152,1.167609 1.557413,3.750963 1.821952,4.046604 0.207808,0.232241 0.540445,0.59818 0.476989,0.688117 -0.05751,0.08151 -0.377552,0.01271 -1.265707,-0.77172 -0.811548,-0.716772 -2.343064,-2.506562 -2.338037,-3.808108 0.0067,-1.713671 1.88345,-1.738346 1.88345,-1.738346 z"
       id="path833"
       inkscape:connector-curvature="0"
       sodipodi:nodetypes="csssssssc" />
    <path
       style="fill:#ffffff;fill-opacity:1;stroke-width:0.47182828"
       d="m 19.123636,22.202879 c 0,0 0.373636,0.431356 0.703757,0.735035 0.425637,0.391546 0.875787,0.703757 0.875787,0.703757 l -1.704657,2.994878 c 0,0 0.08853,1.185196 -0.04692,1.79067 -0.447914,2.002427 -2.616871,3.804324 -3.894121,4.113069 -0.308467,0.07457 -0.109474,-0.17203 -0.109474,-0.17203 0,0 0.401407,-0.590202 0.467275,-0.929181 0.182859,-0.941072 0.145748,-1.932307 0.345955,-2.886746 0.385283,-1.836741 2.001798,-2.611721 2.001798,-2.611721 z"
       id="path835"
       inkscape:connector-curvature="0"
       sodipodi:nodetypes="csccsscsscc" />
    <path
       style="fill:#ffffff;fill-opacity:1;stroke-width:0.47182828"
       d="m 23.062111,21.65227 c 0.506086,-3.222313 2.076814,-8.647706 5.361463,-8.282011 1.367065,0.152202 2.062792,1.456339 1.87078,2.509489 -0.38539,2.113773 -2.875204,1.216431 -2.875204,1.216431 0,0 1.798885,-0.235632 1.791474,-1.105847 -0.0043,-0.516307 -0.414729,-0.957324 -1.112326,-1.045975 -1.48523,-0.188745 -2.897043,3.837951 -3.40601,6.874577 -0.483418,2.884193 -0.351674,6.527319 0.558846,9.575297 0.270331,0.904936 1.04146,2.054946 1.237926,2.243855 0.132205,0.12712 0.402024,0.2977 0.366108,0.410736 -0.04028,0.126786 -0.265276,0.110517 -0.392576,0.07189 -1.556066,-0.472298 -2.647925,-3.015797 -3.053858,-4.895891 -0.500664,-2.318841 -0.697165,-5.340594 -0.346623,-7.57254 z"
       id="path837"
       inkscape:connector-curvature="0"
       sodipodi:nodetypes="ssscsssssssss" />
    <path
       style="fill:#ffffff;fill-opacity:1;stroke-width:0.47182828"
       d="m 26.137748,18.949957 c 0.145686,-0.280212 0.351877,-0.172028 0.351877,-0.172028 0,0 1.064998,0.616609 2.940141,0.578643 2.204301,-0.04463 2.328353,-0.498502 3.221644,-0.836688 0.415379,-0.157256 0.172029,0.281503 0.172029,0.281503 0,0 -1.597099,1.848533 -4.769908,1.876685 -0.687954,0.0061 -2.048715,-0.250226 -2.048715,-0.250226 0,0 -0.274266,-0.01265 -0.256703,-0.288847 0.01633,-0.25676 0.08242,-0.436463 0.147229,-0.641675 0.06011,-0.19028 0.150355,-0.370319 0.242406,-0.547367 z"
       id="path839"
       inkscape:connector-curvature="0"
       sodipodi:nodetypes="scsscscsss" />
    <path
       style="fill:#ffffff;fill-opacity:1;stroke-width:0.47182828"
       d="m 25.363615,22.460923 c 0.126727,-0.390679 0.359697,-0.187669 0.359697,-0.187669 0,0 0.832398,0.553653 3.260742,0.953982 0.411559,0.06785 1.114392,0.004 1.251123,-0.02346 0.294394,-0.05907 0.258045,0.203307 0.258045,0.203307 0,0 -0.172555,1.598151 -0.476992,2.330219 -0.325608,0.782975 -1.004298,1.695211 -1.330104,2.058268 -0.09614,0.107135 -0.13065,0.347643 -0.116505,0.490895 0.04968,0.503116 0.150757,0.918507 0.430073,1.454432 0.113937,0.218609 0.248757,0.428398 0.406616,0.617742 0.376801,0.451956 -0.148571,0.234586 -0.148571,0.234586 0,0 -0.622693,-0.299978 -1.141651,-0.98526 -0.329461,-0.435052 -0.778432,-1.060423 -0.774133,-1.442587 0.0022,-0.191563 0.284908,-0.409506 0.403539,-0.55993 0.450086,-0.570697 0.724151,-0.997953 0.988337,-1.641381 0.195694,-0.476615 0.258302,-0.99783 0.367517,-1.501348 0.07095,-0.327055 -0.187668,-0.203307 -0.187668,-0.203307 0,0 -1.434119,0.358427 -2.166007,0.359698 -0.754931,0.0013 -1.322708,-0.182098 -1.427178,-0.218392 -0.08482,-0.02946 -0.149203,-0.05213 -0.144548,-0.227321 0.0077,-0.28691 -0.01558,-0.41063 0.0391,-0.860149 0.03483,-0.286282 0.05959,-0.578004 0.14857,-0.852326 z"
       id="path841"
       inkscape:connector-curvature="0"
       sodipodi:nodetypes="scsscssssscssssscsssss" />
  </g>
</svg>
