<?xml version="1.0" encoding="UTF-8" standalone="no"?>
<!-- Created with Inkscape (http://www.inkscape.org/) -->

<svg
   xmlns:dc="http://purl.org/dc/elements/1.1/"
   xmlns:cc="http://creativecommons.org/ns#"
   xmlns:rdf="http://www.w3.org/1999/02/22-rdf-syntax-ns#"
   xmlns:svg="http://www.w3.org/2000/svg"
   xmlns="http://www.w3.org/2000/svg"
   xmlns:sodipodi="http://sodipodi.sourceforge.net/DTD/sodipodi-0.dtd"
   xmlns:inkscape="http://www.inkscape.org/namespaces/inkscape"
   width="48px"
   height="48px"
   viewBox="0 0 48 48"
   version="1.1"
   id="SVGRoot"
   inkscape:version="0.92.4 (5da689c313, 2019-01-14)"
   sodipodi:docname="blendera.svg">
  <defs
     id="defs1995" />
  <sodipodi:namedview
     id="base"
     pagecolor="#ffffff"
     bordercolor="#666666"
     borderopacity="1.0"
     inkscape:pageopacity="0.0"
     inkscape:pageshadow="2"
     inkscape:zoom="12.786848"
     inkscape:cx="16.666395"
     inkscape:cy="25.372017"
     inkscape:document-units="px"
     inkscape:current-layer="layer1"
     showgrid="true"
     inkscape:window-width="1920"
     inkscape:window-height="1017"
     inkscape:window-x="-8"
     inkscape:window-y="-8"
     inkscape:window-maximized="1"
     inkscape:grid-bbox="true"
     inkscape:snap-global="true">
    <inkscape:grid
       type="xygrid"
       id="grid2562" />
  </sodipodi:namedview>
  <metadata
     id="metadata1998">
    <rdf:RDF>
      <cc:Work
         rdf:about="">
        <dc:format>image/svg+xml</dc:format>
        <dc:type
           rdf:resource="http://purl.org/dc/dcmitype/StillImage" />
        <dc:title></dc:title>
      </cc:Work>
    </rdf:RDF>
  </metadata>
  <g
     inkscape:label="Layer 1"
     inkscape:groupmode="layer"
     id="layer1">
    <path
       style="opacity:1;vector-effect:none;fill:#ffffff;fill-opacity:1;fill-rule:evenodd;paint-order:normal"
       d="M 24.001953 13.982422 A 2.0002 2.0002 0 0 0 22.714844 17.533203 L 23.271484 18 L 17 18 C 15.892 18 15 18.892 15 20 C 15 21.108 15.892 22 17 22 L 19.929688 22 L 14.699219 26.482422 A 2.0002 2.0002 0 1 0 17.300781 29.517578 L 20.283203 26.960938 C 21.127959 29.877354 23.804095 32 27 32 C 30.878 32 34 28.878 34 25 C 34 22.570603 32.775008 20.437927 30.90625 19.183594 L 25.285156 14.466797 A 2.0002 2.0002 0 0 0 24.001953 13.982422 z M 27 21 C 29.216 21 31 22.784 31 25 C 31 27.216 29.216 29 27 29 C 24.784 29 23 27.216 23 25 C 23 22.784 24.784 21 27 21 z M 27 23 C 25.892 23 25 23.892 25 25 C 25 26.108 25.892 27 27 27 C 28.108 27 29 26.108 29 25 C 29 23.892 28.108 23 27 23 z "
       id="rect824" />
  </g>
</svg>
