<?xml version="1.0" encoding="UTF-8" standalone="no"?>
<!-- Created with Inkscape (http://www.inkscape.org/) -->

<svg
   xmlns:dc="http://purl.org/dc/elements/1.1/"
   xmlns:cc="http://creativecommons.org/ns#"
   xmlns:rdf="http://www.w3.org/1999/02/22-rdf-syntax-ns#"
   xmlns:svg="http://www.w3.org/2000/svg"
   xmlns="http://www.w3.org/2000/svg"
   xmlns:sodipodi="http://sodipodi.sourceforge.net/DTD/sodipodi-0.dtd"
   xmlns:inkscape="http://www.inkscape.org/namespaces/inkscape"
   width="48px"
   height="48px"
   viewBox="0 0 48 48"
   version="1.1"
   id="SVGRoot"
   inkscape:version="0.92.4 (5da689c313, 2019-01-14)"
   sodipodi:docname="bravea.svg"
   inkscape:export-filename="C:\Users\Admin\Documents\Rainmeter\Skins\Honeycomb-NG\@Resources\Images\openshot.png"
   inkscape:export-xdpi="512"
   inkscape:export-ydpi="512">
  <defs
     id="defs1995" />
  <sodipodi:namedview
     id="base"
     pagecolor="#ffffff"
     bordercolor="#666666"
     borderopacity="1.0"
     inkscape:pageopacity="0.0"
     inkscape:pageshadow="2"
     inkscape:zoom="15.575888"
     inkscape:cx="3.7279292"
     inkscape:cy="26.499397"
     inkscape:document-units="px"
     inkscape:current-layer="layer1"
     showgrid="true"
     inkscape:window-width="1920"
     inkscape:window-height="1017"
     inkscape:window-x="-8"
     inkscape:window-y="-8"
     inkscape:window-maximized="1"
     inkscape:grid-bbox="true"
     inkscape:snap-global="false">
    <inkscape:grid
       type="xygrid"
       id="grid2562" />
  </sodipodi:namedview>
  <metadata
     id="metadata1998">
    <rdf:RDF>
      <cc:Work
         rdf:about="">
        <dc:format>image/svg+xml</dc:format>
        <dc:type
           rdf:resource="http://purl.org/dc/dcmitype/StillImage" />
        <dc:title></dc:title>
      </cc:Work>
    </rdf:RDF>
  </metadata>
  <g
     inkscape:label="Layer 1"
     inkscape:groupmode="layer"
     id="layer1">
    <path
       style="fill:#ffffff;stroke-width:0.12938374"
       d="m 24.88342,33.414243 c 0.412577,-0.3557 1.346926,-1.098001 2.076326,-1.649554 0.787739,-0.595668 1.326182,-1.094035 1.326182,-1.227475 0,-0.145105 -0.278635,-0.3653 -0.786979,-0.621913 -1.559381,-0.787173 -3.113649,-1.41783 -3.494269,-1.41783 -0.658991,0 -4.38746,1.763057 -4.38746,2.07467 0,0.06765 0.451225,0.452717 1.002723,0.855698 0.551499,0.402981 1.381172,1.061717 1.843719,1.463858 0.896106,0.779081 1.421765,1.169275 1.575204,1.169275 0.05193,0 0.431973,-0.291027 0.844554,-0.646729 z"
       id="path832"
       inkscape:connector-curvature="0" />
    <path
       style="fill:#ffffff;stroke-width:0.12938374"
       d="m 20.581631,28.828414 c 0.813222,-0.399339 1.463116,-0.844911 2.129486,-1.459991 1.275312,-1.177148 1.26916,-1.195408 -0.896112,-2.659285 -0.953616,-0.644713 -1.680251,-1.223474 -1.680251,-1.338318 0,-0.111299 0.320225,-0.815627 0.71161,-1.565184 0.391386,-0.749559 0.711611,-1.470962 0.711611,-1.603121 0,-0.55924 -0.667361,-0.986018 -2.775363,-1.774848 l -2.063755,-0.772274 0.899301,-0.10224 c 1.552692,-0.176541 2.404553,-0.129994 3.596667,0.196556 0.829229,0.22714 1.169996,0.38178 1.236305,0.561033 0.05034,0.136102 -0.105745,1.322973 -0.346864,2.637483 -0.241124,1.314512 -0.408123,2.468943 -0.371108,2.565403 0.104633,0.272681 1.934698,0.63097 2.73963,0.536366 1.130714,-0.132888 1.671822,-0.358688 1.722699,-0.718853 0.02442,-0.172829 -0.146553,-1.353422 -0.379905,-2.623538 -0.368152,-2.003735 -0.399708,-2.332992 -0.238466,-2.488338 0.102208,-0.09847 0.6225,-0.315046 1.156209,-0.481277 0.803967,-0.250407 1.215308,-0.29776 2.398617,-0.276121 2.317311,0.04237 2.314502,0.122153 -0.03549,1.008257 -2.129098,0.802804 -2.621896,1.119727 -2.621896,1.686164 0,0.186603 0.322376,0.964887 0.716391,1.729521 0.394017,0.764633 0.683936,1.473388 0.644267,1.575012 -0.03966,0.101621 -0.827826,0.697282 -1.751461,1.323683 -1.345202,0.912308 -1.679336,1.198798 -1.679336,1.439896 0,0.521912 1.618044,1.914498 3.012832,2.593021 0.662239,0.322161 1.340948,0.585748 1.508239,0.585748 0.413533,0 1.3794,-0.815673 1.692423,-1.429249 0.342441,-0.671241 0.322073,-1.338598 -0.07033,-2.304299 -0.269399,-0.662997 -0.299736,-0.852245 -0.174683,-1.089722 0.08323,-0.158064 0.887783,-1.073393 1.787891,-2.034069 2.096574,-2.237647 2.206172,-2.385513 2.206172,-2.976468 0,-0.380135 -0.181668,-0.754999 -0.851162,-1.756353 -0.903383,-1.351169 -2.60735,-3.548332 -2.7507,-3.546857 -0.04707,4.8e-4 -0.784251,0.134454 -1.638185,0.297714 -1.662095,0.317765 -1.667516,0.317425 -3.475489,-0.217881 -1.467664,-0.434549 -2.005626,-0.427048 -3.490719,0.04866 -1.431557,0.458568 -1.726741,0.469586 -3.47694,0.129775 -0.731923,-0.14211 -1.372585,-0.258551 -1.423689,-0.258767 -0.146519,-6.2e-4 -1.92762,2.275183 -2.784316,3.557661 -0.805896,1.206429 -1.01626,1.798119 -0.816513,2.296617 0.06414,0.160082 0.965374,1.193509 2.002734,2.296506 1.037359,1.102996 1.921255,2.136264 1.964213,2.296151 0.0469,0.174532 -0.05672,0.627485 -0.259277,1.133469 -0.18556,0.46352 -0.336103,0.973155 -0.334541,1.132518 0.0089,0.905953 1.259438,2.424584 1.996584,2.424584 0.210232,0 0.908931,-0.258635 1.552661,-0.574745 z"
       id="path828"
       inkscape:connector-curvature="0" />
  </g>
</svg>
