<?xml version="1.0" encoding="UTF-8" standalone="no"?>
<!-- Created with Inkscape (http://www.inkscape.org/) -->

<svg
   xmlns:dc="http://purl.org/dc/elements/1.1/"
   xmlns:cc="http://creativecommons.org/ns#"
   xmlns:rdf="http://www.w3.org/1999/02/22-rdf-syntax-ns#"
   xmlns:svg="http://www.w3.org/2000/svg"
   xmlns="http://www.w3.org/2000/svg"
   xmlns:sodipodi="http://sodipodi.sourceforge.net/DTD/sodipodi-0.dtd"
   xmlns:inkscape="http://www.inkscape.org/namespaces/inkscape"
   width="48px"
   height="48px"
   viewBox="0 0 48 48"
   version="1.1"
   id="SVGRoot"
   inkscape:version="0.92.4 (5da689c313, 2019-01-14)"
   sodipodi:docname="calibrea.svg"
   inkscape:export-filename="C:\Users\Admin\Documents\Rainmeter\Skins\Honeycomb-NG\@Resources\Images\openshot.png"
   inkscape:export-xdpi="512"
   inkscape:export-ydpi="512">
  <defs
     id="defs1995" />
  <sodipodi:namedview
     id="base"
     pagecolor="#ffffff"
     bordercolor="#666666"
     borderopacity="1.0"
     inkscape:pageopacity="0.0"
     inkscape:pageshadow="2"
     inkscape:zoom="11.013816"
     inkscape:cx="2.6176606"
     inkscape:cy="30.049597"
     inkscape:document-units="px"
     inkscape:current-layer="layer1"
     showgrid="true"
     inkscape:window-width="1920"
     inkscape:window-height="1017"
     inkscape:window-x="-8"
     inkscape:window-y="-8"
     inkscape:window-maximized="1"
     inkscape:grid-bbox="true"
     inkscape:snap-global="true">
    <inkscape:grid
       type="xygrid"
       id="grid2562" />
  </sodipodi:namedview>
  <metadata
     id="metadata1998">
    <rdf:RDF>
      <cc:Work
         rdf:about="">
        <dc:format>image/svg+xml</dc:format>
        <dc:type
           rdf:resource="http://purl.org/dc/dcmitype/StillImage" />
        <dc:title></dc:title>
      </cc:Work>
    </rdf:RDF>
  </metadata>
  <g
     inkscape:label="Layer 1"
     inkscape:groupmode="layer"
     id="layer1">
    <path
       style="opacity:1;vector-effect:none;fill:#a7796a;fill-opacity:1;fill-rule:evenodd;stroke:none;stroke-width:2;stroke-linecap:round;stroke-linejoin:round;stroke-miterlimit:4;stroke-dasharray:none;stroke-opacity:1;paint-order:stroke fill markers"
       d="M 15 15 C 14.446 15 14 15.446 14 16 L 14 17 L 19 17 L 19 16 C 19 15.446 18.554 15 18 15 L 15 15 z M 14 18 L 14 28 L 19 28 L 19 18 L 14 18 z M 14 29 L 14 30 C 14 30.554 14.446 31 15 31 L 18 31 C 18.554 31 19 30.554 19 30 L 19 29 L 14 29 z "
       id="rect828" />
    <rect
       style="opacity:1;vector-effect:none;fill:#99a6ac;fill-opacity:1;fill-rule:evenodd;stroke:none;stroke-width:2;stroke-linecap:round;stroke-linejoin:round;stroke-miterlimit:4;stroke-dasharray:none;stroke-opacity:1;paint-order:stroke fill markers"
       id="rect830"
       width="4"
       height="13"
       x="19.999998"
       y="18"
       ry="1" />
    <rect
       style="opacity:1;vector-effect:none;fill:#e0c89c;fill-opacity:1;fill-rule:evenodd;stroke:none;stroke-width:1.69715464;stroke-linecap:round;stroke-linejoin:round;stroke-miterlimit:4;stroke-dasharray:none;stroke-opacity:1;paint-order:stroke fill markers"
       id="rect832"
       width="2.8804183"
       height="16.9995"
       x="21.036097"
       y="18.194637"
       ry="0.99997067"
       transform="matrix(0.98569411,-0.16854415,0.17190701,0.98511318,0,0)" />
    <path
       style="opacity:1;vector-effect:none;fill:#90c0ec;fill-opacity:1;fill-rule:evenodd;stroke:none;stroke-width:2;stroke-linecap:round;stroke-linejoin:round;stroke-miterlimit:4;stroke-dasharray:none;stroke-opacity:1;paint-order:stroke fill markers"
       d="M 32.042969 18.472656 C 32.029054 18.470502 32.014052 18.476175 32 18.474609 L 32 24 L 31 23 L 30 24 L 30 18.902344 L 28.736328 19.21875 C 28.198923 19.353329 27.873233 19.894235 28.007812 20.431641 L 30.4375 30.132812 C 30.572079 30.670218 31.112985 30.993954 31.650391 30.859375 L 34.560547 30.130859 C 35.097952 29.99628 35.421688 29.455374 35.287109 28.917969 L 32.859375 19.216797 C 32.758441 18.813743 32.428147 18.53228 32.042969 18.472656 z "
       id="rect834" />
  </g>
</svg>
