<?xml version="1.0" encoding="UTF-8" standalone="no"?>
<!-- Created with Inkscape (http://www.inkscape.org/) -->

<svg
   xmlns:dc="http://purl.org/dc/elements/1.1/"
   xmlns:cc="http://creativecommons.org/ns#"
   xmlns:rdf="http://www.w3.org/1999/02/22-rdf-syntax-ns#"
   xmlns:svg="http://www.w3.org/2000/svg"
   xmlns="http://www.w3.org/2000/svg"
   xmlns:sodipodi="http://sodipodi.sourceforge.net/DTD/sodipodi-0.dtd"
   xmlns:inkscape="http://www.inkscape.org/namespaces/inkscape"
   width="48px"
   height="48px"
   viewBox="0 0 48 48"
   version="1.1"
   id="SVGRoot"
   inkscape:version="0.92.4 (5da689c313, 2019-01-14)"
   sodipodi:docname="cursevoicea.svg"
   inkscape:export-filename="C:\Users\Admin\Documents\Rainmeter\Skins\Honeycomb-NG\@Resources\Images\openshot.png"
   inkscape:export-xdpi="512"
   inkscape:export-ydpi="512">
  <defs
     id="defs1995" />
  <sodipodi:namedview
     id="base"
     pagecolor="#ffffff"
     bordercolor="#666666"
     borderopacity="1.0"
     inkscape:pageopacity="0.0"
     inkscape:pageshadow="2"
     inkscape:zoom="11.013816"
     inkscape:cx="2.6176606"
     inkscape:cy="31.287224"
     inkscape:document-units="px"
     inkscape:current-layer="layer1"
     showgrid="true"
     inkscape:window-width="1920"
     inkscape:window-height="1017"
     inkscape:window-x="-8"
     inkscape:window-y="-8"
     inkscape:window-maximized="1"
     inkscape:grid-bbox="true"
     inkscape:snap-global="false">
    <inkscape:grid
       type="xygrid"
       id="grid2562" />
  </sodipodi:namedview>
  <metadata
     id="metadata1998">
    <rdf:RDF>
      <cc:Work
         rdf:about="">
        <dc:format>image/svg+xml</dc:format>
        <dc:type
           rdf:resource="http://purl.org/dc/dcmitype/StillImage" />
        <dc:title></dc:title>
      </cc:Work>
    </rdf:RDF>
  </metadata>
  <g
     inkscape:label="Layer 1"
     inkscape:groupmode="layer"
     id="layer1">
    <path
       style="opacity:1;vector-effect:none;fill:#ffffff;fill-opacity:1;fill-rule:evenodd;stroke:none;stroke-width:0.1878031;stroke-linecap:round;stroke-linejoin:round;stroke-miterlimit:4;stroke-dasharray:none;stroke-opacity:1;paint-order:stroke fill markers"
       d="m 21.9089,13.063336 c -0.781949,0.0083 -2.432411,0.622364 -3.337907,1.26107 -0.433274,0.305619 -1.103886,1.443289 -1.463726,2.483071 -0.222956,0.644254 -0.27847,1.088443 -0.282621,2.259508 -0.0071,2.049215 0.282479,2.976381 1.347084,4.311217 0.766955,0.961636 1.092344,1.782102 1.154511,2.910032 0.07442,1.350476 -0.2478,2.267222 -1.140024,3.243455 -0.779528,0.852928 -0.715054,0.948593 0.857587,1.271157 1.812583,0.371778 3.572403,1.328782 4.874444,2.6507 0.58689,0.595849 0.654955,0.629434 1.271889,0.629434 0.358477,0 0.73774,-0.03287 0.84273,-0.07317 0.14741,-0.05656 0.163981,-0.144086 0.07282,-0.38386 -0.06493,-0.170774 -0.118114,-0.612411 -0.118114,-0.981382 0,-0.513046 0.06749,-0.754005 0.287022,-1.024663 0.429215,-0.529153 0.660247,-0.929813 0.823842,-1.429066 0.28923,-0.882667 0.497297,-0.990735 1.90719,-0.990735 1.672893,0 1.739564,-0.04245 1.739564,-1.106828 0,-0.701113 0.05277,-0.919034 0.304446,-1.260151 0.167353,-0.22683 0.272434,-0.495175 0.233645,-0.596238 -0.03878,-0.10106 0.0027,-0.320196 0.09188,-0.487115 0.126365,-0.236132 0.13012,-0.374619 0.01674,-0.623564 -0.214826,-0.471485 -0.192632,-0.525774 0.355064,-0.871524 0.585063,-0.369333 0.630501,-0.649564 0.174409,-1.073816 -0.179479,-0.166948 -0.494754,-0.547076 -0.700778,-0.844747 -0.389962,-0.563436 -0.390609,-0.570886 -0.155707,-1.911228 0.05712,-0.326 -0.01388,-0.704145 -0.258597,-1.377343 -0.454369,-1.249913 -0.504953,-1.582171 -0.279869,-1.840433 0.418629,-0.480344 0.487123,-0.755579 0.285188,-1.146077 -0.179406,-0.346919 -1.859173,-1.643802 -2.652903,-2.048229 -0.678274,-0.345598 -3.559142,-1.034414 -3.853631,-0.921409 -0.11192,0.04295 -0.189667,0.454633 -0.244108,1.293714 -0.0439,0.676859 -0.112685,1.715681 -0.152765,2.308476 -0.06817,1.007869 -0.05632,1.081998 0.180291,1.143873 0.164963,0.04315 0.308142,0.25005 0.411369,0.594589 0.113451,0.378695 0.2851,0.608566 0.605774,0.811 0.737375,0.465485 0.791968,0.59632 0.916826,2.193298 0.115506,1.477386 0.114503,1.488204 -0.221736,2.106002 -0.259246,0.47632 -0.308788,0.67561 -0.212387,0.85575 0.23391,0.437056 0.584311,0.650815 1.400821,0.8541 0.447597,0.111442 1.011067,0.255226 1.252083,0.319487 0.241013,0.06426 0.666853,0.118114 0.946352,0.119763 0.648515,0.0039 0.992332,0.240639 0.877023,0.603942 -0.100441,0.316493 -0.374544,0.303406 -2.662805,-0.125814 -1.663747,-0.312076 -2.246695,-0.603896 -2.643916,-1.323976 l -0.291426,-0.52838 h -0.854099 c -0.816851,0 -0.870518,-0.01889 -1.233008,-0.431727 -0.376529,-0.428843 -0.906616,-1.909934 -1.08482,-3.03126 -0.08255,-0.51948 0.173166,-1.29463 0.427144,-1.29463 0.138416,0 0.384591,-0.69331 0.384591,-1.082985 0,-0.161878 0.112805,-0.40698 0.250526,-0.544703 0.268901,-0.2689 0.361501,-1.252083 0.117923,-1.252083 -0.08879,0 -0.119765,-0.588484 -0.09391,-1.784129 l 0.03848,-1.78413 -0.36607,-0.04163 c -0.04394,-0.005 -0.09221,-0.0071 -0.144348,-0.0067 z"
       id="rect834"
       inkscape:connector-curvature="0" />
  </g>
</svg>
