<?xml version="1.0" encoding="UTF-8" standalone="no"?>
<!-- Created with Inkscape (http://www.inkscape.org/) -->

<svg
   xmlns:dc="http://purl.org/dc/elements/1.1/"
   xmlns:cc="http://creativecommons.org/ns#"
   xmlns:rdf="http://www.w3.org/1999/02/22-rdf-syntax-ns#"
   xmlns:svg="http://www.w3.org/2000/svg"
   xmlns="http://www.w3.org/2000/svg"
   xmlns:sodipodi="http://sodipodi.sourceforge.net/DTD/sodipodi-0.dtd"
   xmlns:inkscape="http://www.inkscape.org/namespaces/inkscape"
   width="48px"
   height="48px"
   viewBox="0 0 48 48"
   version="1.1"
   id="SVGRoot"
   inkscape:version="0.92.4 (5da689c313, 2019-01-14)"
   sodipodi:docname="delugea.svg"
   inkscape:export-filename="C:\Users\Admin\Documents\Rainmeter\Skins\Honeycomb-NG\@Resources\Images\openshot.png"
   inkscape:export-xdpi="512"
   inkscape:export-ydpi="512">
  <defs
     id="defs1995" />
  <sodipodi:namedview
     id="base"
     pagecolor="#ffffff"
     bordercolor="#666666"
     borderopacity="1.0"
     inkscape:pageopacity="0.0"
     inkscape:pageshadow="2"
     inkscape:zoom="15.328451"
     inkscape:cx="20.096376"
     inkscape:cy="22.437023"
     inkscape:document-units="px"
     inkscape:current-layer="layer1"
     showgrid="true"
     inkscape:window-width="1920"
     inkscape:window-height="1017"
     inkscape:window-x="-8"
     inkscape:window-y="-8"
     inkscape:window-maximized="1"
     inkscape:grid-bbox="true"
     inkscape:snap-global="false">
    <inkscape:grid
       type="xygrid"
       id="grid2562" />
  </sodipodi:namedview>
  <metadata
     id="metadata1998">
    <rdf:RDF>
      <cc:Work
         rdf:about="">
        <dc:format>image/svg+xml</dc:format>
        <dc:type
           rdf:resource="http://purl.org/dc/dcmitype/StillImage" />
        <dc:title></dc:title>
      </cc:Work>
    </rdf:RDF>
  </metadata>
  <g
     inkscape:label="Layer 1"
     inkscape:groupmode="layer"
     id="layer1">
    <path
       style="opacity:1;vector-effect:none;fill:#ffffff;fill-opacity:1;fill-rule:evenodd;stroke:none;stroke-width:2;stroke-linecap:round;stroke-linejoin:round;stroke-miterlimit:4;stroke-dasharray:none;stroke-opacity:1;paint-order:stroke fill markers"
       d="M 24 12 L 18.001953 20.708984 C 16.936184 22.256449 16 23.964683 16 26 C 16 30.432 19.568 34 24 34 C 28.432 34 32 30.432 32 26 C 32 23.964683 31.063816 22.256449 29.998047 20.708984 L 24 12 z M 24 15 C 24 15 27.603003 19.495879 29 22 C 30.02576 23.838679 30 25 30 25 C 30 25 28.462563 29 25 29 C 23.585786 29 22 27.414214 22 26 C 22 22.147776 26 23 26 23 C 26 23 24.492188 20.998047 22.492188 20.998047 C 20.000523 20.998047 19 22 19 22 L 24 15 z M 22.041016 21.966797 C 23.076048 21.916024 23.972656 22.347656 23.972656 22.347656 C 23.972656 22.347656 22.997381 22.440188 22.085938 22.992188 C 21.369519 23.426071 20.790985 24.524886 21.013672 26.40625 C 21.271413 28.583763 22.179952 29.267861 23.736328 29.832031 C 25.292704 30.3962 27.466797 29.666016 27.466797 29.666016 C 27.466797 29.666016 26.754266 30.78165 24.705078 30.962891 C 22.655891 31.144133 19.598596 30.775381 19.095703 26.476562 C 18.727447 23.328647 20.381129 22.258235 21.591797 22.021484 C 21.74313 21.991891 21.893154 21.97405 22.041016 21.966797 z "
       id="rect830" />
  </g>
</svg>
