<?xml version="1.0" encoding="UTF-8" standalone="no"?>
<!-- Created with Inkscape (http://www.inkscape.org/) -->

<svg
   xmlns:dc="http://purl.org/dc/elements/1.1/"
   xmlns:cc="http://creativecommons.org/ns#"
   xmlns:rdf="http://www.w3.org/1999/02/22-rdf-syntax-ns#"
   xmlns:svg="http://www.w3.org/2000/svg"
   xmlns="http://www.w3.org/2000/svg"
   xmlns:xlink="http://www.w3.org/1999/xlink"
   xmlns:sodipodi="http://sodipodi.sourceforge.net/DTD/sodipodi-0.dtd"
   xmlns:inkscape="http://www.inkscape.org/namespaces/inkscape"
   width="48px"
   height="48px"
   viewBox="0 0 48 48"
   version="1.1"
   id="SVGRoot"
   inkscape:version="0.92.4 (5da689c313, 2019-01-14)"
   sodipodi:docname="envea.svg">
  <defs
     id="defs1995">
    <linearGradient
       gradientUnits="userSpaceOnUse"
       y2="50"
       x2="90"
       y1="20"
       x1="60"
       xlink:href="#WhiteTransparent-4"
       id="IcecapTip-6"
       gradientTransform="matrix(0.9965784,0,0,0.9962666,-89.841948,-62.996045)" />
    <linearGradient
       gradientUnits="userSpaceOnUse"
       id="WhiteTransparent-4">
      <stop
         id="stop7606-4"
         offset="0"
         style="stop-color:white;stop-opacity:1" />
      <stop
         id="stop7608-7"
         offset="1"
         style="stop-color:white;stop-opacity:0" />
    </linearGradient>
  </defs>
  <sodipodi:namedview
     id="base"
     pagecolor="#ffffff"
     bordercolor="#666666"
     borderopacity="1.0"
     inkscape:pageopacity="0.0"
     inkscape:pageshadow="2"
     inkscape:zoom="12.786848"
     inkscape:cx="-3.8779535"
     inkscape:cy="24.993453"
     inkscape:document-units="px"
     inkscape:current-layer="layer1"
     showgrid="true"
     inkscape:window-width="1920"
     inkscape:window-height="1017"
     inkscape:window-x="-8"
     inkscape:window-y="-8"
     inkscape:window-maximized="1"
     inkscape:grid-bbox="true"
     showguides="true"
     inkscape:guide-bbox="true"
     inkscape:snap-global="true">
    <inkscape:grid
       type="xygrid"
       id="grid2562" />
  </sodipodi:namedview>
  <metadata
     id="metadata1998">
    <rdf:RDF>
      <cc:Work
         rdf:about="">
        <dc:format>image/svg+xml</dc:format>
        <dc:type
           rdf:resource="http://purl.org/dc/dcmitype/StillImage" />
        <dc:title></dc:title>
      </cc:Work>
    </rdf:RDF>
  </metadata>
  <g
     inkscape:label="Layer 1"
     inkscape:groupmode="layer"
     id="layer1">
    <path
       style="fill:#ffffff"
       d="M 26.423828 12.380859 C 24.260746 12.371178 22.022081 12.835828 20.34375 13.646484 C 16.639137 15.435861 13.72726 19.985838 13.78125 24.099609 C 13.857404 29.902229 17.116527 33.539879 23.765625 33.896484 C 27.524361 34.098073 31.532678 31.910333 33.5625 30.052734 C 34.157551 29.508171 34.599097 28.483265 33.9375 27.662109 C 33.283014 26.849778 32.427463 27.106807 31.712891 27.333984 C 29.820173 27.935716 27.164331 29.884439 24.609375 29.912109 C 19.641029 29.965906 18.328125 26.818359 18.328125 26.818359 C 18.328125 26.818359 22.46844 27.139971 27.375 25.412109 C 33.757281 23.164567 35.160842 18.37383 33.046875 15.052734 C 31.861583 13.19061 29.204934 12.393307 26.423828 12.380859 z M 24.5 15.003906 C 26.993 15.003906 29 17.010906 29 19.503906 C 29 21.996906 26.993 24.003906 24.5 24.003906 C 22.007 24.003906 20 21.996906 20 19.503906 C 20 17.010906 22.007 15.003906 24.5 15.003906 z "
       id="path838" />
  </g>
</svg>
