<?xml version="1.0" encoding="UTF-8" standalone="no"?>
<!-- Created with Inkscape (http://www.inkscape.org/) -->

<svg
   xmlns:dc="http://purl.org/dc/elements/1.1/"
   xmlns:cc="http://creativecommons.org/ns#"
   xmlns:rdf="http://www.w3.org/1999/02/22-rdf-syntax-ns#"
   xmlns:svg="http://www.w3.org/2000/svg"
   xmlns="http://www.w3.org/2000/svg"
   xmlns:sodipodi="http://sodipodi.sourceforge.net/DTD/sodipodi-0.dtd"
   xmlns:inkscape="http://www.inkscape.org/namespaces/inkscape"
   width="48px"
   height="48px"
   viewBox="0 0 48 48"
   version="1.1"
   id="SVGRoot"
   inkscape:version="0.92.4 (5da689c313, 2019-01-14)"
   sodipodi:docname="evernotea.svg"
   inkscape:export-filename="C:\Users\Admin\Documents\Rainmeter\Skins\Honeycomb-NG\@Resources\Images\openshot.png"
   inkscape:export-xdpi="512"
   inkscape:export-ydpi="512">
  <defs
     id="defs1995" />
  <sodipodi:namedview
     id="base"
     pagecolor="#ffffff"
     bordercolor="#666666"
     borderopacity="1.0"
     inkscape:pageopacity="0.0"
     inkscape:pageshadow="2"
     inkscape:zoom="22.027631"
     inkscape:cx="19.999173"
     inkscape:cy="24.234004"
     inkscape:document-units="px"
     inkscape:current-layer="layer1"
     showgrid="true"
     inkscape:window-width="1920"
     inkscape:window-height="1017"
     inkscape:window-x="-8"
     inkscape:window-y="-8"
     inkscape:window-maximized="1"
     inkscape:grid-bbox="true"
     inkscape:snap-global="false">
    <inkscape:grid
       type="xygrid"
       id="grid2562" />
  </sodipodi:namedview>
  <metadata
     id="metadata1998">
    <rdf:RDF>
      <cc:Work
         rdf:about="">
        <dc:format>image/svg+xml</dc:format>
        <dc:type
           rdf:resource="http://purl.org/dc/dcmitype/StillImage" />
        <dc:title></dc:title>
      </cc:Work>
    </rdf:RDF>
  </metadata>
  <g
     inkscape:label="Layer 1"
     inkscape:groupmode="layer"
     id="layer1">
    <path
       style="fill:#ffffff;stroke-width:0.01017298"
       d="m 27.279561,34.184828 c -0.564811,-0.03669 -1.120929,-0.19347 -1.571724,-0.443079 -0.21883,-0.121168 -0.489342,-0.307792 -0.642886,-0.443522 -0.504065,-0.445584 -0.782038,-0.955893 -0.879339,-1.614309 -0.02084,-0.141036 -0.01813,-0.509461 0.005,-0.671416 0.07904,-0.554787 0.331683,-1.071095 0.723656,-1.478917 0.25998,-0.27049 0.638092,-0.516215 0.996417,-0.647541 0.132023,-0.04838 0.377509,-0.110122 0.524572,-0.13192 0.18119,-0.02686 0.434513,-0.03201 0.538419,-0.01096 0.297117,0.0602 0.518761,0.266907 0.603048,0.562397 0.03227,0.113121 0.03208,0.300378 -4.38e-4,0.414396 -0.06774,0.237639 -0.248606,0.434714 -0.481348,0.524469 -0.04309,0.01661 -0.169978,0.04855 -0.281973,0.07096 -0.208638,0.04175 -0.333793,0.08042 -0.417028,0.128865 -0.07499,0.04364 -0.223882,0.201439 -0.274333,0.290746 -0.0715,0.126566 -0.0958,0.2085 -0.101302,0.341662 -0.01549,0.374699 0.156295,0.674229 0.532154,0.927855 0.284447,0.191943 0.633769,0.289963 0.993264,0.278711 0.806111,-0.02523 1.514596,-0.482463 1.870332,-1.207046 0.25499,-0.519375 0.290375,-1.111032 0.101658,-1.699807 -0.229415,-0.715752 -0.79109,-1.339144 -1.508304,-1.674041 -0.246082,-0.114905 -0.612405,-0.205026 -1.141811,-0.280903 -0.244396,-0.03503 -0.457862,-0.08508 -0.691763,-0.162192 -1.088397,-0.358834 -1.783954,-1.021221 -1.952738,-1.859618 -0.0138,-0.06857 -0.02822,-0.155697 -0.03202,-0.19361 -0.0038,-0.03791 -0.0088,-0.06707 -0.01107,-0.06479 -0.0023,0.0023 -0.02469,0.08366 -0.0498,0.180834 -0.06101,0.236057 -0.132298,0.472668 -0.222842,0.739582 -0.363929,1.072826 -0.816865,1.822049 -1.299744,2.149965 -0.157358,0.10686 -0.461659,0.194101 -0.790908,0.226748 -0.104463,0.01036 -0.675778,0.01412 -0.824011,0.0055 -1.474763,-0.08652 -2.792521,-0.591793 -3.795075,-1.455217 -0.156161,-0.13449 -0.442085,-0.412119 -0.532726,-0.517271 -0.463862,-0.538127 -0.860543,-0.779771 -1.099083,-1.729519 -0.08174,-0.325443 -0.323982,-1.462358 -0.396115,-1.859084 -0.151431,-0.832855 -0.199686,-1.268874 -0.168343,-1.521127 0.05344,-0.430106 0.245365,-0.798354 0.532055,-1.020852 0.14987,-0.116316 0.269038,-0.177741 0.459841,-0.237029 l 0.09099,-0.02828 0.452697,-0.0028 c 0.248984,-0.0015 1.12564,-0.0041 1.948125,-0.0058 1.649433,-0.0033 1.597663,-0.0014 1.863175,-0.06829 1.048428,0 1.64956,-0.815495 1.64956,-1.444578 0,-0.243841 0.0012,-0.107106 0.0075,-2.333093 0.0053,-1.855228 0.0073,-2.050426 0.02257,-2.105806 0.09469,-0.345203 0.275924,-0.600822 0.562625,-0.793575 0.213287,-0.143394 0.436422,-0.223965 0.716713,-0.25879 0.229959,-0.02857 0.357116,-0.0054 0.584761,0.03599 0.124732,0.02264 0.473216,0.111115 0.560914,0.142411 0.343842,0.122706 0.63798,0.359247 0.852747,0.685767 0.108444,0.164873 0.223418,0.415616 0.256715,0.559863 0.0087,0.03775 0.01727,0.05235 0.03286,0.05609 0.0378,0.009 3.104895,0.540759 3.427991,0.59426 0.599179,0.09922 0.942719,0.182487 1.323525,0.320808 0.990354,0.359728 1.638061,0.994685 1.931013,1.893 0.06242,0.19141 0.09001,0.304875 0.138294,0.568874 0.288021,1.574628 0.485122,3.410862 0.549805,5.122094 0.0059,0.153866 0.01283,0.323247 0.01558,0.3764 0.0086,0.165723 0.02046,0.983051 0.02046,1.408957 0,0.427469 -0.01308,1.346439 -0.01977,1.389099 -0.0022,0.01372 -0.0068,0.132524 -0.01042,0.26401 -0.0036,0.131486 -0.0083,0.257377 -0.01054,0.279757 -0.0022,0.02238 -0.0067,0.109359 -0.01001,0.193286 -0.0033,0.08393 -0.0081,0.182351 -0.01068,0.21872 -0.0026,0.03636 -0.0095,0.146236 -0.01536,0.244152 -0.03745,0.624945 -0.114548,1.432908 -0.153392,1.607329 -0.0056,0.02518 -0.02573,0.139624 -0.04472,0.254325 -0.131818,0.796206 -0.3366,1.466248 -0.631069,2.06484 -0.126391,0.256926 -0.20871,0.402586 -0.346413,0.612959 -0.192459,0.294024 -0.362787,0.507138 -0.598995,0.749461 -0.80209,0.822848 -1.823339,1.312698 -3.046908,1.461473 -0.129936,0.0158 -0.675056,0.02776 -0.824011,0.01808 z m 2.992311,-10.962759 c 0.06435,-0.0084 0.07469,-0.01316 0.108458,-0.04936 0.04688,-0.05027 0.05612,-0.109211 0.04012,-0.256279 -0.03512,-0.322888 -0.230072,-0.591496 -0.548414,-0.755636 -0.223044,-0.115003 -0.420748,-0.161867 -0.683506,-0.162017 -0.456427,-2.71e-4 -0.82509,0.179368 -1.016303,0.495188 -0.04492,0.0742 -0.09753,0.207522 -0.112997,0.286327 -0.0107,0.05457 -0.01002,0.06694 0.0055,0.09953 0.05017,0.105723 0.36785,0.195936 0.915319,0.259924 0.26412,0.03087 0.661363,0.07023 0.784707,0.07774 0.06078,0.0037 0.112015,0.008 0.113847,0.0095 0.0086,0.0073 0.330516,0.0033 0.39334,-0.005 z m -14.56369,-4.111881 c 0.02776,-0.02919 0.16057,-0.355852 0.295123,-0.49312 0.565453,-0.576865 1.066648,-1.088224 1.505521,-1.536053 0.137081,-0.139878 0.360405,-0.367717 0.496277,-0.506308 0.783807,-0.799498 0.970528,-0.989987 1.52265,-1.553373 0.629223,-0.642062 0.774999,-0.790308 1.011091,-1.028223 0.138805,-0.139878 0.630736,-0.245169 0.627577,-0.233978 -0.0032,0.01118 -0.02833,0.08615 -0.05592,0.166576 -0.09593,0.279617 -0.09453,0.2474 -0.09922,2.280025 -0.0027,1.137596 -0.0077,1.959723 -0.01492,2.025966 -0.02163,0.200156 -0.08299,0.378394 -0.169591,0.49255 -0.091,0.119962 -0.250399,0.20521 -0.470756,0.251765 -0.09923,0.02096 -0.651873,0.02334 -2.481376,0.02914 -0.811294,0.0026 -1.502548,0.0072 -1.536119,0.01035 -0.03357,0.0032 -0.112524,0.01051 -0.175453,0.01641 -0.128534,0.01204 -0.252299,0.04234 -0.389761,0.09543 -0.05114,0.01975 -0.09808,0.03591 -0.104299,0.03591 -0.0063,0 0.0114,-0.02388 0.03917,-0.05307 z"
       id="path828"
       inkscape:connector-curvature="0"
       sodipodi:nodetypes="cssccccccccccccccccccccccccsccccccscccccccsccccccccccsccccsccccccccscccccccccccccsccccccccccccccccccccscc" />
  </g>
</svg>
