<?xml version="1.0" encoding="UTF-8" standalone="no"?>
<!-- Created with Inkscape (http://www.inkscape.org/) -->

<svg
   xmlns:dc="http://purl.org/dc/elements/1.1/"
   xmlns:cc="http://creativecommons.org/ns#"
   xmlns:rdf="http://www.w3.org/1999/02/22-rdf-syntax-ns#"
   xmlns:svg="http://www.w3.org/2000/svg"
   xmlns="http://www.w3.org/2000/svg"
   xmlns:sodipodi="http://sodipodi.sourceforge.net/DTD/sodipodi-0.dtd"
   xmlns:inkscape="http://www.inkscape.org/namespaces/inkscape"
   width="48px"
   height="48px"
   viewBox="0 0 48 48"
   version="1.1"
   id="SVGRoot"
   inkscape:version="0.92.4 (5da689c313, 2019-01-14)"
   sodipodi:docname="famistudioa.svg"
   inkscape:export-filename="C:\Users\Admin\Documents\Rainmeter\Skins\Honeycomb-NG\@Resources\Images\openshot.png"
   inkscape:export-xdpi="512"
   inkscape:export-ydpi="512">
  <defs
     id="defs1995" />
  <sodipodi:namedview
     id="base"
     pagecolor="#ffffff"
     bordercolor="#666666"
     borderopacity="1.0"
     inkscape:pageopacity="0.0"
     inkscape:pageshadow="2"
     inkscape:zoom="12.786848"
     inkscape:cx="-4.1442869"
     inkscape:cy="25.090802"
     inkscape:document-units="px"
     inkscape:current-layer="layer1"
     showgrid="true"
     inkscape:window-width="1920"
     inkscape:window-height="1017"
     inkscape:window-x="-8"
     inkscape:window-y="-8"
     inkscape:window-maximized="1"
     inkscape:grid-bbox="true"
     inkscape:snap-global="true">
    <inkscape:grid
       type="xygrid"
       id="grid2562" />
  </sodipodi:namedview>
  <metadata
     id="metadata1998">
    <rdf:RDF>
      <cc:Work
         rdf:about="">
        <dc:format>image/svg+xml</dc:format>
        <dc:type
           rdf:resource="http://purl.org/dc/dcmitype/StillImage" />
        <dc:title></dc:title>
      </cc:Work>
    </rdf:RDF>
  </metadata>
  <g
     inkscape:label="Layer 1"
     inkscape:groupmode="layer"
     id="layer1">
    <path
       style="opacity:1;vector-effect:none;fill:#d08770;fill-opacity:1;fill-rule:evenodd;paint-order:stroke fill markers"
       d="M 20 11 L 20 19 L 28 19 L 28 11 L 20 11 z M 22 13 L 26 13 L 26 17 L 22 17 L 22 13 z "
       id="rect829" />
    <path
       style="opacity:1;vector-effect:none;fill:#88c0d0;fill-opacity:1;fill-rule:evenodd;paint-order:stroke fill markers"
       d="M 28 19 L 28 27 L 36 27 L 36 19 L 28 19 z M 30 21 L 31 21 L 31 22 L 32 22 L 32 21 L 33 21 L 33 22 L 34 22 L 34 23 L 33 23 L 33 24 L 34 24 L 34 25 L 33 25 L 33 24 L 32 24 L 32 25 L 31 25 L 31 24 L 30 24 L 30 23 L 31 23 L 31 22 L 30 22 L 30 21 z M 31 23 L 31 24 L 32 24 L 32 23 L 31 23 z M 32 23 L 33 23 L 33 22 L 32 22 L 32 23 z "
       id="rect833" />
    <path
       style="opacity:1;vector-effect:none;fill:#a3be8c;fill-opacity:1;fill-rule:evenodd;paint-order:stroke fill markers"
       d="M 20 27 L 20 35 L 28 35 L 28 27 L 20 27 z M 23 29 L 24 29 L 24 30 L 25 30 L 25 30.5 L 26 30.5 L 26 31.5 L 25 31.5 L 25 32 L 24 32 L 24 33 L 23 33 L 23 32 L 22 32 L 22 30 L 23 30 L 23 29 z "
       id="rect851" />
    <rect
       style="opacity:1;vector-effect:none;fill:#d8dee9;fill-opacity:1;fill-rule:evenodd;paint-order:stroke fill markers"
       id="rect853"
       width="6"
       height="6"
       x="21"
       y="20" />
    <path
       style="opacity:1;vector-effect:none;fill:#d96c9a;fill-opacity:1;fill-rule:evenodd;paint-order:stroke fill markers"
       d="M 12 19 L 12 27 L 20 27 L 20 19 L 12 19 z M 16 21 L 18 25 L 14 25 L 16 21 z "
       id="rect855" />
  </g>
</svg>
