<?xml version="1.0" encoding="UTF-8" standalone="no"?>
<!-- Created with Inkscape (http://www.inkscape.org/) -->

<svg
   xmlns:dc="http://purl.org/dc/elements/1.1/"
   xmlns:cc="http://creativecommons.org/ns#"
   xmlns:rdf="http://www.w3.org/1999/02/22-rdf-syntax-ns#"
   xmlns:svg="http://www.w3.org/2000/svg"
   xmlns="http://www.w3.org/2000/svg"
   xmlns:sodipodi="http://sodipodi.sourceforge.net/DTD/sodipodi-0.dtd"
   xmlns:inkscape="http://www.inkscape.org/namespaces/inkscape"
   width="48px"
   height="48px"
   viewBox="0 0 48 48"
   version="1.1"
   id="SVGRoot"
   inkscape:version="0.92.4 (5da689c313, 2019-01-14)"
   sodipodi:docname="ff.svg">
  <defs
     id="defs1995" />
  <sodipodi:namedview
     id="base"
     pagecolor="#ffffff"
     bordercolor="#666666"
     borderopacity="1.0"
     inkscape:pageopacity="0.0"
     inkscape:pageshadow="2"
     inkscape:zoom="21.677703"
     inkscape:cx="22.237466"
     inkscape:cy="25.18519"
     inkscape:document-units="px"
     inkscape:current-layer="layer1"
     showgrid="true"
     inkscape:window-width="1920"
     inkscape:window-height="1017"
     inkscape:window-x="-8"
     inkscape:window-y="-8"
     inkscape:window-maximized="1"
     inkscape:grid-bbox="true"
     inkscape:snap-global="true">
    <inkscape:grid
       type="xygrid"
       id="grid2562" />
  </sodipodi:namedview>
  <metadata
     id="metadata1998">
    <rdf:RDF>
      <cc:Work
         rdf:about="">
        <dc:format>image/svg+xml</dc:format>
        <dc:type
           rdf:resource="http://purl.org/dc/dcmitype/StillImage" />
        <dc:title></dc:title>
      </cc:Work>
    </rdf:RDF>
  </metadata>
  <g
     inkscape:label="Layer 1"
     inkscape:groupmode="layer"
     id="layer1">
    <path
       style="fill:#ffffff;fill-opacity:1;stroke-width:0.66666669"
       d="M 27.333984 12.367188 C 27.333984 12.367188 23.333984 14.366537 23.333984 17.033203 C 23.333984 17.344966 23.372011 17.6861 23.425781 18.039062 A 5 5 0 0 1 24 18 A 5 5 0 0 1 29 23 A 5 5 0 0 1 27.6875 26.367188 L 32 26.367188 L 32 18.367188 L 28.666016 15.033203 C 27.332682 13.69987 27.333984 12.367188 27.333984 12.367188 z "
       id="path2832" />
    <path
       inkscape:connector-curvature="0"
       style="fill:#ffffff;fill-opacity:1;stroke-width:0.66666669"
       d="m 16.3,18.366334 c 0.666667,-1.333334 2.666667,-2 2.666667,-2 V 19.033 H 16.3 Z"
       id="path2830"
       sodipodi:nodetypes="ccccc" />
    <path
       inkscape:connector-curvature="0"
       style="fill:#ffffff;stroke-width:0.66666669"
       d="M 22.666667,22.366334 C 23.333333,22.366334 24,21.699667 24,21.033 c 0,0 -2,-0.666666 -2.666667,-1.333333 -0.444444,-0.444445 -1.333333,-1.333333 -2,-1.333333 H 18 v -2.666667 c 0,0 -4,2 -4,7.333333 0,4.666667 2.666667,10 10,10 8,0 10,-6.666666 10,-9.333333 0,-4.666667 -2.666667,-7.333333 -2.666667,-7.333333 0,0 2,8 -1.333333,9.333333 1.333333,-5.333333 -4,-6 -4,-6 0,0 2,1.333333 2,4 0,1.885618 -1.385178,3.966854 -4,4 -2.666453,0.0338 -4.666667,-1.722039 -4.666667,-3.633667 0,-1.333334 1.333334,-1.699666 2,-1.699666 z"
       id="path2828"
       sodipodi:nodetypes="zsscccssscccssssz" />
  </g>
</svg>
