<?xml version="1.0" encoding="UTF-8" standalone="no"?>
<!-- Created with Inkscape (http://www.inkscape.org/) -->

<svg
   xmlns:dc="http://purl.org/dc/elements/1.1/"
   xmlns:cc="http://creativecommons.org/ns#"
   xmlns:rdf="http://www.w3.org/1999/02/22-rdf-syntax-ns#"
   xmlns:svg="http://www.w3.org/2000/svg"
   xmlns="http://www.w3.org/2000/svg"
   xmlns:sodipodi="http://sodipodi.sourceforge.net/DTD/sodipodi-0.dtd"
   xmlns:inkscape="http://www.inkscape.org/namespaces/inkscape"
   width="48px"
   height="48px"
   viewBox="0 0 48 48"
   version="1.1"
   id="SVGRoot"
   inkscape:version="0.92.4 (5da689c313, 2019-01-14)"
   sodipodi:docname="foobar2000a.svg"
   inkscape:export-filename="C:\Users\Admin\Documents\Rainmeter\Skins\Honeycomb-NG\@Resources\Images\openshot.png"
   inkscape:export-xdpi="512"
   inkscape:export-ydpi="512">
  <defs
     id="defs1995" />
  <sodipodi:namedview
     id="base"
     pagecolor="#ffffff"
     bordercolor="#666666"
     borderopacity="1.0"
     inkscape:pageopacity="0.0"
     inkscape:pageshadow="2"
     inkscape:zoom="15.575888"
     inkscape:cx="31.174491"
     inkscape:cy="28.725667"
     inkscape:document-units="px"
     inkscape:current-layer="layer1"
     showgrid="true"
     inkscape:window-width="1920"
     inkscape:window-height="1017"
     inkscape:window-x="-8"
     inkscape:window-y="-8"
     inkscape:window-maximized="1"
     inkscape:grid-bbox="true"
     inkscape:snap-global="true">
    <inkscape:grid
       type="xygrid"
       id="grid2562" />
  </sodipodi:namedview>
  <metadata
     id="metadata1998">
    <rdf:RDF>
      <cc:Work
         rdf:about="">
        <dc:format>image/svg+xml</dc:format>
        <dc:type
           rdf:resource="http://purl.org/dc/dcmitype/StillImage" />
        <dc:title></dc:title>
      </cc:Work>
    </rdf:RDF>
  </metadata>
  <g
     inkscape:label="Layer 1"
     inkscape:groupmode="layer"
     id="layer1">
    <path
       style="fill:#ffffff;stroke:none;stroke-width:1px;stroke-linecap:butt;stroke-linejoin:miter;stroke-opacity:1"
       d="M 20 13 C 20 13 16 18 16 24 C 16 29 24 35 24 35 C 24 35 32 29 32 24 C 32 18 28 13 28 13 L 25 17 L 24 17 L 23 17 L 20 13 z M 18.34375 21.041016 C 19.321329 20.960858 20.630221 21.68135 21.673828 22.976562 C 23.065305 24.703512 23.442812 26.779201 22.521484 27.630859 C 21.600157 28.482517 19.739133 27.777731 18.347656 26.050781 C 16.95618 24.323832 16.576719 22.248142 17.498047 21.396484 C 17.728379 21.18357 18.01789 21.067735 18.34375 21.041016 z M 29.681641 21.041016 C 30.0075 21.067735 30.295059 21.18357 30.525391 21.396484 C 31.446718 22.248142 31.069211 24.323832 29.677734 26.050781 C 28.286258 27.777731 26.423281 28.482517 25.501953 27.630859 C 24.580625 26.779201 24.960086 24.703512 26.351562 22.976562 C 27.395171 21.68135 28.704061 20.960858 29.681641 21.041016 z M 24.115234 28.951172 A 0.50005 0.50005 0 0 1 24.541016 29.169922 L 25.927734 31.210938 A 0.50005 0.50005 0 1 1 25.099609 31.771484 L 24.097656 30.294922 L 22.865234 31.841797 A 0.50039847 0.50039847 0 1 1 22.082031 31.21875 L 23.736328 29.140625 A 0.50005 0.50005 0 0 1 24.115234 28.951172 z "
       id="path828" />
  </g>
</svg>
