<?xml version="1.0" encoding="UTF-8" standalone="no"?>
<!-- Created with Inkscape (http://www.inkscape.org/) -->

<svg
   xmlns:dc="http://purl.org/dc/elements/1.1/"
   xmlns:cc="http://creativecommons.org/ns#"
   xmlns:rdf="http://www.w3.org/1999/02/22-rdf-syntax-ns#"
   xmlns:svg="http://www.w3.org/2000/svg"
   xmlns="http://www.w3.org/2000/svg"
   xmlns:sodipodi="http://sodipodi.sourceforge.net/DTD/sodipodi-0.dtd"
   xmlns:inkscape="http://www.inkscape.org/namespaces/inkscape"
   width="48px"
   height="48px"
   viewBox="0 0 48 48"
   version="1.1"
   id="SVGRoot"
   inkscape:version="0.92.4 (5da689c313, 2019-01-14)"
   sodipodi:docname="furnace-trackera.svg"
   inkscape:export-filename="C:\Users\Admin\Documents\Rainmeter\Skins\Honeycomb-NG\@Resources\Images\openshot.png"
   inkscape:export-xdpi="512"
   inkscape:export-ydpi="512">
  <defs
     id="defs1995" />
  <sodipodi:namedview
     id="base"
     pagecolor="#ffffff"
     bordercolor="#666666"
     borderopacity="1.0"
     inkscape:pageopacity="0.0"
     inkscape:pageshadow="2"
     inkscape:zoom="36.166668"
     inkscape:cx="11.511963"
     inkscape:cy="25.090802"
     inkscape:document-units="px"
     inkscape:current-layer="layer1"
     showgrid="true"
     inkscape:window-width="1920"
     inkscape:window-height="1017"
     inkscape:window-x="-8"
     inkscape:window-y="-8"
     inkscape:window-maximized="1"
     inkscape:grid-bbox="true"
     inkscape:snap-global="true">
    <inkscape:grid
       type="xygrid"
       id="grid2562" />
  </sodipodi:namedview>
  <metadata
     id="metadata1998">
    <rdf:RDF>
      <cc:Work
         rdf:about="">
        <dc:format>image/svg+xml</dc:format>
        <dc:type
           rdf:resource="http://purl.org/dc/dcmitype/StillImage" />
        <dc:title></dc:title>
      </cc:Work>
    </rdf:RDF>
  </metadata>
  <g
     inkscape:label="Layer 1"
     inkscape:groupmode="layer"
     id="layer1">
    <path
       style="fill:#ffffff;stroke-width:0.09504555"
       d="M 24.015625 12.96875 C 23.643182 12.960579 23.257534 13.056902 22.890625 13.287109 C 22.621897 13.455717 12.20653 19.576134 12.048828 19.683594 C 11.010414 20.391174 10.959001 21.330235 12.046875 22.367188 C 12.203537 22.516531 21.8958 31.916454 22.25 32.244141 L 22.25 32.246094 C 23.282757 33.201545 24.815025 33.20446 25.759766 32.240234 C 26.050432 31.943586 36.090007 22.28897 36.310547 22.064453 C 37.035453 21.326468 36.848126 20.221807 36.019531 19.728516 C 32.207835 17.459283 25.437631 13.501006 25.064453 13.279297 C 24.746969 13.090671 24.388068 12.976921 24.015625 12.96875 z M 26.474609 14.837891 L 30.429688 17.210938 L 30.244141 18.220703 L 30.496094 18.380859 L 30.53125 18.583984 L 30.449219 19.076172 L 30.253906 19.310547 L 30.220703 19.683594 L 30.103516 19.761719 L 29.958984 19.666016 L 30.003906 19.386719 L 29.876953 19.304688 L 29.953125 18.798828 L 29.710938 18.664062 L 29.615234 18.744141 L 29.84375 18.902344 L 29.882812 19.060547 L 29.804688 19.578125 L 29.597656 19.84375 L 29.552734 20.195312 L 29.445312 20.265625 L 29.320312 20.179688 L 29.351562 19.908203 L 29.21875 19.826172 L 29.302734 19.326172 L 29.052734 19.164062 L 28.9375 19.257812 L 29.1875 19.410156 L 29.21875 19.615234 L 29.166016 20.083984 L 28.953125 20.345703 L 28.910156 20.714844 L 28.785156 20.806641 L 28.683594 20.703125 L 28.695312 20.443359 L 28.564453 20.367188 L 28.623047 19.841797 L 28.361328 19.681641 L 28.257812 19.785156 L 28.490234 19.939453 L 28.535156 20.107422 L 28.480469 20.625 L 28.279297 20.884766 L 28.257812 21.25 L 28.117188 21.357422 L 28.003906 21.240234 L 28.023438 20.974609 L 27.880859 20.886719 L 27.923828 20.386719 L 27.671875 20.224609 L 27.542969 20.320312 L 27.792969 20.486328 L 27.835938 20.685547 L 27.798828 21.171875 L 27.580078 21.433594 L 27.550781 21.794922 L 27.423828 21.890625 L 27.330078 21.78125 L 27.337891 21.541016 L 27.1875 21.445312 L 27.216797 20.933594 L 26.951172 20.765625 L 26.833984 20.882812 L 27.070312 21.056641 L 27.119141 21.232422 L 27.085938 21.730469 L 26.871094 21.994141 L 26.849609 22.341797 L 26.724609 22.447266 L 26.621094 22.330078 L 26.626953 22.109375 L 26.589844 22.095703 L 26.457031 22.009766 L 26.482422 21.503906 L 26.242188 21.34375 L 26.103516 21.453125 L 26.332031 21.636719 L 26.388672 21.798828 L 26.363281 22.320312 L 26.146484 22.587891 L 26.134766 22.947266 L 26.005859 23.041016 L 25.884766 22.914062 L 25.888672 22.693359 L 25.849609 22.693359 L 25.710938 22.591797 L 25.75 22.107422 L 25.498047 21.923828 L 25.359375 22.03125 L 25.597656 22.201172 L 25.662109 22.396484 L 25.642578 22.882812 L 25.410156 23.208984 L 25.421875 23.511719 L 25.277344 23.632812 L 25.132812 23.519531 L 25.132812 23.291016 L 25.09375 23.291016 L 24.955078 23.208984 L 24.949219 22.679688 L 24.728516 22.517578 L 24.578125 22.636719 L 24.810547 22.832031 L 24.873047 23.013672 L 24.861328 23.5 L 24.640625 23.783203 L 24.640625 24.148438 L 24.501953 24.255859 L 24.376953 24.148438 L 24.376953 23.916016 L 24.294922 23.916016 L 24.162109 23.814453 L 24.173828 23.335938 L 23.910156 23.134766 L 23.732422 23.253906 L 23.998047 23.460938 L 24.080078 23.650391 L 24.074219 24.136719 L 23.853516 24.425781 L 23.859375 24.779297 L 23.740234 24.886719 L 23.587891 24.779297 L 23.582031 24.552734 L 23.494141 24.552734 L 23.367188 24.462891 L 23.355469 23.958984 L 23.103516 23.771484 L 22.939453 23.916016 L 23.160156 24.091797 L 23.242188 24.28125 L 23.242188 24.796875 L 23.041016 25.087891 L 23.033203 25.427734 L 22.919922 25.503906 L 22.769531 25.396484 L 22.769531 25.212891 L 22.662109 25.212891 L 22.529297 25.105469 L 22.517578 24.634766 L 22.251953 24.425781 L 22.082031 24.558594 L 22.308594 24.765625 L 22.398438 24.943359 L 22.404297 25.447266 L 22.195312 25.724609 L 22.208984 26.082031 L 22.087891 26.171875 L 21.9375 26.070312 L 21.931641 25.875 L 21.830078 25.90625 L 21.679688 25.78125 L 21.654297 25.314453 L 21.402344 25.09375 L 20.939453 25.453125 L 17.119141 22.15625 L 16.886719 21.125 L 26.474609 14.837891 z "
       id="path833" />
    <path
       style="fill:#ffffff;stroke:none;stroke-width:0.09504555px;stroke-linecap:butt;stroke-linejoin:miter;stroke-opacity:1"
       d="m 22.594282,18.95952 0.269401,0.04149 -0.458226,1.152529 1.639532,-0.307413 0.05792,0.209397 -1.960313,0.369787 -0.09802,-0.06683 z"
       id="path841"
       inkscape:connector-curvature="0"
       sodipodi:nodetypes="cccccccc" />
    <path
       style="fill:#ffffff;stroke-width:0.09504555"
       d="m 23.884599,18.055117 0.06241,0.213852 1.559341,-0.271771 -0.383146,1.082629 0.258399,0.03119 0.449985,-1.278659 -0.07577,-0.06683 z"
       id="path843"
       inkscape:connector-curvature="0"
       sodipodi:nodetypes="cccccccc" />
    <path
       style="fill:#ffffff;stroke-width:0.09504555"
       d="m 24.245479,18.567472 0.231669,-0.09356 c 0,0 0.293395,0.28801 0.04232,0.514583 -0.210883,0.190316 -0.659948,0.139863 -0.817538,0.240584 -0.146013,0.09332 0.01784,0.298502 0.01784,0.298502 l -0.231677,0.102471 c 0,0 -0.299627,-0.321493 -0.03784,-0.54577 0.232349,-0.199079 0.720353,-0.137797 0.870998,-0.280681 0.0516,-0.04894 -0.07577,-0.236128 -0.07577,-0.236128 z"
       id="path845"
       inkscape:connector-curvature="0"
       sodipodi:nodetypes="ccssccssc" />
  </g>
</svg>
