<?xml version="1.0" encoding="UTF-8" standalone="no"?>
<!-- Created with Inkscape (http://www.inkscape.org/) -->

<svg
   xmlns:dc="http://purl.org/dc/elements/1.1/"
   xmlns:cc="http://creativecommons.org/ns#"
   xmlns:rdf="http://www.w3.org/1999/02/22-rdf-syntax-ns#"
   xmlns:svg="http://www.w3.org/2000/svg"
   xmlns="http://www.w3.org/2000/svg"
   xmlns:sodipodi="http://sodipodi.sourceforge.net/DTD/sodipodi-0.dtd"
   xmlns:inkscape="http://www.inkscape.org/namespaces/inkscape"
   width="48px"
   height="48px"
   viewBox="0 0 48 48"
   version="1.1"
   id="SVGRoot"
   inkscape:version="0.92.4 (5da689c313, 2019-01-14)"
   sodipodi:docname="houdinia.svg"
   inkscape:export-filename="C:\Users\Admin\Documents\Rainmeter\Skins\Honeycomb-NG\@Resources\Images\openshot.png"
   inkscape:export-xdpi="512"
   inkscape:export-ydpi="512">
  <defs
     id="defs1995" />
  <sodipodi:namedview
     id="base"
     pagecolor="#ffffff"
     bordercolor="#666666"
     borderopacity="1.0"
     inkscape:pageopacity="0.0"
     inkscape:pageshadow="2"
     inkscape:zoom="18.083334"
     inkscape:cx="16.243315"
     inkscape:cy="19.339671"
     inkscape:document-units="px"
     inkscape:current-layer="layer1"
     showgrid="true"
     inkscape:window-width="1920"
     inkscape:window-height="1017"
     inkscape:window-x="-8"
     inkscape:window-y="-8"
     inkscape:window-maximized="1"
     inkscape:grid-bbox="true"
     inkscape:snap-global="true">
    <inkscape:grid
       type="xygrid"
       id="grid2562" />
  </sodipodi:namedview>
  <metadata
     id="metadata1998">
    <rdf:RDF>
      <cc:Work
         rdf:about="">
        <dc:format>image/svg+xml</dc:format>
        <dc:type
           rdf:resource="http://purl.org/dc/dcmitype/StillImage" />
        <dc:title></dc:title>
      </cc:Work>
    </rdf:RDF>
  </metadata>
  <g
     inkscape:label="Layer 1"
     inkscape:groupmode="layer"
     id="layer1">
    <path
       style="fill:#ffffff;stroke-width:0.04000001"
       d="M 16 13 C 15 13 14 14 14 15 L 14 15.919922 C 14 17.525922 14.009291 18.839844 14.019531 18.839844 C 14.029773 18.839844 14.186884 18.743637 14.369141 18.625 C 15.759289 17.720111 17.397718 17.094917 19.007812 16.857422 C 19.605907 16.769212 20.767183 16.740195 21.382812 16.796875 C 21.667247 16.823065 22.16242 16.896937 22.482422 16.960938 C 25.975143 17.659375 28.917455 19.987755 30.011719 22.919922 C 30.509747 24.254428 30.60827 25.712736 30.294922 27.119141 C 29.781394 29.424026 28.310969 31.431614 26.15625 32.769531 L 25.785156 33 L 29.892578 33 L 32 33 C 33 33 34 32 34 31 L 34 23 L 34 15 C 34 14 33 13 32 13 L 24 13 L 16 13 z M 20.013672 18.748047 C 17.935175 18.870511 15.836082 19.747525 14.382812 21.179688 L 14 21.554688 L 14 22.986328 L 14 24.416016 L 14.173828 24.152344 C 15.151318 22.664087 16.850204 21.287931 18.28125 20.826172 C 18.934967 20.615237 19.199241 20.580331 20.119141 20.582031 C 20.896385 20.583456 21.028427 20.592653 21.482422 20.689453 C 23.009847 21.015121 24.119042 21.648253 24.841797 22.607422 C 25.748475 23.810674 25.919802 25.302685 25.337891 26.919922 C 25.065228 27.6777 24.669404 28.301322 24.121094 28.839844 C 23.574066 29.377106 23.022278 29.680092 22.320312 29.826172 C 21.908521 29.911872 20.974744 29.922103 20.619141 29.845703 C 19.737002 29.656186 19.029093 29.25584 18.634766 28.722656 C 18.332413 28.313826 18.262078 28.100527 18.267578 27.599609 C 18.275766 26.853081 18.501178 26.245594 18.923828 25.832031 C 19.224188 25.538125 19.422241 25.46843 19.632812 25.582031 C 19.794368 25.669189 19.881898 25.852107 19.955078 26.259766 C 20.016574 26.60233 20.223903 26.98789 20.429688 27.144531 C 20.925472 27.521912 21.667063 27.338814 22.294922 26.681641 C 22.706126 26.251239 22.933615 25.793669 22.953125 25.363281 C 22.995479 24.428877 22.336533 23.509055 21.425781 23.232422 C 21.1825 23.158522 21.086157 23.151385 20.625 23.171875 C 19.823106 23.207509 19.124187 23.384432 18.371094 23.740234 C 16.913627 24.42882 16.080078 25.650613 16.080078 27.101562 C 16.080078 27.493492 16.122532 27.727005 16.285156 28.226562 C 16.684668 29.453805 17.57727 30.508168 18.714844 31.095703 C 19.306204 31.401127 20.25534 31.678671 21.039062 31.775391 C 21.402116 31.820201 22.630042 31.763254 23.017578 31.683594 C 24.101249 31.460842 25.025679 30.997908 25.736328 30.322266 C 26.852835 29.260759 27.514598 27.367425 27.423828 25.498047 C 27.349601 23.969282 26.916556 22.671247 26.095703 21.513672 C 25.779033 21.067102 24.987803 20.282541 24.519531 19.951172 C 23.799372 19.441558 22.912587 19.05717 22.060547 18.884766 C 21.397084 18.750519 20.706504 18.707226 20.013672 18.748047 z M 14 29.742188 L 14 31 C 14 31.993471 14.98704 32.985117 15.980469 32.998047 L 17.580078 32.994141 L 17.300781 32.863281 C 16.133465 32.318781 14.918165 31.21896 14.185547 30.041016 L 14 29.742188 z "
       id="path840" />
  </g>
</svg>
