<?xml version="1.0" encoding="UTF-8" standalone="no"?>
<!-- Created with Inkscape (http://www.inkscape.org/) -->

<svg
   xmlns:dc="http://purl.org/dc/elements/1.1/"
   xmlns:cc="http://creativecommons.org/ns#"
   xmlns:rdf="http://www.w3.org/1999/02/22-rdf-syntax-ns#"
   xmlns:svg="http://www.w3.org/2000/svg"
   xmlns="http://www.w3.org/2000/svg"
   xmlns:xlink="http://www.w3.org/1999/xlink"
   xmlns:sodipodi="http://sodipodi.sourceforge.net/DTD/sodipodi-0.dtd"
   xmlns:inkscape="http://www.inkscape.org/namespaces/inkscape"
   width="48px"
   height="48px"
   viewBox="0 0 48 48"
   version="1.1"
   id="SVGRoot"
   inkscape:version="0.92.4 (5da689c313, 2019-01-14)"
   sodipodi:docname="inkscapea.svg"
   inkscape:export-filename="C:\Users\Admin\Documents\Rainmeter\Skins\Honeycomb-NG\@Resources\Images\openshot.png"
   inkscape:export-xdpi="512"
   inkscape:export-ydpi="512">
  <defs
     id="defs1995">
    <linearGradient
       gradientUnits="userSpaceOnUse"
       y2="50"
       x2="90"
       y1="20"
       x1="60"
       xlink:href="#WhiteTransparent-4"
       id="IcecapTip-6"
       gradientTransform="matrix(0.9965784,0,0,0.9962666,-89.841948,-62.996045)" />
    <linearGradient
       gradientUnits="userSpaceOnUse"
       id="WhiteTransparent-4">
      <stop
         id="stop7606-4"
         offset="0"
         style="stop-color:white;stop-opacity:1" />
      <stop
         id="stop7608-7"
         offset="1"
         style="stop-color:white;stop-opacity:0" />
    </linearGradient>
  </defs>
  <sodipodi:namedview
     id="base"
     pagecolor="#ffffff"
     bordercolor="#666666"
     borderopacity="1.0"
     inkscape:pageopacity="0.0"
     inkscape:pageshadow="2"
     inkscape:zoom="18.083334"
     inkscape:cx="18.717836"
     inkscape:cy="23.367732"
     inkscape:document-units="px"
     inkscape:current-layer="layer1"
     showgrid="true"
     inkscape:window-width="1920"
     inkscape:window-height="1017"
     inkscape:window-x="-8"
     inkscape:window-y="-8"
     inkscape:window-maximized="1"
     inkscape:grid-bbox="true"
     inkscape:snap-global="false">
    <inkscape:grid
       type="xygrid"
       id="grid2562" />
  </sodipodi:namedview>
  <metadata
     id="metadata1998">
    <rdf:RDF>
      <cc:Work
         rdf:about="">
        <dc:format>image/svg+xml</dc:format>
        <dc:type
           rdf:resource="http://purl.org/dc/dcmitype/StillImage" />
        <dc:title></dc:title>
      </cc:Work>
    </rdf:RDF>
  </metadata>
  <g
     inkscape:label="Layer 1"
     inkscape:groupmode="layer"
     id="layer1">
    <path
       style="fill:#ffffff;fill-opacity:1;stroke-width:0.17993502"
       d="m 23.89325,13 c -0.615921,0 -1.223157,0.226751 -1.660549,0.680135 l -7.355262,7.653211 c -2.785031,2.829115 1.803194,2.59343 3.463502,3.663416 0.767669,0.50779 -2.463855,1.160699 -1.803302,1.831708 0.642699,0.671008 3.874302,1.287273 4.517002,1.940145 0.6427,0.671008 -1.303281,1.378286 -0.660581,2.049295 0.624847,0.671008 2.124366,0.03636 2.392157,1.559724 0.19638,1.124392 2.749533,0.562265 3.892109,-0.398907 0.714111,-0.616603 -1.231904,-0.616736 -0.589204,-1.287742 1.606749,-1.650318 3.034957,-0.743511 3.624099,-2.266881 0.321349,-0.816091 -2.428202,-1.396445 -1.696239,-1.922369 1.749572,-1.251339 8.176831,-1.885938 5.213272,-4.896405 L 25.606982,13.680135 C 25.133884,13.226751 24.509171,13 23.89325,13 Z m 0.06228,0.727776 c 0.441856,0.0022 0.883651,0.169889 1.205,0.496325 l 2.909985,3.010657 c 0.267792,0.27203 0.26809,0.834053 0.107415,0.997271 l -1.446071,-1.196725 -0.285855,1.759179 -1.195903,-0.653115 -1.946056,1.251477 -0.642736,-2.629524 -1.035307,2.285012 -2.588792,-0.01813 c -0.499877,0 -0.428509,-0.526098 0.08922,-1.052024 1.017608,-1.142527 2.999252,-3.083068 3.624098,-3.754076 0.32135,-0.335504 0.763145,-0.498592 1.205001,-0.496325 z m 8.129905,13.780474 c -0.618153,0.02267 -1.247608,0.335523 -1.408284,0.915854 0,0.380842 2.910063,0.598482 2.749389,-0.09066 -0.116044,-0.580332 -0.722954,-0.847863 -1.341105,-0.825193 z m -12.787211,1.647897 c -0.840753,0.05056 -1.740538,0.670051 -1.028658,1.280987 0.660551,0.580331 1.660392,-0.126784 1.981743,-0.942875 -0.200845,-0.266362 -0.570924,-0.361091 -0.953085,-0.338112 z m 11.022046,0.06613 c -0.821227,0.761685 0.142712,1.559459 0.946086,1.033534 0.214232,-0.145081 -0.01775,-0.852181 -0.946086,-1.033534 z"
       id="use7631"
       inkscape:connector-curvature="0" />
  </g>
</svg>
