<?xml version="1.0" encoding="UTF-8" standalone="no"?>
<!-- Created with Inkscape (http://www.inkscape.org/) -->

<svg
   xmlns:dc="http://purl.org/dc/elements/1.1/"
   xmlns:cc="http://creativecommons.org/ns#"
   xmlns:rdf="http://www.w3.org/1999/02/22-rdf-syntax-ns#"
   xmlns:svg="http://www.w3.org/2000/svg"
   xmlns="http://www.w3.org/2000/svg"
   xmlns:xlink="http://www.w3.org/1999/xlink"
   xmlns:sodipodi="http://sodipodi.sourceforge.net/DTD/sodipodi-0.dtd"
   xmlns:inkscape="http://www.inkscape.org/namespaces/inkscape"
   width="48px"
   height="48px"
   viewBox="0 0 48 48"
   version="1.1"
   id="SVGRoot"
   inkscape:version="0.92.4 (5da689c313, 2019-01-14)"
   sodipodi:docname="inochi2da.svg">
  <defs
     id="defs1995">
    <linearGradient
       inkscape:collect="always"
       id="linearGradient894">
      <stop
         style="stop-color:#ef8976;stop-opacity:1;"
         offset="0"
         id="stop890" />
      <stop
         style="stop-color:#a15ce9;stop-opacity:1"
         offset="1"
         id="stop892" />
    </linearGradient>
    <linearGradient
       gradientUnits="userSpaceOnUse"
       y2="50"
       x2="90"
       y1="20"
       x1="60"
       xlink:href="#WhiteTransparent-4"
       id="IcecapTip-6"
       gradientTransform="matrix(0.9965784,0,0,0.9962666,-89.841948,-62.996045)" />
    <linearGradient
       gradientUnits="userSpaceOnUse"
       id="WhiteTransparent-4">
      <stop
         id="stop7606-4"
         offset="0"
         style="stop-color:white;stop-opacity:1" />
      <stop
         id="stop7608-7"
         offset="1"
         style="stop-color:white;stop-opacity:0" />
    </linearGradient>
    <linearGradient
       inkscape:collect="always"
       xlink:href="#linearGradient894"
       id="linearGradient896"
       x1="14.15278"
       y1="17.64755"
       x2="35.399559"
       y2="17.64755"
       gradientUnits="userSpaceOnUse" />
  </defs>
  <sodipodi:namedview
     id="base"
     pagecolor="#ffffff"
     bordercolor="#666666"
     borderopacity="1.0"
     inkscape:pageopacity="0.0"
     inkscape:pageshadow="2"
     inkscape:zoom="12.786848"
     inkscape:cx="42.574539"
     inkscape:cy="29.868217"
     inkscape:document-units="px"
     inkscape:current-layer="layer1"
     showgrid="true"
     inkscape:window-width="1920"
     inkscape:window-height="1017"
     inkscape:window-x="-8"
     inkscape:window-y="-8"
     inkscape:window-maximized="1"
     inkscape:grid-bbox="true"
     showguides="true"
     inkscape:guide-bbox="true"
     inkscape:snap-global="false">
    <inkscape:grid
       type="xygrid"
       id="grid2562" />
  </sodipodi:namedview>
  <metadata
     id="metadata1998">
    <rdf:RDF>
      <cc:Work
         rdf:about="">
        <dc:format>image/svg+xml</dc:format>
        <dc:type
           rdf:resource="http://purl.org/dc/dcmitype/StillImage" />
        <dc:title></dc:title>
      </cc:Work>
    </rdf:RDF>
  </metadata>
  <g
     inkscape:label="Layer 1"
     inkscape:groupmode="layer"
     id="layer1">
    <path
       style="fill:url(#linearGradient896);stroke-width:0.41570237;fill-opacity:1"
       d="M 22.253906 14.197266 L 17.679688 18.617188 L 16.578125 18.617188 L 14.152344 21.042969 L 18.451172 21.070312 L 23.025391 16.650391 L 29.308594 16.650391 L 32.009766 21.097656 L 32.974609 21.097656 L 35.400391 18.617188 L 33.277344 18.617188 L 30.632812 14.197266 L 22.253906 14.197266 z M 22.695312 18.556641 L 20.242188 21.015625 L 26.884766 21.009766 L 29.337891 18.556641 L 22.695312 18.556641 z M 16.523438 22.105469 L 14.125 24.558594 L 15.53125 24.558594 L 14.978516 27.09375 L 12.691406 29.435547 L 14.427734 29.435547 L 13.822266 31.861328 L 16.384766 31.861328 L 16.990234 29.380859 L 19.966797 29.353516 L 19.773438 30.400391 L 22.226562 30.400391 L 24.183594 22.105469 L 16.523438 22.105469 z M 26.994141 22.132812 L 24.513672 24.53125 L 25.919922 24.53125 L 24.183594 31.888672 L 26.664062 31.888672 L 28.482422 24.558594 L 31.513672 24.558594 L 30.632812 28.251953 L 29.75 28.251953 L 27.380859 30.732422 L 30.714844 30.732422 L 33.056641 28.802734 L 34.599609 22.132812 L 26.994141 22.132812 z M 18.148438 24.558594 L 21.070312 24.558594 L 20.492188 27.039062 L 17.486328 26.984375 L 18.148438 24.558594 z "
       id="path839" />
  </g>
</svg>
