<?xml version="1.0" encoding="UTF-8" standalone="no"?>
<!-- Created with Inkscape (http://www.inkscape.org/) -->

<svg
   xmlns:dc="http://purl.org/dc/elements/1.1/"
   xmlns:cc="http://creativecommons.org/ns#"
   xmlns:rdf="http://www.w3.org/1999/02/22-rdf-syntax-ns#"
   xmlns:svg="http://www.w3.org/2000/svg"
   xmlns="http://www.w3.org/2000/svg"
   xmlns:sodipodi="http://sodipodi.sourceforge.net/DTD/sodipodi-0.dtd"
   xmlns:inkscape="http://www.inkscape.org/namespaces/inkscape"
   width="48px"
   height="48px"
   viewBox="0 0 48 48"
   version="1.1"
   id="SVGRoot"
   inkscape:version="0.92.4 (5da689c313, 2019-01-14)"
   sodipodi:docname="ldtka.svg">
  <defs
     id="defs1995" />
  <sodipodi:namedview
     id="base"
     pagecolor="#ffffff"
     bordercolor="#666666"
     borderopacity="1.0"
     inkscape:pageopacity="0.0"
     inkscape:pageshadow="2"
     inkscape:zoom="25.270751"
     inkscape:cx="26.06777"
     inkscape:cy="18.047349"
     inkscape:document-units="px"
     inkscape:current-layer="layer1"
     showgrid="true"
     inkscape:window-width="1920"
     inkscape:window-height="1017"
     inkscape:window-x="-8"
     inkscape:window-y="-8"
     inkscape:window-maximized="1"
     inkscape:grid-bbox="true"
     inkscape:snap-global="false">
    <inkscape:grid
       type="xygrid"
       id="grid2562" />
  </sodipodi:namedview>
  <metadata
     id="metadata1998">
    <rdf:RDF>
      <cc:Work
         rdf:about="">
        <dc:format>image/svg+xml</dc:format>
        <dc:type
           rdf:resource="http://purl.org/dc/dcmitype/StillImage" />
        <dc:title></dc:title>
      </cc:Work>
    </rdf:RDF>
  </metadata>
  <g
     inkscape:label="Layer 1"
     inkscape:groupmode="layer"
     id="layer1">
    <path
       style="fill:#ffffff;fill-opacity:1;stroke:none;stroke-width:0.57889444px;stroke-linecap:butt;stroke-linejoin:miter;stroke-opacity:1"
       d="m 11.907757,18.872194 v 9.009879 h 5.922442 V 26.192721 H 14.04372 v -7.320527 z"
       id="path829"
       inkscape:connector-curvature="0" />
    <path
       style="fill:#ffffff;fill-opacity:1;stroke:none;stroke-width:0.57889444px;stroke-linecap:butt;stroke-linejoin:miter;stroke-opacity:1"
       d="m 31.286763,18.386749 v 9.495324 h 0.368939 v -2.757334 l 0.970892,-0.854385 3.048602,3.611719 h 0.44661 l -3.262198,-3.825315 3.068018,-2.835005 h -0.485445 l -3.805897,3.514629 v -6.330216 z"
       id="path831"
       inkscape:connector-curvature="0" />
    <path
       style="fill:#ffffff;fill-opacity:1;stroke:none;stroke-width:0.57889444px;stroke-linecap:butt;stroke-linejoin:miter;stroke-opacity:1"
       d="m 18.743136,18.872679 v 9.009044 l 3.02902,0.03957 c 0,0 4.057914,0.316139 4.057914,-4.446859 0,-4.762997 -4.213945,-4.601757 -4.213945,-4.601757 z m 2.155026,1.669974 h 0.835551 c 0,0 1.882539,-0.09879 1.882539,2.892211 0,2.991005 -1.979774,2.797235 -1.979774,2.797235 h -0.738316 z"
       id="path833"
       inkscape:connector-curvature="0" />
    <path
       style="fill:#ffffff;fill-opacity:1;stroke:none;stroke-width:0.57889444px;stroke-linecap:butt;stroke-linejoin:miter;stroke-opacity:1"
       d="m 26.461429,21.212045 v 0.310685 h 1.26216 v 5.174855 c 0,0 0.0012,1.078098 0.951474,1.300994 0.359537,0.08433 1.106818,-0.04854 1.106818,-0.04854 l -0.07767,-0.310686 c 0,0 -0.660415,0.110972 -0.970892,0.01942 -0.672595,-0.198341 -0.679625,-0.970892 -0.679625,-0.970892 v -5.145728 h 1.514592 v -0.349527 h -1.534008 v -1.79615 h -0.320394 v 1.825278 z"
       id="path838"
       inkscape:connector-curvature="0"
       sodipodi:nodetypes="ccccsccsccccccccc" />
  </g>
</svg>
