<?xml version="1.0" encoding="UTF-8" standalone="no"?>
<!-- Created with Inkscape (http://www.inkscape.org/) -->

<svg
   xmlns:dc="http://purl.org/dc/elements/1.1/"
   xmlns:cc="http://creativecommons.org/ns#"
   xmlns:rdf="http://www.w3.org/1999/02/22-rdf-syntax-ns#"
   xmlns:svg="http://www.w3.org/2000/svg"
   xmlns="http://www.w3.org/2000/svg"
   xmlns:sodipodi="http://sodipodi.sourceforge.net/DTD/sodipodi-0.dtd"
   xmlns:inkscape="http://www.inkscape.org/namespaces/inkscape"
   width="48px"
   height="48px"
   viewBox="0 0 48 48"
   version="1.1"
   id="SVGRoot"
   inkscape:version="0.92.4 (5da689c313, 2019-01-14)"
   sodipodi:docname="lightwave-3da.svg"
   inkscape:export-filename="C:\Users\Admin\Documents\Rainmeter\Skins\Honeycomb-NG\@Resources\Images\openshot.png"
   inkscape:export-xdpi="512"
   inkscape:export-ydpi="512">
  <defs
     id="defs1995" />
  <sodipodi:namedview
     id="base"
     pagecolor="#ffffff"
     bordercolor="#666666"
     borderopacity="1.0"
     inkscape:pageopacity="0.0"
     inkscape:pageshadow="2"
     inkscape:zoom="12.786848"
     inkscape:cx="22.617824"
     inkscape:cy="30.46294"
     inkscape:document-units="px"
     inkscape:current-layer="layer1"
     showgrid="true"
     inkscape:window-width="1920"
     inkscape:window-height="1017"
     inkscape:window-x="-8"
     inkscape:window-y="-8"
     inkscape:window-maximized="1"
     inkscape:grid-bbox="true"
     inkscape:snap-global="false">
    <inkscape:grid
       type="xygrid"
       id="grid2562" />
  </sodipodi:namedview>
  <metadata
     id="metadata1998">
    <rdf:RDF>
      <cc:Work
         rdf:about="">
        <dc:format>image/svg+xml</dc:format>
        <dc:type
           rdf:resource="http://purl.org/dc/dcmitype/StillImage" />
        <dc:title></dc:title>
      </cc:Work>
    </rdf:RDF>
  </metadata>
  <g
     inkscape:label="Layer 1"
     inkscape:groupmode="layer"
     id="layer1">
    <path
       inkscape:connector-curvature="0"
       id="path839"
       d="m 22.197805,32.549318 c -1.42599,-0.298617 -2.910158,-1.182744 -3.813874,-2.271943 -0.589239,-0.710176 -1.2359,-2.032181 -1.4576,-2.979847 -0.133756,-0.571752 -0.161806,-1.091577 -0.125013,-2.316761 0.04234,-1.409983 0.08269,-1.687131 0.37566,-2.580886 0.965384,-2.944993 3.361418,-5.109244 6.600438,-5.961934 2.582192,-0.679778 7.343701,-0.285857 7.511439,0.621423 0.01904,0.10299 -0.116282,0.359136 -0.300723,0.569202 -0.485978,0.553499 -0.400963,0.850086 0.668502,2.332184 1.361574,1.88691 1.967014,2.944727 1.967014,3.436746 0,0.42927 -0.115953,0.584689 -0.630855,0.845615 -0.623159,0.315777 -0.821019,0.706997 -1.275592,2.522169 -0.370406,1.479082 -0.754483,2.220029 -1.210038,2.334367 -0.199293,0.05001 -0.447738,-0.01068 -0.849063,-0.207538 -0.690515,-0.33866 -1.119137,-0.348028 -2.144393,-0.04687 -1.146542,0.336786 -3.203229,0.342793 -3.92066,0.01151 -0.749137,-0.345984 -1.580018,-1.187423 -1.932425,-1.956981 -0.260902,-0.569732 -0.299479,-0.778969 -0.295556,-1.603026 0.0059,-1.243105 0.275396,-1.957554 1.026438,-2.721319 0.978164,-0.994735 2.262594,-1.345379 3.50508,-0.956874 1.072575,0.335375 1.933988,1.387362 1.933988,2.361851 0,0.818797 -0.555367,1.670298 -1.314264,2.015057 -0.429201,0.194982 -1.10663,0.264394 -1.10663,0.113394 0,-0.04565 0.216392,-0.263887 0.480873,-0.484966 0.850757,-0.711145 0.992424,-1.463678 0.406601,-2.159886 -0.486665,-0.578371 -1.194643,-0.649941 -2.066081,-0.208865 -0.634382,0.321093 -0.965839,0.850148 -1.006602,1.606699 -0.04779,0.886855 0.235011,1.378667 1.026829,1.785772 0.524581,0.269707 0.658624,0.2938 1.421648,0.255519 1.008542,-0.05059 1.637452,-0.301682 2.207294,-0.881241 0.898094,-0.913405 1.166511,-2.271186 0.696676,-3.524135 -1.043756,-2.783486 -5.408714,-3.047853 -7.452348,-0.451357 -1.572074,1.997368 -1.403078,4.999171 0.381998,6.78521 0.667736,0.668098 1.488572,1.096908 2.516944,1.314869 1.016947,0.215539 1.428916,0.190235 2.822773,-0.173388 1.626015,-0.424187 2.178353,-0.423877 3.225377,0.0019 1.358158,0.552195 1.865573,0.282269 2.858938,-1.520849 0.541089,-0.982161 1.273686,-1.859924 1.763906,-2.113426 0.474795,-0.245526 0.452853,-0.177628 -0.15464,0.478538 -0.481608,0.520193 -0.655069,0.821374 -1.015893,1.763898 -0.681646,1.780553 -0.858483,2.119769 -1.333141,2.557295 -0.536397,0.494434 -0.930288,0.584011 -2.081273,0.473325 -1.267695,-0.121911 -1.508595,-0.0887 -2.75021,0.379188 -1.921832,0.724214 -3.531781,0.897795 -5.161542,0.556507 z m 8.253572,-5.49067 c 0.156226,-0.291912 0.253263,-0.945202 0.182357,-1.227711 -0.124524,-0.496148 -0.811025,-0.430391 -1.011493,0.09689 -0.248533,0.65369 0.52204,1.70464 0.829136,1.130826 z m 1.379734,-4.578928 c -0.003,-0.312163 -0.375505,-1.124539 -0.649292,-1.416187 -0.668592,-0.712206 -1.648006,-0.147271 -1.343624,0.775015 0.156836,0.475219 0.866369,0.848258 1.65298,0.869062 0.288044,0.0077 0.341882,-0.02848 0.339936,-0.22789 z m -3.749503,-3.905775 c 0.123211,-0.08158 0.437268,-0.339879 0.697903,-0.573995 0.574085,-0.515667 0.515867,-0.62077 -0.43354,-0.782706 -1.251541,-0.21347 -2.199142,0.119726 -2.199142,0.773259 0,0.37468 0.412393,0.800984 0.824871,0.852695 0.342773,0.04298 0.809277,-0.0702 1.109908,-0.269253 z M 14.524693,32.006876 c -0.0382,-0.0618 0.08512,-0.218399 0.274035,-0.347984 0.66172,-0.453896 0.946219,-0.787399 1.34493,-1.576593 0.221095,-0.437623 0.470884,-0.852855 0.555087,-0.922738 0.17848,-0.148124 0.208583,-0.118041 0.643785,0.643376 0.158617,0.277513 0.501102,0.744064 0.761073,1.036779 0.259973,0.292715 0.457771,0.609618 0.439552,0.704227 -0.04863,0.252524 -0.961852,0.433778 -2.569248,0.509936 -0.931535,0.04413 -1.402323,0.02886 -1.449214,-0.047 z m 0.406908,-4.60216 c -1.274386,-0.378443 -3.11326,-1.116887 -3.04725,-1.223693 0.03213,-0.05199 0.209637,-0.09523 0.394455,-0.09608 0.891458,-0.0041 2.080411,-0.4417 3.126678,-1.150713 0.260636,-0.176622 0.526305,-0.321333 0.590375,-0.321581 0.07011,-3.17e-4 0.14437,0.345455 0.186505,0.868334 0.03851,0.477833 0.09925,1.164962 0.134991,1.526956 l 0.06499,0.658171 -0.304137,-0.0057 c -0.167276,-0.003 -0.683244,-0.118187 -1.146596,-0.255785 z m 0.631782,-4.974278 c -0.945504,-0.945505 -2.589414,-3.214574 -2.438355,-3.365633 0.03788,-0.03789 0.483558,0.126813 0.990382,0.365996 1.090615,0.51469 1.618349,0.647134 2.592366,0.650602 0.696356,0.0025 0.720952,0.01138 0.665019,0.239516 -0.101554,0.414277 -1.065587,2.711663 -1.137876,2.711663 -0.03816,0 -0.340356,-0.270965 -0.671536,-0.602144 z m 2.637553,-3.707676 c -0.268991,-0.435236 -0.524687,-4.957223 -0.280308,-4.957223 0.0512,0 0.199203,0.261476 0.328912,0.581058 0.343374,0.846019 0.843584,1.44016 1.681415,1.997147 0.406941,0.270535 0.739809,0.547478 0.739706,0.615429 -1.03e-4,0.06795 -0.219663,0.262209 -0.487909,0.431686 -0.268248,0.169477 -0.760227,0.56043 -1.093287,0.868785 -0.603779,0.558992 -0.774334,0.647889 -0.888529,0.463118 z m 3.944215,-2.542055 c 0,-0.411883 2.198986,-4.201067 2.439954,-4.204412 0.0388,-5.37e-4 0.04491,0.437363 0.01359,0.973114 -0.0506,0.86546 -0.02574,1.066635 0.222909,1.80392 0.153921,0.456406 0.264903,0.844784 0.246626,0.863061 -0.01828,0.01828 -0.397854,0.108545 -0.843506,0.200598 -0.445649,0.09206 -1.007047,0.236794 -1.24755,0.321646 -0.516144,0.182107 -0.832025,0.198079 -0.832025,0.04207 z"
       style="fill:#ffffff;stroke-width:0.1053073" />
  </g>
</svg>
