<?xml version="1.0" encoding="UTF-8" standalone="no"?>
<!-- Created with Inkscape (http://www.inkscape.org/) -->

<svg
   xmlns:dc="http://purl.org/dc/elements/1.1/"
   xmlns:cc="http://creativecommons.org/ns#"
   xmlns:rdf="http://www.w3.org/1999/02/22-rdf-syntax-ns#"
   xmlns:svg="http://www.w3.org/2000/svg"
   xmlns="http://www.w3.org/2000/svg"
   xmlns:sodipodi="http://sodipodi.sourceforge.net/DTD/sodipodi-0.dtd"
   xmlns:inkscape="http://www.inkscape.org/namespaces/inkscape"
   width="48px"
   height="48px"
   viewBox="0 0 48 48"
   version="1.1"
   id="SVGRoot"
   inkscape:version="0.92.4 (5da689c313, 2019-01-14)"
   sodipodi:docname="microsoft-notepada.svg"
   inkscape:export-filename="C:\Users\Admin\Documents\Rainmeter\Skins\Honeycomb-NG\@Resources\Images\openshot.png"
   inkscape:export-xdpi="512"
   inkscape:export-ydpi="512">
  <defs
     id="defs1995" />
  <sodipodi:namedview
     id="base"
     pagecolor="#ffffff"
     bordercolor="#666666"
     borderopacity="1.0"
     inkscape:pageopacity="0.0"
     inkscape:pageshadow="2"
     inkscape:zoom="25.573696"
     inkscape:cx="10.866827"
     inkscape:cy="27.167891"
     inkscape:document-units="px"
     inkscape:current-layer="layer1"
     showgrid="true"
     inkscape:window-width="1920"
     inkscape:window-height="1017"
     inkscape:window-x="-8"
     inkscape:window-y="-8"
     inkscape:window-maximized="1"
     inkscape:grid-bbox="true"
     inkscape:snap-global="true">
    <inkscape:grid
       type="xygrid"
       id="grid2562" />
  </sodipodi:namedview>
  <metadata
     id="metadata1998">
    <rdf:RDF>
      <cc:Work
         rdf:about="">
        <dc:format>image/svg+xml</dc:format>
        <dc:type
           rdf:resource="http://purl.org/dc/dcmitype/StillImage" />
        <dc:title></dc:title>
      </cc:Work>
    </rdf:RDF>
  </metadata>
  <g
     inkscape:label="Layer 1"
     inkscape:groupmode="layer"
     id="layer1">
    <path
       style="opacity:1;vector-effect:none;fill:#ffffff;fill-opacity:1;fill-rule:evenodd;stroke-width:1.1649648;paint-order:normal"
       d="M 18 13 C 16.892 13 16 13.892 16 15 L 16 28 C 16 27.446 16.446 27 17 27 L 18 27 L 18 16 C 18 15.446 18.446 15 19 15 L 29 15 C 29.554 15 30 15.446 30 16 L 30 27 L 31 27 C 31.554 27 32 27.446 32 28 L 32 15 C 32 13.892 31.108 13 30 13 L 18 13 z M 16 30 L 16 32 C 16 33.108 16.892 34 18 34 L 30 34 C 31.108 34 32 33.108 32 32 L 32 30 C 32 30.554 31.554 31 31 31 L 30 31 C 30 31.554 29.554 32 29 32 L 19 32 C 18.446 32 18 31.554 18 31 L 17 31 C 16.446 31 16 30.554 16 30 z "
       id="rect831" />
    <rect
       style="opacity:1;vector-effect:none;fill:#ffffff;fill-opacity:1;fill-rule:evenodd;paint-order:stroke fill markers"
       id="rect832"
       width="2"
       height="3"
       x="19"
       y="12"
       ry="1" />
    <rect
       style="opacity:1;vector-effect:none;fill:#ffffff;fill-opacity:1;fill-rule:evenodd;paint-order:stroke fill markers"
       id="rect834"
       width="2"
       height="3"
       x="23"
       y="12"
       ry="1" />
    <rect
       style="opacity:1;vector-effect:none;fill:#ffffff;fill-opacity:1;fill-rule:evenodd;paint-order:stroke fill markers"
       id="rect836"
       width="2"
       height="3"
       x="27"
       y="12"
       ry="1" />
    <path
       style="opacity:1;vector-effect:none;fill:#ffffff;fill-opacity:1;fill-rule:evenodd;paint-order:stroke fill markers"
       d="M 18 13 C 16.892 13 16 13.892 16 15 L 16 28 C 16 29.108 16.892 30 18 30 L 30 30 C 31.108 30 32 29.108 32 28 L 32 15 C 32 13.892 31.108 13 30 13 L 18 13 z M 20.5 17 L 27.5 17 C 27.777 17 28 17.223 28 17.5 C 28 17.777 27.777 18 27.5 18 L 20.5 18 C 20.223 18 20 17.777 20 17.5 C 20 17.223 20.223 17 20.5 17 z M 20.5 20 L 27.5 20 C 27.777 20 28 20.223 28 20.5 C 28 20.777 27.777 21 27.5 21 L 20.5 21 C 20.223 21 20 20.777 20 20.5 C 20 20.223 20.223 20 20.5 20 z M 20.5 23 L 23.5 23 C 23.777 23 24 23.223 24 23.5 C 24 23.777 23.777 24 23.5 24 L 20.5 24 C 20.223 24 20 23.777 20 23.5 C 20 23.223 20.223 23 20.5 23 z "
       id="rect829" />
    <rect
       style="opacity:1;vector-effect:none;fill:#ffffff;fill-opacity:1;fill-rule:evenodd;paint-order:stroke fill markers"
       id="rect848"
       width="16"
       height="4"
       x="16"
       y="26"
       ry="1" />
  </g>
</svg>
