<?xml version="1.0" encoding="UTF-8" standalone="no"?>
<!-- Created with Inkscape (http://www.inkscape.org/) -->

<svg
   xmlns:dc="http://purl.org/dc/elements/1.1/"
   xmlns:cc="http://creativecommons.org/ns#"
   xmlns:rdf="http://www.w3.org/1999/02/22-rdf-syntax-ns#"
   xmlns:svg="http://www.w3.org/2000/svg"
   xmlns="http://www.w3.org/2000/svg"
   xmlns:sodipodi="http://sodipodi.sourceforge.net/DTD/sodipodi-0.dtd"
   xmlns:inkscape="http://www.inkscape.org/namespaces/inkscape"
   width="48px"
   height="48px"
   viewBox="0 0 48 48"
   version="1.1"
   id="SVGRoot"
   inkscape:version="0.92.4 (5da689c313, 2019-01-14)"
   sodipodi:docname="purerefa.svg">
  <defs
     id="defs1995" />
  <sodipodi:namedview
     id="base"
     pagecolor="#ffffff"
     bordercolor="#666666"
     borderopacity="1.0"
     inkscape:pageopacity="0.0"
     inkscape:pageshadow="2"
     inkscape:zoom="12.786848"
     inkscape:cx="17.912766"
     inkscape:cy="29.137115"
     inkscape:document-units="px"
     inkscape:current-layer="layer1"
     showgrid="true"
     inkscape:window-width="1920"
     inkscape:window-height="1017"
     inkscape:window-x="-8"
     inkscape:window-y="-8"
     inkscape:window-maximized="1"
     inkscape:grid-bbox="true">
    <inkscape:grid
       type="xygrid"
       id="grid2562" />
  </sodipodi:namedview>
  <metadata
     id="metadata1998">
    <rdf:RDF>
      <cc:Work
         rdf:about="">
        <dc:format>image/svg+xml</dc:format>
        <dc:type
           rdf:resource="http://purl.org/dc/dcmitype/StillImage" />
        <dc:title></dc:title>
      </cc:Work>
    </rdf:RDF>
  </metadata>
  <g
     inkscape:label="Layer 1"
     inkscape:groupmode="layer"
     id="layer1">
    <path
       style="opacity:1;vector-effect:none;fill:#ffffff;fill-opacity:1;fill-rule:evenodd;paint-order:normal"
       d="M 24 12 C 19.014 12 15 16.014 15 21 L 15 33 L 21 33 L 21 29.480469 C 21.938975 29.810939 22.945228 30 24 30 C 24.841106 30 25.650694 29.877916 26.421875 29.664062 L 29.878906 33.121094 L 34.121094 28.878906 L 31.386719 26.144531 C 32.401058 24.68756 33 22.917529 33 21 C 33 16.014 28.986 12 24 12 z M 24 14 C 27.878 14 31 17.122 31 21 C 31 24.878 27.878 28 24 28 C 22.037071 28 20.268707 27.199181 19 25.90625 L 19 31 L 17 31 L 17 21 C 17 17.122 20.122 14 24 14 z "
       id="rect822" />
    <path
       style="opacity:1;vector-effect:none;fill:#ffffff;fill-opacity:1;fill-rule:evenodd;paint-order:normal"
       d="M 24 16 C 21.23 16 19 18.23 19 21 C 19 23.77 21.23 26 24 26 C 26.77 26 29 23.77 29 21 C 29 18.23 26.77 16 24 16 z M 24 18 C 25.662 18 27 19.338 27 21 C 27 22.662 25.662 24 24 24 C 22.338 24 21 22.662 21 21 C 21 19.338 22.338 18 24 18 z "
       id="rect832" />
  </g>
</svg>
