<?xml version="1.0" encoding="UTF-8" standalone="no"?>
<!-- Created with Inkscape (http://www.inkscape.org/) -->

<svg
   xmlns:dc="http://purl.org/dc/elements/1.1/"
   xmlns:cc="http://creativecommons.org/ns#"
   xmlns:rdf="http://www.w3.org/1999/02/22-rdf-syntax-ns#"
   xmlns:svg="http://www.w3.org/2000/svg"
   xmlns="http://www.w3.org/2000/svg"
   xmlns:sodipodi="http://sodipodi.sourceforge.net/DTD/sodipodi-0.dtd"
   xmlns:inkscape="http://www.inkscape.org/namespaces/inkscape"
   width="48px"
   height="48px"
   viewBox="0 0 48 48"
   version="1.1"
   id="SVGRoot"
   inkscape:version="0.92.4 (5da689c313, 2019-01-14)"
   sodipodi:docname="renpya.svg">
  <defs
     id="defs1995" />
  <sodipodi:namedview
     id="base"
     pagecolor="#ffffff"
     bordercolor="#666666"
     borderopacity="1.0"
     inkscape:pageopacity="0.0"
     inkscape:pageshadow="2"
     inkscape:zoom="12.786848"
     inkscape:cx="19.670034"
     inkscape:cy="25.545754"
     inkscape:document-units="px"
     inkscape:current-layer="layer1"
     showgrid="true"
     inkscape:window-width="1920"
     inkscape:window-height="1017"
     inkscape:window-x="-8"
     inkscape:window-y="-8"
     inkscape:window-maximized="1"
     inkscape:grid-bbox="true"
     inkscape:snap-global="false">
    <inkscape:grid
       type="xygrid"
       id="grid2562" />
  </sodipodi:namedview>
  <metadata
     id="metadata1998">
    <rdf:RDF>
      <cc:Work
         rdf:about="">
        <dc:format>image/svg+xml</dc:format>
        <dc:type
           rdf:resource="http://purl.org/dc/dcmitype/StillImage" />
        <dc:title></dc:title>
      </cc:Work>
    </rdf:RDF>
  </metadata>
  <g
     inkscape:label="Layer 1"
     inkscape:groupmode="layer"
     id="layer1">
    <path
       d="m 21.557141,11.083973 c 0,0 -5.734865,1.822089 -6.893098,8.350792 -2.402718,1.589491 -3.620001,2.858647 -3.627043,3.372635 0,0.04048 0.03564,0.07305 0.05501,0.110014 0.202426,-0.09505 9.795476,-4.600891 16.584694,-5.222253 0.413926,-0.03485 0.829149,-0.05204 1.244539,-0.05157 3.16842,-0.01232 7.979687,0.640971 8.044814,0.649772 C 36.855162,17.81986 33.932545,16.498283 32.005089,16.151517 27.432003,11.099647 21.557142,11.08397 21.557142,11.08397 Z m 15.408914,7.209391 c -0.06865,-0.0053 -6.450894,-0.458898 -9.402805,-0.168455 -6.935318,0.682971 -16.267138,4.707937 -16.467805,4.795949 0.281638,0.475263 2.266574,0.670235 3.252305,0.677276 -0.14962,2.86918 -1.414924,7.976909 -1.186094,8.013873 0.158421,0.02464 0.519131,-0.962626 0.519131,-0.962626 0,0 -0.185127,0.565749 -0.354109,1.217035 0.711134,-0.03521 1.051848,-0.06967 1.498949,-0.03095 0.100333,0.0088 0.250996,0.01783 0.323166,0.137527 0.235872,-0.45766 0.240658,-0.869804 0.240658,-0.869804 0,0 0.09852,0.371659 0.07563,0.869804 0.168982,-0.144339 0.36786,-0.55695 0.36786,-0.55695 0,0 -0.01514,0.354193 -0.03095,0.570701 0.140819,0.08449 0.374738,0.05844 0.374738,0.05844 1.205491,0.04794 1.545664,-0.02027 2.735192,-0.166852 1.039456,-0.128093 1.167964,-0.210972 1.485567,-0.04142 0.903692,0.482407 1.559793,0.840241 2.555449,0.99899 0.814863,0.129922 1.745894,0.219532 2.946327,0.08938 1.183125,-0.128268 1.498941,-0.308718 2.416883,-0.642897 1.204092,-0.523899 1.967027,-0.967985 2.36875,-1.254854 -0.02862,0.242071 -0.03144,0.44852 -0.360985,1.227351 1.602374,-0.336626 2.151803,-1.316792 2.313744,-1.68116 -0.117373,0.614437 -0.222821,1.231095 -0.316291,1.849619 l 0.649773,-0.574138 v 0.666963 c 0,0 0.774337,-0.792215 0.886993,-1.608962 0.06864,0.663608 0.03781,1.608962 0.03781,1.608962 0,0 0.970466,-0.987352 1.296108,-3.379509 0.06161,1.517321 0.116898,2.6541 0.116898,2.6541 0,0 0.509422,-3.233547 0.336919,-6.600873 -0.08449,-1.633496 -0.254711,-3.555836 -0.828547,-4.833765 1.452192,-1.138871 2.194158,-1.688338 2.162475,-2.042145 0,-0.007 -0.01373,-0.01531 -0.01373,-0.02062 z M 22.151908,11.524031 c 0,0 1.692024,0.410354 2.475328,1.017635 1.297292,1.008613 2.750364,3.080407 2.750364,3.080407 0,0 -1.725028,-2.050671 -2.860379,-2.860378 -0.697052,-0.498147 -2.365313,-1.237664 -2.365313,-1.237664 z m -0.90762,0.05157 v 0.0035 c 0,0 -1.267368,1.380683 -1.760233,2.172788 -0.739298,1.182877 -1.760233,3.795502 -1.760233,3.795502 0,0 0.629504,-2.660152 1.347678,-3.795502 0.545673,-0.86603 2.172788,-2.176221 2.172788,-2.176221 z m 6.889661,4.50716 v 0.0035 c 1.43107,0.02288 2.578465,0.09282 2.578466,0.09282 0,0 -4.569893,0.04913 -6.80715,0.446934 -3.55567,0.633684 -8.326726,2.705672 -8.326726,2.705672 0,0 4.407594,-2.331623 8.288909,-3.035716 1.123028,-0.204187 2.835432,-0.234274 4.266501,-0.213152 z m -5.335706,5.404466 c 0,0 -0.215572,0.499438 -0.405677,0.972941 -0.09857,-0.0176 -0.195497,-0.04645 -0.288789,-0.0447 0.334443,-0.45766 0.694466,-0.928248 0.694466,-0.928248 z m 2.275927,0.02063 c 0,0 -0.902394,1.986672 -1.052015,4.280255 0.299241,-0.939964 0.526007,-1.461131 0.526007,-1.461131 0,0 -0.114168,1.435965 0.209716,2.509707 0.230591,-2.057712 1.364867,-3.441392 1.364867,-3.441392 0,0 -0.369813,1.424274 -0.213153,2.410005 0.188345,-1.453952 0.701343,-2.973831 0.701343,-2.973831 0,0 -0.329191,3.183602 0.367861,4.648115 0.67769,-0.647766 1.265168,-2.100589 1.265168,-2.100589 0,0 0.130116,0.432686 0.07907,0.893869 0.890678,-1.702147 0.794166,-4.531225 0.794168,-4.531225 0,0 0.214337,0.714737 0.457248,1.756795 -0.334443,0.22883 -0.55351,0.477875 -0.55351,0.477875 0,0 0.239694,-0.198632 0.574137,-0.378175 0.140819,0.6108 0.272232,1.31979 0.391928,2.069649 -0.0088,0 -0.01531,-0.0068 -0.02406,-0.0068 -1.091345,-0.01056 -1.66144,0.45722 -1.842744,1.045139 -0.506947,1.645817 0.01783,2.076525 0.797605,2.076525 1.471555,-0.0018 1.691473,-2.021518 1.691473,-2.021518 0,0 0.209028,0.581427 0.165022,1.003883 -0.0176,0.183064 -0.178773,0.481313 -0.178773,0.481313 l 0.591328,-0.426306 c 0,0 -0.162875,-1.301446 -0.694467,-1.880562 0.255232,-1.033257 0.422731,-1.87979 0.501941,-2.499394 0.08801,0.04048 0.170004,0.08975 0.250971,0.147842 0.110895,1.115988 0.234442,2.546012 0.206278,3.637356 0.301,-0.503427 0.546635,-1.031385 0.546635,-1.031385 l 0.01725,0.91449 c 0,0 -0.605961,1.549362 -1.595212,3.578911 -2.085876,1.496198 -3.323883,2.042365 -5.557423,2.024023 -1.550093,-0.01267 -2.251181,-0.189574 -3.394894,-0.621862 -0.474344,-0.179287 -2.014758,-1.189006 -2.014758,-1.189007 0,0 -0.954789,-2.053781 -0.409117,-7.058123 0.07217,-0.668888 1.186094,-1.633027 1.186094,-1.633027 0,0 -0.454249,0.905117 -0.728845,2.258736 -0.06622,0.08364 -0.133848,0.166166 -0.20284,0.247533 0,0 0.162522,-0.165867 0.195963,-0.202839 -0.08641,0.414021 -0.146134,0.833169 -0.178773,1.254853 0.216509,-0.508708 0.508817,-0.952313 0.508817,-0.952315 0,0 -0.110737,1.003058 0.213153,1.478321 0.624883,-1.610613 1.319294,-2.798302 1.870248,-3.61329 0.02288,-0.0053 0.04763,-0.02054 0.06875,-0.02406 0.0933,-0.01584 0.215793,0.0169 0.323167,0.02751 -0.331531,0.865213 -0.540964,1.772375 -0.622269,2.695357 -1.559566,0.15138 -1.835868,2.275927 -1.835868,2.275927 l 0.570701,0.543197 c 0,0 -0.18389,-0.379936 -0.18565,-0.598204 0.480544,0.660087 0.812154,1.313545 1.804926,1.302984 1.978502,-0.02288 1.674283,-2.746926 1.674283,-2.746926 l 0.12033,0.04126 c 0,0 -0.65995,-0.896951 -2.059335,-0.838862 l -0.01039,0.0035 c 0.418715,-0.859578 0.920769,-1.675992 1.498947,-2.437509 0.22531,0.08977 0.281557,0.120101 0.443496,0.202839 -0.271074,0.695292 -0.51308,1.51292 -0.477875,2.310305 0.242912,-0.822029 0.548258,-1.515532 0.845737,-2.128093 l 0.130645,0.06532 -0.12033,-0.08596 c 0.294876,-0.613958 0.627861,-1.208741 0.997021,-1.780983 z m -0.605081,0.02063 c 0,0 -0.390634,0.648261 -0.73916,1.519576 -0.140819,-0.100333 -0.184384,-0.131437 -0.385051,-0.244095 0.637204,-0.816748 1.124211,-1.275481 1.124211,-1.275481 z m 6.631816,0.660088 0.116896,1.134524 c -0.06564,-0.03841 -0.134692,-0.07063 -0.206278,-0.09627 0.05456,-0.540391 0.08938,-1.038263 0.08938,-1.038263 z m -8.034501,3.706109 c 0.01478,-0.0014 0.02984,-0.0014 0.0447,0 0.119696,0.0035 0.237494,0.0881 0.299102,0.216592 0.08801,0.176024 0.04112,0.376607 -0.0997,0.443496 -0.140818,0.07041 -0.322865,-0.01818 -0.409116,-0.195963 -0.08625,-0.176023 -0.04112,-0.376608 0.0997,-0.443498 0.02064,-0.01003 0.04265,-0.01707 0.06532,-0.02063 z m 7.140633,0.185649 c 0.0045,-1.8e-4 0.0092,-1.8e-4 0.01373,0 0.102093,0.0035 0.213263,0.0881 0.281914,0.216592 0.09329,0.176023 0.07491,0.371409 -0.04126,0.440058 -0.114416,0.06688 -0.284884,-0.01654 -0.378176,-0.192526 -0.09329,-0.176023 -0.07491,-0.371409 0.04126,-0.440058 0.02503,-0.01478 0.05343,-0.02313 0.0825,-0.02406 z m -6.728079,1.258292 c 0,0 -0.0065,1.291956 -1.416436,1.39581 -0.97869,0.07393 -1.416438,-0.783853 -1.416438,-0.783854 l 0.18565,0.06876 c 0,0 0.135977,-0.115014 0.275036,-0.04812 0.156661,0.07569 0.171904,0.295664 0.171904,0.295664 0,0 0.104629,0.13274 0.701344,0.116898 1.114227,-0.02816 1.498948,-1.045138 1.498948,-1.045138 z m 6.731516,0.178774 c 0,0 -0.256471,1.122038 -1.268604,1.141401 -1.066702,0.02113 -0.842298,-0.928249 -0.8423,-0.928249 0,0 0.102094,0.603597 0.880116,0.666965 0.753382,0.06161 1.230788,-0.880117 1.230788,-0.880117 z m -4.5381,2.64035 c -0.420696,-0.0053 -1.237664,0.220029 -1.237664,0.220029 l 0.275037,0.797606 -0.02751,-0.632584 c 0,0 0.61157,-0.134006 0.921371,-0.137527 0.278117,-0.0053 0.82511,0.09627 0.82511,0.09627 l -0.110015,0.715095 0.440058,-0.838861 c 0,0 -0.716744,-0.216508 -1.086393,-0.220029 z"
       id="path4"
       inkscape:connector-curvature="0"
       sodipodi:nodetypes="cccccccccccccccccccccccssssccccccccccccccccccccccccccccccccccccccccccccccccccccccccccccccccccccsscccccccccccccccccccccccccccccccccccccccccccccccccccccccccccccccccccccccccccccc"
       style="stroke-width:1.76023293;fill:#ffffff" />
  </g>
</svg>
