<?xml version="1.0" encoding="UTF-8" standalone="no"?>
<!-- Created with Inkscape (http://www.inkscape.org/) -->

<svg
   xmlns:dc="http://purl.org/dc/elements/1.1/"
   xmlns:cc="http://creativecommons.org/ns#"
   xmlns:rdf="http://www.w3.org/1999/02/22-rdf-syntax-ns#"
   xmlns:svg="http://www.w3.org/2000/svg"
   xmlns="http://www.w3.org/2000/svg"
   xmlns:sodipodi="http://sodipodi.sourceforge.net/DTD/sodipodi-0.dtd"
   xmlns:inkscape="http://www.inkscape.org/namespaces/inkscape"
   width="48px"
   height="48px"
   viewBox="0 0 48 48"
   version="1.1"
   id="SVGRoot"
   inkscape:version="0.92.4 (5da689c313, 2019-01-14)"
   sodipodi:docname="rosetta-stonea.svg"
   inkscape:export-filename="C:\Users\Admin\Documents\Rainmeter\Skins\Honeycomb-NG\@Resources\Images\openshot.png"
   inkscape:export-xdpi="512"
   inkscape:export-ydpi="512">
  <defs
     id="defs1995" />
  <sodipodi:namedview
     id="base"
     pagecolor="#ffffff"
     bordercolor="#666666"
     borderopacity="1.0"
     inkscape:pageopacity="0.0"
     inkscape:pageshadow="2"
     inkscape:zoom="15.575887"
     inkscape:cx="18.505142"
     inkscape:cy="28.731869"
     inkscape:document-units="px"
     inkscape:current-layer="layer1"
     showgrid="true"
     inkscape:window-width="1920"
     inkscape:window-height="1017"
     inkscape:window-x="-8"
     inkscape:window-y="-8"
     inkscape:window-maximized="1"
     inkscape:grid-bbox="true"
     inkscape:snap-global="false">
    <inkscape:grid
       type="xygrid"
       id="grid2562" />
  </sodipodi:namedview>
  <metadata
     id="metadata1998">
    <rdf:RDF>
      <cc:Work
         rdf:about="">
        <dc:format>image/svg+xml</dc:format>
        <dc:type
           rdf:resource="http://purl.org/dc/dcmitype/StillImage" />
        <dc:title></dc:title>
      </cc:Work>
    </rdf:RDF>
  </metadata>
  <g
     inkscape:label="Layer 1"
     inkscape:groupmode="layer"
     id="layer1">
    <path
       style="fill:#ffffff;stroke:none;stroke-width:1.0335803px;stroke-linecap:butt;stroke-linejoin:miter;stroke-opacity:1"
       d="m 25.80792,11.981328 c 0,0 0.717314,1.865195 0.994343,2.823933 0.298197,1.031999 0.715927,3.142124 0.715927,3.142124 -6.661724,1.487064 -10.341167,5.449 -10.341167,5.449 0,0 0,-0.901537 0,-1.352306 0,-1.397365 0.914795,-2.465971 0.914795,-2.465971 0,0 2.551204,-3.575605 3.818278,-5.369452 0.836075,-1.183667 1.789818,-1.471628 1.789818,-1.471628 z"
       id="path828"
       inkscape:connector-curvature="0"
       sodipodi:nodetypes="csccscscc" />
    <path
       style="fill:#ffffff;stroke:none;stroke-width:1.0335803px;stroke-linecap:butt;stroke-linejoin:miter;stroke-opacity:1"
       d="m 17.128936,23.751071 v 4.049894 c 4.025963,-3.664786 10.799719,-4.612379 10.799719,-4.612379 l -0.337492,-4.021771 c 0,0 -6.607266,0.890915 -10.462227,4.584256 z"
       id="path830"
       inkscape:connector-curvature="0"
       sodipodi:nodetypes="ccccc" />
    <path
       style="fill:#ffffff;stroke:none;stroke-width:1.0335803px;stroke-linecap:butt;stroke-linejoin:miter;stroke-opacity:1"
       d="m 17.100812,28.250954 v 3.459285 c 0,0.789324 0.548424,0.604671 0.548424,0.604671 l 5.751412,-1.05466 c 0,0 1.029779,-0.04513 2.024947,-1.349965 0.650396,-0.852782 1.38171,-1.655463 1.91245,-2.587433 0.892197,-1.56668 0.759355,-2.868674 0.759355,-2.868674 0,0 -6.335014,0.56216 -10.996588,3.796776 z"
       id="path832"
       inkscape:connector-curvature="0"
       sodipodi:nodetypes="csccsscc" />
    <path
       style="fill:#ffffff;stroke:none;stroke-width:1.0335803px;stroke-linecap:butt;stroke-linejoin:miter;stroke-opacity:1"
       d="m 26.058391,11.981066 c 0,0 0.244987,0.09506 0.344522,0.365616 0.628217,1.707641 1.59363,4.13539 1.694487,5.188926 0.247285,2.583102 0.590609,7.762297 0.590609,7.762297 0,0 0.05176,0.997159 -0.759354,2.249942 -0.664547,1.026399 -2.137445,2.981173 -2.137445,2.981173 0,0 -0.814115,0.964064 -2.193693,1.181219 -1.940924,0.305512 -3.744474,0.545927 -5.835785,0.829666 -0.112343,0.01524 -0.337491,-0.04219 -0.337491,-0.04219 0,0 0.111364,0.261306 1.167156,0.59061 0.247533,0.07721 0.502709,0.131796 0.759356,0.168745 0.78469,0.112972 1.687456,-0.02812 1.687456,-0.02812 l 4.21864,-0.562484 c 0,0 2.073844,-0.105603 2.812426,-1.068723 0.645931,-0.842301 1.856202,-2.587432 1.856202,-2.587432 0,0 1.159646,-1.281459 1.012474,-2.924924 -0.200849,-2.24286 -0.674982,-6.7217 -0.674982,-6.7217 0,0 -0.07453,-0.840537 -0.590611,-2.278066 -0.337752,-0.940796 -0.628755,-1.901623 -1.040597,-2.812426 -0.97185,-2.149279 -2.57337,-2.292128 -2.57337,-2.292128 z"
       id="path834"
       inkscape:connector-curvature="0"
       sodipodi:nodetypes="csscscsscssccscscsscc" />
  </g>
</svg>
