<?xml version="1.0" encoding="UTF-8" standalone="no"?>
<!-- Created with Inkscape (http://www.inkscape.org/) -->

<svg
   xmlns:dc="http://purl.org/dc/elements/1.1/"
   xmlns:cc="http://creativecommons.org/ns#"
   xmlns:rdf="http://www.w3.org/1999/02/22-rdf-syntax-ns#"
   xmlns:svg="http://www.w3.org/2000/svg"
   xmlns="http://www.w3.org/2000/svg"
   xmlns:sodipodi="http://sodipodi.sourceforge.net/DTD/sodipodi-0.dtd"
   xmlns:inkscape="http://www.inkscape.org/namespaces/inkscape"
   width="48px"
   height="48px"
   viewBox="0 0 48 48"
   version="1.1"
   id="SVGRoot"
   inkscape:version="0.92.4 (5da689c313, 2019-01-14)"
   sodipodi:docname="sculptrisa.svg"
   inkscape:export-filename="C:\Users\Admin\Documents\Rainmeter\Skins\Honeycomb-NG\@Resources\Images\openshot.png"
   inkscape:export-xdpi="512"
   inkscape:export-ydpi="512">
  <defs
     id="defs1995" />
  <sodipodi:namedview
     id="base"
     pagecolor="#ffffff"
     bordercolor="#666666"
     borderopacity="1.0"
     inkscape:pageopacity="0.0"
     inkscape:pageshadow="2"
     inkscape:zoom="18.083334"
     inkscape:cx="26.235173"
     inkscape:cy="25.564431"
     inkscape:document-units="px"
     inkscape:current-layer="layer1"
     showgrid="true"
     inkscape:window-width="1920"
     inkscape:window-height="1017"
     inkscape:window-x="-8"
     inkscape:window-y="-8"
     inkscape:window-maximized="1"
     inkscape:grid-bbox="true"
     inkscape:snap-global="false">
    <inkscape:grid
       type="xygrid"
       id="grid2562" />
  </sodipodi:namedview>
  <metadata
     id="metadata1998">
    <rdf:RDF>
      <cc:Work
         rdf:about="">
        <dc:format>image/svg+xml</dc:format>
        <dc:type
           rdf:resource="http://purl.org/dc/dcmitype/StillImage" />
        <dc:title></dc:title>
      </cc:Work>
    </rdf:RDF>
  </metadata>
  <g
     inkscape:label="Layer 1"
     inkscape:groupmode="layer"
     id="layer1">
    <path
       style="opacity:1;vector-effect:none;fill:#ffffff;fill-opacity:1;fill-rule:evenodd;stroke:none;stroke-width:2;stroke-linecap:round;stroke-linejoin:round;stroke-miterlimit:4;stroke-dasharray:none;paint-order:normal"
       d="M 24.962891 13.783203 C 21.806016 13.736753 18.26794 16.579745 18.234375 20.113281 C 18.216765 21.967287 19.035819 22.994856 20.158203 24.357422 C 20.818156 25.158601 23.65112 26.404 23.539062 27.671875 C 23.444093 28.746434 21.991299 29.553621 20.919922 29.427734 C 17.792217 29.060228 14.684301 26.60887 14.390625 22.599609 C 14.280538 21.096706 14.700786 19.546838 15.125 18.388672 C 14.409502 19.767975 14 21.333066 14 23 C 14 25.415721 14.847859 27.62483 16.263672 29.349609 C 16.846105 29.998274 19.081787 32.197656 23.037109 32.255859 C 26.193984 32.302309 29.73206 29.459317 29.765625 25.925781 C 29.783235 24.071775 28.964181 23.044207 27.841797 21.681641 C 27.181844 20.880462 24.348879 19.635063 24.460938 18.367188 C 24.544035 17.426948 25.667073 16.690491 26.664062 16.605469 C 26.806491 16.593323 26.946156 16.595592 27.080078 16.611328 C 30.207783 16.978834 33.315699 19.430192 33.609375 23.439453 C 33.712207 24.843314 33.347304 26.315 32.953125 27.447266 C 33.61727 26.107619 34 24.601989 34 23 C 34 20.67542 33.207504 18.548097 31.886719 16.853516 C 31.626223 16.536832 29.303519 13.847076 24.962891 13.783203 z "
       id="rect822" />
  </g>
</svg>
