<?xml version="1.0" encoding="UTF-8" standalone="no"?>
<!-- Created with Inkscape (http://www.inkscape.org/) -->

<svg
   xmlns:dc="http://purl.org/dc/elements/1.1/"
   xmlns:cc="http://creativecommons.org/ns#"
   xmlns:rdf="http://www.w3.org/1999/02/22-rdf-syntax-ns#"
   xmlns:svg="http://www.w3.org/2000/svg"
   xmlns="http://www.w3.org/2000/svg"
   xmlns:sodipodi="http://sodipodi.sourceforge.net/DTD/sodipodi-0.dtd"
   xmlns:inkscape="http://www.inkscape.org/namespaces/inkscape"
   width="48px"
   height="48px"
   viewBox="0 0 48 48"
   version="1.1"
   id="SVGRoot"
   inkscape:version="0.92.4 (5da689c313, 2019-01-14)"
   sodipodi:docname="utorrenta.svg"
   inkscape:export-filename="C:\Users\Admin\Documents\Rainmeter\Skins\Honeycomb-NG\@Resources\Images\openshot.png"
   inkscape:export-xdpi="512"
   inkscape:export-ydpi="512">
  <defs
     id="defs1995" />
  <sodipodi:namedview
     id="base"
     pagecolor="#ffffff"
     bordercolor="#666666"
     borderopacity="1.0"
     inkscape:pageopacity="0.0"
     inkscape:pageshadow="2"
     inkscape:zoom="22.027632"
     inkscape:cx="23.010435"
     inkscape:cy="14.06682"
     inkscape:document-units="px"
     inkscape:current-layer="layer1"
     showgrid="true"
     inkscape:window-width="1920"
     inkscape:window-height="1017"
     inkscape:window-x="-8"
     inkscape:window-y="-8"
     inkscape:window-maximized="1"
     inkscape:grid-bbox="true"
     inkscape:snap-global="false">
    <inkscape:grid
       type="xygrid"
       id="grid2562" />
  </sodipodi:namedview>
  <metadata
     id="metadata1998">
    <rdf:RDF>
      <cc:Work
         rdf:about="">
        <dc:format>image/svg+xml</dc:format>
        <dc:type
           rdf:resource="http://purl.org/dc/dcmitype/StillImage" />
        <dc:title></dc:title>
      </cc:Work>
    </rdf:RDF>
  </metadata>
  <g
     inkscape:label="Layer 1"
     inkscape:groupmode="layer"
     id="layer1">
    <path
       style="opacity:1;vector-effect:none;fill:#ffffff;fill-opacity:1;fill-rule:evenodd;stroke:none;stroke-width:2;stroke-linecap:round;stroke-linejoin:round;stroke-miterlimit:4;stroke-dasharray:none;paint-order:normal"
       d="M 24 13 C 18.46 13 14 17.46 14 23 C 14 27.542112 16.999598 31.354641 21.132812 32.582031 L 16.392578 19.869141 C 16.392578 19.869141 16.207148 19.310146 16.748047 19.197266 C 17.654323 19.008136 18.472091 18.850886 19.333984 18.679688 C 19.961494 18.555046 20.136719 19.115234 20.136719 19.115234 L 22.556641 24.585938 C 22.556641 24.585937 23.843473 26.668591 26.421875 25.714844 C 28.592238 24.91203 27.808594 23.142578 27.808594 23.142578 L 25.568359 18.015625 C 25.568359 18.015625 25.359167 17.572267 25.84375 17.466797 C 26.407785 17.344036 27.470224 17.143956 28.035156 17.025391 C 28.424699 16.943636 28.638672 17.347656 28.638672 17.347656 L 31.208984 22.833984 C 31.208984 22.833984 31.883511 24.247792 33.074219 24.257812 C 33.349333 24.260128 33.651271 24.155889 33.949219 24.015625 C 33.982602 23.681744 34 23.34296 34 23 C 34 17.46 29.54 13 24 13 z M 29.207031 25.564453 C 29.207031 25.564453 29.214784 27.098776 26.9375 27.990234 C 24.833048 28.814036 23.511719 28.181641 23.511719 28.181641 L 25.519531 32.873047 C 29.273247 32.303762 32.328108 29.672535 33.490234 26.154297 C 32.971772 26.340768 32.381885 26.48571 31.765625 26.488281 C 30.3766 26.494055 29.207031 25.564453 29.207031 25.564453 z "
       id="rect822" />
  </g>
</svg>
