<?xml version="1.0" encoding="UTF-8" standalone="no"?>
<!-- Created with Inkscape (http://www.inkscape.org/) -->

<svg
   xmlns:dc="http://purl.org/dc/elements/1.1/"
   xmlns:cc="http://creativecommons.org/ns#"
   xmlns:rdf="http://www.w3.org/1999/02/22-rdf-syntax-ns#"
   xmlns:svg="http://www.w3.org/2000/svg"
   xmlns="http://www.w3.org/2000/svg"
   xmlns:sodipodi="http://sodipodi.sourceforge.net/DTD/sodipodi-0.dtd"
   xmlns:inkscape="http://www.inkscape.org/namespaces/inkscape"
   width="48px"
   height="48px"
   viewBox="0 0 48 48"
   version="1.1"
   id="SVGRoot"
   inkscape:version="0.92.4 (5da689c313, 2019-01-14)"
   sodipodi:docname="vuzea.svg"
   inkscape:export-filename="C:\Users\Admin\Documents\Rainmeter\Skins\Honeycomb-NG\@Resources\Images\openshot.png"
   inkscape:export-xdpi="512"
   inkscape:export-ydpi="512">
  <defs
     id="defs1995" />
  <sodipodi:namedview
     id="base"
     pagecolor="#ffffff"
     bordercolor="#666666"
     borderopacity="1.0"
     inkscape:pageopacity="0.0"
     inkscape:pageshadow="2"
     inkscape:zoom="13.202999"
     inkscape:cx="0.5657688"
     inkscape:cy="19.743842"
     inkscape:document-units="px"
     inkscape:current-layer="layer1"
     showgrid="true"
     inkscape:window-width="1920"
     inkscape:window-height="1017"
     inkscape:window-x="-8"
     inkscape:window-y="-8"
     inkscape:window-maximized="1"
     inkscape:grid-bbox="true"
     inkscape:snap-global="false">
    <inkscape:grid
       type="xygrid"
       id="grid2562" />
  </sodipodi:namedview>
  <metadata
     id="metadata1998">
    <rdf:RDF>
      <cc:Work
         rdf:about="">
        <dc:format>image/svg+xml</dc:format>
        <dc:type
           rdf:resource="http://purl.org/dc/dcmitype/StillImage" />
        <dc:title></dc:title>
      </cc:Work>
    </rdf:RDF>
  </metadata>
  <g
     inkscape:label="Layer 1"
     inkscape:groupmode="layer"
     id="layer1">
    <path
       inkscape:connector-curvature="0"
       id="path830"
       d="m 25.241491,33.113506 c -0.376471,-0.138965 -0.962832,-0.37485 -1.303028,-0.524187 -0.340194,-0.149336 -1.216331,-0.407704 -1.946972,-0.574151 -1.812614,-0.412926 -2.77866,-1.075861 -3.554984,-2.43955 -0.225508,-0.396121 -0.610367,-0.888954 -0.855245,-1.095186 -0.244879,-0.206231 -0.551189,-0.540512 -0.680692,-0.742849 -0.192001,-0.299985 -0.375402,-0.385368 -0.993674,-0.462616 -1.543419,-0.192838 -2.226142,-1.412881 -1.22005,-2.180264 0.299961,-0.228793 0.576318,-0.633165 0.776621,-1.136378 0.425047,-1.06783 0.938774,-1.771812 1.417059,-1.941859 0.342034,-0.121606 0.448767,-0.09723 0.730848,0.166885 l 0.330321,0.309287 0.321317,-0.401909 c 0.237828,-0.29748 0.288031,-0.464104 0.193218,-0.641268 -0.07046,-0.131646 -0.128102,-0.427602 -0.128102,-0.657679 0,-0.388764 0.08463,-0.460846 1.19786,-1.020215 1.363244,-0.684996 1.536676,-0.925724 2.08916,-2.899799 0.452999,-1.618607 0.86039,-2.332552 1.597882,-2.800255 0.848227,-0.53793 2.0922,-0.916998 3.298703,-1.005195 0.958247,-0.07004 1.014313,-0.05715 1.462555,0.336409 0.317122,0.278437 0.556714,0.681512 0.749563,1.261023 0.256229,0.769969 0.271544,0.999897 0.159474,2.394077 -0.116128,1.444677 -0.157776,1.599019 -0.657923,2.438248 l -0.533948,0.895945 0.176485,1.050308 c 0.304639,1.812969 0.891121,3.003125 1.650338,3.349048 0.317529,0.144675 0.386373,0.112501 0.811475,-0.379271 0.255481,-0.295546 0.570428,-0.840591 0.699886,-1.211211 0.263225,-0.753573 0.697179,-1.075138 1.052713,-0.780069 0.354287,0.29403 0.240613,0.563649 -0.611988,1.451544 -0.573195,0.596924 -0.821389,0.962748 -0.821389,1.210683 0,0.351565 0.0082,0.354358 0.787165,0.266428 0.432941,-0.04888 1.02286,-0.207064 1.310937,-0.351532 0.657148,-0.329555 1.255906,-0.285899 1.255906,0.09157 0,0.227028 -0.151352,0.295329 -0.958288,0.43245 -0.527058,0.08956 -1.420321,0.293465 -1.985025,0.453116 -0.976662,0.276115 -1.128556,0.282288 -3.114436,0.126552 -1.818754,-0.142634 -2.087699,-0.194026 -2.087699,-0.39894 0,-0.20416 0.112957,-0.226674 0.855614,-0.170532 0.636033,0.04808 0.92588,0.01091 1.12941,-0.145047 0.270601,-0.207276 0.268411,-0.220235 -0.187649,-1.110243 -0.411687,-0.803414 -0.966123,-1.441986 -1.251993,-1.441986 -0.05621,0 -0.174972,0.29262 -0.263935,0.650267 -0.378482,1.521567 -1.508044,3.226428 -2.547924,3.845605 -0.261216,0.155536 -0.261324,0.162197 -0.0058,0.359963 0.143183,0.110827 0.697093,0.372686 1.230912,0.581918 1.232635,0.483137 2.136561,1.300218 2.136561,1.931289 0,0.508343 0.100749,0.52801 0.821391,0.160364 0.531673,-0.271239 1.234026,-0.368955 1.229988,-0.171123 -0.0087,0.427291 -1.329146,1.032294 -2.752419,1.26113 -1.34832,0.216781 -1.489331,0.263701 -1.489331,0.495562 0,0.226798 0.775875,0.740425 1.119631,0.741189 0.284679,6.85e-4 0.69027,0.388447 0.584776,0.559143 -0.114442,0.18518 -0.45677,0.14699 -1.225264,-0.136684 z"
       style="fill:#ffffff;stroke-width:0.13689828"
       sodipodi:nodetypes="csccscssssccsssssssscsscsscscssscsssssscssssssssccscsc" />
  </g>
</svg>
