<?xml version="1.0" encoding="UTF-8" standalone="no"?>
<!-- Created with Inkscape (http://www.inkscape.org/) -->

<svg
   xmlns:dc="http://purl.org/dc/elements/1.1/"
   xmlns:cc="http://creativecommons.org/ns#"
   xmlns:rdf="http://www.w3.org/1999/02/22-rdf-syntax-ns#"
   xmlns:svg="http://www.w3.org/2000/svg"
   xmlns="http://www.w3.org/2000/svg"
   xmlns:sodipodi="http://sodipodi.sourceforge.net/DTD/sodipodi-0.dtd"
   xmlns:inkscape="http://www.inkscape.org/namespaces/inkscape"
   width="48px"
   height="48px"
   viewBox="0 0 48 48"
   version="1.1"
   id="SVGRoot"
   inkscape:version="0.92.4 (5da689c313, 2019-01-14)"
   sodipodi:docname="winampa.svg">
  <defs
     id="defs1995" />
  <sodipodi:namedview
     id="base"
     pagecolor="#ffffff"
     bordercolor="#666666"
     borderopacity="1.0"
     inkscape:pageopacity="0.0"
     inkscape:pageshadow="2"
     inkscape:zoom="18.083334"
     inkscape:cx="23.935548"
     inkscape:cy="25.92516"
     inkscape:document-units="px"
     inkscape:current-layer="layer1"
     showgrid="true"
     inkscape:window-width="1920"
     inkscape:window-height="1017"
     inkscape:window-x="-8"
     inkscape:window-y="-8"
     inkscape:window-maximized="1"
     inkscape:grid-bbox="true"
     showguides="true"
     inkscape:guide-bbox="true"
     inkscape:snap-global="false">
    <inkscape:grid
       type="xygrid"
       id="grid2562" />
  </sodipodi:namedview>
  <metadata
     id="metadata1998">
    <rdf:RDF>
      <cc:Work
         rdf:about="">
        <dc:format>image/svg+xml</dc:format>
        <dc:type
           rdf:resource="http://purl.org/dc/dcmitype/StillImage" />
        <dc:title></dc:title>
      </cc:Work>
    </rdf:RDF>
  </metadata>
  <g
     inkscape:label="Layer 1"
     inkscape:groupmode="layer"
     id="layer1">
    <path
       style="color:#000000;font-style:normal;font-variant:normal;font-weight:normal;font-stretch:normal;font-size:medium;line-height:normal;font-family:sans-serif;font-variant-ligatures:normal;font-variant-position:normal;font-variant-caps:normal;font-variant-numeric:normal;font-variant-alternates:normal;font-feature-settings:normal;text-indent:0;text-align:start;text-decoration:none;text-decoration-line:none;text-decoration-style:solid;text-decoration-color:#000000;letter-spacing:normal;word-spacing:normal;text-transform:none;writing-mode:lr-tb;direction:ltr;text-orientation:mixed;dominant-baseline:auto;baseline-shift:baseline;text-anchor:start;white-space:normal;shape-padding:0;clip-rule:nonzero;display:inline;overflow:visible;visibility:visible;opacity:1;isolation:auto;mix-blend-mode:normal;color-interpolation:sRGB;color-interpolation-filters:linearRGB;solid-color:#000000;solid-opacity:1;vector-effect:none;fill:#ffffff;fill-opacity:1;fill-rule:nonzero;stroke:none;stroke-width:2;stroke-linecap:round;stroke-linejoin:round;stroke-miterlimit:4;stroke-dasharray:none;stroke-dashoffset:0;stroke-opacity:1;color-rendering:auto;image-rendering:auto;shape-rendering:auto;text-rendering:auto;enable-background:accumulate"
       d="M 23.984375 13 C 23.724601 13.0041 23.476635 13.109213 23.292969 13.292969 L 14.292969 22.292969 C 13.902601 22.683499 13.902601 23.316501 14.292969 23.707031 L 18.105469 27.519531 L 18.703125 26.902344 L 15.136719 23.335938 C 14.950515 23.150682 14.950515 22.849318 15.136719 22.664062 L 23.664062 14.136719 C 23.751243 14.049579 23.868939 13.999837 23.992188 13.998047 C 24.120846 13.995647 24.244934 14.045737 24.335938 14.136719 L 27.466797 17.267578 L 28.236328 16.822266 L 24.707031 13.292969 C 24.515708 13.101557 24.254978 12.995856 23.984375 13 z M 29.535156 18.121094 L 28.943359 18.744141 L 32.863281 22.664062 C 33.049485 22.849318 33.049485 23.150682 32.863281 23.335938 L 24.335938 31.863281 C 24.150682 32.049485 23.849317 32.049485 23.664062 31.863281 L 20.564453 28.763672 L 19.826172 29.240234 L 23.292969 32.707031 C 23.683499 33.097399 24.316501 33.097399 24.707031 32.707031 L 33.707031 23.707031 C 34.097399 23.316501 34.097399 22.683499 33.707031 22.292969 L 29.535156 18.121094 z "
       id="path829" />
    <path
       style="color:#000000;font-style:normal;font-variant:normal;font-weight:normal;font-stretch:normal;font-size:medium;line-height:normal;font-family:sans-serif;font-variant-ligatures:normal;font-variant-position:normal;font-variant-caps:normal;font-variant-numeric:normal;font-variant-alternates:normal;font-feature-settings:normal;text-indent:0;text-align:start;text-decoration:none;text-decoration-line:none;text-decoration-style:solid;text-decoration-color:#000000;letter-spacing:normal;word-spacing:normal;text-transform:none;writing-mode:lr-tb;direction:ltr;text-orientation:mixed;dominant-baseline:auto;baseline-shift:baseline;text-anchor:start;white-space:normal;shape-padding:0;clip-rule:nonzero;display:inline;overflow:visible;visibility:visible;opacity:1;isolation:auto;mix-blend-mode:normal;color-interpolation:sRGB;color-interpolation-filters:linearRGB;solid-color:#000000;solid-opacity:1;vector-effect:none;fill:#ffffff;fill-opacity:1;fill-rule:nonzero;stroke:none;stroke-width:2;stroke-linecap:round;stroke-linejoin:round;stroke-miterlimit:4;stroke-dasharray:none;stroke-dashoffset:0;stroke-opacity:1;color-rendering:auto;image-rendering:auto;shape-rendering:auto;text-rendering:auto;enable-background:accumulate"
       d="M 30.626953 14.421875 A 1.0001 1.0001 0 0 0 30.15625 14.556641 L 18.695312 21.189453 A 1.0001 1.0001 0 0 0 18.195312 22.054688 L 18.195312 24.210938 A 1.0001 1.0001 0 0 0 18.972656 25.183594 L 15.757812 28.507812 A 1.0001 1.0001 0 0 0 15.476562 29.203125 L 15.476562 31.40625 A 1.0001 1.0001 0 0 0 17.019531 32.246094 L 28.949219 24.535156 A 1.0001 1.0001 0 0 0 29.40625 23.695312 L 29.40625 21.492188 A 1.0001 1.0001 0 0 0 28.800781 20.572266 L 28.646484 20.505859 L 31.380859 17.634766 A 1.0001 1.0001 0 0 0 31.65625 16.945312 L 31.65625 15.421875 A 1.0001 1.0001 0 0 0 30.626953 14.421875 z M 30.65625 15.421875 L 30.65625 16.945312 L 26.929688 20.859375 L 28.40625 21.492188 L 28.40625 23.695312 L 16.476562 31.40625 L 16.476562 29.203125 L 21.304688 24.210938 L 19.195312 24.210938 L 19.195312 22.054688 L 30.65625 15.421875 z "
       id="path831" />
    <path
       style="fill:#ffffff;stroke:none"
       d="m 16.904271,29.173283 11.368951,-7.524058 c 0,0 -3.245794,1.63829 -4.772971,2.618504 -2.305939,1.480061 -6.59598,4.905554 -6.59598,4.905554 z"
       id="path868"
       inkscape:connector-curvature="0"
       sodipodi:nodetypes="ccsc" />
    <path
       style="fill:#ffffff;stroke:none"
       d="m 19.539349,22.096691 3.82832,-0.04972 c 0,0 -0.799439,0.220237 -1.82301,0.248592 -1.023571,0.02835 -2.00531,-0.198872 -2.00531,-0.198872 z"
       id="path870"
       inkscape:connector-curvature="0"
       sodipodi:nodetypes="cczc" />
    <path
       style="fill:#ffffff;stroke:none"
       d="m 25.323261,20.306827 5.071281,-4.673534 c 0,0 -1.337688,1.567588 -2.088175,2.270476 -0.931955,0.872846 -2.983106,2.403058 -2.983106,2.403058 z"
       id="path872"
       inkscape:connector-curvature="0"
       sodipodi:nodetypes="ccsc" />
  </g>
</svg>
