<?xml version="1.0" encoding="UTF-8" standalone="no"?>
<!-- Created with Inkscape (http://www.inkscape.org/) -->

<svg
   xmlns:dc="http://purl.org/dc/elements/1.1/"
   xmlns:cc="http://creativecommons.org/ns#"
   xmlns:rdf="http://www.w3.org/1999/02/22-rdf-syntax-ns#"
   xmlns:svg="http://www.w3.org/2000/svg"
   xmlns="http://www.w3.org/2000/svg"
   xmlns:sodipodi="http://sodipodi.sourceforge.net/DTD/sodipodi-0.dtd"
   xmlns:inkscape="http://www.inkscape.org/namespaces/inkscape"
   width="48px"
   height="48px"
   viewBox="0 0 48 48"
   version="1.1"
   id="SVGRoot"
   inkscape:version="0.92.4 (5da689c313, 2019-01-14)"
   sodipodi:docname="spore-modapia.svg"
   inkscape:export-filename="C:\Users\Admin\Documents\Rainmeter\Skins\Honeycomb-NG\@Resources\Images\openshot.png"
   inkscape:export-xdpi="512"
   inkscape:export-ydpi="512">
  <defs
     id="defs1995" />
  <sodipodi:namedview
     id="base"
     pagecolor="#ffffff"
     bordercolor="#666666"
     borderopacity="1.0"
     inkscape:pageopacity="0.0"
     inkscape:pageshadow="2"
     inkscape:zoom="13.416126"
     inkscape:cx="4.4174182"
     inkscape:cy="25.99178"
     inkscape:document-units="px"
     inkscape:current-layer="layer1"
     showgrid="true"
     inkscape:window-width="1920"
     inkscape:window-height="1017"
     inkscape:window-x="-8"
     inkscape:window-y="-8"
     inkscape:window-maximized="1"
     inkscape:grid-bbox="true"
     inkscape:snap-global="true"
     showguides="false">
    <inkscape:grid
       type="xygrid"
       id="grid2562" />
  </sodipodi:namedview>
  <metadata
     id="metadata1998">
    <rdf:RDF>
      <cc:Work
         rdf:about="">
        <dc:format>image/svg+xml</dc:format>
        <dc:type
           rdf:resource="http://purl.org/dc/dcmitype/StillImage" />
        <dc:title></dc:title>
      </cc:Work>
    </rdf:RDF>
  </metadata>
  <g
     inkscape:label="Layer 1"
     inkscape:groupmode="layer"
     id="layer1">
    <path
       style="opacity:1;vector-effect:none;fill:#498899;fill-opacity:1;fill-rule:evenodd;stroke-width:1.52193034;paint-order:normal"
       d="M 26.294922 9 C 23.944656 9.068095 21.504288 9.8777708 19.765625 11.408203 C 18.905512 12.165305 18.198442 13.058716 17.640625 14.023438 C 19.434997 12.752401 21.624179 12 24 12 C 24.486823 12 24.961876 12.042794 25.431641 12.103516 C 26.910856 11.718507 28.528762 11.730046 30.255859 12.15625 C 33.083374 12.854009 33.695992 12.517517 32.285156 11.044922 C 30.905463 9.6048293 28.645189 8.9319084 26.294922 9 z M 16.037109 10.986328 C 15.586069 11.027745 14.89033 11.376781 14.037109 12.080078 C 11.304076 14.332872 10.119042 18.830726 11.240234 22.6875 C 11.604736 23.941338 12.450043 25.253212 13.527344 26.375 C 13.186819 25.3116 13 24.179331 13 23 C 13 21.45345 13.317496 19.985095 13.888672 18.652344 C 13.965317 16.72907 14.626898 14.781388 15.84375 13.101562 C 16.859674 11.699119 16.788843 10.917301 16.037109 10.986328 z M 30.693359 14.273438 C 32.762069 15.860157 34.252092 18.158894 34.783203 20.818359 C 35.907402 22.273279 36.443431 23.801461 36.738281 26.291016 C 36.991725 28.430951 37.652621 28.048435 38.191406 25.453125 C 38.642125 23.282028 38.238082 21.13314 36.921875 18.714844 C 35.541345 16.178356 33.504678 14.721589 30.693359 14.273438 z M 10.394531 26.533203 C 10.314854 26.555043 10.257427 26.630803 10.210938 26.751953 C 9.7879806 27.854162 10.760042 30.041291 12.408203 31.689453 C 15.392649 34.673899 19.622367 35.533405 23.328125 33.966797 C 20.940987 33.823403 18.762414 32.935988 17.029297 31.517578 C 17.028491 31.516918 17.026197 31.518238 17.025391 31.517578 C 15.172714 30.987482 13.933531 30.089674 12.125 28.060547 C 11.083345 26.891839 10.633562 26.467685 10.394531 26.533203 z M 34.101562 27.365234 C 33.134082 29.611265 31.442957 31.46528 29.316406 32.636719 C 28.473023 33.782565 27.328312 34.85158 25.853516 35.800781 C 25.153848 36.251098 24.208921 36.425594 23.882812 36.429688 C 23.198764 36.438088 23.088275 36.969901 23.712891 37.248047 C 24.517334 37.606274 27.017031 37.127445 28.644531 36.302734 C 31.981606 34.611708 34.112442 31.278316 34.125 27.726562 C 34.125429 27.604412 34.10525 27.48663 34.101562 27.365234 z "
       id="rect847" />
    <path
       style="opacity:1;vector-effect:none;fill:#eceff4;fill-opacity:1;fill-rule:evenodd;stroke:none;stroke-width:2;stroke-linecap:round;stroke-linejoin:round;stroke-miterlimit:4;stroke-dasharray:none;paint-order:normal"
       d="M 24 13 C 18.46 13 14 17.46 14 23 C 14 28.54 18.46 33 24 33 C 29.54 33 34 28.54 34 23 C 34 17.46 29.54 13 24 13 z M 25.101562 16.205078 C 26.243224 16.172003 27.339568 16.499682 28.009766 17.199219 C 28.695091 17.914544 28.396926 18.077224 27.023438 17.738281 C 25.650317 17.399429 24.419517 17.591759 23.394531 18.304688 C 22.739453 18.760324 21.815308 20.192259 22.035156 20.412109 C 22.098571 20.475521 22.443666 20.261895 22.802734 19.9375 C 23.796376 19.039805 24.409963 18.787588 25.800781 18.705078 C 27.935336 18.578433 29.377288 19.295248 30.263672 20.923828 C 30.90303 22.098536 31.097846 23.142638 30.878906 24.197266 C 30.617186 25.45796 30.296941 25.643008 30.173828 24.603516 C 30.012804 23.243907 29.70506 22.475707 29.007812 21.683594 C 28.642539 21.268623 28.045271 20.793018 27.679688 20.626953 C 26.472048 20.078394 25.184447 20.338806 26.308594 20.904297 C 27.899597 21.704635 28.910897 23.416929 28.904297 25.302734 C 28.898198 27.028029 27.8632 28.645367 26.242188 29.466797 C 25.451615 29.867405 24.236467 30.099792 23.845703 29.925781 C 23.542287 29.790668 23.595452 29.533397 23.927734 29.529297 C 24.086144 29.527308 24.544897 29.441402 24.884766 29.222656 C 26.915891 27.915393 27.688226 26.151491 27.351562 24.34375 C 27.204663 23.554962 26.806814 23.620181 26.681641 24.390625 C 26.38862 26.194196 25.504828 27.422851 23.939453 28.205078 C 22.075645 29.136434 19.881091 28.752184 18.355469 27.226562 C 17.554862 26.425955 17.081654 25.363533 17.287109 24.828125 C 17.377439 24.592728 17.542141 24.705945 18.216797 25.462891 C 19.220809 26.589366 19.862451 26.999761 21.001953 27.244141 C 21.985592 27.455093 22.881166 27.276154 23.681641 26.707031 C 24.338584 26.239961 24.291553 25.84684 23.599609 26.023438 C 22.706285 26.251428 21.278102 26.138816 20.460938 25.777344 C 19.263617 25.247712 18.119436 23.996679 17.787109 22.853516 C 17.242479 20.980055 17.81889 18.795486 19.146484 17.701172 C 20.251707 16.790151 20.813028 17.107268 20.023438 18.197266 C 19.150697 19.402042 18.849953 20.890737 19.214844 22.205078 C 19.411419 22.913144 20.471916 24.103516 20.90625 24.103516 C 21.247432 24.103516 21.240304 24.003663 20.865234 23.46875 C 19.646796 21.731058 20.130161 18.957288 21.927734 17.375 C 22.772304 16.631579 23.959902 16.238158 25.101562 16.205078 z "
       id="rect822" />
  </g>
</svg>
