<?xml version="1.0" encoding="UTF-8" standalone="no"?>
<!-- Created with Inkscape (http://www.inkscape.org/) -->

<svg
   xmlns:dc="http://purl.org/dc/elements/1.1/"
   xmlns:cc="http://creativecommons.org/ns#"
   xmlns:rdf="http://www.w3.org/1999/02/22-rdf-syntax-ns#"
   xmlns:svg="http://www.w3.org/2000/svg"
   xmlns="http://www.w3.org/2000/svg"
   xmlns:sodipodi="http://sodipodi.sourceforge.net/DTD/sodipodi-0.dtd"
   xmlns:inkscape="http://www.inkscape.org/namespaces/inkscape"
   width="48px"
   height="48px"
   viewBox="0 0 48 48"
   version="1.1"
   id="SVGRoot"
   inkscape:version="0.92.4 (5da689c313, 2019-01-14)"
   sodipodi:docname="spore-modapi-installera.svg"
   inkscape:export-filename="C:\Users\Admin\Documents\Rainmeter\Skins\Honeycomb-NG\@Resources\Images\openshot.png"
   inkscape:export-xdpi="512"
   inkscape:export-ydpi="512">
  <defs
     id="defs1995" />
  <sodipodi:namedview
     id="base"
     pagecolor="#ffffff"
     bordercolor="#666666"
     borderopacity="1.0"
     inkscape:pageopacity="0.0"
     inkscape:pageshadow="2"
     inkscape:zoom="18.671859"
     inkscape:cx="15.031457"
     inkscape:cy="28.854315"
     inkscape:document-units="px"
     inkscape:current-layer="layer1"
     showgrid="true"
     inkscape:window-width="1920"
     inkscape:window-height="1017"
     inkscape:window-x="-8"
     inkscape:window-y="-8"
     inkscape:window-maximized="1"
     inkscape:grid-bbox="true"
     inkscape:snap-global="true">
    <inkscape:grid
       type="xygrid"
       id="grid2562" />
  </sodipodi:namedview>
  <metadata
     id="metadata1998">
    <rdf:RDF>
      <cc:Work
         rdf:about="">
        <dc:format>image/svg+xml</dc:format>
        <dc:type
           rdf:resource="http://purl.org/dc/dcmitype/StillImage" />
        <dc:title></dc:title>
      </cc:Work>
    </rdf:RDF>
  </metadata>
  <g
     inkscape:label="Layer 1"
     inkscape:groupmode="layer"
     id="layer1">
    <path
       style="opacity:1;vector-effect:none;fill:#d08770;fill-opacity:1;fill-rule:evenodd;stroke-width:1.52193034;paint-order:normal"
       d="M 26.294922 9 C 23.944656 9.068095 21.504288 9.8777708 19.765625 11.408203 C 18.905512 12.165305 18.198442 13.058716 17.640625 14.023438 C 19.434997 12.752401 21.624179 12 24 12 C 24.486823 12 24.961876 12.042794 25.431641 12.103516 C 26.910856 11.718507 28.528762 11.730046 30.255859 12.15625 C 33.083374 12.854009 33.695992 12.517517 32.285156 11.044922 C 30.905463 9.6048293 28.645189 8.9319084 26.294922 9 z M 16.037109 10.986328 C 15.586069 11.027745 14.89033 11.376781 14.037109 12.080078 C 11.304076 14.332872 10.119042 18.830726 11.240234 22.6875 C 11.604736 23.941338 12.450043 25.253212 13.527344 26.375 C 13.186819 25.3116 13 24.179331 13 23 C 13 21.45345 13.317496 19.985095 13.888672 18.652344 C 13.965317 16.72907 14.626898 14.781388 15.84375 13.101562 C 16.859674 11.699119 16.788843 10.917301 16.037109 10.986328 z M 30.693359 14.273438 C 32.762069 15.860157 34.252092 18.158894 34.783203 20.818359 C 35.907402 22.273279 36.443431 23.801461 36.738281 26.291016 C 36.991725 28.430951 37.652621 28.048435 38.191406 25.453125 C 38.642125 23.282028 38.238082 21.13314 36.921875 18.714844 C 35.541345 16.178356 33.504678 14.721589 30.693359 14.273438 z M 10.394531 26.533203 C 10.314854 26.555043 10.257427 26.630803 10.210938 26.751953 C 9.7879806 27.854162 10.760042 30.041291 12.408203 31.689453 C 15.392649 34.673899 19.622367 35.533405 23.328125 33.966797 C 20.940987 33.823403 18.762414 32.935988 17.029297 31.517578 C 17.028491 31.516918 17.026197 31.518238 17.025391 31.517578 C 15.172714 30.987482 13.933531 30.089674 12.125 28.060547 C 11.083345 26.891839 10.633562 26.467685 10.394531 26.533203 z M 34.101562 27.365234 C 33.134082 29.611265 31.442957 31.46528 29.316406 32.636719 C 28.473023 33.782565 27.328312 34.85158 25.853516 35.800781 C 25.153848 36.251098 24.208921 36.425594 23.882812 36.429688 C 23.198764 36.438088 23.088275 36.969901 23.712891 37.248047 C 24.517334 37.606274 27.017031 37.127445 28.644531 36.302734 C 31.981606 34.611708 34.112442 31.278316 34.125 27.726562 C 34.125429 27.604412 34.10525 27.48663 34.101562 27.365234 z "
       id="rect847" />
    <path
       style="opacity:1;vector-effect:none;fill:#4c566a;fill-opacity:1;fill-rule:evenodd;stroke:none;stroke-width:2;stroke-linecap:round;stroke-linejoin:round;stroke-miterlimit:4;stroke-dasharray:none;paint-order:normal"
       d="M 24 13 C 18.46 13 14 17.46 14 23 C 14 28.54 18.46 33 24 33 C 29.54 33 34 28.54 34 23 C 34 17.46 29.54 13 24 13 z M 24 17.166016 L 29 19.666016 L 24 22.166016 L 19 19.666016 L 24 17.166016 z M 19 21.333984 L 23.166016 23.833984 L 23.166016 28.833984 L 19 26.333984 L 19 21.333984 z M 29 21.333984 L 29 26.333984 L 24.833984 28.833984 L 24.833984 23.833984 L 29 21.333984 z "
       id="rect822" />
  </g>
</svg>
