<?xml version="1.0" encoding="UTF-8" standalone="no"?>
<!-- Created with Inkscape (http://www.inkscape.org/) -->

<svg
   xmlns:dc="http://purl.org/dc/elements/1.1/"
   xmlns:cc="http://creativecommons.org/ns#"
   xmlns:rdf="http://www.w3.org/1999/02/22-rdf-syntax-ns#"
   xmlns:svg="http://www.w3.org/2000/svg"
   xmlns="http://www.w3.org/2000/svg"
   xmlns:sodipodi="http://sodipodi.sourceforge.net/DTD/sodipodi-0.dtd"
   xmlns:inkscape="http://www.inkscape.org/namespaces/inkscape"
   width="48px"
   height="48px"
   viewBox="0 0 48 48"
   version="1.1"
   id="SVGRoot"
   inkscape:version="0.92.4 (5da689c313, 2019-01-14)"
   sodipodi:docname="bforartistsa.svg">
  <defs
     id="defs1995" />
  <sodipodi:namedview
     id="base"
     pagecolor="#ffffff"
     bordercolor="#666666"
     borderopacity="1.0"
     inkscape:pageopacity="0.0"
     inkscape:pageshadow="2"
     inkscape:zoom="12.731158"
     inkscape:cx="10.398151"
     inkscape:cy="24.627815"
     inkscape:document-units="px"
     inkscape:current-layer="layer1"
     showgrid="true"
     inkscape:window-width="1920"
     inkscape:window-height="1017"
     inkscape:window-x="-8"
     inkscape:window-y="-8"
     inkscape:window-maximized="1"
     inkscape:grid-bbox="true"
     inkscape:snap-global="false">
    <inkscape:grid
       type="xygrid"
       id="grid2562" />
  </sodipodi:namedview>
  <metadata
     id="metadata1998">
    <rdf:RDF>
      <cc:Work
         rdf:about="">
        <dc:format>image/svg+xml</dc:format>
        <dc:type
           rdf:resource="http://purl.org/dc/dcmitype/StillImage" />
        <dc:title></dc:title>
      </cc:Work>
    </rdf:RDF>
  </metadata>
  <g
     inkscape:label="Layer 1"
     inkscape:groupmode="layer"
     id="layer1">
    <path
       style="fill:#ffffff;stroke-width:0.40906078"
       d="m 24.855388,30.920028 c 0,0 -0.13441,-0.199103 0.287433,-0.620947 0.421845,-0.421844 0.72864,-0.230097 1.41893,0.115049 0.69029,0.345145 1.705188,1.055971 2.318779,0.288983 0.613591,-0.766989 -0.0767,-2.837859 -1.380581,-4.563584 -1.30388,-1.725725 -1.725725,-4.295138 -0.498542,-5.445621 1.227182,-1.150484 3.259703,-0.805339 4.563583,1.188832 1.303882,1.994172 1.879124,3.911644 1.840774,6.097562 -0.03834,2.185919 -1.599211,4.966253 -3.662372,5.042952 -1.305233,0.04852 -2.199255,-0.08736 -3.202178,-0.671114 -1.34957,-0.785525 -1.685826,-1.432112 -1.685826,-1.432112 z"
       id="path843"
       inkscape:connector-curvature="0"
       sodipodi:nodetypes="csssssssssc" />
    <path
       style="fill:#ffffff;stroke-width:0.40906078"
       d="m 30.636991,19.767613 c 0,0 -0.108207,0.214473 -0.682259,0.05208 -0.574052,-0.162383 -0.556377,-0.52374 -0.591927,-1.294688 -0.03556,-0.770949 0.0897,-2.00367 -0.879174,-2.165017 -0.968883,-0.161347 -2.439681,1.451649 -3.309814,3.431826 -0.870133,1.980177 -2.907083,3.602111 -4.510105,3.092295 -1.603021,-0.509815 -2.293497,-2.452367 -1.189042,-4.563529 1.104454,-2.111162 2.497491,-3.548886 4.424242,-4.582006 1.926753,-1.033119 5.115251,-1.02731 6.188896,0.736154 0.679228,1.115633 0.996847,1.962306 0.976663,3.122574 -0.02716,1.561297 -0.42748,2.170303 -0.42748,2.170303 z"
       id="path843-6"
       inkscape:connector-curvature="0"
       sodipodi:nodetypes="csssssssssc" />
    <path
       style="fill:#ffffff;stroke-width:0.40906078"
       d="m 18.021158,20.207917 c 0,0 0.240089,-0.0081 0.373338,0.573421 0.13325,0.581506 -0.192215,0.739536 -0.851352,1.140963 -0.659155,0.401423 -1.800575,0.883556 -1.476803,1.810884 0.323774,0.927328 2.444929,1.442793 4.599688,1.255059 2.15476,-0.187734 4.555643,0.820033 4.878301,2.470936 0.322656,1.650903 -1.049633,3.189436 -3.431815,3.234543 -2.382182,0.04511 -4.312256,-0.486325 -6.143748,-1.680204 -1.831487,-1.193881 -3.357636,-3.99342 -2.326447,-5.78204 0.652375,-1.131547 1.242486,-1.81675 2.269891,-2.356254 1.382516,-0.725976 2.108947,-0.667308 2.108947,-0.667308 z"
       id="path843-6-3"
       inkscape:connector-curvature="0"
       sodipodi:nodetypes="csssssssssc" />
  </g>
</svg>
