<?xml version="1.0" encoding="UTF-8" standalone="no"?>
<!-- Created with Inkscape (http://www.inkscape.org/) -->

<svg
   xmlns:dc="http://purl.org/dc/elements/1.1/"
   xmlns:cc="http://creativecommons.org/ns#"
   xmlns:rdf="http://www.w3.org/1999/02/22-rdf-syntax-ns#"
   xmlns:svg="http://www.w3.org/2000/svg"
   xmlns="http://www.w3.org/2000/svg"
   xmlns:sodipodi="http://sodipodi.sourceforge.net/DTD/sodipodi-0.dtd"
   xmlns:inkscape="http://www.inkscape.org/namespaces/inkscape"
   width="48px"
   height="48px"
   viewBox="0 0 48 48"
   version="1.1"
   id="SVGRoot"
   inkscape:version="0.92.4 (5da689c313, 2019-01-14)"
   sodipodi:docname="crocotile-3da.svg"
   inkscape:export-filename="C:\Users\Admin\Documents\Rainmeter\Skins\Honeycomb-NG\@Resources\Images\openshot.png"
   inkscape:export-xdpi="512"
   inkscape:export-ydpi="512">
  <defs
     id="defs1995" />
  <sodipodi:namedview
     id="base"
     pagecolor="#ffffff"
     bordercolor="#666666"
     borderopacity="1.0"
     inkscape:pageopacity="0.0"
     inkscape:pageshadow="2"
     inkscape:zoom="25.986514"
     inkscape:cx="18.268613"
     inkscape:cy="22.719009"
     inkscape:document-units="px"
     inkscape:current-layer="layer1"
     showgrid="true"
     inkscape:window-width="1920"
     inkscape:window-height="1017"
     inkscape:window-x="-8"
     inkscape:window-y="-8"
     inkscape:window-maximized="1"
     inkscape:grid-bbox="true"
     inkscape:snap-global="true">
    <inkscape:grid
       type="xygrid"
       id="grid2562" />
  </sodipodi:namedview>
  <metadata
     id="metadata1998">
    <rdf:RDF>
      <cc:Work
         rdf:about="">
        <dc:format>image/svg+xml</dc:format>
        <dc:type
           rdf:resource="http://purl.org/dc/dcmitype/StillImage" />
        <dc:title></dc:title>
      </cc:Work>
    </rdf:RDF>
  </metadata>
  <g
     inkscape:label="Layer 1"
     inkscape:groupmode="layer"
     id="layer1">
    <path
       style="fill:#ffffff;stroke-width:0.12963611;fill-opacity:1"
       d="m 24.888583,12.567813 c -0.213946,-0.01041 -0.426996,0.120246 -0.654292,0.390377 -0.184588,0.219369 -0.336493,0.481335 -0.336493,0.582814 0,0.231117 -0.06615,0.231411 -0.425566,0 -0.157916,-0.10167 -0.49474,-0.223044 -0.74886,-0.269414 -0.549305,-0.100247 -0.717838,0.05225 -0.869825,0.788448 -0.104332,0.505375 -0.108973,0.508485 -0.812641,0.572918 -0.649664,0.05949 -0.711296,0.09305 -0.747763,0.407972 -0.02185,0.188727 0.05233,0.564014 0.164948,0.833535 0.23196,0.55516 0.186377,0.636533 -0.448658,0.798347 -0.278937,0.07108 -0.526495,0.2463 -0.644396,0.456355 -0.177873,0.316901 -0.169712,0.365172 0.113272,0.666388 0.321478,0.3422 0.295698,0.726869 -0.04839,0.726869 -0.269215,0 -0.26447,0.748442 0.0065,1.047967 0.187947,0.207679 0.182492,0.24967 -0.06488,0.497042 -0.298289,0.298289 -0.348589,0.65759 -0.123161,0.88302 0.109462,0.109461 0.05374,0.227559 -0.219929,0.462953 -0.358387,0.308271 -0.362383,0.323912 -0.147354,0.652093 0.300937,0.459293 0.285284,0.703125 -0.02749,0.420066 -0.136721,-0.123727 -0.385719,-0.206093 -0.552024,-0.182542 -0.246379,0.0349 -0.309207,0.13282 -0.341991,0.528933 -0.04719,0.570204 -0.170866,0.615333 -0.418968,0.151751 -0.14425,-0.26951 -0.247599,-0.320402 -0.530031,-0.263916 -0.325481,0.0651 -0.357256,0.03147 -0.439861,-0.457454 -0.04897,-0.289827 -0.06826,-1.030967 -0.04289,-1.647278 0.04517,-1.097441 0.03997,-1.120106 -0.246322,-1.089754 -0.947971,0.100507 -2.533501,2.034829 -2.950362,3.599158 -0.057,0.213898 -0.127354,0.475865 -0.156151,0.582813 -0.260333,0.967054 -0.151675,2.152487 0.3211,3.49689 0.195591,0.556197 1.701566,1.843252 1.976072,2.256483 0.739523,1.113261 0.857522,1.51947 1.884803,1.876004 l -0.0374,0.101172 c 0.0145,0.06937 0.0035,0.146054 -0.03958,0.259517 -0.154026,0.405128 -0.154349,0.834373 -0.0011,1.076558 0.09868,0.155943 0.151867,0.15821 0.326595,0.01319 0.170995,-0.141909 0.297991,-0.143445 0.705978,-0.0088 0.524707,0.173171 1.146324,0.134536 2.048648,-0.126456 0.500156,-0.144669 0.602177,-0.13003 1.225012,0.180341 0.373549,0.186148 0.768944,0.338953 0.87972,0.338693 0.368144,-9e-4 0.977497,-0.469127 1.237108,-0.951198 0.136524,-0.253511 0.306691,-0.408113 0.379378,-0.433262 1.103958,-0.381953 2.439974,-0.548654 3.165895,-0.588313 0.669471,-0.03658 0.765377,-0.01876 1.083156,0.312302 0.479076,0.499077 1.076663,0.491319 1.725352,-0.0242 0.392228,-0.311704 0.614225,-0.389277 1.119445,-0.389277 0.250153,0 0.463577,0.02887 0.56522,0.07038 l 0.420066,-0.0231 c 0.0653,-0.04148 0.271401,-0.04728 0.726871,-0.04728 0.952242,0 1.080303,-0.150231 0.650992,-0.763157 -0.177422,-0.253305 -0.182148,-0.320503 -0.0319,-0.415668 0.0986,-0.06245 0.251768,-0.114445 0.340893,-0.11546 0.225748,-0.0028 0.202454,-0.331976 -0.04069,-0.575119 -0.222799,-0.222798 -0.146439,-0.464052 0.146253,-0.464052 0.277671,0 0.22625,-0.342358 -0.09677,-0.643296 -0.341609,-0.318258 -1.205164,-0.346878 -1.984869,-0.06598 -0.285199,0.102751 -0.527115,0.188126 -0.53663,0.18914 -0.0095,0.001 -0.04884,-0.159113 -0.08797,-0.355187 -0.05273,-0.264113 -7.89e-4,-0.411649 0.201237,-0.568521 0.232393,-0.180454 0.278349,-0.370916 0.307901,-1.292089 0.01908,-0.594502 -0.0243,-1.151113 -0.09567,-1.237106 -0.208754,-0.251535 -1.930868,-1.031971 -2.70624,-1.226111 -0.39215,-0.09819 -1.030595,-0.367981 -1.418549,-0.600409 -0.387956,-0.232429 -0.780903,-0.423367 -0.874222,-0.423367 -0.270598,0 -0.19753,-0.448875 0.120958,-0.738964 0.344643,-0.313909 0.774577,-0.546421 1.273396,-0.689482 0.279835,-0.08026 0.411212,-0.0469 0.585014,0.145154 0.219201,0.242215 0.230428,0.237837 0.467352,-0.151752 0.283684,-0.466479 0.434695,-0.449693 0.731267,0.07808 0.119139,0.212023 0.23022,0.407474 0.246322,0.435462 0.07875,0.13688 0.437444,-0.325364 0.530031,-0.682883 0.09845,-0.380161 0.151811,-0.411122 0.874223,-0.50254 0.800163,-0.101265 0.865921,-0.07186 1.220613,0.545427 0.153254,0.266718 0.479371,-0.02352 0.589411,-0.524535 0.06357,-0.28938 0.231916,-0.459099 0.688383,-0.69058 1.209559,-0.613385 1.297578,-1.007736 0.404671,-1.814424 -0.282155,-0.25491 -0.512439,-0.547851 -0.512439,-0.649893 0,-0.358511 -0.399145,-0.601934 -0.953395,-0.581715 -0.524673,0.01913 -1.757978,-0.168033 -2.169612,-0.329895 -0.114879,-0.04518 -0.280091,0.0072 -0.372781,0.118756 -0.224471,0.270469 -0.475663,0.251639 -0.924805,-0.06818 -0.271459,-0.193295 -0.376082,-0.375619 -0.376082,-0.654294 0,-0.212584 -0.08976,-0.559535 -0.199036,-0.770854 -0.143243,-0.276994 -0.173986,-0.564341 -0.112163,-1.030373 0.07926,-0.597421 0.06456,-0.646595 -0.186941,-0.646595 -0.149672,0 -0.593888,0.147667 -0.987486,0.327697 l -0.715874,0.327696 -0.487143,-0.25402 C 26.126971,13.598557 25.744093,13.276621 25.544978,13.021943 25.31634,12.729505 25.102432,12.578258 24.888486,12.567788 Z m 0.147354,0.448657 c 0.01857,-3.01e-4 0.02858,0.0084 0.02858,0.02858 0,0.08043 -0.05244,0.1792 -0.116568,0.218831 -0.06412,0.03963 -0.244821,0.29102 -0.402473,0.558623 -0.254644,0.432238 -0.258517,0.461057 -0.03519,0.259517 0.138264,-0.124769 0.308108,-0.226528 0.37828,-0.226528 0.254781,0 0.803861,0.726972 1.006181,1.332776 0.294486,0.881776 0.273278,1.000682 -0.181443,1.000682 -0.332155,0 -0.389277,-0.04932 -0.389277,-0.336492 0,-0.227202 -0.08432,-0.357753 -0.259518,-0.403572 -0.142599,-0.03729 -0.258417,-0.152277 -0.258417,-0.255119 0,-0.102855 -0.06232,-0.148282 -0.138556,-0.101171 -0.07622,0.04711 -0.121368,0.326231 -0.10006,0.621304 0.03064,0.424456 -0.0084,0.546452 -0.185841,0.580614 -0.193584,0.03729 -0.22609,-0.07868 -0.240824,-0.842331 -0.01407,-0.72896 -0.03456,-0.80388 -0.113258,-0.429964 l -0.09567,0.453057 -0.01214,-0.453056 c -0.0069,-0.24955 0.06564,-0.594086 0.160549,-0.765357 0.09491,-0.17127 0.142232,-0.434336 0.105572,-0.583913 -0.03667,-0.149577 -0.01837,-0.227119 0.04069,-0.172647 0.05906,0.05447 0.27183,-0.05813 0.47285,-0.25072 0.150763,-0.144439 0.280813,-0.232221 0.336492,-0.233127 z m -2.39284,0.588314 c 0.191669,-0.02146 0.415299,0.01805 0.615804,0.125362 0.354576,0.189762 0.31118,0.339797 -0.12316,0.426664 -0.205582,0.04111 -0.527106,0.112626 -0.713673,0.159449 -0.370619,0.09301 -0.431087,-0.04624 -0.204536,-0.469551 0.07387,-0.138025 0.233895,-0.220465 0.425565,-0.241924 z m 5.22554,0.446458 c 0.09781,-0.02815 0.04153,0.118058 -0.212233,0.388177 -0.214946,0.2288 -0.237447,0.343499 -0.131958,0.656492 0.0703,0.208602 0.148336,0.599838 0.173746,0.868724 0.04956,0.524459 0.624847,1.25995 0.988585,1.263498 0.178098,0.0017 0.178629,0.01685 0.0077,0.126456 -0.106943,0.06858 -0.296392,0.0927 -0.421165,0.05388 -0.256975,-0.07996 -0.745564,0.04474 -0.745564,0.190239 0,0.05288 0.07363,0.194094 0.162749,0.313402 0.140465,0.188037 0.222497,0.195457 0.615804,0.05609 0.24955,-0.08843 0.529054,-0.209278 0.621302,-0.268314 0.09299,-0.05952 0.237701,-0.05009 0.324396,0.02089 0.086,0.07041 0.722586,0.13465 1.415251,0.142955 0.692668,0.0083 1.355782,0.05158 1.473532,0.09677 0.184579,0.07083 0.193144,0.04348 0.06158,-0.202335 -0.08393,-0.156824 -0.294538,-0.339649 -0.468452,-0.405772 -0.173914,-0.06612 -0.316699,-0.167975 -0.316699,-0.226527 0,-0.147887 0.506525,-0.105453 0.972091,0.08138 0.2139,0.08583 0.4618,0.180934 0.550925,0.212233 0.08913,0.0313 0.162748,0.119692 0.162748,0.195738 0,0.09652 -0.07676,0.09809 -0.25182,0.0044 -0.336545,-0.180114 -0.396974,-0.170762 -0.396974,0.06598 0,0.110596 0.202498,0.285965 0.449758,0.389277 0.587208,0.245352 0.724896,0.237482 0.637797,-0.03849 -0.05038,-0.159627 0.01029,-0.133846 0.205635,0.08798 0.15267,0.173388 0.376367,0.394964 0.497043,0.492643 0.197098,0.159542 0.187905,0.16957 -0.09017,0.09237 -0.278616,-0.07736 -0.303465,-0.05286 -0.245223,0.251819 0.03559,0.186173 0.01523,0.338692 -0.04619,0.338692 -0.06142,0 -0.112164,-0.149107 -0.112164,-0.330994 0,-0.257301 -0.103437,-0.373579 -0.467352,-0.525633 -0.546876,-0.228499 -0.611406,-0.196178 -0.499241,0.250721 0.05781,0.230331 0.19838,0.356941 0.460753,0.414568 0.458455,0.100694 0.387788,0.311653 -0.07477,0.223228 -0.266466,-0.05093 -0.326595,-0.01121 -0.326595,0.212233 0,0.150912 -0.05847,0.274913 -0.129753,0.274913 -0.0713,0 -0.129753,-0.140579 -0.129753,-0.311202 0,-0.331637 -0.213858,-0.467352 -0.734567,-0.467352 -0.294682,0 -0.318726,0.04087 -0.263915,0.447559 0.08525,0.632602 -0.07634,0.70914 -0.244123,0.11546 -0.134773,-0.476887 -0.165644,-0.499899 -0.744463,-0.537728 -0.603309,-0.03943 -0.603979,-0.03889 -0.47505,0.300205 0.158301,0.416362 0.16285,0.581714 0.0176,0.581714 -0.06099,0 -0.164876,-0.189441 -0.230927,-0.421165 -0.10544,-0.369913 -0.180884,-0.425626 -0.619103,-0.461846 -0.604097,-0.04994 -0.80275,0.105045 -0.605909,0.472849 0.09041,0.168937 0.09574,0.293433 0.0154,0.343092 -0.06941,0.04289 -0.164816,-0.07609 -0.212234,-0.265016 -0.07794,-0.310527 -0.130241,-0.336612 -0.544326,-0.269416 -0.251931,0.04089 -0.499651,0.142469 -0.550926,0.22543 -0.05276,0.08537 -0.165471,0.106508 -0.259517,0.04839 -0.114801,-0.07095 -0.142901,-0.04328 -0.09127,0.09127 0.0965,0.251493 -0.282753,1.038247 -0.47065,0.976489 -0.07898,-0.02597 -0.161533,-0.327314 -0.183642,-0.669687 -0.03398,-0.526278 -0.008,-0.609332 0.167146,-0.542128 0.307558,0.118018 0.378943,-0.233766 0.126457,-0.619103 -0.141985,-0.216694 -0.339577,-0.336047 -0.560822,-0.338692 -0.333019,-0.0039 -0.334141,-0.0094 -0.08138,-0.201237 0.256584,-0.194773 0.25585,-0.198773 -0.06488,-0.451956 -0.258904,-0.204378 -0.442285,-0.239847 -0.908312,-0.175944 -0.698359,0.09576 -0.732541,0.1208 -0.517935,0.379379 0.310034,0.373566 0.01583,0.356751 -0.307903,-0.01759 l -0.321141,-0.371699 0.707076,-0.175945 c 0.578376,-0.144692 0.679459,-0.210463 0.557522,-0.357386 -0.150042,-0.18079 -0.963551,-0.243787 -1.329477,-0.103375 -0.11997,0.04603 -0.165861,0.159704 -0.116568,0.291408 0.07288,0.194683 0.05771,0.197143 -0.15725,0.022 -0.452398,-0.368617 -1.43094,0.08218 -1.035872,0.477247 0.33585,0.33585 0.199855,0.48515 -0.146254,0.160551 L 22.061349,17.679 21.812827,17.985802 c -0.343967,0.42403 -0.312319,0.602556 0.164948,0.942401 0.303059,0.215798 0.427334,0.248711 0.468453,0.125363 0.180207,-0.540622 1.19312,-1.322905 1.19312,-0.921508 0,0.07085 0.240467,0.303889 0.53443,0.516836 l 0.53443,0.387077 0.377181,-0.521235 c 0.460296,-0.63542 0.670432,-0.560139 0.556422,0.200137 -0.0677,0.451491 -0.03588,0.607419 0.164949,0.808244 0.136769,0.136769 0.324431,0.521809 0.417867,0.855527 0.09344,0.333719 0.216969,0.607007 0.273812,0.607007 0.05684,0 0.269929,-0.203344 0.473949,-0.450856 0.334743,-0.406099 0.418061,-0.442138 0.85223,-0.371682 1.57571,0.255702 -1.20588,1.580652 -2.996547,1.427346 -0.647097,-0.0554 -0.803545,-0.03842 -0.622403,0.06489 0.133133,0.07592 0.669325,0.140676 1.192021,0.144054 1.098441,0.0072 1.113057,0.08269 0.174845,0.930304 -0.541838,0.489518 -0.547099,0.490945 -1.465835,0.428864 -0.906068,-0.06123 -0.913408,-0.0583 -0.467351,0.128658 0.521232,0.218478 1.835148,0.15376 2.147617,-0.105572 0.157857,-0.131005 0.227543,-0.114827 0.379381,0.08576 0.41842,0.552784 0.167945,1.106169 -0.607008,1.339375 -1.118164,0.336487 -1.865328,0.667854 -2.245488,0.996282 l -0.388176,0.335395 0.367283,-0.217731 c 0.686493,-0.407518 2.035677,-0.846731 2.601774,-0.846731 0.785607,0 1.367371,0.276493 2.059646,0.97869 0.781643,0.792841 0.999582,1.285595 0.999582,2.255382 0,0.770378 -0.01999,0.817844 -0.615804,1.459238 -0.699788,0.753323 -1.75707,1.298144 -2.943764,1.517516 -1.761438,0.325619 -2.274078,0.08977 -2.274078,-1.047966 0,-0.846762 -0.412183,-1.866145 -0.996284,-2.464318 -0.407205,-0.417017 -0.479116,-0.574635 -0.451957,-0.981988 0.01779,-0.266735 -0.02456,-0.776141 -0.09347,-1.132639 -0.07712,-0.398986 -0.0785,-0.696149 -0.0044,-0.771956 0.183482,-0.187702 0.143813,-0.930383 -0.07808,-1.461435 -0.109184,-0.261317 -0.169802,-0.551501 -0.134157,-0.644396 0.04378,-0.114063 -0.05327,-0.169347 -0.299104,-0.169347 -0.258771,0 -0.404756,0.09045 -0.505841,0.312302 -0.126166,0.276901 -0.107563,0.320877 0.169347,0.390375 0.171658,0.04309 0.37276,0.191091 0.446459,0.328796 0.127049,0.237408 0.115394,0.240421 -0.22323,0.06378 -0.487361,-0.254228 -0.552025,-0.238219 -0.552025,0.136358 0,0.178249 -0.05735,0.324397 -0.128658,0.324397 -0.07131,0 -0.129754,-0.146148 -0.129754,-0.324397 0,-0.474076 -0.501615,-0.402366 -0.686182,0.09787 -0.05473,0.148352 -0.02053,0.226526 0.09897,0.226526 0.100507,0 0.223908,0.06702 0.274912,0.149553 0.06389,0.103374 0.0043,0.127617 -0.193539,0.07588 -0.248317,-0.06492 -0.282041,-0.02923 -0.247421,0.262817 0.02879,0.242919 0.139504,0.364148 0.395874,0.432161 0.265378,0.07041 0.357386,0.04734 0.357386,-0.08907 0,-0.100787 0.05847,-0.183643 0.129754,-0.183643 0.0713,0 0.128658,0.116925 0.128658,0.259518 0,0.1426 0.07895,0.259517 0.174845,0.259517 0.176698,0 0.603727,0.398932 0.603707,0.564122 0,0.04951 -0.148319,-0.0072 -0.328795,-0.125363 -0.38696,-0.253546 -0.377986,-0.260042 -0.548726,0.403571 l -0.133056,0.519036 -0.0132,-0.594912 c -0.01134,-0.505294 -0.06377,-0.617793 -0.344191,-0.745562 -0.181605,-0.08275 -0.487965,-0.154919 -0.680683,-0.16055 -0.192747,-0.0057 -0.277167,-0.03992 -0.188041,-0.07588 0.145179,-0.05858 0.243209,-0.821439 0.105571,-0.821439 -0.03102,0 -0.205286,0.05692 -0.388177,0.126457 -0.267019,0.101525 -0.333193,0.213252 -0.333193,0.567421 0,0.253994 -0.09115,0.516643 -0.215533,0.619103 -0.196469,0.161832 -0.209662,0.134998 -0.139655,-0.300204 0.06582,-0.409144 0.0463,-0.467927 -0.139655,-0.403573 -0.315611,0.109225 -0.542129,0.432868 -0.542129,0.776353 0,0.318087 -0.196705,0.408902 -0.298006,0.137457 -0.03326,-0.08913 -0.182728,0.10031 -0.332093,0.421166 l -0.271614,0.583914 0.0011,-0.778553 c 0.0011,-0.683146 0.02343,-0.749412 0.178144,-0.545425 0.161617,0.213084 0.199586,0.184312 0.460753,-0.355189 0.276802,-0.5718 0.657322,-1.001026 0.481648,-0.543226 -0.06967,0.181541 -0.04275,0.196231 0.161649,0.08687 0.135434,-0.07247 0.34669,-0.232328 0.46955,-0.355188 0.122858,-0.122857 0.317738,-0.229513 0.432162,-0.237524 0.114419,-0.008 0.302006,-0.0252 0.417869,-0.0374 0.121961,-0.01279 0.244284,-0.185546 0.289207,-0.41017 0.05355,-0.26778 0.148963,-0.381924 0.307903,-0.368383 0.47335,0.04031 0.654612,-0.02785 0.718071,-0.270514 0.04599,-0.175853 0.01226,-0.229359 -0.11546,-0.180343 -0.12502,0.04798 -0.156457,0.0045 -0.101172,-0.139656 0.04409,-0.114893 0.159828,-0.208934 0.257318,-0.208934 0.09749,0 0.267562,-0.172892 0.377182,-0.384877 0.176538,-0.3414 0.176895,-0.376716 0.0033,-0.310101 -0.107787,0.04136 -0.196837,0.01082 -0.196837,-0.06818 0,-0.07892 0.08148,-0.144055 0.180342,-0.144055 0.09989,2e-6 0.204163,-0.169255 0.235325,-0.381578 0.03084,-0.210134 0.0089,-0.352788 -0.04948,-0.316699 -0.0584,0.03609 -0.106666,-0.01811 -0.106666,-0.120958 0,-0.222978 0.2931,-0.314165 0.952296,-0.295805 0.417444,0.01161 0.494754,-0.03242 0.555324,-0.311203 0.03873,-0.178249 0.0837,-0.378644 0.10006,-0.446457 0.02433,-0.100839 -0.752242,-0.590513 -0.936901,-0.590513 -0.02889,0 -0.02528,0.146148 0.0088,0.324397 0.03407,0.17825 0.01187,0.324398 -0.04948,0.324398 -0.06142,0 -0.111069,-0.166634 -0.111069,-0.369483 0,-0.328796 -0.330683,-0.797246 -0.561922,-0.797246 -0.04786,0 -0.08687,0.157178 -0.08687,0.349689 0,0.208147 -0.04551,0.299764 -0.113259,0.226526 -0.160863,-0.17392 -0.319846,-1.137842 -0.172644,-1.046867 0.06543,0.04044 0.187219,-0.0776 0.271613,-0.262817 0.0844,-0.185227 0.18557,-0.305973 0.224328,-0.267215 0.03877,0.03877 0.0069,0.190222 -0.07148,0.336494 -0.120272,0.224742 -0.0911,0.299842 0.188041,0.482747 0.181681,0.119046 0.345727,0.193528 0.365084,0.166047 0.414601,-0.588729 0.491364,-0.801707 0.326595,-0.906111 -0.09664,-0.06123 -0.259498,-0.112191 -0.362883,-0.113273 -0.141536,-0.0016 -0.151707,-0.03963 -0.03958,-0.15175 0.112124,-0.112124 0.233155,-0.0927 0.490442,0.07588 0.297642,0.195018 0.369467,0.199561 0.557524,0.03849 0.118744,-0.101712 0.33245,-0.231687 0.475048,-0.28921 0.233798,-0.09431 0.23679,-0.110251 0.03079,-0.159449 -0.125679,-0.03001 -0.19648,-0.105492 -0.158379,-0.167145 0.0381,-0.06164 0.246729,-0.04936 0.464052,0.02639 0.217323,0.07576 0.609646,0.101473 0.872022,0.05719 0.262376,-0.04428 0.914591,-0.153817 1.449341,-0.243024 0.917701,-0.153091 0.975157,-0.182544 1.013876,-0.519035 0.0244,-0.212001 -0.02161,-0.356287 -0.113258,-0.356287 -0.116436,0 -0.115381,-0.04679 0.0055,-0.192439 0.08865,-0.10681 0.124796,-0.331715 0.08138,-0.50474 -0.08553,-0.340769 0.154201,-0.520824 0.511337,-0.383778 0.122422,0.04697 0.352035,-0.06591 0.582816,-0.287008 0.159959,-0.153251 0.274514,-0.233828 0.333194,-0.250721 z m -4.707605,0.460754 0.28371,0.0088 -0.291407,0.140756 c -0.160425,0.07737 -0.292507,0.188426 -0.292507,0.246322 0,0.153765 0.426902,0.348141 0.615805,0.28041 0.101026,-0.03622 0.134629,0.01476 0.08797,0.136357 -0.04119,0.107339 -0.0035,0.331046 0.08358,0.497042 0.157508,0.299961 0.155963,0.301184 -0.117662,0.05828 -0.271168,-0.24072 -0.281319,-0.239714 -0.722472,0.09677 -0.246344,0.187895 -0.466762,0.337697 -0.489344,0.333192 -0.02259,-0.0045 -0.172691,-0.06085 -0.333194,-0.125362 -0.160506,-0.06451 -0.385178,-0.08158 -0.500342,-0.0374 -0.299212,0.114814 -0.05924,-0.301097 0.457454,-0.792849 0.220037,-0.209413 0.400274,-0.463981 0.400274,-0.565221 0,-0.108564 0.07799,-0.154135 0.190239,-0.111069 0.104663,0.04016 0.225073,0.0176 0.267216,-0.05058 0.04213,-0.06819 0.204469,-0.120312 0.360685,-0.11546 z m 3.71462,0.25072 c -0.180417,0 -0.255119,0.08815 -0.255119,0.302404 0,0.166366 0.03935,0.341746 0.08687,0.389276 0.140023,0.140022 0.690581,0.09882 0.690581,-0.05168 0,-0.296413 -0.279931,-0.639996 -0.522335,-0.639996 z m -5.458666,0.133058 c 0.176688,-0.0028 0.138659,0.05629 -0.0154,0.291407 -0.113378,0.173032 -0.225212,0.513126 -0.248521,0.75546 l -0.04289,0.440961 -0.234224,-0.431065 c -0.348835,-0.640042 -0.252041,-0.986451 0.289207,-1.038069 0.110265,-0.01055 0.192924,-0.01778 0.251821,-0.01869 z m 6.919002,0.05609 c 0.05902,-0.01108 0.122053,0.03793 0.232028,0.137456 0.311766,0.282146 0.486155,1.475049 0.238624,1.631882 -0.218583,0.138493 -0.496358,0.148713 -0.512437,0.01869 -0.0065,-0.05348 -0.0016,-0.353436 0.01094,-0.666389 0.01898,-0.471151 -0.01253,-0.555694 -0.182541,-0.490445 -0.261547,0.100361 -0.260812,-0.03577 0.0023,-0.411269 0.09696,-0.138439 0.152122,-0.208835 0.211132,-0.21993 z m -5.731379,0.144054 c -0.08555,0.02143 -0.195437,0.105783 -0.385977,0.266116 -0.395477,0.33277 -0.407596,0.365895 -0.18914,0.525634 0.313904,0.229531 0.350373,0.2223 0.704876,-0.155053 0.276605,-0.294432 0.286818,-0.346582 0.106666,-0.526732 -0.09007,-0.09009 -0.150866,-0.131388 -0.236425,-0.109962 z m 4.332623,0.610307 c -0.219127,-0.0012 -0.316699,0.11211 -0.316699,0.351887 0,0.148521 0.112849,0.263611 0.291408,0.298006 0.562239,0.108288 0.615804,0.09011 0.615804,-0.217731 0,-0.224083 -0.09134,-0.333802 -0.329894,-0.393675 -0.10087,-0.02531 -0.187575,-0.03806 -0.260619,-0.03849 z m -0.122066,0.832434 0.3145,0.344191 c 0.199638,0.218071 0.449496,0.343092 0.685083,0.343092 0.330701,0 0.355754,-0.02834 0.232026,-0.259517 -0.07632,-0.142601 -0.238419,-0.25966 -0.360685,-0.260617 -0.122264,-9.58e-4 -0.368276,-0.03944 -0.546527,-0.08467 z m -0.928105,0.168247 c -0.750679,0 -0.855451,0.113548 -0.400272,0.431064 0.337513,0.235437 0.384477,0.241437 1.040269,0.133056 0.468807,-0.07747 0.48072,-0.09113 0.271614,-0.322196 -0.161404,-0.178349 -0.400195,-0.241924 -0.911611,-0.241924 z m -5.424577,0.07588 c 0.07335,0.0038 0.145279,0.01815 0.212232,0.04398 0.141643,0.05465 0.04603,0.186465 -0.356287,0.488244 -0.470523,0.352939 -0.573408,0.385388 -0.707076,0.224329 -0.263882,-0.317962 0.337706,-0.783755 0.851131,-0.756558 z m 5.465265,0.702676 0.303503,0.323298 c 0.221864,0.236163 0.439152,0.324396 0.800545,0.324396 0.539484,0 0.561536,-0.02373 0.361787,-0.396972 -0.105955,-0.197973 -0.274556,-0.250722 -0.800546,-0.250722 z m 3.438607,0.517937 0.334294,0.381578 c 0.269985,0.307677 0.430569,0.37667 0.831335,0.360686 0.523629,-0.02088 0.598248,-0.143397 0.315601,-0.515737 -0.124017,-0.163372 -0.355537,-0.226527 -0.826938,-0.226527 z m -0.517936,0.01869 c -0.170355,-0.03087 -0.350101,0.008 -0.550925,0.115461 -0.235002,0.12577 -0.237525,0.15432 -0.04178,0.453055 0.184273,0.281235 0.272174,0.30885 0.745564,0.236425 0.295102,-0.04515 0.56052,-0.102647 0.590512,-0.128658 0.03,-0.02602 -0.08244,-0.193714 -0.24962,-0.371683 -0.162884,-0.173382 -0.323387,-0.273734 -0.493744,-0.304602 z m 2.215797,0.04618 0.200136,0.304603 c 0.10991,0.167461 0.319738,0.353726 0.467351,0.413468 0.473843,0.19178 0.890014,0.150011 0.801647,-0.08027 -0.04328,-0.112784 -0.07918,-0.282661 -0.07918,-0.377179 0,-0.11583 -0.226503,-0.186702 -0.69498,-0.216631 z m -3.861973,0.29251 c -0.08171,-0.0046 -0.151475,0.0058 -0.199037,0.03519 -0.148806,0.09199 -0.147846,0.161696 0.0023,0.442059 0.186993,0.349397 0.664751,0.443789 1.04137,0.205634 0.172848,-0.109303 0.172848,-0.142256 0,-0.298004 C 27.8069,18.529422 27.44746,18.374835 27.202344,18.36078 Z m -7.497419,0.323297 c 0.09156,-0.01745 0.200023,0.07046 0.37828,0.291408 0.172573,0.2139 0.314111,0.491028 0.314499,0.615804 3.56e-4,0.124769 -0.01407,0.222052 -0.0319,0.215532 -0.612799,-0.224103 -1.019629,-0.805975 -0.748863,-1.07106 0.02882,-0.02822 0.05745,-0.04587 0.08797,-0.05168 z m 0.588313,1.392158 c 0.145689,0.01405 0.23019,0.08543 0.183641,0.206733 -0.04328,0.112784 -0.07917,0.403979 -0.07917,0.647695 0,0.52856 -0.08084,0.540241 -0.550925,0.07808 -0.420922,-0.413827 -0.4473,-0.614357 -0.105571,-0.797248 0.199181,-0.1066 0.406335,-0.149295 0.552025,-0.135256 z m 8.583873,0.0011 c 0.299849,0 0.37509,0.242081 0.203437,0.656492 -0.193186,0.466389 -0.354162,0.486265 -0.461854,0.05718 -0.101816,-0.405678 0.0092,-0.713674 0.258417,-0.713675 z m 4.032419,0.02529 c 0.150969,-0.04902 0.19354,0.05476 0.19354,0.356287 0,0.507913 -0.179433,0.593561 -0.395875,0.18914 -0.14975,-0.279808 -0.148627,-0.345885 0.01213,-0.447558 0.07693,-0.04867 0.139915,-0.08152 0.190238,-0.09787 z m -3.283556,0.234226 h 0.50034 0.499242 l -0.139654,0.421166 c -0.221725,0.664477 -0.325514,0.684512 -0.60151,0.113258 z m -7.675563,0.126456 c -0.0333,0.01041 -0.07349,0.04881 -0.118757,0.122067 -0.09215,0.149116 -0.09441,0.37629 -0.0065,0.658691 0.01108,0.03565 0.07976,-0.09857 0.152852,-0.299105 0.106429,-0.29197 0.07241,-0.512935 -0.02749,-0.481649 z m -0.545425,0.03299 c -0.08382,0.01226 -0.175763,0.149026 -0.205635,0.401372 -0.02907,0.245566 0.01883,0.346389 0.162748,0.346389 0.140422,0 0.202335,-0.122764 0.202335,-0.399173 0,-0.247989 -0.07564,-0.360802 -0.159448,-0.348588 z m -1.670371,0.999582 c 0.354941,0.01121 0.474276,0.298698 0.204536,0.710374 -0.267674,0.408523 -0.322788,0.409705 -0.610307,0.01429 -0.280595,-0.385889 -0.285945,-0.536509 -0.022,-0.637797 0.164892,-0.06328 0.309452,-0.09061 0.427763,-0.08687 z m 1.770439,0.0077 c -0.299462,0 -0.588315,0.314184 -0.588315,0.639997 0,0.292693 0.605774,0.138505 0.756561,-0.192439 0.200978,-0.441096 0.199346,-0.447558 -0.168246,-0.447558 z m -5.647808,0.0033 c 0.134268,0.0053 0.281848,0.05108 0.333195,0.134158 0.08791,0.142243 -0.285108,0.639997 -0.479447,0.639997 -0.06025,0 -0.108869,-0.09643 -0.108869,-0.214434 0,-0.190647 -0.03029,-0.186816 -0.268314,0.02858 -0.238604,0.215936 -0.245746,0.258125 -0.06489,0.390377 0.256224,0.187353 0.259896,0.314502 0.0088,0.314502 -0.106942,0 -0.196778,-0.07252 -0.199037,-0.16165 -0.0023,-0.08913 -0.150843,0.0051 -0.330994,0.210033 l -0.327697,0.372782 0.290309,0.309002 0.291408,0.310101 0.362884,-0.348589 c 0.484955,-0.464617 0.643482,-0.275725 0.177043,0.211132 -0.353675,0.369159 -0.359664,0.392485 -0.150652,0.711474 0.118875,0.181436 0.261117,0.329897 0.3156,0.329897 0.05448,0 0.10801,0.116923 0.118756,0.259517 0.01068,0.1426 -0.02749,0.259518 -0.08467,0.259518 -0.05718,0 -0.206787,0.270511 -0.333194,0.601509 l -0.229827,0.601464 0.309001,0.248521 0.309002,0.248521 -0.411269,-0.08027 c -0.398427,-0.0779 -0.416066,-0.06354 -0.519035,0.456355 -0.05857,0.295721 -0.141795,0.502633 -0.184742,0.459653 -0.04294,-0.04298 -0.02256,-0.357259 0.04509,-0.699377 0.105717,-0.534646 0.08585,-0.683838 -0.142954,-1.060064 -0.274196,-0.45088 -0.264006,-0.455157 -0.467352,0.195738 -0.03341,0.106943 -0.115487,0.194639 -0.181441,0.194639 -0.07156,0 -0.06629,-0.209086 0.01213,-0.517937 0.107523,-0.42358 0.09125,-0.57813 -0.08908,-0.853328 -0.258529,-0.394565 -0.175239,-0.567814 0.127564,-0.265016 0.304851,0.304851 0.412969,0.26356 0.656491,-0.24962 0.212242,-0.447267 0.209695,-0.466595 -0.08027,-0.775255 -0.245058,-0.260852 -0.332169,-0.289288 -0.494843,-0.157251 -0.166409,0.135071 -0.183874,0.122964 -0.108868,-0.07697 0.04899,-0.13061 0.08908,-0.312969 0.08908,-0.405771 0,-0.09281 0.116172,-0.199227 0.258418,-0.236425 0.341369,-0.08927 0.469738,-0.453608 0.271613,-0.770855 -0.206437,-0.33056 -0.04409,-0.495771 0.182544,-0.185841 0.163761,0.223958 0.191208,0.224089 0.508037,0.01649 0.184175,-0.120668 0.335394,-0.271195 0.335394,-0.334294 0,-0.08107 0.120852,-0.11633 0.255118,-0.111069 z m 2.525898,1.033672 c 0.223925,0 0.631538,0.476116 0.537731,0.6279 -0.04251,0.06877 -0.253323,0.186006 -0.467353,0.260617 -0.361018,0.125851 -0.389276,0.113034 -0.389276,-0.171545 0,-0.427485 0.129344,-0.716972 0.318898,-0.716972 z m -2.169611,0.01869 c 0.165125,-0.0019 0.190484,0.125586 0.114366,0.428863 -0.09139,0.364138 -0.206025,0.40978 -0.440961,0.174844 -0.234266,-0.234266 -0.187771,-0.465277 0.113259,-0.560821 0.08756,-0.02779 0.158291,-0.04227 0.213332,-0.04289 z m 1.028175,0.50144 c 0.100839,0.0091 0.199291,0.114063 0.255118,0.336493 0.05616,0.223751 0.02431,0.376665 -0.09457,0.451956 -0.295776,0.187276 -0.50474,0.133321 -0.50474,-0.130899 0,-0.420594 0.176136,-0.672657 0.344192,-0.657592 z m 10.074999,0.168247 c 0.01912,-0.0033 0.03424,-9.58e-4 0.04509,0.0099 0.03433,0.03433 -0.05916,0.194428 -0.208935,0.355187 -0.149769,0.16076 -0.272714,0.227005 -0.272714,0.147353 0,-0.154946 0.302758,-0.489299 0.436562,-0.512437 z m 0.623502,0.498142 c 0.02236,-0.0033 0.0409,0.0012 0.05388,0.0143 0.05197,0.05197 -0.0046,0.203149 -0.125362,0.336494 -0.207657,0.229457 -0.202299,0.253762 0.09347,0.447556 0.293982,0.192625 0.329312,0.186159 0.598209,-0.10007 0.273407,-0.29103 0.275752,-0.310365 0.04839,-0.454155 -0.203427,-0.128646 -0.184686,-0.138965 0.131958,-0.07148 0.203502,0.04338 0.521237,0.17806 0.705976,0.299105 0.184741,0.121051 0.449146,0.200431 0.587213,0.177043 0.179609,-0.03043 0.0984,0.102813 -0.284809,0.467353 -0.729616,0.694066 -0.728048,0.699787 0.339792,1.53841 0.231725,0.181986 0.421167,0.383698 0.421167,0.448658 0,0.136609 -0.03033,0.135344 -0.680683,-0.0374 -0.311639,-0.08278 -0.486952,-0.205915 -0.488246,-0.34309 -10e-4,-0.117689 -0.05954,-0.30212 -0.129753,-0.40907 -0.11347,-0.172848 -0.14165,-0.172848 -0.255119,0 -0.102273,0.155803 -0.128184,0.132731 -0.129753,-0.118756 -0.0025,-0.402473 -0.353735,-0.795034 -0.620202,-0.692781 -0.151089,0.05798 -0.182929,0.02226 -0.122066,-0.136358 0.09506,-0.247739 -0.337052,-0.539538 -0.6312,-0.426663 -0.101379,0.03891 -0.183641,0.0054 -0.183641,-0.07368 0,-0.07903 -0.102855,-0.226518 -0.227627,-0.328795 -0.208253,-0.170704 -0.199638,-0.180086 0.09787,-0.114367 0.236761,0.05231 0.382873,-0.0059 0.542128,-0.215531 0.08992,-0.118347 0.191323,-0.196912 0.258418,-0.206735 z m 1.249203,0.665288 c -0.135945,-7.88e-4 -0.266156,0.06602 -0.404671,0.204535 -0.262634,0.26263 -0.26293,0.274044 -0.02529,0.53663 l 0.243022,0.26827 0.294707,-0.360684 c 0.368464,-0.450167 0.372269,-0.51732 0.03079,-0.625702 -0.04726,-0.01499 -0.09324,-0.02284 -0.138557,-0.0231 z m -14.13271,0.142831 c -0.09425,0.02283 -0.203508,0.156253 -0.362885,0.407971 -0.243667,0.384843 -0.242507,0.392746 0.03519,0.831336 l 0.280411,0.443159 0.244123,-0.559721 c 0.206651,-0.473897 0.218338,-0.60664 0.07808,-0.868724 -0.100974,-0.188675 -0.180662,-0.276843 -0.274912,-0.254021 z m 15.599644,0.195738 c 0.208578,0.01161 0.441551,0.09354 0.641096,0.25512 l 0.298006,0.240823 -0.259518,0.40907 c -0.279514,0.441463 -0.43766,0.414903 -0.43766,-0.07477 -1e-6,-0.263395 -0.03561,-0.287763 -0.25072,-0.172644 -0.378144,0.202376 -0.490868,0.165045 -0.557523,-0.183641 -0.0609,-0.318607 0.21869,-0.493277 0.566319,-0.47395 z m -11.587019,0.81814 c 0.199791,-0.01409 0.385326,0.109475 0.513537,0.362885 0.198663,0.392663 0.216129,1.221501 0.03299,1.563703 -0.163193,0.304926 -0.384879,0.328206 -0.384879,0.04069 0,-0.115368 -0.174277,-0.409575 -0.388177,-0.653192 -0.451095,-0.51377 -0.489173,-0.821829 -0.139655,-1.138138 0.121433,-0.109897 0.246309,-0.16749 0.366184,-0.175946 z m 11.028397,0.08138 0.303504,0.04289 c 0.166829,0.02363 0.360893,0.174363 0.431063,0.334293 0.08656,0.197292 0.20097,0.267024 0.356286,0.217733 0.240398,-0.0763 0.280556,0.06311 0.153951,0.534429 -0.03926,0.146133 -0.184176,0.33717 -0.322197,0.423366 -0.219234,0.136912 -0.250721,0.120471 -0.250721,-0.125362 0,-0.154765 -0.151838,-0.539342 -0.336492,-0.854428 z M 17.897,25.946108 c 0.08458,0.0038 0.134782,0.04058 0.179242,0.112165 0.129186,0.208023 0.37718,1.310076 0.37718,1.674767 0,0.562074 -0.965763,0.05115 -1.295389,-0.685081 -0.292198,-0.652647 -0.233512,-0.823605 0.349689,-1.016078 0.184918,-0.06103 0.304695,-0.08967 0.389278,-0.08576 z m 2.618267,0.873124 c 0.648246,0 0.830797,0.460896 0.462953,1.172227 -0.25187,0.487073 -0.407566,0.484796 -0.515736,-0.0077 -0.04713,-0.214632 -0.168495,-0.472 -0.269414,-0.572918 -0.265192,-0.265192 -0.08742,-0.591612 0.322197,-0.591612 z m 8.97425,0.398072 c 0.238053,0.01214 0.654763,0.18037 0.632299,0.255119 -0.06815,0.226748 0.205271,0.513537 0.489345,0.513537 h 0.333194 l -0.28261,0.299104 c -0.159463,0.169743 -0.28151,0.468323 -0.28151,0.687283 0,0.212868 -0.07059,0.457666 -0.156151,0.543226 -0.186691,0.186689 -1.140338,0.20969 -1.140338,0.02749 0,-0.07046 0.101753,-0.120431 0.226528,-0.109963 0.695482,0.05828 0.810442,-0.0095 0.810442,-0.478348 0,-0.4297 -0.02049,-0.451079 -0.356286,-0.37938 -0.341251,0.07286 -0.345346,0.06703 -0.104465,-0.127564 0.138402,-0.111807 0.300504,-0.203433 0.360685,-0.203433 0.06018,-2e-6 0.04303,-0.122462 -0.0374,-0.272714 -0.106916,-0.199785 -0.184227,-0.23474 -0.289209,-0.129766 -0.216211,0.216232 -0.406381,0.172754 -0.221029,-0.05058 0.128751,-0.155137 0.128751,-0.234138 0,-0.389275 -0.130175,-0.15686 -0.127023,-0.192095 0.0165,-0.184742 z m -12.641585,0.180344 c 0.08227,-0.01447 0.166335,0.0044 0.241924,0.06707 0.108288,0.08987 0.196837,0.239345 0.196837,0.332094 0,0.09275 0.145588,0.34193 0.323297,0.553124 l 0.323297,0.383778 -0.291407,0.07808 c -0.65856,0.1765 -1.182208,-0.09534 -1.236008,-0.641096 -0.03776,-0.382997 0.195243,-0.729624 0.44206,-0.773053 z m 4.896744,0.771954 c 0.279432,-0.02507 0.445197,0.0087 0.400273,0.08138 -0.04208,0.06809 -0.18535,0.123161 -0.317799,0.123161 -0.294629,0 -0.398056,0.244749 -0.236423,0.558623 0.06629,0.128723 0.09353,0.303005 0.06048,0.388177 -0.03305,0.08517 -0.130043,-0.03438 -0.215531,-0.266116 -0.08549,-0.231724 -0.211442,-0.421166 -0.279311,-0.421166 -0.07587,0 -0.078,-0.08158 -0.0055,-0.211133 0.06658,-0.118981 0.325111,-0.228812 0.593811,-0.252921 z m 11.150459,0.07477 c 0.600061,-10e-7 0.893838,0.20298 0.580615,0.401372 -0.09825,0.06223 -0.33429,0.114444 -0.524533,0.115459 -0.47841,0.0028 -0.756559,0.126787 -0.756559,0.337592 0,0.134482 0.134917,0.160299 0.550924,0.105572 0.381636,-0.05021 0.63099,-0.01226 0.810443,0.122066 0.142487,0.106705 0.230176,0.219331 0.194639,0.250721 -0.142043,0.125454 -1.036972,0.199498 -1.036972,0.08577 0,-0.06682 -0.04881,-0.122067 -0.10776,-0.122067 -0.05893,0 -0.0829,0.161908 -0.05389,0.359586 0.07603,0.517989 -0.327171,0.86176 -0.800547,0.681783 -0.192863,-0.07333 -0.62486,-0.127195 -0.958894,-0.118756 -0.532707,0.01347 -0.558852,0.02734 -0.21773,0.10776 0.38758,0.09138 0.386534,0.09228 -0.339793,0.423366 -0.400846,0.182721 -0.769158,0.396888 -0.81814,0.476149 -0.126733,0.205047 -0.251846,0.18106 -0.639998,-0.124269 -0.430113,-0.338323 -0.434716,-0.509138 -0.01319,-0.509138 0.180757,0 0.487116,-0.100558 0.680683,-0.223228 0.958872,-0.607665 1.725292,-1.268765 1.795729,-1.549408 0.10457,-0.416642 0.919006,-0.820338 1.654975,-0.820338 z m -16.410087,0.90831 c 0.07583,0 0.16901,0.04893 0.206734,0.109962 0.03773,0.06103 0.376802,0.09172 0.753261,0.06818 0.540319,-0.03378 0.599646,-0.01957 0.283708,0.06378 -0.663421,0.175006 -0.747503,0.269422 -0.493741,0.549825 0.207259,0.229021 0.24673,0.231395 0.534429,0.04289 0.498401,-0.326564 0.643679,-0.139166 0.15945,0.205635 -0.415091,0.29557 -0.751217,0.427958 -0.787349,0.309002 -0.0089,-0.02935 -0.02552,-0.09717 -0.03628,-0.150653 -0.01081,-0.05348 -0.08569,-0.211555 -0.166047,-0.350787 -0.120193,-0.208231 -0.180114,-0.223605 -0.340891,-0.09017 -0.122765,0.101878 -0.225241,0.114458 -0.274913,0.03408 -0.0435,-0.07038 0.02114,-0.184139 0.144054,-0.25292 0.188556,-0.105519 0.196641,-0.157434 0.05168,-0.332095 -0.103697,-0.124954 -0.117307,-0.206735 -0.03408,-0.206735 z m 6.023886,0.0055 c 0.126615,0 0.209503,0.0404 0.15835,0.12316 -0.04407,0.07131 -0.238097,0.129673 -0.429964,0.128658 -0.272853,-0.0016 -0.306044,-0.03036 -0.153951,-0.128658 0.128065,-0.08276 0.298953,-0.12316 0.425565,-0.12316 z m -2.86459,0.124268 c 0.309478,0.01187 0.655374,0.09338 0.968792,0.25182 0.274112,0.138576 0.766669,0.364391 1.095253,0.50254 0.718504,0.302088 1.222402,0.929198 1.343772,1.671469 0.08485,0.518866 0.06819,0.559266 -0.341992,0.809342 -0.544865,0.33219 -0.524736,0.33426 -0.989685,-0.10006 -0.314363,-0.293659 -0.479686,-0.353978 -0.855528,-0.310101 -0.559756,0.06535 -0.579824,-0.01341 -0.109963,-0.436561 l 0.356288,-0.3211 -0.486046,0.221031 c -0.267375,0.121908 -0.486046,0.258856 -0.486046,0.303504 0,0.04465 -0.119639,0.20904 -0.265016,0.365083 -0.266446,0.285997 -1.114655,0.392377 -1.609887,0.202336 -0.1928,-0.07398 -0.192241,-0.101036 0.0099,-0.324396 0.386399,-0.426959 0.07919,-0.421178 -0.348589,0.0065 -0.498758,0.498759 -0.606846,0.434303 -0.360686,-0.214431 0.198065,-0.521984 0.613299,-0.705435 0.954498,-0.422266 0.188062,0.156077 0.453056,0.07511 0.453056,-0.138557 0,-0.06708 -0.0877,-0.122065 -0.194639,-0.122065 -0.270615,0 -0.244957,-0.231049 0.0319,-0.285911 0.141904,-0.02811 0.173754,-0.07804 0.08467,-0.134156 -0.07833,-0.04933 -0.265253,0.02481 -0.415668,0.164947 -0.364009,0.339123 -0.543228,0.321019 -0.543228,-0.05388 0,-0.535381 0.307794,-0.669647 1.135941,-0.495942 0.792256,0.166177 1.009809,0.106323 0.6268,-0.173745 -0.203372,-0.148709 -0.217628,-0.214103 -0.08138,-0.378279 0.102398,-0.123372 0.113167,-0.199037 0.02749,-0.199037 -0.07583,0 -0.174763,0.05846 -0.218831,0.129752 -0.117755,0.190544 -0.712574,0.158475 -0.712574,-0.03849 0,-0.326683 0.415609,-0.499302 0.931405,-0.479448 z m 9.034731,0.777452 c 0.142598,0 0.295724,0.05847 0.339792,0.129753 0.04407,0.0713 -0.03664,0.129753 -0.179243,0.129753 -0.142601,0 -0.295725,-0.05846 -0.339793,-0.129753 -0.04407,-0.07131 0.03664,-0.129753 0.179244,-0.129753 z m 4.206164,0.04398 c 0.03833,-0.01784 0.111294,0.02597 0.249621,0.117663 0.160425,0.106335 0.310144,0.288414 0.333193,0.40467 0.04103,0.206923 -0.139679,0.255805 -0.462953,0.125363 -0.08913,-0.03595 -0.161648,-0.213768 -0.161648,-0.394775 0,-0.156076 0.0034,-0.235076 0.04178,-0.25292 z"
       id="path829"
       inkscape:connector-curvature="0"
       sodipodi:nodetypes="cssccsscssccssccscccccccscscsscccsccscccsssssccsccccssccscscsssscsssccsccssscsccsccscccscccccssssscscccsccccccccccsccccscccccscsccscccsscscsccccccssccscsssscsccsccccsccccccssccssccccsccsscccccscccsccssssccsssscscccssssssccccccsccssssscscccccssscsccccccscscccscccccccccsccccccsccscscscccccsssscccssscccccscccscscsccscccccscccscccccscccsscscccccccccccccccccccscccccsccccsccccccscscccccccccsccccssccccccccccscscccccscccccsccscsscssccscccccccccccsccccssssscscccsscsccssccscccsccscscscccccccsccssccccccsccssscsccsscccsccccsccccscscsccssccccssccscsccscccccccccccccccccccccccccccscscscccccsssccccssccscccscssccscscscscsccccscsccccsccsccssccsccsscssscccssccsccsscscccsccccccssscccscccccsccccscccsscsccccscccscscscscscsccscsccccscccscsccsssssccccscc" />
  </g>
</svg>
