<?xml version="1.0" encoding="UTF-8" standalone="no"?>
<!-- Created with Inkscape (http://www.inkscape.org/) -->

<svg
   xmlns:dc="http://purl.org/dc/elements/1.1/"
   xmlns:cc="http://creativecommons.org/ns#"
   xmlns:rdf="http://www.w3.org/1999/02/22-rdf-syntax-ns#"
   xmlns:svg="http://www.w3.org/2000/svg"
   xmlns="http://www.w3.org/2000/svg"
   xmlns:sodipodi="http://sodipodi.sourceforge.net/DTD/sodipodi-0.dtd"
   xmlns:inkscape="http://www.inkscape.org/namespaces/inkscape"
   width="48px"
   height="48px"
   viewBox="0 0 48 48"
   version="1.1"
   id="SVGRoot"
   inkscape:version="0.92.4 (5da689c313, 2019-01-14)"
   sodipodi:docname="pixel-composera.svg">
  <defs
     id="defs1995" />
  <sodipodi:namedview
     id="base"
     pagecolor="#ffffff"
     bordercolor="#666666"
     borderopacity="1.0"
     inkscape:pageopacity="0.0"
     inkscape:pageshadow="2"
     inkscape:zoom="15.261692"
     inkscape:cx="17.276554"
     inkscape:cy="29.368198"
     inkscape:document-units="px"
     inkscape:current-layer="layer1"
     showgrid="true"
     inkscape:window-width="1920"
     inkscape:window-height="1017"
     inkscape:window-x="-8"
     inkscape:window-y="-8"
     inkscape:window-maximized="1"
     inkscape:grid-bbox="true"
     inkscape:snap-global="false">
    <inkscape:grid
       type="xygrid"
       id="grid2562" />
  </sodipodi:namedview>
  <metadata
     id="metadata1998">
    <rdf:RDF>
      <cc:Work
         rdf:about="">
        <dc:format>image/svg+xml</dc:format>
        <dc:type
           rdf:resource="http://purl.org/dc/dcmitype/StillImage" />
        <dc:title></dc:title>
      </cc:Work>
    </rdf:RDF>
  </metadata>
  <g
     inkscape:label="Layer 1"
     inkscape:groupmode="layer"
     id="layer1">
    <path
       style="opacity:1;vector-effect:none;fill:#ffffff;fill-opacity:1;fill-rule:evenodd;stroke:none;stroke-width:1.60000002;stroke-linecap:round;stroke-linejoin:round;stroke-miterlimit:4;stroke-dasharray:none;stroke-opacity:1;paint-order:stroke fill markers"
       d="M 26 13 C 24.892 13 24 13.892 24 15 L 24 21 C 24 22.108 24.892 23 26 23 L 32 23 C 33.108 23 34 22.108 34 21 L 34 15 C 34 13.892 33.108 13 32 13 L 26 13 z M 19 14 C 16.784 14 15 15.784 15 18 C 15 20.216 16.784 22 19 22 C 21.216 22 23 20.216 23 18 C 23 15.784 21.216 14 19 14 z M 29 15 C 30.662 15 32 16.338 32 18 C 32 19.662 30.662 21 29 21 C 27.338 21 26 19.662 26 18 C 26 16.338 27.338 15 29 15 z M 16 23 C 14.892 23 14 23.892 14 25 L 14 31 C 14 32.108 14.892 33 16 33 L 22 33 C 23.108 33 24 32.108 24 31 L 24 25 C 24 23.892 23.108 23 22 23 L 16 23 z M 29 24 C 26.784 24 25 25.784 25 28 C 25 30.216 26.784 32 29 32 C 31.216 32 33 30.216 33 28 C 33 25.784 31.216 24 29 24 z M 19 25 C 20.662 25 22 26.338 22 28 C 22 29.662 20.662 31 19 31 C 17.338 31 16 29.662 16 28 C 16 26.338 17.338 25 19 25 z "
       id="rect829" />
  </g>
</svg>
