<?xml version="1.0" encoding="UTF-8" standalone="no"?>
<!-- Created with Inkscape (http://www.inkscape.org/) -->

<svg
   xmlns:dc="http://purl.org/dc/elements/1.1/"
   xmlns:cc="http://creativecommons.org/ns#"
   xmlns:rdf="http://www.w3.org/1999/02/22-rdf-syntax-ns#"
   xmlns:svg="http://www.w3.org/2000/svg"
   xmlns="http://www.w3.org/2000/svg"
   xmlns:sodipodi="http://sodipodi.sourceforge.net/DTD/sodipodi-0.dtd"
   xmlns:inkscape="http://www.inkscape.org/namespaces/inkscape"
   width="48px"
   height="48px"
   viewBox="0 0 48 48"
   version="1.1"
   id="SVGRoot"
   inkscape:version="0.92.4 (5da689c313, 2019-01-14)"
   sodipodi:docname="posera.svg">
  <defs
     id="defs1995" />
  <sodipodi:namedview
     id="base"
     pagecolor="#ffffff"
     bordercolor="#666666"
     borderopacity="1.0"
     inkscape:pageopacity="0.0"
     inkscape:pageshadow="2"
     inkscape:zoom="18.083334"
     inkscape:cx="21.293571"
     inkscape:cy="25.068611"
     inkscape:document-units="px"
     inkscape:current-layer="layer1"
     showgrid="true"
     inkscape:window-width="1920"
     inkscape:window-height="1017"
     inkscape:window-x="-8"
     inkscape:window-y="-8"
     inkscape:window-maximized="1"
     inkscape:grid-bbox="true"
     showguides="true"
     inkscape:guide-bbox="true"
     inkscape:snap-global="true">
    <inkscape:grid
       type="xygrid"
       id="grid2562" />
  </sodipodi:namedview>
  <metadata
     id="metadata1998">
    <rdf:RDF>
      <cc:Work
         rdf:about="">
        <dc:format>image/svg+xml</dc:format>
        <dc:type
           rdf:resource="http://purl.org/dc/dcmitype/StillImage" />
        <dc:title></dc:title>
      </cc:Work>
    </rdf:RDF>
  </metadata>
  <g
     inkscape:label="Layer 1"
     inkscape:groupmode="layer"
     id="layer1">
    <path
       style="opacity:1;vector-effect:none;fill:#ffffff;fill-opacity:1;fill-rule:evenodd;paint-order:normal"
       d="M 24 13 C 18.46 13 14 17.46 14 23 C 14 28.54 18.46 33 24 33 C 29.54 33 34 28.54 34 23 C 34 17.46 29.54 13 24 13 z M 24 14 C 28.986 14 33 18.014 33 23 C 33 27.986 28.986 32 24 32 C 19.014 32 15 27.986 15 23 C 15 18.014 19.014 14 24 14 z "
       id="rect818" />
    <path
       style="fill:#ffffff"
       d="m 16.042485,28.145768 c 0,0 -1.322597,-4.45998 3.347708,-8.916174 6.192901,-5.908986 9.645378,-4.110058 9.645378,-4.110058 l 1.458408,1.292679 c 0,0 -3.463477,-3.900013 -11.004349,3.082544 -5.079476,4.7034 -2.452777,9.678524 -2.452777,9.678524 z"
       id="path831"
       inkscape:connector-curvature="0"
       sodipodi:nodetypes="csccscc" />
    <path
       style="fill:#ffffff"
       d="m 14.849242,22.875613 c 0,0 0.833994,8.218502 9.844252,8.054388 6.479352,-0.118016 8.220116,-4.872408 8.220116,-4.872408 l -0.878359,1.972166 c 0,0 -1.92908,2.98783 -7.374903,3.198553 -7.131786,0.27596 -9.943689,-6.165087 -9.943689,-6.165087 z"
       id="path833"
       inkscape:connector-curvature="0"
       sodipodi:nodetypes="csccscc" />
    <path
       style="fill:#ffffff"
       d="m 17.036853,16.975691 -1.326515,1.84527 -0.52964,2.032769 c 0,0 2.165057,-5.389235 8.253262,-5.170719 8.406119,0.30171 9.777961,7.424621 9.777961,7.424621 L 32.979901,20.3234 c 0,0 -2.930805,-5.139764 -8.651009,-5.435884 -4.427186,-0.229184 -7.292039,2.088175 -7.292039,2.088175 z"
       id="path835"
       inkscape:connector-curvature="0"
       sodipodi:nodetypes="cccsccsc" />
    <path
       style="fill:#ffffff"
       d="m 17.799203,30.001923 c 0,0 4.197603,2.291728 9.976834,-3.215125 5.20888,-4.963384 3.380855,-9.71167 3.380855,-9.71167 l 1.126951,1.690427 c 0,0 -1.09e-4,5.11236 -4.010621,8.684155 -5.260186,4.684765 -8.883029,3.745456 -8.883029,3.745456 z"
       id="path837"
       inkscape:connector-curvature="0"
       sodipodi:nodetypes="csccscc" />
    <path
       style="fill:#ffffff"
       d="M 17.779297 16.734375 C 17.688811 16.721812 17.609725 16.733239 17.578125 16.804688 C 17.531144 16.910902 17.73851 16.97298 17.8125 17.0625 C 17.887154 17.152831 17.945467 17.25627 18.023438 17.34375 C 18.159483 17.496396 18.284046 17.677915 18.46875 17.765625 C 18.689336 17.870375 18.959227 17.856735 19.183594 17.953125 C 19.581577 18.124097 19.812556 18.492397 20.203125 18.679688 C 20.404847 18.776422 20.653551 18.732653 20.859375 18.820312 C 21.180336 18.957017 21.421661 19.236724 21.726562 19.40625 C 22.010811 19.564292 22.617188 19.804688 22.617188 19.804688 C 22.617188 19.804688 22.602113 20.699216 22.802734 21.552734 C 22.936221 22.120637 22.912679 22.76485 22.734375 23.320312 C 22.550653 23.892653 22.100903 24.350936 21.890625 24.914062 C 21.697047 25.432464 21.7186 26.016454 21.515625 26.53125 C 21.343592 26.96757 20.985088 27.313899 20.8125 27.75 C 20.573314 28.35438 20.591329 29.063163 20.308594 29.648438 C 20.20457 29.863772 20.132764 30.098173 19.921875 30.210938 C 19.666129 30.347683 19.529394 30.318106 19.007812 30.316406 C 18.902993 30.316056 18.924888 30.452361 18.960938 30.550781 C 19.042797 30.774246 19.332584 30.796396 19.570312 30.785156 C 19.668093 30.780536 19.730745 30.713125 19.828125 30.703125 C 20.014975 30.684009 20.199462 30.951728 20.367188 30.867188 C 20.700375 30.699248 20.652533 30.250103 20.765625 29.894531 C 20.971731 29.24652 21.216737 29.200916 21.375 28.851562 C 21.50874 28.556342 21.508467 28.213362 21.632812 27.914062 C 21.753639 27.623232 21.947547 27.368452 22.101562 27.09375 C 22.363188 26.627117 22.623014 26.188944 22.908203 25.736328 C 23.251463 25.19155 24 24.117188 24 24.117188 C 24 24.117188 24.748537 25.19155 25.091797 25.736328 C 25.376986 26.188944 25.636812 26.627117 25.898438 27.09375 C 26.052453 27.368452 26.24636 27.623232 26.367188 27.914062 C 26.491533 28.213362 26.49126 28.556342 26.625 28.851562 C 26.783263 29.200916 27.028269 29.24652 27.234375 29.894531 C 27.347467 30.250103 27.299626 30.699248 27.632812 30.867188 C 27.800538 30.951728 27.985025 30.684009 28.171875 30.703125 C 28.269255 30.713125 28.331907 30.780536 28.429688 30.785156 C 28.667416 30.796396 28.957203 30.774246 29.039062 30.550781 C 29.075112 30.452361 29.097007 30.316056 28.992188 30.316406 C 28.470606 30.318106 28.333871 30.347683 28.078125 30.210938 C 27.867236 30.098173 27.79543 29.863772 27.691406 29.648438 C 27.408671 29.063163 27.426686 28.35438 27.1875 27.75 C 27.014912 27.313899 26.656408 26.96757 26.484375 26.53125 C 26.2814 26.016454 26.302953 25.432464 26.109375 24.914062 C 25.899097 24.350936 25.449347 23.892653 25.265625 23.320312 C 25.087321 22.76485 25.063779 22.120637 25.197266 21.552734 C 25.397887 20.699216 25.382813 19.804688 25.382812 19.804688 C 25.382812 19.804688 25.98919 19.564292 26.273438 19.40625 C 26.578339 19.236724 26.819664 18.957017 27.140625 18.820312 C 27.346449 18.732653 27.595153 18.776422 27.796875 18.679688 C 28.187444 18.492397 28.418423 18.124097 28.816406 17.953125 C 29.040773 17.856735 29.310664 17.870375 29.53125 17.765625 C 29.715954 17.677915 29.840518 17.496396 29.976562 17.34375 C 30.054533 17.25627 30.112846 17.152831 30.1875 17.0625 C 30.26149 16.97298 30.468856 16.910902 30.421875 16.804688 C 30.358675 16.661791 30.103537 16.762377 29.953125 16.804688 C 29.635832 16.893947 29.391321 17.149583 29.109375 17.320312 C 28.953507 17.414693 28.640625 17.601562 28.640625 17.601562 C 28.640625 17.601562 27.689616 17.809463 27.257812 18.023438 C 27.042167 18.130298 26.896489 18.358879 26.671875 18.445312 C 26.539824 18.496133 26.379093 18.434267 26.25 18.492188 C 26.1541 18.535218 26.074972 18.564489 25.974609 18.595703 C 25.801576 18.649523 25.917513 18.514233 25.476562 18.632812 C 25.216963 18.702623 25.10396 18.999314 24.837891 18.960938 C 24.612055 18.928368 24.530245 18.742457 24.521484 18.544922 C 24.503574 18.141223 24.798584 18.088875 24.785156 17.742188 C 24.780956 17.632502 24.647778 17.673545 24.650391 17.59375 C 24.652491 17.5287 24.654983 17.465576 24.650391 17.373047 C 24.637321 17.108871 24.541412 16.814459 24.058594 16.828125 C 24.035864 16.828768 24.02112 16.835891 24 16.837891 C 23.97888 16.835891 23.964136 16.828768 23.941406 16.828125 C 23.458588 16.814459 23.362679 17.108871 23.349609 17.373047 C 23.345017 17.465576 23.347509 17.5287 23.349609 17.59375 C 23.352222 17.673545 23.219044 17.632502 23.214844 17.742188 C 23.201416 18.088875 23.496426 18.141223 23.478516 18.544922 C 23.469755 18.742457 23.387945 18.928368 23.162109 18.960938 C 22.89604 18.999314 22.783037 18.702623 22.523438 18.632812 C 22.082487 18.514233 22.198424 18.649523 22.025391 18.595703 C 21.925028 18.564489 21.8459 18.535218 21.75 18.492188 C 21.620907 18.434267 21.460176 18.496133 21.328125 18.445312 C 21.103511 18.358879 20.957833 18.130298 20.742188 18.023438 C 20.310384 17.809463 19.359375 17.601562 19.359375 17.601562 C 19.359375 17.601562 19.046493 17.414693 18.890625 17.320312 C 18.608679 17.149583 18.364168 16.893947 18.046875 16.804688 C 17.971669 16.783532 17.869783 16.746938 17.779297 16.734375 z "
       id="path839" />
  </g>
</svg>
