<?xml version="1.0" encoding="UTF-8" standalone="no"?>
<!-- Created with Inkscape (http://www.inkscape.org/) -->

<svg
   xmlns:dc="http://purl.org/dc/elements/1.1/"
   xmlns:cc="http://creativecommons.org/ns#"
   xmlns:rdf="http://www.w3.org/1999/02/22-rdf-syntax-ns#"
   xmlns:svg="http://www.w3.org/2000/svg"
   xmlns="http://www.w3.org/2000/svg"
   xmlns:sodipodi="http://sodipodi.sourceforge.net/DTD/sodipodi-0.dtd"
   xmlns:inkscape="http://www.inkscape.org/namespaces/inkscape"
   width="48px"
   height="48px"
   viewBox="0 0 48 48"
   version="1.1"
   id="SVGRoot"
   inkscape:version="0.92.4 (5da689c313, 2019-01-14)"
   sodipodi:docname="rebellea.svg"
   inkscape:export-filename="C:\Users\Admin\Documents\Rainmeter\Skins\Honeycomb-NG\@Resources\Images\openshot.png"
   inkscape:export-xdpi="512"
   inkscape:export-ydpi="512">
  <defs
     id="defs1995" />
  <sodipodi:namedview
     id="base"
     pagecolor="#ffffff"
     bordercolor="#666666"
     borderopacity="1.0"
     inkscape:pageopacity="0.0"
     inkscape:pageshadow="2"
     inkscape:zoom="18.083334"
     inkscape:cx="17.44189"
     inkscape:cy="23.406761"
     inkscape:document-units="px"
     inkscape:current-layer="layer1"
     showgrid="true"
     inkscape:window-width="1920"
     inkscape:window-height="1017"
     inkscape:window-x="-8"
     inkscape:window-y="-8"
     inkscape:window-maximized="1"
     inkscape:grid-bbox="true"
     inkscape:snap-global="false">
    <inkscape:grid
       type="xygrid"
       id="grid2562" />
  </sodipodi:namedview>
  <metadata
     id="metadata1998">
    <rdf:RDF>
      <cc:Work
         rdf:about="">
        <dc:format>image/svg+xml</dc:format>
        <dc:type
           rdf:resource="http://purl.org/dc/dcmitype/StillImage" />
        <dc:title></dc:title>
      </cc:Work>
    </rdf:RDF>
  </metadata>
  <g
     inkscape:label="Layer 1"
     inkscape:groupmode="layer"
     id="layer1">
    <path
       style="fill:#ffffff;stroke-width:0.09216369"
       d="m 17.507701,30.728209 c -0.669565,-0.229559 -0.805052,-0.320358 -1.474618,-0.988242 -0.40552,-0.404501 -0.781149,-0.727026 -0.83473,-0.716722 -0.182644,0.03513 -0.799067,-1.463023 -1.035095,-2.515678 -0.185629,-0.827884 -0.209919,-3.499598 -0.0373,-4.101988 0.37201,-1.298163 0.857228,-2.463014 1.113145,-2.672302 0.03116,-0.02549 0.156597,-0.232856 0.278736,-0.460818 0.284313,-0.530645 1.315081,-1.841365 1.85161,-2.354499 0.432468,-0.41361 1.058207,-0.870971 1.19162,-0.870971 0.0426,0 0.139278,-0.09332 0.21482,-0.207369 0.157085,-0.237167 1.271519,-0.924582 1.846968,-1.139261 1.154097,-0.430553 2.332655,-0.67862 3.229655,-0.67979 1.0644,-0.0014 2.460075,0.257831 3.442832,0.639437 0.813027,0.315699 2.465688,1.238584 2.628796,1.467983 0.0648,0.09113 0.2215,0.192969 0.348226,0.226302 0.294941,0.07759 1.22141,0.941157 1.412796,1.316891 0.08063,0.158302 0.289648,0.435114 0.464475,0.615139 0.174828,0.180024 0.295,0.350186 0.267048,0.378138 -0.08376,0.08376 0.172811,0.334587 0.27662,0.270431 0.05698,-0.03521 0.06824,-0.01445 0.02771,0.05114 -0.03753,0.06074 -0.02647,0.160793 0.0246,0.222334 0.05107,0.06154 0.154183,0.277462 0.229127,0.479822 0.07495,0.20236 0.268035,0.678981 0.429089,1.059156 0.513832,1.212924 0.74269,2.278118 0.746511,3.474546 0.0019,0.583937 -0.01971,1.0848 -0.04794,1.11303 -0.02823,0.02823 -0.05547,-0.256267 -0.06052,-0.632217 -0.01134,-0.844198 -0.151341,-0.529406 -0.167364,0.376333 -0.0059,0.329485 -0.04107,0.646873 -0.07831,0.705303 -0.03725,0.05843 -0.06802,-0.625885 -0.06838,-1.520701 -6.22e-4,-1.536586 -0.103492,-2.430863 -0.319334,-2.776316 -0.170779,-0.27333 -0.18666,-0.01375 -0.03707,0.605891 0.112216,0.464828 0.156048,1.093852 0.163101,2.340679 0.0085,1.495841 -0.01613,1.804476 -0.200395,2.515601 -0.246101,0.949736 -0.901451,2.472618 -1.363828,3.169219 -0.367151,0.553136 -0.622671,0.681101 -0.281798,0.141123 0.594227,-0.941317 1.063054,-2.139397 1.450286,-3.706179 0.192671,-0.779568 0.140187,-3.198309 -0.09039,-4.165601 -0.414035,-1.73692 -1.570497,-3.798883 -2.691417,-4.798774 -0.325338,-0.290211 -0.621346,-0.527843 -0.657796,-0.52807 -0.03645,-2.07e-4 -0.375128,-0.202037 -0.752618,-0.448466 -0.713638,-0.465868 -2.209681,-1.117996 -2.568762,-1.119729 -0.113703,-5.52e-4 -0.404362,-0.06096 -0.64591,-0.134259 -0.61914,-0.187868 -2.187859,-0.199856 -2.924796,-0.02235 -1.497247,0.360639 -3.040053,1.236178 -4.078243,2.314391 -0.926636,0.962359 -0.843781,1.064033 0.235835,0.289398 0.385611,-0.276681 0.879114,-0.588184 1.096673,-0.692231 0.217558,-0.104049 0.316559,-0.136884 0.220001,-0.07298 -0.09655,0.06391 -0.488446,0.321733 -0.870864,0.572929 -1.20009,0.788289 -2.502671,2.129511 -2.501271,2.57547 5.53e-4,0.168765 0.02386,0.158146 0.182198,-0.08296 0.227111,-0.345801 1.660802,-1.797192 1.775275,-1.797192 0.04652,0 -0.0758,0.155527 -0.271802,0.345614 -0.782468,0.758865 -1.689546,1.985932 -1.562193,2.113285 0.02503,0.02503 0.120672,-0.07214 0.21253,-0.215933 0.40531,-0.634469 1.064862,-1.40041 1.170866,-1.35973 0.06357,0.02439 0.279187,-0.07332 0.479141,-0.217129 0.617158,-0.443891 0.654924,-0.43852 0.223757,0.03183 -0.228958,0.249763 -0.529642,0.57811 -0.668187,0.729662 -0.264483,0.289313 -0.313227,0.415678 -0.160345,0.415678 0.05035,0 -0.04295,0.178108 -0.207369,0.395794 -0.363374,0.48113 -0.956045,1.696633 -0.869479,1.783202 0.08185,0.08185 0.412319,-0.219704 0.48225,-0.44004 0.03005,-0.09469 0.09128,-0.172173 0.136056,-0.172173 0.04477,0 -0.06027,0.300685 -0.233424,0.668186 -0.679575,1.442293 -1.035568,4.331231 -0.701297,5.691108 0.162345,0.660441 0.613268,1.586563 0.904914,1.858539 l 0.230701,0.215144 0.338183,-0.379484 c 0.193931,-0.217616 0.430348,-0.640559 0.554257,-0.991543 0.259275,-0.734432 0.492241,-1.050757 0.899031,-1.220723 0.485107,-0.202691 0.745708,-0.158391 1.089265,0.185166 0.171735,0.171734 0.543615,0.425443 0.826402,0.563797 0.282786,0.138354 0.514157,0.267875 0.514157,0.287825 0,0.01995 -0.08554,0.218245 -0.190085,0.440657 -0.233383,0.496504 -0.889491,1.175284 -1.45833,1.508727 -0.377875,0.221503 -0.533114,0.252126 -1.392987,0.27479 -0.854149,0.02251 -1.054247,-0.0041 -1.705028,-0.227279 z M 16.979927,23.69604 c 0.05189,-0.204447 0.05811,-0.391196 0.01391,-0.418507 -0.04388,-0.02713 -0.105605,0.06644 -0.137147,0.207904 -0.03155,0.14147 -0.07702,0.329798 -0.101074,0.418505 -0.02404,0.08871 -0.0045,0.161286 0.04344,0.161286 0.04794,0 0.129333,-0.166134 0.180876,-0.369188 z m 0.212114,-0.946448 c -0.01141,-0.110201 -0.13781,-0.08885 -0.177415,0.02996 -0.02027,0.06082 0.01289,0.09401 0.07373,0.07374 0.06083,-0.02028 0.107486,-0.06694 0.103684,-0.103685 z m -1.546211,7.008972 c -0.209048,-0.269925 -0.221924,-0.379387 -0.02225,-0.189115 0.118213,0.112643 0.192042,0.2277 0.164063,0.255677 -0.02798,0.02798 -0.09179,-0.002 -0.141816,-0.06656 z m 6.000025,-1.991423 c -0.496245,-0.360507 -0.633954,-0.541364 -0.520485,-0.683552 0.05057,-0.06336 0.309217,-0.529941 0.574782,-1.036841 0.265567,-0.506901 0.519174,-0.960622 0.563573,-1.00827 0.04987,-0.05352 0.195571,-0.03173 0.38118,0.05699 0.393468,0.188087 1.264004,0.879255 1.332607,1.058033 0.06481,0.168878 -1.593923,1.874763 -1.822936,1.874763 -0.0821,0 -0.311028,-0.117505 -0.508721,-0.261125 z m 12.226744,-1.485376 c -0.0039,-0.218248 0.02394,-0.28818 0.08913,-0.222991 0.06289,0.06289 0.06487,0.170305 0.0059,0.317964 -0.08375,0.20953 -0.08948,0.203795 -0.09497,-0.09497 z m -9.924338,-0.910642 c -0.360825,-0.341991 -0.829084,-0.699834 -1.040579,-0.795204 -0.211494,-0.09538 -0.372484,-0.225536 -0.357756,-0.289257 0.01472,-0.06373 0.939199,-1.045069 2.05438,-2.180772 1.925945,-1.961389 2.573542,-2.661592 3.026262,-3.272096 0.109707,-0.14794 0.393701,-0.471211 0.631099,-0.718374 0.391899,-0.408026 0.454554,-0.441192 0.68066,-0.360315 0.136967,0.04899 0.306237,0.175689 0.376153,0.28155 0.116447,0.176309 0.07174,0.276944 -0.532377,1.198128 -0.362727,0.553109 -0.773182,1.15081 -0.912125,1.328226 -0.138942,0.177415 -0.514534,0.79952 -0.834646,1.382455 -0.320113,0.582936 -0.793843,1.391672 -1.052731,1.797192 -0.25889,0.40552 -0.609444,1.006888 -0.779006,1.336373 -0.369224,0.717453 -0.493777,0.922923 -0.556336,0.917768 -0.02582,-0.0022 -0.342173,-0.283682 -0.702998,-0.625674 z m 10.010659,0.450656 c 0,-0.04769 0.041,-0.112065 0.0911,-0.143034 0.05225,-0.03229 0.0677,0.0047 0.03622,0.08673 -0.06127,0.159666 -0.127329,0.18888 -0.127329,0.05631 z M 15.298255,18.803098 c 0.238779,-0.401185 1.115047,-1.5005 1.609191,-2.018801 0.503715,-0.528339 0.526952,-0.543551 0.196842,-0.128845 -0.205866,0.258621 -0.439528,0.524352 -0.51925,0.590515 -0.07972,0.06616 -0.373321,0.444357 -0.652439,0.84043 -0.27912,0.396072 -0.553368,0.748483 -0.609439,0.783138 -0.06735,0.04162 -0.0758,0.01907 -0.02491,-0.06644 z m 16.897798,-1.25845 c -0.11464,-0.146177 -0.11138,-0.149437 0.0348,-0.0348 0.153522,0.120399 0.202345,0.196083 0.12649,0.196083 -0.01914,0 -0.09172,-0.07258 -0.161287,-0.161286 z M 31.735235,17.08383 c -0.114639,-0.146177 -0.11138,-0.149436 0.0348,-0.0348 0.153522,0.1204 0.202344,0.196083 0.126489,0.196083 -0.01914,0 -0.09171,-0.07258 -0.161286,-0.161286 z m -0.732529,-0.73731 -0.223433,-0.25345 0.253451,0.223433 c 0.139396,0.122889 0.253449,0.236942 0.253449,0.25345 0,0.07228 -0.07464,0.01345 -0.283467,-0.223433 z M 17.914858,15.829164 c 0.122735,-0.151128 0.468398,-0.379641 0.468398,-0.309651 0,0.0176 -0.134788,0.130667 -0.29953,0.251268 -0.185352,0.135689 -0.249723,0.157943 -0.168868,0.05838 z"
       id="path845"
       inkscape:connector-curvature="0" />
  </g>
</svg>
