<?xml version="1.0" encoding="UTF-8" standalone="no"?>
<!-- Created with Inkscape (http://www.inkscape.org/) -->

<svg
   xmlns:dc="http://purl.org/dc/elements/1.1/"
   xmlns:cc="http://creativecommons.org/ns#"
   xmlns:rdf="http://www.w3.org/1999/02/22-rdf-syntax-ns#"
   xmlns:svg="http://www.w3.org/2000/svg"
   xmlns="http://www.w3.org/2000/svg"
   xmlns:sodipodi="http://sodipodi.sourceforge.net/DTD/sodipodi-0.dtd"
   xmlns:inkscape="http://www.inkscape.org/namespaces/inkscape"
   width="48px"
   height="48px"
   viewBox="0 0 48 48"
   version="1.1"
   id="SVGRoot"
   inkscape:version="0.92.4 (5da689c313, 2019-01-14)"
   sodipodi:docname="rocket-3fa.svg"
   inkscape:export-filename="C:\Users\Admin\Documents\Rainmeter\Skins\Honeycomb-NG\@Resources\Images\openshot.png"
   inkscape:export-xdpi="512"
   inkscape:export-ydpi="512">
  <defs
     id="defs1995" />
  <sodipodi:namedview
     id="base"
     pagecolor="#ffffff"
     bordercolor="#666666"
     borderopacity="1.0"
     inkscape:pageopacity="0.0"
     inkscape:pageshadow="2"
     inkscape:zoom="18.083334"
     inkscape:cx="12.79524"
     inkscape:cy="21.763845"
     inkscape:document-units="px"
     inkscape:current-layer="layer1"
     showgrid="true"
     inkscape:window-width="1920"
     inkscape:window-height="1017"
     inkscape:window-x="-8"
     inkscape:window-y="-8"
     inkscape:window-maximized="1"
     inkscape:grid-bbox="true"
     inkscape:snap-global="false">
    <inkscape:grid
       type="xygrid"
       id="grid2562" />
  </sodipodi:namedview>
  <metadata
     id="metadata1998">
    <rdf:RDF>
      <cc:Work
         rdf:about="">
        <dc:format>image/svg+xml</dc:format>
        <dc:type
           rdf:resource="http://purl.org/dc/dcmitype/StillImage" />
        <dc:title></dc:title>
      </cc:Work>
    </rdf:RDF>
  </metadata>
  <g
     inkscape:label="Layer 1"
     inkscape:groupmode="layer"
     id="layer1">
    <path
       style="fill:#ffffff;stroke-width:0.83612764"
       d="m 27.366768,12.970591 c -3.663152,-0.02478 -6.94378,1.038627 -6.94378,1.038627 -0.928008,7.542786 -3.352675,18.971279 -3.352675,18.971279 0,0 1.809338,-0.530458 4.420698,-1.151308 0.626423,-2.419916 1.288486,-7.384706 1.288486,-7.384706 0,0 0.174629,-0.100244 0.360906,-0.153508 0.600025,3.315065 2.147477,8.217568 2.147476,8.217568 0,0 1.795841,-0.590811 4.183905,-1.455058 -2.254493,-5.548687 -3.186103,-7.565976 -3.186103,-7.565976 0,0 4.579005,-2.522452 4.655858,-7.205069 0.04292,-2.614771 -1.950359,-3.300861 -3.574771,-3.311849 z m -1.904151,3.796868 c 1.034305,-0.01394 2.411834,0.117305 2.402234,0.914515 -0.0153,1.270848 -3.028011,3.246471 -4.420698,3.506185 0.528527,-2.309543 0.90145,-4.352112 0.90145,-4.352112 0,0 0.496431,-0.06022 1.117014,-0.06859 z"
       id="path849"
       inkscape:connector-curvature="0" />
  </g>
</svg>
