<?xml version="1.0" encoding="UTF-8" standalone="no"?>
<!-- Created with Inkscape (http://www.inkscape.org/) -->

<svg
   xmlns:dc="http://purl.org/dc/elements/1.1/"
   xmlns:cc="http://creativecommons.org/ns#"
   xmlns:rdf="http://www.w3.org/1999/02/22-rdf-syntax-ns#"
   xmlns:svg="http://www.w3.org/2000/svg"
   xmlns="http://www.w3.org/2000/svg"
   xmlns:sodipodi="http://sodipodi.sourceforge.net/DTD/sodipodi-0.dtd"
   xmlns:inkscape="http://www.inkscape.org/namespaces/inkscape"
   width="48px"
   height="48px"
   viewBox="0 0 48 48"
   version="1.1"
   id="SVGRoot"
   inkscape:version="0.92.4 (5da689c313, 2019-01-14)"
   sodipodi:docname="xnalaraa.svg"
   inkscape:export-filename="C:\Users\Admin\Documents\Rainmeter\Skins\Honeycomb-NG\@Resources\Images\openshot.png"
   inkscape:export-xdpi="512"
   inkscape:export-ydpi="512">
  <defs
     id="defs1995" />
  <sodipodi:namedview
     id="base"
     pagecolor="#ffffff"
     bordercolor="#666666"
     borderopacity="1.0"
     inkscape:pageopacity="0.0"
     inkscape:pageshadow="2"
     inkscape:zoom="12.786848"
     inkscape:cx="18.801071"
     inkscape:cy="33.910754"
     inkscape:document-units="px"
     inkscape:current-layer="layer1"
     showgrid="true"
     inkscape:window-width="1920"
     inkscape:window-height="1017"
     inkscape:window-x="-8"
     inkscape:window-y="-8"
     inkscape:window-maximized="1"
     inkscape:grid-bbox="true"
     inkscape:snap-global="false">
    <inkscape:grid
       type="xygrid"
       id="grid2562" />
  </sodipodi:namedview>
  <metadata
     id="metadata1998">
    <rdf:RDF>
      <cc:Work
         rdf:about="">
        <dc:format>image/svg+xml</dc:format>
        <dc:type
           rdf:resource="http://purl.org/dc/dcmitype/StillImage" />
        <dc:title></dc:title>
      </cc:Work>
    </rdf:RDF>
  </metadata>
  <g
     inkscape:label="Layer 1"
     inkscape:groupmode="layer"
     id="layer1">
    <path
       style="fill:#ffffff;stroke-width:0.08895661"
       d="m 24.201803,33.878132 c -0.07339,-0.04742 -0.323583,-0.08685 -0.55598,-0.0876 -0.289565,-0.0011 -0.422542,-0.03825 -0.422542,-0.118552 0,-0.149931 0.861652,-0.422824 1.524971,-0.482971 0.492855,-0.0447 0.510452,-0.05503 0.475247,-0.279104 -0.07937,-0.505221 -0.217514,-2.298775 -0.20291,-2.634519 0.02387,-0.548749 -0.103603,-1.216854 -0.22458,-1.17704 -0.05771,0.01902 -0.117357,0.118562 -0.132524,0.221261 -0.04091,0.276962 -0.193655,0.363105 -0.69817,0.393749 l -0.454392,0.0276 -0.04362,0.609785 c -0.03658,0.511118 -0.0822,0.647916 -0.281924,0.845435 l -0.238295,0.235647 0.06064,-0.467264 c 0.09048,-0.697212 -0.08639,-1.231148 -0.492797,-1.487705 -0.368519,-0.232637 -0.563235,-0.716176 -0.550647,-1.367427 0.01007,-0.520825 0.234503,-0.872277 0.816701,-1.278892 0.56307,-0.393264 0.885968,-0.415664 0.993515,-0.06894 0.05311,0.17118 0.06056,0.147058 0.03239,-0.104743 -0.04532,-0.40523 0.0251,-0.695867 0.168622,-0.695867 0.05983,0 0.154521,-0.100382 0.21042,-0.223068 0.0559,-0.122688 0.241402,-0.289718 0.412226,-0.37118 0.326479,-0.155685 0.464752,-0.125833 0.902982,0.194951 0.170487,0.124794 0.205263,0.122676 0.38578,-0.02348 0.166856,-0.135116 0.18853,-0.213279 0.136312,-0.491629 -0.05056,-0.269511 -0.100575,-0.33097 -0.269332,-0.33097 -0.113982,0 -0.229841,-0.03656 -0.257464,-0.08126 -0.02763,-0.04469 -0.229269,-0.167934 -0.448102,-0.273868 -0.218837,-0.105937 -0.526028,-0.359591 -0.682648,-0.563678 -0.373196,-0.486292 -0.61055,-0.678012 -0.842399,-0.680434 -0.104092,-0.0011 -0.241024,-0.06435 -0.304288,-0.140579 -0.212438,-0.255972 -1.761159,-1.377021 -2.09511,-1.516554 -0.357213,-0.149252 -0.696449,-0.170634 -1.976363,-0.124574 l -0.828843,0.02984 -1.055484,-0.548357 c -0.580513,-0.301597 -1.118224,-0.548353 -1.194915,-0.548353 -0.07669,0 -0.139438,-0.06004 -0.139438,-0.133435 0,-0.188352 -0.167023,-0.161987 -0.578221,0.09128 -0.195702,0.120537 -0.422963,0.219361 -0.505021,0.219613 -0.153948,3.55e-4 -0.695893,-0.589394 -0.695893,-0.757422 0,-0.05205 -0.184374,-0.27311 -0.409726,-0.491233 -0.649873,-0.629035 -0.942564,-1.486421 -0.574642,-1.683326 0.391196,-0.209362 0.847876,-0.078 1.259933,0.362395 0.127095,0.13584 0.347263,0.275259 0.489261,0.309827 0.141997,0.03456 0.337135,0.116916 0.433645,0.183007 0.0965,0.06608 0.24548,0.120161 0.331049,0.120161 0.08557,0 0.381873,0.100077 0.658452,0.222392 0.276578,0.122318 0.627985,0.22381 0.780905,0.225544 0.152922,0.0018 0.378117,0.06036 0.500431,0.130286 0.122317,0.06993 0.427664,0.128546 0.678553,0.130281 0.49271,0.0035 1.059207,0.198572 1.276392,0.439739 0.148176,0.16454 0.906981,0.364025 1.384697,0.364025 0.16585,0 0.432999,0.05738 0.593669,0.127517 0.160671,0.07013 0.872572,0.314802 1.582001,0.543704 0.709427,0.2289 1.443865,0.494552 1.632082,0.590338 0.200512,0.102046 0.4031,0.14761 0.489261,0.110038 0.08088,-0.03526 0.205861,-0.07583 0.277746,-0.09016 0.07189,-0.01434 0.272037,-0.17232 0.444782,-0.351113 0.172749,-0.178789 0.694376,-0.544988 1.159174,-0.813766 0.890955,-0.515215 1.365309,-0.904779 1.55008,-1.273004 0.06138,-0.122314 0.204077,-0.652338 0.317108,-1.177832 l 0.205525,-0.955454 0.688437,-0.700565 c 0.378636,-0.385311 0.756499,-0.804448 0.839694,-0.931415 0.0832,-0.126973 0.223202,-0.253689 0.311133,-0.281595 0.164586,-0.05224 0.163145,-0.08482 -0.04408,-0.998642 -0.03398,-0.149873 0.01478,-0.228137 0.202688,-0.325306 0.269576,-0.139404 0.905283,-0.213512 1.052266,-0.122673 0.118312,0.07313 0.83724,-0.107696 0.83724,-0.210571 0,-0.04298 0.23398,-0.07813 0.519952,-0.07813 0.586723,0 0.814397,0.157389 0.814397,0.562982 0,0.309497 -0.259027,0.560532 -0.701253,0.679611 -0.210866,0.05677 -0.481581,0.230103 -0.667299,0.427234 -0.589455,0.625687 -1.21119,1.455511 -1.21119,1.616567 0,0.08863 -0.06268,0.213152 -0.139301,0.276739 -0.183242,0.152076 -0.394438,0.566527 -0.394438,0.774041 0,0.211155 -0.37293,0.718243 -0.67297,0.915068 -0.272681,0.178876 -0.500042,0.529837 -0.661652,1.021332 -0.114304,0.34764 -0.857552,1.379824 -1.704625,2.367296 -0.236535,0.275738 -0.430059,0.542605 -0.430059,0.593037 0,0.05043 -0.100833,0.165147 -0.224073,0.254924 l -0.224073,0.163224 0.172118,0.337601 c 0.263995,0.517813 0.485329,1.908083 0.417008,2.619363 -0.07397,0.769997 -0.07457,0.899728 -0.0057,1.225046 0.08092,0.382516 -0.201207,0.704445 -0.781291,0.891502 -0.256242,0.08263 -0.505922,0.199619 -0.554849,0.259975 -0.04894,0.06035 -0.224374,0.179715 -0.389883,0.265241 l -0.300927,0.155498 0.0443,1.348194 c 0.0283,0.861674 0.0011,1.701311 -0.07579,2.326717 -0.06605,0.538186 -0.09857,1.046731 -0.07227,1.130093 0.02934,0.09299 -0.05227,0.256299 -0.211136,0.422545 -0.231724,0.242476 -0.314065,0.270825 -0.783061,0.269609 -0.288268,-7.09e-4 -0.584159,-0.04017 -0.657551,-0.08759 z"
       id="path838"
       inkscape:connector-curvature="0"
       sodipodi:nodetypes="ccscssccscccccssccssccsccscccccsscsssccscssscssccscscsscccssccccccccssscsscssccsccsccccccccccccc" />
  </g>
</svg>
