<?xml version="1.0" encoding="UTF-8" standalone="no"?>
<!-- Created with Inkscape (http://www.inkscape.org/) -->

<svg
   xmlns:dc="http://purl.org/dc/elements/1.1/"
   xmlns:cc="http://creativecommons.org/ns#"
   xmlns:rdf="http://www.w3.org/1999/02/22-rdf-syntax-ns#"
   xmlns:svg="http://www.w3.org/2000/svg"
   xmlns="http://www.w3.org/2000/svg"
   xmlns:xlink="http://www.w3.org/1999/xlink"
   xmlns:sodipodi="http://sodipodi.sourceforge.net/DTD/sodipodi-0.dtd"
   xmlns:inkscape="http://www.inkscape.org/namespaces/inkscape"
   width="48px"
   height="48px"
   viewBox="0 0 48 48"
   version="1.1"
   id="SVGRoot"
   inkscape:version="0.92.4 (5da689c313, 2019-01-14)"
   sodipodi:docname="borderless-gaminga.svg">
  <defs
     id="defs1995">
    <linearGradient
       gradientUnits="userSpaceOnUse"
       y2="50"
       x2="90"
       y1="20"
       x1="60"
       xlink:href="#WhiteTransparent-4"
       id="IcecapTip-6"
       gradientTransform="matrix(0.9965784,0,0,0.9962666,-89.841948,-62.996045)" />
    <linearGradient
       gradientUnits="userSpaceOnUse"
       id="WhiteTransparent-4">
      <stop
         id="stop7606-4"
         offset="0"
         style="stop-color:white;stop-opacity:1" />
      <stop
         id="stop7608-7"
         offset="1"
         style="stop-color:white;stop-opacity:0" />
    </linearGradient>
  </defs>
  <sodipodi:namedview
     id="base"
     pagecolor="#ffffff"
     bordercolor="#666666"
     borderopacity="1.0"
     inkscape:pageopacity="0.0"
     inkscape:pageshadow="2"
     inkscape:zoom="12.786848"
     inkscape:cx="19.660562"
     inkscape:cy="30.162854"
     inkscape:document-units="px"
     inkscape:current-layer="layer1"
     showgrid="true"
     inkscape:window-width="1920"
     inkscape:window-height="1017"
     inkscape:window-x="-8"
     inkscape:window-y="-8"
     inkscape:window-maximized="1"
     inkscape:grid-bbox="true"
     showguides="true"
     inkscape:guide-bbox="true"
     inkscape:snap-global="true">
    <inkscape:grid
       type="xygrid"
       id="grid2562" />
  </sodipodi:namedview>
  <metadata
     id="metadata1998">
    <rdf:RDF>
      <cc:Work
         rdf:about="">
        <dc:format>image/svg+xml</dc:format>
        <dc:type
           rdf:resource="http://purl.org/dc/dcmitype/StillImage" />
        <dc:title></dc:title>
      </cc:Work>
    </rdf:RDF>
  </metadata>
  <g
     inkscape:label="Layer 1"
     inkscape:groupmode="layer"
     id="layer1">
    <path
       style="opacity:1;vector-effect:none;fill:#ffffff;fill-opacity:1;fill-rule:evenodd;paint-order:stroke fill markers"
       d="m 14,13 v 4 h 2 v -2 h 2 v -2 z"
       id="rect836"
       inkscape:connector-curvature="0"
       sodipodi:nodetypes="ccccccc" />
    <path
       style="opacity:1;vector-effect:none;fill:#ffffff;fill-opacity:1;fill-rule:evenodd;paint-order:stroke fill markers"
       d="m 34,13 v 4 h -2 v -2 h -2 v -2 z"
       id="rect836-7"
       inkscape:connector-curvature="0"
       sodipodi:nodetypes="ccccccc" />
    <path
       style="opacity:1;vector-effect:none;fill:#ffffff;fill-opacity:1;fill-rule:evenodd;paint-order:stroke fill markers"
       d="m 14,33 v -4 h 2 v 2 h 2 v 2 z"
       id="rect836-3"
       inkscape:connector-curvature="0"
       sodipodi:nodetypes="ccccccc" />
    <path
       style="opacity:1;vector-effect:none;fill:#ffffff;fill-opacity:1;fill-rule:evenodd;paint-order:stroke fill markers"
       d="m 34,33 v -4 h -2 v 2 h -2 v 2 z"
       id="rect836-7-1"
       inkscape:connector-curvature="0"
       sodipodi:nodetypes="ccccccc" />
    <path
       style="opacity:1;fill:#ffffff;stroke-width:0.96953595;fill-opacity:1"
       d="m 17.296875,18.960938 v 8.0625 h 2.953126 c 0,0 2.554687,-0.229905 2.554687,-2.25 0,-1.530028 -1.322266,-2.25 -1.322266,-2.25 0,0 1.146485,-0.432784 1.146485,-1.59375 0,-2.038756 -2.357422,-1.968751 -2.357422,-1.96875 z m 1.740235,1.546874 0.595703,0.02344 c 0,0 0.947266,0.01216 0.947266,0.820312 0,0.814039 -1.013672,0.867188 -1.013672,0.867188 H 19.03711 Z m 0,2.882813 0.595703,0.02344 c 0,10e-7 1.386719,-0.01128 1.386719,1.03125 0,0.954664 -1.453125,1.007813 -1.453125,1.007813 H 19.03711 Z"
       id="path874"
       inkscape:connector-curvature="0" />
    <path
       style="fill:#ffffff;fill-opacity:1"
       d="m 27.843749,22.242188 h 3.140625 v 4.078125 c 0,0 -0.603442,0.632813 -2.554688,0.632813 -3.304098,0 -4.335937,-2.039652 -4.335937,-4.007813 0,-2.724427 2.245049,-4.078125 4.195312,-4.078125 1.71934,0 2.477727,0.663905 2.477727,0.663905 v 1.35172 c 0,0 -1.014297,-0.46875 -2.102727,-0.46875 -1.215791,0 -2.554687,0.988957 -2.554687,2.34375 0,1.197047 0.580348,2.742188 2.25,2.742188 0.687591,0 0.820312,-0.210938 0.820312,-0.210938 v -1.523437 h -1.3125 z"
       id="path893"
       inkscape:connector-curvature="0"
       sodipodi:nodetypes="cccsssccssscccc" />
  </g>
</svg>
