<?xml version="1.0" encoding="UTF-8" standalone="no"?>
<!-- Created with Inkscape (http://www.inkscape.org/) -->

<svg
   xmlns:dc="http://purl.org/dc/elements/1.1/"
   xmlns:cc="http://creativecommons.org/ns#"
   xmlns:rdf="http://www.w3.org/1999/02/22-rdf-syntax-ns#"
   xmlns:svg="http://www.w3.org/2000/svg"
   xmlns="http://www.w3.org/2000/svg"
   xmlns:sodipodi="http://sodipodi.sourceforge.net/DTD/sodipodi-0.dtd"
   xmlns:inkscape="http://www.inkscape.org/namespaces/inkscape"
   width="48px"
   height="48px"
   viewBox="0 0 48 48"
   version="1.1"
   id="SVGRoot"
   inkscape:version="0.92.4 (5da689c313, 2019-01-14)"
   sodipodi:docname="raidcalla.svg"
   inkscape:export-filename="C:\Users\Admin\Documents\Rainmeter\Skins\Honeycomb-NG\@Resources\Images\openshot.png"
   inkscape:export-xdpi="512"
   inkscape:export-ydpi="512">
  <defs
     id="defs1995" />
  <sodipodi:namedview
     id="base"
     pagecolor="#ffffff"
     bordercolor="#666666"
     borderopacity="1.0"
     inkscape:pageopacity="0.0"
     inkscape:pageshadow="2"
     inkscape:zoom="11.013816"
     inkscape:cx="16.963227"
     inkscape:cy="26.024798"
     inkscape:document-units="px"
     inkscape:current-layer="layer1"
     showgrid="true"
     inkscape:window-width="1920"
     inkscape:window-height="1017"
     inkscape:window-x="-8"
     inkscape:window-y="-8"
     inkscape:window-maximized="1"
     inkscape:grid-bbox="true"
     inkscape:snap-global="false">
    <inkscape:grid
       type="xygrid"
       id="grid2562" />
  </sodipodi:namedview>
  <metadata
     id="metadata1998">
    <rdf:RDF>
      <cc:Work
         rdf:about="">
        <dc:format>image/svg+xml</dc:format>
        <dc:type
           rdf:resource="http://purl.org/dc/dcmitype/StillImage" />
        <dc:title></dc:title>
      </cc:Work>
    </rdf:RDF>
  </metadata>
  <g
     inkscape:label="Layer 1"
     inkscape:groupmode="layer"
     id="layer1">
    <path
       style="fill:#ffffff;stroke:none;stroke-width:1px;stroke-linecap:butt;stroke-linejoin:miter;stroke-opacity:1"
       d="m 21.904475,32.952578 h -4.353684 l -3.56458,-5.360474 v -6.857053 c 0,0 0.833554,-1.39515 1.795895,-2.122421 1.736036,-1.311977 4.598579,-3.129211 4.598579,-3.129211 0,0 -1.896273,2.572542 -1.278894,5.414895 0.01,0.02738 -0.680264,0.353737 -0.680264,0.353737 0,0 -2.820654,1.385065 0,6.122369 1.121455,1.88349 3.482948,5.578158 3.482948,5.578158 z"
       id="path828"
       inkscape:connector-curvature="0"
       sodipodi:nodetypes="ccccscccsc" />
    <path
       style="fill:#ffffff;stroke:none;stroke-width:1px;stroke-linecap:butt;stroke-linejoin:miter;stroke-opacity:1"
       d="m 21.334987,23.401683 c -3.38125,-5.074533 1.00679,-8.816211 1.00679,-8.816211 l 1.984435,-1.551 h 6.748211 l -5.249699,3.673421 c 0,0 -3.38788,2.052527 -0.707473,5.469316 1.583154,2.018091 4.190421,0.598632 4.190421,0.598632 l 4.678277,-3.292474 v 4.734632 l -2.474224,1.850315 c 0,0 -6.155079,3.369019 -10.176738,-2.666631 z"
       id="path830"
       inkscape:connector-curvature="0"
       sodipodi:nodetypes="sccccsccccs" />
  </g>
</svg>
