<?xml version="1.0" encoding="UTF-8" standalone="no"?>
<!-- Created with Inkscape (http://www.inkscape.org/) -->

<svg
   xmlns:dc="http://purl.org/dc/elements/1.1/"
   xmlns:cc="http://creativecommons.org/ns#"
   xmlns:rdf="http://www.w3.org/1999/02/22-rdf-syntax-ns#"
   xmlns:svg="http://www.w3.org/2000/svg"
   xmlns="http://www.w3.org/2000/svg"
   xmlns:sodipodi="http://sodipodi.sourceforge.net/DTD/sodipodi-0.dtd"
   xmlns:inkscape="http://www.inkscape.org/namespaces/inkscape"
   width="48px"
   height="48px"
   viewBox="0 0 48 48"
   version="1.1"
   id="SVGRoot"
   inkscape:version="0.92.4 (5da689c313, 2019-01-14)"
   sodipodi:docname="ventrilloa.svg"
   inkscape:export-filename="C:\Users\Admin\Documents\Rainmeter\Skins\Honeycomb-NG\@Resources\Images\openshot.png"
   inkscape:export-xdpi="512"
   inkscape:export-ydpi="512">
  <defs
     id="defs1995" />
  <sodipodi:namedview
     id="base"
     pagecolor="#ffffff"
     bordercolor="#666666"
     borderopacity="1.0"
     inkscape:pageopacity="0.0"
     inkscape:pageshadow="2"
     inkscape:zoom="22.027631"
     inkscape:cx="16.161916"
     inkscape:cy="25.587871"
     inkscape:document-units="px"
     inkscape:current-layer="layer1"
     showgrid="true"
     inkscape:window-width="1920"
     inkscape:window-height="1017"
     inkscape:window-x="-8"
     inkscape:window-y="-8"
     inkscape:window-maximized="1"
     inkscape:grid-bbox="true"
     inkscape:snap-global="false">
    <inkscape:grid
       type="xygrid"
       id="grid2562" />
  </sodipodi:namedview>
  <metadata
     id="metadata1998">
    <rdf:RDF>
      <cc:Work
         rdf:about="">
        <dc:format>image/svg+xml</dc:format>
        <dc:type
           rdf:resource="http://purl.org/dc/dcmitype/StillImage" />
        <dc:title></dc:title>
      </cc:Work>
    </rdf:RDF>
  </metadata>
  <g
     inkscape:label="Layer 1"
     inkscape:groupmode="layer"
     id="layer1">
    <path
       style="opacity:1;fill:#ffffff;stroke:none;stroke-width:1px;stroke-linecap:butt;stroke-linejoin:miter;stroke-opacity:1"
       d="M 25.986328 13.904297 C 21.867301 13.816767 19.890625 17.007812 19.890625 17.007812 L 18.693359 17.115234 L 17.087891 20 C 17.087891 20 19.801099 20.427373 19.996094 22.933594 C 20.053404 23.67025 20.325033 26.036447 19.972656 26.988281 C 19.624893 27.927647 18.598951 27.086939 18.746094 28.365234 C 19.368703 28.64183 20.387849 28.980469 21.849609 28.980469 C 22.920043 28.980469 25.060547 29.035156 25.060547 29.035156 C 25.060547 29.035156 25.874638 28.752954 26.230469 28.816406 C 26.58054 28.878826 27.252555 29.279663 27.210938 29.632812 C 27.174826 29.939211 26.426776 30.258345 26.123047 30.3125 C 25.747058 30.37954 24.951172 30.068359 24.951172 30.068359 C 24.951172 30.068359 22.467753 29.958984 21.224609 29.958984 C 20.141016 29.958984 19.425078 29.797432 18.941406 29.609375 C 19.08875 30.226271 19.358552 30.79306 20.027344 31.074219 C 22.072919 31.934174 24.109042 32.023512 28 32.980469 C 29.172715 33.268891 30.502073 32.099278 31.046875 31.021484 C 31.628077 29.87168 31.880847 27.930188 31.980469 25.953125 C 31.977848 25.953136 31.975278 25.953125 31.972656 25.953125 C 31.836825 25.953125 31.420288 26.087113 30.789062 25.917969 C 30.175318 25.753517 29.96986 25.335296 29.828125 25.054688 C 29.718701 24.838046 29.659886 24.646838 29.597656 24.458984 C 29.328937 24.742527 29.008468 25.171836 28.353516 25.441406 C 27.370183 25.846134 26.255179 26.099556 25.113281 26.003906 C 24.08167 25.917498 22.650405 25.794327 21.628906 24.673828 C 20.931772 23.909133 21.013672 23.027425 21.013672 22.503906 C 21.013672 21.685627 21.369737 20.603539 22.357422 19.943359 C 23.345107 19.283179 24.770599 18.972656 26.992188 18.972656 C 27.932181 18.972656 28.844437 18.945312 29.822266 18.945312 C 30.544651 18.945312 31.236875 18.973843 31.255859 18.974609 C 31.335475 18.96636 31.488374 18.95887 31.671875 18.970703 C 31.156327 16.449832 29.804695 13.98544 25.986328 13.904297 z M 29.822266 20.945312 C 28.882272 20.945313 27.970015 20.972656 26.992188 20.972656 C 24.973758 20.972656 23.910824 21.309981 23.46875 21.605469 C 23.026672 21.900956 23.013672 22.083699 23.013672 22.503906 C 23.013672 23.005597 23.111869 23.333272 23.105469 23.326172 C 23.502322 23.761487 24.317414 23.929036 25.28125 24.009766 C 26.011702 24.070949 26.837638 23.902199 27.591797 23.591797 C 27.659216 23.564048 27.911531 23.338251 28.257812 22.988281 C 28.604094 22.638312 29.156875 22.101562 30.013672 22.101562 C 30.428171 22.101563 30.744938 22.342604 30.896484 22.513672 C 31.048031 22.68474 31.116111 22.824846 31.175781 22.955078 C 31.295124 23.215542 31.361581 23.450394 31.431641 23.666016 C 31.475935 23.802352 31.509865 23.879469 31.546875 23.974609 C 31.6313 23.966039 31.67336 23.957078 31.921875 23.955078 C 31.928705 23.944888 31.92473 23.953988 31.9375 23.923828 C 31.9866 23.807847 32.004865 23.651278 32.005859 23.642578 L 32.005859 22.109375 C 31.994545 21.788751 31.974825 21.460347 31.951172 21.103516 C 31.91183 21.042629 31.851377 21.052266 31.765625 21.019531 C 31.601007 20.956641 31.365234 20.964844 31.365234 20.964844 A 1.0001 1.0001 0 0 1 31.199219 20.972656 C 31.199219 20.972656 30.503141 20.945312 29.822266 20.945312 z "
       id="path828" />
    <path
       style="fill:#ffffff;stroke:none;stroke-width:2;stroke-linecap:round;stroke-linejoin:round;stroke-opacity:1;stroke-miterlimit:4;stroke-dasharray:none"
       d="m 22.013317,22.503735 c 0,-1.238487 0.73951,-2.530579 4.979527,-2.530579 0.958911,0 1.870984,0.517 2.829895,0.517 0.706549,0 1.414947,-0.380947 1.414947,-0.380947 0,0 1.768684,-0.363921 1.768684,1.442158 0,0.707474 0,2.122421 0,2.122421 0,0 -0.04885,1.278895 -1.034,1.278895 -0.308386,0 -0.62728,0.07982 -0.925158,0 -0.521264,-0.139672 -0.644279,-1.850316 -1.034,-1.850316 -0.827774,0 -1.275316,1.099888 -2.040789,1.414947 -0.868746,0.357565 -1.839299,0.568205 -2.775474,0.48979 -0.997724,-0.08357 -2.120719,-0.228883 -2.829895,-1.00679 -0.345345,-0.378815 -0.353737,-0.983974 -0.353737,-1.496579 z"
       id="path830"
       inkscape:connector-curvature="0"
       sodipodi:nodetypes="ssscscsssssss" />
    <path
       style="fill:#ffffff;stroke:none;stroke-width:1px;stroke-linecap:butt;stroke-linejoin:miter;stroke-opacity:1"
       d="m 17.651379,17.133924 c 0,0 -0.859572,1.171228 -1.297852,2.621548 -0.08338,0.275931 0.353737,0.789105 0.353737,0.789105 0,0 1.77817,0.505641 2.198017,1.531428 0.378023,0.923599 0.347166,3.114622 0.196509,4.101151 -0.05145,0.33692 -0.132294,0.769246 -0.435368,0.925158 -0.852697,0.438656 -2.130404,0.138915 -2.829895,-0.516999 -0.791119,-0.741834 -0.7039,-2.075253 -0.789105,-3.156422 -0.0651,-0.826008 0.217684,-2.476158 0.217684,-2.476158 0,0 -0.201925,-0.753769 -0.108842,-1.115631 0.388451,-1.510122 1.469368,-3.020369 1.469368,-3.020369 0,0 0.250802,-0.453825 0.761895,-0.326526 0.764938,0.190524 0.263852,0.643715 0.263852,0.643715 z"
       id="path847"
       inkscape:connector-curvature="0"
       sodipodi:nodetypes="cscssssscscsc" />
  </g>
</svg>
