<?xml version="1.0" encoding="UTF-8" standalone="no"?>
<!-- Created with Inkscape (http://www.inkscape.org/) -->

<svg
   xmlns:dc="http://purl.org/dc/elements/1.1/"
   xmlns:cc="http://creativecommons.org/ns#"
   xmlns:rdf="http://www.w3.org/1999/02/22-rdf-syntax-ns#"
   xmlns:svg="http://www.w3.org/2000/svg"
   xmlns="http://www.w3.org/2000/svg"
   xmlns:sodipodi="http://sodipodi.sourceforge.net/DTD/sodipodi-0.dtd"
   xmlns:inkscape="http://www.inkscape.org/namespaces/inkscape"
   width="48px"
   height="48px"
   viewBox="0 0 48 48"
   version="1.1"
   id="SVGRoot"
   inkscape:version="0.92.4 (5da689c313, 2019-01-14)"
   sodipodi:docname="windirstata.svg"
   inkscape:export-filename="C:\Users\Admin\Documents\Rainmeter\Skins\Honeycomb-NG\@Resources\Images\openshot.png"
   inkscape:export-xdpi="512"
   inkscape:export-ydpi="512">
  <defs
     id="defs1995" />
  <sodipodi:namedview
     id="base"
     pagecolor="#ffffff"
     bordercolor="#666666"
     borderopacity="1.0"
     inkscape:pageopacity="0.0"
     inkscape:pageshadow="2"
     inkscape:zoom="12.786848"
     inkscape:cx="16.936682"
     inkscape:cy="20.24916"
     inkscape:document-units="px"
     inkscape:current-layer="layer1"
     showgrid="true"
     inkscape:window-width="1920"
     inkscape:window-height="1017"
     inkscape:window-x="-8"
     inkscape:window-y="-8"
     inkscape:window-maximized="1"
     inkscape:grid-bbox="true"
     inkscape:snap-global="false">
    <inkscape:grid
       type="xygrid"
       id="grid2562" />
  </sodipodi:namedview>
  <metadata
     id="metadata1998">
    <rdf:RDF>
      <cc:Work
         rdf:about="">
        <dc:format>image/svg+xml</dc:format>
        <dc:type
           rdf:resource="http://purl.org/dc/dcmitype/StillImage" />
        <dc:title></dc:title>
      </cc:Work>
    </rdf:RDF>
  </metadata>
  <g
     inkscape:label="Layer 1"
     inkscape:groupmode="layer"
     id="layer1">
    <path
       style="opacity:1;vector-effect:none;fill:#ffffff;fill-opacity:1;fill-rule:evenodd;stroke:none;stroke-width:2;stroke-linecap:round;stroke-linejoin:round;stroke-miterlimit:4;stroke-dasharray:none;paint-order:normal"
       d="M 24 13 C 18.46 13 14 17.46 14 23 C 14 23.236776 14.019126 23.468605 14.035156 23.701172 C 14.102148 22.892307 14.792044 22.232422 15.615234 22.232422 L 16.037109 22.232422 A 8 8 0 0 1 16.882812 19.363281 L 16.882812 17.683594 C 16.882812 16.817702 17.61063 16.087891 18.476562 16.087891 L 19.992188 16.087891 A 8 8 0 0 1 21.027344 15.576172 C 21.029561 14.712046 21.756483 13.986328 22.621094 13.986328 L 24.642578 13.986328 C 25.419019 13.986328 26.079705 14.573175 26.208984 15.318359 A 8 8 0 0 1 27.162109 15.654297 C 27.194281 15.651808 27.224972 15.642578 27.257812 15.642578 L 29.277344 15.642578 C 30.143332 15.642578 30.871094 16.370318 30.871094 17.236328 L 30.871094 18.919922 A 8 8 0 0 1 31.25 19.638672 L 32.402344 19.638672 C 32.877071 19.638672 33.305077 19.862301 33.599609 20.203125 C 32.39445 16.034214 28.567423 13 24 13 z M 31.882812 21.638672 A 8 8 0 0 1 31.994141 22.847656 L 31.996094 22.847656 L 31.996094 21.638672 L 31.882812 21.638672 z M 33.996094 22.921875 L 33.996094 23.078125 C 33.996296 23.051793 34 23.026382 34 23 C 34 22.973618 33.996296 22.948207 33.996094 22.921875 z M 33.980469 23.410156 C 33.898307 24.204623 33.21484 24.847656 32.402344 24.847656 L 31.773438 24.847656 A 8 8 0 0 1 25.640625 30.820312 C 25.832311 31.419097 26.10372 32.039088 26.457031 32.685547 C 30.670678 31.626372 33.799017 27.915418 33.980469 23.410156 z M 16.021484 24.232422 L 16.021484 25.4375 L 16.390625 25.4375 A 8 8 0 0 1 16.101562 24.232422 L 16.021484 24.232422 z M 14.972656 27.296875 C 16.216571 29.916266 18.560071 31.896493 21.417969 32.654297 C 21.192139 31.895324 21.078896 31.15143 21.048828 30.429688 A 8 8 0 0 1 17.349609 27.4375 L 15.615234 27.4375 C 15.387995 27.4375 15.17021 27.386447 14.972656 27.296875 z M 23.109375 30.947266 C 23.199113 31.453751 23.324031 31.965897 23.529297 32.490234 C 23.738956 32.506164 23.948077 32.521484 24.162109 32.521484 C 24.218001 32.521484 24.272345 32.514772 24.328125 32.513672 C 24.107739 31.99971 23.932342 31.49212 23.787109 30.990234 A 8 8 0 0 1 23.109375 30.947266 z "
       id="rect822" />
    <path
       inkscape:connector-curvature="0"
       id="path5526"
       d="m 22.621656,14.986043 c -0.329288,0 -0.594313,0.265066 -0.594313,0.594321 v 2.020635 c 0,0.329253 0.265025,0.594293 0.594313,0.594293 h 1.753213 c 0.305075,1.545515 0.172854,2.228086 -0.397442,3.866722 -0.427886,-0.527841 -1.010645,-0.884403 -1.682657,-1.147775 -0.577436,-0.226282 -1.072438,-0.554147 -1.262885,-0.958302 0.03635,-0.07697 0.05972,-0.161586 0.05972,-0.252596 v -2.020635 c 0,-0.329228 -0.265091,-0.594294 -0.594313,-0.594294 H 18.47665 c -0.329287,0 -0.594314,0.265066 -0.594314,0.594294 v 2.020635 c 0,0.329254 0.265027,0.594321 0.594314,0.594321 h 2.020642 c 0.162728,0 0.30884,-0.06557 0.416006,-0.170862 0.114566,0.543423 0.548617,0.883629 1.262885,1.240607 0.644942,0.322348 1.150915,1.08413 1.400364,1.823775 -0.125796,0.354297 -0.257952,0.730989 -0.408608,1.170057 -0.282423,0.843516 -0.638454,1.821251 -0.891471,2.893529 -0.284045,-0.164345 -0.591912,-0.278237 -0.913735,-0.338018 -0.137414,-0.09076 -0.239322,-0.175347 -0.312021,-0.278567 -0.22712,-0.322732 -0.06964,-0.944956 -0.141114,-1.385499 h 0.787421 c 0.329287,0 0.594312,-0.26504 0.594312,-0.594294 v -2.020661 c 0,-0.329228 -0.265025,-0.594294 -0.594312,-0.594294 h -2.016941 c -0.329222,0 -0.594249,0.265066 -0.594249,0.594294 v 2.020661 c 0,0.329254 0.265027,0.594294 0.594249,0.594294 h 1.084642 c -0.01882,0.463086 -0.363236,1.175906 -0.06685,1.597201 0,0.0032 0.0065,0.0078 0.0072,0.0111 -0.02012,7.9e-5 -0.03959,0 -0.05972,0 -1.206479,0.02421 -1.887641,-0.163364 -2.585227,-0.598032 0.105284,-0.107114 0.170844,-0.256946 0.170844,-0.419719 v -2.016921 c 0,-0.329255 -0.265027,-0.594321 -0.594315,-0.594321 h -2.020641 c -0.329222,0 -0.594313,0.265066 -0.594313,0.594321 v 2.016922 c 0,0.329254 0.265091,0.594319 0.594313,0.594319 h 2.020641 c 0.04219,0 0.08646,-0.0026 0.126313,-0.0111 0.63378,0.610606 1.525641,1.072148 2.778399,1.236902 0.787355,0.103562 1.252629,0.265707 1.552577,0.494008 -0.262171,1.607892 -0.212319,3.392451 0.668635,5.248486 0.149813,0.02265 0.297351,0.0514 0.449434,0.06686 0.313191,0.0318 0.629302,0.04829 0.950865,0.04829 0.321561,0 0.641439,-0.01648 0.954628,-0.04829 0.114499,-0.01162 0.462546,-0.06969 0.575749,-0.08545 -1.522913,-2.658832 -1.753927,-5.039743 -1.285213,-7.298823 0.170712,-0.17027 0.372192,-0.297871 0.605478,-0.404881 0.556991,-0.255511 1.430611,-0.435388 2.080034,-0.494009 1.276125,-0.09843 2.597168,-0.497695 2.878682,-1.504334 0.106452,0.100943 0.253344,0.163409 0.412307,0.163409 h 2.016941 c 0.329222,0 0.594314,-0.26504 0.594314,-0.594288 v -2.020633 c 0,-0.329256 -0.265092,-0.594321 -0.594314,-0.594321 H 30.38454 c -0.329223,0 -0.594314,0.265065 -0.594314,0.594321 v 2.020633 c 0,0.05902 0.01036,0.113398 0.02595,0.167149 -0.149357,0.693035 -1.027262,0.860776 -1.827469,0.921174 0.25542,-0.280857 0.390432,-0.557289 0.531157,-0.858042 0.277684,-0.593522 0.142476,-1.353265 0.08172,-1.704913 -0.144879,-0.466878 -0.242958,-1.230021 -0.133714,-1.927769 h 0.809749 c 0.329222,0 0.594314,-0.265065 0.594314,-0.59432 V 17.23698 c 0,-0.329248 -0.265092,-0.594321 -0.594314,-0.594321 h -2.020672 c -0.329287,0 -0.594315,0.265073 -0.594315,0.594321 v 2.020634 c 0,0.329255 0.265028,0.59432 0.594315,0.59432 h 1.028883 c -0.231143,0.596203 -0.204659,1.288102 -0.07802,1.994639 0.05323,0.308198 -0.01622,0.935317 -0.226599,1.385473 -0.197585,0.422348 -0.414254,0.700967 -1.352005,1.196033 -0.573737,0.04122 -1.2697,0.09466 -1.864664,0.32688 0.999805,-3.224524 0.475983,-5.341658 0.03375,-6.581961 0.251916,-0.06895 0.438336,-0.297637 0.438336,-0.572003 v -2.020631 c 0,-0.329255 -0.265091,-0.594321 -0.594313,-0.594321 z"
       style="color:#000000;font-style:normal;font-variant:normal;font-weight:normal;font-stretch:normal;font-size:medium;line-height:normal;font-family:Sans;-inkscape-font-specification:Sans;text-indent:0;text-align:start;text-decoration:none;text-decoration-line:none;letter-spacing:normal;word-spacing:normal;text-transform:none;writing-mode:lr-tb;direction:ltr;text-anchor:start;display:inline;overflow:visible;visibility:visible;fill:#ffffff;fill-opacity:1;marker:none;enable-background:accumulate" />
  </g>
</svg>
