<?xml version="1.0" encoding="UTF-8" standalone="no"?>
<!-- Created with Inkscape (http://www.inkscape.org/) -->

<svg
   xmlns:dc="http://purl.org/dc/elements/1.1/"
   xmlns:cc="http://creativecommons.org/ns#"
   xmlns:rdf="http://www.w3.org/1999/02/22-rdf-syntax-ns#"
   xmlns:svg="http://www.w3.org/2000/svg"
   xmlns="http://www.w3.org/2000/svg"
   xmlns:sodipodi="http://sodipodi.sourceforge.net/DTD/sodipodi-0.dtd"
   xmlns:inkscape="http://www.inkscape.org/namespaces/inkscape"
   width="48px"
   height="48px"
   viewBox="0 0 48 48"
   version="1.1"
   id="SVGRoot"
   inkscape:version="0.92.4 (5da689c313, 2019-01-14)"
   sodipodi:docname="microsoft-access.svg"
   inkscape:export-filename="C:\Users\Admin\Documents\Rainmeter\Skins\Honeycomb-NG\@Resources\Images\openshot.png"
   inkscape:export-xdpi="512"
   inkscape:export-ydpi="512">
  <defs
     id="defs1995" />
  <sodipodi:namedview
     id="base"
     pagecolor="#ffffff"
     bordercolor="#666666"
     borderopacity="1.0"
     inkscape:pageopacity="0.0"
     inkscape:pageshadow="2"
     inkscape:zoom="22.027631"
     inkscape:cx="15.874927"
     inkscape:cy="25.695912"
     inkscape:document-units="px"
     inkscape:current-layer="layer1"
     showgrid="true"
     inkscape:window-width="1920"
     inkscape:window-height="1017"
     inkscape:window-x="-8"
     inkscape:window-y="-8"
     inkscape:window-maximized="1"
     inkscape:grid-bbox="true">
    <inkscape:grid
       type="xygrid"
       id="grid2562" />
  </sodipodi:namedview>
  <metadata
     id="metadata1998">
    <rdf:RDF>
      <cc:Work
         rdf:about="">
        <dc:format>image/svg+xml</dc:format>
        <dc:type
           rdf:resource="http://purl.org/dc/dcmitype/StillImage" />
        <dc:title></dc:title>
      </cc:Work>
    </rdf:RDF>
  </metadata>
  <g
     inkscape:label="Layer 1"
     inkscape:groupmode="layer"
     id="layer1">
    <path
       style="opacity:1;vector-effect:none;fill:#b2426f;fill-opacity:1;fill-rule:evenodd;stroke:none;stroke-width:2;stroke-linecap:round;stroke-linejoin:round;stroke-miterlimit:4;stroke-dasharray:none;stroke-opacity:1;paint-order:stroke fill markers"
       d="M 24.025391 2 C 23.673255 1.99589 23.326276 2.084826 23.019531 2.2578125 L 7.0195312 11.257812 C 6.3900874 11.611898 6.0004009 12.277798 6 13 L 6 29 C 6 31.77 14.008228 34 23.955078 34 L 24.044922 34 C 33.991772 34 42 31.77 42 29 L 42 13 C 41.999599 12.277798 41.609913 11.611897 40.980469 11.257812 L 24.980469 2.2578125 C 24.688718 2.0932613 24.360315 2.0046126 24.025391 2 z "
       id="rect824-6" />
    <path
       style="opacity:1;vector-effect:none;fill:#d75f97;fill-opacity:1;fill-rule:evenodd;stroke:none;stroke-width:2;stroke-linecap:round;stroke-linejoin:round;stroke-miterlimit:4;stroke-dasharray:none;stroke-opacity:1;paint-order:stroke fill markers"
       d="M 9.3945312 9.921875 L 7.0195312 11.257812 C 6.3900874 11.611899 6.0004009 12.277798 6 13 L 6 18 C 6 20.77 14.028 23 24 23 C 33.972 23 42 20.77 42 18 L 42 13 C 41.999599 12.277798 41.609913 11.611898 40.980469 11.257812 L 38.605469 9.921875 L 9.3945312 9.921875 z "
       id="rect824" />
    <rect
       style="opacity:1;vector-effect:none;fill:#b2426f;fill-opacity:1;fill-rule:evenodd;stroke:none;stroke-width:2;stroke-linecap:round;stroke-linejoin:round;stroke-miterlimit:4;stroke-dasharray:none;stroke-opacity:1;paint-order:stroke fill markers"
       id="rect821"
       width="12"
       height="12"
       x="18"
       y="17" />
    <path
       style="opacity:1;vector-effect:none;fill:#f99dc2;fill-opacity:1;fill-rule:evenodd;stroke:none;stroke-width:2;stroke-linecap:round;stroke-linejoin:round;stroke-miterlimit:4;stroke-dasharray:none;stroke-opacity:1;paint-order:stroke fill markers"
       d="M 24.023438 2 C 23.671973 1.9962418 23.325708 2.0851465 23.019531 2.2578125 L 9.3945312 9.921875 C 12.657024 11.18058 17.9656 12 24 12 C 30.0344 12 35.342976 11.18058 38.605469 9.921875 L 24.980469 2.2578125 C 24.689284 2.0935804 24.361593 2.0049289 24.027344 2 C 24.026025 1.9999995 24.024756 2.0000005 24.023438 2 z "
       id="rect822" />
  </g>
</svg>
