<?xml version="1.0" encoding="UTF-8" standalone="no"?>
<!-- Created with Inkscape (http://www.inkscape.org/) -->

<svg
   xmlns:dc="http://purl.org/dc/elements/1.1/"
   xmlns:cc="http://creativecommons.org/ns#"
   xmlns:rdf="http://www.w3.org/1999/02/22-rdf-syntax-ns#"
   xmlns:svg="http://www.w3.org/2000/svg"
   xmlns="http://www.w3.org/2000/svg"
   xmlns:xlink="http://www.w3.org/1999/xlink"
   xmlns:sodipodi="http://sodipodi.sourceforge.net/DTD/sodipodi-0.dtd"
   xmlns:inkscape="http://www.inkscape.org/namespaces/inkscape"
   width="48px"
   height="48px"
   viewBox="0 0 48 48"
   version="1.1"
   id="SVGRoot"
   inkscape:version="0.92.4 (5da689c313, 2019-01-14)"
   sodipodi:docname="4d-toys.svg"
   inkscape:export-filename="C:\Users\Admin\Documents\Rainmeter\Skins\Honeycomb-NG\@Resources\Images\openshot.png"
   inkscape:export-xdpi="512"
   inkscape:export-ydpi="512">
  <defs
     id="defs1995">
    <linearGradient
       gradientUnits="userSpaceOnUse"
       y2="50"
       x2="90"
       y1="20"
       x1="60"
       xlink:href="#WhiteTransparent-4"
       id="IcecapTip-6"
       gradientTransform="matrix(0.9965784,0,0,0.9962666,-89.841948,-62.996045)" />
    <linearGradient
       gradientUnits="userSpaceOnUse"
       id="WhiteTransparent-4">
      <stop
         id="stop7606-4"
         offset="0"
         style="stop-color:white;stop-opacity:1" />
      <stop
         id="stop7608-7"
         offset="1"
         style="stop-color:white;stop-opacity:0" />
    </linearGradient>
  </defs>
  <sodipodi:namedview
     id="base"
     pagecolor="#ffffff"
     bordercolor="#666666"
     borderopacity="1.0"
     inkscape:pageopacity="0.0"
     inkscape:pageshadow="2"
     inkscape:zoom="18.375241"
     inkscape:cx="6.2006992"
     inkscape:cy="30.737697"
     inkscape:document-units="px"
     inkscape:current-layer="layer1"
     showgrid="true"
     inkscape:window-width="1920"
     inkscape:window-height="1017"
     inkscape:window-x="-8"
     inkscape:window-y="-8"
     inkscape:window-maximized="1"
     inkscape:grid-bbox="true"
     inkscape:snap-global="true">
    <inkscape:grid
       type="xygrid"
       id="grid2562" />
  </sodipodi:namedview>
  <metadata
     id="metadata1998">
    <rdf:RDF>
      <cc:Work
         rdf:about="">
        <dc:format>image/svg+xml</dc:format>
        <dc:type
           rdf:resource="http://purl.org/dc/dcmitype/StillImage" />
        <dc:title></dc:title>
      </cc:Work>
    </rdf:RDF>
  </metadata>
  <g
     inkscape:label="Layer 1"
     inkscape:groupmode="layer"
     id="layer1">
    <path
       style="fill:#ffffff;stroke:none;stroke-width:1px;stroke-linecap:butt;stroke-linejoin:miter;stroke-opacity:1"
       d="M 24 17 L 23 17.308594 L 23 19.5 C 22.999585 19.941369 22.709886 20.330279 22.287109 20.457031 L 17.287109 21.957031 C 17.192972 21.985251 17.096418 21.982442 17 21.982422 L 17 22 L 16 22 L 16 21.996094 C 15.806403 21.99612 15.612765 21.943468 15.445312 21.832031 L 13.1875 20.326172 L 11 21 L 18.5 24 L 26 18 L 24 17 z "
       id="path833" />
    <path
       style="fill:#ffffff"
       d="m 11,22 v 3 l 7,3 v -3 z"
       id="path835"
       inkscape:connector-curvature="0" />
    <path
       style="fill:#ffffff;stroke:none;stroke-width:2;stroke-linecap:round;stroke-linejoin:round;stroke-miterlimit:4;stroke-dasharray:none;stroke-opacity:1"
       d="m 22,14 -5,1 v 6 l 5,-1.5 z"
       id="path827-9"
       inkscape:connector-curvature="0"
       sodipodi:nodetypes="ccccc" />
    <path
       style="fill:#ffffff"
       d="m 19,25 7,-6 v 2 l -7,7 z"
       id="path837"
       inkscape:connector-curvature="0" />
    <path
       style="fill:#ffffff"
       d="M 16.5,14 22,13 18.5,12 13,13 Z"
       id="path829"
       inkscape:connector-curvature="0"
       sodipodi:nodetypes="ccccc" />
    <path
       style="fill:#ffffff"
       d="m 13,14 3,1 v 6 l -3,-2 z"
       id="path831"
       inkscape:connector-curvature="0"
       sodipodi:nodetypes="ccccc" />
    <path
       style="fill:#ffffff"
       d="M 14,27.3 V 30 l 4,2 v -3 z"
       id="path867"
       inkscape:connector-curvature="0"
       sodipodi:nodetypes="ccccc" />
    <path
       style="fill:#ffffff"
       d="m 19,29 v 3 l 2,-1 v -3 z"
       id="path869"
       inkscape:connector-curvature="0" />
    <path
       style="fill:#ffffff"
       d="m 22,27 1,-2 v 3 l -1,2 z"
       id="path871"
       inkscape:connector-curvature="0" />
    <path
       style="fill:#ffffff"
       d="m 25,25 v 4 l 3,3 v -4 z"
       id="path873"
       inkscape:connector-curvature="0"
       sodipodi:nodetypes="ccccc" />
    <path
       style="fill:#ffffff"
       d="m 29,28 6,-3 v 2 l -6,5 z"
       id="path875"
       inkscape:connector-curvature="0" />
    <path
       style="fill:#ffffff"
       d="M 33 23 L 30.974609 23.253906 C 30.84941 24.239854 30.021032 25 29 25 C 28.151763 25 27.434325 24.474679 27.142578 23.732422 L 25 24 L 28.5 27 L 35 24 L 33 23 z "
       id="path877" />
    <rect
       style="opacity:1;vector-effect:none;fill:#ffffff;fill-opacity:1;fill-rule:evenodd;paint-order:stroke fill markers"
       id="rect881"
       width="2"
       height="2"
       x="28"
       y="22"
       ry="1" />
    <rect
       style="opacity:1;vector-effect:none;fill:#ffffff;fill-opacity:1;fill-rule:evenodd;paint-order:stroke fill markers"
       id="rect883"
       width="4"
       height="4"
       x="22"
       y="31"
       ry="2" />
    <rect
       style="opacity:1;vector-effect:none;fill:#ffffff;fill-opacity:1;fill-rule:evenodd;paint-order:stroke fill markers"
       id="rect889"
       width="3"
       height="3"
       x="34"
       y="28"
       ry="1.5" />
    <rect
       style="opacity:1;vector-effect:none;fill:#ffffff;fill-opacity:1;fill-rule:evenodd;paint-order:stroke fill markers"
       id="rect891"
       width="1"
       height="1"
       x="27"
       y="20"
       ry="0.5" />
  </g>
</svg>
