<?xml version="1.0" encoding="UTF-8" standalone="no"?>
<!-- Created with Inkscape (http://www.inkscape.org/) -->

<svg
   xmlns:dc="http://purl.org/dc/elements/1.1/"
   xmlns:cc="http://creativecommons.org/ns#"
   xmlns:rdf="http://www.w3.org/1999/02/22-rdf-syntax-ns#"
   xmlns:svg="http://www.w3.org/2000/svg"
   xmlns="http://www.w3.org/2000/svg"
   xmlns:sodipodi="http://sodipodi.sourceforge.net/DTD/sodipodi-0.dtd"
   xmlns:inkscape="http://www.inkscape.org/namespaces/inkscape"
   width="48px"
   height="48px"
   viewBox="0 0 48 48"
   version="1.1"
   id="SVGRoot"
   inkscape:version="0.92.4 (5da689c313, 2019-01-14)"
   sodipodi:docname="firefox-nightly.svg">
  <defs
     id="defs1995" />
  <sodipodi:namedview
     id="base"
     pagecolor="#ffffff"
     bordercolor="#666666"
     borderopacity="1.0"
     inkscape:pageopacity="0.0"
     inkscape:pageshadow="2"
     inkscape:zoom="26.405996"
     inkscape:cx="11.641868"
     inkscape:cy="24.715658"
     inkscape:document-units="px"
     inkscape:current-layer="layer1"
     showgrid="true"
     inkscape:window-width="1920"
     inkscape:window-height="1017"
     inkscape:window-x="-8"
     inkscape:window-y="-8"
     inkscape:window-maximized="1"
     inkscape:grid-bbox="true"
     inkscape:snap-global="true">
    <inkscape:grid
       type="xygrid"
       id="grid2562" />
  </sodipodi:namedview>
  <metadata
     id="metadata1998">
    <rdf:RDF>
      <cc:Work
         rdf:about="">
        <dc:format>image/svg+xml</dc:format>
        <dc:type
           rdf:resource="http://purl.org/dc/dcmitype/StillImage" />
        <dc:title />
      </cc:Work>
    </rdf:RDF>
  </metadata>
  <g
     inkscape:label="Layer 1"
     inkscape:groupmode="layer"
     id="layer1">
    <path
       style="fill:#ffffff;fill-opacity:1;stroke-width:0.66666669"
       d="M 27.333984 12.367188 C 27.333984 12.367188 23.333984 14.366537 23.333984 17.033203 C 23.333984 17.344966 23.372011 17.6861 23.425781 18.039062 A 5 5 0 0 1 24 18 A 5 5 0 0 1 29 23 A 5 5 0 0 1 28.84375 24.189453 C 29.057024 24.290573 29.256176 24.423366 29.423828 24.595703 L 31.195312 26.367188 L 32 26.367188 L 32 26 L 32 18.367188 L 28.666016 15.033203 C 27.332682 13.69987 27.333984 12.367186 27.333984 12.367188 z "
       id="path2832" />
    <path
       inkscape:connector-curvature="0"
       style="fill:#ffffff;fill-opacity:1;stroke-width:0.66666669"
       d="m 16.3,18.366334 c 0.666667,-1.333334 2.666667,-2 2.666667,-2 V 19.033 H 16.3 Z"
       id="path2830"
       sodipodi:nodetypes="ccccc" />
    <path
       style="fill:#ffffff;stroke-width:0.66666669"
       d="m 18,15.699219 c 0,0 -4,2.000651 -4,7.333984 0,4.666667 2.666667,10 10,10 0.792989,0 1.510474,-0.08251 2.189453,-0.203125 C 26.070442,32.575684 26,32.295499 26,32 v -4.835938 c -0.558336,0.317033 -1.216924,0.52523 -2,0.535157 -2.666453,0.0338 -4.666016,-1.721185 -4.666016,-3.632813 0,-1.333334 1.333334,-1.699219 2,-1.699218 h 1.332032 C 23.332682,22.367188 24,21.69987 24,21.033203 c 0,0 -1.999349,-0.667317 -2.666016,-1.333984 -0.444444,-0.444445 -1.333333,-1.332032 -2,-1.332031 H 18 Z m 13.333984,0.667969 c 0,0 1.838922,7.398391 -1,9.138671 L 32,27.171875 V 26 c 0,-1.081377 0.894408,-1.982682 1.972656,-1.998047 C 33.976994,23.907489 34,23.785643 34,23.699219 34,19.032552 31.333984,16.367187 31.333984,16.367188 Z M 26,19.699219 c 0,0 2,1.333333 2,4 0,0.09689 -0.02005,0.195351 -0.02734,0.292969 0.006,-5.7e-5 0.01154,-0.002 0.01758,-0.002 0.539558,3.2e-5 1.057363,0.218723 1.433594,0.605469 l 0.658203,0.658203 C 31.005177,20.340959 26,19.699219 26,19.699219 Z m 1.990234,5.291015 C 27.382877,24.990367 26.915846,25.527407 27,26.128906 V 32 c 0,0.554 0.446,1 1,1 0.554,0 1,-0.446 1,-1 v -3.585938 l 4.292969,4.292969 C 33.974941,33.416113 35.163406,32.817801 35,31.847656 V 26 c 0,-0.554 -0.446,-1 -1,-1 -0.554,0 -1,0.446 -1,1 v 3.585938 L 28.707031,25.292969 C 28.51876,25.099436 28.260236,24.99025 27.990234,24.990234 Z"
       id="path2828"
       inkscape:connector-curvature="0"
       sodipodi:nodetypes="csscscsscsccccccccscsccscccccccssscccsssccc" />
  </g>
</svg>
