<?xml version="1.0" encoding="UTF-8" standalone="no"?>
<!-- Created with Inkscape (http://www.inkscape.org/) -->

<svg
   xmlns:dc="http://purl.org/dc/elements/1.1/"
   xmlns:cc="http://creativecommons.org/ns#"
   xmlns:rdf="http://www.w3.org/1999/02/22-rdf-syntax-ns#"
   xmlns:svg="http://www.w3.org/2000/svg"
   xmlns="http://www.w3.org/2000/svg"
   xmlns:sodipodi="http://sodipodi.sourceforge.net/DTD/sodipodi-0.dtd"
   xmlns:inkscape="http://www.inkscape.org/namespaces/inkscape"
   width="48px"
   height="48px"
   viewBox="0 0 48 48"
   version="1.1"
   id="SVGRoot"
   inkscape:version="0.92.4 (5da689c313, 2019-01-14)"
   sodipodi:docname="spriter-pro.svg"
   inkscape:export-filename="C:\Users\Admin\Documents\Rainmeter\Skins\Honeycomb-NG\@Resources\Images\openshot.png"
   inkscape:export-xdpi="512"
   inkscape:export-ydpi="512">
  <defs
     id="defs1995" />
  <sodipodi:namedview
     id="base"
     pagecolor="#ffffff"
     bordercolor="#666666"
     borderopacity="1.0"
     inkscape:pageopacity="0.0"
     inkscape:pageshadow="2"
     inkscape:zoom="13.202999"
     inkscape:cx="-1.333965"
     inkscape:cy="25.217987"
     inkscape:document-units="px"
     inkscape:current-layer="layer1"
     showgrid="true"
     inkscape:window-width="1920"
     inkscape:window-height="1017"
     inkscape:window-x="-8"
     inkscape:window-y="-8"
     inkscape:window-maximized="1"
     inkscape:grid-bbox="true"
     inkscape:snap-global="true">
    <inkscape:grid
       type="xygrid"
       id="grid2562" />
  </sodipodi:namedview>
  <metadata
     id="metadata1998">
    <rdf:RDF>
      <cc:Work
         rdf:about="">
        <dc:format>image/svg+xml</dc:format>
        <dc:type
           rdf:resource="http://purl.org/dc/dcmitype/StillImage" />
        <dc:title></dc:title>
      </cc:Work>
    </rdf:RDF>
  </metadata>
  <g
     inkscape:label="Layer 1"
     inkscape:groupmode="layer"
     id="layer1">
    <path
       style="fill:#ffffff;stroke:none;stroke-width:1.06100047px;stroke-linecap:butt;stroke-linejoin:miter;stroke-opacity:1;fill-opacity:1"
       d="M 30 12.445312 C 30 12.445312 28.949217 14.107451 28.875 16.169922 C 28.857109 16.667062 28.862897 17.374445 28.861328 18.035156 C 30.626771 18.217299 32 19.684839 32 21.5 C 32 21.504707 31.998065 21.50897 31.998047 21.513672 C 32.262688 21.45715 32.524909 21.36968 32.65625 21.193359 C 33.265654 20.375253 33.054366 19.034986 32.800781 18.046875 C 32.402564 16.495184 31.131411 14.510716 30.693359 14.207031 C 30.186947 13.855956 30 12.445313 30 12.445312 z M 19.837891 17.091797 C 17.426676 17.111701 13.919922 17.728516 13.919922 17.728516 C 13.919922 17.728516 15.279914 18.374337 15.853516 18.970703 C 16.272106 19.405902 14.957611 20.854787 18.105469 23.560547 C 19.15478 24.462487 20.534931 25.122469 21.916016 25.207031 C 22.666781 25.253001 24.082031 24.572266 24.082031 24.572266 C 24.082031 24.572266 22.850521 25.184674 23.417969 27.689453 C 23.651002 28.718085 24.6875 28.873047 24.6875 28.873047 C 24.087863 30.309555 21.711533 30.781878 21.107422 32.972656 C 20.951119 33.539478 21.742188 34.619141 21.742188 34.619141 C 21.742188 34.619141 21.48356 33.484158 21.626953 32.943359 C 21.942577 31.752998 24.737023 30.469944 25.439453 29.248047 C 25.439453 29.248047 27.131654 28.555114 27.863281 26.505859 C 28.035532 26.023393 28.102752 25.474879 28.138672 24.964844 C 26.373229 24.782701 25 23.315161 25 21.5 C 25 20.536006 25.387382 19.666921 26.013672 19.035156 C 25.491618 18.670719 24.978375 18.340832 24.542969 18.132812 C 23.373938 17.574296 22.081658 17.236259 20.791016 17.123047 C 20.504705 17.097932 20.18235 17.088953 19.837891 17.091797 z M 31.933594 22.162109 C 31.683631 23.474844 30.703179 24.511291 29.429688 24.861328 C 29.459263 24.892995 29.482966 24.918735 29.509766 24.947266 C 30.252717 25.738222 31.183594 26.101562 31.183594 26.101562 C 31.183594 26.101562 31.971343 26.960711 31.761719 27.371094 C 31.455051 27.971461 29.731566 29.005879 29.537109 30.230469 C 29.269273 31.917163 30.375 32.193359 30.375 32.193359 C 30.375 32.193359 29.791397 30.968596 29.914062 30.345703 C 30.184062 28.974644 32.065092 28.324325 32.396484 26.966797 C 32.470404 26.664001 32.251953 26.042969 32.251953 26.042969 C 32.251953 26.042969 32.771899 25.388671 32.626953 23.791016 C 32.556851 23.018328 32.247412 22.504314 31.933594 22.162109 z "
       id="path839" />
    <rect
       style="opacity:1;vector-effect:none;fill:#ffffff;fill-opacity:1;fill-rule:evenodd;stroke:none;stroke-width:3.36142087;stroke-linecap:round;stroke-linejoin:round;stroke-miterlimit:4;stroke-dasharray:none;stroke-opacity:1;paint-order:stroke fill markers"
       id="rect841"
       width="5"
       height="5.0846176"
       x="26"
       y="18.915382"
       ry="2.5423088" />
  </g>
</svg>
