<?xml version="1.0" encoding="UTF-8" standalone="no"?>
<!-- Created with Inkscape (http://www.inkscape.org/) -->

<svg
   xmlns:dc="http://purl.org/dc/elements/1.1/"
   xmlns:cc="http://creativecommons.org/ns#"
   xmlns:rdf="http://www.w3.org/1999/02/22-rdf-syntax-ns#"
   xmlns:svg="http://www.w3.org/2000/svg"
   xmlns="http://www.w3.org/2000/svg"
   xmlns:sodipodi="http://sodipodi.sourceforge.net/DTD/sodipodi-0.dtd"
   xmlns:inkscape="http://www.inkscape.org/namespaces/inkscape"
   width="48px"
   height="48px"
   viewBox="0 0 48 48"
   version="1.1"
   id="SVGRoot"
   inkscape:version="0.92.4 (5da689c313, 2019-01-14)"
   sodipodi:docname="and-yet-it-movesa.svg">
  <defs
     id="defs1995" />
  <sodipodi:namedview
     id="base"
     pagecolor="#ffffff"
     bordercolor="#666666"
     borderopacity="1.0"
     inkscape:pageopacity="0.0"
     inkscape:pageshadow="2"
     inkscape:zoom="25.573696"
     inkscape:cx="19.839984"
     inkscape:cy="22.0801"
     inkscape:document-units="px"
     inkscape:current-layer="layer1"
     showgrid="true"
     inkscape:window-width="1920"
     inkscape:window-height="1017"
     inkscape:window-x="-8"
     inkscape:window-y="-8"
     inkscape:window-maximized="1"
     inkscape:grid-bbox="true">
    <inkscape:grid
       type="xygrid"
       id="grid2562" />
  </sodipodi:namedview>
  <metadata
     id="metadata1998">
    <rdf:RDF>
      <cc:Work
         rdf:about="">
        <dc:format>image/svg+xml</dc:format>
        <dc:type
           rdf:resource="http://purl.org/dc/dcmitype/StillImage" />
        <dc:title></dc:title>
      </cc:Work>
    </rdf:RDF>
  </metadata>
  <g
     inkscape:label="Layer 1"
     inkscape:groupmode="layer"
     id="layer1">
    <path
       style="opacity:1;vector-effect:none;fill:#ffffff;fill-opacity:1;fill-rule:evenodd;paint-order:normal"
       d="M 14 20 C 12.338 20 11 21.338 11 23 C 11 24.662 12.338 26 14 26 C 15.662 26 17 24.662 17 23 C 17 21.338 15.662 20 14 20 z M 14 22 C 14.554 22 15 22.446 15 23 C 15 23.554 14.554 24 14 24 C 13.446 24 13 23.554 13 23 C 13 22.446 13.446 22 14 22 z "
       id="rect825" />
    <rect
       style="opacity:1;vector-effect:none;fill:#ffffff;fill-opacity:1;fill-rule:evenodd;paint-order:normal"
       id="rect827"
       width="2"
       height="6"
       x="15"
       y="20"
       ry="1" />
    <path
       style="fill:none;stroke:#ffffff;stroke-width:2;stroke-linecap:round;stroke-linejoin:round;stroke-miterlimit:4;stroke-dasharray:none;stroke-opacity:1"
       d="m 20,21 c 0,0 2,0 2,2 0,2 -2,2 -2,2"
       id="path829"
       inkscape:connector-curvature="0"
       sodipodi:nodetypes="czc" />
    <rect
       style="opacity:1;vector-effect:none;fill:#ffffff;fill-opacity:1;fill-rule:evenodd;paint-order:normal"
       id="rect831"
       width="7"
       height="2"
       x="21"
       y="22"
       ry="1" />
    <path
       style="opacity:1;vector-effect:none;fill:#ffffff;fill-opacity:1;fill-rule:evenodd;paint-order:normal"
       d="M 30 20 C 28.338 20 27 21.338 27 23 L 29 23 C 29 22.446 29.446 22 30 22 C 30.554 22 31 22.446 31 23 L 33 23 C 33 22.446 33.446 22 34 22 C 34.554 22 35 22.446 35 23 L 37 23 C 37 21.338 35.662 20 34 20 C 33.226703 20 32.530877 20.29821 32 20.775391 C 31.469123 20.29821 30.773297 20 30 20 z "
       id="rect833" />
    <rect
       style="opacity:1;vector-effect:none;fill:#ffffff;fill-opacity:1;fill-rule:evenodd;paint-order:normal"
       id="rect839"
       width="2"
       height="4"
       x="27"
       y="22"
       ry="1" />
    <rect
       style="opacity:1;vector-effect:none;fill:#ffffff;fill-opacity:1;fill-rule:evenodd;paint-order:normal"
       id="rect841"
       width="2"
       height="4"
       x="31"
       y="22"
       ry="1" />
    <rect
       style="opacity:1;vector-effect:none;fill:#ffffff;fill-opacity:1;fill-rule:evenodd;paint-order:normal"
       id="rect843"
       width="2"
       height="4"
       x="35"
       y="22"
       ry="1" />
  </g>
</svg>
