<?xml version="1.0" encoding="UTF-8" standalone="no"?>
<!-- Created with Inkscape (http://www.inkscape.org/) -->

<svg
   xmlns:dc="http://purl.org/dc/elements/1.1/"
   xmlns:cc="http://creativecommons.org/ns#"
   xmlns:rdf="http://www.w3.org/1999/02/22-rdf-syntax-ns#"
   xmlns:svg="http://www.w3.org/2000/svg"
   xmlns="http://www.w3.org/2000/svg"
   xmlns:sodipodi="http://sodipodi.sourceforge.net/DTD/sodipodi-0.dtd"
   xmlns:inkscape="http://www.inkscape.org/namespaces/inkscape"
   width="48px"
   height="48px"
   viewBox="0 0 48 48"
   version="1.1"
   id="SVGRoot"
   inkscape:version="0.92.4 (5da689c313, 2019-01-14)"
   sodipodi:docname="antichambera.svg"
   inkscape:export-filename="C:\Users\Admin\Documents\Rainmeter\Skins\Honeycomb-NG\@Resources\Images\openshot.png"
   inkscape:export-xdpi="512"
   inkscape:export-ydpi="512">
  <defs
     id="defs1995" />
  <sodipodi:namedview
     id="base"
     pagecolor="#ffffff"
     bordercolor="#666666"
     borderopacity="1.0"
     inkscape:pageopacity="0.0"
     inkscape:pageshadow="2"
     inkscape:zoom="18.083334"
     inkscape:cx="5.0315904"
     inkscape:cy="30.46294"
     inkscape:document-units="px"
     inkscape:current-layer="layer1"
     showgrid="true"
     inkscape:window-width="1920"
     inkscape:window-height="1017"
     inkscape:window-x="-8"
     inkscape:window-y="-8"
     inkscape:window-maximized="1"
     inkscape:grid-bbox="true"
     inkscape:snap-global="false">
    <inkscape:grid
       type="xygrid"
       id="grid2562" />
  </sodipodi:namedview>
  <metadata
     id="metadata1998">
    <rdf:RDF>
      <cc:Work
         rdf:about="">
        <dc:format>image/svg+xml</dc:format>
        <dc:type
           rdf:resource="http://purl.org/dc/dcmitype/StillImage" />
        <dc:title></dc:title>
      </cc:Work>
    </rdf:RDF>
  </metadata>
  <g
     inkscape:label="Layer 1"
     inkscape:groupmode="layer"
     id="layer1">
    <path
       style="opacity:1;vector-effect:none;fill:#ffffff;fill-opacity:1;fill-rule:evenodd;stroke-width:0.02248693;paint-order:normal"
       d="m 24.347587,12.163699 c -0.115905,2.13e-4 -0.24315,8.55e-4 -0.376479,0.0015 l -0.969703,0.0059 -3.460222,5.902819 c -2.271588,3.875099 -3.460253,5.92355 -3.460264,5.963164 -2e-5,0.0932 0.107118,0.651629 0.181741,0.947393 0.20332,0.805834 0.556238,1.610796 1.024736,2.337192 l 0.14142,0.219247 h 6.246141 6.246184 l -0.123458,-0.121306 c -0.06789,-0.06672 -0.471197,-0.45123 -0.896273,-0.85446 l -0.772856,-0.733153 -5.616065,-0.0057 -5.616065,-0.0057 4.022171,-6.822014 c 2.212191,-3.752104 4.022174,-6.825918 4.022174,-6.830667 0,-0.0035 -0.245463,-0.0052 -0.593182,-0.0044 z m 0.707988,0.06422 c -0.02073,8.54e-4 -7.960773,13.479673 -7.943815,13.485259 0.0081,0.0026 0.535334,-0.145553 1.171516,-0.329398 0.768568,-0.222102 1.166062,-0.347108 1.18465,-0.372527 0.01538,-0.02105 1.289573,-2.152066 2.831551,-4.735606 1.541978,-2.583541 2.810334,-4.693164 2.818552,-4.688086 0.0082,0.0051 1.820962,3.091037 4.028323,6.857723 2.207361,3.766684 4.02172,6.846038 4.031878,6.842964 0.01018,-0.0031 0.215073,-0.377932 0.455361,-0.832983 0.240289,-0.45505 0.43687,-0.837539 0.43687,-0.849979 0,-0.03032 -8.997522,-15.378069 -9.014886,-15.377367 z m -2.903098,0.880283 c -0.108994,0.0014 -0.827049,0.182858 -1.236867,0.315037 -2.828427,0.912249 -5.168302,3.112226 -6.249478,5.875851 -0.331911,0.848407 -0.532914,1.667308 -0.645883,2.631409 -0.05522,0.471284 -0.05589,1.613975 -0.0013,2.096818 0.233178,2.059811 0.993557,3.847647 2.30728,5.425059 0.258772,0.310711 0.826511,0.885327 1.139721,1.153509 0.301102,0.257815 0.984687,0.771431 0.817829,0.614482 -0.01811,-0.01704 -0.144249,-0.125602 -0.280295,-0.241252 -1.256432,-1.06806 -2.242125,-2.545375 -2.754825,-4.128854 -0.303042,-0.935935 -0.423031,-1.663423 -0.442403,-2.682312 -0.01357,-0.714143 0.01364,-1.113715 0.117881,-1.731494 0.529915,-3.140594 2.659326,-5.789524 5.627045,-6.999846 l 0.34398,-0.140279 0.63855,-1.089738 c 0.351203,-0.599359 0.635682,-1.092646 0.632135,-1.096193 -0.0015,-0.0016 -0.0062,-0.0022 -0.01342,-0.0022 z m 3.72374,2.35e-4 c -0.0017,1.34e-4 -0.003,4.48e-4 -0.0034,9.18e-4 -0.0042,0.0042 0.287803,0.511443 0.648912,1.127157 l 0.656558,1.119472 0.385922,0.187185 c 0.595137,0.288705 1.038611,0.561496 1.510445,0.929036 0.319385,0.248787 0.733672,0.624711 0.951919,0.863769 0.170496,0.186757 0.18525,0.19761 0.229787,0.169136 0.02617,-0.01673 0.313434,-0.189728 0.638329,-0.38443 l 0.590722,-0.353993 -0.04949,-0.07155 c -0.410422,-0.593339 -1.102684,-1.324515 -1.727847,-1.824953 -0.50442,-0.403783 -0.978427,-0.706935 -1.585329,-1.013932 -0.504094,-0.254992 -0.781629,-0.368957 -1.225537,-0.503145 -0.286452,-0.08659 -0.964832,-0.2486 -1.020915,-0.244678 z m 3.854969,1.614524 c -0.0015,0.0019 0.0199,0.02122 0.06597,0.06066 0.749245,0.641393 1.188771,1.102432 1.661353,1.742693 0.152548,0.206674 0.171016,0.223163 0.368749,0.32953 0.219117,0.11787 0.26088,0.13419 0.226099,0.08818 -0.608103,-0.804291 -1.585571,-1.746352 -2.277898,-2.195329 -0.02809,-0.01821 -0.04311,-0.02724 -0.04427,-0.02574 z m -4.608413,1.096195 c -0.0091,-0.0095 -0.155479,0.514767 -0.32514,1.165191 l -0.308448,1.182579 2.811789,4.732707 c 1.546486,2.60299 2.811789,4.737457 2.811789,4.743248 0,0.0058 -2.833708,0.0105 -6.297131,0.0105 -5.990474,0 -6.296078,0.0019 -6.275607,0.03936 0.01183,0.02164 0.107086,0.145603 0.211649,0.275466 0.364792,0.453042 0.804388,0.896364 1.237527,1.24798 l 0.206159,0.167334 6.944684,7.05e-4 6.944638,6.61e-4 -0.04472,-0.07308 c -0.02461,-0.04019 -1.812328,-3.088579 -3.972677,-6.774188 -2.160349,-3.685605 -3.935373,-6.708931 -3.944522,-6.718495 z m -5.683966,0.294877 c -0.02062,0.0042 -0.191875,0.109522 -0.457074,0.285962 -1.707523,1.136029 -2.97437,2.792254 -3.610469,4.720145 -0.298075,0.903394 -0.430587,1.679757 -0.453209,2.655434 -0.03487,1.503934 0.261713,2.866453 0.915026,4.203913 0.435608,0.891773 0.960452,1.636852 1.653272,2.347073 0.185517,0.190178 0.438898,0.433605 0.563052,0.540917 0.818267,0.707267 1.854918,1.323118 2.765014,1.642599 0.675895,0.237268 1.577136,0.424597 2.37237,0.493131 0.312419,0.02692 1.317694,0.02773 1.630301,0.0013 1.032143,-0.08722 2.009618,-0.317038 2.968274,-0.697929 0.37787,-0.150134 1.176792,-0.557415 1.535041,-0.782518 0.685385,-0.430657 1.2396,-0.874742 1.832378,-1.468327 0.219529,-0.219827 0.399143,-0.41009 0.399143,-0.422815 0,-0.01556 -0.382163,-0.02314 -1.167081,-0.02314 h -1.167079 l -0.286446,0.183057 c -0.564121,0.360558 -1.412221,0.758557 -2.067919,0.970408 -0.516842,0.166989 -1.296048,0.337265 -1.888901,0.412758 -0.390598,0.04974 -1.442446,0.05657 -1.821443,0.01182 -1.728481,-0.204069 -3.244948,-0.862478 -4.51987,-1.962424 -2.390056,-2.062029 -3.388451,-5.287557 -2.585119,-8.351784 0.484189,-1.84689 1.654369,-3.53333 3.203376,-4.616539 0.145064,-0.10144 0.201476,-0.145917 0.187363,-0.143047 z m 13.350601,3.455652 c -8.53e-4,-2.3e-5 -0.0015,1.57e-4 -0.0021,5.76e-4 -0.01106,0.0069 -0.240021,0.143986 -0.50881,0.30476 -0.268788,0.160773 -0.491228,0.29482 -0.494317,0.297908 -0.0031,0.0031 0.03037,0.116479 0.0743,0.251968 0.17619,0.543154 0.308692,1.180122 0.371692,1.786699 0.03281,0.315892 0.03308,1.267326 4.27e-4,1.529112 l -0.02381,0.191139 0.239407,0.410211 c 0.131672,0.225631 0.246165,0.402715 0.254471,0.39352 0.0082,-0.0092 0.05152,-0.153297 0.09605,-0.320263 0.14915,-0.559278 0.224982,-0.951707 0.288948,-1.49538 0.03885,-0.330245 0.03837,-1.537168 -6.4e-4,-1.866415 -0.07003,-0.589434 -0.248343,-1.481794 -0.295493,-1.483829 z m 0.153764,0.01094 c -0.0086,0 -0.0013,0.05313 0.01621,0.118056 0.06218,0.231852 0.168284,0.792147 0.213407,1.126893 0.05949,0.441329 0.08292,1.406839 0.04519,1.862287 -0.05581,0.673651 -0.180554,1.348397 -0.357242,1.93242 l -0.08586,0.283722 0.361327,0.615755 c 0.447956,0.763477 0.39684,0.68484 0.419084,0.645094 0.01003,-0.01798 0.06459,-0.193842 0.121174,-0.390797 0.417382,-1.452834 0.501066,-2.978422 0.246873,-4.501163 -0.06317,-0.37845 -0.217225,-1.014427 -0.316968,-1.30859 l -0.06436,-0.189734 -0.291671,-0.09697 c -0.160418,-0.05334 -0.298655,-0.09697 -0.307176,-0.09697 z m -8.922917,1.329583 -0.955695,0.555101 -0.955649,0.555146 0.0049,0.964303 0.0049,0.964347 0.933206,0.546626 c 0.513265,0.300642 0.948386,0.546767 0.966939,0.546933 0.01856,1.57e-4 0.453673,-0.245279 0.966938,-0.54544 l 0.933207,-0.545748 0.0053,-0.965532 0.0053,-0.965489 -0.954599,-0.555146 z m 1.662583,1.325367 v 0.783879 0.783838 l -0.781422,0.455492 c -0.429781,0.250506 -0.789009,0.459616 -0.798285,0.464714 -0.0092,0.0052 -0.01686,-0.343056 -0.01686,-0.773691 V 23.16685 l 0.55655,-0.324305 c 0.306104,-0.17836 0.665332,-0.387906 0.798286,-0.465637 z m -3.302284,0.01322 c 0.0015,-2.99e-4 0.0029,7.6e-5 0.0045,10e-4 0.01663,0.0098 0.375871,0.219881 0.798287,0.466647 l 0.768023,0.448685 v 0.78247 c 0,0.430371 -0.0025,0.782226 -0.0056,0.781904 -0.0031,-3.2e-4 -0.36232,-0.20894 -0.798286,-0.463617 l -0.792622,-0.463042 v -0.785505 c 0,-0.611352 0.0045,-0.764146 0.02578,-0.768552 z m -7.928531,4.552103 c -0.02191,-0.0012 -0.06532,0.06883 -0.2026,0.302564 -0.108637,0.184969 -0.211763,0.359106 -0.229174,0.386933 l -0.03166,0.05059 h 0.396686 c 0.367318,0 0.395766,-0.0029 0.384735,-0.03936 -0.0066,-0.02164 -0.07179,-0.170901 -0.14498,-0.331681 -0.07318,-0.160782 -0.143189,-0.317211 -0.155562,-0.347583 -0.0053,-0.01279 -0.01003,-0.02108 -0.01744,-0.02147 z m -0.03756,0.852528 c -0.235732,0 -0.425223,0.0087 -0.421102,0.01932 0.0041,0.01061 0.20832,0.400231 0.453778,0.865747 l 0.446313,0.846422 h 0.526246 c 0.28945,0 0.526292,-0.0052 0.526292,-0.01147 0,-0.0063 -0.06762,-0.0999 -0.150296,-0.208004 -0.210573,-0.27537 -0.581481,-0.845469 -0.749622,-1.152235 -0.07795,-0.142229 -0.155498,-0.281368 -0.172341,-0.309195 -0.03003,-0.04963 -0.03885,-0.05059 -0.459268,-0.05059 z"
       id="rect835"
       inkscape:connector-curvature="0" />
  </g>
</svg>
