<?xml version="1.0" encoding="UTF-8" standalone="no"?>
<!-- Created with Inkscape (http://www.inkscape.org/) -->

<svg
   xmlns:dc="http://purl.org/dc/elements/1.1/"
   xmlns:cc="http://creativecommons.org/ns#"
   xmlns:rdf="http://www.w3.org/1999/02/22-rdf-syntax-ns#"
   xmlns:svg="http://www.w3.org/2000/svg"
   xmlns="http://www.w3.org/2000/svg"
   xmlns:sodipodi="http://sodipodi.sourceforge.net/DTD/sodipodi-0.dtd"
   xmlns:inkscape="http://www.inkscape.org/namespaces/inkscape"
   width="48px"
   height="48px"
   viewBox="0 0 48 48"
   version="1.1"
   id="SVGRoot"
   inkscape:version="0.92.4 (5da689c313, 2019-01-14)"
   sodipodi:docname="baba-is-youa.svg"
   inkscape:export-filename="C:\Users\Admin\Documents\Rainmeter\Skins\Honeycomb-NG\@Resources\Images\openshot.png"
   inkscape:export-xdpi="512"
   inkscape:export-ydpi="512">
  <defs
     id="defs1995" />
  <sodipodi:namedview
     id="base"
     pagecolor="#ffffff"
     bordercolor="#666666"
     borderopacity="1.0"
     inkscape:pageopacity="0.0"
     inkscape:pageshadow="2"
     inkscape:zoom="12.786848"
     inkscape:cx="20.833765"
     inkscape:cy="28.519103"
     inkscape:document-units="px"
     inkscape:current-layer="layer1"
     showgrid="true"
     inkscape:window-width="1920"
     inkscape:window-height="1017"
     inkscape:window-x="-8"
     inkscape:window-y="-8"
     inkscape:window-maximized="1"
     inkscape:grid-bbox="true"
     inkscape:snap-global="false">
    <inkscape:grid
       type="xygrid"
       id="grid2562" />
  </sodipodi:namedview>
  <metadata
     id="metadata1998">
    <rdf:RDF>
      <cc:Work
         rdf:about="">
        <dc:format>image/svg+xml</dc:format>
        <dc:type
           rdf:resource="http://purl.org/dc/dcmitype/StillImage" />
        <dc:title></dc:title>
      </cc:Work>
    </rdf:RDF>
  </metadata>
  <g
     inkscape:label="Layer 1"
     inkscape:groupmode="layer"
     id="layer1">
    <path
       style="opacity:1;vector-effect:none;fill:#ffffff;fill-opacity:1;fill-rule:evenodd;stroke:none;stroke-width:0.05884956;paint-order:normal"
       d="m 23.224056,12.196469 c -0.503079,0.0023 -1.007188,0.25898 -1.27883,0.74286 -0.140761,0.250743 -0.147982,0.312005 -0.166203,1.417332 l -0.01907,1.155268 -0.216318,0.03574 c -0.118993,0.01967 -0.401694,0.03615 -0.628265,0.03655 -1.037755,0.0017 -3.311762,0.374818 -3.828901,0.628036 -0.380008,0.186072 -1.549023,1.154777 -1.926863,1.596753 -0.802657,0.938905 -1.763477,2.646754 -1.960196,3.484194 -0.132618,0.564568 -0.186382,3.033881 -0.08299,3.810853 0.122195,0.918245 0.426465,1.576125 0.858375,1.85583 0.110426,0.07151 0.201089,0.145923 0.201491,0.165399 4.11e-4,0.01947 -0.118629,0.217298 -0.264592,0.439533 -0.407663,0.620677 -0.48629,0.89494 -0.602404,2.101343 -0.136247,1.415559 -0.133989,2.067399 0.0081,2.337661 0.244775,0.465379 0.550035,0.664127 1.020098,0.664127 0.6024,0 1.114291,-0.497988 1.348022,-1.311473 0.463017,-1.611487 0.964518,-3.125232 1.075154,-3.245461 0.01931,-0.02099 0.253948,0.0022 0.52137,0.05151 0.41005,0.07557 0.490513,0.109205 0.5139,0.214711 0.01525,0.0688 0.03937,0.760629 0.05356,1.537444 0.02639,1.445234 0.07181,1.819225 0.266661,2.197204 0.127595,0.247509 0.423858,0.542324 0.680563,0.677229 0.237486,0.124804 0.711985,0.118953 1.000902,-0.0123 0.270148,-0.122724 0.571886,-0.442271 0.718035,-0.760444 0.08422,-0.183374 0.103811,-0.462098 0.121952,-1.73388 0.01188,-0.833457 0.04025,-1.515376 0.06299,-1.515376 0.02274,0 0.424646,0.05641 0.893087,0.1254 0.945437,0.139247 3.125628,0.183439 4.423257,0.08965 l 0.688033,-0.04966 0.289421,0.608726 c 0.159162,0.334837 0.44255,0.979591 0.629759,1.432733 0.18721,0.453142 0.417409,0.93658 0.5116,1.074349 0.294667,0.430992 0.839626,0.600581 1.299863,0.404478 0.409276,-0.174391 0.606764,-0.547103 0.665966,-1.256991 0.04812,-0.576907 -0.02442,-1.016201 -0.334592,-2.026402 -0.129876,-0.422997 -0.224331,-0.780941 -0.209881,-0.79539 0.04101,-0.041 1.415084,-0.417901 1.604915,-0.440222 l 0.169652,-0.02 0.0392,0.882743 c 0.04046,0.910919 0.147241,1.638675 0.345397,2.353982 0.06276,0.226571 0.143596,0.53064 0.179651,0.675736 0.0857,0.344902 0.470121,0.739535 0.776424,0.796997 0.324781,0.06093 0.607228,-0.01383 0.846767,-0.224134 0.357508,-0.313896 0.390417,-0.460929 0.378728,-1.68997 -0.01121,-1.177693 -0.05463,-1.562791 -0.269881,-2.393868 -0.07693,-0.297031 -0.158092,-0.662009 -0.180454,-0.811135 -0.03996,-0.266458 -0.0355,-0.276507 0.258616,-0.57815 0.429781,-0.440778 0.904351,-1.088309 1.068947,-1.458597 0.209525,-0.471367 0.230265,-1.532325 0.0577,-2.95604 C 34.663698,21.116419 34.554863,20.70384 34.131406,19.851389 33.59556,18.772692 33.136318,18.11031 32.417755,17.379706 l -0.636636,-0.647332 -0.179423,-0.712746 c -0.28684,-1.139558 -0.825286,-2.428137 -1.26561,-3.028913 -0.701574,-0.957227 -1.996345,-1.007766 -2.421568,-0.09448 -0.181239,0.389262 -0.186258,0.833122 -0.01884,1.664914 0.06841,0.339898 0.111675,0.630611 0.09621,0.64608 -0.06977,0.06978 -1.687164,-0.113538 -2.044564,-0.231721 -0.3794,-0.125457 -0.384305,-0.129856 -0.692054,-0.62654 C 25.084786,14.073843 24.837892,13.629123 24.706527,13.360707 24.57516,13.092289 24.38588,12.779579 24.285959,12.665776 24.00593,12.346841 23.615306,12.194704 23.224023,12.196473 Z m 7.696717,5.858766 c 0.256629,-0.0088 0.512398,0.09057 0.716998,0.295166 0.717852,0.717851 -0.09091,1.935021 -1.0355,1.558364 -0.661407,-0.26374 -0.809393,-1.20168 -0.258041,-1.635373 0.176866,-0.139124 0.376941,-0.211338 0.576543,-0.218157 z m -4.036175,1.917758 c 0.215421,-0.004 0.44338,0.05366 0.606427,0.169768 0.227914,0.162289 0.412764,0.533382 0.41459,0.83217 0.0042,0.691491 -0.787486,1.198125 -1.400435,0.896076 -0.107476,-0.05296 -0.266366,-0.189387 -0.353098,-0.303098 -0.135057,-0.177068 -0.157698,-0.263807 -0.157698,-0.604243 0,-0.445246 0.09209,-0.623965 0.446775,-0.867342 0.115933,-0.07955 0.275891,-0.120165 0.443439,-0.123331 z"
       id="rect835"
       inkscape:connector-curvature="0"
       sodipodi:nodetypes="ccccccsccccccccsccccccccccscccccccccccccccccccccccsccccscccccccccccccccccsscc" />
  </g>
</svg>
