<?xml version="1.0" encoding="UTF-8" standalone="no"?>
<!-- Created with Inkscape (http://www.inkscape.org/) -->

<svg
   xmlns:dc="http://purl.org/dc/elements/1.1/"
   xmlns:cc="http://creativecommons.org/ns#"
   xmlns:rdf="http://www.w3.org/1999/02/22-rdf-syntax-ns#"
   xmlns:svg="http://www.w3.org/2000/svg"
   xmlns="http://www.w3.org/2000/svg"
   xmlns:sodipodi="http://sodipodi.sourceforge.net/DTD/sodipodi-0.dtd"
   xmlns:inkscape="http://www.inkscape.org/namespaces/inkscape"
   width="48px"
   height="48px"
   viewBox="0 0 48 48"
   version="1.1"
   id="SVGRoot"
   inkscape:version="0.92.4 (5da689c313, 2019-01-14)"
   sodipodi:docname="future-clienta.svg"
   inkscape:export-filename="C:\Users\Admin\Documents\Rainmeter\Skins\Honeycomb-NG\@Resources\Images\openshot.png"
   inkscape:export-xdpi="512"
   inkscape:export-ydpi="512">
  <defs
     id="defs1995" />
  <sodipodi:namedview
     id="base"
     pagecolor="#ffffff"
     bordercolor="#666666"
     borderopacity="1.0"
     inkscape:pageopacity="0.0"
     inkscape:pageshadow="2"
     inkscape:zoom="18.083334"
     inkscape:cx="22.512088"
     inkscape:cy="24.235938"
     inkscape:document-units="px"
     inkscape:current-layer="layer1"
     showgrid="true"
     inkscape:window-width="1920"
     inkscape:window-height="1017"
     inkscape:window-x="-8"
     inkscape:window-y="-8"
     inkscape:window-maximized="1"
     inkscape:grid-bbox="true"
     inkscape:snap-global="true">
    <inkscape:grid
       type="xygrid"
       id="grid2562" />
  </sodipodi:namedview>
  <metadata
     id="metadata1998">
    <rdf:RDF>
      <cc:Work
         rdf:about="">
        <dc:format>image/svg+xml</dc:format>
        <dc:type
           rdf:resource="http://purl.org/dc/dcmitype/StillImage" />
        <dc:title></dc:title>
      </cc:Work>
    </rdf:RDF>
  </metadata>
  <g
     inkscape:label="Layer 1"
     inkscape:groupmode="layer"
     id="layer1">
    <path
       style="opacity:1;vector-effect:none;fill:#ffffff;fill-opacity:1;fill-rule:evenodd;stroke:none;stroke-width:2;stroke-linecap:round;stroke-linejoin:round;stroke-miterlimit:4;stroke-dasharray:none;paint-order:normal"
       d="M 24 12 L 18.794922 15.464844 C 18.606489 15.584927 18.429453 15.712384 18.253906 15.839844 L 20.408203 17.994141 C 21.458095 17.366757 22.683099 17 24 17 C 25.316901 17 26.541905 17.366757 27.591797 17.994141 L 29.75 15.835938 C 29.483954 15.648723 29.217946 15.461892 28.933594 15.300781 L 24 12 z M 31.263672 17.150391 L 29.152344 19.261719 C 30.297804 20.507131 31 22.166716 31 24 C 31 27.878 27.878 31 24 31 C 20.122 31 17 27.878 17 24 C 17 22.166716 17.702196 20.507131 18.847656 19.261719 L 16.751953 17.166016 C 14.763488 19.301917 14.011934 21.942219 14 24 C 14 29.54 18.46 34 24 34 C 29.54 34 34 29.54 34 24 C 34 21.335891 32.952049 18.937332 31.263672 17.150391 z "
       id="rect822" />
    <path
       style="opacity:1;vector-effect:none;fill:#ffffff;fill-opacity:1;fill-rule:evenodd;stroke-width:2;stroke-linecap:round;stroke-linejoin:bevel;stroke-miterlimit:4;stroke-dasharray:none;paint-order:stroke fill markers"
       d="M 24 19 C 21.23 19 19 21.23 19 24 C 19 26.05682 20.232836 27.810613 22 28.580078 L 22 21 L 26.248047 21 L 25.472656 22.384766 L 23.152344 22.384766 L 23.152344 24.738281 L 25.587891 24.738281 L 24.847656 26.021484 L 23.185547 26.021484 L 23.185547 28.927734 C 23.451311 28.971067 23.721612 29 24 29 C 26.77 29 29 26.77 29 24 C 29 21.23 26.77 19 24 19 z "
       id="rect843" />
  </g>
</svg>
