<?xml version="1.0" encoding="UTF-8" standalone="no"?>
<!-- Created with Inkscape (http://www.inkscape.org/) -->

<svg
   xmlns:dc="http://purl.org/dc/elements/1.1/"
   xmlns:cc="http://creativecommons.org/ns#"
   xmlns:rdf="http://www.w3.org/1999/02/22-rdf-syntax-ns#"
   xmlns:svg="http://www.w3.org/2000/svg"
   xmlns="http://www.w3.org/2000/svg"
   xmlns:sodipodi="http://sodipodi.sourceforge.net/DTD/sodipodi-0.dtd"
   xmlns:inkscape="http://www.inkscape.org/namespaces/inkscape"
   width="48px"
   height="48px"
   viewBox="0 0 48 48"
   version="1.1"
   id="SVGRoot"
   inkscape:version="0.92.4 (5da689c313, 2019-01-14)"
   sodipodi:docname="annalynna.svg"
   inkscape:export-filename="C:\Users\Admin\Documents\Rainmeter\Skins\Honeycomb-NG\@Resources\Images\openshot.png"
   inkscape:export-xdpi="512"
   inkscape:export-ydpi="512">
  <defs
     id="defs1995" />
  <sodipodi:namedview
     id="base"
     pagecolor="#ffffff"
     bordercolor="#666666"
     borderopacity="1.0"
     inkscape:pageopacity="0.0"
     inkscape:pageshadow="2"
     inkscape:zoom="15.328451"
     inkscape:cx="0.87439668"
     inkscape:cy="27.045295"
     inkscape:document-units="px"
     inkscape:current-layer="layer1"
     showgrid="true"
     inkscape:window-width="1920"
     inkscape:window-height="1017"
     inkscape:window-x="-8"
     inkscape:window-y="-8"
     inkscape:window-maximized="1"
     inkscape:grid-bbox="true"
     inkscape:snap-global="false">
    <inkscape:grid
       type="xygrid"
       id="grid2562" />
  </sodipodi:namedview>
  <metadata
     id="metadata1998">
    <rdf:RDF>
      <cc:Work
         rdf:about="">
        <dc:format>image/svg+xml</dc:format>
        <dc:type
           rdf:resource="http://purl.org/dc/dcmitype/StillImage" />
        <dc:title></dc:title>
      </cc:Work>
    </rdf:RDF>
  </metadata>
  <g
     inkscape:label="Layer 1"
     inkscape:groupmode="layer"
     id="layer1">
    <path
       style="opacity:1;fill:#ffffff;stroke:none;stroke-width:0.65970212px;stroke-linecap:butt;stroke-linejoin:miter;stroke-opacity:1;fill-opacity:1"
       d="M 26.9375 10.113281 C 20.868946 10.183071 19.496094 15.585938 19.496094 15.585938 C 19.496094 15.585938 12.762438 15.935977 12.199219 20.474609 C 12.054196 21.64326 13.185547 23.867187 13.185547 23.867188 C 13.185547 23.867188 10.995694 26.0214 11.214844 27.332031 C 11.594297 29.60135 14.386522 29.100387 14.460938 29.046875 C 14.523468 30.726017 12.308594 30.361328 12.308594 30.361328 C 12.308594 30.361328 13.987615 32.607357 15.373047 32.804688 C 17.082547 34.401207 18.692464 34.720725 20.837891 34.583984 C 23.453848 34.417252 25.810398 33.236143 27.671875 31.390625 C 28.262771 30.804796 29.164062 29.009766 29.164062 29.009766 C 29.164062 29.009766 31.997086 28.62507 33.212891 27.916016 C 37.427899 25.457838 37.882813 23.064453 37.882812 23.064453 C 37.882812 23.064453 36.601183 23.179986 35.876953 22.808594 C 36.391428 20.744698 36.130859 17.884766 36.130859 17.884766 L 33.943359 19.306641 C 33.943359 19.306641 33.799414 17.076755 33.212891 15.476562 C 32.047453 12.29693 29.688717 10.081642 26.9375 10.113281 z M 26.873047 11.621094 C 34.078796 11.935177 33.271484 22.816406 33.271484 22.816406 L 33.785156 20.574219 L 35.591797 19.541016 C 35.591797 19.541016 35.776353 21.489393 34.998047 23.4375 C 35.658919 23.770271 36.726562 23.642578 36.726562 23.642578 C 36.726562 23.642578 35.213114 25.574335 32.935547 26.455078 C 31.046266 27.185665 28.78125 27.152344 28.78125 27.152344 C 28.781251 27.152344 29.649903 25.647848 28.935547 23.720703 C 26.718768 17.740425 20.681641 16.162109 20.681641 16.162109 C 20.681641 16.162109 22.469947 11.429172 26.873047 11.621094 z M 18.884766 16.863281 C 20.335232 16.871348 21.826743 17.327272 23.107422 17.96875 C 24.689863 18.761377 25.957305 20.166413 26.951172 21.630859 C 27.648772 22.658761 28.34045 23.845628 28.34375 25.087891 C 28.345298 25.670701 27.568359 26.765625 27.568359 26.765625 C 27.568359 26.765625 26.955314 24.577473 24.732422 23.154297 C 23.64222 22.45631 21.068359 21.863281 21.068359 21.863281 C 21.068359 21.863281 21.12659 21.223602 21.09375 20.908203 C 20.831444 18.388954 19.099956 18.234175 17.535156 18.355469 C 15.565824 18.50812 14.586858 19.659584 14.464844 21.398438 C 14.427349 21.932802 14.980469 22.919922 14.980469 22.919922 L 14 23.333984 C 14.000001 23.333984 13.217167 21.732163 13.279297 20.882812 C 13.47357 18.226986 15.199229 17.530359 17.457031 17.013672 C 17.92245 16.90717 18.401277 16.860581 18.884766 16.863281 z M 18.583984 18.632812 C 18.583984 18.632812 20.415539 18.845683 20.626953 20.455078 C 20.819761 21.922839 19.751954 22.333984 19.751953 22.333984 C 19.751953 22.333984 19.969429 21.625725 19.824219 20.492188 C 19.672016 19.30406 18.583984 18.632812 18.583984 18.632812 z M 17.181641 18.810547 C 18.094744 18.840819 19.345186 19.45336 19.550781 20.582031 C 19.849734 22.223223 18.939405 23.074661 17.617188 23.263672 C 16.311642 23.4503 15.09618 23.032879 14.845703 21.476562 C 14.671027 20.391222 15.731681 19.021982 16.814453 18.832031 C 16.927081 18.812331 17.051197 18.806147 17.181641 18.810547 z M 17.142578 19.160156 C 16.153898 19.264975 15.086968 20.498171 15.263672 21.476562 C 15.472985 22.635506 16.567279 22.961106 17.398438 22.828125 C 18.285545 22.686194 19.277336 22.207266 19.113281 20.748047 C 19.019074 19.910105 17.9811 19.071256 17.142578 19.160156 z M 17.423828 19.601562 C 18.176664 19.606202 18.703324 20.174848 18.802734 20.765625 C 18.988428 21.869181 18.20749 22.274049 17.527344 22.408203 C 16.867353 22.538381 15.959458 22.297743 15.775391 21.404297 C 15.570107 20.407859 16.368558 19.783251 17.087891 19.634766 C 17.204094 19.610766 17.31628 19.600903 17.423828 19.601562 z M 20.476562 22.611328 C 20.476563 22.611328 22.422954 22.762358 23.3125 23.126953 C 24.755679 23.718463 25.198758 24.056221 25.970703 24.830078 C 26.208239 25.068201 26.249083 25.567169 26.046875 25.835938 C 25.587599 26.446392 24.976635 26.572126 23.802734 26.300781 C 23.04664 26.126011 22.357868 25.735866 21.636719 25.449219 C 19.561843 24.624484 18.740543 24.070646 15.316406 24.830078 C 13.279876 25.281757 12.917969 27.382812 12.917969 27.382812 L 13.355469 26.869141 C 13.355469 26.869141 13.295009 27.415465 13.380859 27.667969 C 13.489934 27.988793 13.974609 28.492188 13.974609 28.492188 C 13.974609 28.492187 12.408164 28.947081 12.013672 27.667969 C 11.794252 26.956516 12.13737 26.118522 12.554688 25.501953 C 13.610483 23.942058 15.677734 23.4375 15.677734 23.4375 C 15.677734 23.4375 16.753698 23.802874 17.378906 23.771484 C 19.449446 23.667534 20.476562 22.611328 20.476562 22.611328 z M 17.814453 25.238281 C 18.346642 25.228242 19.018227 25.253144 19.572266 25.396484 C 20.899038 25.739744 22.615234 26.480469 22.615234 26.480469 C 22.615234 26.480469 21.380769 26.424093 20.785156 26.273438 C 20.227878 26.132481 19.185547 25.630859 19.185547 25.630859 C 19.185547 25.630859 19.453864 26.077583 20.011719 26.376953 C 17.777869 26.284021 16.890625 25.292969 16.890625 25.292969 C 16.890625 25.292969 17.282263 25.248321 17.814453 25.238281 z M 16.167969 25.527344 C 15.227077 26.828452 15.341797 28.648438 15.341797 28.648438 C 15.341797 28.648438 14.505955 28.205891 14.207031 27.564453 C 13.900852 26.907449 14.130859 26.222656 14.130859 26.222656 C 14.130859 26.222656 14.972012 25.553934 16.167969 25.527344 z M 16.451172 25.785156 C 16.451172 25.785156 18.120206 26.613761 19.160156 26.712891 C 19.793416 26.773251 21.533203 26.6875 21.533203 26.6875 C 21.533203 26.6875 23.09227 27.298326 24.912109 27.410156 C 25.319011 27.738902 25.710049 28.12039 25.558594 28.621094 C 25.352067 29.303863 24.865885 29.574823 24.263672 29.685547 C 24.368461 29.527011 24.486328 29.234375 24.486328 29.234375 C 24.486328 29.234375 24.189816 29.412182 24.085938 29.544922 C 24.051127 29.589406 24.023798 29.664882 23.992188 29.732422 C 23.976468 29.734022 23.963116 29.738734 23.947266 29.740234 C 23.950816 29.756794 23.958891 29.772533 23.962891 29.789062 C 23.895386 29.946362 23.841797 30.097656 23.841797 30.097656 C 23.841797 30.097656 23.923908 30.033432 24.017578 29.951172 C 24.355515 30.941305 25.478516 31.820312 25.478516 31.820312 C 25.478516 31.820313 24.094729 33.483607 21.976562 33.498047 C 21.946856 33.461559 22.525391 31.162109 22.525391 31.162109 C 22.52539 31.162109 22.556708 30.586967 22.023438 30.685547 C 21.102376 30.855814 20.18107 31.078179 19.314453 31.433594 C 18.724318 31.675619 18.953125 32.130859 18.953125 32.130859 L 20.992188 33.78125 C 20.992188 33.78125 17.430834 34.389395 16.451172 32.517578 C 15.835938 31.342062 16.501953 30.375 16.501953 30.375 C 16.501953 30.375 15.810041 29.516598 15.806641 28.105469 C 15.804201 27.070458 16.451172 25.785156 16.451172 25.785156 z M 26.640625 26.660156 C 26.640625 26.660156 28.196454 28.347176 27.595703 29.730469 C 26.684241 31.829209 24.757812 30.169922 24.757812 30.169922 C 24.757813 30.169922 25.902686 29.504895 26.125 28.931641 C 26.256172 28.593405 26.021484 27.847656 26.021484 27.847656 L 26.640625 26.660156 z M 26.021484 26.970703 L 25.738281 27.539062 L 25.298828 26.996094 L 26.021484 26.970703 z M 21.208984 26.974609 C 20.904044 27.033076 20.962127 28.128287 21.080078 28.689453 C 21.172258 29.128014 21.403251 29.977727 21.710938 29.876953 C 22.025719 29.773854 21.925617 28.872414 21.841797 28.378906 C 21.755762 27.872357 21.48457 26.921769 21.208984 26.974609 z M 18.322266 27.486328 C 18.017326 27.544795 18.075409 28.640007 18.193359 29.201172 C 18.28554 29.639734 18.516534 30.489445 18.824219 30.388672 C 19.139001 30.285571 19.036945 29.386085 18.953125 28.892578 C 18.867091 28.386028 18.597852 27.433488 18.322266 27.486328 z M 27.878906 27.693359 C 27.878906 27.693359 28.361836 27.761749 28.447266 27.951172 C 28.685206 28.47874 28.34375 29.060547 28.34375 29.060547 L 27.878906 27.693359 z M 23.917969 29.181641 C 23.917969 29.181643 23.62341 29.359448 23.519531 29.492188 C 23.394969 29.651355 23.275391 30.046875 23.275391 30.046875 C 23.275391 30.046875 23.564662 29.820088 23.673828 29.673828 C 23.783084 29.527447 23.917969 29.181641 23.917969 29.181641 z M 15.238281 29.371094 C 15.238281 29.371094 15.549496 29.997119 15.728516 30.400391 C 15.45634 31.160662 15.470703 31.820312 15.470703 31.820312 C 14.72178 31.760527 13.921875 30.917969 13.921875 30.917969 C 13.921875 30.917969 14.951872 30.700835 15.238281 29.371094 z M 17.832031 30.53125 C 17.832031 30.53125 17.53552 30.707105 17.431641 30.839844 C 17.307079 30.999013 17.185547 31.394531 17.185547 31.394531 C 17.185547 31.394531 17.476772 31.167743 17.585938 31.021484 C 17.695194 30.875102 17.832031 30.53125 17.832031 30.53125 z M 17.238281 30.550781 C 17.238281 30.550781 16.94177 30.726636 16.837891 30.859375 C 16.713329 31.018544 16.59375 31.414062 16.59375 31.414062 C 16.59375 31.414063 16.883022 31.187275 16.992188 31.041016 C 17.101444 30.894634 17.238281 30.550781 17.238281 30.550781 z M 21.814453 31.246094 C 22.06655 31.224155 22.166016 31.279297 22.166016 31.279297 C 22.166016 31.279297 21.945129 33.378081 21.365234 33.523438 C 21.009302 33.612656 19.855469 32.582031 19.855469 32.582031 C 19.855469 32.582031 19.726417 32.08991 20.541016 31.677734 C 21.157795 31.365652 21.562359 31.268034 21.814453 31.246094 z "
       id="path835" />
  </g>
</svg>
