<?xml version="1.0" encoding="UTF-8" standalone="no"?>
<!-- Created with Inkscape (http://www.inkscape.org/) -->

<svg
   xmlns:dc="http://purl.org/dc/elements/1.1/"
   xmlns:cc="http://creativecommons.org/ns#"
   xmlns:rdf="http://www.w3.org/1999/02/22-rdf-syntax-ns#"
   xmlns:svg="http://www.w3.org/2000/svg"
   xmlns="http://www.w3.org/2000/svg"
   xmlns:sodipodi="http://sodipodi.sourceforge.net/DTD/sodipodi-0.dtd"
   xmlns:inkscape="http://www.inkscape.org/namespaces/inkscape"
   width="48px"
   height="48px"
   viewBox="0 0 48 48"
   version="1.1"
   id="SVGRoot"
   inkscape:version="0.92.4 (5da689c313, 2019-01-14)"
   sodipodi:docname="cupheada.svg">
  <defs
     id="defs1995" />
  <sodipodi:namedview
     id="base"
     pagecolor="#ffffff"
     bordercolor="#666666"
     borderopacity="1.0"
     inkscape:pageopacity="0.0"
     inkscape:pageshadow="2"
     inkscape:zoom="12.786848"
     inkscape:cx="24.268824"
     inkscape:cy="22.804672"
     inkscape:document-units="px"
     inkscape:current-layer="layer1"
     showgrid="true"
     inkscape:window-width="1920"
     inkscape:window-height="1017"
     inkscape:window-x="-8"
     inkscape:window-y="-8"
     inkscape:window-maximized="1"
     inkscape:grid-bbox="true"
     inkscape:snap-global="false">
    <inkscape:grid
       type="xygrid"
       id="grid2562" />
  </sodipodi:namedview>
  <metadata
     id="metadata1998">
    <rdf:RDF>
      <cc:Work
         rdf:about="">
        <dc:format>image/svg+xml</dc:format>
        <dc:type
           rdf:resource="http://purl.org/dc/dcmitype/StillImage" />
        <dc:title></dc:title>
      </cc:Work>
    </rdf:RDF>
  </metadata>
  <g
     inkscape:label="Layer 1"
     inkscape:groupmode="layer"
     id="layer1">
    <path
       style="fill:#ffffff;stroke-width:0.07609231"
       d="m 18.613885,31.120272 c 1.074853,-0.362096 0.713478,-1.633109 0.815998,-1.530589 0.220708,0.211359 0.468505,0.38607 0.693145,0.525101 0.200695,0.142765 0.50948,0.332495 0.686672,0.421698 4.657756,2.294027 9.738488,0.582637 11.343832,-1.282864 l 0.253665,-0.306983 c 0.140002,-0.168741 0.365094,-0.451393 0.499251,-0.628507 0.134149,-0.177126 0.329831,-0.428065 0.434623,-0.557417 0.407139,-0.502572 1.033138,-1.918361 1.360418,-3.074676 0.500285,-1.767525 0.369095,-4.185356 -0.340912,-6.276993 -0.203222,-0.598628 -0.28668,-0.724038 -0.664068,-0.985573 -0.295601,-0.204828 -0.366812,-0.219581 -1.093829,-0.226198 -1.296803,-0.01155 -2.961356,0.170644 -4.582123,0.499252 -2.958756,0.599888 -5.133557,1.225329 -6.210748,1.788578 l -0.395846,0.20681 -0.491173,-0.52672 c -0.270079,-0.29039 -0.563319,-0.633875 -0.652743,-0.762608 -0.606825,-0.873943 -0.928934,-1.402566 -1.124527,-1.84513 -0.354333,-0.801774 -0.379917,-0.838304 -0.61235,-0.919333 -0.04478,-0.0156 -0.08833,-0.02585 -0.137334,-0.02909 -0.147018,-0.0096 -0.339836,0.0413 -0.744837,0.18096 -0.364763,0.125785 -0.732226,0.259417 -0.81593,0.297288 -0.267724,0.121154 -1.922179,0.685057 -2.009929,0.685057 -0.0465,0 -0.143846,0.034 -0.216503,0.07593 -0.07268,0.04192 -0.561003,0.209807 -1.084135,0.373226 -0.523134,0.163418 -1.036069,0.330663 -1.140684,0.371611 -0.104626,0.04097 -0.386643,0.132374 -0.626891,0.201962 -0.631739,0.18298 -0.815672,0.552223 -0.733528,1.475133 0.05975,0.671154 0.435573,1.634615 0.867631,2.223203 0.1453,0.197936 0.264975,0.390827 0.264975,0.428161 10e-7,0.125086 0.635071,0.481478 0.857936,0.481478 0.336497,0 1.741721,-0.499455 2.715991,-0.966189 0.520129,-0.24917 0.883201,-0.384505 0.899945,-0.334449 0.01538,0.04617 0.171936,0.278671 0.347375,0.517024 l 0.318293,0.434623 -0.610734,0.484709 c -0.335941,0.267383 -0.669962,0.556833 -0.743223,0.641434 -0.148451,0.17143 -0.173801,0.552744 -0.05655,0.861167 0.07026,0.184808 0.03751,0.248355 -0.368379,0.709291 -0.245031,0.278274 -0.534887,0.659905 -0.643048,0.848242 -0.823157,1.433268 -0.851312,5.592046 3.186322,5.659344 l 0.272364,-0.04218 m -0.107734,-15.06253 c 0.176563,0.01086 0.263395,0.231564 0.56388,0.870862 0.269966,0.574367 0.260465,0.607083 -0.23266,0.699598 -0.359594,0.06746 -0.980717,0.489737 -1.387886,0.943568 -0.182923,0.203895 -0.394939,0.452141 -0.470168,0.550953 -0.134135,0.176141 -0.135909,0.16716 -0.08886,-0.460474 0.09322,-1.243252 0.529537,-2.181438 1.135836,-2.441322 0.236156,-0.101237 0.373925,-0.169673 0.479862,-0.163185 z m -1.252167,0.466936 c 0.03011,0 -0.03147,0.170811 -0.137334,0.379691 -0.105846,0.208877 -0.247126,0.610614 -0.313446,0.89348 -0.120404,0.51372 -0.152393,1.706877 -0.05978,2.200583 0.02632,0.140292 0.03095,0.255281 0.0096,0.255281 -0.08854,0 -0.524632,-0.565593 -0.693134,-0.898329 -0.392261,-0.774617 -0.566428,-1.941953 -0.332834,-2.237744 0.07903,-0.100077 1.348407,-0.592962 1.526836,-0.592962 z m -1.882288,0.685056 c 0.01045,0 6.45e-4,0.130998 -0.02101,0.292443 -0.08413,0.627216 0.328673,1.872776 0.841779,2.541495 0.152808,0.199155 0.277901,0.381556 0.277901,0.403925 0,0.02237 -0.317328,0.189654 -0.704446,0.373227 -1.022727,0.484986 -0.978663,0.482759 -1.341029,0.0711 -0.500498,-0.56859 -0.924549,-1.629858 -0.922565,-2.310451 0.0015,-0.46602 0.0903,-0.840163 0.19873,-0.840163 0.05661,0 0.451582,-0.118499 0.877326,-0.264975 0.425746,-0.14648 0.782943,-0.26659 0.793309,-0.26659 z m 17.363922,0.379691 c 0.951418,0 1.08976,0.07577 1.337798,0.73999 0.458604,1.228069 0.694799,2.573737 0.647895,3.682179 -0.0239,0.564998 -0.05825,0.698923 -0.258512,1.022737 -0.126852,0.205114 -0.345431,0.451141 -0.486325,0.546107 -0.140902,0.09495 -0.362958,0.169395 -0.492788,0.166417 -0.396067,-0.01014 -0.428198,-0.04664 -0.300521,-0.352223 0.137204,-0.328355 0.08297,-0.726497 -0.129255,-0.938721 -0.125586,-0.125602 -0.148645,-0.25689 -0.148645,-0.866015 0,-0.796962 -0.05215,-0.906547 -0.475016,-0.998503 -0.136447,-0.02966 -0.329906,-0.08452 -0.43139,-0.122791 -0.182821,-0.06894 -0.181183,-0.07386 0.222966,-0.483096 0.397147,-0.402158 0.405272,-0.418644 0.298903,-0.620429 -0.06007,-0.113971 -0.284624,-0.385311 -0.497635,-0.604271 -0.55956,-0.575189 -0.953073,-0.619236 -1.457361,-0.159953 -0.094,0.08559 -0.179909,0.142153 -0.192268,0.124408 -0.105945,-0.151862 -0.375956,-0.840681 -0.342527,-0.874093 0.02351,-0.02352 0.208706,-0.05878 0.412002,-0.07917 0.203304,-0.02041 0.643791,-0.06998 0.977499,-0.10987 0.333704,-0.03989 0.924886,-0.07271 1.31518,-0.07271 z m -13.366682,0.192269 c 0.134456,0.01389 0.223515,0.131611 0.544491,0.575187 0.371904,0.513974 0.419051,0.612334 0.305366,0.647895 -0.534052,0.167192 -0.963982,0.438527 -1.494522,0.94357 -0.329699,0.313859 -0.692031,0.733897 -0.806234,0.933874 l -0.208425,0.363532 -0.347375,-0.61558 -0.348992,-0.615583 0.09694,-0.373226 c 0.127195,-0.490336 0.447378,-0.940255 0.922564,-1.299022 0.424724,-0.320672 0.772316,-0.4829 1.176228,-0.547721 0.065,-0.01045 0.115137,-0.01756 0.159956,-0.01294 z m -6.273761,0.113097 c 0.163257,-0.02192 0.179342,0.117653 0.179342,0.599425 0,0.943107 0.425693,2.039698 1.045359,2.69014 0.109237,0.114658 0.184359,0.218487 0.166416,0.231045 -0.01788,0.01279 -0.290391,0.112351 -0.604272,0.219735 -0.718476,0.245821 -0.802298,0.211965 -1.287711,-0.513792 -0.607192,-0.907845 -0.955878,-2.274071 -0.701215,-2.749921 0.04821,-0.09009 0.228378,-0.188357 0.445933,-0.24397 0.20048,-0.05127 0.443502,-0.124835 0.539644,-0.163187 0.09228,-0.03682 0.162085,-0.06216 0.216504,-0.06946 z m 16.484981,0.03071 c 0.257775,0.01187 0.292337,0.187559 0.513791,0.715755 0.418891,0.999089 0.549018,1.628505 0.555804,2.677214 0.0049,0.772386 -0.0261,1.064822 -0.166419,1.55915 -0.468112,1.649144 -1.741489,2.819092 -3.51253,3.224935 -3.283289,0.75239 -6.039102,-0.825469 -7.193094,-4.1168 -0.212816,-0.606548 -0.209111,-0.787641 0.01615,-0.874094 0.07214,-0.02766 0.338179,-0.174973 0.591346,-0.327987 0.506853,-0.306322 2.212264,-1.087 3.047211,-1.394349 1.233128,-0.453923 3.504783,-1.026273 5.354427,-1.349109 0.403449,-0.07042 0.638644,-0.121839 0.793309,-0.114715 z m -9.110929,1.284481 c 0.119459,2.82e-4 0.197037,0.0633 0.374843,0.256897 0.14704,0.160091 0.26659,0.316693 0.26659,0.347374 2.04e-4,0.03069 -0.179363,0.146443 -0.399079,0.256897 -0.569864,0.286532 -1.944336,1.088926 -2.294292,1.339414 -0.332274,0.237854 -0.412996,0.256245 -0.468553,0.111485 -0.06621,-0.17254 0.347629,-0.805998 0.870862,-1.332952 0.511006,-0.514637 1.065126,-0.867213 1.510678,-0.961343 0.05453,-0.01152 0.09913,-0.01787 0.138951,-0.01777 z m 3.588468,0.445933 c -0.413667,-0.01133 -0.852553,0.235343 -1.101907,0.660821 -0.178733,0.304962 -0.206551,0.434346 -0.200345,0.925797 0.0079,0.654929 0.331863,1.726065 0.735144,2.433243 0.29646,0.519874 0.895577,1.115773 1.21985,1.21339 0.497698,0.149819 1.321575,-0.095 1.463824,-0.434622 0.156147,-0.372861 0.172666,-0.759569 0.05655,-1.248937 L 25.82966,22.792445 25.231852,22.58402 c -0.328561,-0.114365 -0.597809,-0.235816 -0.597809,-0.271438 0,-0.03563 0.143511,-0.292006 0.318293,-0.568727 l 0.318292,-0.502485 -0.174495,-0.329604 c -0.231372,-0.436138 -0.654309,-0.921178 -0.922565,-1.059899 -0.124238,-0.06424 -0.259572,-0.0964 -0.397461,-0.100172 z m -4.801858,1.793427 c 0.05502,-0.03337 0.170923,0.18392 0.324755,0.613965 0.775629,2.168341 2.27702,3.687251 4.194357,4.242827 0.694897,0.201512 2.633618,0.207599 3.347727,0.0096 0.786638,-0.217998 1.665513,-0.68108 2.181195,-1.148761 0.424787,-0.38525 1.090597,-1.293923 1.090597,-1.48806 0,-0.151422 0.145976,-0.07516 0.243972,0.127641 0.298942,0.618603 1.479218,0.687378 2.123028,0.124407 0.101771,-0.08909 0.182857,-0.0914 0.470168,-0.01455 0.303137,0.08106 0.386687,0.07587 0.662437,-0.04847 0.173528,-0.07824 0.432442,-0.282179 0.575189,-0.452397 0.224284,-0.267415 0.260421,-0.286045 0.261743,-0.14218 0.0031,0.354595 -0.316066,1.513168 -0.697981,2.535031 -0.147544,0.394763 -0.933198,1.741902 -1.219853,2.092331 -0.740972,0.905799 -1.825907,1.794524 -2.761231,2.263597 -0.608542,0.305184 -2.004801,0.71667 -2.743457,0.807847 -2.88791,0.356463 -5.290655,-0.239029 -7.231872,-1.791809 -1.518176,-1.214396 -2.981612,-3.527119 -3.402662,-5.375432 l -0.08402,-0.366764 0.447549,-0.394231 c 0.246281,-0.21669 0.524384,-0.446174 0.618812,-0.508946 0.09441,-0.06278 0.474204,-0.320399 0.843396,-0.573573 0.369191,-0.253168 0.709242,-0.483695 0.756147,-0.512177 z m 12.998301,0.98396 c 0.321523,0.0087 0.599009,0.115797 0.707677,0.342528 0.171398,0.357612 -0.190289,0.950013 -0.718985,1.176231 -0.134673,0.05762 -0.419536,0.105024 -0.633355,0.105024 -0.328224,0 -0.424553,-0.03358 -0.612351,-0.22135 -0.250312,-0.250314 -0.267231,-0.35949 -0.116331,-0.720603 0.182682,-0.437218 0.837474,-0.696282 1.373345,-0.681825 z m -13.98673,8.155338 c -1.807268,-0.255335 -2.393923,-1.175664 -2.703445,-1.813717 -0.200762,-0.413823 -0.341167,-1.409279 -0.277899,-1.967922 0.05773,-0.50967 0.497932,-1.426379 0.846626,-1.764344 0.145844,-0.14136 0.226618,-0.208564 0.295673,-0.177726 0.06906,0.03084 0.12531,0.159561 0.224581,0.410387 0.07455,0.188326 0.224433,0.523485 0.332835,0.744839 0.170097,0.347385 0.185682,0.43538 0.113099,0.646278 -0.248818,0.723259 -0.205024,1.232806 0.150259,1.769192 0.324673,0.49016 0.879681,0.752263 1.557535,0.733526 0.549509,-0.01514 0.64655,1.141646 -0.219066,1.387458 m 3.96426,-3.870787 c -0.346604,8e-6 -0.585532,0.105391 -0.838547,0.318292 -0.453931,0.381955 -0.553691,0.88621 -0.305367,1.539762 0.405513,1.067224 1.57282,1.805491 3.139304,1.98408 0.724854,0.08263 2.055113,0.02513 2.735379,-0.117947 1.456033,-0.306282 2.69534,-1.11773 3.160308,-2.068095 0.312008,-0.637731 0.148402,-1.209737 -0.415236,-1.447666 -0.485057,-0.204771 -1.647113,-0.168407 -2.714375,0.08562 -1.24095,0.295394 -2.377223,0.304018 -3.276638,0.02424 -0.684305,-0.212869 -1.138223,-0.318302 -1.484828,-0.318292 z m -5.029671,0.499251 c 0.05532,-0.0098 0.152954,0.09488 0.295672,0.315062 0.115284,0.177868 0.229325,0.340987 0.252049,0.361914 0.02273,0.02094 0.173004,0.200843 0.33445,0.400695 0.161421,0.199853 0.279706,0.375014 0.26336,0.387769 -0.0485,0.03826 -0.47196,-0.07016 -0.651127,-0.166417 -0.271245,-0.145748 -0.484804,-0.515742 -0.533181,-0.924182 -0.02849,-0.240522 -0.01654,-0.364988 0.03877,-0.374841 z m 5.554774,0.56388 c 0.894084,0.0017 1.236696,0.142556 1.974384,0.81108 0.644033,0.583649 0.761973,0.595228 0.376458,0.03879 -0.0815,-0.117485 -0.126106,-0.234177 -0.100171,-0.260127 0.07614,-0.07615 1.169469,0.119451 1.436356,0.256895 0.45984,0.23683 0.723626,0.490716 0.938721,0.90156 0.11833,0.225941 0.194084,0.431194 0.168034,0.457243 -0.02607,0.02608 -0.231581,0.09894 -0.455628,0.161571 -0.608927,0.170257 -2.617552,0.207433 -3.326725,0.0614 -0.802454,-0.165242 -1.461106,-0.488454 -1.906525,-0.933877 -0.429005,-0.42902 -0.520997,-0.667914 -0.373225,-0.969418 0.207089,-0.422509 0.457611,-0.526425 1.268322,-0.525101 z"
       id="path831"
       inkscape:connector-curvature="0"
       sodipodi:nodetypes="ccccccccccccccccccccccscccccccsccccccccccccsccccccscccsccssccscccscsscccccccscccccccccsscccccccccccccscccccccccccsccccsccccccccccccccccccccsccccccccccsccccccccccccccccccccscccccccscccccccsccccccccccccccccccccccccccccccccccccccc" />
  </g>
</svg>
