<?xml version="1.0" encoding="UTF-8" standalone="no"?>
<!-- Created with Inkscape (http://www.inkscape.org/) -->

<svg
   xmlns:dc="http://purl.org/dc/elements/1.1/"
   xmlns:cc="http://creativecommons.org/ns#"
   xmlns:rdf="http://www.w3.org/1999/02/22-rdf-syntax-ns#"
   xmlns:svg="http://www.w3.org/2000/svg"
   xmlns="http://www.w3.org/2000/svg"
   xmlns:sodipodi="http://sodipodi.sourceforge.net/DTD/sodipodi-0.dtd"
   xmlns:inkscape="http://www.inkscape.org/namespaces/inkscape"
   width="48px"
   height="48px"
   viewBox="0 0 48 48"
   version="1.1"
   id="SVGRoot"
   inkscape:version="0.92.4 (5da689c313, 2019-01-14)"
   sodipodi:docname="gisha.svg"
   inkscape:export-filename="C:\Users\Admin\Documents\Rainmeter\Skins\Honeycomb-NG\@Resources\Images\openshot.png"
   inkscape:export-xdpi="512"
   inkscape:export-ydpi="512">
  <defs
     id="defs1995" />
  <sodipodi:namedview
     id="base"
     pagecolor="#ffffff"
     bordercolor="#666666"
     borderopacity="1.0"
     inkscape:pageopacity="0.0"
     inkscape:pageshadow="2"
     inkscape:zoom="12.786848"
     inkscape:cx="18.683025"
     inkscape:cy="25.663265"
     inkscape:document-units="px"
     inkscape:current-layer="layer1"
     showgrid="true"
     inkscape:window-width="1920"
     inkscape:window-height="1017"
     inkscape:window-x="-8"
     inkscape:window-y="-8"
     inkscape:window-maximized="1"
     inkscape:grid-bbox="true"
     inkscape:snap-global="false">
    <inkscape:grid
       type="xygrid"
       id="grid2562" />
  </sodipodi:namedview>
  <metadata
     id="metadata1998">
    <rdf:RDF>
      <cc:Work
         rdf:about="">
        <dc:format>image/svg+xml</dc:format>
        <dc:type
           rdf:resource="http://purl.org/dc/dcmitype/StillImage" />
        <dc:title></dc:title>
      </cc:Work>
    </rdf:RDF>
  </metadata>
  <g
     inkscape:label="Layer 1"
     inkscape:groupmode="layer"
     id="layer1">
    <path
       style="fill:#ffffff;fill-opacity:1;stroke-width:0.36864185"
       d="m 13.784274,21.655091 c 0.776748,-0.368211 1.689757,-0.905515 2.513694,-0.660476 1.408549,0.4189 1.194271,1.14827 1.637329,2.272709 0.365557,0.927745 1.774052,1.38271 1.637328,2.370459 -0.06681,0.482657 -0.664204,0.851199 -1.148572,0.904197 -1.231394,0.134734 -1.961132,-0.977228 -3.128031,-1.392951 -0.789138,-0.281141 -2.015408,-0.275899 -2.663713,-0.806445 -0.389221,-0.318523 -0.751652,-0.879198 -0.635381,-1.368513 0.272648,-1.147419 1.123117,-1.004107 1.787346,-1.31898 z"
       id="path833"
       inkscape:connector-curvature="0"
       sodipodi:nodetypes="sssssssss" />
    <path
       style="fill:#ffffff;stroke-width:0.36864185"
       d="m 12.82781,25.100153 c 0.487989,-0.308285 1.159123,0.09853 1.710643,0.268815 0.508305,0.156951 1.611314,0.179994 1.441826,0.684257 -0.127247,0.378587 -0.774171,-0.223274 -1.173012,-0.244376 -0.327005,-0.0173 -0.65729,0.02926 -0.977509,0.09775 -0.251899,0.05388 -0.480126,0.292792 -0.733132,0.244378 -0.198734,-0.03803 -0.406181,-0.197195 -0.464317,-0.391004 -0.06591,-0.219718 0.0015,-0.537302 0.195501,-0.659819 z"
       id="path835"
       inkscape:connector-curvature="0"
       sodipodi:nodetypes="ssssssss" />
    <path
       style="fill:#ffffff;stroke-width:0.36864185"
       d="m 18.399615,21.703309 c -0.523025,0.130958 -0.102824,1.122917 0.122187,1.612889 0.274039,0.596729 1.028346,1.271576 1.319639,0.977511 0.174034,-0.175691 -0.538897,-0.61359 -0.806446,-1.148574 -0.234919,-0.469739 -0.125902,-1.569394 -0.63538,-1.441826 z"
       id="path837"
       inkscape:connector-curvature="0"
       sodipodi:nodetypes="sssss" />
    <path
       style="fill:#ffffff;stroke-width:0.36864185"
       d="m 19.362778,26.810148 c -0.06975,-0.16688 0.308793,-0.195911 0.432003,-0.328322 0.107743,-0.115791 0.103136,-0.423125 0.259202,-0.397442 0.205396,0.0338 0.27109,0.431673 0.15552,0.604803 -0.158291,0.237128 -0.73678,0.384016 -0.846725,0.120961 z"
       id="path839"
       inkscape:connector-curvature="0"
       sodipodi:nodetypes="sssss" />
    <path
       style="fill:#ffffff;stroke-width:0.36864185"
       d="m 18.360534,19.621631 c -0.195155,0.357591 0.376329,0.397406 0.812164,1.019526 0.176002,0.251229 0.223491,0.844703 0.518402,0.760323 0.404602,-0.115764 0.167611,-0.804953 -0.0864,-1.140485 -0.300204,-0.396552 -1.005902,-1.075947 -1.244166,-0.639364 z"
       id="path841"
       inkscape:connector-curvature="0"
       sodipodi:nodetypes="sssss" />
    <path
       style="fill:#ffffff;stroke-width:0.36864185"
       d="m 27.207939,23.665172 c -0.410234,-0.03284 -0.209719,-1.603985 0.03456,-2.350092 0.210313,-0.642362 0.805451,-1.894985 1.209606,-1.710728 0.595016,0.271269 -0.176306,0.733486 -0.604803,1.866249 -0.589567,1.558568 0.120143,2.255375 -0.639362,2.194571 z"
       id="path843"
       inkscape:connector-curvature="0"
       sodipodi:nodetypes="sssss" />
    <path
       style="fill:#ffffff;stroke-width:0.36864185"
       d="m 28.573065,23.855253 c -0.249946,-0.238192 0.370334,-0.589771 0.483843,-0.915845 0.08282,-0.237928 -0.05348,-0.579606 0.138241,-0.743043 0.175393,-0.149517 0.533672,-0.18551 0.691203,-0.01728 0.217431,0.2322 -0.123808,0.612382 -0.293762,0.881284 -0.25386,0.40166 -0.675546,1.122685 -1.019525,0.794883 z"
       id="path845"
       inkscape:connector-curvature="0"
       sodipodi:nodetypes="ssssss" />
    <path
       style="fill:#ffffff;fill-opacity:1;stroke-width:0.36864185"
       d="m 34.136765,21.655091 c -0.776748,-0.368211 -1.689757,-0.905515 -2.513694,-0.660476 -1.408549,0.4189 -1.194271,1.14827 -1.637329,2.272709 -0.365557,0.927745 -1.774053,1.38271 -1.637328,2.370459 0.06681,0.482657 0.664204,0.851199 1.148572,0.904197 1.231393,0.134734 1.961131,-0.977228 3.128031,-1.392951 0.789138,-0.281141 2.015408,-0.275899 2.663713,-0.806445 0.38922,-0.318523 0.751652,-0.879198 0.635381,-1.368513 -0.272648,-1.147419 -1.123117,-1.004107 -1.787346,-1.31898 z"
       id="path833-3"
       inkscape:connector-curvature="0"
       sodipodi:nodetypes="sssssssss" />
    <path
       style="fill:#ffffff;stroke:none;stroke-width:0.36864185px;stroke-linecap:butt;stroke-linejoin:miter;stroke-opacity:1"
       d="m 31.994522,26.205345 c -0.18843,-0.302112 0.718148,-0.680981 1.175047,-0.846724 0.552889,-0.200564 1.795899,-0.467688 1.814409,-0.172801 0.03549,0.565393 -1.070516,0.371128 -1.607049,0.552963 -0.615862,0.208719 -1.125031,0.879215 -1.382407,0.466562 z"
       id="path862"
       inkscape:connector-curvature="0"
       sodipodi:nodetypes="sssss" />
  </g>
</svg>
