<?xml version="1.0" encoding="UTF-8" standalone="no"?>
<!-- Created with Inkscape (http://www.inkscape.org/) -->

<svg
   xmlns:dc="http://purl.org/dc/elements/1.1/"
   xmlns:cc="http://creativecommons.org/ns#"
   xmlns:rdf="http://www.w3.org/1999/02/22-rdf-syntax-ns#"
   xmlns:svg="http://www.w3.org/2000/svg"
   xmlns="http://www.w3.org/2000/svg"
   xmlns:sodipodi="http://sodipodi.sourceforge.net/DTD/sodipodi-0.dtd"
   xmlns:inkscape="http://www.inkscape.org/namespaces/inkscape"
   width="48px"
   height="48px"
   viewBox="0 0 48 48"
   version="1.1"
   id="SVGRoot"
   inkscape:version="0.92.4 (5da689c313, 2019-01-14)"
   sodipodi:docname="counter-strike-global-offensea.svg"
   inkscape:export-filename="C:\Users\Admin\Documents\Rainmeter\Skins\Honeycomb-NG\@Resources\Images\openshot.png"
   inkscape:export-xdpi="512"
   inkscape:export-ydpi="512">
  <defs
     id="defs1995" />
  <sodipodi:namedview
     id="base"
     pagecolor="#ffffff"
     bordercolor="#666666"
     borderopacity="1.0"
     inkscape:pageopacity="0.0"
     inkscape:pageshadow="2"
     inkscape:zoom="18.671859"
     inkscape:cx="25.183101"
     inkscape:cy="24.488085"
     inkscape:document-units="px"
     inkscape:current-layer="layer1"
     showgrid="true"
     inkscape:window-width="1920"
     inkscape:window-height="1017"
     inkscape:window-x="-8"
     inkscape:window-y="-8"
     inkscape:window-maximized="1"
     inkscape:grid-bbox="true"
     inkscape:snap-global="true">
    <inkscape:grid
       type="xygrid"
       id="grid2562" />
  </sodipodi:namedview>
  <metadata
     id="metadata1998">
    <rdf:RDF>
      <cc:Work
         rdf:about="">
        <dc:format>image/svg+xml</dc:format>
        <dc:type
           rdf:resource="http://purl.org/dc/dcmitype/StillImage" />
        <dc:title></dc:title>
      </cc:Work>
    </rdf:RDF>
  </metadata>
  <g
     inkscape:label="Layer 1"
     inkscape:groupmode="layer"
     id="layer1">
    <g
       transform="matrix(3.7795276,0,0,3.7795276,-440.41433,-604.5957)"
       id="layer1-1"
       inkscape:label="Layer 1"
       style="fill:#ffffff">
      <path
         d="m 122.08203,163.37236 c -0.0953,-7.5e-4 -0.19092,0.0334 -0.26111,0.0967 -0.0967,0.0869 -0.13848,0.21895 -0.14493,0.34776 -0.003,0.058 0.0225,0.1159 0.0386,0.1707 -0.01,0.0124 -0.0225,0.0257 -0.0355,0.0386 -0.0257,-0.0192 -0.0451,-0.0515 -0.0773,-0.0515 -0.0967,-0.003 -0.19966,0.029 -0.27051,0.0967 -0.10628,0.0998 -0.16421,0.23831 -0.18998,0.38 -0.0192,0.10944 -0.0257,0.22537 0,0.33808 0.003,0.0161 0,0.0355 0,0.0516 -0.0419,0.0124 -0.0837,0.0257 -0.12566,0.0192 -0.0355,-0.007 -0.0773,4e-5 -0.0934,0.0322 -0.0161,0.1159 -0.003,0.23183 -0.0323,0.34453 -0.01,0.058 -0.0192,0.1159 -0.0161,0.17389 0.0676,0.0226 0.1385,0.029 0.20935,0.0451 -0.0547,0.003 -0.1159,0.0225 -0.14815,0.0708 -0.01,0.0902 -0.007,0.18353 0.0161,0.2737 0.01,0.0837 0.01,0.17069 0.0194,0.25442 -0.007,-0.003 -0.0225,-0.007 -0.029,-0.01 -0.058,0.0225 -0.0516,0.0934 -0.0677,0.1417 0.0124,0.01 0.029,0.0225 0.0419,0.0322 -0.0124,0.0192 -0.0259,0.0418 -0.0386,0.0612 l 0.029,0.0483 c -0.003,0.0161 -0.007,0.029 -0.01,0.0451 0.007,0.0225 0.0257,0.0386 0.0386,0.0547 -0.0257,0.15136 -0.0547,0.29947 -0.0676,0.45081 -0.007,0.0516 0.0124,0.10312 0.007,0.1546 0,0.0419 -0.0322,0.0708 -0.0516,0.10628 -0.0192,0.029 -0.0192,0.0643 -0.0451,0.0869 -0.0386,0.0419 -0.0612,0.0934 -0.0902,0.1417 -0.029,0.058 -0.0676,0.11274 -0.0676,0.18034 -0.003,0.029 -3e-5,0.058 -0.01,0.0869 -0.0257,0.0677 -0.0773,0.12237 -0.0965,0.19321 -0.01,0.0419 -0.0124,0.0869 -0.01,0.12883 0,0.0257 0.0225,0.0386 0.0386,0.0547 -0.0419,0.15136 -0.0773,0.30273 -0.11907,0.45408 -0.0192,0.0547 -0.0124,0.1159 -0.003,0.17389 0.003,0.0124 -1e-5,0.029 0.0124,0.0386 0.12236,0.0386 0.25118,0.0257 0.37678,0.01 0.007,-0.0386 0.0161,-0.0773 0.003,-0.1159 -0.0124,-0.029 -0.0322,-0.0547 -0.0322,-0.0869 -0.003,-0.0708 -0.003,-0.14491 0.007,-0.21575 0.0192,-0.0741 0.0516,-0.1417 0.0806,-0.21255 0.0257,-0.003 0.058,-0.01 0.0708,-0.0355 0.0322,-0.0612 0.0483,-0.12882 0.0708,-0.19321 0.0451,-0.0869 0.0934,-0.17714 0.1159,-0.27373 0.0124,-0.0386 -0.0124,-0.0804 -0.007,-0.11907 0.0161,-0.0355 0.0355,-0.0708 0.0483,-0.10944 0.0124,-0.029 0.0451,-0.0355 0.0643,-0.058 0.029,-0.0355 0.0419,-0.0773 0.0612,-0.1192 0.0257,-0.0124 0.0547,-0.0225 0.0708,-0.0483 0.0124,-0.0322 0.0192,-0.0645 0.0225,-0.0998 0.007,-0.0708 0.0386,-0.13515 0.0612,-0.19962 0.0192,-0.0516 0.0386,-0.10311 0.0612,-0.1546 0.0226,-0.029 0.0547,-0.0516 0.0741,-0.0837 0.0226,-0.0322 0.029,-0.0741 0.0386,-0.11274 0.0226,0.0483 0.0451,0.0998 0.0806,0.13846 0.0322,0.0225 0.074,0.0192 0.10944,0.0225 0.0837,0.12552 0.17069,0.25442 0.25442,0.38 0.0355,0.0612 0.11921,0.0483 0.17711,0.0419 0.0124,0.0257 0.0353,0.0483 0.0451,0.0773 -0.003,0.0547 -0.01,0.11274 -0.0161,0.16747 -0.0257,0.0225 -0.0482,0.0483 -0.0451,0.0837 0.003,0.12553 0.0124,0.25118 0.0355,0.37355 0.0124,0.0451 0.029,0.0934 0.029,0.14169 -0.003,0.0194 0.0192,0.0257 0.0322,0.0322 0.007,0.0998 0.0124,0.20287 0.0192,0.3027 0.003,0.029 -0.0257,0.0483 -0.0322,0.0773 -0.0161,0.0837 -0.0483,0.16743 -0.0418,0.25436 0.0677,0.0516 0.15457,0.0225 0.22863,0.0194 0.0547,0.007 0.10628,0.029 0.16102,0.0419 0.13847,0.0194 0.27692,0.0194 0.41538,0 0.007,-0.0386 0.0192,-0.0806 -0.003,-0.1159 -0.058,-0.058 -0.13845,-0.0643 -0.20607,-0.0965 -0.0612,-0.0612 -0.11906,-0.12883 -0.17066,-0.19968 -0.0386,-0.10627 -0.01,-0.21577 -0.0124,-0.32525 0.0386,-0.0355 0.0386,-0.0869 0.0419,-0.13529 0.003,-0.0515 -0.0194,-0.10297 -0.0225,-0.15456 0.01,-0.0676 0.0257,-0.13529 0.0322,-0.20289 0.01,-0.0967 0.0161,-0.19318 0.0225,-0.28979 0,-0.0418 0.007,-0.0837 -0.0161,-0.11921 -0.0257,-0.0386 -0.0124,-0.0869 -0.0259,-0.12882 -0.01,0 -0.029,0.003 -0.0386,0.003 -0.0547,-0.1449 -0.10628,-0.28982 -0.17394,-0.42829 -0.0676,-0.14491 -0.16098,-0.27372 -0.27046,-0.38965 -0.0192,-0.0386 -0.0192,-0.0837 -0.0322,-0.12566 -0.0161,-0.0355 0.0124,-0.0645 0.0257,-0.0934 0.0355,0.0161 0.0676,0.0322 0.10627,0.0355 0.058,-0.0612 0.0998,-0.1449 0.0967,-0.22863 0.007,-0.1159 0.0192,-0.23183 0.0225,-0.34776 0,-0.0355 -0.0124,-0.0676 -0.0257,-0.0966 -0.0194,-0.0386 -0.0676,-0.0516 -0.10311,-0.0677 0.0161,-0.0386 0.0386,-0.0773 0.0322,-0.12236 0.0741,0.0419 0.14488,0.0869 0.22218,0.12236 0.0708,0.0322 0.14494,0.0708 0.22544,0.0644 0.0161,0.0124 0.0322,0.029 0.0547,0.0225 0.0612,-0.003 0.11274,-0.0482 0.15137,-0.0934 0.0547,-0.0225 0.0998,-0.0708 0.11274,-0.12882 0.0124,-0.0645 0.029,-0.13199 0.0451,-0.19645 0.029,-0.007 0.0612,-0.0161 0.0902,-0.0225 -0.0257,-0.0934 -0.0612,-0.18678 -0.0451,-0.28661 0.0192,-0.007 0.0386,-0.0194 0.0516,-0.0386 0.0194,-0.0355 0.0741,-0.0483 0.0645,-0.0967 0.0257,-0.003 0.0451,-0.0124 0.0643,-0.029 h 0.46049 v -0.0612 c 0.0547,0.01 0.11274,0.0124 0.16747,-0.003 h 0.28016 c 0.0161,0.01 0.029,0.0161 0.0451,0.0259 0.007,-0.003 0.0161,-0.0124 0.0194,-0.0161 h 0.15455 c 0.003,-0.0225 0.003,-0.0482 -0.003,-0.0741 h -0.15137 c -0.003,-0.003 -0.0124,-0.01 -0.0194,-0.0124 -0.0161,0.007 -0.0322,0.0124 -0.0418,0.0257 -0.10627,0 -0.20935,0.003 -0.31239,0 -0.007,-0.0192 2e-5,-0.0355 0.0124,-0.0483 -0.003,-0.0124 -0.007,-0.0225 -0.01,-0.0322 -0.0192,-0.007 -0.0355,0.003 -0.0483,0.0161 0,-0.007 -0.003,-0.0194 -0.003,-0.0259 -0.007,0 -0.0124,-0.003 -0.0161,-0.007 -0.003,-0.058 0,-0.11274 0,-0.1707 h -0.0419 v 0.20931 h -0.0355 v -0.0547 c -0.37354,0 -0.75028,-0.003 -1.12382,0 -0.003,-0.0124 -0.003,-0.0257 -0.003,-0.0386 -0.0192,-0.003 -0.0451,0.003 -0.0612,-0.01 -0.01,-0.0322 -0.007,-0.0643 -0.01,-0.0965 -0.007,0.003 -0.0192,0.007 -0.0257,0.007 0,0.0451 -0.0161,0.087 -0.0192,0.13198 -0.029,0.003 -0.0644,-0.01 -0.0869,0.0124 -0.0612,0.0124 -0.12236,0.0257 -0.18357,0.029 0.01,-0.007 0.0161,-0.0124 0.0257,-0.0192 -0.007,-0.0451 -0.0226,-0.087 -0.0161,-0.13199 0.0419,-0.0161 0.0934,-0.0258 0.12236,-0.0612 0.0355,-0.10628 0.0124,-0.21574 -0.029,-0.31557 0,-0.0161 0.0124,-0.0386 -0.003,-0.0516 -0.0322,-0.0257 -0.0741,-0.0355 -0.10944,-0.058 -0.0451,-0.029 -0.0869,-0.0579 -0.13529,-0.074 -0.0313,-0.01 -0.0641,-0.0148 -0.0968,-0.016 -0.003,-9e-5 -0.005,-1.9e-4 -0.01,-1.9e-4 z m 0.84383,1.00113 c 0.019,-0.001 0.0366,3.8e-4 0.0478,0.0137 0,0.0257 0.0124,0.0709 -0.0225,0.0806 -0.0451,0.003 -0.0902,0 -0.13529,0 0.0161,-0.01 0.0355,-0.01 0.0516,-0.0161 0.0124,-0.0192 0.007,-0.0419 0.003,-0.0645 0.0161,-0.005 0.0363,-0.011 0.0551,-0.0137 z m -0.14213,0.10985 c 0.058,0.007 0.11603,0 0.17393,0.003 -0.0483,0.0483 -0.0804,0.10628 -0.12236,0.16097 -0.029,-0.0355 -0.0451,-0.0902 -0.0773,-0.12552 0.01,-0.0124 0.0161,-0.0257 0.0257,-0.0386 z"
         style="fill:#ffffff;stroke-width:0.03220211"
         id="path826"
         inkscape:connector-curvature="0" />
    </g>
    <path
       style="opacity:1;vector-effect:none;fill:#ffffff;fill-opacity:1;fill-rule:evenodd;stroke:none;stroke-width:3;stroke-linecap:round;stroke-linejoin:round;stroke-miterlimit:4;stroke-dasharray:none;stroke-opacity:1;paint-order:stroke fill markers"
       d="M 26 22 C 25.446 22 25 22.446 25 23 L 25 26 C 25 26.554 25.446 27 26 27 L 27 27 L 28 27 L 29 27 L 29 26 L 29 25 L 29 24 L 28 24 L 27 24 L 27 25 L 28 25 L 28 26 L 26 26 L 26 24 L 26 23 L 28 23 L 29 23 L 29 22 L 28 22 L 27 22 L 26 22 z "
       id="rect817" />
    <path
       style="opacity:1;vector-effect:none;fill:#ffffff;fill-opacity:1;fill-rule:evenodd;stroke:none;stroke-width:3;stroke-linecap:round;stroke-linejoin:round;stroke-miterlimit:4;stroke-dasharray:none;stroke-opacity:1;paint-order:stroke fill markers"
       d="M 31 22 C 30.446 22 30 22.446 30 23 L 30 26 C 30 26.554 30.446 27 31 27 L 33 27 C 33.554 27 34 26.554 34 26 L 34 23 C 34 22.446 33.554 22 33 22 L 31 22 z M 31 23 L 33 23 L 33 26 L 31 26 L 31 23 z "
       id="rect819" />
  </g>
</svg>
