<?xml version="1.0" encoding="UTF-8" standalone="no"?>
<!-- Created with Inkscape (http://www.inkscape.org/) -->

<svg
   xmlns:dc="http://purl.org/dc/elements/1.1/"
   xmlns:cc="http://creativecommons.org/ns#"
   xmlns:rdf="http://www.w3.org/1999/02/22-rdf-syntax-ns#"
   xmlns:svg="http://www.w3.org/2000/svg"
   xmlns="http://www.w3.org/2000/svg"
   xmlns:sodipodi="http://sodipodi.sourceforge.net/DTD/sodipodi-0.dtd"
   xmlns:inkscape="http://www.inkscape.org/namespaces/inkscape"
   width="48px"
   height="48px"
   viewBox="0 0 48 48"
   version="1.1"
   id="SVGRoot"
   inkscape:version="0.92.4 (5da689c313, 2019-01-14)"
   sodipodi:docname="milkytrackera.svg"
   inkscape:export-filename="C:\Users\Admin\Documents\Rainmeter\Skins\Honeycomb-NG\@Resources\Images\openshot.png"
   inkscape:export-xdpi="512"
   inkscape:export-ydpi="512">
  <defs
     id="defs1995" />
  <sodipodi:namedview
     id="base"
     pagecolor="#ffffff"
     bordercolor="#666666"
     borderopacity="1.0"
     inkscape:pageopacity="0.0"
     inkscape:pageshadow="2"
     inkscape:zoom="18.083334"
     inkscape:cx="11.90657"
     inkscape:cy="23.406761"
     inkscape:document-units="px"
     inkscape:current-layer="layer1"
     showgrid="true"
     inkscape:window-width="1920"
     inkscape:window-height="1017"
     inkscape:window-x="-8"
     inkscape:window-y="-8"
     inkscape:window-maximized="1"
     inkscape:grid-bbox="true"
     inkscape:snap-global="false">
    <inkscape:grid
       type="xygrid"
       id="grid2562" />
  </sodipodi:namedview>
  <metadata
     id="metadata1998">
    <rdf:RDF>
      <cc:Work
         rdf:about="">
        <dc:format>image/svg+xml</dc:format>
        <dc:type
           rdf:resource="http://purl.org/dc/dcmitype/StillImage" />
        <dc:title></dc:title>
      </cc:Work>
    </rdf:RDF>
  </metadata>
  <g
     inkscape:label="Layer 1"
     inkscape:groupmode="layer"
     id="layer1">
    <path
       style="color:#000000;font-style:normal;font-variant:normal;font-weight:normal;font-stretch:normal;font-size:medium;line-height:normal;font-family:sans-serif;font-variant-ligatures:normal;font-variant-position:normal;font-variant-caps:normal;font-variant-numeric:normal;font-variant-alternates:normal;font-feature-settings:normal;text-indent:0;text-align:start;text-decoration:none;text-decoration-line:none;text-decoration-style:solid;text-decoration-color:#000000;letter-spacing:normal;word-spacing:normal;text-transform:none;writing-mode:lr-tb;direction:ltr;text-orientation:mixed;dominant-baseline:auto;baseline-shift:baseline;text-anchor:start;white-space:normal;shape-padding:0;clip-rule:nonzero;display:inline;overflow:visible;visibility:visible;opacity:1;isolation:auto;mix-blend-mode:normal;color-interpolation:sRGB;color-interpolation-filters:linearRGB;solid-color:#000000;solid-opacity:1;vector-effect:none;fill:#ffffff;fill-opacity:1;fill-rule:nonzero;stroke:none;stroke-width:1.79449713;stroke-linecap:round;stroke-linejoin:round;stroke-miterlimit:4;stroke-dasharray:none;stroke-dashoffset:0;stroke-opacity:1;color-rendering:auto;image-rendering:auto;shape-rendering:auto;text-rendering:auto;enable-background:accumulate"
       d="M 20.357422 11.585938 A 0.89733829 0.89733829 0 0 0 19.626953 12.046875 L 15.140625 20.121094 A 0.89733829 0.89733829 0 0 0 15.027344 20.556641 L 15.027344 30.427734 A 0.89733829 0.89733829 0 0 0 15.560547 31.246094 L 23.634766 34.835938 A 0.89733829 0.89733829 0 0 0 24.365234 34.835938 L 32.439453 31.246094 A 0.89733829 0.89733829 0 0 0 32.972656 30.427734 L 32.972656 20.556641 A 0.89733829 0.89733829 0 0 0 32.742188 19.957031 L 28.705078 15.470703 A 0.89733829 0.89733829 0 0 0 28.419922 15.259766 L 20.792969 11.669922 A 0.89733829 0.89733829 0 0 0 20.357422 11.585938 z M 28.158203 16.099609 L 32.076172 20.556641 L 24 24.580078 L 28.158203 16.099609 z M 16.976562 23.640625 L 21.539062 26.039062 L 21.539062 26.775391 L 22.337891 27.238281 L 22.337891 31.695312 L 20.845703 30.917969 L 20.845703 26.458984 L 20.109375 26.039062 L 20.109375 30.580078 L 19.351562 30.203125 L 19.351562 25.660156 L 18.617188 25.21875 L 18.617188 29.886719 L 16.976562 29.044922 L 16.976562 23.640625 z M 30.582031 23.851562 L 30.582031 24.671875 L 29.005859 25.492188 L 29.005859 29.949219 L 27.449219 30.8125 L 27.449219 26.228516 L 25.955078 27.005859 L 25.955078 26.228516 L 30.582031 23.851562 z "
       id="path826" />
    <path
       style="fill:#eceff4;stroke:#ffffff;stroke-width:0.89724857px;stroke-linecap:round;stroke-linejoin:round;stroke-opacity:1"
       d="m 19.962382,12.033195 v -0.897249 l 8.075236,3.588995 v 0.897248 z"
       id="path831"
       inkscape:connector-curvature="0"
       sodipodi:nodetypes="ccccc" />
  </g>
</svg>
