<?xml version="1.0" encoding="UTF-8" standalone="no"?>
<!-- Created with Inkscape (http://www.inkscape.org/) -->

<svg
   xmlns:dc="http://purl.org/dc/elements/1.1/"
   xmlns:cc="http://creativecommons.org/ns#"
   xmlns:rdf="http://www.w3.org/1999/02/22-rdf-syntax-ns#"
   xmlns:svg="http://www.w3.org/2000/svg"
   xmlns="http://www.w3.org/2000/svg"
   xmlns:sodipodi="http://sodipodi.sourceforge.net/DTD/sodipodi-0.dtd"
   xmlns:inkscape="http://www.inkscape.org/namespaces/inkscape"
   width="48px"
   height="48px"
   viewBox="0 0 48 48"
   version="1.1"
   id="SVGRoot"
   inkscape:version="0.92.4 (5da689c313, 2019-01-14)"
   sodipodi:docname="7-days-to-diea.svg"
   inkscape:export-filename="C:\Users\Admin\Documents\Rainmeter\Skins\Honeycomb-NG\@Resources\Images\openshot.png"
   inkscape:export-xdpi="512"
   inkscape:export-ydpi="512">
  <defs
     id="defs1995" />
  <sodipodi:namedview
     id="base"
     pagecolor="#ffffff"
     bordercolor="#666666"
     borderopacity="1.0"
     inkscape:pageopacity="0.0"
     inkscape:pageshadow="2"
     inkscape:zoom="12.786848"
     inkscape:cx="18.271733"
     inkscape:cy="24.769103"
     inkscape:document-units="px"
     inkscape:current-layer="layer1"
     showgrid="true"
     inkscape:window-width="1920"
     inkscape:window-height="1017"
     inkscape:window-x="-8"
     inkscape:window-y="-8"
     inkscape:window-maximized="1"
     inkscape:grid-bbox="true"
     inkscape:snap-global="true">
    <inkscape:grid
       type="xygrid"
       id="grid2562" />
  </sodipodi:namedview>
  <metadata
     id="metadata1998">
    <rdf:RDF>
      <cc:Work
         rdf:about="">
        <dc:format>image/svg+xml</dc:format>
        <dc:type
           rdf:resource="http://purl.org/dc/dcmitype/StillImage" />
        <dc:title></dc:title>
      </cc:Work>
    </rdf:RDF>
  </metadata>
  <g
     inkscape:label="Layer 1"
     inkscape:groupmode="layer"
     id="layer1">
    <path
       inkscape:connector-curvature="0"
       sodipodi:nodetypes="ccccccccccccccccccccccccccccccccccccccccccccccccscscccscccccccc"
       d="m 21.042368,33.938882 c 0.289531,-0.46674 0.765705,0.269173 0,0 z m 0.721403,-0.387046 c -0.959151,0.06254 0.113048,-0.842606 0.09149,-1.368713 0.407256,-0.635994 0.653824,-1.809371 0.900199,-2.198565 -0.03061,-0.297341 0.459081,-0.510066 -0.07887,-0.595506 -0.428672,0.464551 -0.392557,1.229903 -1.006741,1.360108 0.08947,0.152893 0.231991,-0.209205 0.03817,0.281243 -0.135396,0.268267 -0.904676,0.896962 -0.538277,0.281614 0.292502,-0.05056 -0.345734,-0.201817 0.0902,-0.322807 -0.496453,4.3e-4 0.258924,-0.971691 0.03213,-0.961636 0.506622,-0.260927 0.276097,-0.795707 0.407259,-1.37406 -0.08428,-0.833792 0.336647,-1.589285 0.41946,-2.400599 0.450809,-0.542891 0.719908,-1.252594 1.086383,-1.878344 -0.09501,-0.415041 0.441388,-0.446411 0.309179,-0.888661 0.542163,-0.535747 0.04796,-1.142083 0.123476,-1.674515 0.116579,-0.439808 0.638888,0.423885 0.593888,-0.36837 0.258349,-0.420339 0.441968,-1.317401 0.612725,-1.930435 0.196737,-0.788543 -0.06607,-1.089412 0.403399,-1.753428 C 25.512798,17.20763 25.50016,17 25.50016,17 H 19 l -1,-3 h 13 c -0.373593,0.940031 -0.692187,1.903843 -1.144322,2.808633 -0.254049,0.91396 -0.740474,1.753625 -1.211757,2.57262 -0.377056,0.328607 -0.297845,1.095979 -0.629864,1.09969 -0.268879,0.609068 -1.083508,1.201497 -0.850276,1.979516 0.008,0.862848 -0.706601,1.314961 -1.066143,2.010936 -0.0033,0.488439 0.339643,0.619708 0.628789,0.121889 0.519823,0.370957 -0.503506,1.318063 -0.793216,1.819595 -0.157249,0.526583 -0.203959,-0.411032 -0.526841,0.212024 -0.540313,0.386082 -0.822214,0.720473 -0.672679,1.430019 -0.586398,0.368395 -0.08022,1.105927 -0.716547,1.341213 -0.19637,0.361749 -0.197385,0.765534 -0.67174,0.77085 -0.133233,0.549301 -0.478346,1.264844 -0.844011,1.8232 -0.30695,0.495 -0.889089,0.845896 -0.653127,1.474714 0.08603,-0.05865 -0.0945,0.194407 -0.0845,0.08694 z m 0.233586,-4.741938 c -0.441635,-0.0072 0.0418,0.348709 0,0 z m 2.935138,-7.879805 c -0.150134,-0.417293 1.03722,-0.317883 0.360988,-0.448098 0.481033,-1.04568 -0.877745,0.152171 -0.552381,0.581895 -0.571531,-0.473582 0.06362,0.647801 0.160853,0.0021 l 0.03054,-0.135898 z m 0.49523,-0.120217 c -0.394451,-0.09346 -0.0665,0.640298 0,0 z m -4.498213,11.798747 c 0.199214,-0.404114 0.256527,-0.306225 0.01197,0.06929 -0.149293,0.08432 -0.261475,-0.08925 -0.01197,-0.06929 z m -0.103248,-2.619274 c -0.925454,0.09907 0.181469,-1.455261 0.235162,-0.487688 0.542195,0.440393 -0.495852,0.01176 -0.08989,0.539012 l -0.145269,-0.05133 z m 0.490272,-1.759832 c 0.424935,-0.362059 0.05025,0.331088 0,0 z m 3.865357,-0.450695 c 0.02717,-0.426719 0.838646,-0.997342 0.382665,-0.221019 -0.06227,0.102388 -0.317746,0.634757 -0.382665,0.221019 z m 2.250714,-5.170313 c 0.207173,-0.480261 0.192626,0.359752 0,0 z"
       style="fill:#ffffff;fill-opacity:1;stroke-width:0.09785747"
       id="path6827" />
  </g>
</svg>
